<?xml version="1.0" encoding="UTF-8"?>
<svg id="Layer_2" data-name="Layer 2" xmlns="http://www.w3.org/2000/svg" viewBox="0 0 227 221">
  <defs>
    <style>
      .cls-1 {
        opacity: .41;
      }

      .cls-1, .cls-2 {
        fill: #c398a1;
        stroke-width: 0px;
      }
    </style>
  </defs>
  <g id="Layer_1-2" data-name="Layer 1">
    <g>
      <g id="UmtoLy.tif">
        <path class="cls-2" d="m175.47,116.61c.02,5.54.2,12.3-.13,19.05-.35,7.27-1.91,14.25-5.3,20.75-.24.47-.51.93-.79,1.37-.41.64-.97.98-1.76.68-.92-.35-1.65-.14-2.46.47-1.15.86-2.62.8-3.99.9-15.51,1.09-31.04,1.55-46.57,2.04-12.61.4-25.21,1.18-37.82.65-4.83-.2-9.69.09-14.49-.71-4.1-.68-5.71-2.39-6.35-6.53-.71-4.56-.51-9.18-.96-13.75-1.03-10.53-1.24-21.11-2.05-31.65-.28-3.69-.79-7.36-1.13-11.04-.43-4.63-.64-9.26.22-13.87.53-2.85,1.43-5.52,4.02-7.25.29-.2.51-.52.73-.81,3.43-4.62,8.05-6.93,13.76-6.78,8.29.23,16.58.48,24.87.92,9.95.53,19.88,1.42,29.85,1.67.49.01.98.03,1.46-.02,2.48-.22,3.46-1.48,3-3.95-.22-1.17-.33-2.33-.38-3.51-.12-2.78,1.26-4.63,3.67-5.79,1.7-.82,3.54-1.22,5.41-1.34,3.66-.25,7.31-.16,10.97.24,4.45.49,8.95-.12,13.4.54,3.22.48,6.14,1.56,8.32,4.12,1.99,2.34,2.41,5.19,2.58,8.1.38,6.62.74,13.24,1.09,19.86.42,8.13.75,16.26.84,25.6Zm-72.43,43.23c18.34-.73,33.27-.94,48.18-1.88,3.73-.24,7.46-.5,11.19-.78,1.16-.09,1.65-.76,1.76-1.93.29-3,.38-6.01.28-9.02-.5-15.12-.27-30.27-1.23-45.38-.28-4.42-.06-8.87-.94-13.25-.88-4.37-2.98-6.54-7.14-7.21-1.04-.17-2.1-.28-3.15-.35-7.27-.44-14.56-.68-21.84-.39-15.44.62-30.82-.53-46.22-1.2-6.34-.27-12.67-.91-19.02-.66-2.68.1-5.3.38-7.62,2.31-1.25,1.04-2.09,2.05-2.53,3.5-1.19,3.92-1.12,7.95-.9,11.98.26,4.84,1.12,9.61,1.42,14.45.41,6.58.82,13.15,1.14,19.74.31,6.42,1.13,12.8,1.25,19.24.04,2.23.26,4.46.7,6.67.36,1.79,1.2,3.1,3.1,3.48,1.08.21,2.14.48,3.25.51,4.35.14,8.7.34,13.05.44,9.56.22,19.12.07,25.26-.27Zm7.81-82.5c7.37.08,13.31-.01,19.25-.13,8.14-.15,16.28-.16,24.39.61,4.29.41,7.77,2.08,9.39,6.41.75,1.99,1.21,4.06,1.34,6.18.59,9.46.91,18.93,1.19,28.41.25,8.34.13,16.68.46,25.02.15,3.69.14,7.39,0,11.08-.01.28-.11.63.23.74.49.16.62-.31.78-.6,1.11-2.09,2.02-4.26,2.74-6.51,1.92-5.95,2.35-12.11,2.42-18.31.25-20.07-.85-40.1-2.05-60.12-.27-4.5-2.46-7.08-6.77-8.33-1.93-.56-3.91-.73-5.91-.73-3.74-.01-7.48-.08-11.22-.37-3.76-.29-7.55-.5-11.3.34-3.34.75-4.52,2.4-4.03,5.76.1.68.19,1.37.3,2.05.55,3.46-1.44,6.01-4.94,6.29-.65.05-1.3.09-1.95.06-4.35-.2-8.7-.34-13.04-.64-13.6-.94-27.2-1.64-40.83-1.98-1.39-.03-2.76.05-4.13.28-1.67.28-3.17,1-4.61,1.85-.24.14-.59.33-.5.61.14.42.55.22.85.17,1.57-.27,3.16-.27,4.75-.24,4.35.06,8.7.4,13.04.58,10.53.43,21.05,1.05,30.14,1.52Z"/>
      </g>
      <ellipse class="cls-1" cx="113.5" cy="110.5" rx="113.5" ry="110.5"/>
    </g>
  </g>
</svg>