<?xml version="1.0" encoding="UTF-8"?>
<svg id="lotus" xmlns="http://www.w3.org/2000/svg" viewBox="0 0 1280 720">
  <defs>
    <style>
      .cls-1 {
        fill: #c3bea0;
      }

      .cls-1, .cls-2 {
        stroke: #000;
      }

      .cls-1, .cls-2, .cls-3 {
        stroke-miterlimit: 10;
        stroke-width: 8px;
      }

      .cls-2 {
        fill: #989898;
      }

      .cls-3 {
        fill: none;
        stroke: #666;
      }

      .cls-4, .cls-5, .cls-6, .cls-7, .cls-8, .cls-9, .cls-10, .cls-11, .cls-12, .cls-13 {
        stroke-width: 0px;
      }

      .cls-5 {
        fill: #a37a4b;
      }

      .cls-6 {
        fill: #231f20;
      }

      .cls-7 {
        fill: #c59167;
      }

      .cls-8 {
        fill: #c90224;
      }

      .cls-9 {
        fill: #909090;
      }

      .cls-10 {
        fill: #ff71a3;
      }

      .cls-11 {
        fill: #fffce4;
      }

      .cls-12 {
        fill: #e6e6e6;
      }

      .cls-13 {
        fill: #f5a1ba;
      }
    </style>
  </defs>
  <rect id="baggrunden" class="cls-12" x="0" y="2.21" width="1276.58" height="714.1"/>
  <g id="clothing">
    <g>
      <g>
        <g>
          <ellipse class="cls-6" cx="991.24" cy="677.72" rx="34.82" ry="8.88"/>
          <path class="cls-6" d="m980.84,677.72h25.33c2.83,0,5.15-.9,5.15-2-18.09-35.41-23.53-65.15-22.93-80.85.55-14.4,3.59-26.21,3.59-26.21,1.58-6.13,4.14-13.83,5.16-16.91,1.45-4.38,2.75-8.02,3.68-10.57h5.35-25.33c-2.83,0-5.15.9-5.15,2,1.68,4.88,3.46,10.91,4.87,17.87,1.6,7.88,2.12,13.96,2.58,19.59.59,7.16.66,12.47.74,18.6.01,1.04.14,12.93-.37,22.97-1.12,21.99-5.79,44.41-7.81,53.52,0,.01,0,.02,5.15,2Z"/>
          <path class="cls-6" d="m946.29,471.02c11.46,10.68,17.19,16.02,17.5,19.59,1.47,16.73-56.75,26-55.09,37.9,1.3,9.31,38.49,14.43,65.96,14.65,35.6.29,82.08-7.41,83.46-19.59,1.65-14.62-62.57-28.25-58.59-42.69.26-.93,2.32-2.97,6.45-7.05,13.28-13.11,19.12-14.45,19.16-18.88.05-6.56-12.68-11.55-19.16-14.09-14.65-5.74-28.58-5.21-32.98-4.93-18.57,1.18-42.56,9-43.11,18.32-.23,3.88,3.78,5.01,16.4,16.77Z"/>
          <polyline class="cls-6" points="963.79 490.89 999.53 481.16 1000.6 486.03"/>
          <path class="cls-6" d="m912,529.78c-.57,1.17,6.79,4.42,11.63,6.05,10.4,3.51,20.97,3.52,25.98,3.52,1.1,0,2.17-.02,4.42,0,6.8.06,11.84.36,13.96.48,5.35.3,21.15,1.19,21.23.69.13-.75-10.81-1.44-38.58-5.3-24.71-3.44-37.91-6.94-38.64-5.44Z"/>
          <ellipse class="cls-6" cx="1183.4" cy="679.7" rx="34.82" ry="8.88"/>
          <path class="cls-6" d="m1173.07,679.7h25.33c2.83,0,5.15-.9,5.15-2-18.09-35.41-23.53-65.15-22.93-80.85.55-14.4,3.59-26.21,3.59-26.21,1.58-6.13,4.14-13.83,5.16-16.91,1.45-4.38,2.75-8.02,3.68-10.57h5.35-25.33c-2.83,0-5.15.9-5.15,2,1.68,4.88,3.46,10.91,4.87,17.87,1.6,7.88,2.12,13.96,2.58,19.59.59,7.16.66,12.47.74,18.6.01,1.04.14,12.93-.37,22.97-1.12,21.99-5.79,44.41-7.81,53.52,0,.01,0,.02,5.15,2Z"/>
          <path class="cls-6" d="m1110.44,487.65s2.58,18.31-1.47,30.58c-.06.19-.31.93-.55,1.97-1.56,6.78.18,10.57.18,10.57.27.59.58,1.26,1.07,1.96.11.17.96,1.32,2.07,2.12,2.13,1.54,5.23,1.75,6.63,1.69,5.08-.22,8.59-4.89,9.95-6.76,11.34-15.57,5.16-41.64,5.16-41.64h0c-5.54-37.41,4.14-58.41-.18-58.97-5.95-.77-25.77,37.7-22.84,58.47Z"/>
          <path class="cls-6" d="m1112.1,529.73c.06,1.19,3.65,2.02,6.45,1.86,1.58-.09,4.51-.59,4.61-1.65.1-1.04-2.52-2.5-4.97-2.69-2.95-.23-6.14,1.34-6.08,2.48Z"/>
          <path class="cls-6" d="m1227.18,482.96c4.93,36.88,7.62,54.73,19.95,57.41.35.08,5.43,1.11,9.87-1.03,15.03-7.26,2.22-41.05-5.29-60.86-7.59-20.03-23.39-54.57-29.64-53.37-1.93.37-2.09,4,5.11,57.85Z"/>
          <path class="cls-6" d="m1257.17,534.1c-.51-1.4-5.09-1.64-8.37-.86-1.85.44-5.17,1.65-4.9,2.95.26,1.27,3.91,2.45,6.91,2.16,3.6-.35,6.85-2.9,6.36-4.25Z"/>
        </g>
        <path class="cls-6" d="m1185.79,499.55c-.2,10.22-2.58,17.32-6.63,29.38-6.69,19.92-13.65,40.66-22.66,40.86-14.26.32-25.95-50.99-29.29-70.24-4.79-27.6,2.96-16.15,5.34-61.64.1-1.83.32-6.35,3.68-7.61,6.79-2.54,22.11,9.82,30.58,19.16,17.93,19.77,19.14,41.38,18.98,50.09Z"/>
        <path class="cls-6" d="m1180.91,504.41c-8.62,35.89-11.89,44.36-3.68,51.22,9.15,7.64,26.25,8,29.11,8.03,4.88.05,17.41.17,25.24-5.35,8.96-6.32,3.97-14.54.18-53.9-2.41-25.04-2.49-43.52-5.34-50.51-.43-1.06-2.48-5.67-2.03-11.84.08-1.1.22-1.93.37-2.82,1.51-8.92,4.98-12.19,3.13-13.95-1.65-1.57-6.45-.92-9.58,0-11.11,3.27-15.51,14.23-17.5,19.44-14.95,39.08-19.9,59.67-19.9,59.67Z"/>
        <ellipse class="cls-6" cx="1159.91" cy="449.32" rx="9.08" ry="35.19" transform="translate(111.17 1118.21) rotate(-53.71)"/>
        <path class="cls-6" d="m1186.24,451.4c-6.62,17.52-12.87,37.76-6.58,40.04,3.05,1.1,8.08-2.38,10.54-4.09,11.93-8.29,10.24-16.76,17.39-30.14,9.93-18.59,26.72-26.14,21.22-32.2-.86-.95-4-3.52-8.62-4.16,0,0-2.86-.39-6,.29-16.6,3.59-27.95,30.27-27.95,30.27Z"/>
      </g>
      <g>
        <g>
          <ellipse class="cls-9" cx="994.45" cy="674.45" rx="33.56" ry="8.56"/>
          <path class="cls-9" d="m984.42,674.45h24.42c2.73,0,4.97-.87,4.97-1.93-17.44-34.13-22.68-62.8-22.11-77.94.53-13.88,3.46-25.26,3.46-25.26,1.52-5.9,3.99-13.33,4.97-16.3,1.4-4.22,2.65-7.73,3.55-10.19h5.16-24.42c-2.73,0-4.97.87-4.97,1.93,1.62,4.71,3.33,10.51,4.69,17.22,1.54,7.59,2.04,13.46,2.49,18.88.57,6.91.64,12.02.71,17.93.01,1.01.14,12.47-.36,22.14-1.08,21.2-5.58,42.81-7.53,51.59,0,.01,0,.02,4.97,1.93Z"/>
          <path class="cls-10" d="m951.11,475.19c11.05,10.3,16.57,15.45,16.87,18.88,1.42,16.13-54.71,25.07-53.1,36.54,1.26,8.98,37.1,13.91,63.58,14.13,34.32.28,79.12-7.14,80.45-18.88,1.59-14.09-60.31-27.23-56.47-41.15.25-.9,2.24-2.86,6.22-6.79,12.8-12.64,18.43-13.93,18.47-18.2.05-6.32-12.22-11.13-18.47-13.58-14.12-5.54-27.55-5.02-31.79-4.75-17.91,1.14-41.03,8.67-41.56,17.66-.22,3.74,3.65,4.83,15.81,16.16Z"/>
          <polyline class="cls-8" points="967.99 494.35 1002.44 484.97 1003.46 489.66"/>
          <path class="cls-13" d="m918.06,531.84c-.55,1.12,6.54,4.26,11.21,5.83,10.02,3.38,20.22,3.39,25.04,3.4,1.06,0,2.09-.02,4.26,0,6.56.05,11.41.34,13.46.46,5.15.29,20.39,1.15,20.47.66.13-.72-10.42-1.39-37.19-5.11-23.82-3.31-36.54-6.69-37.25-5.24Z"/>
          <ellipse class="cls-9" cx="1179.67" cy="676.35" rx="33.56" ry="8.56"/>
          <path class="cls-9" d="m1169.72,676.35h24.42c2.73,0,4.97-.87,4.97-1.93-17.44-34.13-22.68-62.8-22.11-77.94.53-13.88,3.46-25.26,3.46-25.26,1.52-5.9,3.99-13.33,4.97-16.3,1.4-4.22,2.65-7.73,3.55-10.19h5.16-24.42c-2.73,0-4.97.87-4.97,1.93,1.62,4.71,3.33,10.51,4.69,17.22,1.54,7.59,2.04,13.46,2.49,18.88.57,6.91.64,12.02.71,17.93.01,1.01.14,12.47-.36,22.14-1.08,21.2-5.58,42.81-7.53,51.59,0,.01,0,.02,4.97,1.93Z"/>
          <path class="cls-5" d="m1109.35,491.22s2.49,17.65-1.42,29.47c-.06.18-.3.9-.53,1.9-1.5,6.54.18,10.19.18,10.19.26.57.56,1.22,1.03,1.89.11.16.93,1.28,1.99,2.05,2.05,1.48,5.05,1.69,6.39,1.63,4.9-.21,8.28-4.72,9.59-6.52,10.93-15.01,4.97-40.14,4.97-40.14h0c-5.34-36.06,3.99-56.3-.18-56.84-5.74-.75-24.84,36.34-22.02,56.37Z"/>
          <path class="cls-11" d="m1110.95,531.79c.06,1.14,3.52,1.95,6.22,1.79,1.52-.09,4.34-.56,4.44-1.59.09-1.01-2.43-2.41-4.79-2.59-2.84-.22-5.92,1.29-5.86,2.39Z"/>
          <path class="cls-5" d="m1221.88,486.71c4.75,35.55,7.34,52.76,19.23,55.34.34.07,5.23,1.07,9.52-.99,14.49-7,2.14-39.57-5.1-58.66-7.32-19.31-22.55-52.61-28.57-51.45-1.86.36-2.02,3.85,4.92,55.77Z"/>
          <path class="cls-11" d="m1250.78,536c-.49-1.35-4.91-1.58-8.07-.83-1.79.42-4.98,1.59-4.72,2.84.25,1.22,3.77,2.36,6.66,2.08,3.47-.34,6.6-2.79,6.13-4.09Z"/>
        </g>
        <path class="cls-5" d="m1181.98,502.7c-.19,9.85-2.49,16.69-6.39,28.32-6.45,19.2-13.16,39.2-21.84,39.39-13.74.31-25.02-49.15-28.24-67.71-4.61-26.61,2.85-15.57,5.15-59.42.09-1.77.31-6.12,3.55-7.33,6.55-2.45,21.31,9.47,29.48,18.47,17.29,19.06,18.45,39.89,18.29,48.28Z"/>
        <path class="cls-5" d="m1177.28,507.38c-8.31,34.6-11.46,42.77-3.55,49.37,8.82,7.36,25.31,7.72,28.06,7.74,4.71.05,16.78.16,24.33-5.16,8.64-6.09,3.83-14.02.18-51.95-2.32-24.14-2.4-41.95-5.15-48.69-.42-1.02-2.39-5.46-1.95-11.41.08-1.07.21-1.86.36-2.72,1.45-8.6,4.8-11.75,3.02-13.45-1.59-1.51-6.22-.89-9.23,0-10.71,3.15-14.95,13.72-16.87,18.74-14.41,37.67-19.18,57.52-19.18,57.52Z"/>
        <ellipse class="cls-11" cx="1157.03" cy="454.28" rx="8.75" ry="33.92" transform="translate(106 1117.92) rotate(-53.71)"/>
        <path class="cls-11" d="m1182.42,456.29c-6.38,16.88-12.41,36.4-6.34,38.59,2.94,1.06,7.78-2.3,10.16-3.95,11.5-7.99,9.87-16.15,16.76-29.05,9.57-17.92,25.76-25.2,20.45-31.04-.83-.92-3.86-3.39-8.31-4.01,0,0-2.75-.38-5.78.28-16,3.46-26.94,29.18-26.94,29.18Z"/>
      </g>
    </g>
    <path class="cls-7" d="m1189.75,553.07c.06,1.16-11.3,3.5-23.32,2.34-10.81-1.03-20.31-4.71-19.95-5.8.12-.35,1.27-.55,22.61,1.19,19.67,1.6,20.64,1.94,20.66,2.27Z"/>
    <path class="cls-4" d="m1149.68,487.42l1.3,13.33c-8.2,28.87-10.65,36.98-10.82,36.95-.21-.03,3.22-12.61,7.8-33.49.47-2.16.88-4.03,1.19-5.49"/>
  </g>
  <g>
    <path id="changingroom" class="cls-1" d="m9.03,709.2c4.17-.64,12.59-1.47,22.38.9,7.05,1.7,12.09,4.4,15.08,6.3,1.53-1.75,3.91-3.95,7.46-5.83,9.8-5.16,20.83-3.75,23.63-3.33,1.18.68,3.02,1.55,5.44,1.9,5.27.77,9.71-1.41,11.66-2.14,4.54-1.71,12.62-1.96,28.13,4.99,2.84-1.78,6.4-3.64,10.73-5.23,13.69-5.03,26.83-4.32,33.42-3.57-6.01-16.33-12.02-32.65-18.03-48.98,4.56-13.08,9.12-26.15,13.68-39.23,2.43-12.97,2.83-31.37-8.24-49.93-1.45-2.44-3.02-4.73-4.66-6.9,5.75-6.75,12.03-15.28,17.56-25.56,5.16-9.59,8.44-18.43,10.57-25.92.1-1.08.15-2.19.16-3.33.05-10.46-4.02-19.44-8.7-26.39-.45-.85-.86-1.72-1.24-2.62-5.55-13.09-1.21-26.04,3.89-35.31-6.28-5.27-14.99-11.02-22.69-9.39-1.5.32-1.45.6-4.07,1.57-7.72,2.87-19.75,4.74-26.87.34-.77-.48-1.97-1.33-3.11-2.73-1.67,1.9-3.51,2.95-4.97,3.57-7.21,3-18.1.62-27.31-5.9-.7-.21-6.18-1.74-11.55.67-6.34,2.85-6.53,8.51-6.53,8.8-4.37-3.12-13.81-8.87-27.05-9.63-2.68-.15-5.18-.08-7.46.12-2.8.54-5.96,1.3-9.33,2.38-4.85,1.55-8.84,3.35-11.97,4.99"/>
    <path id="changingroom-2" data-name="changingroom" class="cls-3" d="m35.58,389.4v13.09c-1.57.28-3.75.81-6.05,1.89-1.51.71-2.69,1.47-3.58,2.14-.74.64-2.42,2.27-2.95,4.76-.57,2.63.48,4.69.93,5.47.81.8,1.88,1.72,3.26,2.62,2.45,1.59,4.91,2.47,6.68,2.97.99.14,2.53.26,4.35,0,2.39-.34,4.09-1.16,4.97-1.66"/>
    <path id="changingroom-3" data-name="changingroom" class="cls-3" d="m72.72,390.59v13.09c-1.57.28-3.75.81-6.05,1.89-1.51.71-2.69,1.47-3.58,2.14-.74.64-2.42,2.27-2.95,4.76-.57,2.63.48,4.69.93,5.47.81.8,1.88,1.72,3.26,2.62,2.45,1.59,4.91,2.47,6.68,2.97.99.14,2.53.26,4.35,0,2.39-.34,4.09-1.16,4.97-1.66"/>
    <path id="changingroom-4" data-name="changingroom" class="cls-3" d="m155.41,393.2v13.09c-1.57.28-3.75.81-6.05,1.89-1.51.71-2.69,1.47-3.58,2.14-.74.64-2.42,2.27-2.95,4.76-.57,2.63.48,4.69.93,5.47.81.8,1.88,1.72,3.26,2.62,2.45,1.59,4.91,2.47,6.68,2.97.99.14,2.53.26,4.35,0,2.39-.34,4.09-1.16,4.97-1.66"/>
    <path id="changingroom-5" data-name="changingroom" class="cls-3" d="m118.58,392.49v13.09c-1.57.28-3.75.81-6.05,1.89-1.51.71-2.69,1.47-3.58,2.14-.74.64-2.42,2.27-2.95,4.76-.57,2.63.48,4.69.93,5.47.81.8,1.88,1.72,3.26,2.62,2.45,1.59,4.91,2.47,6.68,2.97.99.14,2.53.26,4.35,0,2.39-.34,4.09-1.16,4.97-1.66"/>
  </g>
  <polyline id="changingroom-6" data-name="changingroom" class="cls-2" points="1.03 384.59 180.33 390.69 208.31 356.33 1.03 349.47"/>
  <polygon id="changingroom-7" data-name="changingroom" class="cls-2" points="214.04 356.33 229.6 680.1 195 698.8 195 680.1 186.06 390.69 214.04 356.33"/>
</svg>