<?xml version="1.0" encoding="UTF-8"?>
<svg id="lotus" xmlns="http://www.w3.org/2000/svg" xmlns:xlink="http://www.w3.org/1999/xlink" viewBox="0 0 1280 720">
  <defs>
    <style>
      .cls-1 {
        clip-path: url(#clippath);
      }

      .cls-2 {
        fill: none;
      }

      .cls-2, .cls-3, .cls-4, .cls-5, .cls-6, .cls-7, .cls-8, .cls-9, .cls-10, .cls-11, .cls-12, .cls-13, .cls-14, .cls-15, .cls-16, .cls-17, .cls-18, .cls-19, .cls-20, .cls-21, .cls-22, .cls-23, .cls-24, .cls-25, .cls-26, .cls-27, .cls-28, .cls-29, .cls-30, .cls-31, .cls-32, .cls-33, .cls-34, .cls-35, .cls-36, .cls-37, .cls-38, .cls-39, .cls-40, .cls-41, .cls-42, .cls-43, .cls-44, .cls-45, .cls-46, .cls-47, .cls-48, .cls-49, .cls-50, .cls-51, .cls-52, .cls-53, .cls-54, .cls-55, .cls-56, .cls-57, .cls-58, .cls-59, .cls-60, .cls-61, .cls-62, .cls-63, .cls-64, .cls-65, .cls-66, .cls-67, .cls-68, .cls-69, .cls-70, .cls-71, .cls-72, .cls-73, .cls-74, .cls-75, .cls-76, .cls-77, .cls-78, .cls-79, .cls-80 {
        stroke-width: 0px;
      }

      .cls-81, .cls-44 {
        fill: #c59167;
      }

      .cls-82 {
        clip-path: url(#clippath-1);
      }

      .cls-83 {
        clip-path: url(#clippath-3);
      }

      .cls-84 {
        clip-path: url(#clippath-2);
      }

      .cls-4 {
        fill: #f4d4db;
      }

      .cls-5 {
        fill: #62565d;
      }

      .cls-6 {
        fill: #5d5e44;
      }

      .cls-7 {
        fill: #53474e;
      }

      .cls-8 {
        fill: #77626d;
      }

      .cls-9 {
        fill: #776670;
      }

      .cls-10 {
        fill: #756970;
      }

      .cls-11 {
        fill: #5e4853;
      }

      .cls-12 {
        fill: #796871;
      }

      .cls-13 {
        fill: #78656f;
      }

      .cls-14 {
        fill: #503c46;
      }

      .cls-15 {
        fill: #524140;
      }

      .cls-16 {
        fill: #756a71;
      }

      .cls-17 {
        fill: #564147;
      }

      .cls-18 {
        fill: #2b2126;
      }

      .cls-19 {
        fill: #2c1f26;
      }

      .cls-20 {
        fill: #2a1d24;
      }

      .cls-21 {
        fill: #594748;
      }

      .cls-22 {
        fill: #2c1e26;
      }

      .cls-23 {
        fill: #634d57;
      }

      .cls-24 {
        fill: #6d5455;
      }

      .cls-25 {
        fill: #706160;
      }

      .cls-26 {
        fill: #544442;
      }

      .cls-27 {
        fill: #6f646b;
      }

      .cls-28 {
        fill: #713c46;
      }

      .cls-29 {
        fill: #2f1b25;
      }

      .cls-30 {
        fill: #2e1d26;
      }

      .cls-31 {
        fill: #3b2631;
      }

      .cls-32 {
        fill: #39302b;
      }

      .cls-33 {
        fill: #5a4751;
      }

      .cls-34 {
        fill: #3c2e36;
      }

      .cls-35 {
        fill: #574b50;
      }

      .cls-36 {
        fill: #3e2a34;
      }

      .cls-37 {
        fill: #453840;
      }

      .cls-38 {
        fill: #45363e;
      }

      .cls-39 {
        fill: #362931;
      }

      .cls-40 {
        fill: #372020;
      }

      .cls-41 {
        fill: #40313a;
      }

      .cls-42 {
        fill: #0b0406;
      }

      .cls-43 {
        fill: #c5a3a9;
      }

      .cls-45 {
        fill: #d1acb5;
      }

      .cls-46 {
        fill: #dea5ad;
      }

      .cls-47 {
        fill: #d7a8b3;
      }

      .cls-48 {
        fill: #d7aab1;
      }

      .cls-49 {
        fill: #d3a8af;
      }

      .cls-50 {
        fill: #d4b6c2;
      }

      .cls-51 {
        fill: #d4b7c3;
      }

      .cls-52 {
        fill: #dca2ab;
      }

      .cls-53 {
        fill: #d5b6c0;
      }

      .cls-54 {
        fill: #daa4b0;
      }

      .cls-55 {
        fill: #d8a5ac;
      }

      .cls-56 {
        fill: #af4d5d;
      }

      .cls-57 {
        fill: #a8b47f;
      }

      .cls-58 {
        fill: #cfabb1;
      }

      .cls-59 {
        fill: #ceacba;
      }

      .cls-60 {
        fill: #736267;
      }

      .cls-61 {
        fill: #735b64;
      }

      .cls-62 {
        fill: #332126;
      }

      .cls-63 {
        fill: #7d706f;
      }

      .cls-64 {
        fill: #847878;
      }

      .cls-65 {
        fill: #ff71a3;
      }

      .cls-66 {
        fill: #673606;
      }

      .cls-67 {
        fill: #f1e7ec;
      }

      .cls-68 {
        fill: #fff;
      }

      .cls-69 {
        fill: #ebd6e1;
      }

      .cls-70 {
        fill: #e7c9d5;
      }

      .cls-71 {
        fill: #ebd3df;
      }

      .cls-72 {
        fill: #e9ced4;
      }

      .cls-73 {
        fill: #eed5e2;
      }

      .cls-74 {
        fill: #e5e5e5;
      }

      .cls-75 {
        fill: #ecd6e2;
      }

      .cls-76 {
        fill: #ecd7e2;
      }

      .cls-77 {
        fill: #ecd4e2;
      }

      .cls-78 {
        fill: #ecd0d9;
      }

      .cls-79 {
        fill: #6b383b;
      }

      .cls-80 {
        fill: #c398a1;
        opacity: .66;
      }
    </style>
    <clipPath id="clippath">
      <path class="cls-44" d="m651.12,163.23c1.46-1.73,2.94-3.47,4.47-5.23,1.66-1.91,3.31-3.79,4.96-5.63,1.23-1.21,2.86-2.62,4.96-4.02,2.15-1.43,4.22-2.47,5.96-3.22,1.56-.8,3.38-1.63,5.46-2.41,1.76-.66,3.43-1.19,4.96-1.61,1.16-.13,2.32-.27,3.47-.4h2.39l1.58.4c.83.27,1.65.54,2.48.8h0c.66.27,1.32.54,1.99.8l1.99,1.61-2.48,1.61-42.18,17.29Z"/>
    </clipPath>
    <clipPath id="clippath-1">
      <path class="cls-44" d="m635.23,157.2c.15-1.55.14-3.64-.5-6.03-.99-3.75-3.05-6.47-4.47-8.04-1.4-.99-3.38-2.18-5.96-3.22-2.87-1.15-5.5-1.72-7.44-2.01-1.9.23-4.08.6-6.45,1.21-1.93.49-3.65,1.05-5.13,1.61-1.74.74-3.75,1.78-5.79,3.22-4.38,3.1-6.72,6.59-7.94,8.84l43.67,4.42Z"/>
    </clipPath>
    <clipPath id="clippath-2">
      <path class="cls-2" d="m651.37,162.41c1.46-1.73,2.94-3.47,4.47-5.23,1.66-1.91,3.31-3.79,4.96-5.63,1.23-1.21,2.86-2.62,4.96-4.02,2.15-1.43,4.22-2.47,5.96-3.22,1.56-.8,3.38-1.63,5.46-2.41,1.76-.66,3.43-1.19,4.96-1.61,1.16-.13,2.32-.27,3.47-.4h2.39l1.58.4c.83.27,1.65.54,2.48.8h0c.66.27,1.32.54,1.99.8l1.99,1.61-2.48,1.61-42.18,17.29Z"/>
    </clipPath>
    <clipPath id="clippath-3">
      <path class="cls-2" d="m635.49,156.38c.15-1.55.14-3.64-.5-6.03-.99-3.75-3.05-6.47-4.47-8.04-1.4-.99-3.38-2.18-5.96-3.22-2.87-1.15-5.5-1.72-7.44-2.01-1.9.23-4.08.6-6.45,1.21-1.93.49-3.65,1.05-5.13,1.61-1.74.74-3.75,1.78-5.79,3.22-4.38,3.1-6.72,6.59-7.94,8.84l43.67,4.42Z"/>
    </clipPath>
  </defs>
  <rect class="cls-68" x="1.76" y="-.28" width="1280" height="720"/>
  <rect class="cls-80" x="-.24" y="-.28" width="1280" height="720"/>
  <g>
    <path class="cls-54" d="m382.94,707.1c-11-2.1-18.58-8.7-23.98-18.19,1.03-2.25.55-4.64.55-6.97.02-93.89.03-187.78.02-281.66.62-5.59,4.62-8.39,8.99-10.89,2.73-.61,5.44-.78,8.06.48,2.31,2.5-.04,3.97-1.25,5.7-3.54,2.56-6.35,5.57-6.32,10.34.84,35.08.69,70.15.14,105.21-.14,1.71-.84,3.29-1.13,4.96-.32,4.43.07,8.88-.23,13.3-.34,4.99,1.95,6.23,6.61,6.52,5.27.33,11.24-2.55,15.74,2.59-3.18,4.03-7.73,2.67-11.79,2.88-7.85.41-8.71.91-8.72,8.5-.1,44.52-.16,89.05.03,133.57.04,9.57,3.17,12.47,12.79,13.04,2.82.17,5.65.1,8.48.1,164.84,0,329.69-.04,494.53.12,7.76,0,15.42-2.15,23.2-.66,2.27,1.11,4,2.49,2.67,5.38-2.92,1.86-5.84,3.73-8.76,5.59-24.66-.91-49.32-.14-73.98-.39-8.62.26-17.26-.53-25.87.45-5.94,1.36-11.63-1.07-17.51-1.07-107.6.04-215.21.04-322.81-.17-9.66-.02-19.15,2.48-28.82,1.28-16.87-.79-33.74-.8-50.62,0Z"/>
    <path class="cls-55" d="m905.73,21.87c5.57,3.22,10.28,7.36,13.83,12.77-.57,4.83,2.3,9.97-1.32,14.52-1.81.75-3.46.63-4.82-.93-.34-.62-.71-1.22-.9-1.91-3.44-12.89-4.48-13.81-17.71-13.81-170.39-.04-340.79-.04-511.18,0-12.94,0-14.34,1.29-18.4,15.39-6.14,3.22-6.56,2.88-7.49-6.1,3.45-8.18,8.65-14.79,16.85-18.68,2.7-1.27,5.57-.62,8.34-.62,171.48-.04,342.96-.03,514.44-.06,2.79,0,5.65.59,8.36-.57Z"/>
    <path class="cls-48" d="m911.32,701.41c-.46-1.32-.93-2.64-1.39-3.96,5.84-16.61,3.13-33.83,3.3-50.78.44-42.26-.12-84.54.28-126.8.02-1.89-.03-3.76-.71-5.55-.67-3.11-.64-6.23-.07-9.35.6-1.8.71-3.66.71-5.56-.08-29.17,0-58.34-.05-87.51,0-5.51-.05-11.02-6.19-13.79-3.55-1.91-7.4-1.13-11.11-1.13-129.63.06-259.27.08-388.9.08-40.94,0-81.87-.16-122.81-.17-3.42,0-7.15.87-10.03-2.04.95-1.31,1.9-2.61,2.84-3.92,1.65-2.18,4.08-2.08,6.42-2.19,2.35-.11,4.71-.05,7.06-.05,169.98,0,339.96,0,509.93.02,3.99,0,8.01-.34,11.96.61,7.23,2.84,9.28,8.58,9.27,15.81-.05,28.01-.02,56.03-.02,84.05,0,60.03-.03,120.07.05,180.1,0,7.06-.5,14.09-.69,21.14-2.62,4.26-5.41,8.38-9.84,11.01Z"/>
    <path class="cls-28" d="m358.95,345.36c3.02-3.59,6.72-7.04.33-11.08-1.06-.67-1.2-2.81-1.76-4.27.74-.62,1.58-.84,2.53-.67.87.33,1.65.81,2.36,1.4,4.15,4.62,9.55,5.41,15.41,5.4,33.16-.07,66.32-.03,99.49-.03,118.3,0,236.6,0,354.9.02,4.45,0,8.95-.4,13.34.84,1.77,1.17,4.78,1.59,3,4.93-3.45,2.16-7.32,1.4-11.02,1.4-128.46.04-256.92.03-385.38.03-2.35,0-4.73.2-7.05-.04-4.97-.5-6.68,1.75-6.61,6.54.14,9.88.08,19.77.02,29.65-.02,2.57.23,5.2-1.06,7.6-.5.87-1.25,1.23-2.24,1.07-2.58-2.41-2-5.63-2.03-8.62-.1-9.88-.16-19.77.01-29.65.08-4.78-1.6-6.71-6.57-6.65-17.64.21-35.28.08-52.93.12-4.38.01-8.23,1.76-12.31,2.8-.92.07-1.73-.2-2.42-.8Z"/>
    <path class="cls-25" d="m921.51,42.87c-.08,18.82-.23,37.64-.23,56.47-.03,75.08-.02,150.16.04,225.24,0,3.63.17,7.64-2.79,9.75-5.87,4.18-3.45,7.44.27,11-.68.62-1.48.94-2.4.96-8.15-3.96-16.88-2.93-25.48-2.96-10.3-.03-20.61.12-30.91-.08-3.02-.06-6.83.97-8.23-3.38,2.94-2.86,6.69-1.71,10.14-2.04,13.12.04,26.24.01,39.35,0,2.8,0,5.65.28,8.16-1.4.71-.49,1.46-.93,2.2-1.37,3.66-2.22,4.46-5.62,4.53-9.65.3-15.52.11-31.04.12-46.55.04-55.96.04-111.93-.04-167.89,0-2.94,1.04-6.14-1.29-8.77-.72-.37-1.46-.68-2.25-.89-1.52-.59-3.04-1.2-3.07-3.21.82-1.43,2.2-2.23,3.52-3.08,3.46-2.01,3.1-5.43,3.17-8.66.25-10.93-.44-21.87.39-32.78.18-1.8,1.11-3.4,1.41-5.18.92-4.53-1.17-9.38,1.43-13.74,2.19,2.37,1.49,5.44,1.95,8.22Z"/>
    <path class="cls-24" d="m913.95,389.35c6.57,3.78,8.87,9.38,8.85,16.98-.18,90.47-.12,180.94-.11,271.41,0,2.35.11,4.7.17,7.05-.57,1.87-1.13,3.74-1.7,5.6-2.59-2.56-1.29-5.81-1.29-8.69-.08-92.05-.13-184.11.04-276.16.01-6.5-1.74-11.3-7.22-14.7-.57-1.33.07-1.64,1.25-1.49Z"/>
    <path class="cls-40" d="m905.73,21.87c-1.52,2.25-3.86,1.3-5.81,1.3-173.94.05-347.87.04-521.81.03-1.18,0-2.35-.05-3.53-.07,4.86-3.37,10.4-1.82,15.59-1.83,65.45-.14,130.9-.08,196.35-.08,101.24,0,202.47-.02,303.71.01,5.17,0,10.34.42,15.5.64Z"/>
    <path class="cls-15" d="m358.86,329.94c-.45,0-.89.02-1.34.07-.15-9.64-.43-19.28-.43-28.92,0-78.9.04-157.79.11-236.69,0-7.53.34-15.06.53-22.59,2.23,2.21.15,8.86,6.76,6.55,1.15-.66,2.21-.53,3.17.39.57,1.92-.2,3-2.11,3.37-3.09.03-4.74,1.3-4.67,4.68.28,13.37-.77,26.75.66,40.11.16,1.31.1,2.6-.22,3.89-.65,2.8-.38,5.64-.38,8.46-.02,70.43-.02,140.86,0,211.29,0,3.3.32,6.64-2.07,9.4Z"/>
    <path class="cls-32" d="m360.37,397.79c.06,85.23.12,170.46.19,255.69,0,9.42.09,18.84-.06,28.25-.04,2.42,1.07,5.25-1.53,7.18-.16-13.19-.45-26.38-.46-39.57-.04-81.28-.02-162.55,0-243.83,0-2.58.19-5.17.29-7.75.54-.48,1.06-.47,1.58.03Z"/>
    <path class="cls-26" d="m360.37,397.79c-.53,0-1.05-.02-1.58-.03-.81-2,.54-3.12,1.82-4.13,3.13-2.48,3.12-4.92.22-7.57-3.19-2.91-3.96-6.64-3.85-10.84.18-7.28.12-14.56.03-21.84-.03-2.88.12-5.63,1.94-8.02.56.04,1.12.07,1.68.11.96,8.79-.02,17.59.03,26.39.03,6.06,1.63,10.95,6.66,14.5,1.06,1.22,1.97,2.49,1.33,4.24-2.76,2.4-5.52,4.79-8.28,7.19Z"/>
    <path class="cls-21" d="m828.03,706.05c22.82-.07,45.64-.15,68.45-.18,2.06,0,4.28-.48,6.07,1.14-24.85,1.55-49.7.49-74.55.19-.49-.27-.65-.53-.48-.78.17-.25.34-.37.51-.37Z"/>
    <path class="cls-64" d="m382.94,707.1c2.41-2.15,5.39-1.35,8.07-1.24,14.18.62,28.43-1.45,42.55,1.23-16.87,0-33.74,0-50.62,0Z"/>
    <path class="cls-63" d="m828.03,706.05c-.02.38-.03.77-.03,1.15-8.43-.05-16.86-.09-25.3-.14,8.37-2.18,16.86-1.14,25.33-1.01Z"/>
    <path class="cls-73" d="m908.51,396.35c5.12.96,6.96,4.85,6.98,9.24.15,32.18.08,64.37,0,96.55,0,1.02-.87,2.04-1.34,3.07-.56.47-1.16.52-1.8.17-1.02-.9-1.69-2.06-2.35-3.23-4.83-8.35-12.24-11.02-19.1-6.86-7.97,4.83-11.01,14.01-6.99,21.12,5.12,9.06,13.32,11.43,21.78,6.3.6-.36,1.16-.79,1.75-1.17,1.98-1.08,3.16-2.76,3.63-4.96.67-1.35.68-3.43,3.1-2.9,2.34,2.07,1.37,4.83,1.37,7.29.06,54.24-.04,108.48.18,162.72.02,5.78-2.48,9.77-5.8,13.77-176.1,3.04-352.21.48-528.31,1.3-10.82.05-14.37-3.66-14.38-14.44-.01-45.94.1-91.88-.13-137.81-.03-5.84,1.56-7.87,7.49-7.6,5.06.23,10.31,1.26,15.3-.86,3.93.26,3.08,3.46,3.26,5.72.34,4.22.19,8.47.12,12.71-.07,4.06,1.51,6.18,5.78,6.12,4.23-.06,8.47-.05,12.71,0,4.25.05,5.87-2.16,5.83-6.16-.04-4-.1-8.01.05-12.01.27-7.18,1.58-8.44,8.94-8.65,4-.11,8-.1,12-.04,4.18.07,5.69-1.84,5.92-5.98.86-15.46.97-15.45-14.13-15.51-1.41,0-2.83.03-4.24-.04-6.85-.33-8.12-1.66-8.53-8.41-.31-5.14.81-10.35-.85-15.4-6.44-3.25-13.23-1.25-19.85-1.24-2.89,0-3.48,2.63-3.56,5.14-.14,4.2-.03,8.4-.14,12.6-.13,4.87-2.59,7.47-7.42,7.23-6.18-.3-12.56,1.63-18.49-1.55,0-36.38.01-72.76.02-109.13,5.09-6.44,11.71-8.27,19.81-7.89,17.77.82,35.6-.69,53.38.81,3.05.26,6.13.45,8.21,3.21,1.69,3.58,1.09,7.4,1.1,11.13.04,79.97.01,159.95.08,239.92,0,3.38-1.18,7.14,1.86,10,2.69,1.29,5.56.92,8.36.92,113.47.02,226.93.02,340.4,0,9.36,0,9.9-.56,9.9-10.08,0-80.77,0-161.55,0-242.32,0-2.58.22-5.19-.62-7.7-.63-1.74-2.83-2.48-3.07-5.79,34.01.3,67.89-.59,101.79.73Z"/>
    <path class="cls-70" d="m908.51,396.35c-5.49,2.67-10.97.1-16.47.07-27.85-.15-55.71-.07-83.72-.07.53,2.37,3.58.8,4.08,2.86-.73.61-1.54,1.09-2.42,1.44-2.77.72-5.61.51-8.43.51-114.16.02-228.32.02-342.49,0-2.82,0-5.65.18-8.45-.41-.92-.28-1.72-.76-2.41-1.43-22.1-5.66-44.62-1.9-66.92-2.96-5.95-.28-8.41,6.51-13.98,7.06,1.16-3.83,2.75-7.31,7.04-8.58,158.43.02,316.85.04,475.28.07,17.18,0,34.37-.03,51.55.06,2.48.01,5.24-.92,7.33,1.38Z"/>
    <path class="cls-79" d="m368.65,390.6c-.45-.69-.91-1.38-1.36-2.06,1.46-2.81,4.17-2.73,6.71-2.74,18-.07,36-.05,54-.02,2.35,0,4.7.08,6.59,1.81.7.07,1.41.14,2.11.2,3.41-3.04,7.6-2,11.49-2,129.8-.05,259.61-.02,389.41-.15,3.19,0,7.96,2.41,9.17-3.48.47-11.51-.03-23.02.26-34.53.32-2.2.28-4.52,2.05-6.25-.91-.93-1.82-1.86-2.73-2.79,4.7-3.57,9.73-2.54,14.8-1.08.87.52,1.09,1.24.67,2.16-3.36.15-6.72.3-10.08.44,1.69,12.36.48,24.78.78,37.17.21,8.45.09,8.39,8.54,8.5,16.63.22,33.26-.6,49.88.54,1.32.16,2.54.54,3.45,1.59-.15.48-.3.96-.45,1.43-.42.5-.84.99-1.25,1.49-78.42-.04-156.84-.11-235.26-.12-97.73-.02-195.47,0-293.2,0-2.35,0-4.7.14-7.05.21-2.84-.11-5.69-.22-8.53-.33Z"/>
    <path class="cls-33" d="m419.5,488.26c.11,6.34.5,12.69.23,19.01-.19,4.46,1.48,5.74,5.7,5.5,5.15-.29,10.34.07,15.51-.08,3.48-.1,5.45.98,5.06,4.79-.02.23,0,.47,0,.7.89,19.7.88,19.95-18.96,19.59-6.01-.11-7.62,1.68-7.34,7.47.3,6.26,2.79,14.54-1,18.36-4.12,4.15-12.5.6-18.93,1.46-6.89.92-8.02-2.2-8.12-8.3-.11-6.21,2.43-12.85-1.74-18.72-6.28-.1-12.56-.42-18.82-.22-3.89.12-5.45-1.05-5.22-5.1.33-5.8.2-11.63.26-17.45,4.05,1.17,2.66,4.64,3.08,7.33.54,3.48-1.3,7.43,2.05,10.33,5.21,2.31,10.71.84,16.04,1.25,7.05.53,8.51,1.87,8.91,8.99.19,3.29.01,6.58.1,9.88.2,7.48.96,8.1,9.68,8.13,8.79.03,9.74-.71,9.99-7.87.14-3.99-.05-7.99.21-11.99.29-4.52,2.65-6.79,7.16-7.02,4.23-.22,8.46-.11,12.69-.19,5.67-.1,5.42-4.18,5.39-7.96-.04-3.88.8-8.47-5.31-8.78-3.99-.2-7.99-.06-11.99-.2-5.09-.18-7.92-2.56-7.97-7.78-.05-6.33-.74-12.69.56-18.99.55-1.2,1.14-2.35,2.78-2.11Z"/>
    <path class="cls-61" d="m419.5,488.26c-.54.61-1.09,1.22-1.63,1.83-4.29,2.88-9.11,1.44-13.69,1.5-5.44.07-8.09,1.94-7.95,7.85.43,18.11.43,17.89-17.61,17.86-7.06-.01-7.75.91-7.92,8.34-.07,3.23.62,6.62-2.07,9.26-2.84-3.8-.79-8.17-1.39-12.23-.36-2.47.87-5.19-1.13-7.41.39-.9.78-1.8,1.17-2.7,6.34-.01,12.69-.29,19.01.06,4.49.25,5.95-1.53,5.36-5.67-.07-.46-.06-.94,0-1.41.8-6.09-3.05-15.71,2.05-17.6,7.64-2.83,17.22-2.78,25.8.32Z"/>
    <path class="cls-73" d="m367.2,48.88c-.9-.17-1.81-.35-2.71-.52-1.63-13.49,4.38-18.04,14.1-18.05,35.54,0,71.09,0,106.63,0,137,0,273.99,0,410.99,0,15.41,0,18.19,2.81,17.9,18.01-1.65,2.91-2.27,6.01-2.23,9.39.1,10.53.06,21.06.03,31.59,0,3.03.21,6.13-1.8,8.75.23,1.54,1.62,1.3,2.6,1.69-.1,18.44,2.31,36.72,1.8,55.28-.57,20.87,0,41.87.13,62.82.16,26.85.27,53.69.05,80.54-.05,6.33-1.39,12.58-1.61,18.95-.21,6.15-5.7,10.26-14.34,10.85-5.86.4-11.72.99-17.61,1-21.19.05-42.39.43-63.57-.05-122.88-2.78-245.78-.66-368.67-.97-23.03-.06-46.11,1.06-69.18,1.05-4.3,0-8.52-.21-12.07-3.02-3.39-2.68-5.51-5.89-3.5-10.39.59-1.32,1.26-2.69.87-4.07-5.36-19.22-1.6-38.83-2.38-58.23-.57-14.1-1.23-28.36.3-42.36,1.52-13.91,1.7-27.83.62-41.56-1.24-15.78-.6-31.5-1.03-47.24-.21-7.48,1.5-14.88,1.09-22.38,1.52-2.28,3.18-4.35,3.18-7.47,0-14.53-.33-29.07.44-43.59Z"/>
    <path class="cls-17" d="m910.09,98.04c-.1-15.03-.09-30.07-.37-45.1-.06-3.43,1.21-4.7,4.38-4.63,1.34.02,2.69.05,4.03.07,2.06,1.16,1.6,2.25-.1,3.29-3.64,2.47-4.6,5.96-4.67,10.25-.2,11.65.97,23.34-.65,34.96-.87.39-1.74.77-2.61,1.16Z"/>
    <path class="cls-24" d="m914.4,387.92c-1.04-.04-2.09-.08-3.13-.12,7.49-10.8,4.72-23.07,4.99-34.91.06-2.49-1.1-5.09.69-7.42.61-.05,1.22-.1,1.83-.16,1.98,2.19,2.54,4.75,2.48,7.67-.13,7.2-.26,14.4.04,21.59.25,5.93-1.88,10.3-6.9,13.34Z"/>
    <path class="cls-52" d="m861.86,338.6c-5.17,0-10.34,0-15.51,0-5.88-.08-11.76-.22-17.64-.22-151.58,0-303.17-.02-454.75.06-6.45,0-11.64-1.35-13.91-8.13.1-4.88,3.37-4.72,6.81-4.3,4.05,2.86,8.59,3.27,13.42,3.26,135.19-.37,270.37-.22,405.56-.2,36.74,0,73.47.2,110.21.12,5.02-.01,9.83-.83,14.46-2.72,2.53-.55,4.95-.04,5.45,2.67.67,3.62-2.1,5.77-4.59,7.83-.09.41-.1.82-.03,1.24-6.39,1.93-12.94.76-19.4.78-10.03.04-20.07.7-30.09-.38Z"/>
    <path class="cls-49" d="m849.08,341.38c-.06,1.83-.12,3.66-.17,5.48-2.42,1.28-5.05.9-7.62.9-129.21-.04-258.41,0-387.62-.01q-13.42,0-13.42,13.63c0,4.71-.04,9.42.07,14.12.09,3.74,1.89,5.58,5.63,5.71,2.59.09,5.18.11,7.76.11,129.2,0,258.4.03,387.61-.01,2.57,0,5.2-.38,7.62.92,1.56,6.48-2.74,6.02-6.93,6.02-73.91-.03-147.83-.02-221.74-.03-58.14,0-116.28,0-174.43-.02-3.05,0-6.1-.26-9.15-.41-.08-12.94.1-25.9-.37-38.83-.23-6.39,1.74-8.23,8.29-8.21,109.89.21,219.79.12,329.68.17,24.93.01,49.85.3,74.78.46Z"/>
    <path class="cls-46" d="m434.58,387.59c-16.57,1.42-33.18.26-49.77.63-5.84.13-11.68.21-17.53.31-6.65-3.37-8.84-8.88-8.16-16.1.83-8.96-1.42-18.11,1.5-26.97,3.8-3.6,8.24-4.73,13.51-4.66,17.89.26,35.79.27,53.69-.02,5.05-.08,7.31,1.07,7.16,6.53-.36,13.42-.3,26.84-.4,40.27Z"/>
    <path class="cls-45" d="m365.89,327.06c-2.62-.14-4.83.47-5.84,3.25-.38-.18-.78-.31-1.19-.36.09-55.07.19-110.13.26-165.2.03-19.3-.04-38.6.04-57.89.01-2.49-.91-5.2,1.03-7.45,1.41-.76,2.64-.76,3.44.88,1.54,6.31.18,12.64.07,18.95-.48,27.77,1.58,55.54.64,83.29-1.1,32.48-.14,64.96-.67,97.43-.11,6.49,2.6,12.9.18,19.48-.99,2.7,3.94,4.35,2.04,7.63Z"/>
    <path class="cls-78" d="m365.89,327.06c-2.84-4.84-2.84-10.14-2.83-15.56.09-70.57.09-141.14.11-211.72.45-.54.89-.53,1.32.02,2.16,12.35-.25,24.7-.24,37.05.02,20.88,3.18,41.69,1.56,62.56-2.6,33.36-.69,66.75-1.32,100.12-.06,3.26-.39,6.51,1.95,9.42,1.38,1.71,1.08,4.01.34,6.09-2.47,6.95.73,11.86,8.6,11.94,18.11.18,36.24.31,54.34-.34,9.32-.34,18.64-.98,27.98-.98,113.91.02,227.83-.47,341.73.36,26.99.2,54.01.74,81.02.97,7.14.06,14.34-.48,21.41-1.49,6.47-.93,9.21-4.51,9.77-11.95,2.1-28.17.65-56.33,1.05-84.48.31-22.09.5-44.19-.11-66.27-.32-11.45.89-22.85.22-34.29-.22-3.74.1-7.49-1.28-11.13-2.3-6.03-1.43-11.93,1.18-17.67.46-.01.93-.03,1.39-.04,2.49,2.43,2.18,5.58,2.18,8.62.02,69.01.02,138.02,0,207.04,0,4.23.21,8.59-3.6,11.67-3.73,3.19-7.93,4.38-12.94,4.38-173.86-.09-347.72-.09-521.57.03-4.84,0-8.65-1.55-12.25-4.36Z"/>
    <path class="cls-58" d="m912.65,327.01c1.89-5.94,1.53-12.07,1.52-18.17-.03-69.72-.06-139.44-.1-209.16,2.29-.3,4.34-.28,4.24,2.93-.05,1.41.01,2.82.01,4.23,0,72.64-.01,145.29.02,217.93,0,5.47-.7,10.38-6.97,12.19-.31-3.41,7.66-5.76,1.28-9.96Z"/>
    <path class="cls-47" d="m916.96,345.47c2.83,11.26,1.22,22.7,1.09,34.04-.04,3.84-3.43,6.39-6.78,8.28-18.69.14-37.38.24-56.08.44-2.91.03-4.41-1.05-4.35-4.04.26-14.69-1.22-29.42.9-44.08,6.63,2.1,13.43.7,20.15.86,10.76.26,21.54.29,32.3,0,5-.13,9.16,1.14,12.77,4.48Z"/>
    <path class="cls-4" d="m912.7,96.88c-2.23-14.34-.66-28.76-.81-43.14-.04-4.19,4.06-1.3,6.13-2.07.01,13.13-.19,26.27.16,39.39.12,4.44-1.54,5.88-5.49,5.82Z"/>
    <path class="cls-28" d="m861.86,338.6c16.49-.13,32.99-.26,49.48-.4-1.25,1.95-3.25,1.57-5.09,1.57-14.81-.02-29.62-.06-44.43-.1.03-.36.04-.72.03-1.07Z"/>
    <path class="cls-43" d="m360.17,96.81c-2.42-7.07-.75-14.36-1.09-21.54-.31-6.34,0-12.71-.11-19.06-.08-5.43,1.84-7.6,7.18-4.81-.1.41-.2.81-.29,1.22-1.85,11.14-.36,22.36-.86,33.53-.15,3.45.63,7.04-1.34,10.27-1.06,1.07-2.23,1.17-3.5.4Z"/>
    <path class="cls-60" d="m360.17,96.81c1-.12,2-.24,3-.36,2.14-2.94,1.11-6.31,1.28-9.51.62-11.83-1.18-23.74,1.06-35.52,0,0,.64-.03.64-.03.35-.84.7-1.68,1.05-2.52,2.1.84,1.49,2.72,1.5,4.24.05,13.65-.04,27.3.07,40.95.03,3.21-.42,5.64-4.28,5.74,0,0-.66-.13-.66-.13,0,0-.66.1-.66.1-.99-.13-1.98-.26-2.97-.39,0-.86-.02-1.73-.03-2.59Z"/>
    <path class="cls-31" d="m811.09,399.43c.43-.15.86-.22,1.32-.22.15,3.05.44,6.09.44,9.14.03,82.88,0,165.77.15,248.65,0,4.93-.67,6.85-6.36,6.84-117.69-.19-235.39-.13-353.08-.14-1.4,0-2.81-.19-4.21-.29-.18-1.84,1.19-2.34,2.5-2.89,4.16-1.09,8.42-.69,12.64-.69,110.36-.02,220.72-.02,331.09-.02q13.13,0,13.14-13.08c0-77.21,0-154.42.01-231.63,0-4-.25-8.01.37-11.99.32-1.41.93-2.67,2-3.68Z"/>
    <path class="cls-9" d="m450.96,661.82c-.54.53-1.08,1.06-1.62,1.59-2.47-1.38-1.44-3.76-1.44-5.7-.05-84.49-.04-168.98-.03-253.47,0-1.64.22-3.28.34-4.92.37.03.74.08,1.11.15,1.49,1.17,2.64,2.56,3.04,4.48.77,3.48.6,7.02.6,10.55.02,78.35.03,156.7-.03,235.05,0,4.15.89,8.54-1.96,12.27Z"/>
    <path class="cls-23" d="m450.57,401.98c-1.08-.5-1.25-1.46-1.25-2.5,2.81-.12,5.62-.33,8.43-.33,115.44-.02,230.88-.03,346.31-.02,2.34,0,4.69.2,7.03.31-.04.89-.09,1.77-.13,2.66-4.1,2.28-8.62,2.16-13.07,2.17-111.92.06-223.83.04-335.75.02-3.99,0-8.04.11-11.57-2.3Z"/>
    <path class="cls-73" d="m848.94,382.23c-2.48,1.85-5.37,1.44-8.17,1.44-131.86,0-263.72-.03-395.58.13-5.98,0-7.74-1.8-7.44-7.6.44-8.46.24-16.96.06-25.43-.08-3.86,1.16-5.76,5.24-5.4,2.1.19,4.24.03,6.35.03,129.98,0,259.95,0,389.93.03,3.23,0,6.64-.76,9.57,1.44.01,11.79.02,23.58.04,35.36Z"/>
    <path class="cls-77" d="m368.63,534.9c.2-6.27-1.92-14.41,1.23-18.3,3.34-4.12,11.83-1.43,18.02-1.22,5.53.19,6.68-1.94,6.54-6.95-.17-6-2.68-13.89,1.07-17.55,4.04-3.96,11.99-.85,18.22-1.26,1.37-.09,2.77.3,4.16.47,0,6.58.17,13.16-.06,19.72-.14,3.88,1.02,5.57,5.14,5.36,5.39-.28,10.8.1,16.19-.13,3.43-.14,4.24,1.21,4.42,4.47.89,16.24.99,16.24-15.09,16.32q-10.64.06-10.62,10.91c.03,16.29.03,16.09-16.57,16.36-5.31.09-7.8-.97-7.17-6.87.52-4.88-.12-9.87.18-14.78.26-4.21-1.06-5.7-5.49-5.74-6.71-.06-13.53,1.41-20.16-.82Z"/>
    <path class="cls-9" d="m812.4,324.25c-118.62,0-237.25-.08-355.87.14-6.99.01-8.9-1.47-8.87-8.74.3-82.64.19-165.28.27-247.92,0-2.66-1.23-5.66,1.2-8.01,1.46.46,2.39,1.46,2.94,2.86,1.29,4.13.88,8.4.88,12.62.03,75.6.02,151.19.02,226.79,0,1.18,0,2.36,0,3.53q0,13.61,13.31,13.62c109.71,0,219.41,0,329.12.02,4.46,0,8.95-.32,13.38.55,1.36.34,2.58.92,3.46,2.06.58.79.64,1.63.17,2.49Z"/>
    <path class="cls-11" d="m450.88,61.47c-.59-.59-1.18-1.17-1.77-1.76,2.42-1.43,5.07-.7,7.59-.71,116.48-.04,232.96-.04,349.44-.06,1.87,0,3.74-.21,5.61-.32,1.09.41,1.28,1.08.57,2.01-.76,1.28-1.96,1.93-3.33,2.33-3.71.89-7.49.65-11.25.65-111.32.02-222.65.03-333.97-.03-4.37,0-9.02,1.04-12.92-2.12Z"/>
    <path class="cls-78" d="m812.27,59.98c-.16-.45-.33-.9-.5-1.35,3.02,1.24,2.06,3.94,2.06,6.12.04,84.54.04,169.08.02,253.63,0,2.04.61,4.31-1.45,5.88.17-.44.2-.89.1-1.35-2.01-2.87-2.08-6.14-2.08-9.46,0-81.3,0-162.61,0-243.91,0-3.33.16-6.58,1.86-9.55Z"/>
    <path class="cls-13" d="m396.45,58.54q-10.81,0-10.79-14.36c.02-9.93-.52-8.18,12.05-8.2,12.26-.02,10.45-1.48,10.52,13.37.05,10.96.86,9.02-11.77,9.2Z"/>
    <path class="cls-8" d="m891.53,57.07c-7.01,2.31-14.01,2.51-20.99-.08.52-1.08,1.14-2.07,2.35-2.52,5.43-1.1,10.87-1.17,16.3.04,1.19.47,1.69,1.59,2.35,2.56Z"/>
    <path class="cls-12" d="m870.58,37.38c6.96-2.39,13.93-2.32,20.9-.02-.59,1-1.18,2.02-2.32,2.51-4.95,1.2-9.93.99-14.92.2-1.59-.38-2.64-1.51-3.66-2.69Z"/>
    <path class="cls-37" d="m876.16,156.37c2.05.35,3.41,1.48,3.49,3.15.09,1.72-1.29,3.13-3.02,3.23-1.79.1-3.09-1.32-3.21-3.01-.14-1.83,1.49-2.65,2.74-3.37Z"/>
    <path class="cls-38" d="m858.5,159.73c-.56,1.63-1.56,3.1-3.34,3.01-1.73-.09-3.07-1.5-2.97-3.25.09-1.68,1.37-3.14,3.2-3.01,1.72.12,2.76,1.5,3.11,3.25Z"/>
    <path class="cls-7" d="m840.38,159.64c-.49,1.65-1.48,3.18-3.19,3.17-1.99,0-3.49-1.42-3.24-3.56.19-1.67,1.49-3.01,3.3-2.85,1.73.15,2.69,1.56,3.13,3.23Z"/>
    <path class="cls-39" d="m840.16,182.08c-.13,1.89-1.27,3.15-2.94,3.38-1.48.21-2.64-1.04-3.01-2.41-.53-1.94.79-3.21,2.43-3.61,1.94-.48,2.78,1.15,3.52,2.64Z"/>
    <path class="cls-41" d="m858.38,182.12c-.19,1.89-1.33,3.25-3.02,3.33-1.76.08-3.12-1.34-3.12-3.13,0-1.42,1.1-2.69,2.61-2.92,1.97-.3,2.86,1.14,3.53,2.71Z"/>
    <path class="cls-34" d="m876.79,185.61c-1.91-.54-3.37-1.56-3.25-3.36.11-1.69,1.38-3.09,3.28-2.92,1.48.13,2.61,1.32,2.73,2.81.15,1.93-1.45,2.7-2.76,3.47Z"/>
    <path class="cls-14" d="m870.58,37.38l2.55,1.19c.76,5.64,1.77,11.29-1.05,16.71-.51.57-1.03,1.14-1.54,1.71-.52-6.54-.64-13.07.04-19.61Z"/>
    <path class="cls-62" d="m889.89,38.96c.53-.53,1.06-1.06,1.58-1.6.02,6.57.03,13.14.05,19.71-.54-.54-1.07-1.08-1.61-1.63-2.8-5.49-2.77-10.98-.03-16.48Z"/>
    <path class="cls-22" d="m402.84,164.09c-.36,1.66-1.18,3.09-3.09,2.96-1.44-.1-2.6-1.23-2.64-2.73-.05-1.87,1.22-3.04,3.03-2.99,1.47.04,2.35,1.22,2.7,2.76Z"/>
    <path class="cls-19" d="m384.66,163.96c-.48,1.88-1.33,3.1-2.82,3.1-1.82,0-3.13-1.29-2.98-3.08.14-1.76,1.59-2.95,3.38-2.63,1.36.24,2.18,1.53,2.42,2.62Z"/>
    <path class="cls-30" d="m424.14,163.64c-.28,2.03-1.14,3.4-3.03,3.43-1.55.03-2.62-1.18-2.73-2.62-.14-1.83.96-3.1,2.86-3.14,1.59-.03,2.27,1.29,2.9,2.33Z"/>
    <path class="cls-20" d="m384.61,186.62c-.04,1.66-1.04,2.85-2.37,3.13-1.83.38-3.2-.87-3.39-2.63-.2-1.88,1.16-3.01,2.96-3.03,1.53-.02,2.35,1.19,2.8,2.54Z"/>
    <path class="cls-20" d="m402.87,186.97c-.46,1.69-1.39,3.07-3.3,2.79-1.41-.21-2.58-1.35-2.47-2.89.12-1.83,1.42-3.01,3.24-2.77,1.36.18,2.42,1.23,2.53,2.87Z"/>
    <path class="cls-29" d="m421.54,184c1.28.54,2.65,1.26,2.53,2.85-.13,1.78-1.33,3.19-3.19,2.93-1.72-.24-3.03-1.67-2.56-3.49.33-1.26,1.48-2.4,3.22-2.29Z"/>
    <path class="cls-73" d="m404.29,383.67c-8.7,0-17.4-.13-26.09.06-3.96.09-5.45-1.37-5.31-5.34.22-6.11.04-12.23.06-18.34.02-8.84,4.55-14.25,13.38-14.51,14.8-.44,29.61-.14,44.42-.39,2.33-.04,2.89.64,2.88,2.63,0,11.05-.07,22.11.08,33.16.05,3.38-1.76,2.87-4.03,2.83-8.46-.14-16.92-.06-25.39-.06,0-.02,0-.03,0-.05Z"/>
    <path class="cls-69" d="m881.59,383.69c-8.01,0-16.02-.11-24.02.05-3.67.08-5.72-.7-5.62-5.01.23-9.42.16-18.85.04-28.27-.05-3.47.95-5.11,4.78-5.12,15.29-.01,30.57-.36,45.86-.42,6.44-.02,8.35,4.67,8.58,9.89.37,7.99-.01,16.02.17,24.02.08,3.75-1.53,4.93-5.07,4.87-8.24-.14-16.48-.05-24.73-.05v.03Z"/>
    <path class="cls-72" d="m365.51,51.43c.14,13.82.28,27.65.41,41.47.02,1.88.24,3.98-2.75,3.55-.04-13.1-.12-26.2-.1-39.3,0-2.17-.91-4.91,2.44-5.73Z"/>
    <path class="cls-76" d="m450.57,401.98c3.19-1.23,6.49-.42,9.72-.42,113.42-.06,226.83-.06,340.25.02,3.46,0,7.03-1.21,10.42.51,0,84.08-.08,168.16.13,252.23.02,6.13-1.3,7.75-7.69,7.74-117.48-.26-234.96-.22-352.44-.24-.1-44.48-.22-88.96-.29-133.45-.06-42.13-.07-84.27-.1-126.4Z"/>
    <path class="cls-51" d="m408.24,552.57c0,1.65.06,2.81-.02,3.97-.11,1.57.07,3.58-2.37,3.32-1.8-.2-1.73-1.88-1.8-3.25-.06-1.16-.2-2.34-.01-3.47.43-2.54-1.38-7.11,1.49-7.23,4.31-.17,1.99,4.59,2.7,6.67Z"/>
    <path class="cls-53" d="m408.24,499.56c0,1.61.09,2.78-.02,3.93-.15,1.57-.1,3.64-2.38,3.4-1.64-.17-1.74-1.94-1.8-3.34-.05-1.16-.21-2.36.02-3.47.5-2.47-1.54-6.93,2.05-6.95,3.72-.03,1.42,4.48,2.13,6.43Z"/>
    <path class="cls-50" d="m378.63,523.29c2.72.95,7.09-1.27,7.11,2.58.01,3.01-4.18,1.85-6.53,1.82-2.52-.04-6.86,1.28-6.76-2.48.09-3.42,4.38-.5,6.18-1.91Z"/>
    <path class="cls-59" d="m438.58,525.77c-3.81.51-7.61,1.04-11.42,1.51-1.33.16-2.38-.45-2.61-1.77-.28-1.67,1.1-1.92,2.24-1.88,3.89.12,7.86-.67,11.78,2.14Z"/>
    <path class="cls-75" d="m450.88,61.47c119.04-.02,238.07-.05,357.11-.06.94,0,1.87.14,2.81.22,1.57,1.86.85,4.07.85,6.12.04,82.45.04,164.91,0,247.36,0,2.04.73,4.26-.87,6.11-3.53.07-7.05.21-10.58.21-113.88.01-227.75-.04-341.63.16-6.42.01-8.11-1.57-8.09-8.05.24-81.67.16-163.34.18-245.01,0-2.35.13-4.7.2-7.05Z"/>
    <path class="cls-36" d="m810.79,321.2c.05-82.77.1-165.54.15-248.31,0-3.76-.08-7.52-.13-11.28.49-.55.98-1.09,1.46-1.64.2,1.85.56,3.69.56,5.54.03,84.63.03,169.27.02,253.9,0,1.16-.23,2.32-.35,3.48-.57-.57-1.14-1.13-1.71-1.7Z"/>
    <path class="cls-69" d="m388.68,46.27c-2.63-8.62,3.61-6.91,8.97-7.69,8.78-1.28,7.28,4.12,7.97,9.52,1.13,8.91-4.43,7.17-9.73,7.79-8.18.97-7.94-3.75-7.21-9.62Z"/>
    <path class="cls-71" d="m889.89,38.96c0,5.49.02,10.99.03,16.48-5.95.39-11.9.7-17.84-.16.49-5.56-1.17-11.26,1.05-16.71,5.59.13,11.18.26,16.76.38Z"/>
    <path class="cls-42" d="m871.92,364.99c0,3.98-.1,7.97.04,11.95.1,2.74-.36,4.32-3.73,4.32-3.26,0-3.88-1.36-3.84-4.22.13-8.43.17-16.87,0-25.3-.07-3.16,1.15-3.96,4.09-3.93,2.87.03,3.54,1.26,3.45,3.83-.15,4.45-.04,8.9-.04,13.35h.04Z"/>
    <path class="cls-6" d="m886.87,364.48c0-4.24.2-8.49-.06-12.72-.22-3.58,1.51-4.45,4.62-4.48,3.21-.03,3.98,1.68,3.95,4.46-.08,8.48-.14,16.96-.05,25.44.03,3.33-1.3,4.66-4.64,4.52-3.11-.12-3.99-1.64-3.89-4.51.15-4.24.04-8.48.04-12.72h.02Z"/>
    <path class="cls-27" d="m797.01,648.22c-2.4,1.47-5.05.8-7.58.81-105.39.04-210.79-.03-316.18.16-6.67.01-8.71-1.68-8.69-8.56.25-72.95.14-145.91.23-218.86,0-2.32-1.48-5.2,1.42-7.03,1.24.72,2.31,1.59,2.83,3,1.28,4.14.85,8.4.85,12.62.03,66.38.02,132.75.02,199.13,0,2.12-.04,4.24.02,6.35.22,7.65.8,8.32,8.71,8.38,15.76.12,31.53.04,47.29.04,85.41,0,170.82,0,256.24.02,4.21,0,8.48-.47,12.62.82,1.34.61,2.5,1.35,2.21,3.12Z"/>
    <path class="cls-10" d="m797.01,648.22c-.64-.62-1.29-1.24-1.93-1.86-2.25-2.84-1.88-6.24-1.88-9.5-.04-70.44-.05-140.89,0-211.33,0-2.59-.04-5.19.79-7.7.51-1.41,1.55-2.32,2.83-3.02,2.75,1.59,1.42,4.24,1.42,6.34.08,73.48.08,146.96.03,220.44,0,2.22.94,4.75-1.24,6.62Z"/>
    <path class="cls-18" d="m796.8,414.82c-.53.52-1.06,1.03-1.58,1.55-2.76,2.41-6.17,2.05-9.42,2.05-102.84.05-205.69.05-308.53,0-3.25,0-6.66.36-9.41-2.07-.55-.54-1.1-1.08-1.65-1.61,5.41-.07,10.82-.2,16.23-.21,100.79-.01,201.58-.02,302.37,0,3.99,0,7.99.19,11.98.29Z"/>
    <path class="cls-16" d="m467.58,74.29c4.7-.09,9.4-.27,14.11-.27,102.65-.01,205.3.08,307.95-.19,7.43-.02,8.84,2.15,8.81,9.1-.25,72.54-.14,145.08-.22,217.62,0,2.61,1.4,5.68-1.43,7.86-1.48-1.17-2.63-2.56-3.02-4.47-.87-4.19-.59-8.44-.59-12.67-.02-65.47-.01-130.93-.01-196.4,0-1.41,0-2.83,0-4.24-.04-11.37-.06-11.43-11.35-11.44-100.05-.01-200.1,0-300.15-.04-4.43,0-8.97.65-13.25-1.25-1.47-.93-1.62-2.16-.84-3.61Z"/>
    <path class="cls-35" d="m795.47,305.88c1.14.47,1.29,1.46,1.33,2.52-2.1.14-4.21.39-6.31.39-105.98.02-211.95.01-317.93-.01-2.1,0-4.2-.28-6.31-.43-1.32-2.61.74-3.2,2.4-4.03,3.45-1.01,7-.73,10.52-.73,101.14-.02,202.28-.03,303.42.02,4.38,0,9.02-.9,12.89,2.27Z"/>
    <path class="cls-5" d="m467.42,305.94c-.39.8-.78,1.6-1.17,2.41-2.65-1.64-1.4-4.26-1.4-6.4-.07-73.79-.09-147.58.08-221.38,0-2.01-2.64-6.13,2.65-6.28.02.88.04,1.75.06,2.63,2.45,2.71,2.26,6.09,2.27,9.36.05,70.13.05,140.25,0,210.38,0,3.29.08,6.65-2.48,9.28Z"/>
    <path class="cls-57" d="m892.87,365.08c0,3.75.03,7.5-.02,11.24-.02,1.45-.29,2.95-2.25,2.74-1.48-.16-1.64-1.47-1.65-2.65-.03-7.73-.03-15.46-.01-23.19,0-1.4.05-3.06,1.95-3.1,1.91-.03,1.99,1.59,2,3.02.02,3.98,0,7.96,0,11.95h-.03Z"/>
    <path class="cls-67" d="m467.86,416.35c109.12,0,218.24.01,327.36.02.08,19.52.23,39.04.24,58.56.03,54.34.02,108.67,0,163.01,0,2.81-.24,5.62-.37,8.43-106.64,0-213.29-.05-319.93.14-6.06.01-7.91-1.26-7.89-7.65.24-72.3.15-144.59.17-216.89,0-1.87.28-3.74.43-5.62Z"/>
    <path class="cls-67" d="m467.42,305.94c-.03-75.41-.07-150.82-.09-226.24,0-.93.2-1.86.31-2.79,107.35-.04,214.7,0,322.05-.26,6.44-.01,5.8,3.28,5.8,7.38-.03,73.95-.02,147.9-.02,221.84-2.09.18-4.19.5-6.28.5-104.92.03-209.84.04-314.75.02-2.34,0-4.67-.3-7.01-.46Z"/>
    <circle class="cls-48" cx="868.38" cy="480.98" r="16.13"/>
    <circle class="cls-48" cx="897.95" cy="509.65" r="16.13"/>
    <circle class="cls-48" cx="837.01" cy="509.65" r="16.13"/>
    <circle class="cls-48" cx="869.27" cy="540.12" r="16.13"/>
    <circle class="cls-73" cx="869.72" cy="540.57" r="12.1"/>
    <path class="cls-3" d="m867.28,543.79c0-1.13.66-1.89.66-2.85,0-.89-.42-.81-.42-1.4,0-.65.5-1.13.5-1.81,0-1.29-1.1-1.47-1.1-2.56,0-.68.44-1.23,1.16-1.23,1.45,0,3.56.89,3.56,2.29,0,.84-.79,1.42-.79,2.06,0,.48.47.79.85,1.05.74.5,1.45,1.13,1.45,2.11,0,1.37-.79,3.16-1.94,3.42-.4.11-.84.19-1.24.19-.45,0-.85.47-1.32.47-.85,0-1.39-.92-1.39-1.74Zm3.9-.56c0-.9-1.24-1.32-1.24-2.26,0-.71.63-.95.63-1.53,0-.21-.13-.37-.4-.37-1.56,0-1.71.76-1.71,2.26,0,.5-.27.77-.27,1.39,0,1,.76,1.89,1.6,1.89s1.4-.68,1.4-1.37Zm-.4-6.19c0-.44-.4-.73-.4-1.06.02-.19.18-.39.18-.55,0-.55-.6-.79-1.05-.79-.52,0-1.16.45-1.16,1,.02.56.68.52.68,1.15,0,.34-.18.73-.18,1.06,0,.44.32.63.65.63.53,0,1.29-.84,1.29-1.44Z"/>
    <ellipse class="cls-68" cx="861.66" cy="533.4" rx="1.34" ry=".45" transform="translate(-77.8 913.39) rotate(-53.78)"/>
    <circle class="cls-73" cx="898.89" cy="509.32" r="12.1"/>
    <ellipse class="cls-68" cx="860.76" cy="535.64" rx=".9" ry=".45" transform="translate(-16.05 1044.59) rotate(-62.03)"/>
    <ellipse class="cls-68" cx="890.83" cy="502.15" rx="1.34" ry=".45" transform="translate(-40.65 924.14) rotate(-53.78)"/>
    <ellipse class="cls-68" cx="889.93" cy="504.39" rx=".9" ry=".45" transform="translate(27.04 1053.76) rotate(-62.03)"/>
    <ellipse class="cls-68" cx="905.61" cy="518.28" rx=".9" ry=".45" transform="translate(-137.81 522.24) rotate(-30)"/>
    <ellipse class="cls-68" cx="876.44" cy="549.53" rx=".9" ry=".45" transform="translate(-157.34 511.84) rotate(-30)"/>
    <circle class="cls-73" cx="838.04" cy="509.68" r="12.1"/>
    <ellipse class="cls-68" cx="829.98" cy="502.51" rx="1.34" ry=".45" transform="translate(-65.84 875.2) rotate(-53.78)"/>
    <ellipse class="cls-68" cx="829.08" cy="504.75" rx=".9" ry=".45" transform="translate(-5.59 1000.21) rotate(-62.03)"/>
    <ellipse class="cls-68" cx="844.76" cy="518.64" rx=".9" ry=".45" transform="translate(-146.14 491.87) rotate(-30)"/>
    <path class="cls-3" d="m896.14,513.36c.03-.82.47-1.58.95-2.23.74-1.03,1.29-2,1.29-3.13,0-.79-.34-1.95-.77-2.58-.21-.32-.45-.66-.45-1.06,0-.76.82-1.16,1.73-1.16,1.16,0,1.92.58,1.92,1.76,0,.68-.47,1.39-.47,2.06s.44,1.13.95,1.77c.71.9,1.15,1.92,1.15,3.02,0,1.19-.61,2.66-1.56,2.66-.52,0-.82-.44-.82-.97,0-1.02,1.5-3.21,1.03-3.9-.31-.45-.87-.44-1.34-.4-.27.02-.55.03-.79.21-.32.21-.48.65-.63,1.02-.18.5-.39,1.03-.39,1.53,0,.81.48,1.32.48,2.05,0,.6-.39,1.1-.98,1.1-.76,0-1.29-.9-1.29-1.74Zm3.32-4.76c.45-.16.76.13.69-.44-.06-.29-.18-.52-.18-.94.02-.61.23-1.29.23-1.9,0-.53-.21-1.05-.55-1.05-.68,0-.9,2.15-.9,4.05,0,.34.05.52.21.52.13,0,.37-.18.5-.24Z"/>
    <path class="cls-3" d="m836.48,515.47c0-.77.37-1.06.86-2.06.37-.79.5-1.71.22-2.48-.32-1.21-2.97-2.32-2.97-3.77,0-.71.6-1.35,1.51-1.35,1.18,0,1.81.53,1.81,1.29.02.71-.73,1.05-.73,1.71,0,.47.65,1.44,1.12,1.44.69,0,1.55-1.31,1.57-2.05,0-.5-.24-.98-.24-1.48,0-.61.65-1.18,1.38-1.18s1.25.56,1.25,1.15c0,1.13-1.77,2.89-3.27,3.71-.28.16-.71.36-.71.89,0,1.73,1.55,3.42,1.55,4.6,0,.82-.6,1.37-1.53,1.37-1.23,0-1.81-.92-1.81-1.76Z"/>
    <circle class="cls-73" cx="869.75" cy="480.95" r="12.1"/>
    <ellipse class="cls-68" cx="861.68" cy="473.79" rx="1.34" ry=".45" transform="translate(-29.69 889.02) rotate(-53.78)"/>
    <ellipse class="cls-68" cx="860.78" cy="476.03" rx=".9" ry=".45" transform="translate(36.62 1012.96) rotate(-62.03)"/>
    <ellipse class="cls-68" cx="876.47" cy="489.92" rx=".9" ry=".45" transform="translate(-127.53 503.87) rotate(-30)"/>
    <path class="cls-3" d="m865.95,485c0-.31.06-.63.18-.84.45-.94,1.92-.56,2.34-1.48.24-.48.05-1.1.24-1.61.13-.42.53-.71.53-1.21,0-1.31-2.27-1.15-2.27-3.21,0-.85.48-1.45,1.16-1.45,1.02,0,1.08,1.24,1.08,2.23,0,.89.32,2.11.82,2.11s.52-1.02.63-2.21c.11-1.08.56-2.03,1.34-2.03.69,0,1,.68,1,1.45,0,1.6-.89,2.16-2.19,2.95-.23.13-.31.24-.31.35,0,.19.19.42.56.73.92.81,1.84,2.52,1.84,3.74,0,1.06-.65,2-1.52,2-.65,0-.82-.52-.82-1.21,0-1.02.32-2.21.32-3.16s-.5-1.73-.9-1.73c-.18,0-.5.15-.6.5-.24.73.35,5.68-2.24,5.68-.66,0-1.19-.84-1.19-1.6Z"/>
    <g>
      <circle class="cls-48" cx="833.28" cy="631.02" r="14.19"/>
      <circle class="cls-73" cx="833.67" cy="631.41" r="10.64"/>
      <ellipse class="cls-68" cx="826.58" cy="625.1" rx="1.18" ry=".39" transform="translate(-166.13 922.61) rotate(-53.78)"/>
      <ellipse class="cls-68" cx="825.79" cy="627.07" rx=".79" ry=".39" transform="translate(-115.36 1062.25) rotate(-62.03)"/>
      <ellipse class="cls-68" cx="839.58" cy="639.29" rx=".79" ry=".39" transform="translate(-207.16 505.44) rotate(-30)"/>
    </g>
    <circle class="cls-48" cx="832.89" cy="665.01" r="14.19"/>
    <circle class="cls-73" cx="833.28" cy="665.4" r="10.64"/>
    <ellipse class="cls-68" cx="826.19" cy="659.1" rx="1.18" ry=".39" transform="translate(-193.72 936.21) rotate(-53.78)"/>
    <ellipse class="cls-68" cx="825.4" cy="661.07" rx=".79" ry=".39" transform="translate(-145.59 1079.96) rotate(-62.03)"/>
    <ellipse class="cls-68" cx="839.19" cy="673.28" rx=".79" ry=".39" transform="translate(-224.21 509.8) rotate(-30)"/>
    <g>
      <path class="cls-3" d="m856.01,633.4c0-.92.5-1.76,1.3-1.76.56,0,.9.43.9.88,0,.86-1.06,1.33-1.06,2.04.02.49.48.78.94.78.85,0,.52-.54.96-1.8.28-.76.61-.94.05-1.56-.17-.22-.42-.37-.64-.58s-.44-.41-.52-.71c-.07-.19-.07-.42-.22-.56-.24-.23-.58-.08-.9-.12-.44-.04-.77-.52-.77-1,0-1.03,1-1.8,2.17-1.8,1,0,1.74.49,1.74,1.26,0,.36-.23.72-.6.72-.31,0-.61-.22-.73-.5-.26-.58-.26-.96-.88-.96s-.88.47-.88.98c0,1,.95.62,1.39,1.68.12.29.2.6.44.78.13.13.32.2.52.32.6.38.76,1.14.76,1.96,0,1.27-.62,2.4-1.81,2.4-1.3,0-2.17-1.17-2.17-2.45Z"/>
      <path class="cls-3" d="m860.91,634.12c0-.36.06-.71.17-1.06.47-1.46,1.57-2.5,1.97-4.02.02-.1.05-.19.05-.28,0-.14-.11-.35-.28-.35-.14,0-.18.05-1.24.7-.26.16-.56.3-.72.3-.35,0-.6-.35-.6-.75,0-.64.5-1.13,1.02-1.1.72.07,1.1.11,1.42.11.88,0,1.31-.41,2.17-.41.64,0,.97.28.97.78s-.58.94-1.12.94c-.38,0-.85-.36-1.07-.36-.28,0-.11.37-.11.61,0,.74-.56,1.39-.98,1.92-.41.53-.76,1.02-.95,1.73-.07.24-.12.52-.12.79,0,.56.1,1.42.52,1.42.47,0,1.16-1.37,1.43-2.1.2-.56.42-1.16.89-1.16.49,0,.59.73.59,1.19,0,1.57-1.1,2.92-2.52,2.92-1.06,0-1.49-.79-1.49-1.8Z"/>
      <path class="cls-3" d="m865.65,634.77c.02-.61.35-1.18.71-1.66.55-.77.96-1.49.96-2.33,0-.59-.25-1.45-.58-1.92-.16-.24-.34-.49-.34-.79,0-.56.61-.86,1.28-.86.86,0,1.43.43,1.43,1.31,0,.5-.35,1.03-.35,1.54s.32.84.71,1.32c.53.67.85,1.43.85,2.24,0,.89-.46,1.98-1.16,1.98-.38,0-.61-.32-.61-.72,0-.75,1.12-2.39.77-2.9-.23-.34-.65-.32-1-.3-.2.01-.41.02-.59.16-.24.16-.36.48-.47.76-.13.37-.29.77-.29,1.14,0,.6.36.98.36,1.52,0,.44-.29.82-.73.82-.56,0-.96-.67-.96-1.29Zm2.47-3.54c.34-.12.56.1.52-.32-.05-.22-.13-.38-.13-.7.01-.46.17-.96.17-1.42,0-.4-.16-.78-.41-.78-.5,0-.67,1.6-.67,3.01,0,.25.04.38.16.38.1,0,.28-.13.37-.18Z"/>
      <path class="cls-3" d="m870.68,634.61c0-.68.23-1.06.59-2.06.18-.47.3-1.01.3-1.54,0-1.3-.84-1.69-.84-2.62,0-.78.59-.88,1.34-.88.37,0,1.03-.25,1.68-.25.83,0,1.37.47,1.37,1.2,0,.41-.23.64-.23.96,0,.26.12.49.14.74,0,.5-.35.8-.91.8-.44,0-.47-.41-.77-.41-.2.01-.29.2-.29.41,0,.38.26.55.4.86.1.23.07.89.11,1.13.07.5.16.68.37.68.23,0,.92-.35,1.25-.35.4,0,.58.32.58.86,0,.82-.79,1.57-1.49,1.57-.77,0-1.12-1.04-1.16-1.97-.01-.47,0-.92-.11-1.79-.04-.29-.22-.6-.48-.6s-.42.29-.5.56c-.08.29-.13.61-.13.92,0,.28.04.56.12.83.28.9.4.9.4,1.38,0,.52-.25.92-.76.92-.67,0-.97-.77-.97-1.39Zm2.58-4.39c.4-.14.62-.23.62-.66,0-.6-.18-.38-.73-.94-.11-.11-.16-.26-.23-.37-.2-.29-.5-.44-.8-.44-.54,0-.9.52-.9.96,0,.36.28.55.38.79.08.17.11.36.12.54.16.82.42,1.01.86.46.18-.2.44-.28.67-.34Z"/>
      <path class="cls-3" d="m876.66,634.78c0-1.01.68-1.61.68-2.59,0-.59-.3-1.1-.3-1.8,0-1.16.71-1.54.71-2.16,0-.26-.12-.36-.28-.36-.36,0-.76.54-1.3.54-.26,0-.48-.2-.48-.52,0-.44.48-.78,1-.78.72,0,1.1.41,1.76.41.38,0,.76-.19,1.13-.19.46,0,.78.25.78.72,0,.42-.24.84-.7.84-.58,0-.54-.6-.98-.65-.19,0-.36.11-.44.19-.44.52-.73,1.31-.73,1.99s.25,1.31.43,1.92c.19.62.54,2.3.54,2.59,0,.55-.26.95-.84.95s-.98-.48-.98-1.1Z"/>
    </g>
    <g>
      <path class="cls-3" d="m853.72,666.15c0-.64.36-1.04.86-1.04,1.32,0,1.24,3.07,2.38,3.07.43,0,.76-.66.76-1.28s-.43-1.35-.97-1.64c-.35-.22-.76-.29-1-.6-.23-.31-.26-.73-.46-1.07-.5-.73-1.35-.6-1.35-1.5,0-1.12.8-1.69,1.83-1.69,1.09,0,2.36.94,2.36,1.97,0,.49-.26.73-.67.73-.94,0-1.31-1.2-1.88-1.51-.12-.07-.25-.11-.38-.11-.4,0-.77.28-.77.66,0,.36.29.61.56.73.24.11.47.19.65.4.34.34.34.94.67,1.28.31.37.8.36,1.19.64.59.43.67,1.16.67,1.88,0,1.19-.25,2.05-1.4,2.05-1.36,0-3.05-1.58-3.05-2.96Z"/>
      <path class="cls-3" d="m858.63,668.28c0-.71.29-1.45.54-2.08.16-.44.35-.91.35-1.38-.01-.88-.64-1.42-.64-2.27,0-.77.5-1.48,1.27-1.48.17,0,.34.04.49.04.65,0,.9-.73,1.46-.73.41,0,.62.64.62,1.03,0,.59-.47,1.03-.92,1.03s-.83-.55-1.3-.55c-.6,0-1.07.59-1.07,1.28,0,.58.3,1.22.83,1.22s.84-.73,1.37-.73c.4,0,.49.24.52.62,0,.64-.34,1.08-.83,1.08-.53,0-.4-.58-.83-.58-.41,0-1.12,1.78-1.31,2.69-.08.52-.02.96.29.96.24,0,.26-.61.84-.61.1,0,.17.02.25.02.85,0,.86-1.47,1.67-1.47.36,0,.47.4.47.77,0,.95-.4,1.83-1.13,1.85-.53,0-.78-.73-1.13-.66-.22,0-.37.26-.53.47-.18.24-.44.42-.7.42-.43,0-.6-.55-.6-.95Z"/>
      <path class="cls-3" d="m863.2,667.92c0-.98.67-3.48.67-4.5,0-.68-.58-1.55-.58-2.01,0-.41.4-.78.77-.78.62,0,1.04.65,1.04,1.37,0,1.57-1.21,2.83-1.26,4.22-.01.42.04.84.12,1.25.08.38.19.66.55.66.88,0,1.02-1.65,1.96-1.65.37,0,.67.38.67.77,0,.68-.52,1.56-1.07,1.56-.37,0-.71-.36-1.08-.36-.46,0-.74.58-1.15.58-.43,0-.65-.52-.65-1.09Z"/>
      <path class="cls-3" d="m867.4,668.28c0-.71.29-1.45.54-2.08.16-.44.35-.91.35-1.38-.01-.88-.64-1.42-.64-2.27,0-.77.5-1.48,1.27-1.48.17,0,.34.04.49.04.65,0,.9-.73,1.46-.73.41,0,.62.64.62,1.03,0,.59-.47,1.03-.92,1.03s-.83-.55-1.3-.55c-.6,0-1.07.59-1.07,1.28,0,.58.3,1.22.83,1.22s.84-.73,1.37-.73c.4,0,.49.24.52.62,0,.64-.34,1.08-.83,1.08-.53,0-.4-.58-.83-.58-.41,0-1.12,1.78-1.31,2.69-.08.52-.02.96.29.96.24,0,.26-.61.84-.61.1,0,.17.02.25.02.85,0,.86-1.47,1.67-1.47.36,0,.47.4.47.77,0,.95-.4,1.83-1.13,1.85-.53,0-.78-.73-1.13-.66-.22,0-.37.26-.53.47-.18.24-.44.42-.7.42-.43,0-.6-.55-.6-.95Z"/>
      <path class="cls-3" d="m873.89,668.72c-.25,0-.49.23-.83.23-.71,0-1.16-.8-1.16-1.61,0-1.59,1.08-1.94,1.08-2.94,0-1.15-1.04-1-1.04-2.16,0-.97,1.09-1.73,2.1-1.73s1.67.48,1.67,1.46c0,.58-.29,1.18-.78,1.18-.53,0-.68-.73-.73-.97-.13-.59-.44-.62-.55-.62-.42,0-.62.47-.62.84,0,.94.55,1.03.55,1.96,0,1.27-1.26,1.75-1.26,2.84,0,.66.37,1.28.95,1.28.97,0,1.46-1.39,2.04-1.39.3,0,.5.31.5.61,0,.68-.31,1.35-.98,1.35-.32,0-.61-.34-.92-.34Z"/>
      <path class="cls-3" d="m877.04,668.03c0-1.01.68-1.61.68-2.59,0-.59-.3-1.1-.3-1.8,0-1.16.71-1.54.71-2.16,0-.26-.12-.36-.28-.36-.36,0-.76.54-1.3.54-.26,0-.48-.2-.48-.52,0-.44.48-.78,1-.78.72,0,1.1.41,1.76.41.38,0,.76-.19,1.13-.19.46,0,.78.25.78.72,0,.42-.24.84-.7.84-.58,0-.54-.6-.98-.65-.19,0-.36.11-.44.19-.44.52-.73,1.31-.73,1.99s.25,1.31.43,1.92c.19.62.54,2.3.54,2.59,0,.55-.26.95-.84.95s-.98-.48-.98-1.1Z"/>
    </g>
  </g>
  <g id="gameoverkarakter">
    <g>
      <g>
        <polyline class="cls-44" points="651.12 163.23 678.91 177.3 698.97 170.27 699.26 149.96"/>
        <g>
          <g>
            <g>
              <path class="cls-81" d="m651.12,163.23c1.46-1.73,2.94-3.47,4.47-5.23,1.66-1.91,3.31-3.79,4.96-5.63,1.23-1.21,2.86-2.62,4.96-4.02,2.15-1.43,4.22-2.47,5.96-3.22,1.56-.8,3.38-1.63,5.46-2.41,1.76-.66,3.43-1.19,4.96-1.61,1.16-.13,2.32-.27,3.47-.4h2.39l1.58.4c.83.27,1.65.54,2.48.8h0c.66.27,1.32.54,1.99.8l1.99,1.61-2.48,1.61-42.18,17.29Z"/>
              <g class="cls-1">
                <rect class="cls-44" x="650.37" y="140.52" width=".75" height="23.25"/>
                <rect class="cls-44" x="651.12" y="140.52" width="44.67" height="23.25"/>
                <rect class="cls-44" x="695.78" y="140.52" width=".37" height="23.25"/>
              </g>
            </g>
            <path class="cls-44" d="m651.12,163.23c1.46-1.73,2.94-3.47,4.47-5.23,1.66-1.91,3.31-3.79,4.96-5.63,1.23-1.21,2.86-2.62,4.96-4.02,2.15-1.43,4.22-2.47,5.96-3.22,1.56-.8,3.38-1.63,5.46-2.41,1.76-.66,3.43-1.19,4.96-1.61,1.16-.13,2.32-.27,3.47-.4h2.39l1.58.4c.83.27,1.65.54,2.48.8h0c.66.27,1.32.54,1.99.8l1.99,1.61-2.48,1.61-42.18,17.29Z"/>
          </g>
          <polygon class="cls-44" points="651.12 163.23 695.78 144.33 719.6 129.46 699.26 149.96 651.12 163.23"/>
          <polygon class="cls-44" points="690.32 152.02 674.79 156.66 651.12 163.23 678.91 177.3 698.97 170.27 699.26 149.96 690.32 152.02"/>
          <polygon class="cls-44" points="678.91 177.3 685.36 175.04 682.13 185.74 678.91 177.3"/>
          <polyline class="cls-44" points="685.36 175.04 697.28 185.74 692.47 172.55"/>
          <polyline class="cls-44" points="692.72 172.57 705.21 178.1 698.97 169.46"/>
          <polygon class="cls-44" points="565.26 136.7 590.6 156.62 635.23 157.2 591.56 152.78 565.26 136.7"/>
          <g>
            <g>
              <path class="cls-81" d="m635.23,157.2c.15-1.55.14-3.64-.5-6.03-.99-3.75-3.05-6.47-4.47-8.04-1.4-.99-3.38-2.18-5.96-3.22-2.87-1.15-5.5-1.72-7.44-2.01-1.9.23-4.08.6-6.45,1.21-1.93.49-3.65,1.05-5.13,1.61-1.74.74-3.75,1.78-5.79,3.22-4.38,3.1-6.72,6.59-7.94,8.84l43.67,4.42Z"/>
              <g class="cls-82">
                <rect class="cls-44" x="591.2" y="137.7" width=".36" height="19.73"/>
                <rect class="cls-44" x="591.56" y="137.7" width="43.75" height="19.73"/>
                <rect class="cls-44" x="635.31" y="137.7" width=".25" height="19.73"/>
              </g>
            </g>
            <path class="cls-44" d="m635.23,157.2c.15-1.55.14-3.64-.5-6.03-.99-3.75-3.05-6.47-4.47-8.04-1.4-.99-3.38-2.18-5.96-3.22-2.87-1.15-5.5-1.72-7.44-2.01-1.9.23-4.08.6-6.45,1.21-1.93.49-3.65,1.05-5.13,1.61-1.74.74-3.75,1.78-5.79,3.22-4.38,3.1-6.72,6.59-7.94,8.84l43.67,4.42Z"/>
          </g>
          <polygon class="cls-44" points="590.6 156.62 635.23 157.2 615.88 174.08 590.6 156.62"/>
          <polygon class="cls-44" points="603.68 156.01 620.23 156.4 614.39 161.22 603.68 156.01"/>
          <polygon class="cls-44" points="598.02 162.23 601.56 164.51 595.28 169.46 598.02 162.23"/>
          <polygon class="cls-44" points="603.74 165.6 601.5 164.2 599.75 172.68 603.74 165.6"/>
          <polygon class="cls-44" points="603.22 165.35 603.22 175.09 606.9 167.57 603.22 165.35"/>
          <line class="cls-44" x1="621.72" y1="182" x2="631.71" y2="179.14"/>
          <line class="cls-44" x1="661.43" y1="177.3" x2="670.15" y2="182"/>
          <polygon class="cls-44" points="667.99 127.85 677.92 125.84 688.29 126.85 667.99 127.85"/>
          <path class="cls-44" d="m597.52,135.49l9.63-7.64,21.6,1.61c-3.9-.59-11.59-1.27-20.31,1.21-4.79,1.36-8.43,3.26-10.92,4.82Z"/>
          <polyline class="cls-44" points="652.22 135.69 637.11 188.36 644.66 184.17 644.66 188.36"/>
          <polygon class="cls-44" points="578.3 146.95 589 165.35 590.6 187.29 603.24 213.34 633.71 241.15 646.11 241.15 686.85 199.41 698.29 175.04 703.72 155.19 703.72 145.46 694.29 135.09 690.32 125.02 672.95 110.16 639.21 98.5 607.94 114.58 589.08 138.3 579.79 137.9 578.3 146.95"/>
          <polygon class="cls-44" points="620.84 220.72 636.72 202.63 645.16 203.03 649.24 202.63 667.49 217.9 649.24 214.76 645.66 213.88 639.21 214.29 635.73 213.88 620.84 220.72"/>
          <polyline class="cls-44" points="638.54 210.52 642.71 211.67 647.32 210.52"/>
          <polygon class="cls-44" points="625.09 218.77 634.79 214.32 635.73 213.88 639.21 214.29 645.66 213.88 660.15 216.64 642.93 228.46 625.09 218.77"/>
          <path class="cls-44" d="m642.71,198.7l3.04,1.76c1.03-.59,2.06-1.17,3.09-1.76-.4.23-1.36.72-2.72.8-1.77.09-3.04-.58-3.41-.8"/>
          <polyline class="cls-44" points="576.34 145.41 572.26 159.42 579.68 169.46 582.63 184.54 586.38 187.29 590.6 187.29 609.43 197"/>
          <polygon class="cls-44" points="582.63 184.54 586.6 289.06 607.15 291.8 626.72 285.98 629.28 271.37 624.41 232.66 603.24 213.34 590.6 187.29 586.38 187.29 582.63 184.54"/>
          <line class="cls-44" x1="597.46" y1="201.43" x2="595.28" y2="239.07"/>
          <line class="cls-44" x1="605.17" y1="215.09" x2="605.31" y2="258.07"/>
          <polygon class="cls-44" points="698.29 175.04 703.72 260.01 712.16 297.1 682.56 284.43 673.45 279.59 668.49 274.19 665.79 268.34 654.26 232.8 686.85 199.41 698.29 175.04"/>
          <line class="cls-44" x1="683.71" y1="202.63" x2="685.36" y2="260.98"/>
          <line class="cls-44" x1="667.49" y1="251.67" x2="675.19" y2="266.02"/>
          <polygon class="cls-44" points="579.79 137.9 589.08 138.3 607.94 114.58 639.21 98.5 672.95 110.16 690.32 125.02 694.29 135.09 699.41 140.72 700.02 141.39 706.2 137.5 706.2 136.29 697.27 125.44 694.79 121.82 686.35 111.37 680.4 103.33 655.58 93.68 639.7 88.05 634.24 87.65 615.38 93.68 604.47 99.71 594.54 108.55 587.59 120.21 579.79 137.9"/>
          <path class="cls-3" d="m580.05,137.08l9.03,1.22,18.86-23.72,31.27-16.08v-.62c.17-3.28.33-6.56.5-9.83"/>
          <polyline class="cls-44" points="654.59 95.29 639.56 91.03 628.09 95.29"/>
          <polyline class="cls-44" points="646.65 94.48 639.56 93.16 636.3 94.48"/>
          <line class="cls-44" x1="639.36" y1="95.29" x2="657.57" y2="99.31"/>
        </g>
        <polygon class="cls-44" points="674.79 155.86 681.39 159.21 688.49 152.13 674.79 155.86"/>
      </g>
      <g>
        <g>
          <g class="cls-84">
            <rect class="cls-65" x="650.63" y="139.7" width=".75" height="23.25"/>
            <rect class="cls-65" x="651.37" y="139.7" width="44.67" height="23.25"/>
            <rect class="cls-65" x="696.04" y="139.7" width=".37" height="23.25"/>
          </g>
          <path class="cls-2" d="m651.37,162.41c1.46-1.73,2.94-3.47,4.47-5.23,1.66-1.91,3.31-3.79,4.96-5.63,1.23-1.21,2.86-2.62,4.96-4.02,2.15-1.43,4.22-2.47,5.96-3.22,1.56-.8,3.38-1.63,5.46-2.41,1.76-.66,3.43-1.19,4.96-1.61,1.16-.13,2.32-.27,3.47-.4h2.39l1.58.4c.83.27,1.65.54,2.48.8h0c.66.27,1.32.54,1.99.8l1.99,1.61-2.48,1.61-42.18,17.29Z"/>
        </g>
        <polygon class="cls-3" points="651.37 162.41 696.04 143.51 719.86 128.64 699.51 149.14 651.37 162.41"/>
        <polygon class="cls-68" points="690.58 151.2 651.37 162.41 679.17 176.48 699.23 169.45 699.51 149.14 690.58 151.2"/>
        <polygon class="cls-3" points="679.17 176.48 685.62 174.22 682.39 184.92 679.17 176.48"/>
        <polyline class="cls-3" points="685.62 174.22 697.54 184.92 692.73 171.73"/>
        <polyline class="cls-3" points="692.98 171.75 705.47 177.28 699.23 168.64"/>
        <polygon class="cls-3" points="565.52 135.88 590.86 155.8 635.49 156.38 591.82 151.96 565.52 135.88"/>
        <g>
          <g class="cls-83">
            <rect class="cls-65" x="591.46" y="136.88" width=".36" height="19.73"/>
            <rect class="cls-65" x="591.82" y="136.88" width="43.75" height="19.73"/>
            <rect class="cls-65" x="635.57" y="136.88" width=".25" height="19.73"/>
          </g>
          <path class="cls-2" d="m635.49,156.38c.15-1.55.14-3.64-.5-6.03-.99-3.75-3.05-6.47-4.47-8.04-1.4-.99-3.38-2.18-5.96-3.22-2.87-1.15-5.5-1.72-7.44-2.01-1.9.23-4.08.6-6.45,1.21-1.93.49-3.65,1.05-5.13,1.61-1.74.74-3.75,1.78-5.79,3.22-4.38,3.1-6.72,6.59-7.94,8.84l43.67,4.42Z"/>
        </g>
        <polygon class="cls-68" points="590.86 155.8 635.49 156.38 616.14 173.26 590.86 155.8"/>
        <polygon class="cls-3" points="603.94 155.19 620.49 155.58 614.65 160.4 603.94 155.19"/>
        <polygon class="cls-3" points="598.28 161.41 601.82 163.69 595.54 168.64 598.28 161.41"/>
        <polygon class="cls-3" points="603.99 164.78 601.76 163.38 600.01 171.86 603.99 164.78"/>
        <polygon class="cls-3" points="603.48 164.53 603.48 174.27 607.16 166.75 603.48 164.53"/>
        <line class="cls-2" x1="621.98" y1="181.18" x2="631.97" y2="178.32"/>
        <polyline class="cls-3" points="654.51 171.21 661.68 176.48 670.41 181.18"/>
        <polygon class="cls-3" points="668.25 127.03 678.17 125.02 688.55 126.03 668.25 127.03"/>
        <path class="cls-3" d="m597.78,134.67l9.63-7.64,21.6,1.61c-3.9-.59-11.59-1.27-20.31,1.21-4.79,1.36-8.43,3.26-10.92,4.82Z"/>
        <polyline class="cls-3" points="652.48 134.87 637.37 187.54 644.92 183.35 644.92 187.54"/>
        <polygon class="cls-2" points="578.55 146.13 589.26 164.53 590.86 186.47 603.5 212.52 633.97 240.33 646.37 240.33 687.11 198.59 698.55 174.22 703.98 154.37 703.98 144.64 694.55 134.27 690.58 124.2 673.21 109.34 639.46 97.68 608.2 113.77 589.34 137.48 580.05 137.08 578.55 146.13"/>
        <polygon class="cls-56" points="621.1 219.9 636.98 201.81 645.42 202.21 649.5 201.81 667.75 217.08 649.5 213.94 645.92 213.06 639.46 213.47 635.99 213.06 621.1 219.9"/>
        <polyline class="cls-56" points="638.8 209.7 642.97 210.85 647.58 209.7"/>
        <polygon class="cls-56" points="625.35 217.95 635.05 213.5 635.99 213.06 639.46 213.47 645.92 213.06 660.41 215.82 643.19 227.64 625.35 217.95"/>
        <path class="cls-2" d="m642.97,197.88c.37.21,1.64.89,3.41.8,1.36-.07,2.32-.56,2.72-.8-1.03.59-2.06,1.17-3.09,1.76"/>
        <polyline class="cls-2" points="576.6 144.59 572.52 158.6 579.94 168.64 582.89 183.72 586.64 186.47 590.86 186.47 609.69 196.18"/>
        <polygon class="cls-66" points="582.89 183.72 586.86 288.24 607.41 290.98 626.98 285.17 629.54 270.55 624.67 231.84 603.5 212.52 590.86 186.47 586.64 186.47 582.89 183.72"/>
        <line class="cls-66" x1="597.72" y1="200.61" x2="595.54" y2="238.25"/>
        <line class="cls-2" x1="605.42" y1="214.27" x2="605.57" y2="257.25"/>
        <polygon class="cls-66" points="698.55 174.22 703.98 259.19 712.42 296.28 682.81 283.61 673.71 278.77 668.74 273.37 666.05 267.52 654.51 231.98 687.11 198.59 698.55 174.22"/>
        <line class="cls-66" x1="683.97" y1="201.81" x2="685.62" y2="260.16"/>
        <line class="cls-66" x1="667.75" y1="250.85" x2="675.44" y2="265.2"/>
        <path class="cls-66" d="m580.05,137.08l9.29.4c6.37-7.84,12.74-15.68,19.11-23.52,10.26-5.49,20.51-10.99,30.77-16.48,11.33,3.95,22.66,7.91,34,11.86l17.37,14.85,3.97,10.07,5.12,5.63.61.68,6.18-3.89v-1.21l-8.93-10.85-2.48-3.62-8.44-10.45-5.96-8.04-24.81-9.65-15.88-5.63-5.46-.4-18.86,6.03-10.92,6.03-9.93,8.84-6.95,11.66-7.8,17.69Z"/>
        <polyline class="cls-2" points="654.85 94.47 639.82 90.21 628.34 94.47"/>
        <polyline class="cls-2" points="646.91 93.66 639.82 92.34 636.56 93.66"/>
        <line class="cls-2" x1="639.62" y1="94.47" x2="657.83" y2="98.49"/>
        <path class="cls-3" d="m639.46,97.68c.52-4.27.8-7.42.74-8.24,0-.09-.01-.19-.01-.19-.06-.8-.15-1.49-.23-2.02l-2.34-.17c.6,1.27,1.22,2.89,1.59,4.8.45,2.3.42,4.3.25,5.83Z"/>
        <path class="cls-3" d="m639.72,90.63l10.86,2.37-10.86-2.37Z"/>
        <line class="cls-3" x1="639.19" y1="90.22" x2="632.76" y2="94.27"/>
        <line class="cls-3" x1="639.82" y1="92.34" x2="653.61" y2="95.88"/>
        <path class="cls-3" d="m603.5,212.52l-1.93,77.69c-.06-15.09.38-30.83,1.42-47.19.63-9.83,1.45-19.41,2.44-28.74"/>
        <path class="cls-3" d="m616.07,223.99l4.16,46.15-4.16-46.15Z"/>
        <polyline class="cls-3" points="671.34 214.74 675.14 210.85 679.17 260.16"/>
      </g>
      <polygon class="cls-3" points="677.04 154.64 683.63 157.99 690.73 150.9 677.04 154.64"/>
      <path class="cls-3" d="m625.84,217.95l10.64-4.89,6.7.6c1.63-.46,3.26-.91,4.89-1.37,10.53,2.84,12.84,3.49,12.83,3.52-.03.08-5.36-1.62-12.26-2.15-5.16-.4-9.48-.01-12.41.4"/>
      <path class="cls-3" d="m620.92,174.83c8.5-6.7,9.09-6.21,9.09-6.21l-.59-.49"/>
      <path class="cls-3" d="m641.44,200.55c.75.22,1.49.43,2.24.65.51-.27,1.02-.54,1.53-.8l-1.69,1.22-2.08-1.07Z"/>
      <polygon class="cls-44" points="624.41 232.66 633.71 241.15 646.11 241.15 654.26 232.8 666.05 267.52 668.49 274.19 675.19 280.51 626.98 285.17 629.28 271.37 624.41 232.66"/>
      <path class="cls-3" d="m633.76,240.6c7.71,1.9,11.06.44,12.41-.4.75-.47,2.15-1.79,4.96-4.42,1.91-1.79,3.11-2.99,3.13-2.98.02.02-1.41,1.51-8.15,8.34-1.79.15-3.77.25-5.9.26-2.37,0-4.54-.1-6.5-.26l-9.29-8.48c3.19,23.34,4.01,29.61,3.99,29.61-.04,0-1.56-9.43-2.58-21.67-.23-2.72-.39-5.05-.5-6.83"/>
      <path class="cls-3" d="m588.38,174.41l16.59,17.97c-5.46-6.17-10.91-12.34-16.37-18.51"/>
      <polyline class="cls-3" points="587.48 163.03 590.08 186.47 586.61 162.61"/>
      <polyline class="cls-3" points="576.6 146.95 572.26 159.42 576.34 145.41 587.52 162.81"/>
      <path class="cls-3" d="m572.26,159.42l7.42,10.04c-2.49-3.49-4.98-6.98-7.46-10.47"/>
      <polyline class="cls-3" points="579.68 169.46 582.89 183.72 582.63 184.54"/>
      <path class="cls-3" d="m639.21,98.5c0-.07,0-.14.01-.22.01-.28,0-.55,0-.8,11.33,3.95,22.66,7.91,34,11.86"/>
      <path class="cls-3" d="m703.72,145.46v9.73c-2.47,9.39-3.75,14.08-3.84,14.06-.09-.01,1.03-4.78,3.35-14.28"/>
    </g>
    <polyline class="cls-3" points="654.75 233.2 662.77 256.8 666.05 266.42 668.47 272.11 669.24 273.77"/>
  </g>
  <path id="gameover" class="cls-74" d="m546.18,560.91c0-4.15.04-8.3-.03-12.45-.02-.97.4-1.2,1.6-1.19,5.96.04,11.92.03,17.88,0,1.08,0,1.48.2,1.48,1.09-.04,8.27-.04,16.53,0,24.8,0,.96-.28,1.31-1.62,1.29-5.96-.05-11.92-.04-17.88,0-1.08,0-1.47-.2-1.46-1.09.06-4.15.03-8.3.03-12.45Z"/>
  <path id="gameover-2" data-name="gameover" class="cls-3" d="m693.97,515.63c0,5.92-.02,11.83.02,17.75,0,.87-.25,1.2-1.48,1.18-3.7-.06-7.41-.05-11.11,0-1.08.01-1.37-.27-1.36-1.07.04-4.58-.02-9.15.05-13.73.01-.96-.44-1.19-1.55-1.15-1.4.05-2.81.05-4.21.01-.92-.02-1.3.18-1.25.94.08,1.17-.01,2.35.02,3.53.02.63-.28.88-1.12.87-1.57-.03-3.15-.04-4.73,0-.86.02-1.11-.25-1.09-.87.04-1.18-.04-2.35.02-3.53.03-.67-.24-.95-1.14-.93-1.57.04-3.15.04-4.73,0-.94-.02-1.13.29-1.12.94.03,4.58.02,9.15.02,13.73,0,1.24,0,1.25-1.64,1.25-3.7,0-7.41-.03-11.11,0-.9,0-1.19-.21-1.19-.89.02-12,.01-23.99,0-35.99,0-.66.26-.94,1.17-.93,3.87.02,7.75.02,11.62,0,.91,0,1.19.29,1.16.95-.04,1.18.02,2.35-.03,3.53-.03.63.25.88,1.09.87,1.57-.03,3.15.03,4.72,0,.86-.02,1.22.19,1.19.9-.07,1.21,0,2.42-.03,3.63-.01.57.24.83,1.04.82,1.57-.03,3.15-.03,4.73,0,.88.02,1.22-.22,1.19-.91-.05-1.18.05-2.36-.03-3.53-.05-.76.32-.95,1.25-.92,1.53.06,3.07,0,4.6.02.89.02,1.19-.25,1.16-.93-.06-1.17.01-2.35-.03-3.53-.02-.61.21-.9,1.07-.89,3.92.02,7.83.03,11.75,0,1.11-.01,1.1.45,1.1,1.06-.01,5.95,0,11.9,0,17.85Z"/>
  <path id="gameover-3" data-name="gameover" class="cls-3" d="m700.88,560.9c0-5.95.02-11.9-.02-17.84,0-.79.27-1.09,1.36-1.09,13.07.02,26.14.02,39.21,0,.92,0,1.3.17,1.24.93-.08,1.17.02,2.35-.04,3.53-.03.69.3.91,1.19.89,1.62-.04,3.24,0,4.85-.02.66-.01.9.18.9.68-.01,5.07-.02,10.13,0,15.2,0,.7-.48.69-1.13.69-3.83-.01-7.66.02-11.49-.02-.93,0-1.31.17-1.26.92.07,1.21.04,2.42,0,3.63-.02.58.24.82,1.03.8,1.66-.03,3.32.01,4.98-.01.72-.01.97.2.95.75-.04,1.21.03,2.42-.03,3.63-.03.67.23.94,1.15.91,1.57-.05,3.15.02,4.72-.03.76-.02,1.08.12,1.06.74-.04,1.31-.03,2.61,0,3.92,0,.49-.2.7-.88.69-6.34-.01-12.69-.01-19.03,0-.77,0-.93-.29-.93-.79.02-1.18-.06-2.36.03-3.53.07-.86-.37-1.08-1.41-1.04-1.49.06-2.98-.03-4.47.01-.87.02-1.1-.26-1.08-.87.05-1.18,0-2.35.04-3.53.02-.64-.32-.88-1.13-.87-1.53.02-3.07.05-4.6-.02-1.13-.05-1.35.33-1.34,1.11.05,2.81-.02,5.62.05,8.43.02.88-.37,1.12-1.47,1.11-3.66-.04-7.32-.05-10.98,0-1.16.02-1.54-.24-1.53-1.16.05-5.91.03-11.83.03-17.74Z"/>
  <path id="gameover-4" data-name="gameover" class="cls-3" d="m637.82,521.33c0,4.18-.02,8.37.02,12.55,0,.77-.28,1.02-1.31,1.01-3.79-.04-7.58-.03-11.36,0-.94,0-1.26-.21-1.25-.95.04-2.88-.01-5.75.03-8.63,0-.72-.28-.97-1.23-.96-6.17.03-12.34.02-18.52,0-.9,0-1.18.24-1.17.92.04,2.84-.02,5.69.04,8.53.02.88-.38,1.11-1.48,1.1-3.75-.04-7.49-.03-11.24,0-.94,0-1.27-.22-1.27-.95.02-8.46.03-16.93,0-25.39,0-.69.36-.84,1.13-.83,1.45.02,2.9-.05,4.34.03,1.23.07,1.57-.3,1.49-1.18-.09-.98.04-1.96-.04-2.94-.08-.91.26-1.32,1.56-1.24,1.31.08,2.64-.02,3.95.04,1.14.05,1.64-.2,1.55-1.15-.1-1.11,0-2.22-.03-3.33-.02-.61.21-.89,1.08-.88,6.21.02,12.43.02,18.64,0,.88,0,1.21.22,1.18.91-.06,1.14.05,2.29-.04,3.43-.06.81.39,1.03,1.33,1.01,1.4-.03,2.81.03,4.21-.03,1.02-.05,1.48.16,1.41,1.02-.09,1.14.03,2.29-.03,3.43-.04.7.34.93,1.19.91,1.53-.03,3.07.03,4.6-.02.97-.03,1.22.25,1.21.96-.04,4.22-.02,8.43-.02,12.65h0Z"/>
  <path id="gameover-5" data-name="gameover" class="cls-3" d="m533.24,560.85c0-4.18.03-8.37-.02-12.55-.01-.83.32-1.08,1.37-1.03,1.36.07,2.73-.05,4.08.03,1.29.08,1.62-.31,1.54-1.23-.09-1.07.01-2.16-.04-3.23-.03-.61.19-.88,1.06-.88,10.9.02,21.8.01,32.69,0,.84,0,1.12.26,1.09.88-.05,1.18.02,2.35-.04,3.53-.04.7.3.93,1.18.91,1.53-.03,3.07.02,4.6,0,.88-.02,1.18.25,1.18.93-.02,8.43-.03,16.86,0,25.29,0,.77-.4.96-1.29.94-1.45-.03-2.9.05-4.34-.02-1.13-.05-1.38.3-1.33,1.08.07,1.11-.01,2.22.04,3.33.03.65-.19.95-1.13.95-10.9-.02-21.8-.02-32.69,0-.77,0-1.06-.17-1.03-.77.05-1.24-.01-2.48.03-3.72.02-.6-.15-.89-1.06-.85-1.53.06-3.07-.05-4.59.02-1.1.05-1.33-.27-1.32-1.06.05-4.18.02-8.37.02-12.55Z"/>
  <path id="gameover-6" data-name="gameover" class="cls-3" d="m645.28,560.81c0-5.92.02-11.83-.03-17.75,0-.88.35-1.1,1.45-1.1,15.28.02,30.57.02,45.85,0,1.11,0,1.51.23,1.44,1.11-.09,1.17-.08,2.35,0,3.53.06.84-.37,1.05-1.41,1.04-10.6-.02-21.2,0-31.8-.03-1.19,0-1.63.2-1.6,1.18.08,2.78.07,5.56,0,8.33-.02.88.36,1.1,1.45,1.1,8.17-.03,16.35-.02,24.52-.02q1.9,0,1.89,1.43c0,.95-.07,1.9.02,2.84.07.82-.31,1.08-1.37,1.07-4.64-.03-9.28-.01-13.92-.01-3.58,0-7.15,0-10.73,0-1.84,0-1.84,0-1.85,1.36,0,2.75.03,5.49-.02,8.24-.01.79.25,1.07,1.35,1.07,10.6-.03,21.2,0,31.8-.04,1.27,0,1.75.23,1.65,1.25-.12,1.17-.04,2.35,0,3.53.02.61-.23.86-1.09.86-15.5-.02-30.99-.03-46.49,0-1.1,0-1.12-.41-1.12-1.03.01-5.98,0-11.96,0-17.94h-.01Z"/>
  <path id="gameover-7" data-name="gameover" class="cls-3" d="m700.88,515.62c0-5.95.02-11.9-.02-17.84,0-.85.38-1.05,1.4-1.05,15.41.02,30.82.02,46.23,0,.86,0,1.11.22,1.08.84-.05,1.11,0,2.22-.02,3.33-.02,1.67.26,1.48-1.88,1.48-9.28,0-18.56,0-27.84,0-1.19,0-2.39.05-3.57,0-1.08-.05-1.51.2-1.49,1.09.07,2.78.07,5.56,0,8.33-.02.93.34,1.23,1.59,1.22,8.17-.04,16.35-.03,24.52-.03,1.75,0,1.75,0,1.75,1.31,0,1.05-.05,2.09.02,3.14.05.7-.28.9-1.16.89-5.11-.02-10.22-.01-15.33-.01-3.32,0-6.64.03-9.96-.02-1.16-.02-1.46.3-1.44,1.14.06,2.81.06,5.62,0,8.43-.02.84.29,1.13,1.44,1.13,10.6-.03,21.2,0,31.8-.04,1.23,0,1.66.22,1.56,1.18-.11,1.01-.02,2.02-.02,3.04q0,1.39-1.75,1.39c-9.07,0-18.13,0-27.2,0-6.04,0-12.09,0-18.13,0q-1.6,0-1.6-1.27c0-5.88,0-11.77,0-17.65Z"/>
  <path id="gameover-8" data-name="gameover" class="cls-3" d="m564.41,534.54c-5.36,0-10.73-.01-16.09.02-.94,0-1.29-.19-1.24-.93.07-1.21,0-2.42.03-3.63.01-.55-.25-.75-.97-.73-1.62.03-3.24-.01-4.85.02-.83.02-1.13-.22-1.11-.86.05-1.18-.04-2.35.02-3.53.04-.72-.24-.99-1.22-.96-1.57.05-3.15-.01-4.72.02-.78.02-1.03-.2-1.02-.79.02-5,.02-10,0-15,0-.62.29-.78,1.05-.76,1.57.04,3.15-.01,4.72.03.87.02,1.23-.18,1.19-.88-.06-1.17.04-2.35-.04-3.53-.05-.76.33-.96,1.26-.93,1.53.05,3.07,0,4.6.03.85.02,1.12-.23,1.1-.86-.04-1.18.05-2.36-.03-3.53-.06-.78.27-1.01,1.27-1,8.13.02,16.26,0,24.39,0,2.64,0,5.28.03,7.92-.01,1.04-.02,1.32.3,1.27,1.05-.07,1.08-.08,2.16,0,3.23.07.88-.38,1.12-1.47,1.11-8.26-.03-16.52,0-24.78-.03-1.27,0-1.76.24-1.65,1.25.11,1.07,0,2.16.04,3.23.02.64-.3.86-1.13.84-1.57-.04-3.15.01-4.72-.01-.77-.01-1.14.13-1.14.82.04,4.77.03,9.54,0,14.32,0,.67.32.83,1.12.81,1.57-.04,3.15.02,4.72-.02.91-.03,1.19.23,1.15.91-.06,1.17,0,2.35-.04,3.53-.02.6.18.9,1.06.9,3.96-.02,7.92-.02,11.88,0,.78,0,1.04-.23,1.03-.81-.02-3.01-.02-6.01,0-9.02,0-.6-.26-.82-1.03-.81-1.57.02-3.15-.02-4.73.02-.89.02-1.22-.25-1.2-.92.04-1.21.04-2.42,0-3.63-.02-.6.29-.8,1.05-.8,6.22.02,12.43.02,18.65,0,.89,0,1.18.23,1.18.91-.03,6.67-.03,13.33,0,20,0,.78-.43.93-1.31.93-5.41-.02-10.81,0-16.22,0Z"/>
  <path id="gameover-9" data-name="gameover" class="cls-3" d="m637.83,552.9c0,3.3-.04,6.6.03,9.9.02.85-.36,1.08-1.39,1.04-1.36-.05-2.73.03-4.09-.03-1.13-.04-1.65.2-1.55,1.15.11,1.04-.04,2.09.04,3.14.06.8-.23,1.13-1.33,1.07-1.36-.06-2.73.03-4.09-.03-1.13-.05-1.65.19-1.55,1.14.11,1.01-.05,2.03.06,3.04.1.96-.39,1.18-1.54,1.12-1.4-.07-2.81.04-4.21-.02-1.05-.04-1.32.29-1.27,1.03.07,1.14-.01,2.29.03,3.43.02.61-.2.91-1.07.89-1.62-.04-3.24-.04-4.85,0-.8.02-1.04-.23-1.02-.81.04-1.18-.04-2.36.04-3.53.05-.79-.33-1.03-1.32-1-1.53.05-3.07-.03-4.6,0-.84.02-1.13-.22-1.1-.86.05-1.11-.05-2.22.03-3.33.06-.81-.3-1.12-1.37-1.08-1.4.05-2.81-.04-4.21.02-1.09.04-1.55-.21-1.47-1.1.09-1.07-.07-2.16.03-3.23.09-.89-.41-1.05-1.41-1.02-1.44.05-2.9-.01-4.34,0-.83.01-1.21-.14-1.2-.88.04-6.67.04-13.34,0-20.01,0-.8.37-1,1.34-.99,3.7.03,7.41.04,11.11,0,1.16-.01,1.55.24,1.54,1.16-.05,6.54,0,13.08-.05,19.61,0,.84.27,1.18,1.42,1.12,1.44-.07,2.89,0,4.34-.02.91-.01,1.3.23,1.26.98-.07,1.14.03,2.29-.03,3.43-.04.67.24.95,1.14.93,1.57-.03,3.15-.03,4.73,0,.88.02,1.09-.3,1.07-.9-.03-1.18.03-2.35-.03-3.53-.03-.68.27-.94,1.17-.92,1.49.04,2.98-.03,4.47.02,1.05.04,1.39-.22,1.38-1.05-.04-5.72-.02-11.44-.02-17.16,0-.95.03-1.9-.02-2.84-.03-.59.25-.83,1.02-.83,3.96.01,7.92.02,11.88,0,.93,0,1.02.36,1.01.93-.02,3.33,0,6.67,0,10Z"/>
  <path id="gameover-10" data-name="gameover" class="cls-67" d="m714.08,555.34c0-2.39.02-4.77-.02-7.16-.01-.67.23-.91,1.15-.91,6.09.03,12.18.03,18.26,0,.99,0,1.34.22,1.33,1.01-.05,2.94-.06,5.88,0,8.82.02.83-.4.99-1.35.96-1.53-.05-3.07.01-4.6-.02-.79-.02-1.06.22-1.05.8.03,1.27-.03,2.55.03,3.82.03.66-.32.86-1.12.86-3.87-.01-7.75-.02-11.62,0-.94,0-1.14-.3-1.14-.95.03-2.42.01-4.84.01-7.25.03,0,.07,0,.1,0Z"/>
  <path id="gameover-11" data-name="gameover" class="cls-67" d="m612.6,517.3c-2.94,0-5.87-.05-8.81.02-1.26.03-1.72-.21-1.68-1.24.09-2.77.06-5.55,0-8.33-.02-.79.23-1.13,1.34-1.07,1.4.07,2.81-.02,4.21.03,1.09.04,1.55-.21,1.48-1.1-.09-1.14,0-2.29-.04-3.43-.02-.58.24-.83,1.03-.82,1.62.03,3.23.04,4.85.01.86-.01,1.09.29,1.06.9-.05,1.17.02,2.35-.03,3.53-.03.66.24.94,1.16.92,1.57-.05,3.15.01,4.72-.02.81-.02,1.14.18,1.13.83-.03,2.97-.03,5.94,0,8.92,0,.72-.42.87-1.25.87-3.06-.02-6.13,0-9.19,0Z"/>
  <path class="cls-3" d="m176.84,262.41c-.05,1.13-.13,1.7-.09,2.27.19,2.31,2.15,3.3,4.15,2.13,2.42-1.42,3.98-3.51,3.84-6.42-.14-2.77-1.49-4.99-4.16-6.02-2.93-1.13-5.77-.81-8.15,1.4-2.54,2.36-3.36,5.53-3.6,8.81-.68,9.21,2.87,17.51,7.43,25.46.25.43.95,1.5,1.21,1.92.69,1.12,1.15,2.52,2.32.93,7.95-10.75,13.02-22.47,12.02-36.16-.76-10.39-4.03-20.04-9.08-29.09-2.59-4.64-5.3-9.21-7.91-13.75-.95.12-1.13.75-1.33,1.24-4.53,11.44-9.93,22.54-13.43,34.38-5.5,18.55-6.8,37.14-.41,55.77,4.14,12.07,11.32,21.75,22.36,28.43,2.08,1.26,3.69,1.4,5.85-.09,5.17-3.56,10.85-5.8,17.35-5.1,1.52.16,2.93.64,4.32,1.2,1.63.67,1.92,1.48.47,2.91-6.39,6.27-13.97,7.68-22.37,5.55-1.55-.39-2.7-.32-3.91.66-4.75,3.8-9.56,7.52-15.26,9.85-1.22.5-1.19,1.16-.11,1.94,4.79,3.47,9.74,6.68,14.83,9.71,1.47.87,2.53.25,3.7-.38,5.64-3.04,11.46-4.06,17.62-1.68,2.66,1.03,3.03,3.27.73,4.95-4.19,3.06-8.89,4.03-13.97,2.64-.48-.13-1.03-.17-1.43-.43-4.17-2.76-7.33-1.03-10.43,2.04-1.94,1.92-4.24,3.48-6.44,5.13-.94.71-1.49,1.21-.45,2.33,6.25,6.71,7.75,15.04,8.03,23.79.06,1.9-.76,4.09.26,5.62,1.01,1.5,3.44.72,5.08,1.55,2.36,1.2,4.74.64,7.24.33,5.68-.7,11.04,1.14,16.33,2.92,8.32,2.8,15.98,7.04,23.79,10.94,3.55,1.77,7.29,2.74,11.28,2.56.5-.02,1.07-.15,1.21.51.18.84-.54,1.17-1.08,1.5-4.73,2.83-9.69,5.15-14.98,6.76-4.67,1.42-9.42,2.11-14.29,1.92-1.26-.05-2.34.06-1.52,1.74,5.05,10.38,7.44,21.7,11.48,32.44,1.3,3.46,2.4,7,5.71,9.36-3.27-.1-6.1-1.22-8.96-2.2-8.85-3.03-17.44-6.6-24.83-12.52-1.82-1.46-3.5-3.08-5.25-4.62-.73-.65-1.48-1.36-1.91.28-2.74,10.53-8.64,19.82-11.88,30.15-.78,2.48-1.11,5.04-1.41,7.6-.06.48-.04,1.11-.7,1.14-.6.03-.82-.53-.85-1.04-.87-11.82-7.89-21.45-11.49-32.3-.6-1.81-1.12-3.65-1.7-5.47-.35-1.09-.83-1.56-1.88-.49-10.36,10.52-23.67,15.43-37.39,19.53-.55.16-1.3.55-1.62-.01-.46-.81.42-1.11.96-1.42,2.56-1.48,3.14-4.22,4.09-6.65,4.15-10.6,6.59-21.78,11.26-32.2.22-.49.45-.97.69-1.45.7-1.35.77-2.05-1.16-1.94-10.2.59-19.3-2.91-28.01-7.71-1-.55-2.82-.87-2.47-2.36.32-1.36,1.9-.33,2.85-.4,5.58-.45,10.31-3.07,15.12-5.55,7.4-3.82,14.89-7.45,23-9.58,4.68-1.23,9.38-2.47,14.24-.91.69.22,1.44.15,2.12-.11,3.72-1.41,7.58-2.14,11.56-1.85,2.21.16,3.14-.5,3.16-2.88.09-7.56-.71-14.9-4.46-21.66-.25-.45-.53-.89-.82-1.32-2.62-3.88-3.08-4.04-7.41-2.58-5.71,1.93-11.32,1.58-16.8-.84-2.42-1.07-2.64-2.05-.77-3.85,4.65-4.49,10.05-4.11,15.62-2.21,1.02.35,2.09.72,2.94,1.36,2.44,1.83,4.4,1.13,6.62-1.12.99-1,2.01-1.99,3.12-2.85,5.1-3.97,7.78-4.15,2.38-6.49-4.39-1.9-8.39-4.59-11.75-8-1.67-1.69-3.01-1.96-5.04-1.58-8,1.5-15.22-.23-21.22-5.97-.69-.66-1.57-1.4-1.26-2.55.34-1.23,1.54-1.16,2.47-1.34,4.17-.82,8.11.31,11.96,1.68,3.22,1.15,6.34,2.56,9.15,4.54,1.11.78,2.13.67,3.29.22,5.76-2.22,10.56-5.95,15.41-9.62,1.13-.85.77-1.38-.28-2-15.44-8.97-23.19-23.08-26.66-40.04-3.29-16.1-1.33-31.8,3.32-47.34,3.51-11.75,8.84-22.78,13.41-34.11.89-2.2,1.17-4.06.03-6.35-2.08-4.19-3.28-8.7-3.77-13.39-.25-2.38.07-4.68.83-6.89.6-1.75,2.47-2.38,4.06-1.43,3.56,2.13,5.18,5.47,5.4,9.51.22,3.88-.31,7.71-1.84,11.25-1.17,2.71-.7,4.84.76,7.22,4.26,6.95,8.53,13.92,11.58,21.52,5.68,14.15,7.27,28.51,1.48,43.06-2.23,5.6-5.63,10.57-8.99,15.52-1.09,1.6-1.5,3.08-1.11,5.1.87,4.45.63,8.84-2.62,12.48-.92,1.03-1.9,2.31-3.57,1.72-1.6-.56-2.17-2.02-2.43-3.53-.36-2.07.38-3.97,1.28-5.76,1.01-2,2.06-4.02,3.38-5.82,1.2-1.63,1.04-2.96.07-4.55-3.32-5.49-6.54-11.03-8.13-17.33-1.64-6.49-2.48-12.96.61-19.28,2.11-4.32,6.8-6.38,11.57-5.19,3.87.97,6.6,4.83,6.41,9.04-.15,3.27-2.95,6.97-6.07,7.86-2.12.6-3.81-.19-4.89-2.04-.87-1.5-1.27-3.06,1.04-4.59Zm-15.69,175.96c0,8.41,1.7,16.53,4.38,24.45,2.78,8.19,7.36,15.66,9.75,24.01.1.35.47.85.75.87.66.06.62-.61.76-1.07.84-2.79,1.86-5.51,3.1-8.15,5.28-11.27,9.85-22.73,10.9-35.32.9-10.82-1.02-21.07-7.2-29.98-5.79-8.34-8.99-8.64-15.07-.06-5.3,7.48-7.47,16.07-7.37,25.24Zm20.33-31c3.74,3.74,6.1,8.21,8,12.91,4.02,9.98,4.3,20.27,2.06,30.67-.45,2.09-.1,3.52,1.46,5.08,8.64,8.69,19.41,13.57,30.75,17.46.45.16,1,.45,1.4.04.52-.54.03-1.07-.2-1.59-2.06-4.65-3.51-9.51-5.04-14.34-2.94-9.28-5.84-18.55-10.61-27.13-4.87-8.75-10.79-16.4-19.88-21.11-2.44-1.26-4.98-2.23-7.93-2Zm-10.64.12c-.69-.35-1.23-.41-1.72-.35-2.25.27-4.41,1.06-6.41,2.14-13.07,7.04-19.49,18.84-24.75,31.34-4.36,10.35-6.68,21.42-11,31.8-.15.37-.52.75-.14,1.12.42.41.97.18,1.41.02,10.46-3.75,20.52-8.12,28.98-15.68,3.04-2.72,3.66-5.18,2.94-9.07-1.72-9.19-1.42-18.39,1.98-27.29,1.96-5.15,4.44-10,8.73-14.02Zm-59.21,16.94c.1.85.76.99,1.23,1.22,7.7,3.79,15.71,6.32,24.44,6,1.85-.07,3.01-.56,3.92-2.33,4-7.7,9.22-14.41,16.48-19.36.53-.36,1.47-.6,1.25-1.35-.26-.91-1.28-.57-1.96-.55-4.8.13-9.3,1.62-13.83,3.04-10.95,3.45-20.34,10.51-31.53,13.33Zm129.35.07c-4.4-1.13-8.01-2.3-11.42-4.05-6.8-3.5-13.64-6.96-20.91-9.39-4.57-1.53-9.19-3.01-14.1-2.98-.53,0-1.28-.25-1.49.52-.15.55.34.84.78,1.12,7.64,4.91,12.95,11.87,17.07,19.8.81,1.56,1.8,2.1,3.51,2.11,4.18.03,8.33-.15,12.38-1.27,4.72-1.31,9.35-2.87,14.18-5.85Zm-70.96-231.71c.12,4.48,1.21,8.8,2.97,12.97.21.49.18,1.3,1.01,1.17.67-.11.72-.82.91-1.36.85-2.45,1.29-5,1.38-7.57.1-2.93-.13-5.86-2.25-8.19-.76-.84-1.56-2.06-2.83-1.65-1.23.4-.78,1.85-1.03,2.84-.14.56-.11,1.15-.16,1.79Zm33.23,137.6c-5.21.05-9.63,1.86-13.76,4.51-.49.31-1.1.64-.86,1.34.19.57.84.39,1.3.48,5.01.98,9.81.28,14.29-2.1,1.3-.69,3.55-1.42,3.1-3.04-.44-1.57-2.76-.93-4.06-1.19Zm-4.9,28.32c-3.81.18-6.89,1.12-9.84,2.54-.68.33-1.47.81-.27,1.58,3.93,2.52,11.67,2.09,15.44-.88.44-.35,1.07-.65.92-1.34-.14-.66-.82-.82-1.36-.94-1.78-.39-3.58-.71-4.89-.96Zm-40.01,16.91c2.5.12,4.86-.29,7.13-1.16.55-.21,1.2-.45,1.2-1.1,0-.54-.66-.67-1.08-.89-2-1.03-4.13-1.79-6.34-2.12-2.76-.42-5.46-.09-7.93,1.37-.63.37-1.5.81-1.46,1.56.04.81,1.03.97,1.71,1.19,2.21.74,4.45,1.33,6.76,1.15Zm-1.06-26.34c.91,0,1.83.03,2.74-.01.38-.02.89-.04.98-.56.08-.47-.28-.78-.64-.98-4.93-2.65-9.99-4.94-15.74-4.98-.63,0-1.54-.15-1.78.55-.3.88.64,1.24,1.2,1.67,3.91,2.96,8.35,4.36,13.24,4.31Zm21.35-46.08c-.04-.59-.05-1.42-.17-2.23-.11-.77-.69-1.09-1.14-.39-1.8,2.84-3.88,5.6-3.69,9.24.03.65.16,1.42.88,1.63.74.22,1.2-.42,1.62-.92,1.7-2.05,2.42-4.46,2.5-7.33Z"/>
  <path class="cls-3" d="m1132.01,259.72c-.05,1.13-.13,1.7-.09,2.27.19,2.31,2.15,3.3,4.15,2.13,2.42-1.42,3.98-3.51,3.84-6.42-.14-2.77-1.49-4.99-4.16-6.02-2.93-1.13-5.77-.81-8.15,1.4-2.54,2.36-3.36,5.53-3.6,8.81-.68,9.21,2.87,17.51,7.43,25.46.25.43.95,1.5,1.21,1.92.69,1.12,1.15,2.52,2.32.93,7.95-10.75,13.02-22.47,12.02-36.16-.76-10.39-4.03-20.04-9.08-29.09-2.59-4.64-5.3-9.21-7.91-13.75-.95.12-1.13.75-1.33,1.24-4.53,11.44-9.93,22.54-13.43,34.38-5.5,18.55-6.8,37.14-.41,55.77,4.14,12.07,11.32,21.75,22.36,28.43,2.08,1.26,3.69,1.4,5.85-.09,5.17-3.56,10.85-5.8,17.35-5.1,1.52.16,2.93.64,4.32,1.2,1.63.67,1.92,1.48.47,2.91-6.39,6.27-13.97,7.68-22.37,5.55-1.55-.39-2.7-.32-3.91.66-4.75,3.8-9.56,7.52-15.26,9.85-1.22.5-1.19,1.16-.11,1.94,4.79,3.47,9.74,6.68,14.83,9.71,1.47.87,2.53.25,3.7-.38,5.64-3.04,11.46-4.06,17.62-1.68,2.66,1.03,3.03,3.27.73,4.95-4.19,3.06-8.89,4.03-13.97,2.64-.48-.13-1.03-.17-1.43-.43-4.17-2.76-7.33-1.03-10.43,2.04-1.94,1.92-4.24,3.48-6.44,5.13-.94.71-1.49,1.21-.45,2.33,6.25,6.71,7.75,15.04,8.03,23.79.06,1.9-.76,4.09.26,5.62,1.01,1.5,3.44.72,5.08,1.55,2.36,1.2,4.74.64,7.24.33,5.68-.7,11.04,1.14,16.33,2.92,8.32,2.8,15.98,7.04,23.79,10.94,3.55,1.77,7.29,2.74,11.28,2.56.5-.02,1.07-.15,1.21.51.18.84-.54,1.17-1.08,1.5-4.73,2.83-9.69,5.15-14.98,6.76-4.67,1.42-9.42,2.11-14.29,1.92-1.26-.05-2.34.06-1.52,1.74,5.05,10.38,7.44,21.7,11.48,32.44,1.3,3.46,2.4,7,5.71,9.36-3.27-.1-6.1-1.22-8.96-2.2-8.85-3.03-17.44-6.6-24.83-12.52-1.82-1.46-3.5-3.08-5.25-4.62-.73-.65-1.48-1.36-1.91.28-2.74,10.53-8.64,19.82-11.88,30.15-.78,2.48-1.11,5.04-1.41,7.6-.06.48-.04,1.11-.7,1.14-.6.03-.82-.53-.85-1.04-.87-11.82-7.89-21.45-11.49-32.3-.6-1.81-1.12-3.65-1.7-5.47-.35-1.09-.83-1.56-1.88-.49-10.36,10.52-23.67,15.43-37.39,19.53-.55.16-1.3.55-1.62-.01-.46-.81.42-1.11.96-1.42,2.56-1.48,3.14-4.22,4.09-6.65,4.15-10.6,6.59-21.78,11.26-32.2.22-.49.45-.97.69-1.45.7-1.35.77-2.05-1.16-1.94-10.2.59-19.3-2.91-28.01-7.71-1-.55-2.82-.87-2.47-2.36.32-1.36,1.9-.33,2.85-.4,5.58-.45,10.31-3.07,15.12-5.55,7.4-3.82,14.89-7.45,23-9.58,4.68-1.23,9.38-2.47,14.24-.91.69.22,1.44.15,2.12-.11,3.72-1.41,7.58-2.14,11.56-1.85,2.21.16,3.14-.5,3.16-2.88.09-7.56-.71-14.9-4.46-21.66-.25-.45-.53-.89-.82-1.32-2.62-3.88-3.08-4.04-7.41-2.58-5.71,1.93-11.32,1.58-16.8-.84-2.42-1.07-2.64-2.05-.77-3.85,4.65-4.49,10.05-4.11,15.62-2.21,1.02.35,2.09.72,2.94,1.36,2.44,1.83,4.4,1.13,6.62-1.12.99-1,2.01-1.99,3.12-2.85,5.1-3.97,7.78-4.15,2.38-6.49-4.39-1.9-8.39-4.59-11.75-8-1.67-1.69-3.01-1.96-5.04-1.58-8,1.5-15.22-.23-21.22-5.97-.69-.66-1.57-1.4-1.26-2.55.34-1.23,1.54-1.16,2.47-1.34,4.17-.82,8.11.31,11.96,1.68,3.22,1.15,6.34,2.56,9.15,4.54,1.11.78,2.13.67,3.29.22,5.76-2.22,10.56-5.95,15.41-9.62,1.13-.85.77-1.38-.28-2-15.44-8.97-23.19-23.08-26.66-40.04-3.29-16.1-1.33-31.8,3.32-47.34,3.51-11.75,8.84-22.78,13.41-34.11.89-2.2,1.17-4.06.03-6.35-2.08-4.19-3.28-8.7-3.77-13.39-.25-2.38.07-4.68.83-6.89.6-1.75,2.47-2.38,4.06-1.43,3.56,2.13,5.18,5.47,5.4,9.51.22,3.88-.31,7.71-1.84,11.25-1.17,2.71-.7,4.84.76,7.22,4.26,6.95,8.53,13.92,11.58,21.52,5.68,14.15,7.27,28.51,1.48,43.06-2.23,5.6-5.63,10.57-8.99,15.52-1.09,1.6-1.5,3.08-1.11,5.1.87,4.45.63,8.84-2.62,12.48-.92,1.03-1.9,2.31-3.57,1.72-1.6-.56-2.17-2.02-2.43-3.53-.36-2.07.38-3.97,1.28-5.76,1.01-2,2.06-4.02,3.38-5.82,1.2-1.63,1.04-2.96.07-4.55-3.32-5.49-6.54-11.03-8.13-17.33-1.64-6.49-2.48-12.96.61-19.28,2.11-4.32,6.8-6.38,11.57-5.19,3.87.97,6.6,4.83,6.41,9.04-.15,3.27-2.95,6.97-6.07,7.86-2.12.6-3.81-.19-4.89-2.04-.87-1.5-1.27-3.06,1.04-4.59Zm-15.69,175.96c0,8.41,1.7,16.53,4.38,24.45,2.78,8.19,7.36,15.66,9.75,24.01.1.35.47.85.75.87.66.06.62-.61.76-1.07.84-2.79,1.86-5.51,3.1-8.15,5.28-11.27,9.85-22.73,10.9-35.32.9-10.82-1.02-21.07-7.2-29.98-5.79-8.34-8.99-8.64-15.07-.06-5.3,7.48-7.47,16.07-7.37,25.24Zm20.33-31c3.74,3.74,6.1,8.21,8,12.91,4.02,9.98,4.3,20.27,2.06,30.67-.45,2.09-.1,3.52,1.46,5.08,8.64,8.69,19.41,13.57,30.75,17.46.45.16,1,.45,1.4.04.52-.54.03-1.07-.2-1.59-2.06-4.65-3.51-9.51-5.04-14.34-2.94-9.28-5.84-18.55-10.61-27.13-4.87-8.75-10.79-16.4-19.88-21.11-2.44-1.26-4.98-2.23-7.93-2Zm-10.64.12c-.69-.35-1.23-.41-1.72-.35-2.25.27-4.41,1.06-6.41,2.14-13.07,7.04-19.49,18.84-24.75,31.34-4.36,10.35-6.68,21.42-11,31.8-.15.37-.52.75-.14,1.12.42.41.97.18,1.41.02,10.46-3.75,20.52-8.12,28.98-15.68,3.04-2.72,3.66-5.18,2.94-9.07-1.72-9.19-1.42-18.39,1.98-27.29,1.96-5.15,4.44-10,8.73-14.02Zm-59.21,16.94c.1.85.76.99,1.23,1.22,7.7,3.79,15.71,6.32,24.44,6,1.85-.07,3.01-.56,3.92-2.33,4-7.7,9.22-14.41,16.48-19.36.53-.36,1.47-.6,1.25-1.35-.26-.91-1.28-.57-1.96-.55-4.8.13-9.3,1.62-13.83,3.04-10.95,3.45-20.34,10.51-31.53,13.33Zm129.35.07c-4.4-1.13-8.01-2.3-11.42-4.05-6.8-3.5-13.64-6.96-20.91-9.39-4.57-1.53-9.19-3.01-14.1-2.98-.53,0-1.28-.25-1.49.52-.15.55.34.84.78,1.12,7.64,4.91,12.95,11.87,17.07,19.8.81,1.56,1.8,2.1,3.51,2.11,4.18.03,8.33-.15,12.38-1.27,4.72-1.31,9.35-2.87,14.18-5.85Zm-70.96-231.71c.12,4.48,1.21,8.8,2.97,12.97.21.49.18,1.3,1.01,1.17.67-.11.72-.82.91-1.36.85-2.45,1.29-5,1.38-7.57.1-2.93-.13-5.86-2.25-8.19-.76-.84-1.56-2.06-2.83-1.65-1.23.4-.78,1.85-1.03,2.84-.14.56-.11,1.15-.16,1.79Zm33.23,137.6c-5.21.05-9.63,1.86-13.76,4.51-.49.31-1.1.64-.86,1.34.19.57.84.39,1.3.48,5.01.98,9.81.28,14.29-2.1,1.3-.69,3.55-1.42,3.1-3.04-.44-1.57-2.76-.93-4.06-1.19Zm-4.9,28.32c-3.81.18-6.89,1.12-9.84,2.54-.68.33-1.47.81-.27,1.58,3.93,2.52,11.67,2.09,15.44-.88.44-.35,1.07-.65.92-1.34-.14-.66-.82-.82-1.36-.94-1.78-.39-3.58-.71-4.89-.96Zm-40.01,16.91c2.5.12,4.86-.29,7.13-1.16.55-.21,1.2-.45,1.2-1.1,0-.54-.66-.67-1.08-.89-2-1.03-4.13-1.79-6.34-2.12-2.76-.42-5.46-.09-7.93,1.37-.63.37-1.5.81-1.46,1.56.04.81,1.03.97,1.71,1.19,2.21.74,4.45,1.33,6.76,1.15Zm-1.06-26.34c.91,0,1.83.03,2.74-.01.38-.02.89-.04.98-.56.08-.47-.28-.78-.64-.98-4.93-2.65-9.99-4.94-15.74-4.98-.63,0-1.54-.15-1.78.55-.3.88.64,1.24,1.2,1.67,3.91,2.96,8.35,4.36,13.24,4.31Zm21.35-46.08c-.04-.59-.05-1.42-.17-2.23-.11-.77-.69-1.09-1.14-.39-1.8,2.84-3.88,5.6-3.69,9.24.03.65.16,1.42.88,1.63.74.22,1.2-.42,1.62-.92,1.7-2.05,2.42-4.46,2.5-7.33Z"/>
</svg>