<?xml version="1.0" encoding="UTF-8"?>
<svg id="lotus" xmlns="http://www.w3.org/2000/svg" viewBox="0 0 345 630">
  <defs>
    <style>
      .cls-1, .cls-2, .cls-3, .cls-4, .cls-5, .cls-6, .cls-7, .cls-8, .cls-9, .cls-10, .cls-11, .cls-12, .cls-13, .cls-14, .cls-15, .cls-16, .cls-17, .cls-18, .cls-19, .cls-20, .cls-21, .cls-22, .cls-23, .cls-24, .cls-25, .cls-26, .cls-27, .cls-28, .cls-29, .cls-30, .cls-31, .cls-32, .cls-33, .cls-34, .cls-35, .cls-36, .cls-37, .cls-38, .cls-39, .cls-40, .cls-41, .cls-42, .cls-43, .cls-44, .cls-45, .cls-46, .cls-47, .cls-48, .cls-49, .cls-50, .cls-51, .cls-52, .cls-53, .cls-54, .cls-55, .cls-56, .cls-57, .cls-58, .cls-59, .cls-60, .cls-61, .cls-62 {
        stroke-width: 0px;
      }

      .cls-2 {
        fill: #f7f9fa;
      }

      .cls-3 {
        fill: #f7f9fb;
      }

      .cls-4 {
        fill: #f9faf7;
      }

      .cls-5 {
        fill: #f8fafb;
      }

      .cls-6 {
        fill: #471f05;
      }

      .cls-7 {
        fill: #471f06;
      }

      .cls-8 {
        fill: #748963;
      }

      .cls-9 {
        fill: #262220;
      }

      .cls-10 {
        fill: #7b4a1a;
      }

      .cls-11 {
        fill: #7c4a1a;
      }

      .cls-12 {
        fill: #476334;
      }

      .cls-13 {
        fill: #653606;
      }

      .cls-14 {
        fill: #639a5e;
      }

      .cls-15 {
        fill: #090807;
      }

      .cls-16 {
        fill: #1f1d1c;
      }

      .cls-17 {
        fill: #141312;
      }

      .cls-18 {
        fill: #131110;
      }

      .cls-19 {
        fill: #17120d;
      }

      .cls-20 {
        fill: #c9ad70;
      }

      .cls-21 {
        fill: #d8cba4;
      }

      .cls-22 {
        fill: #e2d2ab;
      }

      .cls-23 {
        fill: #e1d4ac;
      }

      .cls-24 {
        fill: #e1d1a7;
      }

      .cls-25 {
        fill: #e0d0a6;
      }

      .cls-26 {
        fill: #dfd2a8;
      }

      .cls-27 {
        fill: #bbd67e;
      }

      .cls-28 {
        fill: #b2cd6e;
      }

      .cls-29 {
        fill: #b0cc6e;
      }

      .cls-30 {
        fill: #b8d477;
      }

      .cls-31 {
        fill: #b5d372;
      }

      .cls-32 {
        fill: #9cccdf;
      }

      .cls-33 {
        fill: #c38f67;
      }

      .cls-34 {
        fill: #90c3d7;
      }

      .cls-35 {
        fill: #8ec6da;
      }

      .cls-36 {
        fill: #8fc7db;
      }

      .cls-37 {
        fill: #917e74;
      }

      .cls-38 {
        fill: #c297a0;
      }

      .cls-39 {
        fill: #7fa18d;
      }

      .cls-40 {
        fill: #8ac3cc;
      }

      .cls-41 {
        fill: #a1af4d;
      }

      .cls-42 {
        fill: #fdfdfd;
      }

      .cls-43 {
        fill: #80a490;
      }

      .cls-44 {
        fill: #80a28e;
      }

      .cls-45 {
        fill: #673606;
      }

      .cls-46 {
        fill: #81a591;
      }

      .cls-47 {
        fill: #81a490;
      }

      .cls-48 {
        fill: #f1f1f1;
      }

      .cls-49 {
        fill: #e8eef0;
      }

      .cls-50 {
        fill: #fcfbfa;
      }

      .cls-51 {
        fill: #fcfcfb;
      }

      .cls-52 {
        fill: #fcfcfd;
      }

      .cls-53 {
        fill: #fcfcfc;
      }

      .cls-54 {
        fill: #f5f4f4;
      }

      .cls-55 {
        fill: #e7e7e7;
      }

      .cls-56 {
        fill: #e6e6e6;
      }

      .cls-57 {
        fill: #030302;
      }

      .cls-58 {
        fill: #010101;
      }

      .cls-59 {
        fill: #060503;
      }

      .cls-60 {
        fill: #67a362;
      }

      .cls-61 {
        fill: #020202;
      }

      .cls-62 {
        fill: #68a664;
      }
    </style>
  </defs>
  <g id="ejeren">
    <path class="cls-1" d="m283.55,131.8c-1.1,2.84-.72,5.79-.4,8.66.68,6.05-.74,11.33-4.99,15.77-.5.52-.98,1.11-1.27,1.76-3.54,7.86-10.06,12.41-17.56,15.86-6.59,3.03-12.84,6.71-19.23,10.13-1.55.83-2.1,1.88-1.63,3.53.15.52.38,1.09.3,1.6-.95,5.61,2.37,8.96,6.22,12.1,1.47,1.2,2.8,2.59,4.15,3.94,8.81,8.76,6.67,22.11-4.41,27.61-.96.48-2.04.82-2.56,2.23,5.01,1.94,10.1,3.79,14.79,6.5,2.35,1.36,4.71,2.73,7.01,4.18,2.45,1.54,3.66,3.8,3.17,6.7-1.03,6.08-2.12,12.15-3.27,18.2-.28,1.5-1.48,2.52-2.65,3.34-1.8,1.26-1.14,2.12.28,2.95,2.5,1.47,5.02,2.9,7.53,4.35,5.91,3.42,8.41,8.56,7.59,15.29-.34,2.79-.72,5.6-1.43,8.31-1.04,3.97.16,6.89,3.41,9.21,9.22,6.61,18.41,13.26,27.62,19.89,1.02.73,2.23,1.26,1.56,2.98-.52,1.34.91,1.13,1.49,1.34,6.13,2.21,12.3,4.3,18.43,6.52.8.29,2.22.11,2.2,1.58-.02,1.49-1.42,1.19-2.23,1.45-8.24,2.66-16.51,5.25-25.27,8.02,2.08,1.02,3.75,1.83,5.62,2.75-1.48,1.01-3.01,1.05-4.49,1.22-3.33.38-6.69.59-10.01,1.09-3.48.53-6.08-.49-8.34-3.27-4.64-5.7-9.52-11.21-14.45-16.96-.9,1.24-1.68,2.31-2.65,3.65-2.75-4.47-3.67-9.36-5.19-14.01-.65-1.98-1.03-4.03-1.63-6.03-.96-3.22-2.81-5.92-5.36-8.05-3.69-3.09-7.4-6.35-11.73-8.35-6.7-3.1-7.49-8.95-5.48-15.67,1.13-3.79,3.83-6.5,7.14-9.45-9.48-1.05-14.15-8.5-20.48-13.58-1.68-1.35-2.01-3.15-1.45-5.16,1.15-4.12,1.85-8.31,2.42-12.55.52-3.84,2.7-6.86,5.34-9.58,1.88-1.94,3.73-3.93,5.9-6.22-9.96-1.76-16.32-8.61-23.43-14.23-1.01-.8-1.72-2.12-2.3-3.33-1.59-3.36-2.99-6.8-4.54-10.17-1.35-2.94-1.79-6.05-2.01-9.23-.17-2.52-1.23-4.52-3.77-5.49-2.42-.92-4.18.24-5.9,1.7-3.27,2.78-7.22,4.06-11.29,5.1-5.08,1.3-8.49,6.01-8.17,11.12.17,2.73,1.34,3.62,4.06,3.11,5.03-.93,13.17,1.9,14.89,6.38,1.93,5.05,2.33,10.66-1.09,15.64-10.07,14.66-20.15,29.31-30.27,43.94-5.05,7.31-4.76,11.21,1.71,17.29,21.04,19.78,42.41,39.2,64.09,58.27,2.56,2.25,2.53,2.3-.17,4.17-2.76,1.92-5.5,3.86-8.29,5.72-1.88,1.25-2.56,2.72-2.05,5.07,2.33,10.62,4.7,21.23,6.65,31.92,1.2,6.59,4.35,11.63,10.37,14.24,9.17,3.97,15.83,10.76,21.91,18.28,2.45,3.03,5.34,4.93,9.11,5.93,5.6,1.48,11.12,3.27,16.66,4.98,1.7.52,3.42,1.07,4.98,2.42-2.03.49-3.83.93-5.83,1.42,2.32,3.35,4.51,6.51,6.7,9.67-1.03.93-2.15.27-3.44.96,5.91,3.13,5.38,8.63,5.54,13.96.16,5.26,2.16,9.86,5.5,13.92,1.25,1.52,2.61,2.18,4.48,1.17,1.45-.77,3.67-1.8,4.49-.92,1.13,1.23.21,3.38-.43,5.11-3.3,8.88-3.07,17.35,2.8,25.26,2.4,3.23,5.04,6.38,6.33,10.8-1.87-.53-3.16-1.63-4.87-1.47-1.35.12-1.72.5-1.39,1.81.35,1.43,1.27,2.35,2.34,3.22,5.21,4.25,10.02,8.95,14.89,13.58.96.91,2.32,1.82.26,3.1-1.69,1.05-3.57,2.11-3.02,4.62.66,3.02,2.2,5.46,5.29,6.38,4.17,1.24,8.4,2.25,12.6,3.39,1.54.42,3.14.74,4.55,2.19-3.62,2.19-7.15,4.32-11.14,6.73,2.93,1.08,5.49,1.97,8,2.96.94.37,2.63.22,2.54,1.5-.08,1.15-1.74.99-2.72,1.31-1.98.65-3.98,1.26-6.01,1.7-2.62.57-3.91,1.93-3.67,4.74.15,1.78.18,3.61-.48,5.52-5.72-2.81-11.3-5.56-17.63-8.68,2.08,3.97,3.83,7.25,5.52,10.55.33.65,1.33,1.36.46,2.13-.63.56-1.32-.23-1.95-.48-1.4-.57-2.77-1.21-4.34-1.9,0,2.1,0,3.91,0,5.72-.01,3.19-.55,3.77-3.8,3.87-3.9.12-7.8.16-11.7.24-10.07.2-20.15.41-30.22.58-3.71.06-4.49-.86-4.27-4.49.11-1.72.07-3.45.08-5.18,0-.54-.06-1.07-.12-2.14-3.29,2.07-6.74,3.52-9.23,5.96-5.85,5.72-12.94,6.87-20.55,6.86-21.89-.04-43.75.89-65.63,1.21-1.41.02-2.92-.22-4.43.79,2.73,2.57,5.44,5.1,8.12,7.65.56.53,1.54,1.01,1.02,1.97-.52.97-1.48.34-2.21.22-5.55-.9-11.08-1.85-16.62-2.77-3.04-.5-3.53-.05-3.49,3.01.03,1.82-.09,3.64.03,5.45.17,2.84-1.44,3.37-3.78,3.21-6.15-.41-12.31-.76-18.46-1.16-7.42-.48-14.84-1.01-22.27-1.48-4-.25-4.72-.97-4.47-5.02.16-2.64.28-5.26-.15-8.21-3.76,1.96-7.27,4.11-10.5,6.62-4.57,3.55-9.63,5.22-15.41,5.07-14.89-.4-29.78-.36-44.68-.15-9.95.14-19.34-2.57-28.43-6.45-1.93-.82-2.55-2.16-2.12-4.12,3.55-16.37,3.94-32.96,3.56-49.61-.07-3.13,1-5.61,3.3-7.72,1.46-1.34,2.84-2.84,3.99-4.45,2.41-3.39,5.75-4.7,9.69-4.39,4.54.36,9.06.27,13.6.11,1.02-.04,1.97-.2,2.83-.81,2.86-2.01,6.08-2.66,9.52-2.67,3.82-.01,7.59-.54,11.75-1.2-1.18-1.58-2.23-2.98-3.28-4.38-.65-.88-1.19-1.78-1.38-2.91-.71-4.25.17-5.12,4.37-4.38,2.85.5,5.73,1.07,8.61,1.21,4.68.23,7.79-2.94,11.03-5.69.53-.45.91-1.09,1.56-1.89-2.72-.76-5.23-1.46-7.73-2.17-3.33-.95-5.3-4.08-4.75-7.5.36-2.24,1.86-2.86,5.37-2.45,2.79.33,5.6.52,8.4.73,1.92.14,3.54-.59,4.95-1.86,3.82-3.43,3.53-6.59-.84-9.33-.83-.52-1.64-1.08-2.55-1.69,2.13-2.66,5.06-3.96,7.87-5.35,3.85-1.9,6.26-4.55,6.69-9.12.22-2.34-.18-2.94-2.35-2.67-.8.1-1.61.02-2.43.02.25-4.77.59-9.27,3.82-13.08,1.68-1.98,3.86-2.92,5.99-4.02,5.53-2.86,11.09-5.67,16.69-8.39,1.11-.54,1.38-1.17,1.38-2.29-.03-15.82-.03-31.64,0-47.47,0-1.06-.32-1.35-1.32-1.78-1.99-.87-3.49-2.55-5.09-4.04-5.39-5.02-10.38-10.33-14.69-16.38-6.24-8.75-7.51-17.89-5.44-28.37,2.41-12.21,8.48-22.44,14.89-32.67,3.32-5.3,6.49-10.7,9.82-16,1.99-3.16,2.39-6.24.86-9.78-3.83-8.85-5.74-18.12-5.48-27.81.09-3.29-.46-3.61-3.54-2.3-4.92,2.09-9.79,4.27-14.7,6.37-5.96,2.56-11.96,1.39-17.89-.06-1.78-.43-2.64-2.25-2.6-4.1.15-6.63.35-13.26.67-19.88.09-1.93,1.2-3.59,2.25-5.19,4.37-6.68,8.68-13.4,13.14-20.03,1.42-2.12,2.07-4.16,1.12-6.62-.72-1.87-.14-3.62.95-5.14,1.85-2.58,3.85-5.05,5.71-7.63,1.01-1.4,2.5-1.82,4-2.04,2.21-.32,2.6-1.59,2.26-3.48-.3-1.66-1.16-3.02-2.05-4.4-3.28-5.11-6.54-10.24-9.8-15.37-.39-.61-1.05-1.25-1.05-1.88-.04-6.58-5.88-9.41-9.02-13.94-3.52-5.06-7.37-9.93-11.42-14.58-5.01-5.75-6.5-12.51-7.11-19.82-.73-8.75.47-17.01,4.96-24.65,1.56-2.66,1.07-4.71-1.24-6.66-2.7-2.29-5.24-4.75-7.85-7.14.17-.21.38-.35.65-.4,3.08,1.09,5.15,3.6,7.62,5.53,4.53,3.54,3.31,3.69,6.66-.85,1.99-2.7,3.9-5.46,5.87-8.18,1.31-1.81,3.04-2.79,5.37-2.38.88,1.15-.23,1.62-.82,2.17-8.69,8.23-14.68,18.12-18.2,29.55-.46,1.49-.73,2.99-.71,4.55.07,5.81.68,11.59,1.22,17.37.14,1.48.76,2.79,1.65,3.98,5.88,7.85,12.08,15.46,18.22,23.11.17.21.39.38,1.02.56.99-3.55,1.41-7.21,2-10.82,1.85-11.16,1.86-22.41,1.75-33.68-.02-2.21-1.01-3.72-2.61-5.12-1.63-1.42-1.47-2.03.58-2.64,1.2-.35,2.02-.87,1.98-2.18-.1-3.7,2.2-5.86,5.01-7.54,4.75-2.85,9.58-5.56,14.32-8.43,9.09-5.5,18.12-11.09,27.13-16.72,5.81-3.63,10.31-8.89,15.92-12.76.82-.57,1.52-1.3,2.47-1.67.57-.2,1.13-.23,1.69.02.26.15.42.37.48.66-.16,1.94-1.79,3.06-2.6,4.64-.52,1.01-1.47,1.79-1.64,3.31,7.63-1.06,14.68-4.31,22.34-4.07,1.1.11,2.1.56,3.03,1.12,11.47,6.87,22.99,13.67,34.35,20.72.69.43,1.37.89,1.65,1.73,0,.48-.28.74-.72.85-1.36.02-2.39-.79-3.47-1.43-9.15-5.4-18.24-10.91-27.3-16.46-5.56-3.41-11.21-4.45-17.42-2.36-2.72.92-5.6,1.39-8.23,2.63.25.89.99.88,1.53,1.13,18.35,8.57,36.93,16.62,55.18,25.38,1.8.86,3.59,1.77,5.25,2.88,2.59,1.73,5.23,2.9,8.43,1.68.83-.32,1.88-.33,2.47.58.53.83,0,1.64-.52,2.23-1.71,1.94-1.04,3.34.75,4.76,3.49,2.76,6.69,5.86,10.25,8.54,7.05,5.31,7.31,16.24.38,21.9-3.17,2.59-5.38,5.46-6.16,9.57-.58,3.06-3.03,5.17-5.11,7.26-8.44,8.51-17.29,16.59-26.1,24.71-2,1.84-4.03,3.65-5.8,6.23,4.23.23,6.81,2.4,8.21,6.11.29.78,1.04,1.4,1.87,1.44,4.63.23,9.46,1.52,13-3.13,7.69-10.08,18.69-15.64,29.55-21.35,2.97-1.56,6.03-2.96,9.01-4.53,5.01-2.64,9.16-6.19,11.75-11.36.49-.98,1.05-1.93,1.78-2.74,3.83-4.2,5.54-9.03,4.94-14.75-.35-3.32.39-6.72-.7-10.01-.18-.54.07-1.08.71-1.29,1.45.32,2.97.56,3.28,2.42,0,.01-.13.07-.2.07-.09,0-.18-.02-.27-.03Z"/>
    <path class="cls-37" d="m283.55,131.8c-.41-1.39-1.9-1.45-2.77-2.27-3.9-1.02-6.85-3.79-10.26-5.7-2.11-1.18-4.12-2.53-6.24-3.7-12.35-7.56-24.81-14.94-37.22-22.41-2.71-1.64-5.37-3.37-8.1-4.97-.78-.45-1.57-.93-1.95-1.82-12.29-7.85-24.87-15.2-37.39-22.67-.37-.22-.85-.27-1.28-.4-6.35-1.01-12.65-2.25-18.62-4.76h.03c-3.67,0-7.33.1-10.99.39-.29.09-.58.14-.88.18-4.83,0-9.09,2.16-13.5,3.68-5.46,1.88-10.95,3.67-16.37,5.67-7.99,2.44-15.76,5.53-23.66,8.24-2.48.85-4.93,1.82-7.6,1.92-2.54.45-4.32,1.83-5.73,4.04-2.03,3.19-4.49,6.12-6.52,9.31-1.18,1.85-1.95,1.7-3.45.38-3.05-2.67-6.29-5.13-9.45-7.67-1.66-.41-2.43-2.07-3.9-2.74-1.24-1.43-.14-2.37.83-3.09,5.72-4.24,10.92-9.16,16.98-12.97,2.14-1.35,4.01-3.12,6-4.7,6.29-4.38,12.31-9.13,18.42-13.75.98-.74,2.32-1.16,2.6-2.61,3.56-3.66,5.4-8.43,8.17-12.6.94-1.41,1.48-3.08,2.73-4.29,2.86-3.62,5.28-7.54,8-11.26,1.33-1.82,2.46-3.82,4.47-5.03,4.45-.24,8.78.84,13.18,1.23,7.18.65,14.33,1.64,21.49,2.44,8.89,1,17.79,1.93,26.69,2.94,8.62.98,17.25,1.93,25.85,3.06,4.95.66,10.02.6,14.83,2.22,2.73.7,5.66-.08,8.33,1.1.29-.02.46.09.4.42,1.18,5.33,1.25,10.76,1.62,16.17.71,10.19,1.08,20.41,2.09,30.59.06.64.16,1.34-.4,1.77-.77.6-1.35-.12-1.93-.48-6.55-4.04-13.04-8.18-19.52-12.32,6.01,3.94,12.16,7.66,18.17,11.61,2.15,1.41,4.89,1.9,6.52,4.12,4.94,3.93,9.88,7.86,14.81,11.8,9.95,7.97,19.91,15.95,29.84,23.95,1.25,1.01,2.58,1.97,3.32,3.48,1.35,3.34,1.04,6.83.98,10.3-.18,1.77-.37,3.53-.59,5.68-2.83-1.52-5.61-2.65-8.03-4.48Z"/>
    <path class="cls-18" d="m243.22,81.07c-9.28-4.89-17.86-10.92-26.75-16.44-.17-.11-.22-.42,0-1.1,7.66,4.83,15.33,9.65,23.26,14.65-.38-7.04-.72-13.71-1.11-20.37-.21-3.62-.69-7.24-.7-10.86-.02-5.82-1.1-11.54-1.27-17.34,1,.74,1.03,1.84,1.1,2.92.88,12.75,1.87,25.5,2.59,38.27.21,3.71.98,7.11,2.88,10.28Z"/>
    <path class="cls-15" d="m125.89,16.19c-3.88,5.35-7.77,10.7-11.66,16.05-.17.23-.37.74-.81.25,2.65-4.57,5.32-9.14,7.95-13.72,1.01-1.76,2.26-3.03,4.52-2.57Z"/>
    <path class="cls-16" d="m102.52,49.38c1.07.79.07,1.29-.36,1.61-6.51,4.91-13.06,9.78-19.62,14.63-.24.18-.69.09-1.04.13,6.72-5.83,14-10.92,21.02-16.37Z"/>
    <path class="cls-17" d="m292.16,130.6c-.48-3.42-.96-6.83-.98-10.3,2.48,3.23,1.86,6.75.98,10.3Z"/>
    <path class="cls-37" d="m168.25,613.09c-5.87-.19-10.96-1.33-16.04-2.5-3.82-.88-7.35-2.41-10.78-4.34-5.85-3.29-11.87-6.27-18.21-8.54-.69-.25-1.52-1.05-2.19-.09-.72,1.03.46,1.41.95,1.92,4.63,4.72,9.29,9.41,14.04,14.19-7.14.07-13.55-1.1-18.57-6.82-4.07-4.64-8.64-8.83-13.01-13.19-.45-.45-.71-1.5-1.66-.87-.9.59-.14,1.3.07,1.89,1.08,3.12,2.22,6.22,2.86,9.71-3.75-2.64-7.51-5.27-11.26-7.91-.67-.47-1.39-.89-1.98-1.44-1.63-1.51-2.74-1.37-3.33.9-.09.34-.33.64-.55,1.06-5.08-3.23-10.2-6.32-15.14-9.7-2.56-1.75-3.9-4.5-4.22-7.64-.32-3.16-.85-6.29-1.53-9.39-.2-.91-.46-1.65-1.34-2.51-.7,2.85-.63,5.58-1.76,8.63-2.84-5.13-4.28-10.1-5.13-15.27-.45-2.77-.79-5.57-1.14-8.36-.31-2.51-1.49-4.16-4.07-4.81-3.08-.77-6.1-1.72-9.15-2.61-1.29-.38-2.6-.73-3.58-1.98,1.54-1.01,3.2-.66,4.76-.75,4.17-.24,8.34-.32,12.51-.59,3.29-.21,3.93-1.56,2.03-4.24-.89-1.25-1.99-2.36-3.01-3.52-1.26-1.44-1.91-3.05-1.49-5.37,11.46,4.84,20.17.65,27.51-8.5-4.05-1.35-7.96-2.66-11.88-3.96-1.3-.43-2.22-1.11-2.26-2.68-.05-2.37.76-2.99,3.09-2.48,3.61.78,7.19,1.55,10.92.33,4.93-1.61,7-5.82,8.06-10.09.48-1.93-1.22-2.54-2.66-3.22-.85-.4-2.23-.48-2.28-1.58-.04-.89,1.22-1.21,1.95-1.69,1.36-.9,2.8-1.67,4.23-2.45,5.61-3.07,7-8.15,6.76-14.05-.05-1.23-.71-1.68-1.74-1.46-2.98.64-2.91-1.2-2.53-3.12.78-3.93,2.69-7.14,6.46-8.89,5.27-2.45,10.29-5.37,15.31-8.29,1.4-.81,2.66-1.07,3.97.06,1.08.93,2.4.69,3.65.71,7.44.14,14.89-.22,22.33.32,4.8.35,8.94,1.95,12.58,5.15,8.43,7.41,14.87,16.11,18,27.04.16.56.86,1.18.17,1.71-.55.42-1.17-.13-1.77-.29-1.42-.38-2.92-2.14-4.2-.92-1.02.97.21,2.73.51,4.1,1.02,4.79,2.21,9.54,3.34,14.3.14.61.43,1.21-.06,1.98-1.31-.46-2.65-.93-4.63-1.63.56,7.33,1.09,14.37,1.64,21.54-2.32-.6-4.1-1.89-6.06-2.78-.79-.36-1.91-.8-2.51-.1-.64.74.34,1.47.8,2.09,1.03,1.38,2.21,2.65,3.24,4.03,2.97,3.98,4.1,8.52,3.4,13.38-.98,6.79-.3,13.03,5.58,18.44-3.93-.47-6.94-1.56-10-2.4-.7-.19-1.39-.57-2.08-.59-.84-.02-2-.52-2.44.54-.41.99.74,1.37,1.33,1.79,7.29,5.25,9.6,12.76,9.98,21.73-2.91-2.02-4.88-4.38-7.11-6.44-.63-.58-1.2-1.73-2.18-1.29-1.16.54-.1,1.6-.11,2.42,0,.72.09,1.47.32,2.15,2.09,6.11.67,11.45-3.04,16.58-2.87,3.97-2.62,4.3,1.15,7.58,1.37,1.19,2.67,2.46,3.99,3.71.26.24.47.54,1.18,1.37Z"/>
    <path class="cls-37" d="m246.83,556.58c.59,4.38,2.07,7.77,3.21,11.26.45,1.37,1.09,2.68,1.59,4.04,1.87,5.04.83,7.49-4.58,10.12.69-11.43-6.47-19.76-10.63-29.26-.29.05-.57.11-.86.16.54,4.56,1.09,9.13,1.64,13.73-5.83-1.79-11.44-8.86-12.06-14.75-.38-3.67-1.08-7.32-1.75-10.96-.49-2.66-2.04-4.52-4.5-5.75-4.7-2.35-9.32-4.84-13.97-7.28-.14-.07-.22-.26-.5-.59,1.67-.73,3.27-1.43,5.23-2.28-2.19-1.06-4.02-1.94-6.14-2.97,3.47-3.09,6.63-6.35,10.24-9,5.09-3.73,7.9-8.39,8.33-14.72.2-2.94,1.15-5.83,1.84-9.13-2.41.52-4.55.98-6.91,1.49v-26.97c-2.42,1.12-3.66,3.28-5.96,4.56.58-4.82,1.08-9.37,1.69-13.9.19-1.43,1.18-2.44,2.37-3.18,4.23-2.64,8.53-5.15,13.02-7.34,3.14-1.53,6.58-1.21,9.86-1.48,6.5-.55,13.03-.91,19.58-.79,7.74.15,14.81,3.03,22.06,5.2.47.14,1.28.31,1.14.97-.71,3.35,1.98,5.04,3.46,7.32.33.51.55,1.1.88,1.77-2.53.39-4.68-1.04-7.36-.89,2.19,2.18,4.27,4.01,6.65,5.48,3.63,2.25,5.32,5.4,5.25,9.74-.11,6.58,1.41,12.73,5.56,18.06,2.89,3.71,3.01,3.79,7.4,2.05.4-.16.82-.29,1.53-.53-.87,4.47-1.95,8.61-2.12,12.96-.28,7.55,1.85,14.11,6.98,19.65.94,1.01,1.27,1.5-.22,2.33-3,1.67-3.47,5.32-.79,7.66,5.63,4.93,11.08,10.09,17.06,14.61-1.33,1.4-4.83.54-4.57,3.33.36,3.84,1.26,7.76,4.82,10.22,1.98,1.36,4.27,1.92,6.58,2.38,3.17.63,6.24,1.6,9.66,2.81-3.73,2.42-7.11,4.61-10.93,7.08,3.35,1.38,6.3,2.6,9.33,3.85-1.05,1.18-2.47,1.05-3.65,1.27-3.36.61-5.18,2.46-5.95,5.79-.77,3.36-.94,3.31-4.12,1.61-4.07-2.18-8.16-4.33-12.22-6.54-1.36-.74-2.75-1.3-4.7-1.49,2.62,4.49,5.12,8.76,7.62,13.04-.13.14-.25.28-.38.42-3.82-1.95-7.64-3.9-11.45-5.86-4.11-2.11-8.24-4.16-12.3-6.36-1.4-.76-2.12-.84-2.69.89-.71,2.12-1.7,4.15-2.68,6.49-1.29-1.03-1.62-2.34-2.17-3.49-.66-1.39-1.16-2.86-2.26-4-.31-.32-.58-.81-1.1-.6-.69.28-.41.86-.3,1.38.15.7.25,1.42.39,2.12.18.94,1.09,2.11.14,2.75-.78.53-1.84-.42-2.75-.79-5.11-2.06-10.22-4.13-15.33-6.19-4.32-1.74-7.37-4.75-9.42-8.94-1.63-3.33-3.56-6.52-5.31-9.8-.48-.89-1.03-1.66-2.46-2.76Z"/>
    <path class="cls-33" d="m96.16,119.49c1.09,1.55,1.34,3.15,1.36,4.59.05,4.73,2.5,7.99,5.9,10.82,1.04.87,2.25,1.69,2.94,2.81,2.96,4.76,7.39,4.89,12.21,4.27,5.92-.75,11.85-1.38,17.79-2,1.45-.15,3.45.03,3.91-1.24.57-1.55-1.45-2.25-2.54-3.06-6.94-5.1-13.8-10.32-20.97-15.11-4.43-2.96-9.45-3.92-14.45-5.1-.97-.23-1.96-.37-2.9-.66-1.74-.53-3.67-.99-3.92-3.22-.26-2.35.16-4.65,2.24-6.07,4.18-2.87,8.51-5.52,13.13-7.63,2.33-1.07,4.48-.29,6.47.82,1.81,1.01,3.45,2.33,5.16,3.52,1.23.86,3.08,1.21,3.72.26.74-1.1-.4-2.43-1.74-3.19-2.67-1.51-5.26-3.14-7.89-4.72.53-1.18,1.52-1.53,2.34-2.05,7.59-4.79,15.25-9.45,22.76-14.37,6.47-4.24,12.79-4.69,19.57-.66,6.07,3.6,12.83,5.84,19.2,8.85,1.22.58,2.43,1.2,4,1.98-2.28,1.94-4.41,3.68-6.45,5.52-1.35,1.21-2.63,2.5-3.84,3.85-1.03,1.15-1.24,2.74-.06,3.65,1.01.78,2.12-.27,2.89-1.18,2.28-2.71,4.67-5.33,6.77-8.18,1.64-2.22,3.35-2.68,5.83-1.53,9.67,4.5,19.39,8.91,29.08,13.36.08.04.17.06.25.1,1.38.63,2.87,1.78,2.8,3.05-.07,1.3-2.03,1.51-3.31,1.84-8.56,2.21-17.14,4.39-25.71,6.55-1.88.47-3.6,1.22-5,2.57-6.74,6.48-13.47,12.98-20.19,19.49-.44.42-.71,1.01-1.24,1.78,3.05.5,5.9.25,8.74.27,5.17.03,10.32-.1,15.5.31,8.59.68,15.81-2.99,22.48-8.05,4.66-3.54,8.08-7.97,10.56-13.27,3.34-7.15,4.27-7.3,10.25-2.23,3.25,2.76,6.34,5.72,9.73,8.3,2.57,1.96,3.28,4.3,2.99,7.34-.43,4.55-1.94,8.43-5.91,11.06-1.72,1.14-2.88,2.72-3.54,4.69-1.99,5.92-5.69,10.65-10.18,14.89-10.3,9.72-20.55,19.5-30.78,29.29-1.33,1.27-2.75,2.28-4.49,2.95-6.66,2.54-13.3,5.14-20.01,7.56-5.5,1.98-10.51,1.39-15.24-1.65-7.24-4.66-14.35-9.52-21.5-14.32-6.25-4.2-12.45-8.46-18.72-12.62-2.65-1.76-3.63-4.09-3.92-7.26-.51-5.51.03-11.06-.96-16.53-.53-2.93-2.31-4.84-4.94-6.04-1.64-.75-3.25-1.63-4.96-2.17-4.41-1.39-5.99-4.5-5.96-8.88.03-4.36.13-8.7.75-13.34Z"/>
    <path class="cls-56" d="m215.3,468.3c0,5.63-.12,11.27.05,16.9.08,2.63-.71,4.53-2.81,6.06-1.57,1.14-2.99,2.49-4.48,3.75.11.23.23.45.34.68,4.21-1.31,8.43-2.62,13.06-4.06-1.46,7.33-1.34,14.85-8.32,19.67-3.35,2.31-6.33,5.15-9.44,7.81-3.55,3.04-3.53,3.06.22,5.73-.5,1.13-1.91.84-2.59,1.65-.85,1.02.14,1.86.33,2.92-7.75.87-15.49,1.74-23.22,2.61-1.94.22-3.2-.49-3.41-2.54-.55-5.51-1.06-11.01-1.6-16.66,1.19-.1,1.95.81,2.92,1.08.84.23,1.72.94,2.51.18.72-.69.53-1.66.27-2.57-1.1-3.74-2.22-7.47-3.25-11.22-.59-2.15-1.01-4.35-1.62-7.02,2.46.98,4.49,1.79,6.85,2.73-2.02-13.24-8.01-23.95-18.09-33,1.85,0,3.07.02,4.29-.01.44-.01,1.04-.12,1.06-.63.01-.37-.32-.89-.65-1.09-.69-.41-1.45-.73-2.22-.96-3.82-1.13-7.63-2.31-11.48-3.31-2.66-.69-3.83-2.13-3.39-4.91,1.05-6.73-.58-13.04-3.63-18.93-3.64-7.03-3.17-13.62.63-20.43,5.26-9.41,10.28-18.95,15.25-28.52,1.21-2.34,2.67-3.32,5.31-3.22,4.88.17,9.78.05,14.99.05-.44.3-.6.5-.79.52-4.79.65-5.03,1.14-1.98,5.06,5.63,7.24,11.32,14.43,17.02,21.62,8.47,10.69,17.77,20.63,27.12,30.54,2.77,2.93,2.62,3.59-.97,5.52-3.11,1.67-6.19,3.42-9.25,5.17-1.99,1.13-3.23,2.73-3.55,5.14-.7,5.31-1.61,10.58-2.36,15.88-.15,1.05-.16,2.16.46,3.53,1.92-2.2,3.75-4.31,5.58-6.41.28.24.56.47.84.71Z"/>
    <path class="cls-12" d="m162.29,238.82c-1.03,1.19-1.44,2.33-1.38,3.44.28,5.49-2.27,9.75-5.67,13.68-10.79,12.49-20.4,25.89-30.36,39.02-.69.9-1.26,2.51-2.31,2.37-1.06-.15-1.17-1.84-1.62-2.91-4.75-11.26-5.84-23.08-5.32-35.12.19-4.37,1.62-8.13,5.02-11.3,6.25-5.82,12.17-11.99,18.22-18.02.38-.38.68-.83,1.18-1.44-1.61-.32-2.48.55-3.34,1.39-6.24,6.08-12.49,12.16-18.71,18.27-2.22,2.18-3.47,4.76-3.51,7.97-.05,3.97-1.77,6.86-5.71,8.32-2.97,1.1-5.9,2.34-8.7,3.81-6.28,3.29-13.01,2.77-19.69,2.53-2.35-.08-3.54-1.43-3.59-4.13-.12-5.82.66-11.59.62-17.4,0-1.04.35-2,.87-2.83,5.12-8.13,10.28-16.22,15.43-24.33.2-.31.37-.63.85-1.43,1.7,4.51,5.04,5.28,8.72,5.45,2.21.1,2.93,1.61,2.44,3.38-2.52,9.11-3.72,18.6-7.7,27.22,2.17-.47,3.43-1.24,3.66-3.59.51-5.13,3.78-8.29,7.3-11.34,7.66-6.65,15.15-13.54,23.58-19.2,8.76-5.89,18.27-7.54,28.3-3.53,2.91,1.17,2.81,1.43.53,3.71-.4.4-.66.85-.64,1.45.71.53,1.17.03,1.63-.41,2.55-2.46,5.78-3.32,9.14-3.64,1.67-.16,2.98-.66,4-1.94,1.62-2.04,3.73-2.61,6.27-2.5,5.76.23,11.48,3.73,12.56,8.23.93,3.9.56,7.71-1.84,11.17-9.69,14.01-19.41,27.99-28.97,42.09-4.47,6.59-8.47,13.5-12.89,20.14-5.23,7.86-11.8,14.67-17.78,21.95-5.35,6.51-10.9,12.84-16.19,19.39-3.54,4.39-4.73,4.87-10.08,2.79-.67-.26-1.36-.49-2.05-.71-4.99-1.62-4.23-1.34-1.94-5,8.71-13.91,16.42-28.43,25.38-42.18,7.73-11.86,16.96-22.58,25.63-33.73,2.06-2.64,4.3-5.15,6.54-7.63,2.62-2.9,2.41-6.46,2.5-9.95.03-1.04-.21-2.08-.37-3.49Z"/>
    <path class="cls-11" d="m264.76,119.77c5.58,2.85,10.76,6.37,16.01,9.76.83,4.13.33,8.34.67,12.5.34,4.17-.54,7.96-3.14,11.21-2.28,2.85-3.91,6.1-6.02,9.02-2.93,4.06-7.1,6.67-11.55,8.85-7.74,3.78-15.38,7.72-22.72,12.27-5.57,3.45-10.01,8.06-14.24,12.92-2.08,2.4-4.44,3.54-7.63,3.18-1.61-.18-3.27-.03-4.9-.03-1.51,0-2.74-.63-3.18-2.08-1.32-4.34-4.32-6-9.02-5.49,1.93-3.24,4.48-5.41,6.86-7.68,8.41-8,16.97-15.86,25.33-23.92,2.97-2.86,5.89-5.86,6.44-10.38.35-2.87,2.37-4.95,4.7-6.41,4.59-2.86,6.59-10.28,5.54-15.55-.52-2.59-2.5-4.43-4.6-5.89-4.03-2.81-7.47-6.32-11.32-9.33-1.95-1.53-2.51-2.93-.44-4.76.52-.46.8-1.17,1.25-1.85-1.08-.92-2.07-.43-3.03-.03-2.12.9-4.13.41-5.94-.7-12.51-7.61-26.27-12.6-39.41-18.88-8.17-3.9-16.47-7.52-24.71-11.27-.57-.26-1.2-.47-1.63-1.51,7.21-1.67,13.99-5.76,21.69-3.44,4.78,1.44,8.85,4.52,13.12,7.07,7.85,4.69,15.7,9.39,23.54,14.08,2.95.98,5.4,2.88,8.01,4.45,13.07,7.87,26.14,15.74,39.31,23.46.32.18.64.33.99.44Z"/>
    <path class="cls-45" d="m147.82,63.01c.13-.07.26-.07.39-.02,3.33-.34,6.66-.44,9.98.07-17.62,15.93-38.39,27.14-58.63,39.13-3.3,1.96-6.21,4.01-5.84,8.6.24,2.99-2.53,1.37-3.85,2.07,0,.14-.05.43.03.47,3.73,1.94,3.92,5.26,3.98,8.98.22,14.44-.77,28.74-3.93,42.85-.05.24-.19.47-.45,1.12-3.04-3.73-5.96-7.23-8.79-10.79-3.44-4.32-6.65-8.83-10.27-12.99-2.83-3.24-2.93-7.13-3.28-10.93-.27-2.87-.5-5.77-.61-8.66-.41-10.94,4.82-19.74,10.65-28.43,2.79-4.16,6.29-7.59,9.53-11.3,7.62-2.7,15.23-5.42,22.85-8.1,2.71-.95,5.45-1.81,8.18-2.71,3.3-.14,6.13-1.85,9.2-2.77,6.98-2.09,13.84-4.6,20.85-6.59Z"/>
    <path class="cls-33" d="m122.15,441.73c-.36-13.62-.63-27.23-.56-40.86.04-8.09,1.14-16.07,2.13-24.07.13-1.04.2-1.5,1.59-1.31,12,1.6,24.03,3.05,36.04,4.58,2.37.3.91,1.72.49,2.52-4.49,8.68-9.05,17.32-13.57,25.98-1.67,3.21-3.21,6.49-4.95,9.66-2.17,3.95-2.02,7.87.17,11.63,3.98,6.82,5.18,14.2,4.9,21.94-.11,3.07-.89,3.92-3.86,3.94-6.08.05-12.17.07-18.26.04-3.33-.02-4.11-.87-4.12-4.25-.01-3.27,0-6.54,0-9.82Z"/>
    <path class="cls-33" d="m256.81,439.49c-6.78.52-13.57.92-20.34,1.6-4.59.46-8.1-.66-11.2-4.43-13.48-16.4-27.2-32.61-40.84-48.88-1.28-1.52-2.54-3.05-4.03-4.83,3.75-1.08,7.44-1.5,11.02-1.59,6.29-.17,11.52-2.5,16.43-6.13,2.62-1.93,5.47-3.53,8.44-5.43,1.66,5.81,2.82,11.53,3.96,17.25,1.27,6.4,2.49,12.81,3.74,19.21,1.05,5.35,3.99,9.16,8.96,11.54,4.48,2.14,9.11,4.12,12.44,8.06,3.09,1.77,4.78,4.92,7.15,7.4,1.05,1.09,2.02,2.31,3.06,3.44.74.79,1.63,1.52,1.19,2.82Z"/>
    <path class="cls-56" d="m157.09,210.82c-2.43,3.71-6,5.56-10.3,5.55-7.5-.02-13.6,2.99-19.14,7.78-6.52,5.63-13.22,11.06-19.87,16.55-.74.61-1.45,1.38-2.76,1.37.95-6.95,1.39-14.04,6.48-19.44,2.73-2.89,5.8-5.47,8.58-8.35,1.41-1.46,2.35-2.75.57-4.61-1.03-1.08-.82-2.57-.58-3.91.34-1.86.7-3.74,1.28-5.54,1.26-3.92.56-7.45-1.62-10.85-2.3-3.58-4.53-7.2-6.73-10.84-.73-1.2-2.02-2.78-.87-3.9,1.15-1.12,2.67.17,3.86.97,11.66,7.82,23.31,15.65,34.97,23.47.98.66,1.93,1.36,2.97,1.91,3.13,1.68,4.72,4.14,4.11,7.78-.12.77.13,1.72-.95,2.05Z"/>
    <path class="cls-11" d="m324.89,346.67c-9.16,2.89-18.33,5.78-27.78,8.76.94,1.01,1.61,1.71,2.4,2.56-2.87.89-5.73.74-8.56.75-1.71,0-2.85-1.08-3.88-2.25-4.84-5.53-9.68-11.06-14.47-16.63-1.45-1.69-2.9-2.84-5.07-.83-1.4-5.08-2.69-9.89-4.07-14.67-.55-1.92-.15-3.34,1.6-4.39,2.65-1.59,5.25-3.24,7.89-4.85,1.38-.84,2.72-.78,4.05.19,8.75,6.33,17.51,12.64,26.27,18.95.89.64,1.41,1.26.15,2.01-2.57,1.54-.62,1.87.64,2.31,6.24,2.19,12.49,4.35,18.74,6.53.67.24,1.33.53,1.99.79.03.26.07.52.1.78Z"/>
    <path class="cls-33" d="m111.22,169.93c0-.05.15.69-.14,1.19-2.14,3.76-.68,6.94,1.43,10.1,2.11,3.17,4.1,6.4,6.14,9.62,2.03,3.21,2.05,6.66,1.13,10.19-.23.87-.48,1.75-.87,2.56-.81,1.71-.34,4.67-2.56,4.94-2.99.36-6.15-.27-8.78-2.11-1.59-1.11-1.71-2.76-.92-4.37,1.47-2.97.74-5.58-.95-8.16-2.69-4.09-5.02-8.45-8.06-12.26-3.7-4.64-4.21-9.72-3.79-15.29.51-6.77.76-13.57,1.01-20.36.21-5.9.15-5.92,5.16-3.29,2.32,1.22,4.59,2.54,6.92,3.75,1.6.83,2.48,2.13,2.63,3.86.56,6.31,1.06,12.63,1.64,19.63Z"/>
    <path class="cls-24" d="m141.78,322.14c2.99-1.18,6.07-2.06,9.22-2.72,2.7.85,5.36,1.85,8.21,2.09-.02,2.63,1.55,5.03,1.1,7.73-.07.27-.2.52-.37.75-.65.62-1.42.89-2.31.86-1.44-.17-2.38-1.22-3.48-2-2.14-1.53-4.41-2.84-6.91-3.72-2.24-.79-2.75-.5-3.07,1.78-.75,5.51.42,7.86,5.3,10.57.32.18.59.41.76.75.22.75-.08,1.42-.29,2.1-1.89,6.12-2.52,12.18.94,18.02.28.47.44.99.31,1.56-1.89,1.77-4.12,1.9-6.49,1.37-.26-.16-.46-.38-.6-.65-.22-.5-.25-1.04-.31-1.58-.38-3.38-1.86-4.92-5.23-5.46-1.25-.2-2.52,0-3.76-.28-.28-.07-.53-.19-.77-.35-.89-.86-1.18-2.04-1.58-3.13-1.45-3.92-2.73-7.9-4.48-11.7-.33-.71-.47-1.48-.55-2.14-.26.37.3,1.18-.44,1.55-.66-7.45.29-10.13,3.65-11.89.23-.12.51-.15.77-.22,1.03-.23,1.43.63,1.92,1.2,1.36,1.57,2.97,2.38,5.03,1.72,2.01-.64,2.64-2.28,2.74-4.22.04-.73.14-1.44.69-1.99Z"/>
    <path class="cls-33" d="m117.23,389.15c0,2.54,0,5.09-.01,7.63,0,.42.14.95-.39,1.2-.59.28-.99-.02-1.41-.44-7.98-7.87-15.3-16.24-19.92-26.62-1.83-4.11-1.26-8.32-.46-12.54.29-1.51.83-3,.86-4.51.04-2.13,1.22-1.93,2.51-1.47,3.55,1.27,5.99,3.61,6.82,7.43,1.05,4.8,3.13,9.14,6.73,12.47,4.03,3.74,5.93,8.1,5.28,13.58-.13,1.08-.02,2.18-.02,3.27Z"/>
    <path class="cls-33" d="m176.18,309.4c-14.57,4.43-28.97,8.81-43.38,13.19-.1-.13-.2-.26-.3-.39,2.61-3.17,5.2-6.35,7.82-9.5,5.44-6.56,10.87-13.11,16.34-19.64.47-.57,1.01-1.92,1.96-.49,4.41,6.64,11.13,10.83,16.94,15.97.18.16.29.41.62.87Z"/>
    <path class="cls-56" d="m119.46,392.88c0-2.9-.25-5.83.06-8.7.44-4.07-1.02-7.14-3.8-9.98-4.7-4.79-8.13-10.38-9.67-17.01-.44-1.89-.25-3.55,1.06-5.08,5.36-6.27,10.69-12.58,16.03-18.88.41-.48.82-.92,1.51-.93,1.29,12.06-.89,23.58-4.98,34.83-.34.93-.58,1.9-.98,2.81-.95,2.19-1.95,4.26,1.54,5.23.9.25,1.46,1.35,1.37,2.47-.39,5.08-.8,10.15-1.21,15.23h-.93Z"/>
    <path class="cls-36" d="m217.68,365.4c-1.52,1.33-3.21,2.42-4.99,3.37-.97-.38-1.15-1.31-1.48-2.14-2.23-5.55-4.41-6.92-10.28-6.46-.36.03-.72.03-1.07-.06-.29-.11-.46-.32-.52-.62.54-5.71-1.03-10.84-3.89-15.75-2.09-3.58-3.99-7.3-4.86-11.43-.24-1.14-.64-2.29,0-3.43.91-.72,1.63-.03,2.08.53,2.95,3.64,7.02,5.21,11.35,6.34l1.59,1.51c.86,2.39,2.67,3.72,4.97,4.53,5.1,4.11,9.9,8.56,14.66,13.06-1.19,1.16-2.85.96-4.27,1.43-1.28.42-2.64.6-3.82,1.31-2.36,1.41-2.75,3.47-1.08,5.69.53.71,1.42,1.15,1.62,2.12Z"/>
    <path class="cls-10" d="m266.1,252.35c-1.15,5.19-2.28,10.39-3.46,15.57-.25,1.11-.83,1.09-1.72.44-4.89-3.6-9.82-7.16-14.75-10.71-.93-.67-.83-1.47-.58-2.41,1.23-4.54,2.44-9.1,3.63-13.65.29-1.09.68-1.76,2.01-1.21,3.85,1.58,7.7,3.17,11.18,5.51,2.28,1.54,3.11,3.9,3.67,6.45Z"/>
    <path class="cls-10" d="m226.2,263.88c.74-4.7,1.48-9.79,2.39-14.85.32-1.76,1.22-2.39,2.98-1.01,3.57,2.8,7.26,5.45,10.97,8.05,1.12.78,1.62,1.46,1.23,2.88-1.63,5.85-3.16,11.72-4.73,17.58-.23.86-.3,2-1.66.85-3.39-2.87-6.85-5.65-9.72-9.08-.99-1.18-1.3-2.55-1.46-4.43Z"/>
    <path class="cls-31" d="m194.13,378.96c-5.91,1.1-11.88.55-17.82.57-2.41,0-4.87.2-7.25-.49.28-.42.49-.8-.27-.92-1.12-.17-2.17-.07-3.08.69-6.54-.63-13.07-1.34-19.55-2.51,5.78-6.59,12.71-8.52,20.96-5.25,2.97,1.17,6.06,1.78,9.26,1.79.28.04.55.13.81.24,1.38.87,2.63,1.92,4.04,2.77,1.35.82,2.79,1.3,4.39,1.27,2.39-.05,3.53-1.24,3.32-3.61-.16-1.81-.73-3.56-1.06-5.34,0-.76.52-1.2,1.01-1.66,2.28-2.19,4.84-4.02,7.53-5.68.96-.59,1.88-1.47,3.19-1.04l.14.2c.75,1.07.56,2.26.34,3.41-.99,5.1-3.54,9.68-5,14.63-.13.44-.6.65-.96.93Z"/>
    <path class="cls-42" d="m176.67,373.48c-3.62.44-6.97-.7-10.29-1.88-6.8-2.42-12.97-1.9-18.05,3.77-.62.7-1.39.73-2.15.94-1.47-.13-2.98-.08-4.38-.69-2.14-4.54-.79-11.89,2.71-14.69,2.25,0,4.47-.25,6.56-1.15.25-.12.51-.14.78-.05,1.62.95,3.04,2.27,5,2.58,3.44.54,6.44-.22,8.86-2.85.6-.66,1.13-1.45,2.18-1.43.86.33,1.15,1.11,1.41,1.88,1.48,4.42,3.81,8.35,6.84,11.88.4.47.84.97.54,1.69Z"/>
    <path class="cls-36" d="m144.51,360.93c-3.12,4.49-3.05,9.56-2.71,14.69-6.69-.87-13.4-1.6-20.05-2.69-2.83-.46-.7-2.47-.66-3.8,2.07-.36,2.32,2.33,4.63,2.63-1.04-2.91-1.13-5.67-.96-8.43.32-5.31,4.81-10.28,9.48-10.55.17.03.34.05.51.07.42.35.81.72,1.07,1.22,1.82,3.56,4.89,5.41,8.64,6.32.02.18.04.35.06.53Z"/>
    <path class="cls-45" d="m237.25,196.66c5.41,4.24,9.68,8.92,14.08,13.46,2.14,2.2,2.17,10.2.44,12.5-.54.72-1.1.43-1.68.21-4.4-1.67-8.78-3.39-13.2-5-1.71-.62-1.39-1.94-1.29-3.15.5-5.85,1.06-11.7,1.64-18.02Z"/>
    <path class="cls-45" d="m210.29,208.7c5.6,2.11,10.73,4.03,15.85,5.96,1.86.7,3.66,1.66,5.58,2.1,2.58.59,2.99,2.14,2.7,4.4-.41,3.22-.8,6.46-.97,9.7-.1,2.03-.89,2.11-2.34,1.28-5.28-3.04-9.72-7.18-14.45-10.94-3.87-3.08-4.87-7.59-6.37-12.5Z"/>
    <path class="cls-10" d="m244.95,257.88c5.52,4,10.72,7.77,15.92,11.53.71.51,1.08,1.14.29,1.75-5.1,3.99-9.9,8.56-16.9,9.03-1.13.08-2.14-.31-3.17-.62-1.19-.37-1.68-.92-1.27-2.38,1.76-6.27,3.35-12.58,5.12-19.32Z"/>
    <path class="cls-45" d="m264.44,281.41c-1.18,3.77-2.36,7.47-3.5,11.18-1.73,5.63-1.74,5.66-6.74,2.68-3.42-2.03-6.78-4.17-10.2-6.19-.98-.58-1.43-.96-.41-1.95,2.61-2.51,5.03-5.23,7.75-7.61,3.63-3.17,9.31-2.71,12.67.75.36.37.45.74.43,1.14Z"/>
    <path class="cls-45" d="m254.44,312.85c-4.5-3.1-8.89-5.64-12.56-9.16-2.49-2.39-2.78-10.85-.63-13.51.64-.8,1.29-.86,2.12-.37,4.73,2.84,9.45,5.69,14.19,8.52,1.11.66.99,1.55.66,2.59-1.24,3.86-2.45,7.74-3.77,11.94Z"/>
    <path class="cls-24" d="m113.95,217.93c-1.62,2.05-3.66,3.66-5.58,5.39-1.72,1.55-3.74,1.47-5.82,1.13-1.85-2.37-3.46-5-6.63-5.89-2.7-3.54-2.58-4.95.33-8.22,1.5-1.68,2.75-3.59,4.15-5.37,1.16-1.49,2.66-1.98,3.75-.19,2.77,4.54,6.98,6.04,11.95,6.2-.67,2.33-1.56,4.59-2.14,6.95Z"/>
    <path class="cls-45" d="m274.89,293.32c-.49,3.3-1.11,7.48-1.72,11.67-.17,1.14-.75,1.35-1.69.78-3.41-2.07-6.81-4.14-10.21-6.23-.96-.59-1.29-1.32-.88-2.51,1.57-4.63,3.09-9.28,4.48-13.96.49-1.66,1.06-1.65,2.46-.95,4.3,2.17,7.55,5,7.57,11.21Z"/>
    <path class="cls-33" d="m157.09,210.82c.36-.66.21-1.56.95-2.05,1.36.21,1.56-1.16,2.24-1.78,3.17-2.89,7.18-2.09,10.84-2.58,4.11-.55,4.17-.32,3.9,3.98-.13,2.07-.34,4.14-.62,6.2-.39,2.86-1.93,4.18-4.84,4.53-4.08.49-7.63-.86-11.04-2.88-1.27-.75-1.51-1.87-1.5-3.24,0-.73,1.07-1.44.07-2.19Z"/>
    <path class="cls-10" d="m240.95,236.55c2.14.82,4.67,1.75,7.16,2.79.89.37.52,1.22.34,1.91-1.16,4.36-2.4,8.7-3.45,13.09-.43,1.79-1.04,1.73-2.31.77-3.62-2.71-7.29-5.35-10.94-8.01-.8-.58-1.44-1.11-.47-2.14,2.3-2.43,4.53-4.93,6.82-7.36.63-.67,1.45-1.08,2.85-1.04Z"/>
    <path class="cls-36" d="m176.12,311.86c1.91-.42,3.38.5,4.64,1.72,2.15,2.08,4.2,4.26,6.3,6.4.18.26.21.53.09.83-4.82,5.28-13.61,7.05-19.13,3.83-1.51-.88-2.84-1.96-3.62-3.58-.08-.27-.1-.54-.06-.82,1.74-2.22,3.26-4.61,5.17-6.7,1.3-.37,2.59-.73,3.89-1.1,1.3,1.69,2,.54,2.71-.57Z"/>
    <path class="cls-6" d="m203.53,132.28c-4.72.21-8.74-.28-12.63-1.54-1.45-.47-2.93-1.08-4.15-1.96-1.19-.85-2.83-2.21-2.03-3.61.41-.71,2.17.87,3.12,1.73,4.4,4,9.71,4.59,14.9,2.81,3.71-1.28,5.95-4.91,7.58-8.54,1.63-3.64,4.21-6.04,8.2-6.72.8-.14,1.63-.17,2.44-.1,1.6.15,2.21.89,1.5,2.53-2.23,5.14-5.17,9.7-9.79,13.09-2.99,2.19-6.22,2.76-9.14,2.32Z"/>
    <path class="cls-53" d="m204.68,134.06c-2.19,2.74-4.81,4.15-7.9,4.18-8.24.09-16.49-.03-24.74-.1-.52,0-1.04-.26-1.94-.5,3.37-3.44,6.56-6.72,10.33-9.3,1.54-1.05,3.4-.52,4.68.87,4.04,4.4,9.26,4.85,14.7,4.51,1.54-.1,3.04-.33,4.87.33Z"/>
    <path class="cls-62" d="m194.13,378.96c1.23-5.15,3.85-9.83,5.09-14.98.32-1.34.18-2.68.53-3.98,5-1.99,9.83.23,11.79,5.44.41,1.1.77,2.23,1.15,3.34-4.26,3.3-8.88,6.06-13.39,8.98-1.54,1-3.32,1.32-5.16,1.2Z"/>
    <path class="cls-13" d="m236.36,196.12c-.64,6.83-1.23,13.02-1.8,19.21-.07.78-.08,1.5-1.22,1.07-7.13-2.71-14.27-5.4-21.65-8.19,1.07-.86,1.9-.66,2.61-.47,4.71,1.26,8.45-.62,11.88-3.57,2.74-2.36,5.46-4.73,8.21-7.07.39-.33.93-.47,1.96-.98Z"/>
    <path class="cls-45" d="m234.44,229.54c.22-3.11.38-6.09.67-9.06.12-1.24.45-2.33,2.25-1.59,3.93,1.6,7.92,3.08,11.9,4.54,1.48.54,1.96,1.43.82,2.56-3.7,3.64-7.69,6.81-13.18,7.29-1.95.17-3.12-.2-2.47-2.52.12-.42.02-.9.02-1.22Z"/>
    <path class="cls-53" d="m137.53,138.2c-5.56.63-10.38,1.2-15.2,1.72-2.43.26-4.87.47-7.31.64-1.56.11-3.22.03-4.39-1.06-4.09-3.79-8.72-7.13-10.82-12.64-.75-1.97-1.18-3.96-1.13-6.09.07-2.73.78-3.25,3.28-2.11,1.45.66,2.18,1.74,2.3,3.38.81,10.46,4.84,14.49,15.28,15.78,4.47.55,8.78.81,13.07-1.02,1.35-.58,3-.42,4.94,1.4Z"/>
    <path class="cls-13" d="m259.73,314.03c-4.29,0-4.61-.44-3.59-3.6.97-3.01,1.95-6.01,2.81-9.05.39-1.36,1-1.54,2.13-.85,3.39,2.08,6.76,4.2,10.21,6.18,1.31.75,1.22,1.32.23,2.17-3.63,3.09-8.05,4.24-11.78,5.15Z"/>
    <path class="cls-53" d="m134.23,352.79c-8.63,3.33-10.18,10.36-8.1,17.8.21.76.82,1.62-.17,2.15-.95.51-1.77-.04-2.32-.83-.73-1.04-1.48-2.05-2.55-2.77,1.95-5.56,3.65-11.18,4.86-16.95,2.98-3.95,3.09-8.16,1.15-12.56-.04-.7-.08-1.39-.12-2.09.1-.58.21-1.17.38-2.13,3.05,5.75,4.77,11.64,6.88,17.38Z"/>
    <path class="cls-7" d="m123.79,136.73c-5.99-.1-11.42-1.65-15.67-6.17-2.31-2.46-2-5.67-2.3-8.68-.08-.81.61-1,1.31-1.01,1.27-.02,2.1.6,2.4,1.79.61,2.47,1.27,4.9,2.81,7,2,2.74,6.76,4.18,9.9,2.92,2.76-1.11,5.34-1.27,7.94.67,1.72,1.28,1.14,2.01-.22,2.73-1.93,1.02-4.07.66-6.16.75Z"/>
    <path class="cls-25" d="m220.86,201.04c4.13-2.42,6.91-6.3,10.29-9.52.71-.68,1.45-1.33,2.18-1.99,1.3.55,2.67.92,3.86,1.7.16,1.28-.75,1.99-1.55,2.67-3.44,2.91-6.92,5.78-10.4,8.65-4.16,3.44-9.03,4.25-14.22,3.72-.89-.09-1.82-.24-2.09-1.35.54-.58,1.25-.73,1.98-.71,3.67.05,6.83-1.49,9.95-3.15Z"/>
    <path class="cls-45" d="m159.71,63.08c5.14.74,10.05,2.43,15.07,3.65,1.2.29,2.37.73,3.55,1.11-7.29.11-14.1,2.68-21.13,4.15-.9.19-2.02.7-2.55.02-.6-.79.48-1.57.9-2.33,1.28-2.27,3.13-4.17,4.15-6.6Z"/>
    <path class="cls-35" d="m101.49,341.93c2.69.53,5.36,1.66,8.07,2.66,1.2.44.61,1.08.13,1.63-1.37,1.57-2.75,3.14-4.17,4.66-1.33,1.42-3.05,1.33-4.5.51-1.64-.93-3.15-2.32-3.13-4.42.04-3.15,1.46-5.08,3.59-5.05Z"/>
    <path class="cls-53" d="m217.68,365.4c-2.17-1.11-3.7-2.68-3.38-5.32.32-2.64,2.51-3.4,4.59-3.98,2.07-.58,4.15-1.27,6.35-1.25.34.27.71.52,1.03.83q2.44,2.34-.5,4.19c-1.94-.72-2.08,1.02-2.75,2.03-1.78,1.16-3.56,2.33-5.34,3.49Z"/>
    <path class="cls-43" d="m204.03,335.76c-4.27.17-7.7-1.54-10.55-4.62-.8-.86-1.68-1.64-2.52-2.46-.45-.26-.61-.68-.71-1.15-.1-1.3.02-2.51,1.26-3.29,4.17,3.84,8.35,7.69,12.52,11.53Z"/>
    <path class="cls-28" d="m164.66,320.01c-.02.14-.03.28-.03.42-1.49,1.68-3.21,2.4-5.37,1.29-3.05.27-5.94,0-8.27-2.31,3.94-1.49,7.92-2.82,12.04-3.73.93,1.3,1.45,2.75,1.63,4.33Z"/>
    <path class="cls-43" d="m141.78,322.14c0,.99.08,1.99-.02,2.96-.19,1.83-1.14,3.31-2.85,3.91-1.71.6-3.56.77-5.01-.79-.86-.91-1.67-1.86-2.51-2.8,3.37-1.38,6.88-2.33,10.39-3.29Z"/>
    <path id="streg_ved_hat" data-name="streg ved hat" class="cls-19" d="m264.76,119.77c-1.19.14-2.08-.57-2.99-1.11-14.91-8.89-29.81-17.8-44.71-26.71-.23-.14-.4-.35-.61-.53.18-.17.36-.34.54-.5,11.3,6.79,22.61,13.57,33.9,20.37,4.64,2.8,9.24,5.65,13.86,8.48Z"/>
    <path id="mønster_på_nederdel" data-name="mønster på nederdel" class="cls-44" d="m220.86,201.04c-3.25,3.54-7.51,3.96-11.93,3.87.03-2.58,1.76-4.19,4.52-3.68,2.53.47,4.95.37,7.41-.19Z"/>
    <path id="mønster_på_nederdel-2" data-name="mønster på nederdel" class="cls-34" d="m127.09,339.62c2.99,3.63,3.06,9.29-1.15,12.56.38-4.19.76-8.37,1.15-12.56Z"/>
    <path id="streg_ved_ben" data-name="streg ved ben" class="cls-9" d="m256.81,439.49c-2.86-4.18-6.55-7.64-9.73-11.54-.57-.69-1.11-1.4-1.67-2.11.78-.55,1.29-.1,1.87.41,4.04,3.54,6.74,8.26,10.65,11.94,1.59,1.5-1.04.58-1.13,1.3Z"/>
    <path id="mønster_på_nederdel-3" data-name="mønster på nederdel" class="cls-60" d="m164.66,320.01c-1.11-1.23-1.7-2.65-1.62-4.33,2.16-.72,4.32-1.44,6.49-2.16-1.19,2.49-2.23,5.08-4.86,6.49Z"/>
    <path id="mønster_hårelastik" data-name="mønster hårelastik" class="cls-29" d="m266.62,316.63c-1.88.93-3.45,3.14-5.97,1.35-.44-.31-.97-.5-.97-1.14,0-.69.57-.87,1.05-1.05,1.75-.65,3.53-1.26,5.29-1.88,1.72.58,1.18,1.65.59,2.72Z"/>
    <path id="mønster_ærme" data-name="mønster ærme" class="cls-39" d="m113.95,217.93c-.24-2.61,0-5.07,2.14-6.95,1.27-.18,2.46,0,3.8.73-2.02,2.12-3.98,4.17-5.94,6.22Z"/>
    <path id="mønster_ærme-2" data-name="mønster ærme" class="cls-44" d="m95.91,218.56c3.5.18,5.19,1.68,6.63,5.89-3.63-.37-5.21-3.04-6.63-5.89Z"/>
    <path id="mønster_på_hårelastik" data-name="mønster på hårelastik" class="cls-14" d="m266.62,316.63c-.03-.94.44-2-.59-2.72,1.82-.72,3.63-1.46,5.46-2.14.51-.19,1.23-.8,1.59.12.32.81-.51,1.04-1,1.35-1.81,1.15-3.64,2.27-5.46,3.39Z"/>
    <path id="mønster_på_nederdel-4" data-name="mønster på nederdel" class="cls-26" d="m191.51,324.23c-.24,1.15-.48,2.3-.73,3.45-2.89-1.49-3.58-4.16-3.79-7.09.02-.2.04-.4.06-.61,1.7,1.19,3.04,2.76,4.45,4.25Z"/>
    <path id="mønster_på_hårelastik-2" data-name="mønster på hårelastik" class="cls-54" d="m237.18,191.23c-1.63.2-3.1.06-3.86-1.7.71-.86,1.53-2.39,2.53-1.85,1.01.54,1.71,2.05,1.33,3.55Z"/>
    <path id="hvid_prik_i_øjet" data-name="hvid prik i øjet" class="cls-55" d="m201.63,121.9c-.8.1-1.48-.42-1.37-1.18.17-1.27,1.08-2.07,2.43-2.11.85-.03,1.41.4,1.24,1.34-.22,1.19-.88,1.96-2.29,1.95Z"/>
    <path class="cls-49" d="m210.59,341.8c-3.45-.13-4.61-1.18-4.97-4.53,1.83,1.32,3.54,2.77,4.97,4.53Z"/>
    <path id="hvid_prik_i_øjet-2" data-name="hvid prik i øjet" class="cls-48" d="m123.96,129.46c-.67-.62-2.08-.05-1.87-1.53.12-.87.43-1.6,1.43-1.6.96,0,1.39.67,1.44,1.58.05.79-.35,1.26-1,1.55Z"/>
    <path id="mønster_på_nederdel-5" data-name="mønster på nederdel" class="cls-4" d="m165.72,378.81c1.09-1.68,2.97-2.13,4.13-.89,1.27,1.36-.56.71-.78,1.12-1.12-.08-2.23-.15-3.35-.23Z"/>
    <path id="mønster_på_nederdel-6" data-name="mønster på nederdel" class="cls-2" d="m176.12,311.86c.04,1.07.32,2.37-1.2,2.55-1.35.16-1.58-.88-1.51-1.98.85-.45,1.73-.78,2.71-.57Z"/>
    <path id="mønster_på_nederdel-7" data-name="mønster på nederdel" class="cls-21" d="m223.02,361.91c.15-1.01-.56-2.29.6-2.96.89-.51,1.74-.09,2.15.93-.72.95-1.74,1.48-2.75,2.03Z"/>
    <path id="streg_på_hat" data-name="streg på hat" class="cls-45" d="m158.2,63.06c-3.33-.02-6.65-.05-9.98-.07,3.84-.54,7.69-.97,11.52.09-.51,0-1.03-.02-1.54-.02Z"/>
    <path id="streg_på_hat-2" data-name="streg på hat" class="cls-59" d="m147.82,63.01c-.58,1.31-1.94,1.27-3,1.6-8.27,2.62-16.56,5.17-24.85,7.72-.71.22-1.46.98-2.21.04,8.25-2.87,16.51-5.72,24.75-8.61,1.73-.6,3.46-1,5.29-.75Z"/>
    <path id="skygge_bag_læber" data-name="skygge bag læber" class="cls-58" d="m173.85,173.77c1.6,8.11-3.33,12.68-9.05,16.87-1.31.96-2.79.65-4.19.81-3.95.46-7.95,1.23-11.9.47-6.52-1.25-11.17-5.22-14.4-10.9-.72-1.26-.73-2.73-.47-4.24.7-4.15.25-5-3.26-7.13-.7-.42-1.43-.8-2.09-1.27-.55-.39-1.54-.56-1.26-1.52.26-.91,1.08-.32,1.64-.36,2.93-.19,5.52-1.3,7.6-3.27,2.31-2.18,4.91-2.6,7.8-1.92,2.89.68,5.54.4,8.08-1.21,1.66-1.05,3.48-.87,5.23-.17,3.95,1.58,7.9,3.16,11.82,4.83,3.79,1.62,4.62,3.04,4.46,7.08-.02.63,0,1.27,0,1.91Z"/>
    <path id="_øjenbryn_højre" data-name="øjenbryn højre" class="cls-61" d="m208.89,107.19c-1.83.26-3.16-.33-4.45-.98-5.66-2.83-10.79-1.66-15.38,2.26-5.05,4.31-9.13,9.58-13.64,14.43-1.23,1.33-2.55,2.57-3.89,3.79-.4.36-.91,1.13-1.59.44-.62-.64.17-1.13.35-1.69.05-.17.18-.32.3-.45,5.55-6.1,10.58-12.71,16.95-18.03,6.65-5.55,14.13-5.47,21.34.23Z"/>
    <path id="_øjenbryn_venstre" data-name="øjenbryn venstre" class="cls-57" d="m98.2,109.8c3.16-4.31,8.11-5.26,12.02-2.31,6.52,4.92,12.94,9.97,19.41,14.97.71.55,1.84,1.21,1.18,2.11-.73.98-1.66-.15-2.26-.61-5.54-4.25-11.17-8.42-16.48-12.95-3.11-2.66-6.04-4.15-10.02-2.13-1.08.55-2.4.6-3.83.93Z"/>
    <path id="mønster_på_nederdel-8" data-name="mønster på nederdel" class="cls-42" d="m186.99,320.58c1.18,2.41,1.83,5.1,3.79,7.09.06.33.11.67.17,1-.18,3.75,1.27,7.06,2.8,10.34,2.13,4.56,5.27,8.69,6.07,13.83.36,2.32.61,4.66-.22,6.95-3.85,1.84-7.15,4.47-10.4,7.17-1.56-.29-1.2-1.58-1.2-2.55,0-2.35,1.02-4.38,2.22-6.32,2.34-3.77,2.7-7.89,1.6-12.03-.93-3.53-3.32-5.96-6.98-6.92-.56-.21-1.04-.53-1.44-.97-5.11-6.94-12-9.67-20.47-8.6-1.06.13-2.15.57-3.14-.25.07-1.88-.41-3.66-1.03-5.4-.31-.88-.52-1.66.5-2.2,1.93.15,3.6-.76,5.37-1.29,4.71,6.17,11.91,6.95,19.47,2.12.98-.63,1.93-1.31,2.9-1.97Z"/>
    <path class="cls-36" d="m159.8,329.33c6.09-1.12,12.07-1.26,17.59,2.18,2.64,1.64,4.93,3.65,6.45,6.42-.66.74-1.5.39-2.29.36-7.63-.32-13.27,5.05-13.44,12.73-.05,2.17.36,4.3.3,6.47-.09.29-.25.53-.48.71-2.57,2.69-5.11,5.29-9.34,5.02-2.86-.18-5.25-1.05-7.05-3.33.17-.8.81-1.19,1.44-1.54,8.47-4.82,9.69-14.38,6.56-22.98-.22-.6-.56-1.14-.75-1.75-.35-1.38-.25-2.65.88-3.67.05-.21.09-.42.14-.62Z"/>
    <path id="mønster_på_nederdel-9" data-name="mønster på nederdel" class="cls-43" d="m159.25,333.65c4.73,8.06,3.64,21.39-7.71,26.25-.16-.03-.32-.07-.47-.12-4.62-6.08-3.91-12.7-1.94-19.45.23-.78.53-1.53.79-2.29.2-.17.43-.27.69-.29,2.93.11,5.42-.75,7.2-3.24.33-.47.6-1.16,1.43-.87Z"/>
    <path id="mønster_på_nederdel-10" data-name="mønster på nederdel" class="cls-20" d="m150.46,337.99c-.18.01-.36.03-.53.05-4.23-.8-6.4-3.2-6.49-7.37-.05-2.32-.86-5.5,1.09-6.63,1.99-1.16,4.52.99,6.6,2.1,2.29,1.21,4.33,2.9,6.47,4.38-2.33,2.53-4.94,4.81-7.14,7.47Z"/>
    <path id="mønster_på_nederdel-11" data-name="mønster på nederdel" class="cls-46" d="m144.45,360.4c-4.93,0-8.01-2.4-9.71-7.54,1.43,0,2.92-.26,4.28.04,3.13.7,6.16,2.26,5.43,7.5Z"/>
    <path id="mønster_på_nederdel-12" data-name="mønster på nederdel" class="cls-8" d="m150.46,337.99c1.38-3.45,4.06-5.65,7.14-7.47.69-.19,1.38-.38,2.07-.57-.19,1.23-.63,2.43-.41,3.7-1.34,2.45-3.33,4.04-6.07,4.67-.96.22-1.9.53-2.72-.32Z"/>
    <path id="mønster_på_nederdel-13" data-name="mønster på nederdel" class="cls-50" d="m141.71,345.13c-1.59-.04-2.17-.79-2.12-2.1.05-1.26.74-2.14,1.96-2.16,1.32-.02,2.26.9,2.27,2.21.02,1.4-1.01,1.99-2.11,2.04Z"/>
    <path id="mønster_på_nederdel-14" data-name="mønster på nederdel" class="cls-5" d="m200.46,341.26c-1.27-.3-2.42-.67-2.48-2.13-.05-1.46.76-2.49,2.21-2.51,1.27-.01,2.26.86,2.3,2.19.03,1.29-.88,2.06-2.03,2.45Z"/>
    <path id="mønster_på_nederdel-15" data-name="mønster på nederdel" class="cls-24" d="m167.93,358.2c.02-.19.03-.37.05-.56,1.1-2.57,3.33-3.45,5.84-3.86,1.08-.18,2.2-.27,3.25-.02,5.02,1.15,9.65-3.72,8.53-9.66-.2-1.07-.53-2.11-.88-3.14-.26-.77-.56-1.56.04-2.32,4.21.36,6.46,3.2,7.65,6.74,1.52,4.57.93,9.06-1.64,13.29-1.53,2.51-3.11,5.15-1.56,8.3-.38.33-.75.65-1.13.98-2.89,3.23-6.08,5.89-10.79,5.62-.21-.03-.42-.05-.62-.08-4.08-4.42-6.93-9.55-8.74-15.27Z"/>
    <path id="mønster_på_nederdel-16" data-name="mønster på nederdel" class="cls-41" d="m177.29,373.56c4.23-.66,7.36-3.43,10.79-5.62,1.33,1.84,1.42,4.05,1.61,6.15.22,2.36-1.21,3.66-3.54,3.77-3.75.18-6.46-1.74-8.87-4.3Z"/>
    <path id="mønster_på_nederdel-17" data-name="mønster på nederdel" class="cls-30" d="m145.28,371.31c1.03.11,1.81.76,1.79,1.85-.02,1.2-.81,1.98-2.1,1.92-1.21-.05-1.69-.83-1.65-1.99.04-1.2.65-1.79,1.95-1.79Z"/>
    <path id="mønster_på_nederdel-18" data-name="mønster på nederdel" class="cls-23" d="m165.24,368.52c-1.33-.02-1.88-.94-1.98-1.91-.11-1.14.74-1.78,1.86-1.85,1.24-.07,1.77.66,1.78,1.84,0,1.17-.5,1.87-1.66,1.92Z"/>
    <path id="mønster_på_nederdel-19" data-name="mønster på nederdel" class="cls-22" d="m145.26,366.43c.97.1,1.74.61,1.77,1.63.03.85-.48,1.54-1.49,1.57-.97.02-1.52-.48-1.6-1.44-.07-.91.3-1.57,1.31-1.76Z"/>
    <path id="mønster_på_nederdel-20" data-name="mønster på nederdel" class="cls-3" d="m133.5,361.09c.96.15,1.6.73,1.69,1.74.1,1.06-.4,1.78-1.51,1.85-1.09.06-1.65-.57-1.74-1.65-.1-1.11.49-1.67,1.56-1.94Z"/>
    <path id="mønster_på_ærme" data-name="mønster på ærme" class="cls-51" d="m105.48,212.06c1.31.38,2.38,1.13,2.46,2.71.08,1.62-.75,2.61-2.4,2.64-1.64.03-2.45-.9-2.54-2.53-.1-1.71.89-2.44,2.48-2.82Z"/>
    <path id="mønster" class="cls-40" d="m206.5,368.87c.01.64-.29,1.08-.88,1.14-.71.08-1.2-.41-1.32-1.04-.11-.57.34-1.03.89-1.12.75-.13,1.05.47,1.31,1.02Z"/>
    <path id="fyld_til_underlæbe" data-name="fyld til underlæbe" class="cls-38" d="m136.18,172.8c2.71,1.85,5.5,1.99,8.46.73,1.27-.54,2.45.39,3.53.98,2.21,1.19,4.26,1.17,6.36-.26,2.03-1.39,4.26-1.6,6.71-1.31,3.52.42,7.19,1.3,10.49-1.87,0,3.31.08,6.19-.03,9.06-.08,2.21-1.34,3.94-2.97,5.3-3.62,3.03-7.55,5.2-12.58,4.3-2.57-.46-5.14.47-7.81.02-8.31-1.41-13.44-8.26-12.18-16.95Z"/>
    <path id="fyld_til_overlæbe" data-name="fyld til overlæbe" class="cls-38" d="m132.5,168.67c1.77-1.46,3.3-2.71,4.82-3.98,1.84-1.53,4.06-2.54,6.28-1.77,3.18,1.09,6.03.2,8.9-.68,2.59-.79,4.93-.56,7.35.52,3.12,1.4,6.29,2.7,9.48,3.94,1.44.56,1.46,1.32.73,2.43-1,1.53-2.27,2.55-4.22,2.47-2.53-.1-5.05.05-7.58-.39-1.78-.31-3.55-.2-4.94,1.44-1.18,1.39-2.8,1.08-4.24.37-2.08-1.02-4-1.58-6.39-.49-1.59.73-3.56.22-5.19-.8-1.61-1.01-3.23-1.98-5-3.07Z"/>
    <path id="mønster_på_nederdel-21" data-name="mønster på nederdel" class="cls-47" d="m184.76,338.63c.58,2.53,1.78,4.88,1.77,7.61,0,4.24-3.92,9.31-9.21,8.26-3.61-.71-6.78.47-9.35,3.15-.73-3.2-1.04-6.47-.3-9.64,1.78-7.64,8.13-11.5,16.17-10.07.31.23.61.46.92.69Z"/>
    <path id="mønster_på_nederdel-22" data-name="mønster på nederdel" class="cls-27" d="m184.12,327.09c1.22.13,1.84.72,1.8,1.79-.05,1.15-.71,1.94-1.88,1.83-.91-.09-1.8-.64-1.73-1.75.07-1.14.84-1.73,1.82-1.87Z"/>
    <path id="mønster_på_nederdel-23" data-name="mønster på nederdel" class="cls-32" d="m186.8,335.18c-.27-.04-.7-.35-.67-.98.03-.61.46-.99,1.08-.89.59.1.91.57.85,1.18-.05.5-.38.78-1.26.7Z"/>
    <path id="mønster_på_nederdel-24" data-name="mønster på nederdel" class="cls-52" d="m171.84,335.77c.02,1.61-.8,2.34-2.36,2.31-1.61-.03-2.61-.78-2.61-2.46,0-1.64.93-2.53,2.56-2.51,1.7.02,2.37,1.08,2.41,2.65Z"/>
  </g>
</svg>