<?xml version="1.0" encoding="UTF-8"?>
<svg id="lotus" xmlns="http://www.w3.org/2000/svg" viewBox="0 0 230 330">
  <defs>
    <style>
      .cls-1 {
        fill: none;
      }

      .cls-1, .cls-2, .cls-3 {
        stroke-width: 0px;
      }

      .cls-3 {
        fill: #c2a88d;
      }
    </style>
  </defs>
  <g id="bukser">
    <g id="skygge_bag_buks">
      <g>
        <polygon class="cls-2" points="29.66 0 161.94 0 133.49 1.21 105.21 1.21 91.3 1.21 70.7 1.21 52.57 1.21 29.66 0"/>
        <path class="cls-2" d="m162.55,1.21l35.08,38.75c.91,1.45,2.2,3.53,3.66,6.06.6,1.03,4.63,7.98,6.11,11.5,1.6,3.8,2.86,9.86-.5,18.26-.49,2.35-1.17,6.03-2.56,10.5-2.44,7.87-6.11,15.74-8.55,23.61-6.11,22.4-1.22,43.6-3.66,65.39,0,1.82,2.44,4.24,3.66,6.06,0,3.03,1.22,5.45,1.22,8.48,1.22,4.24,3.66,9.08,4.89,13.32,4.89,26.64,14.66,52.07,23.21,78.11,4.89,3.03,2.44,6.66,4.89,9.69-10.99,14.53-32.98,26.04-49.47,39.06-3.14-1.3.7-1.46,0,0-4.28-2.12-9.16-3.94-12.83-6.36-10.99-6.66-17.1-14.53-30.54-19.98,1.22-15.74,0-30.88,2.44-46.62,2.44-25.43,19.55-51.47-1.22-75.69,1.22-3.63,1.22-7.27-3.66-10.29-1.22-.61,1.22-1.82,1.22-3.03,4.89-5.45,2.44-11.5,2.44-16.95-2.44-18.77-4.89-36.94-10.99-56.31-4.89-14.53-12.22-27.85-17.71-42.69-.19,1.62-.46,3.24-.37,4.86.47-1.61.68-3.24.37-4.86-3.05,14.83-1.83,29.97-3.05,45.11-1.22,6.66-2.44,13.32-3.66,20.59-6.11,18.77-9.77,36.33-19.55,54.5,0,1.21,2.44,2.42,3.66,3.63,4.89,12.72,2.44,24.22,8.55,36.94,1.22,4.24-1.22,8.48,0,12.72,6.11,23.01,10.99,44.81,13.44,67.82,1.22,4.24-4.89,7.27-8.55,10.9-7.33,5.45-15.88,9.69-23.21,15.14-3.66,2.42-6.11,4.84-12.22,6.06-1.22,0-1.22-.61-2.35-.81,1.61.22,2.93.86,2.97,1.71-.61-.3-3.05-.3-4.28-.91-9.77-4.84-18.32-9.08-28.1-13.93-8.55-3.63-17.1-7.27-25.65-11.5-2.44-1.21-3.66-2.42-3.66-3.63,0-11.5,4.89-22.4,6.11-33.91,0-1.82,2.44-4.24,3.66-6.06v-7.27c6.11-18.17,12.22-35.12,14.66-53.28,1.22-3.03-2.44-6.66-3.66-9.69,0-1.21,2.44-3.03,2.44-4.24,0-1.82-3.66-4.24-3.66-6.06,0-6.43-.07-17.3,1.22-19.98C33.19,138.42,6.46,113.12.95,68.42c-.64-5.21-1.41-14.01-.61-25.13C10.32,29.27,20.29,15.24,30.27,1.21"/>
      </g>
      <path class="cls-2" d="m107.69,1.21c.89,1.43,1.94,3.78,1.38,6.66-.4,2.03-1.47,3.68-2.44,4.84-.85,1.16-1.67,2.37-2.44,3.63-1.57,2.56-2.76,4.99-3.66,7.27"/>
      <path class="cls-2" d="m95.8,1.21c-.82,1.24-1.88,3.39-1.39,6.06.41,2.27,1.79,4.04,2.85,5.15"/>
      <path class="cls-2" d="m137.83,1.21c.33,1.24.56,2.66.55,4.24,0,1.53-.23,2.91-.55,4.12"/>
      <path class="cls-2" d="m61.75,1.21c-4.22,4.94-10.37,14.28-6.44,25.43,1.14,3.22,2.92,6.06,4.89,8.48"/>
      <path class="cls-2" d="m155.31,54.25c4.44,7.49,8.55,16.31,11.16,26.29,3.41,13,3.39,24.56,2.08,34.03"/>
      <path class="cls-2" d="m55.31,76.9c-3.38,12.18-5.8,25.99-6.11,41.17-.37,17.87,2.27,33.94,6.11,47.8"/>
      <path class="cls-2" d="m102.18,5.27c2.36,0,2.36-1.82,0-1.82s-2.36,1.82,0,1.82h0Z"/>
    </g>
    <g id="selve_buksen">
      <g>
        <polygon class="cls-1" points="37.68 4.09 154.98 4.09 129.75 5.25 104.67 5.25 92.34 5.25 74.07 5.25 57.99 5.25 37.68 4.09"/>
        <path class="cls-3" d="m155.52,5.25l31.11,37.13c.81,1.39,1.95,3.38,3.25,5.8.53.99,4.1,7.64,5.42,11.02,1.42,3.64,2.53,9.45-.44,17.5-.43,2.25-1.04,5.78-2.27,10.06-2.17,7.54-5.42,15.08-7.58,22.62-5.42,21.46-1.08,41.77-3.25,62.65,0,1.74,2.17,4.06,3.25,5.8,0,2.9,1.08,5.22,1.08,8.12,1.08,4.06,3.25,8.7,4.33,12.76,4.33,25.53,13,49.89,20.58,74.83,4.33,2.9,2.17,6.38,4.33,9.28-9.75,13.92-29.25,24.94-43.87,37.42-2.79-1.25.62-1.4,0,0-3.79-2.03-8.12-3.77-11.37-6.09-9.75-6.38-15.17-13.92-27.08-19.14,1.08-15.08,0-29.59,2.17-44.67,2.17-24.36,17.33-49.31-1.08-72.51,1.08-3.48,1.08-6.96-3.25-9.86-1.08-.58,1.08-1.74,1.08-2.9,4.33-5.22,2.17-11.02,2.17-16.24-2.17-17.98-4.33-35.39-9.75-53.95-4.33-13.92-10.83-26.69-15.71-40.9-.17,1.55-.41,3.1-.33,4.66.42-1.54.61-3.1.33-4.66-2.71,14.21-1.62,28.72-2.71,43.22-1.08,6.38-2.17,12.76-3.25,19.72-5.42,17.98-8.67,34.81-17.33,52.21,0,1.16,2.17,2.32,3.25,3.48,4.33,12.18,2.17,23.2,7.58,35.39,1.08,4.06-1.08,8.12,0,12.18,5.42,22.04,9.75,42.93,11.92,64.97,1.08,4.06-4.33,6.96-7.58,10.44-6.5,5.22-14.08,9.28-20.58,14.5-3.25,2.32-5.42,4.64-10.83,5.8-1.08,0-1.08-.58-2.09-.77,1.43.21,2.6.82,2.63,1.64-.54-.29-2.71-.29-3.79-.87-8.67-4.64-16.25-8.7-24.92-13.34-7.58-3.48-15.17-6.96-22.75-11.02-2.17-1.16-3.25-2.32-3.25-3.48,0-11.02,4.33-21.46,5.42-32.49,0-1.74,2.17-4.06,3.25-5.8v-6.96c5.42-17.4,10.83-33.65,13-51.05,1.08-2.9-2.17-6.38-3.25-9.28,0-1.16,2.17-2.9,2.17-4.06,0-1.74-3.25-4.06-3.25-5.8,0-6.16-.06-16.58,1.08-19.14,7.46-16.76-16.24-41-21.12-83.83-.57-4.99-1.25-13.42-.54-24.07,8.85-13.44,17.69-26.88,26.54-40.32"/>
      </g>
      <path class="cls-2" d="m107.42,5.25c.47,1.37,1.02,3.62.73,6.38-.21,1.94-.77,3.52-1.29,4.64-.45,1.11-.88,2.27-1.29,3.48-.83,2.45-1.46,4.78-1.93,6.96"/>
      <path class="cls-2" d="m96.33,5.25c-.73,1.19-1.67,3.25-1.24,5.8.47,2.82,2.59,4.92,2.53,4.93-.05,0-1.46-1.48-1.88-3.56-.2-.98-.12-1.82,0-2.42"/>
      <path class="cls-2" d="m133.6,5.25c.29,1.19.5,2.55.49,4.06,0,1.46-.21,2.79-.49,3.95"/>
      <path class="cls-2" d="m66.13,5.25c-3.75,4.74-9.2,13.68-5.71,24.36,1.44,4.41,4.35,8.12,4.33,8.12-.02,0-4.54-5.06-3.99-11.42.04-.48.06-.4,1.13-6.04.48-2.54.87-4.63,1.13-6.04"/>
      <path class="cls-2" d="m149.1,56.06c3.93,7.18,7.58,15.63,9.9,25.18,3.03,12.46,3.01,23.53,1.85,32.61"/>
      <path class="cls-2" d="m60.42,77.77c-3,11.67-5.14,24.9-5.42,39.45-.32,17.12,2.01,32.52,5.42,45.79"/>
      <path class="cls-2" d="m101.98,9.15c2.09,0,2.09-1.74,0-1.74s-2.09,1.74,0,1.74h0Z"/>
    </g>
  </g>
</svg>