<?xml version="1.0" encoding="UTF-8"?>
<svg id="lotus" xmlns="http://www.w3.org/2000/svg" viewBox="0 0 230 200">
  <defs>
    <style>
      .cls-1, .cls-2 {
        stroke-width: 0px;
      }

      .cls-2 {
        fill: #c499a2;
      }
    </style>
  </defs>
  <g id="talebobbel">
    <path id="_1" data-name="1" class="cls-2" d="m26.33,128.48c-9.9,10.48-14.02,23.51-11.78,28.55,2.27,5.11,12.49,5.24,23.55-3.99-3.81,7.75-1.86,17.4,1.76,20.19,3.59,2.76,10.03-.27,12.28-9.12-.46,21.37,7.74,35.84,13.64,35.89,5.69.05,13.18-13.31,13.35-33.12,4.47,18.91,17.03,26.74,23.85,22.54,6.96-4.29,11.59-23.37,4.36-41.13,3.88,16.7,12.62,25.22,17.18,23.17,4.64-2.09,8.4-16.71,4.15-34.03.57,3.11,3.04,15,11.01,21.98,3.33,2.91,6.54,4.03,8.79,4.48,1.24.49,13,4.84,22.79-6.57,11.18-13.02,9.06-34.04,8.96-34.92,11.65-1.84,18.13-13.53,17.13-20.64-.92-6.63-8.9-13.34-18.97-11.49,9.05-7.51,12.61-22.05,9.78-31.9-3.45-12.02-17.08-19.36-28.55-8.82-.03-15.07-6.82-28.51-16.52-32.96-10.37-4.76-21.81,1.79-27.14,15.83-.59-17.85-10.68-31.06-20.66-30.8-11.14.29-21.27,17.32-18.61,37.16C74.16,12.03,60.66-2.38,52.54.32c-6.74,2.25-12.41,17.19-11.99,35.65-8.29-17.51-23.14-19.06-29.26-10.52-5.33,7.44-5.66,24.77,2.18,38.09-3.82,5.77-9.88,16.74-12.15,32.77-1.25,8.86-2.78,19.69,1.56,27.29,4.52,7.92,13.95,9.78,23.45,4.87Z"/>
    <path class="cls-2" d="m213.81,135.56c1.02,6.56-5.39,13.7-10.12,12.99-1.45-.22-2.44-1.12-4.05-2.6-2.23-2.04-6.47-5.93-6.07-10.39.41-4.5,5.36-7.42,9.11-7.79,4.44-.45,10.3,2.41,11.13,7.79Z"/>
    <path class="cls-2" d="m229.94,149.11c.57,3.69-3.03,7.7-5.69,7.3-.81-.12-1.37-.63-2.27-1.46-1.25-1.15-3.64-3.33-3.41-5.84.23-2.53,3.01-4.17,5.12-4.38,2.5-.25,5.79,1.35,6.26,4.38Z"/>
  </g>
  <g id="talebobbel-2" data-name="talebobbel">
    <path class="cls-1" d="m27.56,104.98c-.62,0-1.23-.02-1.78-.1-.22-.02-.24-.72-.28-1.03-.05-.46-.09-.84-.16-1.34-.35-2.56-.71-4.67-1.09-7.26-.13-.86-.09-.69-.3-2.2-.02-.19-.06-.36-.13-.77-.25-1.7-.38-2.88-.62-4.43v-.02c0-.29.39-.29.6-.29h.03c.16,0,.39.02.62.02h1.91c.36,0,.39.69.41.81,0,.05.02.12.02.17.06.41.13.79.17,1.22.22,1.65.09,1.25.36,3.26.05.46.27,1.63.3,2.25.02.29.08.6.11.86.24,1.75.35,2.16.43,2.16,0,0,.16-1.87.41-3.55.35-2.06.55-4.43.85-6.59.02-.12.02-.19.03-.29v-.02c.03-.14.09-.31.19-.31h.66c.49-.02.69-.1,1.25-.12.09,0,.25-.02.38-.02.09,0,.17.02.22.05.02.02.03.14.03.24,0,.07,0,.12-.02.17-.06.43-.16,1.39-.24,1.84-.08.46-.14.74-.22,1.2-.06.36-.66,4.41-.71,4.79-.19,1.84-.54,4-1.14,7.76-.05.36-.11.74-.16,1.13-.05.29-.06.31-.16.34h-.11c-.57.05-1.23.07-1.88.07Z"/>
    <path class="cls-1" d="m36.24,104.86h-.21c-.3,0-.52-.05-.82-.05h-.14c-.28.02-.84.05-1.07.05-.19,0-.38-.02-.57-.07s-.36-.12-.55-.19c-.13-.05-.19-.19-.21-.38-.02-.07-.02-.12-.02-.19,0-.43-.02-.86-.02-1.27v-3c0-.81,0-1.63-.02-2.44-.03-.96-.03-1.87-.03-2.75,0-1.34.02-2.63.02-4.05,0-.93.02-1.96.02-2.92.02-.19.08-.29.21-.29.41,0,.95.12,1.31.12.57.02,1.15.02,1.72.02.71,0,1.48-.02,2.16-.07h.16c.16,0,.28.02.39.19.05.05.05.33.05.43v.24c0,.48.02.89.02,1.27,0,.33,0,.67-.03,1.1v.91c.02.24.02.48.02.74,0,.24-.21.29-.38.29-.11,0-.22-.02-.32-.02-.52,0-1.25-.12-1.86-.12h-.47c-.06.02-.11.07-.13.17,0,.02,0,.05-.02.07v.93c0,.1,0,.17.02.26.03,0,.54-.05.79-.05h.92c.14,0,.28,0,.47.02.11,0,.19,0,.3.02.08,0,.28,0,.35.05.16.07.22.6.22.89v.36c0,.81-.02.46-.02,1.37v.05c0,.1,0,.12-.05.19-.02.02-.11.05-.14.05-.77.05-1.53.07-2.35.07-.14,0-.27.05-.39.1-.09.02-.13.1-.13.24-.02.48-.03.96-.03,1.44,0,.14.03.19.13.19.28.02.57.05.85.05h.21c.57,0,1.04.12,1.61.19.08.02.17,0,.25.02.16.05.21.19.21.43,0,.31.02.62.02.93v1.51c.02.62.03,1.49.05,2.11v.26c0,.26-.02.29-.14.36-.05.02-.08.05-.13.05-.5.07-1.12.1-1.72.1-.16,0-.3,0-.49.02Z"/>
    <path class="cls-1" d="m44.82,102.65c0,.38,0,.77-.03,1.15-.02.24.02.46-.05.67-.06.22-.17.33-.32.33-.16,0-.3-.02-.46-.02-.39,0-.8.05-1.2.05h-.16c-.19-.02-.38-.02-.57-.02s-.39,0-.58.02c-.14.02-.27.02-.41.02l-.96-.07c-.09-.02-.21-.02-.3-.05-.16-.05-.21-.14-.21-.38-.03-.77-.03-1.75-.03-2.59v-1.2c0-3.04,0-5.99-.09-8.98-.02-1.05-.09-2.3-.09-3.54,0-.05.02-.12.02-.17.02-.14,0-.26.11-.31.03-.02.08-.02.11-.02h.3c.08.02.14.02.22.02.76,0,.33-.07,1.15-.07.06.02.19,0,.3.02.11.02.19,0,.28.07.09.1.13.14.13.26,0,.05,0,.1-.02.17-.02.29-.03.6-.03.91-.03.67-.05,1.34-.05,2.01,0,.93.02,1.87.02,2.8v.72c-.02.77-.05,2.97-.05,3.76,0,.29,0,.5.02.6.02.17.05.36.08.55.05.22.14.33.3.36.19.05.38.05.57.05h.39c.35,0,.54-.05.87-.1.14,0,.32-.02.44-.02.19,0,.3.07.3.38v.07c-.02.24-.02.43-.02.62,0,.36.02.7.02,1.15v.77Z"/>
    <path class="cls-1" d="m48.86,98.46v.05c0,1.87-.02,3.71-.02,5.58v.36c0,.1-.03.17-.08.22-.08.07-.16.1-.27.1h-.03s-.08-.02-.14-.02c-.33-.02-.52-.05-.87-.05h-.09c-.41,0-1.04.02-1.33.02-.08,0-.17-.02-.27-.05-.14-.05-.16-.1-.16-.31-.03-2.32-.03-4.46-.03-6.78.02-.46.02-.89.02-1.34v-.38c0-2.49.05-5.01.05-7.43,0-.26,0-.53-.02-.79,0-.05,0-.12.02-.19.02-.12.09-.17.17-.17h.14c.24,0,.46.05.76.07h.5c.41,0,.57.02.82.02h.19c.06-.02.11-.02.16-.02s.09,0,.13.07c.08.12.09.29.09.43v.14c-.03.53-.03,1.05-.06,1.58-.02.24-.02.46-.02.69,0,1.37-.16,3.88-.16,4.17,0,0,.46-1.13.69-1.6.24-.5.35-.84.6-1.29.25-.48.49-1.41.71-1.94.16-.38.33-1.03.47-1.44.13-.33.14-.24.28-.58,0-.05.02-.07.03-.1.05-.1.11-.12.16-.12h.36c.27,0,.39.05.68.07h.08c.22,0,.49-.02.71-.02.14,0,.27,0,.35.05.09.07.19.17.27.29.02.05.03.1.03.14s-.02.07-.03.14c-.84,2.8-2.1,6.23-2.63,7.38.63,2.11,1.66,5.92,2.62,8.84.02.05.03.19.03.31,0,.02,0,.07-.02.07-.09.14-.43.17-.58.21-.13.05-.24.05-.32.05-.21,0-.33-.05-.52-.05-.06,0-.14,0-.24.02-.06.02-.16.02-.25.02-.13,0-.25-.02-.38-.05-.13-.05-.22-.07-.27-.24l-.02-.02c-.02-.1-.03-.17-.06-.26-.11-.43-.24-.81-.35-1.17-.17-.58-.35-1.13-.55-1.8-.08-.24-.13-.46-.22-.74-.3-.98-.62-1.75-.85-2.63l-.19.29s-.11.1-.11.19Z"/>
    <path class="cls-1" d="m58.46,104.52c-.35.31-.99.58-1.61.65h-.19c-.5,0-.93-.19-1.31-.53-.74-.67-1.15-1.8-1.39-3.16-.09-.6-.17-1.25-.22-1.92-.06-.98-.09-2.04-.13-3.09-.02-.34-.02-.72-.02-1.05,0-.5.02-1.01.03-1.53.02-.41.06-.81.08-1.22.13-1.87.25-3.09.84-4.22.25-.58.63-1.15,1.18-1.25.32-.07.68-.14,1.04-.14.63,0,1.29.17,1.75.62.19.17.39.33.55.57,1.03,1.37,1.29,3.33,1.29,6.73v.5c.02.43.02.86.02,1.29,0,2.97-.24,5.49-1.29,7.04-.19.29-.41.5-.63.69Zm-.84-11.86c-.05-.12-.25-.26-.46-.26h-.06c-.28.05-.52.24-.65.48-.3.58-.47,1.25-.55,1.99-.02.24-.05.53-.05.81v.26c.03.86.24,2.99.99,2.99,1.01,0,1.18-2.08,1.18-3.74,0-.29-.03-.53-.03-.79,0-.22-.02-.48-.06-.74-.08-.5-.14-.72-.32-1.01Z"/>
    <path class="cls-1" d="m61.25,87.46h.16c.17.02.32.02.46.02h.69c.3,0,.6,0,.92.07.08.02.16,0,.22.1.11.17.79,4.02.84,4.24.16.69.35,2.18.46,2.88.02.07.05.14.08.24.08-.17.11-.31.14-.48.16-.81.33-1.6.47-2.42.02-.12.05-.22.06-.31.03-.14.47-2.88.69-4.05.06-.31.08-.43.13-.48.03-.02.06-.02.09-.02.05,0,.13,0,.22.02.35.02.66.05.96.1.63.1,1.42,0,1.94.26.17.14.19.55.19.96v.5c0,1.08.02,2.25.02,3.35,0,1.46-.02,2.95-.02,4.43v6.66c0,.41-.02.89-.08,1.2-.05.17-.35.17-.6.17h-1.15c-.21,0-.41,0-.65-.02-.08,0-.13-.07-.19-.12s-.11-.14-.11-.29c-.02-.53-.02-1.05-.03-1.61v-1.13c0-.72,0-1.44.02-2.13.05-1.1.05-1.7.06-2.78,0-.24.02-.43.02-.62,0-.29-.02-.6-.02-.89-.69,3.28-.79,4.55-1.37,7.28-.06.33-.09.53-.27.53h-.08c-.11-.05-.14-.12-.19-.33-.3-1.29-.88-3.5-1.21-5.29-.06-.36-.13-.69-.27-1.1-.06-.19-.19-.62-.25-.62-.02,0-.03.02-.03.07-.06.5-.08,1.01-.08,1.49,0,2.44-.02,4.43-.02,7.04,0,.14-.03.22-.09.24-1.09.19-.49.26-1.72.26-.08,0-.19-.02-.28-.05-.19-.07-.24-.19-.25-.5,0-.46-.02-.96-.02-1.46v-.14c0-.55-.02-1.1-.02-1.68v-.48c0-.6-.02-1.2-.02-1.8-.02-.58-.02-1.2-.02-1.77s0-1.05.03-1.56c.03-.48.05-.93.05-1.41-.02-.77-.02-1.56-.03-2.35,0-.79-.02-1.65-.02-2.51,0-.26-.02-.5-.02-.77s.02-.53.06-.84c.02-.07.06-.1.11-.1Z"/>
    <path class="cls-1" d="m70.97,87.46h.16c.17.02.32.02.46.02h.69c.3,0,.6,0,.92.07.08.02.16,0,.22.1.11.17.79,4.02.84,4.24.16.69.35,2.18.46,2.88.02.07.05.14.08.24.08-.17.11-.31.14-.48.16-.81.33-1.6.47-2.42.02-.12.05-.22.06-.31.03-.14.47-2.88.69-4.05.06-.31.08-.43.13-.48.03-.02.06-.02.09-.02.05,0,.13,0,.22.02.35.02.66.05.96.1.63.1,1.42,0,1.94.26.17.14.19.55.19.96v.5c0,1.08.02,2.25.02,3.35,0,1.46-.02,2.95-.02,4.43v6.66c0,.41-.02.89-.08,1.2-.05.17-.35.17-.6.17h-1.15c-.21,0-.41,0-.65-.02-.08,0-.13-.07-.19-.12s-.11-.14-.11-.29c-.02-.53-.02-1.05-.03-1.61v-1.13c0-.72,0-1.44.02-2.13.05-1.1.05-1.7.06-2.78,0-.24.02-.43.02-.62,0-.29-.02-.6-.02-.89-.69,3.28-.79,4.55-1.37,7.28-.06.33-.09.53-.27.53h-.08c-.11-.05-.14-.12-.19-.33-.3-1.29-.88-3.5-1.21-5.29-.06-.36-.13-.69-.27-1.1-.06-.19-.19-.62-.25-.62-.02,0-.03.02-.03.07-.06.5-.08,1.01-.08,1.49,0,2.44-.02,4.43-.02,7.04,0,.14-.03.22-.09.24-1.09.19-.49.26-1.72.26-.08,0-.19-.02-.28-.05-.19-.07-.24-.19-.25-.5,0-.46-.02-.96-.02-1.46v-.14c0-.55-.02-1.1-.02-1.68v-.48c0-.6-.02-1.2-.02-1.8-.02-.58-.02-1.2-.02-1.77s0-1.05.03-1.56c.03-.48.05-.93.05-1.41-.02-.77-.02-1.56-.03-2.35,0-.79-.02-1.65-.02-2.51,0-.26-.02-.5-.02-.77s.02-.53.06-.84c.02-.07.06-.1.11-.1Z"/>
    <path class="cls-1" d="m84.15,104.86h-.21c-.3,0-.52-.05-.82-.05h-.14c-.28.02-.84.05-1.07.05-.19,0-.38-.02-.57-.07s-.36-.12-.55-.19c-.13-.05-.19-.19-.21-.38-.02-.07-.02-.12-.02-.19,0-.43-.02-.86-.02-1.27v-3c0-.81,0-1.63-.02-2.44-.03-.96-.03-1.87-.03-2.75,0-1.34.02-2.63.02-4.05,0-.93.02-1.96.02-2.92.02-.19.08-.29.21-.29.41,0,.95.12,1.31.12.57.02,1.15.02,1.72.02.71,0,1.48-.02,2.16-.07h.16c.16,0,.28.02.39.19.05.05.05.33.05.43v.24c0,.48.02.89.02,1.27,0,.33,0,.67-.03,1.1v.91c.02.24.02.48.02.74,0,.24-.21.29-.38.29-.11,0-.22-.02-.32-.02-.52,0-1.25-.12-1.86-.12h-.47c-.06.02-.11.07-.13.17,0,.02,0,.05-.02.07v.93c0,.1,0,.17.02.26.03,0,.54-.05.79-.05h.92c.14,0,.28,0,.47.02.11,0,.19,0,.3.02.08,0,.28,0,.35.05.16.07.22.6.22.89v.36c0,.81-.02.46-.02,1.37v.05c0,.1,0,.12-.05.19-.02.02-.11.05-.14.05-.77.05-1.53.07-2.35.07-.14,0-.27.05-.39.1-.09.02-.13.1-.13.24-.02.48-.03.96-.03,1.44,0,.14.03.19.13.19.28.02.57.05.85.05h.21c.57,0,1.04.12,1.61.19.08.02.17,0,.25.02.16.05.21.19.21.43,0,.31.02.62.02.93v1.51c.02.62.03,1.49.05,2.11v.26c0,.26-.02.29-.14.36-.05.02-.08.05-.13.05-.5.07-1.12.1-1.72.1-.16,0-.3,0-.49.02Z"/>
    <path class="cls-1" d="m89.66,94.94c.02.29.02.55.02.84v.36c-.02,1.29-.05,2.47-.05,3.67v1.82c0,.89-.03,1.65-.03,2.4v.07c0,.22,0,.34-.11.41-.03.02-.08.02-.11.05,0,0-.35.05-.36.05h-.38c-.22,0-.44-.02-.68-.02h-.33c-.19,0-.33-.19-.33-.48,0-.46.03-.91.03-1.39.02-.41.02-.81.02-1.22,0-.79.06-1.56.06-2.32v-.36c0-.53.03-.98.03-1.63.03-2.8.03-4.38.06-7.19.02-.77.03-1.34.05-1.99v-.41c0-.07.02-.12.06-.17.08-.07.13-.1.22-.1h.36c.35,0,.85.1,1.17.1.05,0,.96.02,1.01.02s.35.02.41.05c.06.02.11.1.13.22.88,4.38,1.88,10.18,2.11,11.26.02,0,.02.02.02.02.02,0,.02-.19.02-.5,0-.67-.03-1.87-.03-2.66,0-.74-.05-1.27-.05-1.92,0-1.34-.02-1.03-.02-1.7,0-.98-.05-1.99-.05-2.99,0-.46,0-.96.02-1.53,0-.02,0-.05.02-.07.05-.33.09-.31.32-.31.84,0,1.23.05,2.11.05h.43c.09,0,.21.02.3.07.08.05.13.1.13.24v.07c-.02.19,0,.36-.02.57-.05,2.11-.06,3.28-.09,5.39v2.18c.03,1.15.06,2.35.06,3.47v1.99c0,.58.02,1.13.05,1.7.03.48.05.93.06,1.41v.1c0,.19-.05.24-.21.29-.05.02-.11.02-.16.02-.08,0-.14,0-.22-.02-.41-.07-2.84-.07-3.2-.07h-.09c-.11-.02-.17-.12-.21-.29-.06-.43-.14-.84-.22-1.25-.13-.72-.3-1.41-.46-2.13-.13-.53-.25-1.08-.38-1.63-.16-.69-.3-1.39-.46-2.08-.13-.53-.24-1.08-.35-1.61-.06-.43-.17-.84-.27-1.27-.13-.53-.27-1.08-.38-1.61-.05-.17-.05-.21-.05-.24v-.05s-.02-.02-.02-.02v.05c0,.14.03.65.03,1.34v.96Z"/>
    <path class="cls-1" d="m103.26,92.83c-.21,0-.32.1-.62.1-.19.02-.22.02-.39.02-.03,0-.08,0-.11-.02l-.28-.07s-.11-.02-.14-.05c-.09-.1-.14-.19-.14-.33,0-1.75.03-1.58.03-3.47v-.96c0-.29.02-.43.05-.72,0-.19.09-.19.17-.19h.6c.27-.02.54-.05.79-.05.17,0,.46.02.62.02.19.02.36.02.55.02.38.02.77,0,1.15.05.38.07.9.05,1.28.07.24.05.49.05.73.05.08,0,.17.02.21.1.09.17.08.34.09.58.02.29.03.55.03.81s-.02.53-.03.81v.48c0,1.53.08.91.08,2.49,0,0,0,.05-.02.05-.03.14-.21.19-.41.19-.36,0-.28,0-.62.02-.11,0-.21.02-.28.02h-.06c-.06-.02-.11-.02-.16-.02-.14,0-.21.05-.22.17-.11.46-.13.96-.13,1.46,0,.24.03.43.03.69.02.1.02.19.02.31,0,1.44-.03,2.32-.03,3.86v1.27c0,1.01-.02,2.04-.02,3.09,0,.24,0,.46.02.7,0,.12,0,.19.02.29,0,.12-.03.17-.09.19-.14.02-.28.05-.43.05-.21,0-.41-.02-.62-.02-.25-.02-.35-.02-.62-.07-.24-.05-.66-.05-.71-.21-.02-.05-.05-.24-.05-.31h.02v-2.54c0-.89-.02-1.63-.03-2.66t-.02-.05s0-.02.02-.05c.02-1.84.03-2.49.03-4.72,0-.34.03-.67.03-1.03v-.19c0-.07-.02-.14-.06-.17-.11-.02-.21-.05-.27-.05Z"/>
    <path class="cls-1" d="m108.56,89.5c0-.58.02-1.01.02-1.51,0-.41.02-.48.09-.55.13-.14.39-.14.73-.14h.28c.19,0,.39,0,.65-.02h.8c.38,0,.54.02.66.07.13.05.16.12.16.19v.19c0,.38.02.74.02,1.08,0,.81-.03,1.51-.03,2.47-.03,1.94-.02,3.04-.03,5.01v1.08c0,2.28.06,3.83.06,6.13v1.1c0,.21-.13.26-.27.26-.92,0-1.83.02-2.65.02-.09,0-.19-.02-.3-.07-.06-.02-.08-.36-.08-.46,0-.77-.05-1.34-.05-2.23-.03-4.89-.05-7.64-.06-12.53v-.1Z"/>
    <path class="cls-1" d="m118.07,102.65c0,.38,0,.77-.03,1.15-.02.24.02.46-.05.67-.06.22-.17.33-.32.33-.16,0-.3-.02-.46-.02-.39,0-.8.05-1.2.05h-.16c-.19-.02-.38-.02-.57-.02s-.39,0-.58.02c-.14.02-.27.02-.41.02l-.96-.07c-.09-.02-.21-.02-.3-.05-.16-.05-.21-.14-.21-.38-.03-.77-.03-1.75-.03-2.59v-1.2c0-3.04,0-5.99-.09-8.98-.02-1.05-.09-2.3-.09-3.54,0-.05.02-.12.02-.17.02-.14,0-.26.11-.31.03-.02.08-.02.11-.02h.3c.08.02.14.02.22.02.76,0,.33-.07,1.15-.07.06.02.19,0,.3.02.11.02.19,0,.28.07.09.1.13.14.13.26,0,.05,0,.1-.02.17-.02.29-.03.6-.03.91-.03.67-.05,1.34-.05,2.01,0,.93.02,1.87.02,2.8v.72c-.02.77-.05,2.97-.05,3.76,0,.29,0,.5.02.6.02.17.05.36.08.55.05.22.14.33.3.36.19.05.38.05.57.05h.39c.35,0,.54-.05.87-.1.14,0,.32-.02.44-.02.19,0,.3.07.3.38v.07c-.02.24-.02.43-.02.62,0,.36.02.7.02,1.15v.77Z"/>
    <path class="cls-1" d="m124.28,104.86h-.08c-.17-.02-.3-.1-.44-.19-.09-.05-.14-.22-.14-.36v-.36c0-.38-.02-.77-.02-1.13,0-.19.02-.36.02-.57.05-4.48.09-7.02.13-11.5v-.14c0-.46-.02-.81-.02-1.2,0-.48.02-1.05.05-1.92.02-.19.02-.29.14-.31.06,0,.13-.02.17-.02s.09.02.14.02c.14.02.25.02.43.05.19.05.35.05.49.05h.25c.24,0,.44.02.71.14.06.02.08.12.08.24v6.49c0,.67-.05,1.08-.05,1.75,0,.48-.05,1.03-.05,1.46,0,.26.02.48.09.58.25.38,1.42.41,2.11.41h.19c.22,0,.3.33.3.74,0,1.84.05,3.74.05,5.46-.02.12-.05.19-.13.21-.08.02-.17.02-.25.02-.68,0-1.36.05-2.11.05h-.39c-.58,0-1.14.02-1.67.02Z"/>
    <path class="cls-1" d="m134.17,104.52c-.35.31-.99.58-1.61.65h-.19c-.5,0-.93-.19-1.31-.53-.74-.67-1.15-1.8-1.39-3.16-.09-.6-.17-1.25-.22-1.92-.06-.98-.09-2.04-.13-3.09-.02-.34-.02-.72-.02-1.05,0-.5.02-1.01.03-1.53.02-.41.06-.81.08-1.22.13-1.87.25-3.09.84-4.22.25-.58.63-1.15,1.18-1.25.32-.07.68-.14,1.04-.14.63,0,1.29.17,1.75.62.19.17.39.33.55.57,1.03,1.37,1.29,3.33,1.29,6.73v.5c.02.43.02.86.02,1.29,0,2.97-.24,5.49-1.29,7.04-.19.29-.41.5-.63.69Zm-.84-11.86c-.05-.12-.25-.26-.46-.26h-.06c-.28.05-.52.24-.65.48-.3.58-.47,1.25-.55,1.99-.02.24-.05.53-.05.81v.26c.03.86.24,2.99.99,2.99,1.01,0,1.18-2.08,1.18-3.74,0-.29-.03-.53-.03-.79,0-.22-.02-.48-.06-.74-.08-.5-.14-.72-.32-1.01Z"/>
    <path class="cls-1" d="m138.21,92.83c-.21,0-.32.1-.62.1-.19.02-.22.02-.39.02-.03,0-.08,0-.11-.02l-.28-.07s-.11-.02-.14-.05c-.09-.1-.14-.19-.14-.33,0-1.75.03-1.58.03-3.47v-.96c0-.29.02-.43.05-.72,0-.19.09-.19.17-.19h.6c.27-.02.54-.05.79-.05.17,0,.46.02.62.02.19.02.36.02.55.02.38.02.77,0,1.15.05.38.07.9.05,1.28.07.24.05.49.05.73.05.08,0,.17.02.21.1.09.17.08.34.09.58.02.29.03.55.03.81s-.02.53-.03.81v.48c0,1.53.08.91.08,2.49,0,0,0,.05-.02.05-.03.14-.21.19-.41.19-.36,0-.28,0-.62.02-.11,0-.21.02-.28.02h-.06c-.06-.02-.11-.02-.16-.02-.14,0-.21.05-.22.17-.11.46-.13.96-.13,1.46,0,.24.03.43.03.69.02.1.02.19.02.31,0,1.44-.03,2.32-.03,3.86v1.27c0,1.01-.02,2.04-.02,3.09,0,.24,0,.46.02.7,0,.12,0,.19.02.29,0,.12-.03.17-.09.19-.14.02-.28.05-.43.05-.21,0-.41-.02-.62-.02-.25-.02-.35-.02-.62-.07-.24-.05-.66-.05-.71-.21-.02-.05-.05-.24-.05-.31h.02v-2.54c0-.89-.02-1.63-.03-2.66t-.02-.05s0-.02.02-.05c.02-1.84.03-2.49.03-4.72,0-.34.03-.67.03-1.03v-.19c0-.07-.02-.14-.06-.17-.11-.02-.21-.05-.27-.05Z"/>
    <path class="cls-1" d="m146.45,88.71c0,2.61-.16,4.22-.16,7.04v.05c0,.26-.02.57-.02.84v.34c0,.98.02,1.99.43,2.4.11.12.3.24.5.24.19,0,.38-.1.5-.31.02-.05.05-.07.06-.12.24-.46.47-1.34.47-2.64v-.12c0-2.63.11-5.08.11-7.59v-1.32c0-.1.08-.1.14-.1h.09c1.1.05,1.29.05,2.4.24.14.02.14.26.14.5v.31c0,1.01-.06,1.75-.06,2.78v.31c.02.14.02.31.02.43,0,.91-.02,1.87-.02,2.78v.17c0,.62-.03,1.51-.06,2.13-.03.36-.02.77-.03,1.15-.03.58-.03,1.17-.06,1.75-.24,2.88-.87,4.31-2.56,4.96-.05,0-.11.05-.17.07-.46.17-.93.31-1.44.31-.19,0-.39-.02-.6-.07-.3-.07-.58-.19-.84-.41-.77-.58-1.21-1.7-1.47-3.09-.36-1.96-.35-4.46-.38-6.83v-1.77c0-.86.02-1.75.02-2.59v-.53c0-.81-.02-1.56-.02-2.35,0-.12.03-.22.11-.24.13-.02.24-.05.35-.05h2.1c.14,0,.3,0,.36.22.02.1.06.31.06.46v.65Z"/>
    <path class="cls-1" d="m155.71,93.19c-.13.17-.19.36-.19.6,0,.07,0,.14.02.22.05.33.13.62.33.84.27.26.54.5.82.74.49.41.98.84,1.42,1.39.38.43.74,1.1.96,1.89.14.5.22,1.05.22,1.65,0,.17,0,.31-.02.48-.09,1.46-.63,2.78-1.4,3.33-.33.22-.62.26-1.03.38-.5.14-1.04.19-1.61.19-.54,0-1.07-.02-1.56-.05-.44-.02-1.09-.05-1.5-.24-.17-.07-.32-.12-.44-.26-.06-.07-.09-.19-.09-.29-.02-.1-.02-.19-.02-.29,0-.46-.02-.91-.02-1.37v-1.37c0-.22-.02-.41-.02-.62,0-.33-.02-.55-.02-.72,0-.29.05-.31.32-.38.06-.02.25-.02.32-.02.5,0,.99.02,1.51.02h.36c.17,0,.44-.07.44-.07.05-.02.09-.05.14-.1.19-.17.36-.36.52-.6.13-.19.19-.43.19-.67,0-.43-.25-.81-.55-1.15-.36-.38-.79-.67-1.04-.81-.22-.12-.46-.21-.68-.38-.35-.26-.68-.62-.93-1.1-.17-.31-.33-.67-.41-1.05-.08-.33-.11-.65-.17-1.05-.02-.14-.02-.26-.02-.38,0-.17,0-.33.03-.53.03-.21.06-.36.09-.57.02-.07.02-.1.03-.17.43-1.29.96-2.13,1.81-2.78.06-.05.11-.07.17-.12.68-.36,1.51-.46,2.38-.46h.87c.55,0,1.25.02,1.75.14.09.02.3.02.36.17.11.17.14.31.17.55.02.14,0,.29.02.46v1.01c0,.34.02.7.02,1.03,0,1.29-.02.31-.02,1.61,0,.07,0,.17-.02.24-.02.17-.13.19-.25.19h-.32c-.13,0-.38.02-.65.02h-.24c-.17-.02-.38-.02-.58-.02-.22,0-.43,0-.62.05-.49.1-.57-.02-.9.43Z"/>
  </g>
</svg>