<?xml version="1.0" encoding="UTF-8"?>
<svg id="lotus" xmlns="http://www.w3.org/2000/svg" viewBox="0 0 330 260">
  <defs>
    <style>
      .cls-1, .cls-2 {
        stroke-width: 0px;
      }

      .cls-2 {
        fill: #c499a2;
      }
    </style>
  </defs>
  <path id="talebobbel" class="cls-2" d="m20.49,252.6c.83,4.16-4.39,8.68-8.23,8.23-1.18-.14-1.98-.71-3.29-1.65-1.81-1.29-5.27-3.76-4.94-6.58.33-2.85,4.36-4.7,7.41-4.94,3.61-.28,8.38,1.52,9.05,4.94Z"/>
  <path id="talebobbel-2" data-name="talebobbel" class="cls-2" d="m44.42,233.23c1.36,6.84-7.22,14.28-13.54,13.54-1.94-.23-3.26-1.17-5.42-2.71-2.98-2.12-8.67-6.18-8.13-10.84.55-4.7,7.18-7.73,12.19-8.13,5.94-.47,13.78,2.51,14.9,8.13Z"/>
  <path id="talebobbel-3" data-name="talebobbel" class="cls-2" d="m42.29,85.21c-17.5-10.92-25.61-25.37-22.36-31.38,3.29-6.09,20.32-7.34,39.64,2.02-7.09-8.45-4.75-19.7,1.02-23.28,5.72-3.55,16.75-.77,21.35,9.11C79.13,17.3,91.42-.14,101.24-.83c9.49-.67,23.25,13.8,25.41,36.44,5.65-22.1,25.84-32.42,37.61-28.34,12.01,4.16,21.55,25.48,11.18,46.57,4.88-19.52,18.63-30.2,26.43-28.34,7.94,1.89,15.6,18.2,10.16,38.47.66-3.62,3.63-17.48,16.26-26.32,5.27-3.69,10.52-5.31,14.23-6.07,2.02-.7,21.21-6.93,38.63,5.06,19.87,13.69,18.34,37.96,18.26,38.97,19.59.85,31.5,13.53,30.53,21.76-.91,7.68-13.57,16.21-30.53,15.18,15.8,7.61,23.12,23.86,19.35,35.43-4.61,14.12-26.63,23.98-46.76,13.16,1.39,17.24-8.65,33.34-24.39,39.48-16.84,6.56-36.52.3-46.76-15.18.72,20.48-14.84,36.68-31.51,37.46-18.59.87-37.11-17.51-34.56-40.49-1.67,30.84-22.8,48.78-36.59,46.57-11.46-1.84-22.32-18.32-23.38-39.48-12.15,20.92-36.75,24.29-47.77,15.18-9.59-7.93-11.8-27.72,0-43.8-6.93-6.19-18.07-18.08-23.38-36.17-2.93-10-6.52-22.21,0-31.38,6.79-9.55,22.32-12.69,38.63-8.1Z"/>
  <g id="talebobbel-4" data-name="talebobbel">
    <path class="cls-1" d="m37.1,127.12c-.29-.6-.41-1.57-.48-2.39-.05-.6-.07-1.22-.09-1.84-.01-.6-.02-1.52-.04-2.12v-.7c0-.22.01-.47.01-.7.01-.15.04-.2.11-.22.73,0,1.46,0,2.17.17.09,0,.18.03.26.1.07.08.12.17.12.37v.22c0,.55-.02,1.15-.02,1.72,0,.3.01.6.02.9.02.3.02.55.15.85.07.17.27.47.39.47.22,0,.46-.5.55-.77.04-.08.05-.17.07-.25.09-.45.11-1.2.12-1.67v-.5c0-.42,0-.85-.01-1.25-.02-.42-.01-.75-.02-1.24-.04-2.44-.05-4.43-.05-6.97v-.3c0-.1-.01-.25-.01-.37,0-.17.01-.32.09-.37h.12c.12,0,.22.03.31.03.17,0,.29-.03.5-.03h.74c.09.03.12.1.13.25.01.1.01.2.01.27v.4c.02.6.02,1.17.04,1.77.06,2.24.02,4.18.05,6.87v.25c0,1.07-.04,2.17-.04,3.26-.12,2.52-.33,5.03-1.48,5.43-.48.12-.87.25-1.44.25-.95,0-1.79-.82-2.3-1.89Z"/>
    <path class="cls-1" d="m45.77,128.59h-.16c-.23,0-.41-.05-.64-.05h-.11c-.22.02-.65.05-.84.05-.15,0-.29-.02-.44-.07s-.28-.12-.43-.2c-.1-.05-.15-.2-.16-.4-.01-.07-.01-.12-.01-.2,0-.45-.01-.9-.01-1.32v-3.11c0-.85,0-1.69-.01-2.54-.02-1-.02-1.94-.02-2.86,0-1.39.01-2.74.01-4.21,0-.97.01-2.04.01-3.04.01-.2.06-.3.16-.3.32,0,.74.12,1.02.12.44.03.9.03,1.34.03.55,0,1.16-.03,1.68-.07h.12c.12,0,.22.02.31.2.04.05.04.35.04.45v.25c0,.5.01.92.01,1.32,0,.35,0,.7-.03,1.15v.95c.01.25.01.5.01.77,0,.25-.16.3-.29.3-.09,0-.17-.03-.25-.03-.41,0-.97-.12-1.45-.12h-.37s-.09.08-.1.17c0,.02,0,.05-.01.08v.97c0,.1,0,.17.01.27.03,0,.42-.05.62-.05h.71c.11,0,.22,0,.37.02.09,0,.15,0,.23.02.06,0,.22,0,.27.05.12.07.17.62.17.92v.37c0,.85-.01.47-.01,1.42v.05c0,.1,0,.12-.04.2-.01.03-.09.05-.11.05-.6.05-1.19.08-1.83.08-.11,0-.21.05-.31.1-.07.02-.1.1-.1.25-.01.5-.02,1-.02,1.49,0,.15.02.2.1.2.22.03.44.05.66.05h.16c.44,0,.81.12,1.25.2.06.02.14,0,.2.02.12.05.16.2.16.45,0,.32.01.65.01.97v1.57c.01.65.02,1.54.04,2.19v.27c0,.27-.01.3-.11.37-.04.03-.06.05-.1.05-.39.08-.87.1-1.34.1-.12,0-.23,0-.38.02Z"/>
    <path class="cls-1" d="m51.23,113.73c-.14.2-.43.87-.48,1.37-.12,1.22-.15,2.04-.15,2.91,0,.57.01,1.17.01,1.92v.2c0,.22,0,.5.01.72.02.7.02,1,.09,1.67.07.85.18,1.17.52,1.52.07.07.16.1.23.15h.05c.14,0,.23-.12.34-.2.2-.17.31-.67.31-1.05,0-.27-.04-.5-.15-.6l-.15-.15c-.07-.08-.17-.12-.26-.12-.04,0-.07,0-.11.02-.02,0-.04.02-.06.02-.07,0-.14-.07-.2-.2-.01-.05-.04-.1-.04-.17-.01-.3-.03-.55-.03-.8,0-.15,0-.3.03-.47.02-.17.09-.27.17-.27h.31c.68,0,1.34.08,1.96.08.1,0,.17.02.25.07.07.05.18.32.18.5,0,.82,0,1.2.01,1.57.03,1.1.04,2.69.1,4.06.01.3.01.6.01.92v.7c0,.12,0,.52-.05.52-.16,0-.25,0-.38.05-.05.02-.11.02-.16.02-.09,0-.18-.02-.27-.02-.04,0-.06.02-.1.02h-.05c-.11,0-.18-.15-.21-.4,0-.1-.01-.2-.01-.35-.04.02-.07,0-.1.02-.23.22-.48.37-.73.5-.16.08-.32.1-.47.15-.17.03-.33.05-.49.05-.1,0-.2.02-.29.02-.89,0-1.6-.85-2.04-1.89-.16-.4-.26-.85-.34-1.32-.12-.65-.22-1.29-.27-1.97-.12-1.07-.16-2.49-.16-3.73v-1.1c0-.25.01-.52.02-.75.09-1.92.16-3.41.44-4.86.22-1.1.65-1.92,1.16-2.46.06-.08.14-.12.2-.17.18-.17.37-.27.57-.35.38-.12.81-.22,1.24-.22s.85.1,1.21.37c.16.1.31.25.46.4.17.17.32.45.42.8.09.25.15.52.2.82.15.82.2,1.74.2,2.84-.01.37-.01.77-.01,1.14,0,.35-.02.72-.05,1.07-.03.3-.06,1.07-.09,1.37-.02.22-.04.37-.15.45-.1.05-.21.05-.31.05h-.39c-.13,0-.22.02-.36.05-.17.03-.26.03-.43.05h-.09c-.13-.03-.21,0-.33-.08-.09-.05-.12-.12-.18-.25-.02-.05-.02-.12-.04-.2-.01-.45-.03-1.34-.03-1.79,0-.3.03-.52.03-.87.01-.57.01-.9.01-1.47,0-.8,0-1.02-.25-1.02-.1,0-.21.02-.28.12Z"/>
    <path class="cls-1" d="m61.75,116.46c-.1.17-.15.37-.15.62,0,.07,0,.15.01.22.04.35.1.65.26.87.21.27.42.52.64.77.38.42.76.87,1.11,1.44.29.45.58,1.15.75,1.97.11.52.17,1.1.17,1.72,0,.17,0,.32-.01.5-.07,1.52-.49,2.89-1.09,3.46-.26.22-.48.27-.8.4-.39.15-.81.2-1.25.2-.42,0-.84-.03-1.22-.05-.34-.02-.85-.05-1.17-.25-.14-.08-.25-.12-.34-.27-.05-.08-.07-.2-.07-.3-.01-.1-.01-.2-.01-.3,0-.47-.01-.95-.01-1.42v-1.42c0-.22-.01-.42-.01-.65,0-.35-.01-.57-.01-.75,0-.3.04-.32.25-.4.05-.03.2-.03.25-.03.39,0,.77.03,1.18.03h.28c.13,0,.34-.07.34-.07.04-.03.07-.05.11-.1.15-.17.28-.37.41-.62.1-.2.15-.45.15-.7,0-.45-.2-.85-.43-1.2-.28-.4-.62-.7-.81-.85-.17-.12-.36-.22-.53-.4-.27-.27-.53-.65-.73-1.15-.14-.32-.26-.7-.32-1.1-.06-.35-.09-.67-.13-1.1-.01-.15-.01-.27-.01-.4,0-.17,0-.35.02-.55.03-.22.05-.37.07-.6.01-.08.01-.1.02-.17.33-1.34.75-2.22,1.42-2.89.05-.05.09-.07.13-.12.53-.37,1.18-.47,1.86-.47h.68c.43,0,.97.03,1.37.15.07.02.23.02.28.17.09.17.11.32.13.57.01.15,0,.3.01.47v1.05c0,.35.01.72.01,1.07,0,1.35-.01.32-.01,1.67,0,.08,0,.17-.01.25-.01.17-.1.2-.2.2h-.25c-.1,0-.29.03-.5.03h-.18c-.14-.03-.29-.03-.46-.03-.17,0-.33,0-.48.05-.38.1-.44-.02-.7.45Z"/>
    <path class="cls-1" d="m67.7,121.94v.05c0,1.94-.01,3.86-.01,5.8v.37c0,.1-.02.17-.06.22-.06.08-.12.1-.21.1h-.02s-.06-.02-.11-.02c-.26-.02-.41-.05-.68-.05h-.07c-.32,0-.81.03-1.03.03-.06,0-.14-.03-.21-.05-.11-.05-.12-.1-.12-.32-.03-2.42-.03-4.63-.03-7.05.01-.47.01-.92.01-1.39v-.4c0-2.59.04-5.2.04-7.72,0-.27,0-.55-.01-.82,0-.05,0-.12.01-.2.01-.12.07-.17.13-.17h.11c.18,0,.36.05.59.07h.39c.32,0,.44.03.64.03h.15s.09-.03.12-.03.07,0,.1.07c.06.12.07.3.07.45v.15c-.02.55-.02,1.1-.05,1.64-.01.25-.01.47-.01.72,0,1.42-.12,4.03-.12,4.33,0,0,.36-1.17.54-1.67.18-.52.27-.87.47-1.35.2-.5.38-1.47.55-2.02.12-.4.26-1.07.37-1.49.1-.35.11-.25.22-.6,0-.05.01-.08.03-.1.04-.1.09-.12.12-.12h.28c.21,0,.31.05.53.07h.06c.17,0,.38-.03.55-.03.11,0,.21,0,.27.05.07.07.15.17.21.3.01.05.02.1.02.15s-.01.08-.02.15c-.65,2.91-1.64,6.47-2.05,7.67.49,2.19,1.29,6.15,2.04,9.19.01.05.02.2.02.32,0,.03,0,.08-.01.08-.07.15-.33.17-.46.22-.1.05-.18.05-.25.05-.16,0-.26-.05-.41-.05-.05,0-.11,0-.18.03-.05.03-.12.03-.2.03-.1,0-.2-.03-.29-.05-.1-.05-.17-.07-.21-.25v-.03c-.02-.1-.04-.17-.06-.27-.09-.45-.18-.85-.27-1.22-.13-.6-.27-1.17-.43-1.87-.06-.25-.1-.47-.17-.77-.23-1.02-.48-1.82-.66-2.74l-.15.3s-.09.1-.09.2Z"/>
    <path class="cls-1" d="m72.12,123.81c.05-.25.21-2.49.23-2.76.02-.22.05-.42.07-.65.06-.4.09-1.77.15-2.14.02-.15.04-.27.04-.4.05-.67.12-1.47.2-2.34.02-.3.04-.62.07-.95.05-.62.12-1.29.18-1.97.09-.7.17-1.27.26-2.02.01-.1.05-.12.11-.12h.18c.09-.05.38-.07.68-.07.33,0,.66.03.76.05.07,0,.13.02.18.02.16,0,.36-.02.55-.02.34,0,.7.05.9.3.02.08.02.12.02.2.09.72.06.92.17,1.62.04.3.1,1.07.14,1.35.06.65.12,1.27.2,1.92.04.35.06.7.11,1.05.3,2.54.52,5.11.84,7.54.02.3.04.45.07.75v.05c.05.45.09.75.14,1.22,0,.03.1,1.12.1,1.15.01.02.07.82.07.85v.05c0,.12-.11.15-.25.15-.12,0-.28-.03-.42-.03h-.07c-.22.03-.65.03-.87.03h-.93c-.07,0-.12-.95-.18-1.59-.06-.57-.11-1.29-.12-1.49-.03-.37-.05-.75-.09-1.1-.01-.07-.02-.15-.02-.22-.05-.7-.09-1.12-.16-1.82-.01-.17-.05-.27-.13-.3-.04-.02-.59-.08-.64-.08-.06-.02-.14-.05-.2-.05-.07,0-.15.02-.23.05-.09.03-.09,1.29-.1,1.79-.01.37-.01.8-.03,1.25,0,.45-.01.9-.01,1.32-.01.32-.01.62-.02.87,0,.3-.01.52-.01.72-.02.47-.05.57-.21.6-.14.02-.62.02-1.02.1-.12.05-.25.02-.36.05h-.25s-.1.03-.13.03c-.21,0-.27-.1-.27-.37,0-.12.01-.27.02-.47.1-1.32.25-3.83.28-4.08Zm3.15-4.28c-.12-1.87-.18-2.91-.31-4.78-.01-.07,0-.15-.04-.17-.04-.05-.11-.12-.17-.12h-.01s-.07.03-.07.05c-.06.65-.33,4.43-.34,5.08v.02c0,.08,0,.12.01.17.01.05.04.1.07.1h.01c.09-.03.27-.03.43-.03h.26c.14,0,.2-.07.16-.32Z"/>
    <path class="cls-1" d="m83.14,126.3c0,.4,0,.8-.02,1.2-.01.25.01.47-.04.7-.05.22-.14.35-.25.35-.12,0-.23-.03-.36-.03-.31,0-.63.05-.93.05h-.12c-.15-.02-.3-.02-.44-.02s-.31,0-.46.02c-.11.02-.21.02-.32.02l-.75-.07c-.07-.03-.16-.03-.23-.05-.12-.05-.16-.15-.16-.4-.03-.8-.03-1.82-.03-2.69v-1.25c0-3.16,0-6.23-.07-9.34-.01-1.1-.07-2.39-.07-3.69,0-.05.01-.12.01-.17.01-.15,0-.27.09-.32.02-.03.06-.03.09-.03h.23c.06.03.11.03.17.03.59,0,.26-.08.9-.08.05.02.15,0,.23.02.09.03.15,0,.22.08.07.1.1.15.1.27,0,.05,0,.1-.01.17-.01.3-.02.62-.02.95-.02.7-.04,1.39-.04,2.09,0,.97.01,1.94.01,2.91v.75c-.01.8-.04,3.09-.04,3.91,0,.3,0,.52.01.62.01.17.04.37.06.57.04.22.11.35.23.37.15.05.29.05.44.05h.31c.27,0,.42-.05.68-.1.11,0,.25-.02.34-.02.15,0,.23.08.23.4v.08c-.01.25-.01.45-.01.65,0,.37.01.72.01,1.2v.8Z"/>
    <path class="cls-1" d="m93.66,123.11c0,.22,0,.42-.01.6-.02.4-.06.77-.12,1.15-.04.2-.09.37-.14.57-.04.15-.09.27-.13.42-.14.45-.27.9-.47,1.24-.07.12-.15.3-.22.45-.11.2-.25.35-.39.47-.25.22-.5.37-.76.47-.23.08-.48.1-.74.1-.23,0-.49-.02-.74-.02-.44,0-.71.02-1.11.02h-.16c-.09,0-.13-.02-.22-.05-.21-.08-.41-.08-.59-.2-.17-.1-.23-.17-.26-.67l-.04-.82c0-.5-.01-.97-.01-1.47.01-.5.03-.97.03-1.49,0-3.86-.1-8.02-.1-11.78,0-.35,0-.72.02-1.07.01-.17,0-.35.01-.52.01-.17.05-.25.11-.25h.02c1.02-.02,1.6-.02,2.62-.07.36-.03.61-.07.91-.1h.07c.31,0,.74.15,1.01.32.17.1.36.27.48.57.09.2.18.37.27.57.11.22.18.47.25.77.18.87.23,1.62.26,2.49v.37c0,1.74-.23,2.54-.81,3.54-.04.08-.1.12-.11.25.04.15.11.2.17.27.17.15.29.37.43.6.11.17.17.42.22.65.12.62.21,1.25.23,1.94.01.25.01.45.01.67Zm-3.84-5.43h.26c.12,0,.46,0,.58-.05.23-.07.34-.4.42-.8.02-.25.04-.55.04-.87,0-.3-.01-.62-.01-.87v-.12c-.01-.3-.22-.5-.38-.52-.09-.02-.41-.05-.5-.05-.06,0-.13.02-.21.02-.05,0-.12.02-.17.1-.01.2-.02.4-.05.6-.01.15-.01.3-.01.45v.3c.01.47.01.95.02,1.42,0,.1.01.25.02.4Zm1.17,4.81c0-.17,0-.32-.01-.5-.02-.37-.28-.67-.47-.72h-.06c-.15,0-.31.1-.46.15-.06.03-.09.08-.09.22,0,.12.01.5.01.82.01.55.01.8.01,1.42v.4s.04.12.07.12h.01c.49,0,.97-.05.97-1.17v-.75Z"/>
    <path class="cls-1" d="m99.26,123.34c.27,1.05.68,2.24.91,3.16.07.25.13.5.18.75.06.25.11.52.17.8.01.05.01.07.01.12,0,.08-.01.12-.04.2-.02.1-.27.3-.48.3h-.04c-.15-.02-.48-.05-.64-.05-.11,0-.18-.03-.29-.03-.12,0-.25.08-.34.08-.04,0-.06-.02-.09-.05-.06-.12-.16-.62-.31-1.17-.05-.2-.11-.4-.15-.57-.15-.6-.36-1.2-.5-1.77-.12-.45-.25-.92-.37-1.37-.1-.32-.2-.65-.29-1-.06-.2-.6-2.04-.82-2.32,0,.1-.01.4-.01.45-.01.5-.01.8-.01,1.02,0,.47.01.57.01,1.37,0,1.27.01,2.39.01,3.71v.92c0,.3-.01.57-.15.57-.52,0-.9-.02-1.5-.02h-.22c-.14,0-.18-.1-.18-.42v-.82c.01-2.46.06-4.76.06-7.64,0-1.52-.01-2.99-.01-4.48v-1c0-.52-.01-.95-.01-1.54v-1.77c0-.07.01-.12.01-.2.01-.15.04-.17.09-.17h.11c.06,0,.16-.03.25-.03.28,0,.47-.02.69-.02.15,0,.28.02.47.02.36.03.76.03,1.16.03h1.02c.81.03,1.65.03,2.05,1.02.25.65.39,1.22.53,2.02.05.35.06.67.06,1,0,2.51-.69,5.48-1.66,6.03-.14.07-.41.1-.55.1-.01,0-.01.03-.01.05,0,.25.62,1.74.81,2.42.04.15.05.2.09.32Zm-1.24-7c.06-.2.09-1.39.09-1.57,0-.25-.05-.47-.16-.65-.31-.42-.71-.6-1.09-.6-.27,0-.38.12-.44.2-.02.02-.02.08-.02.12v.03c0,.27.01.62.01.97,0,.25-.01,1.49-.01,1.74,0,.2.01.4.01.57.06.03.25.03.37.03h.11c.41-.08.16,0,.66-.2.18-.08.36-.27.48-.65Z"/>
    <path class="cls-1" d="m103.37,111.81c0,2.71-.12,4.38-.12,7.32v.05c0,.27-.01.6-.01.87v.35c0,1.02.01,2.07.33,2.49.09.12.23.25.39.25.15,0,.3-.1.39-.32.01-.05.04-.07.05-.12.18-.47.37-1.39.37-2.74v-.12c0-2.74.09-5.28.09-7.89v-1.37c0-.1.06-.1.11-.1h.07c.86.05,1.01.05,1.87.25.11.02.11.27.11.52v.32c0,1.05-.05,1.82-.05,2.89v.32c.01.15.01.32.01.45,0,.95-.01,1.94-.01,2.89v.17c0,.65-.02,1.57-.05,2.22-.02.37-.01.8-.02,1.2-.02.6-.02,1.22-.05,1.82-.18,2.99-.68,4.48-1.99,5.16-.04,0-.09.05-.14.08-.36.17-.73.32-1.12.32-.15,0-.31-.02-.47-.08-.23-.07-.46-.2-.65-.42-.6-.6-.95-1.77-1.14-3.21-.28-2.04-.27-4.63-.29-7.1v-1.84c0-.9.01-1.82.01-2.69v-.55c0-.85-.01-1.62-.01-2.44,0-.12.02-.22.09-.25.1-.03.18-.05.27-.05h1.64c.11,0,.23,0,.28.22.01.1.05.32.05.47v.67Z"/>
    <path class="cls-1" d="m110.61,113.73c-.14.2-.43.87-.48,1.37-.12,1.22-.15,2.04-.15,2.91,0,.57.01,1.17.01,1.92v.2c0,.22,0,.5.01.72.02.7.02,1,.09,1.67.07.85.18,1.17.52,1.52.07.07.16.1.23.15h.05c.14,0,.23-.12.34-.2.2-.17.31-.67.31-1.05,0-.27-.04-.5-.15-.6l-.15-.15c-.07-.08-.17-.12-.26-.12-.04,0-.07,0-.11.02-.02,0-.04.02-.06.02-.07,0-.14-.07-.2-.2-.01-.05-.04-.1-.04-.17-.01-.3-.03-.55-.03-.8,0-.15,0-.3.03-.47.02-.17.09-.27.17-.27h.31c.68,0,1.34.08,1.96.08.1,0,.17.02.25.07.07.05.18.32.18.5,0,.82,0,1.2.01,1.57.03,1.1.04,2.69.1,4.06.01.3.01.6.01.92v.7c0,.12,0,.52-.05.52-.16,0-.25,0-.38.05-.05.02-.11.02-.16.02-.09,0-.18-.02-.27-.02-.04,0-.06.02-.1.02h-.05c-.11,0-.18-.15-.21-.4,0-.1-.01-.2-.01-.35-.04.02-.07,0-.1.02-.23.22-.48.37-.73.5-.16.08-.32.1-.47.15-.17.03-.33.05-.49.05-.1,0-.2.02-.29.02-.89,0-1.6-.85-2.04-1.89-.16-.4-.26-.85-.34-1.32-.12-.65-.22-1.29-.27-1.97-.12-1.07-.16-2.49-.16-3.73v-1.1c0-.25.01-.52.02-.75.09-1.92.16-3.41.44-4.86.22-1.1.65-1.92,1.16-2.46.06-.08.14-.12.2-.17.18-.17.37-.27.57-.35.38-.12.81-.22,1.24-.22s.85.1,1.21.37c.16.1.31.25.46.4.17.17.32.45.42.8.09.25.15.52.2.82.15.82.2,1.74.2,2.84-.01.37-.01.77-.01,1.14,0,.35-.02.72-.05,1.07-.03.3-.06,1.07-.09,1.37-.02.22-.04.37-.15.45-.1.05-.21.05-.31.05h-.39c-.13,0-.22.02-.36.05-.17.03-.26.03-.43.05h-.09c-.13-.03-.21,0-.33-.08-.09-.05-.12-.12-.18-.25-.02-.05-.02-.12-.04-.2-.01-.45-.03-1.34-.03-1.79,0-.3.03-.52.03-.87.01-.57.01-.9.01-1.47,0-.8,0-1.02-.25-1.02-.1,0-.21.02-.28.12Z"/>
    <path class="cls-1" d="m116.99,128.59h-.16c-.23,0-.41-.05-.64-.05h-.11c-.22.02-.65.05-.84.05-.15,0-.29-.02-.44-.07s-.28-.12-.43-.2c-.1-.05-.15-.2-.16-.4-.01-.07-.01-.12-.01-.2,0-.45-.01-.9-.01-1.32v-3.11c0-.85,0-1.69-.01-2.54-.02-1-.02-1.94-.02-2.86,0-1.39.01-2.74.01-4.21,0-.97.01-2.04.01-3.04.01-.2.06-.3.16-.3.32,0,.74.12,1.02.12.44.03.9.03,1.34.03.55,0,1.16-.03,1.68-.07h.12c.12,0,.22.02.31.2.04.05.04.35.04.45v.25c0,.5.01.92.01,1.32,0,.35,0,.7-.03,1.15v.95c.01.25.01.5.01.77,0,.25-.16.3-.29.3-.09,0-.17-.03-.25-.03-.41,0-.97-.12-1.45-.12h-.37s-.09.08-.1.17c0,.02,0,.05-.01.08v.97c0,.1,0,.17.01.27.03,0,.42-.05.62-.05h.71c.11,0,.22,0,.37.02.09,0,.15,0,.23.02.06,0,.22,0,.27.05.12.07.17.62.17.92v.37c0,.85-.01.47-.01,1.42v.05c0,.1,0,.12-.04.2-.01.03-.09.05-.11.05-.6.05-1.19.08-1.83.08-.11,0-.21.05-.31.1-.07.02-.1.1-.1.25-.01.5-.02,1-.02,1.49,0,.15.02.2.1.2.22.03.44.05.66.05h.16c.44,0,.81.12,1.25.2.06.02.14,0,.2.02.12.05.16.2.16.45,0,.32.01.65.01.97v1.57c.01.65.02,1.54.04,2.19v.27c0,.27-.01.3-.11.37-.04.03-.06.05-.1.05-.39.08-.87.1-1.34.1-.12,0-.23,0-.38.02Z"/>
    <path class="cls-1" d="m124.31,116.51c-.17.22-.26.37-.44.52-.09.08-.18.12-.27.2-.04.03-.06.05-.1.05-.11,0-.21-.17-.22-.47v-.32c-.01-.5-.02-.97-.02-1.47v-.25c-.01-.25-.01-.52-.02-.77-.01-.12-.01-.27-.01-.42,0-.2,0-.37.01-.57.01-.15.05-.25.12-.32.18-.12.33-.3.48-.55.21-.37.41-.77.54-1.27.04-.1.05-.22.06-.35.02-.12.09-.17.16-.17h1.59c.06,0,.14,0,.2-.02h.05s.07.02.11.1c.07.12.12.25.12.42,0,.05,0,.1-.01.15-.01.1-.01.17-.01.25.01.27.02.55.02.85,0,4.88.03,9.06.05,14.87v.17c0,.25.01.42.01.65,0,.1.01.22.01.35-.01.15-.07.27-.15.27-.32,0-.55.17-.87.17h-.1c-.31,0-.46.08-.79.08h-.12c-.12-.05-.17-.17-.17-.42v-.47c-.04-2.12-.04-3.74-.04-5.48v-5.25c0-.22-.01-.47-.02-.77-.05.08-.1.17-.16.27Z"/>
    <path class="cls-1" d="m134.33,116.46c-.1.17-.15.37-.15.62,0,.07,0,.15.01.22.04.35.1.65.26.87.21.27.42.52.64.77.38.42.76.87,1.11,1.44.29.45.58,1.15.75,1.97.11.52.17,1.1.17,1.72,0,.17,0,.32-.01.5-.07,1.52-.49,2.89-1.09,3.46-.26.22-.48.27-.8.4-.39.15-.81.2-1.25.2-.42,0-.84-.03-1.22-.05-.34-.02-.85-.05-1.17-.25-.14-.08-.25-.12-.34-.27-.05-.08-.07-.2-.07-.3-.01-.1-.01-.2-.01-.3,0-.47-.01-.95-.01-1.42v-1.42c0-.22-.01-.42-.01-.65,0-.35-.01-.57-.01-.75,0-.3.04-.32.25-.4.05-.03.2-.03.25-.03.39,0,.77.03,1.18.03h.28c.13,0,.34-.07.34-.07.04-.03.07-.05.11-.1.15-.17.28-.37.41-.62.1-.2.15-.45.15-.7,0-.45-.2-.85-.43-1.2-.28-.4-.62-.7-.81-.85-.17-.12-.36-.22-.53-.4-.27-.27-.53-.65-.73-1.15-.14-.32-.26-.7-.32-1.1-.06-.35-.09-.67-.13-1.1-.01-.15-.01-.27-.01-.4,0-.17,0-.35.02-.55.03-.22.05-.37.07-.6.01-.08.01-.1.02-.17.33-1.34.75-2.22,1.41-2.89.05-.05.09-.07.14-.12.53-.37,1.18-.47,1.86-.47h.68c.43,0,.97.03,1.37.15.07.02.23.02.28.17.09.17.11.32.13.57.01.15,0,.3.01.47v1.05c0,.35.01.72.01,1.07,0,1.35-.01.32-.01,1.67,0,.08,0,.17-.01.25-.01.17-.1.2-.2.2h-.25c-.1,0-.29.03-.5.03h-.18c-.14-.03-.29-.03-.46-.03-.17,0-.33,0-.48.05-.38.1-.44-.02-.7.45Z"/>
    <path class="cls-1" d="m142.13,118.68c-.43,1.12-1.3,1.07-2.17,1.27h-.16c-.01.1-.02.17-.02.22v.02c-.03,1.74-.04,2.74-.05,4.48v.32c0,.57.01,1.25.01,1.84v1.24c0,.05.01.25.01.27,0,.22-.11.25-.22.25h-.93c-.17,0-.39-.03-.57-.03-.06,0-.12-.02-.18-.02-.02,0-.05-.02-.06-.05-.07-.07-.12-.15-.12-.32v-.05c0-.22.01-.47.01-.72v-.27c.01-.7.01-1.45.01-2.14v-.02c0-.4-.01-.8-.01-1.2,0-.22,0-.47.01-.7.01-.47.01-.95.02-1.42.01-.37.02-.75.02-1.15,0-.52-.01-1.02-.01-1.54,0-.45,0-.9-.01-1.32v-.17c0-.25.01-.52.01-.77v-.62c0-1.42-.01-2.71-.01-4.13v-.77c0-.4.01-.87.11-.87h.07c.28-.03.69-.03.98-.05h.06c.23,0,.43-.05.65-.05h.57c.2,0,.38,0,.58.02.33.02.65.12.96.42.1.1.22.17.32.27.17.15.32.37.43.67.04.07.07.17.11.25.28.6.39,1.54.39,2.54,0,.2,0,.4-.01.6-.05,1.14-.23,2.29-.48,2.89-.11.27-.21.55-.33.8Zm-1.32-3.84c0-.35-.09-.6-.23-.82-.11-.15-.23-.2-.37-.2-.21,0-.41,0-.61.02-.05,0-.09.05-.1.15-.06.47-.04,1.07-.05,1.54v.25c0,.15,0,.32.01.5.06.02.11.02.16.02.16-.05.31-.08.47-.12.11-.05.23-.1.33-.2.22-.17.37-.47.39-1v-.15Z"/>
    <path class="cls-1" d="m146.2,128.59h-.16c-.23,0-.41-.05-.64-.05h-.11c-.22.02-.65.05-.84.05-.15,0-.29-.02-.44-.07s-.28-.12-.43-.2c-.1-.05-.15-.2-.16-.4-.01-.07-.01-.12-.01-.2,0-.45-.01-.9-.01-1.32v-3.11c0-.85,0-1.69-.01-2.54-.02-1-.02-1.94-.02-2.86,0-1.39.01-2.74.01-4.21,0-.97.01-2.04.01-3.04.01-.2.06-.3.16-.3.32,0,.74.12,1.02.12.44.03.9.03,1.34.03.55,0,1.16-.03,1.69-.07h.12c.12,0,.22.02.31.2.04.05.04.35.04.45v.25c0,.5.01.92.01,1.32,0,.35,0,.7-.03,1.15v.95c.01.25.01.5.01.77,0,.25-.16.3-.29.3-.09,0-.17-.03-.25-.03-.41,0-.97-.12-1.45-.12h-.37s-.09.08-.1.17c0,.02,0,.05-.01.08v.97c0,.1,0,.17.01.27.02,0,.42-.05.62-.05h.71c.11,0,.22,0,.37.02.09,0,.15,0,.23.02.06,0,.22,0,.27.05.12.07.17.62.17.92v.37c0,.85-.01.47-.01,1.42v.05c0,.1,0,.12-.04.2-.01.03-.09.05-.11.05-.6.05-1.19.08-1.83.08-.11,0-.21.05-.31.1-.07.02-.1.1-.1.25-.01.5-.02,1-.02,1.49,0,.15.02.2.1.2.22.03.44.05.66.05h.16c.44,0,.81.12,1.25.2.06.02.14,0,.2.02.12.05.16.2.16.45,0,.32.01.65.01.97v1.57c.01.65.02,1.54.04,2.19v.27c0,.27-.01.3-.11.37-.04.03-.06.05-.1.05-.39.08-.87.1-1.34.1-.12,0-.23,0-.38.02Z"/>
    <path class="cls-1" d="m148.56,115.79c.09-3.01.89-4.68,2.08-5.5.12-.07.26-.15.38-.17.13-.05.26-.08.39-.08.41,0,.69,0,1.13.12.7.2,1.02.17,1.65,1.45.16.32.23.62.28,1,.05.32.09.62.12.95.02.37.04.8.04,1.22,0,1.07-.01,1.64-.07,2.59-.02.3-.04.6-.06.9-.02.22-.07.37-.18.45-.1.05-.21.05-.31.05h-1.09s-.17.05-.29.05c-.21,0-.43-.08-.43-.47-.01-.3-.01-.57-.01-.85,0-.87.02-1.32.02-2.17,0-.45-.02-.85-.11-1.22-.01-.05-.02-.1-.05-.15-.09-.2-.26-.27-.42-.27-.06,0-.12.03-.18.1-.25.3-.36.6-.48,1.1-.11.47-.16.97-.17,1.47-.03.7-.05,1.25-.07,2.04v.3c.01.47.02.8.02,1.2v1.1c0,.52,0,1.04.02,1.27.04.35.04.77.17,1.2.11.32.26.5.39.5h.02c.13,0,.27-.12.38-.35.07-.15.1-.35.11-.55.01-.25.04-1.25.05-1.44s.02-.85.07-1.02c.02-.1.09-.12.13-.12h.04c.21.03.33.05.54.07.28.05.43.1.71.1h.06c.22,0,.37-.05.58-.05h.1c.11,0,.18.07.27.12.07.05.11.17.11.35.01.1.01.2.01.3-.01.9-.01,2.09-.05,2.99-.06,1.34-.28,2.27-.57,3.16-.11.32-.23.62-.42.8-.16.12-.31.27-.47.37-.04.02-.06.05-.09.05-.28.1-.57.2-.84.27-.21.05-.41.1-.62.1s-.42-.05-.61-.12c-.17-.08-.34-.12-.52-.2-.44-.25-.81-.72-1.08-1.54-.1-.3-.21-.65-.27-1-.05-.25-.09-.47-.12-.72-.09-.6-.17-1.22-.2-1.87-.02-.55-.06-1.1-.1-1.64-.01-.1-.01-.22-.01-.32-.03-.77-.04-1.54-.06-2.32v-.3c0-.5.01-1.05.01-1.57.01-.55.02-1.15.04-1.69Z"/>
    <path class="cls-1" d="m155.14,112.63c0-.6.01-1.05.01-1.57,0-.42.01-.5.07-.57.1-.15.31-.15.57-.15h.22c.15,0,.31,0,.5-.02h.63c.29,0,.42.02.52.07s.12.12.12.2v.2c0,.4.01.77.01,1.12,0,.85-.02,1.57-.02,2.56-.03,2.02-.01,3.16-.03,5.21v1.12c0,2.37.05,3.98.05,6.38v1.15c0,.22-.1.27-.21.27-.71,0-1.43.03-2.07.03-.07,0-.15-.03-.23-.07-.05-.03-.06-.37-.06-.47,0-.8-.04-1.39-.04-2.32-.02-5.08-.04-7.94-.05-13.02v-.1Z"/>
    <path class="cls-1" d="m162.58,115.82s-.12-.02-.15-.02c-.2,0-.41-.05-.65-.05-.09,0-.17.03-.26.03h-.53c-.22,0-.39.03-.39.25,0,.1-.01,2.09-.01,2.49,0,.2,0,.37.01.42,0,.12,0,.22.03.32.02.03.05.03.07.03h.2c.73,0,.58.02.9.02.01,0,.1.02.11.02h.05c.2,0,.27.03.5.03.06,0,.12.03.12.1.01.82.02,1.42.02,2.32v.47c0,.3-.04.5-.22.5-.27,0-.71.1-1.03.1-.3,0-.73.03-.73.27v.05c.01,1.2.05,2.54.05,3.83v1.07c-.01.32-.05.45-.18.47-.14,0-.27.05-.41.05h-.36c-.12,0-.07,0-.2-.02-.05-.02-.11-.02-.17-.02-.12,0-.26.02-.37.02-.06,0-.17.02-.26.02h-.15s-.06,0-.09-.05c-.02-.05-.04-.2-.04-.27-.01-.2-.01-.37-.01-.55,0-4.26-.06-8.42-.12-12.58,0-.6.01-1.2.03-1.79v-.2c0-.27-.01-.55-.01-.82-.01-.4-.02-.8-.02-1.17,0-.22.02-.42.1-.6.04-.07.06-.1.11-.1h.02c.58.05,1,.08,1.59.08s1.7-.25,2.28-.25h.09c.15.03.2.1.2.37v2.14c-.01.4,0,.75-.01,1.12v1.22c0,.22,0,.35-.01.57,0,.08-.04.1-.09.1Z"/>
    <path class="cls-1" d="m163.24,112.63c0-.6.01-1.05.01-1.57,0-.42.01-.5.07-.57.1-.15.31-.15.57-.15h.22c.15,0,.31,0,.5-.02h.63c.29,0,.42.02.52.07s.12.12.12.2v.2c0,.4.01.77.01,1.12,0,.85-.03,1.57-.03,2.56-.02,2.02-.01,3.16-.02,5.21v1.12c0,2.37.05,3.98.05,6.38v1.15c0,.22-.1.27-.21.27-.71,0-1.43.03-2.07.03-.07,0-.15-.03-.23-.07-.05-.03-.06-.37-.06-.47,0-.8-.04-1.39-.04-2.32-.02-5.08-.04-7.94-.05-13.02v-.1Z"/>
    <path class="cls-1" d="m169.04,121.94v.05c0,1.94-.01,3.86-.01,5.8v.37c0,.1-.02.17-.06.22-.06.08-.12.1-.21.1h-.02s-.06-.02-.11-.02c-.26-.02-.41-.05-.68-.05h-.07c-.32,0-.81.03-1.03.03-.06,0-.14-.03-.21-.05-.11-.05-.12-.1-.12-.32-.03-2.42-.03-4.63-.03-7.05.01-.47.01-.92.01-1.39v-.4c0-2.59.04-5.2.04-7.72,0-.27,0-.55-.01-.82,0-.05,0-.12.01-.2.01-.12.07-.17.13-.17h.11c.18,0,.36.05.59.07h.39c.32,0,.44.03.64.03h.15s.09-.03.12-.03.07,0,.1.07c.06.12.07.3.07.45v.15c-.02.55-.02,1.1-.05,1.64-.01.25-.01.47-.01.72,0,1.42-.12,4.03-.12,4.33,0,0,.36-1.17.54-1.67.18-.52.27-.87.47-1.35.2-.5.38-1.47.55-2.02.12-.4.26-1.07.37-1.49.1-.35.11-.25.22-.6,0-.05.01-.08.03-.1.04-.1.09-.12.12-.12h.28c.21,0,.31.05.53.07h.06c.17,0,.38-.03.55-.03.11,0,.21,0,.27.05.07.07.15.17.21.3.01.05.02.1.02.15s-.01.08-.02.15c-.65,2.91-1.64,6.47-2.05,7.67.49,2.19,1.29,6.15,2.04,9.19.01.05.02.2.02.32,0,.03,0,.08-.01.08-.07.15-.33.17-.46.22-.1.05-.18.05-.25.05-.16,0-.26-.05-.41-.05-.05,0-.11,0-.18.03-.05.03-.12.03-.2.03-.1,0-.2-.03-.3-.05-.1-.05-.17-.07-.21-.25v-.03c-.02-.1-.04-.17-.06-.27-.09-.45-.18-.85-.27-1.22-.13-.6-.27-1.17-.43-1.87-.06-.25-.1-.47-.17-.77-.23-1.02-.48-1.82-.66-2.74l-.15.3s-.09.1-.09.2Z"/>
    <path class="cls-1" d="m174.48,116.09c-.16,0-.25.1-.48.1-.15.02-.17.02-.31.02-.02,0-.06,0-.09-.02l-.22-.08s-.09-.02-.11-.05c-.07-.1-.11-.2-.11-.35,0-1.82.02-1.64.02-3.61v-1c0-.3.01-.45.04-.75,0-.2.07-.2.13-.2h.47c.21-.02.42-.05.62-.05.13,0,.36.02.48.02.15.02.28.02.43.02.29.03.6,0,.9.05.29.07.7.05,1,.07.18.05.38.05.57.05.06,0,.14.02.16.1.07.17.06.35.07.6.01.3.02.57.02.85s-.01.55-.02.85v.5c0,1.59.06.95.06,2.59,0,0,0,.05-.01.05-.02.15-.16.2-.32.2-.28,0-.22,0-.48.03-.09,0-.16.02-.22.02h-.05s-.09-.02-.12-.02c-.11,0-.16.05-.17.17-.09.47-.1,1-.1,1.52,0,.25.03.45.03.72.01.1.01.2.01.32,0,1.49-.02,2.42-.02,4.01v1.32c0,1.04-.01,2.12-.01,3.21,0,.25,0,.47.01.72,0,.12,0,.2.01.3,0,.12-.03.17-.07.2-.11.03-.22.05-.33.05-.16,0-.32-.03-.48-.03-.2-.03-.27-.03-.48-.07-.18-.05-.52-.05-.55-.22-.01-.05-.04-.25-.04-.32h.01v-2.64c0-.92-.01-1.69-.03-2.76t-.01-.05s0-.03.01-.05c.01-1.92.03-2.59.03-4.91,0-.35.02-.7.02-1.07v-.2c0-.08-.01-.15-.05-.17-.09-.02-.16-.05-.21-.05Z"/>
    <path class="cls-1" d="m182.43,112.63c0-.6.01-1.05.01-1.57,0-.42.01-.5.07-.57.1-.15.31-.15.57-.15h.22c.15,0,.31,0,.5-.02h.63c.29,0,.42.02.52.07s.12.12.12.2v.2c0,.4.01.77.01,1.12,0,.85-.03,1.57-.03,2.56-.02,2.02-.01,3.16-.02,5.21v1.12c0,2.37.05,3.98.05,6.38v1.15c0,.22-.1.27-.21.27-.71,0-1.43.03-2.07.03-.07,0-.15-.03-.23-.07-.05-.03-.06-.37-.06-.47,0-.8-.04-1.39-.04-2.32-.02-5.08-.04-7.94-.05-13.02v-.1Z"/>
    <path class="cls-1" d="m186.92,116.09c-.16,0-.25.1-.48.1-.15.02-.17.02-.31.02-.02,0-.06,0-.09-.02l-.22-.08s-.09-.02-.11-.05c-.07-.1-.11-.2-.11-.35,0-1.82.02-1.64.02-3.61v-1c0-.3.01-.45.04-.75,0-.2.07-.2.13-.2h.47c.21-.02.42-.05.62-.05.13,0,.36.02.48.02.15.02.28.02.43.02.29.03.6,0,.9.05.29.07.7.05,1,.07.18.05.38.05.57.05.06,0,.14.02.16.1.07.17.06.35.07.6.01.3.02.57.02.85s-.01.55-.02.85v.5c0,1.59.06.95.06,2.59,0,0,0,.05-.01.05-.02.15-.16.2-.32.2-.28,0-.22,0-.48.03-.09,0-.16.02-.22.02h-.05s-.09-.02-.12-.02c-.11,0-.16.05-.17.17-.09.47-.1,1-.1,1.52,0,.25.03.45.03.72.01.1.01.2.01.32,0,1.49-.02,2.42-.02,4.01v1.32c0,1.04-.01,2.12-.01,3.21,0,.25,0,.47.01.72,0,.12,0,.2.01.3,0,.12-.03.17-.07.2-.11.03-.22.05-.33.05-.16,0-.32-.03-.48-.03-.2-.03-.27-.03-.48-.07-.18-.05-.52-.05-.55-.22-.01-.05-.04-.25-.04-.32h.01v-2.64c0-.92-.01-1.69-.03-2.76t-.01-.05s0-.03.01-.05c.01-1.92.03-2.59.03-4.91,0-.35.02-.7.02-1.07v-.2c0-.08-.01-.15-.05-.17-.09-.02-.16-.05-.21-.05Z"/>
    <path class="cls-1" d="m193.86,128.59h-.16c-.23,0-.41-.05-.64-.05h-.11c-.22.02-.65.05-.84.05-.15,0-.29-.02-.44-.07s-.28-.12-.43-.2c-.1-.05-.15-.2-.16-.4-.01-.07-.01-.12-.01-.2,0-.45-.01-.9-.01-1.32v-3.11c0-.85,0-1.69-.01-2.54-.02-1-.02-1.94-.02-2.86,0-1.39.01-2.74.01-4.21,0-.97.01-2.04.01-3.04.01-.2.06-.3.16-.3.32,0,.74.12,1.02.12.44.03.9.03,1.34.03.55,0,1.16-.03,1.68-.07h.12c.12,0,.22.02.31.2.04.05.04.35.04.45v.25c0,.5.01.92.01,1.32,0,.35,0,.7-.03,1.15v.95c.01.25.01.5.01.77,0,.25-.16.3-.29.3-.09,0-.17-.03-.25-.03-.41,0-.97-.12-1.45-.12h-.37s-.09.08-.1.17c0,.02,0,.05-.01.08v.97c0,.1,0,.17.01.27.03,0,.42-.05.62-.05h.71c.11,0,.22,0,.37.02.09,0,.15,0,.23.02.06,0,.22,0,.27.05.12.07.17.62.17.92v.37c0,.85-.01.47-.01,1.42v.05c0,.1,0,.12-.04.2-.01.03-.09.05-.11.05-.6.05-1.19.08-1.83.08-.11,0-.21.05-.31.1-.07.02-.1.1-.1.25-.01.5-.02,1-.02,1.49,0,.15.02.2.1.2.22.03.44.05.66.05h.16c.44,0,.81.12,1.25.2.06.02.14,0,.2.02.12.05.16.2.16.45,0,.32.01.65.01.97v1.57c.01.65.02,1.54.04,2.19v.27c0,.27-.01.3-.11.37-.04.03-.06.05-.1.05-.39.08-.87.1-1.34.1-.12,0-.23,0-.38.02Z"/>
    <path class="cls-1" d="m196.5,110.51h.12c.14.02.25.02.36.02h.54c.23,0,.47,0,.71.08.06.02.12,0,.17.1.09.17.62,4.18.65,4.41.12.72.27,2.27.36,2.99.01.08.04.15.06.25.06-.17.09-.32.11-.5.12-.85.26-1.67.37-2.52.01-.12.04-.22.05-.32.02-.15.37-2.99.54-4.21.05-.32.06-.45.1-.5.03-.03.05-.03.07-.03.04,0,.1,0,.17.03.27.02.52.05.75.1.49.1,1.11,0,1.51.27.13.15.15.57.15,1v.52c0,1.12.01,2.34.01,3.49,0,1.52-.01,3.06-.01,4.61v6.92c0,.42-.01.92-.06,1.25-.04.17-.27.17-.47.17h-.9c-.16,0-.32,0-.5-.03-.06,0-.1-.07-.15-.12-.05-.05-.09-.15-.09-.3-.01-.55-.01-1.1-.02-1.67v-1.17c0-.75,0-1.49.01-2.22.04-1.15.04-1.77.05-2.89,0-.25.01-.45.01-.65,0-.3-.01-.62-.01-.92-.54,3.41-.62,4.73-1.07,7.57-.05.35-.07.55-.21.55h-.06c-.09-.05-.11-.12-.15-.35-.23-1.35-.69-3.64-.95-5.5-.05-.37-.1-.72-.21-1.15-.05-.2-.15-.65-.2-.65-.01,0-.02.03-.02.07-.05.52-.06,1.05-.06,1.54,0,2.54-.01,4.61-.01,7.32,0,.15-.02.22-.07.25-.85.2-.38.27-1.34.27-.06,0-.15-.03-.22-.05-.15-.08-.18-.2-.2-.52,0-.47-.01-1-.01-1.52v-.15c0-.57-.01-1.15-.01-1.74v-.5c0-.62-.01-1.25-.01-1.87-.01-.6-.01-1.25-.01-1.84s0-1.1.02-1.62c.03-.5.04-.97.04-1.47-.01-.8-.01-1.62-.02-2.44,0-.82-.01-1.72-.01-2.62,0-.27-.01-.52-.01-.8s.01-.55.05-.87c.01-.08.05-.1.09-.1Z"/>
    <path class="cls-1" d="m214.22,123.29h-.17s-.02.17-.02.37c-.01.77-.01.67-.01,1.42,0,1.15-.25,2.04-.64,2.69-.58.97-1.49,1.42-2.37,1.42h-.92c-.64,0-1.3-.87-1.62-1.69-.47-1.22-.79-2.34-.79-4.51,0-.87.02-1.62.11-2.29.11-.8.55-1.97.86-2.44.02-.03.05-.07.05-.12v-.02c0-.1-.05-.27-.09-.37-.26-.8-.52-1.1-.69-2.14-.01-.12-.02-.22-.02-.37,0-.08-.01-.17-.01-.27,0-3.49,1.4-4.91,2.96-4.91,1.27,0,2.56.67,2.93,2.71.25,1.35.23,1.97.27,3.36,0,.15,0,.22-.07.22-.81.1-1.22.27-2.08.27-.11,0-.22-.12-.22-.37v-.77c0-.2-.01-.37-.01-.62,0-.7-.2-1.52-.55-1.52-.79,0-1.01,1.39-1.01,2.57,0,.12.01.25.01.37s.01.22.02.35c.1.72.44,1.99.95,1.99.06,0,.15.17.15.3,0,0,.01.27.01.52,0,.15,0,.27-.01.35-.02.2-.28.17-.46.37-.36.45-.69.75-.73,1.87-.01.27-.03.55-.03.82,0,1.37.26,2.71.95,2.71.36,0,.71-.25.78-.87,0-.08.01-.32.01-.57,0-.27-.01-.55-.06-.6-.06-.05-.07-.05-.1-.05s-.04.02-.11.02h-.17c-.1,0-.14-.17-.14-.35,0-.7-.04-1.47-.04-2.14.01-.17.02-.32.11-.35.12-.03.07-.03.21-.03.06,0,.09-.02.13-.02v-.47c0-.15,0-.37-.01-.65v-.17c0-.15.05-.2.11-.2h.01c.22.02.37.05.53.05h.21l.73-.03c.14,0,.55,0,.69.03.12,0,.21.2.21.42v1c0,.1,0,.17.04.17h.09s.13-.03.23-.03c.11,0,.22.03.22.12v1c0,.45.01.72.01,1.17v.08c0,.17-.32.2-.43.2Z"/>
    <path class="cls-1" d="m218.78,112.63c0-.6.01-1.05.01-1.57,0-.42.01-.5.07-.57.1-.15.31-.15.57-.15h.22c.15,0,.31,0,.5-.02h.63c.29,0,.42.02.52.07s.12.12.12.2v.2c0,.4.01.77.01,1.12,0,.85-.03,1.57-.03,2.56-.02,2.02-.01,3.16-.02,5.21v1.12c0,2.37.05,3.98.05,6.38v1.15c0,.22-.1.27-.21.27-.71,0-1.43.03-2.07.03-.07,0-.15-.03-.23-.07-.05-.03-.06-.37-.06-.47,0-.8-.04-1.39-.04-2.32-.02-5.08-.04-7.94-.05-13.02v-.1Z"/>
    <path class="cls-1" d="m223.79,118.28c.01.3.01.57.01.87v.37c-.01,1.35-.04,2.57-.04,3.81v1.89c0,.92-.02,1.72-.02,2.49v.07c0,.22,0,.35-.09.42-.02.03-.06.03-.09.05,0,0-.27.05-.28.05h-.3c-.17,0-.34-.03-.53-.03h-.26c-.15,0-.26-.2-.26-.5,0-.47.02-.95.02-1.44.01-.42.01-.85.01-1.27,0-.82.05-1.62.05-2.42v-.37c0-.55.02-1.02.02-1.69.02-2.91.02-4.56.05-7.47.01-.8.02-1.39.04-2.07v-.42c0-.08.01-.12.05-.17.06-.07.1-.1.17-.1h.28c.27,0,.66.1.91.1.04,0,.75.03.79.03s.27.03.32.05.09.1.1.22c.69,4.56,1.46,10.58,1.65,11.71.01,0,.01.02.01.02.01,0,.01-.2.01-.52,0-.7-.03-1.94-.03-2.76,0-.77-.04-1.32-.04-1.99,0-1.39-.01-1.07-.01-1.77,0-1.02-.04-2.07-.04-3.11,0-.47,0-1,.01-1.59,0-.02,0-.05.01-.08.04-.35.07-.32.25-.32.65,0,.96.05,1.65.05h.33c.07,0,.16.03.23.07.06.05.1.1.1.25v.07c-.01.2,0,.37-.01.6-.04,2.19-.05,3.41-.07,5.6v2.27c.02,1.2.05,2.44.05,3.61v2.07c0,.6.01,1.17.04,1.77.02.5.04.97.05,1.47v.1c0,.2-.04.25-.16.3-.04.02-.09.02-.12.02-.06,0-.11,0-.17-.02-.32-.08-2.21-.08-2.5-.08h-.07c-.09-.02-.13-.12-.16-.3-.05-.45-.11-.87-.17-1.29-.1-.75-.23-1.47-.36-2.22-.1-.55-.2-1.12-.29-1.69-.12-.72-.23-1.44-.36-2.17-.1-.55-.18-1.12-.27-1.67-.05-.45-.13-.87-.21-1.32-.1-.55-.21-1.12-.29-1.67-.04-.17-.04-.22-.04-.25v-.05s-.01-.03-.01-.03v.05c0,.15.02.67.02,1.39v1Z"/>
    <path class="cls-1" d="m230.77,116.09c-.16,0-.25.1-.48.1-.15.02-.17.02-.31.02-.02,0-.06,0-.09-.02l-.22-.08s-.09-.02-.11-.05c-.07-.1-.11-.2-.11-.35,0-1.82.02-1.64.02-3.61v-1c0-.3.01-.45.04-.75,0-.2.07-.2.13-.2h.47c.21-.02.42-.05.62-.05.13,0,.36.02.48.02.15.02.28.02.43.02.29.03.6,0,.9.05.29.07.7.05,1,.07.18.05.38.05.57.05.06,0,.14.02.16.1.07.17.06.35.07.6.01.3.02.57.02.85s-.01.55-.02.85v.5c0,1.59.06.95.06,2.59,0,0,0,.05-.01.05-.02.15-.16.2-.32.2-.28,0-.22,0-.48.03-.09,0-.16.02-.22.02h-.05s-.09-.02-.12-.02c-.11,0-.16.05-.17.17-.09.47-.1,1-.1,1.52,0,.25.02.45.02.72.01.1.01.2.01.32,0,1.49-.02,2.42-.02,4.01v1.32c0,1.04-.01,2.12-.01,3.21,0,.25,0,.47.01.72,0,.12,0,.2.01.3,0,.12-.02.17-.07.2-.11.03-.22.05-.33.05-.16,0-.32-.03-.48-.03-.2-.03-.27-.03-.48-.07-.18-.05-.52-.05-.55-.22-.01-.05-.04-.25-.04-.32h.01v-2.64c0-.92-.01-1.69-.02-2.76t-.01-.05s0-.03.01-.05c.01-1.92.02-2.59.02-4.91,0-.35.02-.7.02-1.07v-.2c0-.08-.01-.15-.05-.17-.09-.02-.16-.05-.21-.05Z"/>
    <path class="cls-1" d="m237.72,128.59h-.16c-.23,0-.41-.05-.64-.05h-.11c-.22.02-.65.05-.84.05-.15,0-.29-.02-.44-.07s-.28-.12-.43-.2c-.1-.05-.15-.2-.16-.4-.01-.07-.01-.12-.01-.2,0-.45-.01-.9-.01-1.32v-3.11c0-.85,0-1.69-.01-2.54-.02-1-.02-1.94-.02-2.86,0-1.39.01-2.74.01-4.21,0-.97.01-2.04.01-3.04.01-.2.06-.3.16-.3.32,0,.74.12,1.02.12.44.03.9.03,1.34.03.55,0,1.16-.03,1.68-.07h.12c.12,0,.22.02.31.2.04.05.04.35.04.45v.25c0,.5.01.92.01,1.32,0,.35,0,.7-.03,1.15v.95c.01.25.01.5.01.77,0,.25-.16.3-.29.3-.09,0-.17-.03-.25-.03-.41,0-.97-.12-1.45-.12h-.37s-.09.08-.1.17c0,.02,0,.05-.01.08v.97c0,.1,0,.17.01.27.03,0,.42-.05.62-.05h.71c.11,0,.22,0,.37.02.09,0,.15,0,.23.02.06,0,.22,0,.27.05.12.07.17.62.17.92v.37c0,.85-.01.47-.01,1.42v.05c0,.1,0,.12-.04.2-.01.03-.09.05-.11.05-.6.05-1.19.08-1.83.08-.11,0-.21.05-.31.1-.07.02-.1.1-.1.25-.01.5-.02,1-.02,1.49,0,.15.02.2.1.2.22.03.44.05.66.05h.16c.44,0,.81.12,1.25.2.06.02.14,0,.2.02.12.05.16.2.16.45,0,.32.01.65.01.97v1.57c.01.65.02,1.54.04,2.19v.27c0,.27-.01.3-.11.37-.04.03-.06.05-.1.05-.39.08-.87.1-1.34.1-.12,0-.23,0-.38.02Z"/>
    <path class="cls-1" d="m241.48,116.09c-.16,0-.25.1-.48.1-.15.02-.17.02-.31.02-.02,0-.06,0-.09-.02l-.22-.08s-.09-.02-.11-.05c-.07-.1-.11-.2-.11-.35,0-1.82.02-1.64.02-3.61v-1c0-.3.01-.45.04-.75,0-.2.07-.2.13-.2h.47c.21-.02.42-.05.62-.05.13,0,.36.02.48.02.15.02.28.02.43.02.29.03.6,0,.9.05.29.07.7.05,1,.07.18.05.38.05.57.05.06,0,.14.02.16.1.07.17.06.35.07.6.01.3.02.57.02.85s-.01.55-.02.85v.5c0,1.59.06.95.06,2.59,0,0,0,.05-.01.05-.02.15-.16.2-.32.2-.28,0-.22,0-.48.03-.09,0-.16.02-.22.02h-.05s-.09-.02-.12-.02c-.11,0-.16.05-.17.17-.09.47-.1,1-.1,1.52,0,.25.03.45.03.72.01.1.01.2.01.32,0,1.49-.02,2.42-.02,4.01v1.32c0,1.04-.01,2.12-.01,3.21,0,.25,0,.47.01.72,0,.12,0,.2.01.3,0,.12-.03.17-.07.2-.11.03-.22.05-.33.05-.16,0-.32-.03-.48-.03-.2-.03-.27-.03-.48-.07-.18-.05-.52-.05-.55-.22-.01-.05-.04-.25-.04-.32h.01v-2.64c0-.92-.01-1.69-.03-2.76t-.01-.05s0-.03.01-.05c.01-1.92.03-2.59.03-4.91,0-.35.02-.7.02-1.07v-.2c0-.08-.01-.15-.05-.17-.09-.02-.16-.05-.21-.05Z"/>
    <path class="cls-1" d="m249.52,123.81c.05-.25.21-2.49.23-2.76.02-.22.05-.42.07-.65.06-.4.09-1.77.15-2.14.02-.15.04-.27.04-.4.05-.67.12-1.47.2-2.34.02-.3.04-.62.07-.95.05-.62.12-1.29.18-1.97.09-.7.17-1.27.26-2.02.01-.1.05-.12.11-.12h.18c.09-.05.38-.07.68-.07.33,0,.66.03.76.05.07,0,.13.02.18.02.16,0,.36-.02.55-.02.34,0,.7.05.9.3.02.08.02.12.02.2.09.72.06.92.17,1.62.04.3.1,1.07.14,1.35.06.65.12,1.27.2,1.92.04.35.06.7.11,1.05.3,2.54.52,5.11.84,7.54.02.3.04.45.07.75v.05c.05.45.09.75.14,1.22,0,.03.1,1.12.1,1.15.01.02.07.82.07.85v.05c0,.12-.11.15-.25.15-.12,0-.28-.03-.42-.03h-.07c-.22.03-.65.03-.87.03h-.93c-.07,0-.12-.95-.18-1.59-.06-.57-.11-1.29-.12-1.49-.02-.37-.05-.75-.09-1.1-.01-.07-.02-.15-.02-.22-.05-.7-.09-1.12-.16-1.82-.01-.17-.05-.27-.13-.3-.04-.02-.59-.08-.64-.08-.06-.02-.13-.05-.2-.05-.07,0-.15.02-.23.05-.09.03-.09,1.29-.1,1.79-.01.37-.01.8-.02,1.25,0,.45-.01.9-.01,1.32-.01.32-.01.62-.02.87,0,.3-.01.52-.01.72-.02.47-.05.57-.21.6-.14.02-.62.02-1.02.1-.12.05-.25.02-.36.05h-.25s-.1.03-.13.03c-.21,0-.27-.1-.27-.37,0-.12.01-.27.02-.47.1-1.32.25-3.83.28-4.08Zm3.15-4.28c-.12-1.87-.18-2.91-.31-4.78-.01-.07,0-.15-.04-.17-.04-.05-.11-.12-.17-.12h-.01s-.07.03-.07.05c-.06.65-.33,4.43-.34,5.08v.02c0,.08,0,.12.01.17.01.05.04.1.07.1h.01c.09-.03.27-.03.43-.03h.26c.14,0,.2-.07.16-.32Z"/>
    <path class="cls-1" d="m258.14,118.28c.01.3.01.57.01.87v.37c-.01,1.35-.04,2.57-.04,3.81v1.89c0,.92-.02,1.72-.02,2.49v.07c0,.22,0,.35-.09.42-.02.03-.06.03-.09.05,0,0-.27.05-.28.05h-.3c-.17,0-.34-.03-.53-.03h-.26c-.15,0-.26-.2-.26-.5,0-.47.02-.95.02-1.44.01-.42.01-.85.01-1.27,0-.82.05-1.62.05-2.42v-.37c0-.55.02-1.02.02-1.69.02-2.91.02-4.56.05-7.47.01-.8.02-1.39.04-2.07v-.42c0-.08.01-.12.05-.17.06-.07.1-.1.17-.1h.28c.27,0,.66.1.91.1.04,0,.75.03.79.03s.27.03.32.05.09.1.1.22c.69,4.56,1.46,10.58,1.65,11.71.01,0,.01.02.01.02.01,0,.01-.2.01-.52,0-.7-.03-1.94-.03-2.76,0-.77-.04-1.32-.04-1.99,0-1.39-.01-1.07-.01-1.77,0-1.02-.04-2.07-.04-3.11,0-.47,0-1,.01-1.59,0-.02,0-.05.01-.08.04-.35.07-.32.25-.32.65,0,.96.05,1.65.05h.33c.07,0,.16.03.23.07.06.05.1.1.1.25v.07c-.01.2,0,.37-.01.6-.04,2.19-.05,3.41-.07,5.6v2.27c.02,1.2.05,2.44.05,3.61v2.07c0,.6.01,1.17.04,1.77.02.5.04.97.05,1.47v.1c0,.2-.04.25-.16.3-.04.02-.09.02-.12.02-.06,0-.11,0-.17-.02-.32-.08-2.21-.08-2.5-.08h-.07c-.09-.02-.13-.12-.16-.3-.05-.45-.11-.87-.17-1.29-.1-.75-.23-1.47-.36-2.22-.1-.55-.2-1.12-.29-1.69-.12-.72-.23-1.44-.36-2.17-.1-.55-.18-1.12-.27-1.67-.05-.45-.13-.87-.21-1.32-.1-.55-.21-1.12-.29-1.67-.04-.17-.04-.22-.04-.25v-.05s-.01-.03-.01-.03v.05c0,.15.02.67.02,1.39v1Z"/>
    <path class="cls-1" d="m269.73,124.61c-.05.47-.12.92-.23,1.37-.12.5-.29.95-.48,1.37-.04.1-.11.17-.16.25-.52.67-1.05,1.02-1.89,1.07h-.34c-.29,0-.54-.02-.85-.02h-.47c-.22,0-.46.02-.68.02-.17,0-.34-.02-.47-.08-.02,0-.11-.02-.13-.02-.12-.02-.16-.3-.16-.62v-.35c-.02-.7-.04-1.44-.04-2.19v-1.37c0-.57-.01-1-.01-1.64v-1.12c0-1.2,0-2.14.01-3.54,0-1.99.01-3.91.01-5.98,0-.47-.01-.8-.01-1.27,0-.05,0-.12.01-.17,0-.1.05-.12.09-.12.32,0,.63.05.93.05.54,0,1.13-.05,1.71-.05.73,0,1.43.07,2.02.32.34.15.79,1.04.92,1.64.1.47.2.92.22,1.45.06,1.04.12,2.39.12,3.61.02.77.04,1.64.04,2.44s-.01,1.57-.02,2.37c-.01.9-.05,1.84-.14,2.59Zm-2.9-9.31c-.09,0-.17-.03-.26-.03-.05,0-.11,0-.16.03-.02.02-.05.15-.05.22-.01.05-.01.1-.01.17,0,.72-.01,1.44-.01,2.17,0,.25-.01.97-.01,1.22v2.12c0,.27,0,.55-.01.87,0,.05-.01.1-.01.17,0,.27.01.6.01.82,0,.1.01.2.02.3.04.02.12.02.17.02h.04c.34-.15.81-.6.92-1.22.22-1.1.23-3.39.23-4.86,0-1.17-.33-1.97-.87-2.02Z"/>
    <path class="cls-1" d="m273.29,128.59h-.16c-.23,0-.41-.05-.64-.05h-.11c-.22.02-.65.05-.84.05-.15,0-.29-.02-.44-.07s-.28-.12-.43-.2c-.1-.05-.15-.2-.16-.4-.01-.07-.01-.12-.01-.2,0-.45-.01-.9-.01-1.32v-3.11c0-.85,0-1.69-.01-2.54-.02-1-.02-1.94-.02-2.86,0-1.39.01-2.74.01-4.21,0-.97.01-2.04.01-3.04.01-.2.06-.3.16-.3.32,0,.74.12,1.02.12.44.03.9.03,1.34.03.55,0,1.16-.03,1.68-.07h.12c.12,0,.22.02.31.2.04.05.04.35.04.45v.25c0,.5.01.92.01,1.32,0,.35,0,.7-.03,1.15v.95c.01.25.01.5.01.77,0,.25-.16.3-.29.3-.09,0-.17-.03-.25-.03-.41,0-.97-.12-1.45-.12h-.37s-.09.08-.1.17c0,.02,0,.05-.01.08v.97c0,.1,0,.17.01.27.03,0,.42-.05.62-.05h.71c.11,0,.22,0,.37.02.09,0,.15,0,.23.02.06,0,.22,0,.27.05.12.07.17.62.17.92v.37c0,.85-.01.47-.01,1.42v.05c0,.1,0,.12-.04.2-.01.03-.09.05-.11.05-.6.05-1.19.08-1.83.08-.11,0-.21.05-.31.1-.07.02-.1.1-.1.25-.01.5-.02,1-.02,1.49,0,.15.02.2.1.2.22.03.44.05.66.05h.16c.44,0,.81.12,1.25.2.06.02.14,0,.2.02.12.05.16.2.16.45,0,.32.01.65.01.97v1.57c.01.65.02,1.54.04,2.19v.27c0,.27-.01.3-.11.37-.04.03-.06.05-.1.05-.39.08-.87.1-1.34.1-.12,0-.23,0-.38.02Z"/>
    <path class="cls-1" d="m277.05,116.09c-.16,0-.25.1-.48.1-.15.02-.17.02-.31.02-.02,0-.06,0-.09-.02l-.22-.08s-.09-.02-.11-.05c-.07-.1-.11-.2-.11-.35,0-1.82.02-1.64.02-3.61v-1c0-.3.01-.45.04-.75,0-.2.07-.2.13-.2h.47c.21-.02.42-.05.62-.05.13,0,.36.02.48.02.15.02.28.02.43.02.29.03.6,0,.9.05.29.07.7.05,1,.07.18.05.38.05.57.05.06,0,.14.02.16.1.07.17.06.35.07.6.01.3.02.57.02.85s-.01.55-.02.85v.5c0,1.59.06.95.06,2.59,0,0,0,.05-.01.05-.02.15-.16.2-.32.2-.28,0-.22,0-.48.03-.09,0-.16.02-.22.02h-.05s-.09-.02-.12-.02c-.11,0-.16.05-.17.17-.09.47-.1,1-.1,1.52,0,.25.02.45.02.72.01.1.01.2.01.32,0,1.49-.02,2.42-.02,4.01v1.32c0,1.04-.01,2.12-.01,3.21,0,.25,0,.47.01.72,0,.12,0,.2.01.3,0,.12-.02.17-.07.2-.11.03-.22.05-.33.05-.16,0-.32-.03-.48-.03-.2-.03-.27-.03-.48-.07-.18-.05-.52-.05-.55-.22-.01-.05-.04-.25-.04-.32h.01v-2.64c0-.92-.01-1.69-.02-2.76t-.01-.05s0-.03.01-.05c.01-1.92.02-2.59.02-4.91,0-.35.02-.7.02-1.07v-.2c0-.08-.01-.15-.05-.17-.09-.02-.16-.05-.21-.05Z"/>
    <path class="cls-1" d="m281.86,129.74c-.31-.42-.5-1-.59-1.72-.01-.1-.01-.2-.01-.3,0-.27.04-.55.11-.8.16-.52.6-.97,1.03-.97.38,0,.86.42,1,.97.09.35.14.75.14,1.12,0,.45-.06.87-.18,1.22-.05.17-.15.3-.23.42-.16.22-.34.32-.57.35-.15,0-.54-.12-.69-.3Zm-.46-15.81c-.01-1.02-.02-1.97-.02-3.09v-.25c0-.22.05-.35.15-.35h.07c.34,0,.79-.08,1.03-.08.12,0,.26.03.43.08.14.05.25.2.25.52v4.78c-.01,2.84-.01,4.46-.02,7.3v1.84c0,.1-.01.15-.07.17-.04.02-.07.02-.11.02h-.05c-.12-.02-.69-.05-.8-.05-.05,0-.44,0-.49.03h-.13c-.07-.05-.11-.12-.11-.27v-.2c0-.97,0-1.94-.01-2.86-.04-2.96-.05-4.63-.1-7.59Z"/>
  </g>
</svg>