<?xml version="1.0" encoding="UTF-8"?>
<svg id="lotus" xmlns="http://www.w3.org/2000/svg" viewBox="0 0 1280 720">
  <defs>
    <style>
      .cls-1, .cls-2, .cls-3, .cls-4, .cls-5, .cls-6, .cls-7 {
        stroke-width: 0px;
      }

      .cls-2 {
        fill: #1a1a1a;
      }

      .cls-3 {
        fill: #99190a;
      }

      .cls-4 {
        fill: #ff921e;
      }

      .cls-5 {
        fill: #feb900;
      }

      .cls-6 {
        fill: #fc8200;
      }

      .cls-7 {
        fill: #fd8200;
      }
    </style>
  </defs>
  <g id="forgrunden">
    <path class="cls-1" d="m5.66,133.26q-5.81-.36-5.81-7.06c0-40.61.05-81.22-.09-121.83C-.25.65.53-.25,3.96-.25c215.03.1,430.06-.23,645.09.18,208.31.4,416.62.04,624.92.26q5.65,0,5.65,6.41c0,34.17-.12,68.33.13,102.49.04,5.11-1.28,7.31-5.8,7.29-.87.64-1.76,1.22-2.79,1.5-15.48,3.2-31.09,4.95-46.82,5.89-5.6.33-11.18.69-16.79.81-13.97.3-27.88-.69-41.78-1.95-3.25-.29-5,.98-6.56,3.92-4.6,8.69-9.36,17.27-14.13,25.85-1.19,2.15-2.27,4.62-5.26,3.7,0,.87.39,1.33.62,1.86,3.05,7.22.32,13.19-6.94,13.99-13.61,1.51-25.75-2.56-35.88-12.87-3-3.05-5.28-6.73-3.94-11.54,1.31-4.71,5.19-5.77,8.96-6.82.64-.18,1.32-.06,1.97-.33-4.35-1.51-4.8-2.66-2.49-6.83,3.05-5.51,6.16-10.98,9.24-16.48,2.07-3.7,2.04-3.8-1.86-4.86-18.75-5.14-37.08-11.69-54.96-19.76-38.78-17.52-74.09-41.26-106.27-70.66-4.1-3.74-8.16-7.54-12.04-11.54-1.92-1.97-2.9-2.15-4.09.72-10.39,25.19-25.03,47.07-43.49,65.85-10.98,11.16-23.08,20.67-36.61,27.88-5.04,2.69-4.93,2.7-2.75,8.37,1.86,4.84,4.02,9.52,6.16,14.21.73,1.61,1.56,3.19,2.03,4.91.87,3.15,1.12,6.28,4.87,7.77,2.48.99,3,4.43,1.96,7.49-.99,2.89-2.68,5.26-4.88,7.1-6.37,5.31-13.53,8.49-21.61,8.63-8.32.15-10.87-2.6-10.99-11.74-4.38,1.85-6.19-1.09-7.67-4.84-2.78-7.01-5.97-13.81-8.94-20.72-1.49-3.45-3.32-4.59-6.75-3.83-7.93,1.76-16.05,2.38-24.07,2.31-12.43-.11-24.84-1.52-37-4.77-27.41-7.33-52.11-20.78-74.48-39.5-2.72-2.28-5.42-4.61-7.88-7.19-2.32-2.44-3.94-2.08-6.23.14-15.78,15.26-33.16,27.99-52.02,38.21-24.42,13.22-50.2,21.53-77.39,23.87-8.81.76-17.69,2.35-26.58.36-3.12-.7-5.12,1.02-6.68,3.91-4.73,8.78-9.51,17.52-14.37,26.21-1.08,1.94-2.13,4.06-4.86,2.85-.36.86.38,1.24.63,1.78,3.17,6.89.38,13.46-6.63,14.28-13.6,1.59-25.77-2.46-35.94-12.69-3.22-3.23-5.73-7.13-4.03-12.31,1.35-4.1,5.93-6.38,11.55-6.16-5.2-1.77-5.63-2.77-2.9-7.78,2.8-5.15,5.7-10.24,8.58-15.33,2.4-4.25,2.32-4.67-1.92-6.24-24.4-9.04-46.33-22.93-66.32-40.58-21.27-18.78-39.25-40.81-53.88-66.09-2.32-4.01-2.8-4.16-6.33-1.26-25.58,21.01-52.74,39.26-81.16,55.22-11.56,6.49-23.45,12.29-35.46,17.76-4.37,1.99-4.43,2.16-2.21,6.76,4.67,9.67,9.32,19.35,13.69,29.19,1.35,3.04,1.64,5.48-2.06,6.52-.2.27-.1.4.31.43,10.45.73,13,11.55,6.46,19.13-9.31,10.79-21.1,16.13-34.78,14.43-9.36-1.16-11.99-9.17-6.49-18.04-.1-.13-.27,0-.59.14-10.29,4.63-9.1,4.84-14.58-5.07-4.96-8.97-9.78-18.04-14.59-27.11-1.79-3.37-3.76-4-7.06-2.96-27.68,8.73-55.91,14.57-84.5,18.21-14.93,1.91-29.94,2.88-44.98,3.3-.41-.14-.77-.38-1.08-.71Z"/>
    <path class="cls-3" d="m450.81,123.55c-38.89-12.69-71.3-36.59-98.91-68.7-11.46-13.33-21.7-27.75-30.19-43.56-1.71-3.18-2.8-3.38-5.48-1.15-39.43,32.78-82.02,59.47-128.13,79.31-.7,1.42-1.95,2.03-3.22,2.6-12.03,5.37-24.46,9.48-36.78,13.97-1.17.43-2.38.71-3.62.3-12.06,3.21-23.93,7.15-36.07,10.05-20.02,4.78-40.18,8.4-60.55,10.83-13.6,1.62-27.24,2.21-40.85,3.35-3.69.31-4.85-.77-4.83-5.03.16-39.41.16-78.83,0-118.24-.02-4.42,1.11-5.38,5.01-5.37,108.96.12,217.92.1,326.89.1,197.53,0,395.06,0,592.58,0h5.67c-18.99,46.64-47.19,82.5-89.64,103.66-.68.93-1.42,1.78-2.47,2.25-8.31,3.74-16.86,6.67-25.53,9.2-1.06.31-2.15.29-3.22-.11-10.51,1.86-21.03,3.66-31.72,3.6-34.63-.21-65.99-12.03-95-32.14-8.92-6.18-17.35-13.09-25.08-20.96-2.02-2.06-3.27-2.3-5.53,0-23.97,24.4-51.68,41.97-82.67,53.33-16.37,6-33.19,9.44-50.44,10.91-10.84.93-21.57.1-32.35-.17-2.39,1.3-4.86.44-7.19,0-8.58-1.63-17.21-2.97-25.66-5.32-1.84-.51-3.76-.87-5.02-2.69Z"/>
    <path class="cls-3" d="m1118.5,110.95c-49.69-12.12-95.42-34.22-137.37-65.71-16.99-12.76-33.14-26.69-48.17-42.55,1.72-1.09,3.1-.66,4.4-.66,111.28-.03,222.56,0,333.84-.13,4.17,0,5.18,1.12,5.15,5.65-.19,33.71-.13,67.43-.06,101.15,0,3.09-.39,4.61-3.74,5.23-15.09,2.76-30.22,4.93-45.5,5.94-6.01.4-12,.74-18.02.87-20.38.44-40.64-1.06-60.86-3.71-9.08.44-17.73-2.44-26.53-4.17-1.22-.24-2.38-.71-3.14-1.91Z"/>
    <path class="cls-2" d="m144.47,106.32c11.25-4.25,22.5-8.47,33.74-12.76,3.33-1.27,6.59-2.74,9.88-4.12,1.22.96,2.21,2.05,2.92,3.59,4.8,10.39,9.62,20.76,14.6,31.04,1.33,2.74,1.12,4.19-1.63,5.4-12.1,5.34-24.19,10.75-36.2,16.32-2.37,1.1-3.6.84-4.94-1.64-6.02-11.15-12.19-22.2-18.33-33.27-.87-1.57-1.01-3.04-.03-4.57Z"/>
    <path class="cls-2" d="m1119.42,110.95c9.89,2.03,19.78,4.05,29.67,6.08-.13.04-.3.03-.39.12-.17.15-.31.36-.46.55,2.62.51,5.24,1.01,7.86,1.54,2.06.42,2.66,1.22,1.36,3.54-5,8.88-9.87,17.85-14.61,26.9-1.23,2.36-2.45,2.68-4.61,1.73-10.48-4.61-21.01-9.1-31.52-13.61-1.25-.54-2.45-1.1-1.39-2.85,4.78-7.94,8.72-16.47,14.1-23.98Z"/>
    <path class="cls-2" d="m450.81,123.55c12.45,3.66,25.18,5.67,37.86,8.02,1.19.87,2.44,1.33,1.16,3.56-4.98,8.72-9.76,17.58-14.52,26.45-1.37,2.55-2.8,3.49-5.55,2.24-9.94-4.51-19.91-8.95-29.99-13.07-3.17-1.29-2.9-2.6-1.43-5.14,4.23-7.3,8.32-14.7,12.46-22.07Z"/>
    <path class="cls-2" d="m811.45,117.01c10.56-3.29,21.06-6.76,31.22-11.35,3.65,8.83,7.17,17.73,11.02,26.45,1.22,2.76.79,3.7-1.72,4.7-8.18,3.26-16.33,6.65-24.4,10.24-2.82,1.26-4.08,1.02-5.36-2.4-3.06-8.14-7.4-15.65-10.38-23.86-.46-1.26-1.15-2.41-.37-3.78Z"/>
    <path class="cls-4" d="m838.13,159.58c-1.73-.14-2.83-.12-3.9-.33-4.26-.84-5.56-4.21-2.6-7.68,6.84-7.99,15.43-11.61,25.39-10.33,4.92.63,5.87,4.07,2.44,8.05-5.92,6.87-13.54,9.64-21.32,10.28Z"/>
    <path class="cls-7" d="m184.37,162.3c-3.95-.41-8.76.46-10.57-4.72-1.69-4.82,1.68-8.19,4.61-11.07,7.05-6.91,15.5-10.37,24.85-11.33,2.48-.26,4.92.14,7.26,1.02,3.92,1.47,5.18,4.71,3.45,8.86-1.22,2.92-3.23,5.19-5.5,7.14-7.06,6.07-15.06,9.46-24.11,10.09Z"/>
    <path class="cls-6" d="m1107.23,146.95c10.34,1.09,19.95,4.35,27.79,12.34,2.22,2.26,4.48,4.86,3.31,8.52-1.06,3.31-4.19,3.79-6.83,3.94-12.4.7-23.38-3.48-32.23-13.05-4.92-5.32-3.39-9.66,3.4-11.24,1.45-.34,2.97-.34,4.56-.51Z"/>
    <path class="cls-6" d="m438.99,156.68c10.76.87,20.63,4.22,28.62,12.61,2.03,2.13,3.88,4.61,2.92,7.88-.92,3.15-3.75,3.77-6.34,4-12.06,1.06-22.57-3.24-31.7-11.67-2.25-2.08-4.77-4.85-3.54-8.46,1.27-3.71,4.87-3.87,7.98-4.35.67-.1,1.37-.01,2.05-.01Z"/>
    <path class="cls-5" d="m199.56,139.62c1.09,0,2.21-.13,3.28.03,2.46.36,4.51,1.77,5.42,4.25.88,2.38-.65,4.25-2.08,5.92-5.17,6.06-11.74,8.51-19.1,8.59-2.96.03-5.94-.98-7.06-4.32-1.1-3.28.89-5.76,3.05-7.72,4.77-4.31,10.2-6.82,16.49-6.75Z"/>
    <path class="cls-5" d="m853.59,151.38c-4.01,4.73-8.58,8.23-14.88,7.42-2.74-.36-3.41-2.29-2.9-5.02,1.16-6.23,11.08-12.91,17.76-11.8,2.54.42,3.61,3.7,2.21,6.41-.57,1.1-1.45,2-2.18,2.99Z"/>
    <path class="cls-5" d="m445.43,160.22c5.99.73,11.8,2.01,16.53,6.62,3.76,3.65,3.16,7.99-1.46,10.15-6.92,3.24-19.77-.54-24.29-7.14-1.85-2.71-1.36-6.03,1.32-7.65,2.42-1.47,5.05-2.27,7.9-1.97Z"/>
    <path class="cls-5" d="m1123.28,168.59c-7.55-.54-14.44-2.67-18.8-10.17-1.9-3.26-.68-5.54,2.22-7.19,6.61-3.76,20.72,1.62,25.12,9.76,1.67,3.09-.44,6.9-4.04,7.56-1.46.27-2.99.04-4.49.04Z"/>
  </g>
</svg>