<?xml version="1.0" encoding="UTF-8"?>
<svg id="lotus" xmlns="http://www.w3.org/2000/svg" viewBox="0 0 200 330.77">
  <defs>
    <style>
      .cls-1, .cls-2, .cls-3 {
        stroke-width: 0px;
      }

      .cls-2 {
        fill: #abb284;
      }

      .cls-3 {
        fill: #006837;
      }
    </style>
  </defs>
  <g id="tshirt">
    <g>
      <g>
        <path class="cls-1" d="m127.84,330.38c-16.65-17.49-32.84-35.24-49.48-51.62-8.11-7.99-13.76-15.39-13.16-34.79.59-19.32-5.53-37.05-9.65-54.92-6.53-28.3-13.12-56.56-20.6-84.53v67.18c-2,1.43-2.82-.89-3.83-2.02-9.68-10.88-19.28-21.95-29.01-32.69-2.22-2.45-2.7-4.41-1.38-8.68,6.49-20.95,12.77-42.12,19.18-63.15,1.9-6.22,2.97-7.08,14.18-13.79-3.54,16.46-6.9,32.13-10.69,49.77,7.83-7.46,14.85-13.19,21.25-20.57,4.6-5.31,7.67-3.72,10.88,2.7,7.84,15.64,14.39,33.02,21.58,49.54,6.98,16.06,13.72,32.45,20.58,48.66.77,1.82,1.52,3.84,2.54,5.12,2.45,3.04,4.45,4.89,5.78-2.84,6.3-36.68,12.91-73.2,19.41-109.78.24-1.35.48-2.7.74-4.04,4.17-21.42,5.53-22.88,17.98-19.23,8.26,2.42,16.53,4.82,25.51,7.44-4.75-22.86-15.26-37.54-21.74-57.42,8.97,1.34,18.25-2.32,25.74,9.18,8.55,13.13,16.98,26.51,25.52,39.65,1.11,1.7,1,2.44.18,4.43-6.87,16.59-13.68,33.25-20.37,50.06-1.5,3.78-2.4,2.98-4.08.43-4.75-7.22-9.69-14.06-15.29-22.12,0,23.54-.15,45.6.06,67.65.13,13.68.79,27.34,1.25,41,.12,3.49-.2,6.72-1.08,9.92-11.6,41.98-21.86,85-32.01,129.48Z"/>
        <path class="cls-1" d="m46.06,99.79c-8.18-11.74-15.19-7.03-22.9,2.66,4.22-19.56,8.06-37.37,11.9-55.18.69-3.19,1.38-6.37,2.07-9.56,2.23-10.27,6.77-14.97,12.81-13.69,1.94.41,2.04,2.8,2.72,5.04.93,3.08.09,3.97-1.26,4.97-2.98,2.21-2.84,6.98-3.03,11.53-.73,17.56-1.49,35.12-2.31,54.23Z"/>
        <path class="cls-1" d="m131.36,11.28c3.91-5,9.28-3.5,13.04-7.83,5.9-6.81,8.13-1.19,11.17,6.24,6.98,17.09,14.35,33.69,21.55,50.51.17.39.09,1.09.16,2.11-5.88-1.71-11.77-2.72-17.44-5.28-6.17-2.79-10.55.2-13.83,9.44-.41,1.15-.99,2.12-2.33,4.92,0-15.49-.09-28.94.02-42.39.15-17.89-.76-19.49-10.89-17.74-.48.08-.96.01-1.44.01Z"/>
      </g>
      <path class="cls-2" d="m127.27,317.46c-15.96-16.76-31.47-33.77-47.41-49.47-7.78-7.66-13.18-14.74-12.61-33.34.57-18.52-5.3-35.5-9.25-52.63-6.26-27.12-12.57-54.2-19.74-81.01v64.38c-1.92,1.38-2.71-.85-3.67-1.94-9.27-10.42-18.48-21.03-27.8-31.33-2.13-2.35-2.59-4.23-1.32-8.32,6.22-20.08,12.23-40.36,18.38-60.51,1.82-5.96,2.84-6.78,13.59-13.21-3.39,15.77-6.61,30.79-10.25,47.69,7.51-7.15,14.23-12.64,20.36-19.72,4.41-5.09,7.35-3.56,10.43,2.59,7.52,14.99,13.79,31.64,20.68,47.47,6.69,15.39,13.15,31.09,19.73,46.63.74,1.74,1.46,3.68,2.44,4.9,2.35,2.91,4.27,4.68,5.54-2.72,6.04-35.15,12.37-70.15,18.6-105.2.23-1.29.46-2.59.71-3.87,4-20.53,5.3-21.92,17.23-18.43,7.92,2.32,15.84,4.62,24.45,7.13-4.55-21.91-14.62-35.97-20.84-55.03,8.6,1.29,17.49-2.22,24.66,8.8,8.19,12.58,16.27,25.4,24.46,37.99,1.06,1.63.96,2.34.18,4.24-6.58,15.9-13.11,31.86-19.52,47.97-1.44,3.62-2.3,2.86-3.91.42-4.55-6.92-9.28-13.48-14.65-21.2,0,22.56-.15,43.7.05,64.83.12,13.11.76,26.2,1.2,39.29.11,3.35-.19,6.44-1.04,9.51-11.12,40.23-20.95,81.45-30.68,124.08Z"/>
      <path class="cls-3" d="m48.91,96.49c-7.84-11.25-14.56-6.73-21.94,2.54,4.04-18.74,7.72-35.81,11.4-52.88.66-3.05,1.32-6.11,1.99-9.16,2.13-9.84,6.49-14.35,12.27-13.12,1.86.39,1.96,2.68,2.61,4.83.9,2.95.09,3.81-1.21,4.76-2.86,2.12-2.72,6.69-2.91,11.05-.7,16.83-1.43,33.65-2.21,51.96Z"/>
      <path class="cls-3" d="m130.64,11.67c3.74-4.79,8.89-3.35,12.49-7.5,5.65-6.53,7.79-1.14,10.7,5.98,6.69,16.38,13.75,32.28,20.65,48.41.16.37.09,1.05.16,2.02-5.63-1.64-11.28-2.6-16.72-5.06-5.92-2.68-10.11.19-13.25,9.05-.39,1.11-.95,2.03-2.23,4.72,0-14.84-.09-27.74.02-40.62.15-17.15-.73-18.68-10.44-17-.46.08-.92.01-1.38.01Z"/>
      <polyline class="cls-1" points="53.06 75.08 58.04 71.41 98.39 174.75"/>
      <polyline class="cls-1" points="106.37 176.93 126.44 47.17 132.97 47.17"/>
    </g>
  </g>
</svg>