<?xml version="1.0" encoding="UTF-8"?>
<svg id="lotus" xmlns="http://www.w3.org/2000/svg" viewBox="0 0 230 330">
  <defs>
    <style>
      .cls-1, .cls-2, .cls-3, .cls-4, .cls-5, .cls-6, .cls-7, .cls-8, .cls-9, .cls-10, .cls-11, .cls-12, .cls-13, .cls-14, .cls-15, .cls-16, .cls-17, .cls-18, .cls-19, .cls-20, .cls-21, .cls-22, .cls-23, .cls-24, .cls-25, .cls-26, .cls-27, .cls-28, .cls-29, .cls-30, .cls-31, .cls-32, .cls-33, .cls-34, .cls-35, .cls-36, .cls-37, .cls-38, .cls-39, .cls-40, .cls-41, .cls-42, .cls-43, .cls-44, .cls-45, .cls-46, .cls-47, .cls-48, .cls-49, .cls-50, .cls-51, .cls-52, .cls-53, .cls-54, .cls-55, .cls-56, .cls-57, .cls-58, .cls-59, .cls-60, .cls-61, .cls-62, .cls-63, .cls-64, .cls-65, .cls-66, .cls-67 {
        stroke-width: 0px;
      }

      .cls-2 {
        fill: #4c4c4c;
      }

      .cls-3 {
        fill: #494949;
      }

      .cls-4 {
        fill: #4f4f4f;
      }

      .cls-5 {
        fill: #525252;
      }

      .cls-6 {
        fill: #343434;
      }

      .cls-7 {
        fill: #282828;
      }

      .cls-8 {
        fill: #4e4e4e;
      }

      .cls-9 {
        fill: #353535;
      }

      .cls-10 {
        fill: #2d2d2d;
      }

      .cls-11 {
        fill: #2a2a2a;
      }

      .cls-12 {
        fill: #2c2c2c;
      }

      .cls-13 {
        fill: #2b2b2b;
      }

      .cls-14 {
        fill: #292929;
      }

      .cls-15 {
        fill: #262626;
      }

      .cls-16 {
        fill: #313131;
      }

      .cls-17 {
        fill: #383838;
      }

      .cls-18 {
        fill: #3a3a3a;
      }

      .cls-19 {
        fill: #3d3d3d;
      }

      .cls-20 {
        fill: #272727;
      }

      .cls-21 {
        fill: #393939;
      }

      .cls-22 {
        fill: #2f2f2f;
      }

      .cls-23 {
        fill: #2e2e2e;
      }

      .cls-24 {
        fill: #1a1a1a;
      }

      .cls-25 {
        fill: #1b1b1b;
      }

      .cls-26 {
        fill: #3e3e3e;
      }

      .cls-27 {
        fill: #181818;
      }

      .cls-28 {
        fill: #191919;
      }

      .cls-29 {
        fill: #363636;
      }

      .cls-30 {
        fill: #444;
      }

      .cls-31 {
        fill: #111;
      }

      .cls-32 {
        fill: #0e0e0e;
      }

      .cls-33 {
        fill: #1c1c1c;
      }

      .cls-34 {
        fill: #1d1d1d;
      }

      .cls-35 {
        fill: #0f0f0f;
      }

      .cls-36 {
        fill: #101010;
      }

      .cls-37 {
        fill: #0d0d0d;
      }

      .cls-38 {
        fill: #141414;
      }

      .cls-39 {
        fill: #070707;
      }

      .cls-40 {
        fill: #080808;
      }

      .cls-41 {
        fill: #151515;
      }

      .cls-42 {
        fill: #434343;
      }

      .cls-43 {
        fill: #0c0c0c;
      }

      .cls-44 {
        fill: #222;
      }

      .cls-45 {
        fill: #1f1f1f;
      }

      .cls-46 {
        fill: #1e1e1e;
      }

      .cls-47 {
        fill: #131313;
      }

      .cls-48 {
        fill: #121212;
      }

      .cls-49 {
        fill: #171717;
      }

      .cls-50 {
        fill: #161616;
      }

      .cls-51 {
        fill: #252525;
      }

      .cls-52 {
        fill: #242424;
      }

      .cls-53 {
        fill: #bebebe;
      }

      .cls-54 {
        fill: silver;
      }

      .cls-55 {
        fill: #bdbdbd;
      }

      .cls-56 {
        fill: #a9a9a9;
      }

      .cls-57 {
        fill: #c2c2c2;
      }

      .cls-58 {
        fill: #c1c1c1;
      }

      .cls-59 {
        fill: #303030;
      }

      .cls-60 {
        fill: #323232;
      }

      .cls-61 {
        fill: #333;
      }

      .cls-62 {
        fill: #030303;
      }

      .cls-63 {
        fill: #040404;
      }

      .cls-64 {
        fill: #010101;
      }

      .cls-65 {
        fill: #060606;
      }

      .cls-66 {
        fill: #050505;
      }

      .cls-67 {
        fill: #020202;
      }
    </style>
  </defs>
  <g id="vest">
    <g id="skygge_bag_vest">
      <path class="cls-1" d="m146.67,301.24c-.76,3.22-1.52,6.44-2.27,9.67-.19.82-.52,1.65.2,2.42,2.28,2.43,4.56,4.85,7.01,7.45.5-1.31.87-2.31,1.22-3.23.59-.1.82.17.69.38-1.97,3.18.28,4.3,3.32,5.43,5.09,1.89,10.03,4.08,15.04,6.15-.13.23-.35.36-.64.4-6.28-2.51-12.69-4.83-18.8-7.62-3.06-1.4-4.62-4.36-6.81-6.64-1.51-1.57-2.68-2.51-3.95.08-.37.76-1.22,1.09-1.99,1.47-2.32,1.14-4.84,2.06-6.96,3.43-3.66,2.37-7.65,3-12.01,2.25-7.99-1.37-15.84-.13-23.72.81-1.47.18-2.96.25-4.45.38-.15-.12-.21-.24-.17-.37.04-.13.08-.19.13-.19,5.53-.68,11.06-1.41,16.6-2,4.2-.45,8.35.46,12.53.63,1.59.06,3.17.23,5.04.37-1.16-2.43-3.55-3.97-5.06-6.64,2.3,1.01,2.76,2.77,4.42,3.7-.61-3.01-1.19-5.85-1.77-8.69.27-.04.53-.08.8-.12.83,3.68,1.66,7.36,2.56,11.39,4.26-2.09,8.58-3.87,12.4-6.22,1.88-1.16,2.89-3.39,3.47-5.45.93-3.29,1.69-6.6,2.53-9.91.6-.05.88.12.62.66Z"/>
      <path class="cls-1" d="m37.35,313.23c4.25,1.19,8.5,2.38,13.22,3.71-.96-2.86-1.84-5.46-2.71-8.06,2.08,1.55,1.83,3.88,3.36,6.03,1.95-3.41,3.76-6.59,5.58-9.77.26.1.51.2.77.3-2.12,3.86-4.25,7.71-6.35,11.53,1.19.94,3.17.55,4.05,1.88-3.15-.08-5.83-1.49-8.75-2.23-3.31-.84-6.55-1.91-9.82-2.88-.11-.47,0-.73.65-.51Z"/>
      <path class="cls-1" d="m152.73,8.07c-1.81,1.08-3.7.21-5.48,0-8.87-1-17.81-1.58-26.61-3.04,2.37-1.32,4.77-.02,7.06.15,7.91.58,15.77,1.59,23.64,2.46.47.05.92.28,1.38.43Z"/>
      <path class="cls-1" d="m119.69,4.51c-1.81,1.08-3.69.2-5.48,0-8.87-.99-17.81-1.58-26.61-3.03,2.37-1.32,4.77-.02,7.06.15,7.9.58,15.77,1.59,23.64,2.46.47.05.92.28,1.38.43Z"/>
      <path class="cls-1" d="m92.54,323.51c.01.19.02.38.04.56-1.87.67-3.73.6-5.58-.05.11-.31.48-.35.73-.51.73-.01,1.44-.03,1.25-.94-.19-.9-.35-1.81-.52-2.72.15-.21.18-.51.55-.58.3.76.59,1.52,1.03,2.65,1.59-2.92,3.05-5.6,4.5-8.27.25.09.51.19.76.28-1.37,2.66-2.66,5.35-4.14,7.97-.85,1.5-.16,1.74,1.39,1.6Z"/>
      <path class="cls-1" d="m194.61,329.5c0,.17,0,.34,0,.5-7.79-.03-15.57-.06-23.36-.09.21-.13.43-.27.64-.4,5.66-.01,11.33-.14,16.99.01,2.35.06,2.03-.77,1.53-1.98-.37-.57.22-.81.55-1.15-.02-.15.03-.28.15-.39.18-.23.35-.25.53,0,.02.33.12.68.03.99-.63,2.22.66,2.77,2.95,2.51Z"/>
      <path class="cls-1" d="m62.76,319.81c5.61.67,11.19,1.45,16.71,2.54-.1.32-.48.36-.74.52-5.61-.84-11.21-1.69-16.82-2.53-.04-.54.22-.75.85-.53Z"/>
      <path class="cls-1" d="m66.07,4.39c-.26-.17-.53-.33-.79-.5,3.8-1.34,7.7-2.44,11.67-3.38.42.19.82.39.65.89-3.61,1.65-7.26,3.17-11.53,2.99Z"/>
      <path class="cls-1" d="m77.58,1.02c-.21-.17-.42-.34-.63-.51,3.1-1.13,6.05-.14,9.04.44-1.11,1.06-2.38.26-3.49.08-2.52-.41-3.93.13-3.86,2.48-.25-.02-.5-.04-.75-.06-.76-.75-.15-1.63-.32-2.43Z"/>
      <path class="cls-1" d="m22.22,308.4c.18-.24.36-.48.54-.72,2.42,1.53,5.18,2.52,7.9,3.59.23.23.22.45-.02.67-3.07-.72-5.72-2.16-8.42-3.54Z"/>
      <path class="cls-1" d="m30.64,311.94c0-.22.02-.44.02-.67,2.3.49,4.56,1.05,6.69,1.96-.22.17-.43.34-.65.51-2.08-.46-4.16-.92-6.06-1.81Z"/>
      <path class="cls-1" d="m78.73,322.88c.25-.17.5-.35.74-.52,2.75.39,5.49.77,8.24,1.16-.24.17-.48.34-.73.51-2.75-.38-5.5-.76-8.26-1.15Z"/>
      <path class="cls-1" d="m62.76,319.81c-.28.18-.57.35-.85.53-1.78-.54-4.07.26-5.4-1.47,2.08.31,4.16.62,6.25.94Z"/>
      <path class="cls-1" d="m89,319.29c-.18.19-.37.38-.55.58-.4-1.46-.8-2.91-1.2-4.37,1.4,1.08,1.67,2.42,1.75,3.8Z"/>
      <path class="cls-1" d="m213.77,326.5c-.16,0-.31,0-.47,0-1.45-2.31-2.9-4.62-3.25-7.34.94,1.61,1.88,3.23,2.94,5.04,1.31-1.52.58-3.48,2.14-5.09.1,2.77-.87,5.06-1.36,7.4Z"/>
      <path class="cls-1" d="m191.62,326c-.18,0-.35,0-.53,0,.31-2.69.61-5.38.92-8.07.27.03.55.05.82.08-.4,2.66-.81,5.33-1.21,7.99Z"/>
      <path class="cls-1" d="m190.95,326.39c-.18.38-.36.76-.55,1.15-1.18-1.79-2.06-3.67-2.66-6.23,1.99,1.71,1.81,3.75,3.21,5.08Z"/>
      <g>
        <path class="cls-1" d="m56.52,318.88c-.42,0-.83-.01-1.25-.02-6.05-1.95-5.04-1.41-2.55-5.52.68-1.12,1.38-2.24,1.95-3.41.55-1.15,1.1-2.3,1.76-3.42-1.33,2.23-2.26,4.62-3.74,6.79-.42.62-.5,1.66-1.57,1.66-1.27,0-.9-1.13-1.22-1.76-.42-.83-.69-1.71-1.06-2.56.67,1.47.99,3.04,1.75,4.48.32.6.42,1.16-.05,1.66-.57.59-1.31.19-1.93.02-3.77-1.08-7.58-2.06-11.32-3.24-2.18-.73-4.48-1.16-6.59-2.03-3-.69-5.61-2.01-8.08-3.56-.09-.23-.1-.47-.03-.71,1.58-1.35,3.03-2.79,4.17-4.18-1.11.87-1.78,2.32-3.22,3.24-.95.61-1.61.76-1.58-.56.01-3.41-.02-6.81-.01-10.21.04,3.7-.03,7.4,0,11.09-.34,1.32-1.23.61-2.03.42-3.88-.96-5.85-3.83-7.74-6.34-2.79-3.72-5.32-7.69-6.02-12.23-.5-3.84-.76-7.72-1.48-11.52-.92-4.87.69-9.51,1.26-14.24.07-.59.22-1.16.15-1.76.18-.33.37-.66.55-1,.18-4.11,1.06-8.16,2.01-12.16.52-2.17,2.9-3.75,4.36-5.65.88-1.19,2.29-.8,3.54-.83,1.95-.04,3.89-.02,5.27,0-2.39-.36-5.48.48-8.41-.37-2.34-1.23-4.55-2.63-6.86-3.9-1.58-.87-2.64-2.03-2.58-3.68.06-1.76-.34-3.49-.34-5.24.32-6.84,2.08-13.53,3.11-20.29,1.08-7.11,2.63-14.15,4.84-21.08.29-.9.53-1.81.43-2.75-.04-.17,0-.33.09-.49,2.31-5.51,3.39-11.28,5.08-16.92,1-3.33.9-3.36,4.9-3.35,1.19,0,2.39-.1,3.29.04-1.59-.15-3.48-.06-5.37-.04-1.43.02-2.11-.49-2.6-1.62-3.09-7.05-6.33-14.06-9.3-21.15-.36-2.34.26-4.68.06-7.02.54-1.59.08-3.24.37-4.85.45-1.61.07-3.24.23-4.86.54-1.58.08-3.21.36-4.8.43-1.53.11-3.08.21-4.61,1.01-1.73-.18-3.61.48-5.38.28-1.53,0-3.08.16-4.61.53-1.58.05-3.21.37-4.8.44-1.63.03-3.29.25-4.92.69-1.73-.4-3.67.84-5.34-.4-1.27-.1-2.54,0-3.81-3.83-8.06-7.04-16.32-10.59-24.46-.39-.9-.43-1.76-.28-2.71.53-3.17,1.35-6.31,1.65-9.5.2-2.11,1.34-3.16,3.8-3.24,2.93-.48,5.84-1.04,8.75-1.57,1.09-.09,2.16-.36,3.19-.64,5.07-1.4,8.46.76,11.12,3.91,3.82,4.52,7.34,9.23,10.99,13.86,6.62,8.57,14.27,16.52,21.24,24.88,8.47,10.16,17,20.28,25.52,30.41,4.47,5.31,10.09,9.82,15.29,14.59,5.76,5.28,11.34,10.69,17.27,15.83.89.77,1.48,1.93,3.13,1.37,1.66-.57,3.48-1.01,3.91-2.8.4-1.66.76-3.32,1.08-4.99,1.18-6.02,2.36-12.04,3.56-18.05.17-.84.29-1.65,0-2.48q-1.02-4.46,4.44-4.46c.4,0,.8-.01.85,0-.68-.02-1.71,0-2.74,0-1.53.01-3.11.09-3.78-1.44-.72-1.63-1.24-3.27.48-4.74.28-.24.54-.5.83-.74,11.25-9.16,21.49-19.18,32.84-28.26,7.84-6.27,14.53-13.27,20.54-20.81,4.87-6.11,10.08-12.02,15.04-18.07.71-.87,1.25-2.02,2.92-1.83,6.31,2.09,12.38,4.68,18.73,6.7,2.22.7,2.61,2.65,3.84,4.03,1.56,1.76.64,3.16-.09,4.89-3.45,8.28-9.87,14.97-16.01,21.8-1.62,1.8-2.25,3.41-1.48,5.73,2.77,8.3,3.33,16.97,5.76,25.33.69,1.72.57,3.5.53,5.27-.03,1.42-.78,2.16-2.58,2.13-2.59-.05-5.18-.01-7.78,0,2.58.01,5.16.05,7.74,0,1.86-.04,2.55.67,2.33,2.15-.36,2.42-.41,4.88-1.15,7.26.02,1.38-.22,2.74-.5,4.1.14,1.43-.82,2.78-.48,4.23,0,.55,0,1.1.01,1.65-1.42,3.79-1.93,7.76-2.54,11.66-.7,4.51-2.67,8.22-6.72,11.15-1.62,1.17-2.83,2.64-4.04,4.06-1.25,1.45-2.72,1.76-4.62,1.76-19.2-.01-38.4-.03-57.6.02-2.55,0-4.06-.55-4.81-2.79-1.07-3.21-2.7-6.28-3.76-9.5.97,3.14,2.25,6.22,3.71,9.21,1.17,2.4,1.68,4.81.52,7.13-2.96,5.93-.7,10.98,3.07,15.96,2.81,3.71,4.62,7.89,7.29,11.67.69.97.69,2.11.7,3.21.01,2.71.09,5.42-.01,8.13-.17,4.43,0,8.8,2.24,12.93.79,1.47.43,2.95-.09,4.46-1.98,5.74-5.63,10.83-8.66,16.17-.34.62-.73,1.23-1.01,1.87-2.77,3.73-2.1,7.41-.22,11.29,3.26,6.71,5.71,13.69,8.28,20.61,1.4,3.78,1.61,7.8,2.19,11.71.74,5,1.86,10,1.51,15.08-.67,3.42-1.51,6.82-2.58,10.15-.92,2.87-2.88,5.31-6.19,6.81-2.81,1.28-5.54,2.67-8.3,4.04-2.03,1.01-3.03.64-3.19-1.3-.21-2.44-.95-4.8-1.34-7.21.18,2.25,1.38,4.42,1.02,6.78-1.4-.08-1.5-1.17-2.3-1.62-.04.02.14.07.23.26.68,1.35,3.5,2.25,2.4,3.69-.96,1.26-3.47.52-5.27.26-7.98-1.13-15.85-.32-23.72.79-1.57.22-3.13.5-4.74.46-2.61-.04-2.98-.41-1.98-2.19,1.19-2.12,2.12-4.34,3.64-6.68-1.92,2.46-2.3,5.28-4.54,7.38-1.08-.94-.83-1.96-1.22-2.78-.11-.8-.35-1.58-.68-2.34.43,1.02.57,2.09.87,3.13-.07,1.29,1.8,3.02-1.17,3.63-2.78-.43-5.57-.81-8.35-1.22-5.58-.76-11.1-1.79-16.68-2.52-2.06-.45-4.26-.37-6.21-1.24Z"/>
        <path class="cls-1" d="m224.02,274.08c.2,1.21.4,2.43.6,3.64.69,3.66,1.24,7.34,3.04,10.79,1.54,2.93,1.48,6.12,1.6,9.21.21,5.55.91,11.16-.44,16.66-.83,3.38-2.12,6.68-3.34,9.98-.34.94-.76,1.8-2.1,1.85-3.18.12-6.29.85-9.48.81-1.42-2.28,1.06-4.15.67-6-.44.9-.12,2.45-1.6,3.75-1.22-1.5-1.86-3.05-2.56-4.38.5,2.24,3.04,4,2.88,6.62-5.59,1.47-11.47,1.49-17.14,2.52-.58.1-1.18.1-1.75.26-3.45,0-3.54-.09-3.12-3.33.43-2.05.7-4.12.74-6.06-.16,1.72-.15,3.6-.69,5.43-.01.25-.08.49-.2.72-2.19-.8-1.6-2.92-2.68-4.01-.25-.5-.52.12-.25-.13,1.16,1.81,1.88,3.78,2.85,5.67.69,1.72-.55,1.75-2.01,1.75-5.45-.03-10.9-.02-16.35,0-1.75-.1-3.2-.88-4.7-1.52-4.54-1.92-9.09-3.83-13.73-5.59-2.47-.94-2.52-1.17-1.17-3.6-1.39,2.2-1.38,2.19-3.51.04-.7-.71-1.29-1.58-2.08-2.13-4.01-2.78-4.1-6.16-2.65-9.96.76-2,1.06-4.11,1.6-6.16.65-3.73-.52-7.36-.78-11.05-.9-12.71-5.76-24.57-10.93-36.37-.21-.47-.34-.98-.62-1.42-2.32-3.66-1.56-7.11.95-10.45,3.39-.6,6.79-.2,10.19-.26-2.41-.05-4.83,0-7.25-.07-.88-.02-2.09.47-2.49-.76,1.46-3.05,3.26-5.98,5.14-8.85,1.87-2.84,2.9-5.92,4.16-8.94.3-.73.55-1.46.11-2.21-3.25-5.55-2.81-11.53-2.45-17.4.29-4.67-1.08-8.69-3.85-12.69-2.71-3.92-5.14-8.01-7.55-12.09-1.5-2.53-1.16-3,2.3-3.06,3.39-.07,6.79,0,10.19-.05,6.59.09,13.17-.19,19.75.15,4.05.73,8.15.22,12.23.34,2.69.08,5.39,0,8.08.01,3.23.11,6.47-.19,9.7.19,1.79.76,2.21,2.33,2.9,3.68,2.03,3.95,4.21,7.85,7.58,11.1,4.24,4.09,5.72,9.14,7.3,14.17.2.65.49,1.28.62,1.95,0,1.52.04,3.04-.02,4.55.63,7.62-3.49,14.31-5.85,21.35-.35,2.82-.15,5.66-.67,8.47,0,.02-.2.03.02.14,5.21,2.43,9.41,5.66,11.49,10.54,1.22,2.86,2.08,5.82,3.4,8.65,1.34,4.03,2.4,8.1,3.1,12.24.09.51.41.94.83,1.31Z"/>
        <path class="cls-1" d="m119.69,4.51c.31.18.63.35.94.53,6.22.26,12.35,1.22,18.53,1.76,4.52.4,9,1.17,13.56,1.27.32.18.64.36.96.53,5.99.06,6.03.09,3.43,4.46-1.34,2.25-2.55,4.55-4.1,6.7-2.7,4.15-5.12,8.43-7.56,12.69-1.58,2.75-3.77,4.03-7.53,3.85-9.45-.45-18.9-.99-28.37-1.12-3.07-.04-3.57-.77-2.84-3.37.18-.65.31-1.31.38-1.43-.3.7-.38,2.04-1.04,3.2-.9,1.61-2.75.97-4.24,1.14-.5,0-.99,0-1.49-.02-4.19-.11-4.35-.31-2.76-3.65-.79.46-.24,2.05-1.89,1.57-.95-.27-1.26-1.15-1.75-1.72.28.9,2,1.56,1.44,2.5-.71,1.19-2.49.75-3.83.77-6.91.07-6.86.04-9.65-5.37-1.59-3.1-2.99-6.27-4.8-9.28-1.95-3.24-.34-6.48-.08-9.7.18-2.18.64-4.35.94-6.52.23-2.23,1.59-3.05,4.21-2.61,1.24.21,2.53.41,3.83.26.65-.06,1.15.21,1.62.53,6.22.26,12.35,1.22,18.53,1.76,4.52.4,8.99,1.17,13.56,1.27Z"/>
        <path class="cls-1" d="m78.64,3.51c-.4,2.94-.51,5.93-1.28,8.79-.88,3.26-.14,6.12,1.5,9.03,1.93,3.43,3.6,6.96,5.39,10.44.44.85.79,1.73,2.24,1.71,2.88-.05,5.76-.01,8.91-.01-1.24-1.49-2.45-2.94-3.65-4.39.19-.12.39-.24.58-.37,1.17,1.26,2.34,2.52,3.56,3.83,1.44-.93,1.05-2.59,2.55-3.75.18,1.98-1.49,3.36-1.43,5.07,1.53.08,3.02.17,4.51.25-.47,1.48-2.01.94-3.13,1.19-4.14-.19-8.35.5-11.98-.43-.2-.14.11,0,.2.21,1.37,3.4,4.45,3.82,8.24,3.98,10.15.42,20.29,1,30.44,1.41,2.66.11,5.38.15,7.93,1.02.42,1.47-1.04,1.11-1.87,1.38-11.17.06-22.28-.84-33.42-1.4-2.36-.12-5.56-.99-6.86.37-1.32,1.38,1.19,3.42,1.93,5.2,3.89,9.44,11.94,16.71,18.23,24.89,1.47,1.91,3.04,3.77,4.55,5.66.4.54.95.99,1.3,1.56,3.08,6.8,6.48,13.5,9.49,20.33.69,1.56,1.41,1.54,2.73.5,10.04-7.89,19.99-15.86,29.92-23.84,3.13-2.51,5.91-5.26,8.47-8.21,11.84-13.66,23.66-27.33,35.49-41,1.71-1.98,1.69-1.99-1.09-2.89-12.81-4.12-25.6-8.3-38.37-12.51-3.95-1.3-3.94-1.23-5.97,1.9-1.42,2.2-2.08,4.79-4.5,6.5-.49-.01-.89-.09-.66-.64,1.91-3.28,3.82-6.56,5.74-9.86-1.74-.3-3.18-.56-4.63-.81,2.32-1.13,4.65-.22,6.66.42,17.04,5.42,34,11.03,51.01,16.52,1.66.54,1.64,1.02.71,2.09-3.23,3.74-6.37,7.54-9.55,11.31.23.31.19.6-.13.85-1.07.28-1.43,1.13-2,1.81-7.68,9.17-15.39,18.33-23.02,27.53-3.01,3.64-6.98,6.51-10.59,9.65-11.57,10.06-23.28,20.01-34.91,30.03-1.06.91-2.31,1.65-1.92,3.4.49,2.23,1.45,3.25,4.27,2.92,1.8-.21,3.66-.04,5.49-.04,0,.23,0,.46,0,.7h-8.67c.24,1.41.42,2.49.6,3.57.23.55.36,1.07-.56,1.25-1.37-.84-1.39-2.21-1.74-3.4-2.96-9.94-6.16-19.8-10.7-29.36-2.72-5.73-6.17-10.98-10.48-15.91-3.63-4.15-6.93-8.51-10.56-12.67-4.95-5.68-7.33-12.4-10.69-18.71-3.75-7.02-7.33-14.12-10.89-21.21-.77-1.54-1.03-3-.76-4.68.49-3.02,1.01-6.04,1.45-9.06.12-.83.02-1.73,1.04-2.26.33-.08.62-.02.88.16Z"/>
        <path class="cls-1" d="m183.84,176.36c-6.82.1-13.65.25-20.46-.37-.15-.13-.21-.27-.18-.42.03-.15.06-.23.11-.23,1.94-.42,2.41-1.14,1.25-2.76-1.54-2.16-3.03-4.35-4.3-6.64-.34-.62-.82-1.17-1.65-1.38-.66-.17-1.42-.38-1.96.12-.49.45-.02.95.21,1.39,1.02,2.02,2.57,3.8,3.71,5.76.56.96,1.42,1.86,1.15,3.06-.21.17-.47.26-.75.28-2.24-.96-2.65-3.05-3.9-4.62-1-1.25-1.62-2.71-2.48-4.04-.43-.67-.85-1.36-1.65-1.76-.71-.36-1.57-.62-2.23-.12-.66.5-.01,1.1.27,1.6,1.15,2.06,2.75,3.92,3.87,5.99.37.68.99,1.28.95,2.1-.15.37-.44.61-.88.74-2.55-1.21-2.9-3.7-4.43-5.5-.98-1.15-1.57-2.54-2.5-3.74-.44-.57-.87-1.15-1.72-1.32-.68-.14-1.43-.29-2.01.11-.75.52-.15,1.09.13,1.59,1.12,1.98,2.32,3.92,3.45,5.9.52.9,1.22,1.77.96,2.86-.16.37-.44.61-.94.61-2.75-2.71-3.73-6.28-6.15-9.15-.61-.72-.87-1.74-2.56-1.85.6,3.77,3.69,6.61,4.72,10.1,0,.55-.45.88-.86,1.22-3.4,0-6.81.11-10.2-.04-2.13-.09-2.74.14-1.58,1.95,3.42,5.35,6.65,10.79,10.09,16.13,1.18,1.84,1.81,3.67,1.7,5.78-.15,2.96.11,5.94-.07,8.9-.23,3.86.27,7.58,2.21,11.11.58,1.06.53,2.08.15,3.18-2.13,6.12-5.68,11.67-9.43,17.15-.21.24-.42.25-.63,0,.71-2.14,2.26-3.93,3.37-5.91.86-1.52,1.93-2.97,2.73-4.51,2.31-4.41,4.55-8.77,1.28-13.66-1.47-2.19-.91-4.87-.6-7.26,1.08-8.25-1.24-15.66-6.6-22.55-2.08-2.67-3.44-5.72-5.36-8.48-1.11-1.6-1.25-3.13-.72-4.82.13-.41.19-.84.37-1.23,2.96-6.31.9-12.22-1.97-18.09-.7-1.43-1.5-2.88-.99-4.64,1.4,3.38,3.05,6.71,4.14,10.16.9,2.86,2.35,3.92,6.09,3.87,19-.24,38.01-.19,57.01-.17,1.78,0,3.08-.34,4.02-1.63.37-.5.76-1.05,1.3-1.39,9.02-5.7,9.35-14.39,10.92-22.66.16-.82-.38-1.97,1.19-2.29-1,5.31-2,10.62-3.01,15.93-.26,1.35-.86,2.51-1.98,3.57-3.99,3.78-7.86,7.66-11.77,11.49-.21-.14-.37-.32-.49-.53-1.99-1.84-4.4-.61-6.64-.65-.28.04-.55.05-.83.04-1.56-.21-3.12-.36-5.03-.26,1.72,2.68,3.14,5.36,4.84,7.94.52.79,1.26,1.52,1.14,2.52-.16.37-.47.61-.91.73-1.3-.19-1.59-1.18-2.1-1.97-1.27-2-2.52-4.02-3.67-6.07-1.43-2.52-3.37-3.87-6.48-3.12,1.63,1.6,2.68,3.69,3.96,5.65,1.44,2.2,2.67,4.49,5.6,5.6.06.25,0,.49-.18.69Z"/>
        <path class="cls-1" d="m128.05,140.97c-.23,1.16-.44,2.33-.68,3.49-.58,2.77-2.36,4.19-5.55,4.67-1.04.16-1.46-.35-1.98-.83-10.54-9.73-21.42-19.21-31.49-29.27-6.49-6.5-11.74-13.88-17.63-20.82-9.8-11.54-19.66-23.04-29.48-34.56-.58-.68-1.04-1.43-1.56-2.15-.25-.52.14-.62.61-.67,1.13.33,1.65,1.19,2.28,1.94,7.87,9.5,16.47,18.56,24.17,28.16.66.83,1.41,1.3,2.69,1.31,1.5.01,2.33.88,1.69,2.04-.68,1.23.09,1.9.77,2.72,5.6,6.81,11.35,13.54,16.89,20.38,1.99,2.45,4.63,4.45,7.01,6.6,7.86,7.1,15.46,14.4,23.36,21.47.55.49,1.1.98,1.73,1.4.83.55,1.74.54,2.46-.05.87-.7-.03-1.24-.49-1.72-4.85-5.17-9.84-10.25-14.73-15.39-13.81-14.5-27.76-28.91-41.57-43.42-3.65-3.83-6-8.4-9.01-12.59-11.09-15.43-20.68-31.54-30.27-47.65-1.4-2.34-1.42-2.34-3.85-.77-.48.31-.93.64-1.41.95-2.77,1.81-5.4,3.63-2.43,6.9.16.17.02.49-.08.74-.19.23-.42.27-.7.13-3.63-4.47-3.69-4.52,1.07-7.9,2.56-1.82,4.78-3.99,7.81-5.31.62-.21.74.14.81.53-.36,1.03-.07,1.94.48,2.91,11.38,20.08,23.98,39.6,37.74,58.58,3.4,4.69,7.99,8.65,12.06,12.93,15.17,15.94,30.45,31.8,45.68,47.7.29.31.46.76,1.12.79,1-1.4.25-3.39,2.05-4.54.79.26.66.74.44,1.25Z"/>
        <path class="cls-1" d="m213.77,326.5c3.27.32,6.41-.71,9.66-.69.99,0,1.31-.67,1.6-1.3,5.01-11.04,4.69-22.5,2.83-33.88-.62-3.79-2.71-7.52-3.54-11.42-.11-.51-.73-1.13.3-1.49,2.09,7.5,5.35,14.74,5.38,22.68.04,8.26-.49,16.33-3.96,24.15-.63,1.42-1.26,1.89-3.03,2.08-9.49,1.02-18.94,2.22-28.41,3.36-.2-.11-.26-.23-.19-.34.07-.11.13-.17.2-.17,5.64-1.23,11.48-1.48,17.18-2.46.55-.09,1.22.05,1.52-.54.16-.23.31-.23.47,0Z"/>
        <path class="cls-1" d="m202.39,39.8c.04-.28.09-.57.13-.85,6.2,2.27,12.41,4.56,18.62,6.82,3.87,1.41,5.82,6.01,4.43,9.31-3.55,8.44-10.01,15.31-16.35,22.24-1.54,1.68-1.89,3.19-1.24,5.28,2.51,8.09,3.65,16.4,5.29,24.63.36.51.01.56-.47.52-2.6-8.87-3.26-18.05-6.2-26.86-.33-.98-.11-1.77.64-2.58,1.9-2.07,3.57-4.3,5.56-6.3,5.14-5.16,8.89-10.98,11.86-17.21,1.35-2.84-.52-7.04-3.91-8.28-6.12-2.25-12.24-4.48-18.36-6.71Z"/>
        <path class="cls-1" d="m8.47,140.84c3.01,6.6,6.11,13.18,8.98,19.82.71,1.64,1.62,2.23,3.64,2.1,2.51-.16,5.05-.04,7.58.25-2.51.95-5.15.57-7.72.58-1.74,0-2.6.3-3.02,1.96-1.36,5.45-3,10.84-4.55,16.26-.19.68.1,1.64-1.27,1.7,1.03-3.92,1.66-7.96,3.18-11.73,2.32-5.74,2.01-11.02-1.13-16.52-2.54-4.45-4.17-9.27-6.21-13.93.09-.22.26-.38.51-.49Z"/>
        <path class="cls-1" d="m12.03,184c1.21.58.4,1.35.19,1.99-3.95,12.5-5.39,25.37-7.84,38.09-.27,1.41-.2,2.86-.29,4.3-.41.67.24,1.53-.53,2.14-1.42-4,.13-7.89.79-11.77,1.93-11.45,3.72-22.93,7.21-34.15.07-.22.3-.41.46-.61Z"/>
        <path class="cls-1" d="m40.14,61.01c-.15.17-.31.34-.46.5-3.52-4.38-7.04-8.75-10.55-13.13-3.81-4.77-5.83-5.49-12.31-4.37-.58.1-1.18.09-1.77.13,0-.11,0-.23,0-.34,3.27-.73,6.52-2.64,10.26-.34-2.18-3.14-4.35-6.29-6.53-9.43.27-.02.54-.04.81-.05,1.37.21,1.88,1.2,2.46,2.05,5.16,7.62,11.17,14.77,16.83,22.11.65.85,1.86,1.6,1.25,2.87Z"/>
        <path class="cls-1" d="m6.2,45.81c-2.74.15-3.38,1.72-3.62,3.69-.27,2.18-.69,4.35-1.17,6.5-.58,2.54-.22,4.88.9,7.34,3.06,6.76,5.84,13.62,8.72,20.44.23.54.31,1.13.46,1.7-1.14-.19-1.15-1.06-1.44-1.75-3.18-7.44-6.28-14.9-9.58-22.29-1.09-2.45.15-4.66.33-6.97.16-2.1.8-4.16,1.06-6.25.24-1.93,1.24-3.01,3.65-2.88.26.13.63.16.71.49Z"/>
        <path class="cls-1" d="m28.25,21.19c-.19-.13-.39-.26-.58-.38,6.7-3.96,13.12-8.34,20.19-11.75,5.3-2.55,11.5-3.69,17.42-5.16.56-.17.86.04.97.5-.47.88-1.49,1.05-2.41,1.34-1.96.61-3.92,1.26-5.95,1.67-7.03,1.45-12.97,4.59-18.63,8.24-2.85,1.84-5.96,3.37-8.9,5.11-.6.35-1.21.97-2.11.44Z"/>
        <path class="cls-1" d="m211.35,206.48c-.08-.06-.2-.1-.22-.17-1.6-7.35-5.86-13.54-11.04-19.5-2.66-3.06-4.14-6.85-6.15-10.32.26-.25.54-.28.85-.08,3.62,6.65,8.24,12.78,13.13,18.82,2.6,3.21,2.9,7.42,4.04,11.24-.2.23-.41.23-.61,0Z"/>
        <path class="cls-1" d="m212.8,107.75l.47-.52c.9.5.74,1.38.78,2.05.34,5.32.22,10.63-1.49,15.81-.15.21-.29.22-.45,0,.3-2.34.57-4.69.91-7.03.21-1.48-.07-2.28-2.25-2.18-3.71.17-7.43.05-11.15.05-.01-.31-.02-.62-.03-.92,2.98,0,5.95,0,8.93,0,5.04,0,5.06,0,4.8-4.26-.06-1.01-.34-2-.52-3Z"/>
        <path class="cls-1" d="m219.6,260.45c-.56-1.34-1.34-2.65-1.63-4.03-1.22-5.78-5.08-10.09-10.24-13.74-.23-.16-.4-.48-.64-.51-3.96-.55-2-3.01-2.07-4.73-.06-1.5.3-3.02.47-4.52.24-.15.47-.15.68.04-1.54,5.31.96,9.24,5.97,12.24,4.86,2.91,5.16,7.73,7.04,11.88.49,1.07.78,2.2,1.16,3.31-.21.27-.46.29-.74.07Z"/>
        <path class="cls-1" d="m6.11,260.96c1.11,1.99.01,3.91-.46,5.76-1.69,6.62.14,13.1.69,19.63.07.84.16,1.68.24,2.51-.2.24-.42.26-.66.03-1.79-9.09-2.77-18.18-.27-27.3.06-.23.3-.43.45-.64Z"/>
        <path class="cls-1" d="m206.17,232.95l-.68-.04c.4-3.22,2.13-6.1,3.41-9.08,1.34-3.13,2.15-6.27,2-9.61-.04-.88-.24-1.86.44-2.69.19-.23.39-.23.58,0,.51,5.68-1.26,10.97-3.66,16.18-.79,1.72-1.4,3.49-2.1,5.24Z"/>
        <path class="cls-1" d="m5.93,288.9c.22-.01.44-.02.66-.03,2.52,6.86,5.4,13.53,13.07,17.64.56.3,1.29.38,1.94.56.4.34.45.7.09,1.09-9.93-3.67-13.25-11.22-15.75-19.25Z"/>
        <path class="cls-1" d="m13.1,242.53c-4.72,4.23-4.81,9.74-5.76,15.01-.15.83-.11,1.69-.68,2.43-.4-.15-.63-.43-.56-.79,1.25-5.96.57-12.45,6.56-17.11.25.08.4.24.44.46Z"/>
        <path class="cls-1" d="m194.79,176.42c-.28.03-.57.05-.85.08-3.37-.05-6.73-.09-10.1-.14.03-.16.02-.32-.02-.48.86-.81,1.96-.25,2.94-.38.16-.18.32-.36.48-.54,1.85-.16,4.21,1.54,5.4-1.06.19-.17.39-.32.57-.49.09-1.95-.17-3.89-.01-5.83.08-.98-.09-2.09,1.35-2.59.03.26.06.53.09.79.05,3.54.11,7.08.16,10.62Z"/>
        <path class="cls-1" d="m3.57,230.52c.23-.7-.14-1.51.53-2.14-.81,5.43,2.02,9.04,7.76,11.24.51.2.9.63,1.35.95-.09.21-.26.35-.52.41-1.5-.83-2.91-1.81-4.51-2.45-4.15-1.65-5.32-4.41-4.61-8.01Z"/>
        <path class="cls-1" d="m219.6,260.45c.25-.02.49-.05.74-.07,2.13,4.39,2.44,9.13,3.68,13.7-1.06.18-1.07-.48-1.19-1.07-.88-4.22-1.78-8.44-3.23-12.56Z"/>
        <path class="cls-1" d="m21.68,308.16c-.03-.36-.06-.73-.09-1.09,0-4.11,0-8.21,0-12.32.24,0,.49,0,.73,0v11.85c.2.22.58.31.68.61-.07.16-.15.32-.22.48-.13.27-.19.58-.54.72-.18-.08-.36-.16-.54-.25Z"/>
        <path class="cls-1" d="m6.2,45.81c-.24-.16-.47-.32-.71-.49,3.19-.5,6.28-1.47,9.58-1.53,0,.11,0,.23,0,.34-2.88.85-5.86,1.3-8.86,1.67Z"/>
        <path class="cls-1" d="m10.15,109.27c.49,1.36-.56,2.9.78,4.21.24.23-.67.36-1.1.44-.24.21-.47.22-.7,0-.13-1.74-.16-3.48.47-5.17.26.11.44.29.54.52Z"/>
        <path class="cls-1" d="m12.69,240.97c.17-.14.35-.27.52-.41,3.25.93,6.65-.01,9.95,1-2.32,0-4.65,0-6.97,0-1.18,0-2.41-.18-3.09.96-.15-.15-.29-.31-.44-.46,0-.36.46-.72.03-1.09Z"/>
        <path class="cls-1" d="m8.47,140.84l-.51.49c-.97-2.69.09-5.39-.03-8.09.21-.17.43-.18.65-.02-.04,2.54-.08,5.08-.11,7.61Z"/>
        <path class="cls-1" d="m11.47,89.29c-.04,1.79.37,3.61-.5,5.34-.4-.02-.43-.34-.61-.54.2-1.63-1.09-3.51,1.11-4.81Z"/>
        <path class="cls-1" d="m8.58,133.22c-.22,0-.43.01-.65.02-.1-1.74-.22-3.48.47-5.17.36.05.39.35.58.53.09,1.55.35,3.12-.4,4.62Z"/>
        <path class="cls-1" d="m9.56,118.93c.12,1.56.39,3.13-.41,4.64-.2.23-.4.23-.61.02-.15-1.74-.21-3.48.45-5.18.39.02.37.36.57.53Z"/>
        <path class="cls-1" d="m10.76,99.59c.17,1.59.36,3.18-.39,4.71-.39-.02-.43-.34-.6-.54-.15-1.58-.32-3.17.42-4.69.37.03.4.34.58.52Z"/>
        <path class="cls-1" d="m212.11,125.1c.15-.02.3-.02.45,0,.14,1.38.3,2.76-.48,4.07-.19.24-.36.23-.53-.01.19-1.35.38-2.7.57-4.05Z"/>
        <path class="cls-1" d="m10.76,99.59c-.19-.17-.39-.35-.58-.52.06-1.66.12-3.31.18-4.97.2.18.41.36.61.54-.07,1.65-.14,3.3-.21,4.95Z"/>
        <path class="cls-1" d="m9.76,103.76c.2.18.4.36.6.54-.07,1.66-.14,3.31-.21,4.97-.18-.17-.36-.35-.54-.52.05-1.66.1-3.32.15-4.98Z"/>
        <path class="cls-1" d="m211.93,211.53l-.29-.02-.29.02c0-1.69,0-3.37,0-5.06.2,0,.41,0,.61,0,.37,1.69.05,3.37-.03,5.05Z"/>
        <path class="cls-1" d="m211.54,129.15c.18,0,.36,0,.53.01.26,1.39-.29,2.68-.7,3.98-1.04-1.36.28-2.66.16-4Z"/>
        <path class="cls-1" d="m8.55,123.58c.2,0,.41-.01.61-.02-.06,1.68-.12,3.36-.17,5.04-.19-.18-.39-.35-.58-.53.05-1.5.1-2.99.14-4.49Z"/>
        <path class="cls-1" d="m9.56,118.93c-.19-.18-.38-.35-.57-.53.05-1.5.09-3,.14-4.49.23,0,.47,0,.7,0-.09,1.67-.18,3.34-.27,5.01Z"/>
        <path class="cls-1" d="m146.67,301.24c-.21-.22-.41-.44-.62-.66.06-6.36-1.29-12.6-2.17-18.88-1.45-10.43-6.39-20.01-10.5-29.75-1.66-3.93-1.23-7.09,1.18-10.39.25.09.41.24.48.47-2.74,3.86-1.61,7.53.11,11.49,3.26,7.51,6.82,15,8.7,22.87,1.72,7.21,2.44,14.56,3.31,21.89.12,1.01.18,2.04-.49,2.96Z"/>
        <path class="cls-1" d="m137.05,211.74c-1.5,2.13-2.96,4.23-4.47,6.31-.27.37-.71.12-1.03-.09-.24-.15-.46-.33-.64-.53-1.52-1.62-5.05-2.84-4.52-4.63.78-2.64,3.38-4.89,5.22-7.3.23-.3.69-.51.97-.13,1.51,2.08,2.96,4.2,4.48,6.36Z"/>
        <path class="cls-1" d="m133.71,271.51c-2.37-1.76-4.56-3.43-6.8-5.04-.99-.71-.92-1.31-.19-2.12,1.55-1.73,3.02-3.52,4.75-5.55,1.79,2.44,3.43,4.71,5.13,6.95.75.99-.25,1.55-.64,2.24-.65,1.12-1.4,2.2-2.24,3.52Z"/>
        <path class="cls-1" d="m58.69,246.73c-.84-.79-1.68-1.58-2.52-2.36-1.44.96-1.74,2.72-3.72,3.47,4.8-4.36,2.22-9.87,3.48-14.79,1.71,4.4-1.78,9.61,3.68,13.32-.3.12-.61.24-.91.36Z"/>
        <path class="cls-1" d="m128.05,140.97c-.2-.38-.4-.75-.6-1.13-.68-.54-.56-1.23-.45-1.89.92-5.5,2.13-10.96,3.29-16.43.09-.42.34-.79.77-1.04.2-.37.4-.75.59-1.12,1.28,2.48-.2,4.81-.62,7.17-.86,4.83-1.97,9.63-2.98,14.44Z"/>
        <path class="cls-1" d="m126.46,158.59c.39.62.72,1.12,1.03,1.63,1.74,2.86,1.02,5.41-2.02,7.25-.16.1-.4.3-.48.26-2.01-.88-2.89-2.67-4.38-3.97-.86-.75.03-1.26.59-1.65,1.68-1.18,3.42-2.29,5.26-3.51Z"/>
        <path class="cls-1" d="m64.49,106.83c-.92,3.81-2.42,6.97-2.63,10.41-.39-2.79-1.35-5.41-2.6-8.63,1.96,1.11,1.67,2.44,2.38,3.32,1.37-1.33.66-3.44,2.85-5.1Z"/>
        <path class="cls-1" d="m106.88,245.51c.41-3.09.81-6.18,1.25-9.52-1.81.86-3.4,1.62-5,2.38-.14-.18-.29-.37-.43-.55,1.98-1.08,3.95-2.16,6.61-3.61-.55,4.12-1.03,7.72-1.5,11.32-.31,0-.61,0-.92-.01Z"/>
        <path class="cls-1" d="m102.94,170.2v-8.26c1.36.17.52,1.24,1.25,1.58,1.18-.27,1.39-1.62,3.73-1.95-3.59,2.57-4.58,5.47-4.23,8.78-.25-.05-.5-.11-.75-.16Z"/>
        <path class="cls-1" d="m77.59,238.51c.66.47,1.32.94,1.99,1.42,1.55-.68.24-2.56,2.09-3.19-.23,3.59-1.71,6.74-3.67,9.81-.09-2.64,3.72-5.49-1.46-7.72.35-.1.7-.21,1.05-.31Z"/>
        <path class="cls-1" d="m168.63,112.2c.94-1.5,1.81-2.89,2.68-4.27-.5,3.16-2.98,5.85-2.49,9.29-.22-2.76-1.1-5.19-3.24-7.26,1.49.28,1.9,1.4,3.06,2.24Z"/>
        <path class="cls-1" d="m86.13,162.85h12.63c0,.15,0,.3,0,.45h-12.63c0-.15,0-.3,0-.45Z"/>
        <path class="cls-1" d="m144.13,113.21c.87-1.3,1.58-2.35,2.29-3.4.23,1.96-1.41,3.3-1.89,4.96-.49,1.68,1.02,3.31.39,5.08-1.36-3.2-2.02-6.51-2.7-10.22,1.61,1.02,1.06,2.47,1.91,3.58Z"/>
        <path class="cls-1" d="m59.05,170.36c-1.16-.67-2.26-1.32-3.61-2.1,1.52-.54,1.7.76,2.73.59.16-2.75.32-5.54.48-8.34.13.01.27.02.4.03v9.81Z"/>
        <path class="cls-1" d="m74.91,163.41h-11.59c-.01-.13-.02-.26-.03-.39h11.63c0,.13-.01.26-.02.39Z"/>
        <path class="cls-1" d="m191.88,115.02c-.58,1.27-1.07,2.35-1.57,3.43.8-3.67,1.82-7.28,1.66-11.08.23,3.78-.02,7.55,2.82,10.81-.25.09-.5.17-.74.26-.68-1.07-1.36-2.14-2.17-3.42Z"/>
        <path class="cls-1" d="m186.01,115.73h-9.87c3.29-.84,6.58-.77,9.87,0Z"/>
        <path class="cls-1" d="m41.07,162.9h9.83c0,.15,0,.3,0,.45h-9.8c-.01-.15-.02-.3-.03-.45Z"/>
        <path class="cls-1" d="m161.22,115.75h-9.02c2.98-.88,5.97-.75,8.97-.63.02.21.04.42.06.63Z"/>
        <path class="cls-1" d="m108.9,162.82h8.72c0,.23.02.47.02.7-2.89.28-5.79.23-8.7.02-.01-.24-.03-.48-.04-.72Z"/>
        <path class="cls-1" d="m79.02,113.7c-2.61.19-5.21.31-7.83-.62h7.85c0,.21-.02.42-.02.62Z"/>
        <path class="cls-1" d="m34.78,116.05c2.46-1.91,2.78-4.35,2.73-6.92.78,2.24.2,4.56,1.4,6.67q-1.65-1.22-4.14.24Z"/>
        <path class="cls-1" d="m52.12,113.26c-2.05.78-4.39.81-6.74.07,2.14-.68,4.31-.7,6.74-.07Z"/>
        <path class="cls-1" d="m21.21,109.44c-.32,1.62-.8,3.21-1,4.9.26-2.84-1.5-5.25-1.8-7.95.47.89.9,1.81,1.43,2.68.54.88.56,0,.78-.2.57-.09.8.08.59.57Z"/>
        <path class="cls-1" d="m135.05,242.03c-.16-.16-.32-.31-.48-.47.22-.5.44-1.01.66-1.51h.63c-.08,1.32,1.1.89,1.85.9,2.65.04,5.29.02,7.95.62-2.43,0-4.85-.06-7.28.02-1.11.04-2.37-.45-3.34.44Z"/>
        <path class="cls-1" d="m80.29,166.41c-.93-1.82-1.3-3.14-1.43-4.73q1.4,1.45,2.71-.06c.18,1.73-.82,2.95-1.27,4.79Z"/>
        <path class="cls-1" d="m33.61,162.23c.28.42.24,1.06,1.02,1.11.08,0,.19-.4.29-.61.25-.17.51-.18.76-.01-.62,1.85-.88,3.75-1.19,5.71-.1-2.18-.77-4.22-1.63-6.22.25-.17.5-.17.74,0Z"/>
        <path class="cls-1" d="m27.62,242.02c1.27-2.9-.01-5.98,1.06-8.9-.18,3.13,1,6.3-.57,9.39-.5.08-.81.03-.49-.48Z"/>
        <path class="cls-1" d="m47.79,241.42h-11.5v-.3h11.46c.01.1.03.2.04.3Z"/>
        <path class="cls-1" d="m86.24,241.12h10.9c0,.1,0,.2,0,.3h-10.89c0-.1,0-.2,0-.3Z"/>
        <path class="cls-1" d="m125.95,241.42h-10.87c0-.09,0-.18,0-.27h10.87v.27Z"/>
        <path class="cls-1" d="m63.44,241.08h10.03c0,.1,0,.2,0,.3h-10.06c.01-.1.02-.2.03-.3Z"/>
        <path class="cls-1" d="m21.21,109.44c-.2-.19-.4-.38-.59-.57.48-1.56.62-3.22,2.13-5.13,0,2.42-.77,4.06-1.53,5.7Z"/>
        <path class="cls-1" d="m35.69,162.73h-.76c.26-1.52.71-3.01,1.82-5.05.38,2.29-.4,3.66-1.06,5.05Z"/>
        <path class="cls-1" d="m27.62,242.02c.16.16.33.32.49.48-.23,1.29-1.6,2.23-1.58,3.61-.64.37-.88-.04-1.13-.42.74-1.22,1.48-2.44,2.22-3.66Z"/>
        <path class="cls-1" d="m33.61,162.23c-.25,0-.49,0-.74,0-.76-1.2-1.6-2.38-1.54-4.16,1.53,1.34,1.8,2.79,2.28,4.17Z"/>
        <path class="cls-1" d="m25.4,245.68c.38.14.76.28,1.13.42h4.82c0,.21,0,.42,0,.63-1.84,0-3.67.03-5.5-.01-.99-.02-.7-.57-.45-1.04Z"/>
        <path class="cls-1" d="m26.43,112.89h4.87c-1.7.74-3.4.41-4.87,0Z"/>
        <path class="cls-1" d="m147.65,175.36c.48-.05.71-.32.82-.69,2.18-.17,4.34.24,6.51.26.14-.16.28-.32.43-.49,1.82.1,3.61.52,5.44.49.23,0,.46,0,.69,0,.72-.06,1.41-.04,1.83.57-.01.16,0,.32.01.48-6.8-.04-13.59-.07-20.39-.11l.44-.93c1.45-.23,2.9-.44,4.21.41Z"/>
        <path class="cls-1" d="m179.85,248.01c-.25-2.96,5.48-4.91.15-8.57,4.18,1.68,4.43,2.3,2.62,4.83-.9,1.26-1.84,2.49-2.77,3.73Z"/>
        <path class="cls-1" d="m198.55,243.34c-.54-2.28-.08-4.61-2.5-6.53,1.61-.11,1.64,1.07,2.6,1.14.77-.99,1.57-2.01,2.36-3.03.23.08.46.16.69.24-1.81,2.54-3.65,5.07-3.14,8.17Z"/>
        <path class="cls-1" d="m153.47,242.56c-.64-1.11-1.28-2.22-2.03-3.53,1.61.1,1.39,1.19,2.2,1.66,1.24-.71.85-2.34,2.35-3.14.06,1.94-1.39,3.29-2.52,5Z"/>
        <path class="cls-1" d="m174.42,241.4h-10.47c0-.09,0-.18,0-.27h10.47c0,.09,0,.18,0,.27Z"/>
        <path class="cls-1" d="m116.57,79.34c-.4-.36-.81-.72-1.21-1.08,7.45-11.34,14.06-23.06,21.32-34.47-1.98-1.16-4.58.49-5.92-1.52.85-.24,1.85.09,2.6-.51.76-.87,1.93-.75,2.99-.86,1.17-.12,2.05-.55,2.68-1.41,1.08-1.48.79-1.94-1.32-2.19-6.32-.76-12.71-.6-19.05-.89-5.75-.25-11.5-.86-17.28-.66-1.12.04-2.48.13-3.01-1.13,1.03-.27,2.23.25,3.15-.52,6.62,1.03,4.05-4.5,6.57-6.59.35,1.84-.7,3.37-1.15,4.96-.36,1.26-.18,1.87,1.49,1.93,10.78.38,21.56.75,32.34,1.24,1.63.07,2.06-.69,2.62-1.59,3.06-4.93,6.13-9.85,9.2-14.78.15.17.31.34.46.5.73,1.2-.23,2.12-.84,3.01-4.13,6-7.57,12.29-11.33,18.45-7.34,12.01-14.86,23.94-22.01,36.04-.5.84-.71,2.02-2.28,2.07Z"/>
        <path class="cls-1" d="m131.06,120.49c-.73,6.52-2.52,12.89-3.61,19.36-.47,1.93-.93,3.87-1.48,6.16-7.44-7.76-14.61-15.23-21.78-22.7-11.58-12.09-23.12-24.2-34.75-36.26-4.9-5.08-8.13-11.01-12.17-16.52-11.03-15.07-19.93-31.11-29.56-46.83-.65-1.06-.87-1.86.54-2.5,4.87-2.81,9.84-5.49,14.56-8.47,4.07-2.57,8.52-4.3,13.33-5.53,3.34-.85,6.62-1.86,9.93-2.8,3.84-1.12,7.67-2.25,11.51-3.37,1.21.71.05,1.64.32,2.43-.71,4.24-1.42,8.49-2.15,12.73-.17,1,.42,1.8.85,2.64,5.95,11.66,11.84,23.35,17.9,34.97,1.94,3.72,5.27,6.75,7.93,10.11,3.01,3.78,6.22,7.45,9.28,11.2,7.11,8.73,10.64,18.76,14.28,28.71,2,5.47,3.4,11.1,5.07,16.66Z"/>
        <path class="cls-1" d="m116.57,79.34c6.6-10.69,13.23-21.37,19.79-32.08,5.6-9.14,11.12-18.32,16.68-27.48,1.77-2.84,3.62-5.65,5.29-8.53.72-1.25,1.28-1.75,3.09-1.15,14.13,4.68,28.29,9.28,42.47,13.82,1.93.62,1.85,1.13.74,2.4-13.3,15.26-26.38,30.66-39.86,45.8-4.38,4.92-10.42,8.63-15.68,12.92-6.56,5.34-13.29,10.53-19.84,15.88-1.65,1.35-2.27,1.3-3.09-.55-3.11-7.04-6.37-14.03-9.58-21.03Z"/>
        <path class="cls-1" d="m130.76,42.27c2.22.58,4.55.26,7.2.58-2.44,4.03-4.8,7.97-7.2,11.9-4.43,7.26-8.86,14.53-13.36,21.76-.43.69-.37,2.01-2.04,1.75-6.08-7.42-12.26-14.78-18.19-22.28-3.5-4.43-5.22-9.63-7.85-14.44-.77-1.41.69-1.06,1.42-1.03,9.86.44,19.71.92,29.56,1.37,3.48.16,6.97.26,10.46.38Z"/>
        <path class="cls-1" d="m129.52,109.35c-.08-.06-.19-.1-.2-.15-1.96-5.77-1.91-5.72,3.44-9.95,10.37-8.2,21.01-16.19,30.86-24.81,5.58-4.88,9.86-10.83,14.66-16.34,9.13-10.48,18.2-21,27.31-31.49,1.25-1.44,4.08-1.57,5.49-.24.93.88-.27,1.35-.69,1.86-4.77,5.74-9.61,11.44-14.4,17.17-6.18,7.38-12.37,14.75-18.49,22.16-4.56,5.53-10.63,9.87-16.1,14.67-9.92,8.72-20.01,17.3-30.05,25.92-.54.46-.94,1.12-1.82,1.21Z"/>
        <path class="cls-1" d="m98.37,34.62c5.21.84,10.51.48,15.76.84,9.03.62,18.1.77,27.17,1.11-1.23,4.46-2.06,4.99-7.95,5.18-14.4-.71-28.81-1.44-43.21-2.1-1.42-.06-2.16-.42-2.61-1.55-.5-1.26-1.22-2.45-1.74-3.49h12.58Z"/>
        <path class="cls-1" d="m192.5,173.93c.27.53.53,1.06.95,1.9-2.28-.28-4.45.86-6.21-.87-2.2-3.65-4.4-7.3-6.76-11.21,2.22.02,4.22-.81,6.02.59,1.82.6,2.16,2.15,2.84,3.39,1.12,2.04,2.89,3.85,3.16,6.2Z"/>
        <path class="cls-1" d="m186.76,175.5c-.87.76-1.98.14-2.94.38-2.2-.12-3.35-1.21-4.3-2.85-1.8-3.08-3.9-6.05-5.91-9.12q5.32-.75,7.62,2.91c1.83,2.9,3.69,5.79,5.54,8.68Z"/>
        <path class="cls-1" d="m154.98,174.94c-2.22.78-4.39.76-6.51-.26-1.39-3.16-3.52-6.01-5.35-8.99-.79-1.28-1.15-2,1.28-2.03,2.29-.03,3.55.52,4.58,2.3,1.79,3.08,3.97,6,5.99,8.98Z"/>
        <path class="cls-1" d="m179.91,175.28c-3.71.92-5.74-.12-7.23-2.73-1.67-2.92-3.82-5.65-5.8-8.5,4.6-1.02,5.16-.83,7.21,2.32,1.91,2.93,3.82,5.86,5.81,8.91Z"/>
        <path class="cls-1" d="m142.37,174.87c-5.46.44-5.56.48-7.61-3.27-1.02-1.87-3.01-3.47-2.66-5.76.12-.79-.28-2.06,1.46-2.1,1.35-.03,2.68-.27,3.44,1.26,1.61,3.26,3.48,6.43,5.37,9.86Z"/>
        <path class="cls-1" d="m173.47,175.21c-3.69.79-6.08.09-7.43-2.95-.97-2.18-2.61-4.14-3.84-6.25-.4-.7-1.88-1.73-.59-2.21,1.19-.45,3.23-.88,4.29.58,2.58,3.56,5.03,7.18,7.57,10.84Z"/>
        <path class="cls-1" d="m163.37,175.51c-.63-.15-1.4.03-1.83-.57-2.2-3.64-4.4-7.27-6.65-10.98,3.06-.82,5-.39,6.33,2.2,1.58,3.07,3.7,5.95,5.74,9.15-1.35.08-2.47.14-3.59.2Z"/>
        <path class="cls-1" d="m160.85,174.94c-1.91.62-3.82,1.2-5.44-.49-2.17-3.45-4.34-6.9-6.57-10.45,3.18-.75,5.13-.22,6.47,2.39,1.53,2.97,3.67,5.71,5.55,8.55Z"/>
        <path class="cls-1" d="m147.65,175.36c-1.4-.2-2.9.41-4.21-.41-1.97-3.65-3.94-7.3-5.92-10.96,2.34-.7,3.72-.18,4.61,1.65,1.62,3.32,4.31,6.22,5.52,9.71Z"/>
        <path class="cls-1" d="m194.54,165c-1.35,2.84-.24,5.82-.64,8.71-.01.08-.05.22-.1.23-.13.02-.28,0-.43-.02-2.64-2.94-4.61-6.19-6.04-9.68,2.26-1.43,4.83-.51,7.22-.52,1.21,0-.22.82-.02,1.28Z"/>
        <path class="cls-1" d="m131.79,168.51c1.3,2.16,2.5,4.17,3.69,6.16-.31.18-.45.34-.6.35-5.2.14-5.22.14-4.03-4.08.2-.72-.03-1.54.94-2.42Z"/>
        <path class="cls-1" d="m187.34,164.25c2.01,3.23,4.02,6.45,6.04,9.68-.29,0-.58,0-.88,0-2-3.2-4-6.4-6-9.6.28-.03.56-.06.84-.09Z"/>
        <path class="cls-1" d="m40.14,61.01c-6.85-9.01-13.69-18.03-20.54-27.04q-2.93-4.51,1.63-7.86c4.82-3.54,4.88-3.56,7.61,1.21,11.07,19.34,23.2,38.2,36.63,56.41,4.78,6.49,11.16,12.14,16.88,18.12,14.28,14.93,28.6,29.84,42.95,44.8-2.32,1.67-4.03,1.85-6.35-.35-9.58-9.09-19.79-17.72-29.05-27.04-6.6-6.64-12.12-14.05-17.96-21.22-.89-1.1-3.79-2.11-1.11-4.18.59-.46-.62-1.46-1.3-1.01-1.76,1.16-2.09-.11-2.77-.9-8.88-10.32-17.75-20.64-26.63-30.96Z"/>
        <path class="cls-1" d="m132.13,206.34c.81,1.07,1.39,1.82,1.96,2.59,1.88,2.54,1.26,5.65-1.46,7.57-.57.4-.99.48-1.52.02-1.19-1.03-2.38-2.04-3.59-3.05-.55-.46-.4-.83,0-1.32,1.5-1.84,2.95-3.71,4.6-5.8Z"/>
        <path class="cls-1" d="m131.29,260.42c.57.56,1.02.9,1.33,1.31.7.92,1.18,2,2.03,2.8,2.15,1.98.07,3.4-.75,4.99-.17.33-.61.51-.99.24-1.74-1.25-3.54-2.47-5.15-3.84-.96-.82.08-1.54.64-2.21.91-1.07,1.85-2.12,2.88-3.3Z"/>
        <path class="cls-1" d="m127.99,163c-.84,1.31-1.59,2.69-3.21,3.46-.45.21-3.13-2.52-3.07-3.08.05-.42,3.88-3.56,4.2-3.39,1.25.68,1.46,1.9,2.08,3.01Z"/>
        <path class="cls-1" d="m209.55,27.23c-.18.51-.47,1-1.17.95-.78-.05-1.27-.44-1.14-1.17.1-.6.61-.86,1.25-.8.65.06,1.02.45,1.06,1.02Z"/>
        <path class="cls-1" d="m162.1,79.45c0,.6-.36.93-1.04.96-.64.03-1.18-.2-1.25-.78-.08-.69.38-1.12,1.18-1.11.62,0,1.07.34,1.11.93Z"/>
        <path class="cls-1" d="m184.13,57.59c-.17.52-.47.89-1.2.86-.95-.04-1.08-.59-.99-1.21.09-.59.61-.83,1.27-.74.68.1.91.55.92,1.09Z"/>
        <path class="cls-1" d="m131.81,104.61c-.76.01-1.19-.32-1.33-.84-.14-.55.15-1.01.84-1.11.77-.11,1.35.14,1.42.89.06.61-.46.85-.94,1.06Z"/>
        <path class="cls-1" d="m170.01,73.24c0,.58-.28.93-.99.99-.69.05-1.16-.27-1.25-.79-.11-.66.36-1.12,1.16-1.13.65,0,1.04.36,1.09.94Z"/>
        <path class="cls-1" d="m190.11,48.77c.76,0,.99.4.97.96-.02.56-.39.95-1.03.97-.85.03-1.2-.49-1.13-1.12.06-.53.48-.88,1.19-.8Z"/>
        <path class="cls-1" d="m177.12,65.86c-.04.71-.42,1.1-1.07,1.14-.82.06-1.3-.34-1.25-1.06.04-.59.47-.88,1.16-.89.73,0,.96.45,1.16.8Z"/>
        <path class="cls-1" d="m202.05,33.46c1,.07,1.29.48,1.28,1.02-.02.54-.36.97-1.05.96-.84,0-1.18-.5-1.14-1.15.04-.6.53-.81.91-.82Z"/>
        <path class="cls-1" d="m148.4,91.31c-.16.72-.54,1.1-1.2,1.09-.82-.01-1.25-.49-1.11-1.15.11-.52.59-.86,1.28-.79.68.07.94.48,1.03.85Z"/>
        <path class="cls-1" d="m139.8,97.97c-.05.63-.34,1.04-.99,1.14-.67.09-1.15-.19-1.22-.76-.08-.63.17-1.16,1.05-1.2.71-.03.93.46,1.17.82Z"/>
        <path class="cls-1" d="m197.15,41.61c0,.55-.23.98-.95,1.03-.72.05-1.06-.35-1.1-.9-.05-.55.27-.99.94-1.05.72-.07,1,.38,1.11.91Z"/>
        <path class="cls-1" d="m154.18,84.35c.73-.02,1.09.36,1.06.9-.03.57-.49.85-1.18.81-.56-.04-.87-.31-.9-.78-.03-.59.29-.92,1.01-.92Z"/>
        <path class="cls-1" d="m123.17,40.21c-.68-.04-1.1-.31-1.11-.91,0-.58.43-.97,1.03-1.02.78-.06,1.28.35,1.25,1.05-.03.6-.51.84-1.17.88Z"/>
        <path class="cls-1" d="m135.11,40.22c-.67-.06-1.12-.33-1.12-.93,0-.71.53-1.1,1.3-1.01.59.07,1.02.47.98,1.06-.04.61-.49.86-1.16.88Z"/>
        <path class="cls-1" d="m111.28,38.24c.1-.55.47-.96,1.1-.99.82-.04,1.21.42,1.17,1.1-.03.61-.49.86-1.16.83-.68-.03-1.01-.4-1.11-.95Z"/>
        <path class="cls-1" d="m102.59,38.67c-.93.03-1.29-.32-1.34-.89-.04-.59.37-.96,1.03-1.01.71-.05,1.05.36,1.11.92.07.61-.32.91-.81.99Z"/>
        <path class="cls-1" d="m92.31,37.62c-.73.08-1.12-.27-1.17-.82-.05-.57.36-.9,1.06-.89.52.01.95.16.97.68.02.52-.03,1.01-.86,1.02Z"/>
        <path class="cls-1" d="m79.83,101.96c.04.6-.4.99-.98,1.05-.78.08-1.29-.34-1.3-1.02,0-.6.48-.88,1.13-.89.67-.02,1.12.24,1.15.86Z"/>
        <path class="cls-1" d="m49.9,66.17c-.03.85-.54,1.03-1.17,1.02-.64,0-1.14-.25-1.13-.87,0-.71.53-1.08,1.3-.99.58.07,1.03.43,1,.83Z"/>
        <path class="cls-1" d="m43.4,58c-.05.55-.27.94-1.03.96-.72.02-1.12-.34-1.17-.86-.07-.66.37-1.09,1.21-1.09.76,0,.95.45.99.99Z"/>
        <path class="cls-1" d="m85.25,108.3c.71.07,1.03.49.98,1.02-.07.65-.56,1.08-1.37.95-.68-.1-.88-.61-.81-1.14.08-.56.49-.87,1.19-.83Z"/>
        <path class="cls-1" d="m110.65,134.55c.03.55-.17,1.02-.87,1.11-.82.1-1.32-.3-1.33-.98,0-.52.29-.93,1.03-.96.71-.03,1.09.25,1.16.84Z"/>
        <path class="cls-1" d="m102.45,126.58c-.08.53-.28.99-1.04,1.02-.73.03-1.1-.33-1.13-.92-.02-.56.24-1.01.99-1.04.75-.04,1.01.42,1.18.95Z"/>
        <path class="cls-1" d="m37.64,49.7c-.05.54-.36.97-1.07,1-.69.03-1.11-.33-1.15-.92-.04-.59.27-.96,1.03-1,.77-.04,1.05.35,1.19.93Z"/>
        <path class="cls-1" d="m55.86,75.19c.9-.02,1.29.27,1.28.89,0,.58-.34.99-1.01,1.05-.73.06-1.07-.38-1.12-.93-.04-.57.31-.94.85-1.01Z"/>
        <path class="cls-1" d="m25.75,31.5c0,.56-.35.92-.99,1.01-.66.09-1.15-.17-1.26-.74-.13-.67.25-1.13,1.06-1.17.67-.04.98.41,1.19.9Z"/>
        <path class="cls-1" d="m94.44,117.06c-.05.55-.3.94-1.04.96-.71.01-1.11-.34-1.13-.88-.02-.64.39-1.12,1.22-1.1.72.02.94.48.95,1.02Z"/>
        <path class="cls-1" d="m118.5,141.45c.7.11,1.11.43,1.05,1.04-.05.6-.48.92-1.18.89-.72-.04-1.07-.46-1.04-1.02.03-.58.5-.89,1.17-.91Z"/>
        <path class="cls-1" d="m30.23,39.66c.64.13,1.03.46.98,1.03-.06.69-.57,1.05-1.36.92-.64-.11-.95-.59-.84-1.12.11-.52.53-.86,1.22-.83Z"/>
        <path class="cls-1" d="m63.17,83.87c-.15.61-.63.81-1.27.65-.63-.15-.93-.55-.76-1.11.18-.56.66-.8,1.31-.68.73.13.79.62.72,1.15Z"/>
      </g>
    </g>
    <g id="selve_vesten">
      <path class="cls-15" d="m146.4,297.08c-.74,3.14-1.48,6.28-2.21,9.42-.19.8-.51,1.61.2,2.36,2.22,2.36,4.44,4.73,6.82,7.26.48-1.28.85-2.25,1.19-3.14.57-.1.79.17.67.37-1.92,3.1.27,4.19,3.24,5.29,4.96,1.84,9.77,3.98,14.65,5.99-.13.22-.34.35-.62.39-6.12-2.45-12.36-4.7-18.31-7.42-2.98-1.36-4.5-4.25-6.63-6.47-1.47-1.53-2.61-2.45-3.85.07-.36.74-1.18,1.06-1.93,1.43-2.26,1.11-4.71,2.01-6.77,3.34-3.57,2.31-7.45,2.92-11.7,2.2-7.79-1.33-15.43-.13-23.1.79-1.44.17-2.89.25-4.33.37-.15-.12-.2-.24-.16-.36.04-.13.08-.19.13-.19,5.39-.66,10.77-1.38,16.17-1.95,4.09-.44,8.13.45,12.21.62,1.55.06,3.09.22,4.91.36-1.13-2.37-3.45-3.86-4.93-6.46,2.24.98,2.69,2.7,4.31,3.61-.6-2.93-1.16-5.7-1.72-8.47.26-.04.52-.08.78-.11.81,3.58,1.61,7.17,2.5,11.1,4.15-2.03,8.35-3.77,12.08-6.06,1.83-1.13,2.81-3.3,3.38-5.3.9-3.2,1.65-6.43,2.46-9.65.59-.05.86.12.6.64Z"/>
      <path class="cls-20" d="m39.92,308.76c4.14,1.16,8.28,2.32,12.88,3.61-.94-2.79-1.79-5.32-2.64-7.85,2.02,1.51,1.78,3.78,3.28,5.87,1.9-3.32,3.67-6.42,5.43-9.51.25.1.5.2.75.29-2.07,3.76-4.14,7.51-6.19,11.23,1.16.92,3.08.54,3.94,1.83-3.07-.08-5.68-1.45-8.52-2.17-3.23-.82-6.38-1.86-9.56-2.81-.11-.45,0-.71.63-.5Z"/>
      <path class="cls-15" d="m152.29,11.55c-1.77,1.05-3.6.2-5.33,0-8.64-.98-17.35-1.54-25.92-2.96,2.31-1.29,4.65-.02,6.88.14,7.7.56,15.36,1.55,23.03,2.39.46.05.9.27,1.35.41Z"/>
      <path class="cls-51" d="m120.12,8.08c-1.77,1.05-3.6.2-5.33,0-8.64-.97-17.35-1.54-25.92-2.96,2.31-1.29,4.65-.02,6.88.14,7.7.56,15.36,1.55,23.02,2.39.46.05.9.27,1.35.41Z"/>
      <path class="cls-12" d="m93.67,318.78c.01.18.02.37.04.55-1.82.65-3.63.59-5.44-.05.1-.3.47-.34.71-.49.71-.01,1.4-.03,1.22-.91-.18-.88-.34-1.76-.5-2.65.15-.21.18-.5.54-.56.29.74.57,1.48,1,2.58,1.55-2.85,2.97-5.45,4.39-8.05.25.09.49.18.74.28-1.34,2.59-2.59,5.22-4.04,7.76-.83,1.46-.15,1.69,1.35,1.55Z"/>
      <path class="cls-62" d="m193.08,324.61c0,.16,0,.33,0,.49-7.58-.03-15.17-.06-22.75-.09.21-.13.41-.26.62-.39,5.52-.01,11.04-.14,16.55.01,2.29.06,1.98-.75,1.49-1.93-.36-.56.21-.79.53-1.12-.02-.15.03-.27.14-.38.17-.23.34-.24.51,0,.02.32.12.66.03.97-.62,2.16.65,2.7,2.87,2.44Z"/>
      <path class="cls-60" d="m64.67,315.17c5.46.66,10.9,1.41,16.28,2.47-.1.32-.47.35-.72.51-5.46-.82-10.92-1.64-16.38-2.47-.04-.53.22-.73.83-.52Z"/>
      <path class="cls-8" d="m67.89,7.97c-.26-.16-.51-.32-.77-.48,3.7-1.31,7.5-2.38,11.36-3.29.41.18.8.38.64.86-3.51,1.6-7.07,3.09-11.23,2.91Z"/>
      <path class="cls-41" d="m79.1,4.68c-.21-.16-.41-.33-.62-.49,3.02-1.1,5.9-.14,8.8.43-1.08,1.03-2.32.26-3.4.08-2.45-.4-3.83.13-3.76,2.41-.24-.02-.48-.04-.73-.05-.74-.73-.14-1.59-.31-2.37Z"/>
      <path class="cls-52" d="m25.19,304.06c.18-.24.35-.47.53-.71,2.36,1.49,5.05,2.46,7.69,3.5.22.22.22.44-.02.65-2.99-.7-5.57-2.11-8.2-3.44Z"/>
      <path class="cls-4" d="m33.39,307.51c0-.22.02-.43.02-.65,2.24.48,4.44,1.03,6.51,1.91-.21.17-.42.33-.63.5-2.02-.45-4.05-.89-5.9-1.76Z"/>
      <path class="cls-52" d="m80.23,318.16c.24-.17.48-.34.72-.51,2.67.38,5.35.75,8.02,1.13-.24.16-.47.33-.71.49-2.68-.37-5.36-.74-8.04-1.12Z"/>
      <path class="cls-6" d="m64.67,315.17c-.28.17-.55.35-.83.52-1.73-.53-3.96.25-5.26-1.43,2.03.3,4.06.61,6.08.91Z"/>
      <path class="cls-50" d="m90.23,314.66c-.18.19-.36.37-.54.56-.39-1.42-.78-2.84-1.17-4.26,1.37,1.05,1.62,2.35,1.7,3.7Z"/>
      <path class="cls-14" d="m211.75,321.69c-.15,0-.3,0-.45,0-1.41-2.25-2.83-4.5-3.17-7.15.91,1.57,1.83,3.14,2.86,4.91,1.28-1.48.56-3.39,2.08-4.96.1,2.7-.85,4.92-1.32,7.2Z"/>
      <path class="cls-62" d="m190.18,321.2c-.17,0-.34,0-.51,0,.3-2.62.6-5.24.89-7.86.27.03.53.05.8.08-.39,2.6-.79,5.19-1.18,7.79Z"/>
      <path class="cls-13" d="m189.52,321.58c-.18.37-.35.74-.53,1.12-1.15-1.75-2.01-3.57-2.59-6.06,1.94,1.67,1.77,3.65,3.12,4.95Z"/>
      <g>
        <path class="cls-57" d="m58.59,314.26c-.41,0-.81-.01-1.22-.02-5.89-1.9-4.91-1.37-2.48-5.38.66-1.09,1.35-2.18,1.9-3.33.54-1.12,1.08-2.24,1.72-3.33-1.29,2.17-2.2,4.5-3.64,6.62-.41.61-.48,1.62-1.53,1.62-1.24,0-.88-1.1-1.19-1.71-.41-.81-.67-1.67-1.03-2.5.65,1.43.97,2.96,1.71,4.36.31.59.41,1.13-.05,1.61-.55.58-1.28.19-1.88.02-3.68-1.05-7.39-2.01-11.03-3.15-2.12-.71-4.36-1.13-6.42-1.98-2.92-.68-5.46-1.95-7.87-3.47-.09-.23-.1-.46-.03-.69,1.54-1.31,2.96-2.71,4.07-4.07-1.08.85-1.74,2.26-3.13,3.16-.93.59-1.56.74-1.54-.55.01-3.32-.01-6.63-.01-9.94.04,3.6-.03,7.2,0,10.8-.33,1.29-1.2.6-1.98.41-3.78-.94-5.7-3.73-7.54-6.18-2.72-3.62-5.18-7.49-5.86-11.91-.49-3.74-.74-7.51-1.44-11.22-.9-4.75.67-9.26,1.22-13.87.07-.57.22-1.13.15-1.71.18-.32.36-.65.54-.97.18-4,1.03-7.95,1.96-11.85.5-2.11,2.83-3.66,4.25-5.5.86-1.16,2.23-.78,3.45-.81,1.89-.03,3.79-.02,5.13,0-2.33-.35-5.33.47-8.19-.36-2.28-1.2-4.44-2.56-6.69-3.8-1.54-.85-2.57-1.98-2.51-3.58.06-1.72-.33-3.4-.33-5.11.31-6.67,2.02-13.18,3.03-19.77,1.06-6.93,2.56-13.79,4.71-20.53.28-.87.52-1.76.41-2.68-.04-.17,0-.33.09-.47,2.25-5.36,3.3-10.99,4.95-16.48.98-3.24.88-3.27,4.78-3.27,1.16,0,2.33-.1,3.21.04-1.55-.15-3.39-.06-5.23-.04-1.39.01-2.05-.48-2.53-1.58-3.01-6.87-6.17-13.69-9.06-20.6-.35-2.28.26-4.56.06-6.84.53-1.55.08-3.16.36-4.73.43-1.56.07-3.16.23-4.73.52-1.54.08-3.12.35-4.67.42-1.49.11-3,.2-4.49.98-1.69-.18-3.52.47-5.24.28-1.49,0-3,.15-4.49.52-1.54.05-3.13.36-4.67.43-1.59.03-3.2.24-4.79.67-1.69-.39-3.57.82-5.2-.39-1.24-.09-2.48,0-3.72-3.73-7.85-6.85-15.89-10.32-23.83-.38-.87-.42-1.72-.27-2.64.51-3.09,1.31-6.14,1.6-9.25.19-2.05,1.31-3.08,3.7-3.16,2.85-.47,5.68-1.01,8.52-1.52,1.07-.09,2.11-.35,3.1-.63,4.93-1.37,8.24.74,10.83,3.81,3.73,4.41,7.15,8.99,10.71,13.5,6.45,8.35,13.89,16.09,20.68,24.23,8.25,9.89,16.56,19.75,24.85,29.62,4.35,5.17,9.82,9.56,14.9,14.21,5.61,5.14,11.04,10.42,16.82,15.42.87.75,1.44,1.88,3.05,1.33,1.62-.55,3.39-.99,3.8-2.73.39-1.61.74-3.23,1.05-4.86,1.15-5.86,2.29-11.72,3.47-17.58.16-.82.28-1.61,0-2.41q-.99-4.35,4.32-4.34c.39,0,.78-.01.82,0-.66-.02-1.66,0-2.67,0-1.49.01-3.03.08-3.68-1.4-.7-1.59-1.2-3.19.47-4.62.27-.23.53-.49.81-.72,10.96-8.93,20.93-18.68,31.98-27.52,7.63-6.11,14.16-12.92,20-20.27,4.74-5.95,9.81-11.71,14.65-17.6.69-.84,1.22-1.97,2.85-1.78,6.15,2.04,12.06,4.56,18.24,6.52,2.16.68,2.54,2.58,3.74,3.93,1.52,1.71.62,3.08-.08,4.76-3.36,8.06-9.61,14.58-15.59,21.23-1.58,1.76-2.19,3.33-1.44,5.58,2.7,8.08,3.25,16.53,5.61,24.68.68,1.67.56,3.41.52,5.13-.03,1.38-.76,2.11-2.51,2.08-2.52-.04-5.05-.01-7.57,0,2.51.01,5.03.05,7.54,0,1.81-.04,2.48.65,2.27,2.1-.35,2.36-.4,4.75-1.12,7.07.02,1.35-.21,2.67-.49,3.99.13,1.4-.8,2.7-.47,4.12,0,.54,0,1.07.01,1.61-1.38,3.7-1.88,7.56-2.47,11.35-.69,4.4-2.6,8.01-6.55,10.86-1.57,1.14-2.76,2.57-3.94,3.95-1.21,1.42-2.65,1.71-4.5,1.71-18.7-.01-37.4-.03-56.1.02-2.49,0-3.95-.53-4.68-2.72-1.04-3.12-2.63-6.11-3.67-9.25.95,3.06,2.19,6.06,3.61,8.97,1.14,2.34,1.64,4.68.51,6.94-2.88,5.78-.68,10.7,2.99,15.54,2.73,3.61,4.5,7.68,7.1,11.37.67.95.67,2.05.68,3.13.01,2.64.09,5.28-.01,7.92-.16,4.32,0,8.57,2.18,12.59.77,1.43.42,2.87-.08,4.34-1.92,5.6-5.48,10.55-8.43,15.75-.33.61-.71,1.2-.99,1.83-2.7,3.63-2.05,7.22-.21,11,3.18,6.54,5.56,13.33,8.06,20.07,1.37,3.68,1.57,7.59,2.13,11.41.72,4.87,1.81,9.74,1.47,14.69-.65,3.33-1.47,6.64-2.51,9.88-.9,2.79-2.8,5.17-6.02,6.64-2.73,1.24-5.4,2.6-8.08,3.93-1.98.98-2.95.63-3.11-1.27-.2-2.38-.92-4.68-1.3-7.02.17,2.19,1.34,4.3.99,6.61-1.37-.08-1.46-1.14-2.24-1.58-.04.02.13.07.22.25.66,1.32,3.41,2.19,2.34,3.59-.93,1.23-3.38.5-5.13.25-7.77-1.1-15.44-.31-23.1.77-1.53.22-3.05.49-4.62.45-2.55-.04-2.9-.4-1.93-2.13,1.16-2.06,2.07-4.22,3.55-6.5-1.87,2.4-2.24,5.14-4.42,7.19-1.05-.92-.81-1.9-1.19-2.71-.1-.78-.35-1.54-.66-2.28.42.99.56,2.03.85,3.05-.07,1.25,1.75,2.94-1.14,3.53-2.71-.41-5.43-.79-8.14-1.19-5.43-.74-10.81-1.74-16.24-2.45-2-.44-4.15-.36-6.04-1.21Z"/>
        <path class="cls-57" d="m221.73,270.63c.19,1.18.39,2.36.58,3.55.67,3.56,1.2,7.15,2.96,10.5,1.5,2.86,1.44,5.96,1.56,8.97.21,5.41.89,10.87-.42,16.22-.81,3.29-2.07,6.51-3.25,9.72-.34.91-.74,1.75-2.05,1.8-3.1.12-6.12.83-9.24.79-1.38-2.22,1.03-4.04.65-5.84-.43.88-.11,2.39-1.56,3.65-1.19-1.46-1.81-2.97-2.49-4.26.49,2.18,2.96,3.9,2.81,6.45-5.44,1.44-11.17,1.45-16.7,2.45-.56.1-1.15.1-1.7.25-3.36,0-3.45-.09-3.04-3.24.42-2,.68-4.01.72-5.9-.16,1.67-.15,3.51-.68,5.29-.01.25-.08.48-.2.7-2.13-.78-1.56-2.84-2.61-3.9-.24-.49-.51.11-.25-.13,1.13,1.77,1.83,3.69,2.77,5.52.67,1.67-.54,1.71-1.96,1.7-5.31-.03-10.62-.02-15.92,0-1.7-.1-3.11-.86-4.58-1.48-4.42-1.87-8.86-3.73-13.37-5.44-2.41-.91-2.46-1.14-1.14-3.5-1.36,2.14-1.34,2.13-3.42.04-.69-.69-1.26-1.54-2.03-2.07-3.91-2.7-3.99-6-2.58-9.7.74-1.95,1.03-4,1.56-6,.63-3.63-.51-7.17-.76-10.76-.87-12.38-5.61-23.93-10.64-35.42-.2-.46-.33-.96-.6-1.39-2.26-3.57-1.52-6.93.93-10.18,3.31-.59,6.61-.2,9.92-.25-2.35-.05-4.7,0-7.06-.07-.86-.02-2.03.46-2.43-.74,1.43-2.97,3.17-5.83,5.01-8.62,1.82-2.77,2.83-5.76,4.05-8.71.3-.71.54-1.42.11-2.15-3.17-5.41-2.74-11.23-2.39-16.95.28-4.55-1.05-8.46-3.75-12.36-2.64-3.82-5-7.81-7.35-11.78-1.46-2.47-1.13-2.92,2.24-2.98,3.3-.06,6.61,0,9.92-.04,6.41.09,12.83-.19,19.24.14,3.95.71,7.94.22,11.91.33,2.62.08,5.25,0,7.87.01,3.15.11,6.31-.19,9.44.19,1.74.74,2.15,2.26,2.83,3.59,1.98,3.85,4.1,7.64,7.39,10.81,4.13,3.99,5.57,8.9,7.11,13.8.2.63.48,1.25.61,1.9,0,1.48.04,2.96-.02,4.44.61,7.43-3.4,13.94-5.7,20.79-.34,2.74-.14,5.52-.65,8.25,0,.01-.2.03.02.13,5.08,2.36,9.16,5.51,11.19,10.27,1.19,2.78,2.03,5.67,3.32,8.42,1.31,3.92,2.33,7.89,3.02,11.93.08.5.4.91.81,1.27Z"/>
        <path class="cls-57" d="m120.12,8.08c.31.17.61.35.92.52,6.06.25,12.03,1.19,18.05,1.71,4.4.39,8.76,1.14,13.2,1.23.31.17.63.35.94.52,5.84.05,5.87.09,3.34,4.34-1.3,2.19-2.48,4.43-3.99,6.52-2.63,4.04-4.99,8.21-7.36,12.36-1.53,2.68-3.67,3.92-7.33,3.75-9.21-.44-18.41-.97-27.64-1.09-2.99-.04-3.48-.75-2.77-3.28.18-.63.3-1.28.37-1.39-.29.69-.37,1.99-1.01,3.12-.88,1.56-2.68.95-4.13,1.11-.48,0-.97,0-1.45-.02-4.08-.1-4.23-.3-2.69-3.55-.77.44-.23,1.99-1.84,1.53-.93-.27-1.22-1.12-1.7-1.68.27.88,1.95,1.52,1.4,2.44-.69,1.16-2.42.73-3.74.75-6.73.07-6.68.04-9.4-5.23-1.55-3.01-2.91-6.1-4.68-9.04-1.9-3.15-.33-6.31-.07-9.45.18-2.12.62-4.23.91-6.35.23-2.17,1.55-2.97,4.1-2.54,1.21.2,2.47.4,3.73.26.63-.06,1.12.2,1.58.51,6.06.25,12.03,1.19,18.05,1.71,4.4.39,8.76,1.14,13.2,1.24Z"/>
        <path class="cls-50" d="m80.14,7.11c-.39,2.86-.5,5.78-1.25,8.57-.86,3.18-.14,5.96,1.46,8.8,1.88,3.34,3.51,6.78,5.25,10.17.42.82.77,1.68,2.18,1.66,2.8-.05,5.61-.01,8.68-.01-1.21-1.45-2.38-2.86-3.56-4.27.19-.12.38-.24.56-.36,1.14,1.23,2.28,2.45,3.46,3.73,1.4-.91,1.02-2.53,2.48-3.66.17,1.93-1.45,3.27-1.39,4.94,1.49.08,2.94.16,4.39.24-.46,1.44-1.95.92-3.05,1.16-4.03-.18-8.14.48-11.67-.42-.2-.14.11,0,.19.2,1.33,3.31,4.34,3.72,8.02,3.87,9.88.41,19.76.97,29.65,1.37,2.59.1,5.24.14,7.72.99.41,1.44-1.02,1.08-1.82,1.34-10.88.05-21.7-.82-32.55-1.36-2.3-.12-5.41-.96-6.69.36-1.29,1.34,1.16,3.33,1.88,5.07,3.79,9.2,11.63,16.27,17.76,24.25,1.43,1.86,2.96,3.67,4.43,5.51.39.52.92.96,1.27,1.52,3,6.62,6.31,13.15,9.24,19.8.67,1.52,1.37,1.5,2.66.49,9.78-7.68,19.47-15.45,29.15-23.22,3.05-2.45,5.75-5.12,8.25-8,11.53-13.3,23.04-26.62,34.57-39.93,1.67-1.93,1.65-1.94-1.06-2.81-12.48-4.01-24.93-8.08-37.37-12.18-3.85-1.27-3.84-1.2-5.81,1.85-1.39,2.14-2.03,4.67-4.38,6.34-.48-.01-.87-.09-.64-.62,1.86-3.19,3.72-6.39,5.59-9.6-1.69-.3-3.1-.54-4.51-.79,2.26-1.1,4.53-.21,6.48.41,16.6,5.28,33.12,10.74,49.69,16.09,1.62.52,1.59.99.69,2.04-3.14,3.65-6.2,7.34-9.3,11.02.22.31.18.58-.13.83-1.04.28-1.4,1.1-1.95,1.76-7.48,8.93-14.99,17.85-22.42,26.81-2.94,3.54-6.8,6.34-10.32,9.4-11.27,9.8-22.67,19.49-34,29.25-1.03.89-2.25,1.61-1.87,3.32.48,2.17,1.42,3.17,4.16,2.84,1.75-.21,3.56-.04,5.35-.04,0,.23,0,.45,0,.68h-8.44c.23,1.37.41,2.43.58,3.48.23.54.36,1.04-.55,1.22-1.33-.82-1.35-2.15-1.7-3.32-2.89-9.69-6-19.29-10.42-28.6-2.65-5.58-6.01-10.69-10.21-15.49-3.54-4.05-6.75-8.29-10.28-12.34-4.82-5.53-7.14-12.08-10.41-18.22-3.65-6.84-7.14-13.75-10.6-20.66-.75-1.5-1-2.93-.74-4.56.48-2.94.98-5.88,1.41-8.83.12-.81.02-1.68,1.01-2.2.32-.08.6-.02.85.16Z"/>
        <path class="cls-13" d="m182.6,175.46c-6.65.09-13.3.24-19.93-.36-.14-.13-.2-.27-.17-.41.03-.15.06-.22.1-.22,1.89-.41,2.34-1.11,1.22-2.69-1.5-2.1-2.95-4.24-4.19-6.47-.33-.6-.8-1.14-1.6-1.35-.65-.17-1.38-.37-1.91.12-.48.44-.02.92.2,1.36.99,1.97,2.5,3.7,3.61,5.61.54.94,1.38,1.82,1.12,2.98-.21.17-.45.25-.74.27-2.18-.94-2.58-2.97-3.8-4.5-.98-1.22-1.57-2.64-2.41-3.93-.42-.65-.83-1.32-1.61-1.72-.69-.35-1.53-.6-2.17-.11-.64.49-.01,1.07.26,1.56,1.12,2.01,2.67,3.81,3.77,5.84.36.66.96,1.25.92,2.04-.15.36-.43.6-.86.72-2.48-1.17-2.82-3.6-4.32-5.36-.95-1.12-1.53-2.47-2.43-3.64-.43-.55-.85-1.12-1.67-1.29-.66-.14-1.39-.29-1.96.1-.73.5-.14,1.06.13,1.55,1.09,1.93,2.26,3.82,3.36,5.74.5.88,1.18,1.72.93,2.79-.16.36-.43.59-.91.59-2.68-2.64-3.63-6.11-5.99-8.91-.6-.7-.84-1.7-2.49-1.81.58,3.67,3.6,6.44,4.6,9.84,0,.53-.44.85-.84,1.19-3.31,0-6.63.11-9.93-.04-2.08-.09-2.67.13-1.54,1.9,3.34,5.21,6.48,10.51,9.82,15.71,1.15,1.79,1.76,3.58,1.66,5.63-.14,2.88.1,5.78-.07,8.67-.23,3.76.26,7.39,2.15,10.82.57,1.04.51,2.03.14,3.09-2.07,5.96-5.53,11.37-9.18,16.7-.21.24-.41.25-.61,0,.69-2.08,2.2-3.83,3.28-5.75.84-1.48,1.88-2.89,2.66-4.39,2.25-4.29,4.44-8.54,1.24-13.3-1.43-2.14-.89-4.75-.59-7.07,1.05-8.03-1.2-15.25-6.43-21.96-2.02-2.6-3.35-5.57-5.23-8.26-1.08-1.56-1.22-3.05-.7-4.69.13-.4.18-.82.36-1.2,2.88-6.15.87-11.9-1.92-17.62-.68-1.4-1.47-2.81-.96-4.52,1.37,3.29,2.98,6.53,4.03,9.9.87,2.79,2.29,3.81,5.93,3.77,18.51-.23,37.02-.18,55.52-.17,1.73,0,3-.33,3.92-1.58.36-.49.74-1.02,1.26-1.35,8.78-5.56,9.11-14.01,10.63-22.07.15-.8-.37-1.92,1.16-2.23-.98,5.17-1.95,10.34-2.93,15.51-.25,1.31-.84,2.44-1.93,3.48-3.88,3.69-7.65,7.46-11.46,11.2-.21-.14-.36-.32-.48-.52-1.94-1.8-4.29-.59-6.46-.63-.27.04-.54.05-.81.04-1.52-.2-3.04-.35-4.9-.26,1.67,2.61,3.06,5.23,4.72,7.73.51.77,1.22,1.48,1.11,2.45-.16.36-.45.6-.88.71-1.27-.19-1.55-1.15-2.04-1.91-1.24-1.95-2.45-3.92-3.58-5.91-1.39-2.46-3.28-3.77-6.31-3.04,1.58,1.56,2.61,3.6,3.85,5.5,1.4,2.14,2.6,4.37,5.45,5.45.06.25,0,.47-.18.67Z"/>
        <path class="cls-49" d="m128.26,140.99c-.22,1.13-.43,2.27-.66,3.4-.56,2.7-2.3,4.08-5.4,4.55-1.02.15-1.42-.34-1.93-.81-10.27-9.47-20.86-18.71-30.67-28.51-6.32-6.33-11.44-13.52-17.17-20.28-9.54-11.24-19.15-22.44-28.71-33.66-.56-.66-1.02-1.39-1.52-2.09-.25-.51.13-.6.59-.65,1.1.32,1.61,1.16,2.22,1.89,7.66,9.26,16.04,18.07,23.54,27.43.65.81,1.38,1.27,2.62,1.28,1.46.01,2.27.86,1.65,1.99-.66,1.2.09,1.85.75,2.65,5.46,6.63,11.05,13.19,16.45,19.85,1.94,2.39,4.51,4.34,6.82,6.43,7.65,6.92,15.06,14.03,22.75,20.91.54.48,1.07.96,1.69,1.37.81.54,1.69.52,2.4-.05.85-.68-.03-1.2-.47-1.67-4.73-5.04-9.58-9.98-14.35-14.99-13.45-14.12-27.04-28.16-40.48-42.29-3.55-3.73-5.84-8.18-8.78-12.26-10.81-15.02-20.14-30.72-29.48-46.41-1.36-2.28-1.38-2.28-3.75-.75-.47.3-.91.63-1.37.93-2.7,1.76-5.26,3.54-2.37,6.72.15.17.02.48-.08.72-.18.22-.41.26-.69.13-3.54-4.35-3.59-4.4,1.04-7.69,2.49-1.77,4.66-3.89,7.61-5.18.61-.2.72.13.79.52-.35,1.01-.07,1.89.46,2.84,11.08,19.56,23.36,38.57,36.76,57.06,3.31,4.56,7.78,8.43,11.75,12.6,14.77,15.53,29.66,30.97,44.49,46.46.29.3.45.74,1.09.77.97-1.36.25-3.3,2-4.42.77.25.65.72.43,1.22Z"/>
        <path class="cls-6" d="m211.75,321.69c3.19.32,6.25-.69,9.41-.67.97,0,1.27-.65,1.56-1.27,4.88-10.76,4.57-21.91,2.75-33-.6-3.7-2.64-7.33-3.45-11.13-.11-.5-.71-1.1.29-1.45,2.04,7.31,5.21,14.36,5.24,22.09.03,8.05-.48,15.91-3.85,23.53-.61,1.38-1.22,1.84-2.95,2.03-9.24,1-18.45,2.17-27.67,3.28-.19-.11-.25-.22-.19-.33.06-.11.13-.16.19-.16,5.5-1.2,11.19-1.44,16.73-2.39.54-.09,1.19.05,1.48-.53.15-.23.3-.23.45,0Z"/>
        <path class="cls-20" d="m200.66,42.45c.04-.28.09-.55.13-.83,6.04,2.21,12.08,4.44,18.13,6.64,3.77,1.37,5.67,5.85,4.32,9.07-3.46,8.22-9.75,14.91-15.93,21.66-1.5,1.64-1.84,3.11-1.21,5.14,2.44,7.88,3.55,15.97,5.15,23.99.35.49.01.54-.46.51-2.53-8.64-3.18-17.58-6.04-26.16-.32-.95-.1-1.72.62-2.51,1.85-2.02,3.48-4.19,5.42-6.14,5.01-5.03,8.66-10.69,11.55-16.76,1.32-2.77-.51-6.86-3.8-8.07-5.96-2.19-11.92-4.36-17.89-6.54Z"/>
        <path class="cls-16" d="m11.79,140.86c2.94,6.43,5.95,12.84,8.75,19.31.69,1.6,1.57,2.17,3.55,2.04,2.45-.16,4.92-.04,7.38.25-2.45.93-5.02.55-7.52.57-1.69,0-2.53.29-2.94,1.91-1.32,5.31-2.92,10.56-4.43,15.83-.19.66.09,1.6-1.24,1.66,1-3.82,1.61-7.75,3.1-11.43,2.26-5.59,1.96-10.73-1.1-16.09-2.47-4.33-4.06-9.03-6.05-13.56.09-.22.26-.37.49-.48Z"/>
        <path class="cls-29" d="m15.26,182.9c1.18.56.39,1.32.19,1.94-3.85,12.17-5.25,24.71-7.64,37.1-.26,1.37-.19,2.79-.28,4.19-.4.65.23,1.49-.51,2.08-1.38-3.89.13-7.68.77-11.46,1.88-11.15,3.62-22.33,7.02-33.26.07-.22.3-.4.45-.59Z"/>
        <path class="cls-51" d="m42.64,63.11c-.15.16-.3.33-.45.49-3.43-4.26-6.86-8.52-10.27-12.79-3.71-4.64-5.68-5.34-11.99-4.26-.56.1-1.15.08-1.72.12,0-.11,0-.22,0-.33,3.19-.71,6.35-2.58,9.99-.33-2.12-3.06-4.24-6.12-6.36-9.19.26-.02.52-.03.78-.05,1.34.2,1.83,1.17,2.39,2,5.03,7.42,10.88,14.39,16.4,21.54.64.83,1.82,1.55,1.22,2.8Z"/>
        <path class="cls-61" d="m9.58,48.3c-2.67.15-3.29,1.67-3.53,3.6-.26,2.12-.67,4.24-1.14,6.33-.56,2.47-.21,4.76.87,7.15,2.98,6.58,5.69,13.26,8.49,19.91.22.53.3,1.1.45,1.65-1.11-.19-1.12-1.03-1.4-1.7-3.1-7.24-6.12-14.51-9.33-21.71-1.06-2.38.15-4.54.32-6.79.15-2.04.78-4.05,1.03-6.09.24-1.88,1.21-2.93,3.56-2.81.26.13.61.16.69.47Z"/>
        <path class="cls-10" d="m31.06,24.33c-.19-.12-.38-.25-.57-.37,6.52-3.86,12.77-8.13,19.66-11.44,5.16-2.49,11.2-3.59,16.97-5.03.55-.17.83.04.95.48-.45.86-1.45,1.03-2.35,1.31-1.91.6-3.82,1.23-5.79,1.63-6.84,1.41-12.63,4.47-18.15,8.02-2.78,1.79-5.8,3.28-8.67,4.97-.59.35-1.18.94-2.05.43Z"/>
        <path class="cls-22" d="m209.39,204.79c-.07-.05-.2-.1-.21-.16-1.56-7.16-5.71-13.19-10.75-18.99-2.59-2.98-4.03-6.68-5.99-10.05.25-.25.53-.27.83-.08,3.53,6.48,8.03,12.45,12.78,18.33,2.53,3.13,2.83,7.23,3.94,10.94-.2.22-.4.22-.6,0Z"/>
        <path class="cls-9" d="m210.8,108.63l.46-.51c.88.49.72,1.34.76,2,.33,5.18.21,10.35-1.45,15.4-.14.21-.29.22-.43,0,.29-2.28.56-4.57.89-6.85.21-1.44-.07-2.22-2.19-2.12-3.61.17-7.24.05-10.86.05,0-.3-.02-.6-.03-.9,2.9,0,5.8,0,8.7,0,4.91,0,4.93,0,4.68-4.15-.06-.98-.33-1.95-.51-2.92Z"/>
        <path class="cls-13" d="m217.43,257.36c-.54-1.31-1.3-2.58-1.59-3.93-1.19-5.63-4.95-9.83-9.97-13.38-.22-.16-.39-.47-.63-.5-3.85-.53-1.95-2.93-2.01-4.6-.05-1.46.29-2.94.45-4.41.23-.15.46-.15.67.04-1.5,5.18.94,9,5.81,11.92,4.73,2.84,5.02,7.53,6.85,11.57.47,1.04.76,2.15,1.13,3.22-.21.26-.45.29-.72.07Z"/>
        <path class="cls-13" d="m9.5,257.86c1.08,1.93.01,3.81-.45,5.61-1.64,6.45.14,12.76.68,19.12.07.82.16,1.63.23,2.45-.2.23-.41.25-.64.03-1.74-8.85-2.7-17.71-.26-26.59.06-.23.29-.42.44-.63Z"/>
        <path class="cls-10" d="m204.35,230.58l-.67-.04c.39-3.14,2.08-5.94,3.32-8.84,1.31-3.05,2.09-6.11,1.95-9.36-.04-.85-.23-1.81.43-2.62.19-.22.38-.22.57,0,.5,5.53-1.22,10.69-3.56,15.76-.77,1.67-1.37,3.4-2.04,5.1Z"/>
        <path class="cls-52" d="m9.32,285.07c.21-.01.43-.02.64-.03,2.46,6.68,5.26,13.17,12.73,17.18.54.29,1.25.37,1.89.54.39.33.44.69.09,1.06-9.68-3.57-12.91-10.93-15.34-18.75Z"/>
        <path class="cls-10" d="m16.3,239.9c-4.6,4.12-4.69,9.49-5.61,14.62-.15.81-.11,1.64-.66,2.37-.39-.15-.62-.42-.54-.77,1.22-5.8.56-12.13,6.39-16.66.24.08.39.23.43.45Z"/>
        <path class="cls-67" d="m193.27,175.51c-.28.03-.55.05-.83.08-3.28-.04-6.56-.09-9.84-.13.03-.16.02-.31-.02-.47.83-.79,1.91-.24,2.86-.37.16-.17.31-.35.47-.52,1.8-.16,4.1,1.5,5.26-1.03.18-.16.38-.32.55-.48.08-1.9-.17-3.79-.01-5.67.08-.95-.09-2.04,1.31-2.52.03.26.06.51.09.77.05,3.45.11,6.9.16,10.35Z"/>
        <path class="cls-10" d="m7.02,228.21c.23-.68-.13-1.47.51-2.08-.79,5.29,1.97,8.81,7.56,10.94.5.19.88.61,1.32.93-.09.21-.25.34-.51.4-1.46-.8-2.83-1.77-4.39-2.38-4.04-1.6-5.19-4.29-4.49-7.8Z"/>
        <path class="cls-13" d="m217.43,257.36c.24-.02.48-.05.72-.07,2.08,4.28,2.38,8.9,3.58,13.34-1.04.17-1.04-.47-1.16-1.04-.86-4.11-1.73-8.22-3.14-12.23Z"/>
        <path class="cls-1" d="m24.66,303.82c-.03-.35-.06-.71-.09-1.06,0-4,0-8,0-12,.24,0,.47,0,.71,0v11.54c.2.22.56.3.66.6-.07.16-.14.31-.22.47-.12.26-.19.56-.53.71-.18-.08-.35-.16-.53-.24Z"/>
        <path class="cls-34" d="m9.58,48.3c-.23-.16-.46-.32-.69-.47,3.11-.49,6.12-1.43,9.33-1.49,0,.11,0,.22,0,.33-2.8.83-5.71,1.27-8.63,1.63Z"/>
        <path class="cls-18" d="m13.43,110.11c.48,1.32-.55,2.83.76,4.1.23.22-.65.35-1.07.43-.23.2-.46.21-.68,0-.13-1.7-.16-3.38.46-5.03.25.11.43.28.53.51Z"/>
        <path class="cls-65" d="m15.9,238.39c.17-.13.34-.26.51-.4,3.16.91,6.48-.01,9.7.97-2.26,0-4.53,0-6.79,0-1.15,0-2.35-.17-3.01.94-.14-.15-.28-.3-.43-.45,0-.36.44-.7.03-1.07Z"/>
        <path class="cls-43" d="m11.79,140.86l-.49.48c-.94-2.62.09-5.25-.02-7.88.2-.16.41-.18.63-.02-.04,2.47-.07,4.94-.11,7.41Z"/>
        <path class="cls-5" d="m14.72,90.65c-.04,1.74.36,3.52-.49,5.2-.39-.02-.42-.33-.6-.52.19-1.59-1.06-3.42,1.08-4.68Z"/>
        <path class="cls-30" d="m11.9,133.44c-.21,0-.42.01-.63.02-.1-1.69-.22-3.39.45-5.03.35.04.38.34.56.51.09,1.51.34,3.04-.39,4.5Z"/>
        <path class="cls-42" d="m12.86,119.52c.11,1.52.38,3.05-.4,4.52-.19.22-.39.22-.59.02-.14-1.7-.2-3.39.44-5.04.38.02.36.35.55.51Z"/>
        <path class="cls-4" d="m14.02,100.68c.17,1.55.35,3.09-.38,4.59-.38-.02-.41-.33-.59-.52-.14-1.54-.31-3.09.41-4.57.36.03.39.33.56.51Z"/>
        <path class="cls-36" d="m210.13,125.53c.14-.02.29-.02.43,0,.14,1.35.29,2.69-.46,3.96-.18.24-.35.22-.52-.01.18-1.32.37-2.63.55-3.95Z"/>
        <path class="cls-67" d="m14.02,100.68c-.19-.17-.38-.34-.56-.51.06-1.61.12-3.23.17-4.84.2.17.4.35.6.52-.07,1.61-.14,3.22-.21,4.82Z"/>
        <path class="cls-67" d="m13.05,104.75c.2.17.39.35.59.52-.07,1.61-.14,3.23-.21,4.84-.18-.17-.35-.34-.53-.51.05-1.62.1-3.24.15-4.85Z"/>
        <path class="cls-62" d="m209.95,209.71l-.28-.02-.28.02c0-1.64,0-3.28,0-4.93.2,0,.4,0,.6,0,.36,1.64.05,3.28-.03,4.92Z"/>
        <path class="cls-32" d="m209.58,129.48c.17,0,.35,0,.52.01.26,1.35-.28,2.61-.68,3.88-1.02-1.33.27-2.59.16-3.89Z"/>
        <path class="cls-64" d="m11.87,124.05c.2,0,.4-.01.59-.02-.06,1.63-.11,3.27-.17,4.9-.19-.17-.38-.34-.56-.51.05-1.46.09-2.92.14-4.38Z"/>
        <path class="cls-67" d="m12.86,119.52c-.18-.17-.37-.34-.55-.51.05-1.46.09-2.92.14-4.38.23,0,.45,0,.68,0-.09,1.63-.18,3.25-.27,4.88Z"/>
        <path class="cls-59" d="m146.4,297.08c-.2-.21-.4-.43-.6-.64.06-6.19-1.26-12.27-2.11-18.39-1.42-10.16-6.22-19.49-10.23-28.98-1.62-3.83-1.2-6.9,1.15-10.12.25.08.4.24.47.45-2.67,3.76-1.57,7.33.11,11.19,3.18,7.32,6.64,14.61,8.47,22.27,1.67,7.02,2.38,14.18,3.23,21.32.12.98.17,1.98-.48,2.89Z"/>
        <path class="cls-36" d="m137.02,209.92c-1.46,2.07-2.88,4.12-4.35,6.15-.26.36-.69.11-1-.08-.23-.15-.45-.32-.63-.52-1.48-1.58-4.92-2.77-4.41-4.51.76-2.57,3.29-4.77,5.08-7.11.22-.29.67-.49.94-.12,1.47,2.03,2.88,4.09,4.36,6.2Z"/>
        <path class="cls-31" d="m133.77,268.13c-2.31-1.72-4.44-3.34-6.63-4.9-.96-.69-.89-1.27-.19-2.06,1.51-1.69,2.94-3.43,4.63-5.41,1.75,2.37,3.34,4.59,5,6.77.73.96-.24,1.51-.63,2.19-.63,1.09-1.36,2.15-2.18,3.42Z"/>
        <path class="cls-17" d="m60.71,244c-.82-.77-1.63-1.53-2.45-2.3-1.4.93-1.7,2.65-3.62,3.38,4.67-4.25,2.16-9.61,3.39-14.4,1.67,4.28-1.73,9.36,3.58,12.97-.3.12-.59.24-.89.36Z"/>
        <path class="cls-9" d="m128.26,140.99c-.2-.37-.39-.73-.59-1.1-.66-.52-.55-1.2-.44-1.84.9-5.36,2.08-10.68,3.2-16,.09-.41.33-.77.75-1.01.19-.36.39-.73.58-1.09,1.24,2.41-.2,4.68-.6,6.98-.83,4.71-1.92,9.38-2.91,14.07Z"/>
        <path class="cls-31" d="m126.71,158.15c.38.6.7,1.09,1,1.59,1.69,2.79,1,5.27-1.97,7.06-.16.09-.39.29-.47.25-1.96-.86-2.82-2.6-4.27-3.87-.83-.73.03-1.23.58-1.61,1.63-1.15,3.33-2.23,5.12-3.42Z"/>
        <path class="cls-21" d="m66.36,107.73c-.89,3.71-2.36,6.79-2.56,10.14-.38-2.72-1.31-5.27-2.54-8.4,1.91,1.08,1.62,2.38,2.32,3.23,1.33-1.3.64-3.36,2.78-4.97Z"/>
        <path class="cls-10" d="m107.64,242.81c.39-3.01.79-6.02,1.22-9.27-1.76.84-3.31,1.58-4.87,2.31-.14-.18-.28-.36-.42-.54,1.92-1.05,3.85-2.1,6.44-3.52-.53,4.01-1,7.52-1.46,11.02-.3,0-.6,0-.9-.01Z"/>
        <path class="cls-18" d="m103.8,169.46v-8.04c1.32.17.51,1.2,1.21,1.54,1.15-.26,1.35-1.58,3.63-1.89-3.49,2.51-4.46,5.32-4.12,8.55-.24-.05-.48-.11-.73-.16Z"/>
        <path class="cls-61" d="m79.11,235.99c.64.46,1.28.91,1.94,1.38,1.51-.66.23-2.49,2.03-3.11-.23,3.5-1.66,6.56-3.57,9.55-.09-2.57,3.62-5.35-1.42-7.52.34-.1.68-.2,1.02-.3Z"/>
        <path class="cls-23" d="m167.79,112.97c.92-1.46,1.76-2.81,2.61-4.16-.48,3.07-2.9,5.69-2.42,9.05-.22-2.68-1.07-5.05-3.16-7.07,1.45.27,1.85,1.37,2.98,2.18Z"/>
        <path class="cls-59" d="m87.43,162.3h12.3c0,.15,0,.29,0,.44h-12.3c0-.15,0-.29,0-.44Z"/>
        <path class="cls-10" d="m143.92,113.95c.85-1.27,1.54-2.29,2.23-3.31.22,1.91-1.37,3.21-1.85,4.83-.48,1.63.99,3.23.38,4.95-1.32-3.11-1.97-6.34-2.63-9.95,1.57.99,1.03,2.41,1.86,3.49Z"/>
        <path class="cls-28" d="m61.05,169.62c-1.13-.65-2.21-1.28-3.52-2.05,1.48-.53,1.65.74,2.66.58.15-2.68.31-5.4.46-8.12.13.01.26.02.39.03v9.55Z"/>
        <path class="cls-59" d="m76.51,162.84h-11.28c0-.13-.02-.25-.03-.38h11.33c0,.13-.01.25-.02.38Z"/>
        <path class="cls-38" d="m190.43,115.72c-.57,1.24-1.05,2.29-1.52,3.34.78-3.58,1.77-7.09,1.62-10.79.22,3.68-.02,7.35,2.75,10.53-.24.09-.48.17-.72.26-.66-1.04-1.32-2.09-2.11-3.33Z"/>
        <path class="cls-59" d="m184.72,116.41h-9.62c3.21-.82,6.41-.75,9.62,0Z"/>
        <path class="cls-59" d="m43.54,162.34h9.57c0,.15,0,.29,0,.44h-9.55c-.01-.15-.02-.29-.03-.44Z"/>
        <path class="cls-59" d="m160.57,116.43h-8.79c2.9-.85,5.82-.73,8.73-.62.02.21.04.41.06.62Z"/>
        <path class="cls-3" d="m109.61,162.27h8.49c0,.23.01.46.02.68-2.81.27-5.64.22-8.47.02-.01-.23-.03-.47-.04-.7Z"/>
        <path class="cls-8" d="m80.5,114.43c-2.54.19-5.08.3-7.62-.61h7.65c0,.2-.02.41-.02.61Z"/>
        <path class="cls-28" d="m37.42,116.71c2.39-1.86,2.71-4.23,2.66-6.74.76,2.18.19,4.44,1.37,6.5q-1.61-1.19-4.03.24Z"/>
        <path class="cls-2" d="m54.31,114c-2,.76-4.28.79-6.56.07,2.09-.66,4.2-.68,6.56-.07Z"/>
        <path class="cls-31" d="m24.2,110.28c-.31,1.57-.78,3.13-.97,4.78.26-2.77-1.46-5.11-1.76-7.75.46.87.88,1.76,1.39,2.61.53.86.54,0,.76-.19.56-.09.78.08.58.56Z"/>
        <path class="cls-63" d="m135.08,239.42c-.16-.15-.31-.3-.47-.45.21-.49.43-.98.64-1.47h.61c-.08,1.29,1.07.86,1.8.87,2.58.04,5.15.02,7.75.6-2.36,0-4.73-.05-7.09.02-1.08.04-2.31-.44-3.25.43Z"/>
        <path class="cls-12" d="m81.74,165.77c-.91-1.77-1.26-3.05-1.4-4.61q1.37,1.41,2.64-.06c.18,1.68-.8,2.88-1.24,4.66Z"/>
        <path class="cls-32" d="m36.28,161.7c.27.41.23,1.04,1,1.09.08,0,.19-.39.28-.59.24-.17.49-.18.74-.01-.6,1.8-.86,3.65-1.16,5.56-.1-2.12-.75-4.11-1.59-6.05.24-.16.48-.16.72,0Z"/>
        <path class="cls-66" d="m30.45,239.4c1.23-2.82-.01-5.83,1.03-8.67-.17,3.05.98,6.14-.56,9.14-.49.08-.78.03-.48-.47Z"/>
        <path class="cls-1" d="m50.09,238.82h-11.2v-.29h11.16c.01.1.03.19.04.29Z"/>
        <path class="cls-1" d="m87.54,238.53h10.62c0,.1,0,.19,0,.29h-10.61c0-.1,0-.19,0-.29Z"/>
        <path class="cls-1" d="m126.22,238.82h-10.58c0-.09,0-.18,0-.26h10.58v.26Z"/>
        <path class="cls-67" d="m65.33,238.5h9.76c0,.1,0,.19,0,.29h-9.8c.01-.1.02-.19.03-.29Z"/>
        <path class="cls-26" d="m24.2,110.28c-.19-.19-.39-.37-.58-.56.47-1.52.61-3.13,2.07-4.99,0,2.35-.75,3.95-1.49,5.55Z"/>
        <path class="cls-30" d="m38.31,162.18h-.74c.25-1.49.69-2.93,1.78-4.92.37,2.23-.39,3.56-1.03,4.92Z"/>
        <path class="cls-19" d="m30.45,239.4c.16.16.32.31.48.47-.23,1.26-1.56,2.17-1.53,3.51-.63.36-.86-.04-1.1-.41.72-1.19,1.44-2.38,2.16-3.57Z"/>
        <path class="cls-18" d="m36.28,161.7c-.24,0-.48,0-.72,0-.74-1.17-1.56-2.32-1.5-4.05,1.49,1.3,1.75,2.72,2.22,4.06Z"/>
        <path class="cls-40" d="m28.28,242.97c.37.14.74.28,1.1.41h4.7c0,.2,0,.41,0,.61-1.79,0-3.58.03-5.36-.01-.96-.02-.68-.55-.43-1.01Z"/>
        <path class="cls-37" d="m29.28,113.64h4.74c-1.65.72-3.31.4-4.74,0Z"/>
        <path class="cls-67" d="m147.35,174.49c.47-.05.7-.31.8-.67,2.13-.16,4.22.24,6.34.26.14-.16.28-.32.42-.47,1.78.1,3.51.51,5.3.48.22,0,.45,0,.67,0,.7-.06,1.37-.04,1.79.56,0,.16,0,.31.01.47-6.62-.03-13.24-.07-19.86-.1l.43-.9c1.41-.22,2.83-.42,4.1.39Z"/>
        <path class="cls-11" d="m178.71,245.24c-.24-2.88,5.34-4.78.15-8.34,4.07,1.64,4.31,2.24,2.55,4.71-.87,1.22-1.8,2.42-2.7,3.64Z"/>
        <path class="cls-45" d="m196.92,240.7c-.52-2.22-.08-4.49-2.44-6.36,1.56-.1,1.59,1.04,2.53,1.11.75-.96,1.53-1.96,2.3-2.95.22.08.45.15.67.23-1.77,2.47-3.56,4.94-3.06,7.96Z"/>
        <path class="cls-7" d="m153.02,239.93c-.62-1.08-1.24-2.16-1.97-3.44,1.57.1,1.35,1.16,2.14,1.62,1.21-.69.82-2.28,2.29-3.06.06,1.89-1.36,3.2-2.46,4.87Z"/>
        <path class="cls-67" d="m173.42,238.81h-10.2c0-.09,0-.18,0-.27h10.2c0,.09,0,.18,0,.27Z"/>
        <path class="cls-44" d="m117.08,80.97c-.39-.35-.79-.7-1.18-1.05,7.26-11.05,13.69-22.46,20.76-33.57-1.93-1.13-4.46.48-5.77-1.48.83-.23,1.81.09,2.53-.5.74-.85,1.88-.74,2.92-.84,1.14-.11,2-.53,2.61-1.37,1.05-1.45.76-1.89-1.28-2.13-6.15-.74-12.38-.59-18.56-.86-5.6-.25-11.2-.84-16.83-.64-1.09.04-2.41.13-2.93-1.1,1-.26,2.17.24,3.06-.5,6.44,1,3.94-4.39,6.4-6.41.34,1.79-.68,3.28-1.12,4.83-.35,1.23-.18,1.82,1.46,1.88,10.5.37,21,.74,31.49,1.21,1.59.07,2-.67,2.55-1.55,2.98-4.8,5.97-9.6,8.96-14.39.15.16.3.33.45.49.71,1.17-.23,2.07-.82,2.93-4.02,5.84-7.38,11.97-11.04,17.97-7.14,11.7-14.47,23.32-21.44,35.1-.48.82-.69,1.97-2.22,2.01Z"/>
        <path class="cls-57" d="m131.19,121.04c-.71,6.35-2.46,12.56-3.52,18.86-.45,1.88-.91,3.77-1.44,6-7.25-7.55-14.23-14.83-21.21-22.11-11.28-11.77-22.52-23.57-33.84-35.32-4.77-4.95-7.92-10.72-11.85-16.09-10.74-14.68-19.41-30.3-28.79-45.61-.63-1.03-.84-1.81.53-2.44,4.74-2.74,9.59-5.35,14.18-8.25,3.97-2.5,8.3-4.19,12.98-5.39,3.25-.83,6.45-1.81,9.67-2.73,3.74-1.09,7.47-2.19,11.21-3.28,1.18.69.05,1.59.31,2.37-.7,4.13-1.38,8.27-2.09,12.4-.17.97.41,1.76.83,2.57,5.79,11.36,11.53,22.74,17.43,34.06,1.89,3.62,5.13,6.57,7.73,9.84,2.93,3.69,6.06,7.25,9.04,10.91,6.92,8.5,10.36,18.27,13.91,27.96,1.95,5.33,3.31,10.81,4.93,16.23Z"/>
        <path class="cls-57" d="m117.08,80.97c6.43-10.41,12.88-20.82,19.27-31.25,5.45-8.9,10.83-17.84,16.24-26.77,1.73-2.77,3.52-5.5,5.15-8.31.7-1.21,1.24-1.7,3.01-1.12,13.76,4.56,27.55,9.04,41.37,13.46,1.88.6,1.8,1.1.72,2.34-12.95,14.86-25.7,29.86-38.83,44.61-4.27,4.8-10.15,8.41-15.27,12.58-6.39,5.2-12.94,10.26-19.32,15.47-1.6,1.31-2.21,1.27-3.01-.53-3.03-6.85-6.21-13.66-9.33-20.48Z"/>
        <path class="cls-57" d="m130.9,44.86c2.17.56,4.43.25,7.01.56-2.37,3.93-4.68,7.76-7.01,11.59-4.32,7.08-8.63,14.15-13.02,21.2-.42.67-.36,1.95-1.98,1.71-5.92-7.23-11.94-14.39-17.72-21.7-3.41-4.32-5.09-9.38-7.64-14.07-.75-1.37.68-1.04,1.38-1,9.6.43,19.2.9,28.8,1.34,3.39.16,6.79.25,10.19.37Z"/>
        <path class="cls-56" d="m129.69,110.19c-.08-.06-.18-.1-.2-.15-1.91-5.62-1.86-5.57,3.35-9.69,10.1-7.99,20.46-15.77,30.06-24.17,5.43-4.75,9.6-10.55,14.28-15.91,8.89-10.21,17.73-20.45,26.6-30.67,1.22-1.4,3.97-1.53,5.35-.23.9.85-.26,1.32-.67,1.81-4.65,5.59-9.36,11.14-14.03,16.72-6.02,7.19-12.04,14.37-18.01,21.59-4.45,5.38-10.35,9.61-15.68,14.29-9.66,8.49-19.49,16.84-29.27,25.24-.52.45-.91,1.09-1.78,1.18Z"/>
        <path class="cls-56" d="m99.35,37.41c5.07.81,10.24.47,15.35.82,8.79.6,17.63.75,26.47,1.08-1.2,4.34-2.01,4.86-7.74,5.05-14.03-.69-28.06-1.41-42.09-2.04-1.39-.06-2.11-.41-2.55-1.51-.49-1.22-1.19-2.39-1.7-3.4h12.25Z"/>
        <path class="cls-58" d="m191.03,173.09c.26.52.52,1.04.93,1.85-2.22-.28-4.34.84-6.05-.85-2.14-3.56-4.29-7.11-6.58-10.92,2.16.02,4.11-.79,5.86.57,1.77.58,2.1,2.09,2.77,3.31,1.09,1.99,2.81,3.75,3.08,6.04Z"/>
        <path class="cls-58" d="m185.44,174.62c-.84.74-1.93.14-2.86.37-2.14-.12-3.26-1.18-4.19-2.77-1.75-3-3.79-5.89-5.76-8.89q5.19-.73,7.42,2.83c1.78,2.83,3.59,5.64,5.39,8.45Z"/>
        <path class="cls-58" d="m154.49,174.07c-2.16.76-4.28.74-6.34-.26-1.35-3.08-3.43-5.86-5.21-8.75-.77-1.25-1.12-1.95,1.25-1.98,2.23-.03,3.46.5,4.47,2.24,1.75,3,3.87,5.84,5.84,8.75Z"/>
        <path class="cls-58" d="m178.77,174.41c-3.62.9-5.59-.12-7.04-2.66-1.63-2.85-3.72-5.5-5.65-8.28,4.48-.99,5.03-.81,7.03,2.26,1.86,2.85,3.72,5.71,5.66,8.67Z"/>
        <path class="cls-58" d="m142.21,174.01c-5.31.42-5.42.46-7.41-3.19-.99-1.82-2.93-3.38-2.59-5.61.12-.77-.27-2.01,1.42-2.04,1.32-.03,2.61-.27,3.35,1.23,1.57,3.18,3.39,6.26,5.23,9.61Z"/>
        <path class="cls-58" d="m172.5,174.34c-3.6.77-5.92.09-7.24-2.87-.95-2.12-2.55-4.03-3.74-6.09-.39-.68-1.83-1.69-.58-2.16,1.16-.43,3.15-.86,4.18.56,2.51,3.46,4.9,6.99,7.38,10.55Z"/>
        <path class="cls-58" d="m162.66,174.63c-.61-.14-1.36.03-1.79-.56-2.14-3.54-4.29-7.08-6.48-10.69,2.98-.8,4.87-.38,6.17,2.14,1.54,2.99,3.6,5.79,5.59,8.91-1.31.07-2.4.14-3.49.2Z"/>
        <path class="cls-58" d="m160.2,174.08c-1.86.61-3.72,1.17-5.3-.48-2.11-3.36-4.23-6.72-6.4-10.18,3.1-.73,4.99-.21,6.3,2.33,1.49,2.89,3.57,5.56,5.4,8.33Z"/>
        <path class="cls-54" d="m147.35,174.49c-1.36-.2-2.82.4-4.1-.39-1.92-3.55-3.84-7.11-5.77-10.67,2.28-.68,3.62-.18,4.49,1.61,1.58,3.24,4.2,6.05,5.38,9.46Z"/>
        <path class="cls-53" d="m193.02,164.39c-1.32,2.77-.23,5.67-.63,8.49-.01.08-.05.21-.09.22-.13.02-.28,0-.41-.02-2.57-2.87-4.49-6.03-5.88-9.42,2.21-1.39,4.7-.5,7.04-.51,1.18,0-.22.8-.02,1.24Z"/>
        <path class="cls-55" d="m131.91,167.81c1.26,2.11,2.43,4.06,3.59,6-.3.18-.44.33-.59.34-5.06.14-5.08.14-3.92-3.98.2-.7-.03-1.5.92-2.36Z"/>
        <path class="cls-11" d="m186.01,163.66c1.96,3.14,3.92,6.28,5.88,9.42-.28,0-.57,0-.85,0-1.95-3.12-3.9-6.23-5.84-9.35.27-.03.55-.06.82-.08Z"/>
        <path class="cls-56" d="m42.64,63.11c-6.67-8.78-13.34-17.56-20.01-26.33q-2.85-4.4,1.59-7.65c4.69-3.45,4.75-3.47,7.41,1.18,10.78,18.83,22.6,37.2,35.68,54.95,4.66,6.32,10.87,11.82,16.44,17.65,13.91,14.54,27.86,29.06,41.84,43.64-2.26,1.63-3.93,1.8-6.19-.34-9.33-8.85-19.27-17.26-28.29-26.33-6.43-6.46-11.8-13.69-17.49-20.66-.87-1.07-3.69-2.06-1.08-4.07.58-.44-.6-1.42-1.27-.98-1.71,1.13-2.04-.11-2.7-.88-8.65-10.05-17.29-20.1-25.93-30.15Z"/>
        <path class="cls-61" d="m132.24,204.65c.79,1.04,1.36,1.78,1.91,2.52,1.84,2.47,1.22,5.51-1.42,7.37-.56.39-.96.46-1.48.02-1.16-1-2.32-1.99-3.49-2.97-.53-.44-.39-.81,0-1.29,1.46-1.79,2.88-3.62,4.48-5.65Z"/>
        <path class="cls-60" d="m131.41,257.33c.56.54.99.87,1.3,1.28.68.9,1.15,1.95,1.98,2.72,2.09,1.93.06,3.31-.73,4.86-.16.32-.6.5-.97.24-1.7-1.22-3.45-2.4-5.02-3.74-.93-.79.08-1.5.63-2.15.88-1.04,1.8-2.06,2.81-3.21Z"/>
        <path class="cls-60" d="m128.21,162.44c-.82,1.28-1.55,2.62-3.13,3.37-.44.21-3.05-2.46-2.99-3,.05-.41,3.78-3.47,4.1-3.3,1.22.66,1.42,1.85,2.02,2.93Z"/>
        <path class="cls-46" d="m207.64,30.21c-.18.5-.46.97-1.14.93-.76-.05-1.24-.43-1.11-1.14.1-.58.59-.84,1.22-.78.64.06.99.44,1.03,1Z"/>
        <path class="cls-34" d="m161.43,81.07c0,.58-.35.9-1.01.94-.63.03-1.15-.19-1.22-.76-.08-.67.37-1.09,1.15-1.08.61,0,1.04.33,1.08.9Z"/>
        <path class="cls-25" d="m182.88,59.78c-.17.51-.46.87-1.17.84-.93-.04-1.05-.58-.96-1.18.09-.58.6-.81,1.23-.72.66.1.88.53.9,1.06Z"/>
        <path class="cls-24" d="m131.93,105.57c-.74.01-1.16-.31-1.29-.82-.13-.53.14-.99.82-1.08.75-.1,1.32.14,1.39.87.06.59-.45.83-.91,1.04Z"/>
        <path class="cls-24" d="m169.13,75.02c0,.56-.27.91-.97.96-.68.05-1.13-.26-1.21-.77-.1-.64.35-1.09,1.13-1.1.63,0,1.01.35,1.06.91Z"/>
        <path class="cls-33" d="m188.7,51.19c.74,0,.96.39.95.93-.02.55-.38.92-1.01.95-.83.03-1.17-.48-1.1-1.09.06-.52.46-.85,1.16-.78Z"/>
        <path class="cls-46" d="m176.05,67.83c-.04.69-.41,1.07-1.04,1.11-.8.05-1.26-.33-1.22-1.03.03-.57.46-.86,1.13-.87.71,0,.94.44,1.13.78Z"/>
        <path class="cls-33" d="m200.34,36.28c.97.07,1.26.47,1.24.99-.01.52-.35.94-1.02.93-.82,0-1.15-.49-1.11-1.12.04-.58.52-.79.89-.8Z"/>
        <path class="cls-25" d="m148.08,92.62c-.16.7-.53,1.08-1.16,1.06-.8-.01-1.22-.47-1.08-1.12.11-.51.57-.84,1.24-.77.67.07.92.47,1,.83Z"/>
        <path class="cls-48" d="m139.7,99.11c-.05.62-.33,1.02-.97,1.11-.65.09-1.12-.18-1.19-.74-.08-.61.17-1.13,1.02-1.17.69-.03.9.45,1.14.8Z"/>
        <path class="cls-36" d="m195.56,44.22c0,.54-.22.96-.92,1.01-.71.05-1.03-.34-1.07-.87-.04-.54.26-.96.92-1.02.7-.06.97.37,1.08.89Z"/>
        <path class="cls-62" d="m153.71,85.84c.71-.02,1.06.35,1.04.87-.02.55-.48.83-1.15.79-.55-.04-.85-.3-.87-.76-.03-.57.28-.9.99-.9Z"/>
        <path class="cls-24" d="m123.51,42.85c-.66-.04-1.07-.3-1.08-.89,0-.57.42-.95,1-.99.76-.06,1.25.34,1.22,1.03-.03.59-.49.82-1.14.86Z"/>
        <path class="cls-24" d="m135.13,42.86c-.65-.06-1.09-.32-1.09-.9,0-.7.51-1.07,1.26-.99.57.06.99.46.96,1.03-.04.59-.47.83-1.13.86Z"/>
        <path class="cls-24" d="m111.93,40.93c.1-.54.46-.93,1.07-.96.8-.04,1.18.41,1.14,1.07-.03.59-.48.84-1.13.81-.66-.03-.98-.39-1.08-.92Z"/>
        <path class="cls-49" d="m103.46,41.35c-.9.03-1.26-.31-1.3-.87-.04-.57.36-.94,1-.99.69-.05,1.02.35,1.08.9.07.59-.31.89-.79.96Z"/>
        <path class="cls-1" d="m93.45,40.33c-.71.07-1.09-.26-1.14-.79-.05-.56.35-.88,1.03-.86.51.01.92.16.95.67.02.5-.03.98-.84.99Z"/>
        <path class="cls-33" d="m81.3,103c.04.58-.39.96-.96,1.02-.76.08-1.25-.33-1.26-1,0-.58.46-.85,1.1-.87.65-.02,1.09.23,1.12.84Z"/>
        <path class="cls-34" d="m52.14,68.13c-.03.83-.53,1-1.14,1-.63,0-1.11-.24-1.1-.84,0-.69.52-1.05,1.27-.97.57.07,1.01.42.97.81Z"/>
        <path class="cls-25" d="m45.81,60.18c-.04.53-.26.92-1,.94-.7.02-1.09-.33-1.14-.84-.06-.64.36-1.06,1.17-1.06.74,0,.93.44.97.96Z"/>
        <path class="cls-27" d="m86.57,109.17c.7.07,1.01.48.96.99-.06.63-.54,1.05-1.33.93-.67-.1-.86-.59-.78-1.11.08-.55.47-.85,1.16-.81Z"/>
        <path class="cls-24" d="m111.31,134.73c.02.53-.17.99-.84,1.08-.79.1-1.28-.29-1.29-.95,0-.51.29-.91,1.01-.94.69-.03,1.06.24,1.13.81Z"/>
        <path class="cls-35" d="m103.33,126.97c-.07.52-.27.96-1.01.99-.72.02-1.08-.33-1.1-.9-.02-.55.23-.98.96-1.02.73-.04.98.41,1.15.92Z"/>
        <path class="cls-34" d="m40.21,52.09c-.05.53-.35.95-1.04.98-.67.03-1.09-.33-1.12-.9-.04-.57.27-.94,1-.98.75-.04,1.03.34,1.16.9Z"/>
        <path class="cls-38" d="m57.95,76.92c.88-.02,1.25.26,1.25.87,0,.56-.34.97-.99,1.02-.71.06-1.05-.37-1.09-.91-.04-.55.3-.92.83-.99Z"/>
        <path class="cls-47" d="m28.62,34.37c0,.55-.34.9-.97.98-.64.09-1.12-.17-1.23-.72-.13-.65.24-1.1,1.03-1.14.65-.03.96.4,1.16.88Z"/>
        <path class="cls-33" d="m95.53,117.7c-.05.54-.29.92-1.01.93-.69.01-1.08-.33-1.1-.85-.02-.63.38-1.09,1.19-1.07.7.02.91.47.92,1Z"/>
        <path class="cls-41" d="m118.96,141.46c.68.11,1.08.42,1.02,1.01-.05.59-.47.9-1.15.87-.7-.03-1.05-.45-1.02-.99.03-.57.48-.86,1.14-.89Z"/>
        <path class="cls-37" d="m32.99,42.32c.62.12,1,.45.95,1-.06.67-.56,1.03-1.33.89-.62-.11-.92-.57-.81-1.09.11-.51.51-.83,1.19-.8Z"/>
        <path class="cls-39" d="m65.07,85.38c-.14.59-.61.78-1.24.63-.61-.15-.91-.54-.74-1.08.17-.54.64-.78,1.27-.66.71.13.77.61.7,1.12Z"/>
      </g>
    </g>
  </g>
</svg>