<?xml version="1.0" encoding="UTF-8"?>
<svg id="lotus" xmlns="http://www.w3.org/2000/svg" xmlns:xlink="http://www.w3.org/1999/xlink" viewBox="0 0 1280 720">
  <defs>
    <style>
      .cls-1 {
        clip-path: url(#clippath);
      }

      .cls-2, .cls-3 {
        fill: none;
      }

      .cls-2, .cls-4, .cls-5, .cls-6, .cls-7, .cls-8, .cls-9, .cls-10, .cls-11, .cls-12, .cls-13, .cls-14, .cls-15, .cls-16, .cls-17, .cls-18, .cls-19, .cls-20, .cls-21, .cls-22, .cls-23 {
        stroke-width: 0px;
      }

      .cls-24, .cls-8 {
        fill: #c59167;
      }

      .cls-25 {
        clip-path: url(#clippath-1);
      }

      .cls-26 {
        clip-path: url(#clippath-3);
      }

      .cls-27 {
        clip-path: url(#clippath-2);
      }

      .cls-28 {
        fill: #c3bea0;
      }

      .cls-28, .cls-29 {
        stroke: #000;
      }

      .cls-28, .cls-29, .cls-3 {
        stroke-miterlimit: 10;
        stroke-width: 8px;
      }

      .cls-29 {
        fill: #989898;
      }

      .cls-3 {
        stroke: #666;
      }

      .cls-5 {
        fill: #a37a4b;
      }

      .cls-6 {
        fill: #1a1a1a;
      }

      .cls-7 {
        fill: #231f20;
      }

      .cls-9 {
        fill: #c90224;
      }

      .cls-10 {
        fill: #af4d5d;
      }

      .cls-11 {
        fill: #909090;
      }

      .cls-12 {
        fill: #99190a;
      }

      .cls-13 {
        fill: #ff921e;
      }

      .cls-14 {
        fill: #ff71a3;
      }

      .cls-15 {
        fill: #feb900;
      }

      .cls-16 {
        fill: #673606;
      }

      .cls-17 {
        fill: #fffce4;
      }

      .cls-18 {
        fill: #fff;
      }

      .cls-19 {
        fill: #fc8200;
      }

      .cls-20 {
        fill: #e5e5e5;
      }

      .cls-21 {
        fill: #fd8200;
      }

      .cls-22 {
        fill: #e6e6e6;
      }

      .cls-23 {
        fill: #f5a1ba;
      }
    </style>
    <clipPath id="clippath">
      <path class="cls-8" d="m629.56,470.33c2.56-2.88,5.17-5.78,7.85-8.7,2.91-3.18,5.82-6.3,8.72-9.37,2.16-2.02,5.02-4.36,8.72-6.69,3.78-2.38,7.41-4.11,10.46-5.35,2.75-1.33,5.94-2.71,9.59-4.02,3.09-1.1,6.03-1.98,8.72-2.68,2.03-.22,4.07-.45,6.1-.67h4.21l2.77.67c1.45.45,2.91.89,4.36,1.34h0c1.16.45,2.32.89,3.49,1.34l3.49,2.68-4.36,2.68-74.1,28.78Z"/>
    </clipPath>
    <clipPath id="clippath-1">
      <path class="cls-8" d="m601.67,460.29c.26-2.58.24-6.06-.87-10.04-1.75-6.25-5.37-10.78-7.85-13.39-2.47-1.64-5.93-3.63-10.46-5.35-5.04-1.92-9.66-2.86-13.08-3.35-3.34.39-7.17,1-11.33,2.01-3.39.82-6.41,1.75-9.02,2.68-3.05,1.24-6.59,2.96-10.16,5.35-7.7,5.17-11.81,10.97-13.95,14.72l76.71,7.36Z"/>
    </clipPath>
    <clipPath id="clippath-2">
      <path class="cls-2" d="m630.02,468.96c2.56-2.88,5.17-5.78,7.85-8.7,2.91-3.18,5.82-6.3,8.72-9.37,2.16-2.02,5.02-4.36,8.72-6.69,3.78-2.38,7.41-4.11,10.46-5.35,2.75-1.33,5.94-2.71,9.59-4.02,3.09-1.1,6.03-1.98,8.72-2.68,2.03-.22,4.07-.45,6.1-.67h4.21l2.77.67c1.45.45,2.91.89,4.36,1.34h0c1.16.45,2.32.89,3.49,1.34l3.49,2.68-4.36,2.68-74.1,28.78Z"/>
    </clipPath>
    <clipPath id="clippath-3">
      <path class="cls-2" d="m602.12,458.92c.26-2.58.24-6.06-.87-10.04-1.75-6.25-5.37-10.78-7.85-13.39-2.47-1.64-5.93-3.63-10.46-5.35-5.04-1.92-9.66-2.86-13.08-3.35-3.34.39-7.17,1-11.33,2.01-3.39.82-6.41,1.75-9.02,2.68-3.05,1.24-6.59,2.96-10.16,5.35-7.7,5.17-11.81,10.97-13.95,14.72l76.71,7.36Z"/>
    </clipPath>
  </defs>
  <rect class="cls-22" x="11.58" y="3.54" width="1259.09" height="716.41"/>
  <g id="tøj">
    <g>
      <g>
        <g>
          <ellipse class="cls-7" cx="989.75" cy="682.51" rx="34.79" ry="8.9"/>
          <path class="cls-7" d="m979.36,682.51h25.31c2.83,0,5.15-.9,5.15-2.01-18.08-35.52-23.51-65.35-22.92-81.1.55-14.44,3.59-26.29,3.59-26.29,1.58-6.14,4.13-13.87,5.15-16.96,1.45-4.4,2.75-8.04,3.68-10.6h5.35-25.31c-2.83,0-5.15.9-5.15,2.01,1.68,4.9,3.45,10.94,4.86,17.92,1.6,7.9,2.11,14,2.58,19.65.59,7.19.66,12.51.74,18.66.01,1.05.14,12.97-.37,23.04-1.12,22.06-5.79,44.54-7.81,53.68,0,.01,0,.02,5.15,2.01Z"/>
          <path class="cls-7" d="m944.83,475.17c11.45,10.72,17.17,16.07,17.49,19.65,1.47,16.78-56.71,26.08-55.04,38.02,1.3,9.34,38.46,14.47,65.9,14.7,35.58.29,82.02-7.43,83.39-19.65,1.65-14.67-62.52-28.34-58.54-42.82.26-.94,2.32-2.98,6.44-7.07,13.27-13.15,19.11-14.5,19.14-18.94.05-6.58-12.67-11.59-19.14-14.13-14.64-5.76-28.56-5.23-32.95-4.95-18.56,1.18-42.53,9.02-43.08,18.37-.23,3.89,3.78,5.02,16.38,16.82Z"/>
          <polyline class="cls-7" points="962.32 495.1 998.03 485.35 999.09 490.22"/>
          <path class="cls-7" d="m910.57,534.12c-.57,1.17,6.78,4.43,11.62,6.07,10.39,3.52,20.96,3.53,25.96,3.53,1.1,0,2.17-.02,4.42,0,6.8.06,11.83.36,13.95.48,5.34.3,21.13,1.19,21.22.69.13-.75-10.8-1.45-38.55-5.32-24.69-3.45-37.88-6.96-38.61-5.45Z"/>
          <ellipse class="cls-7" cx="1181.75" cy="684.49" rx="34.79" ry="8.9"/>
          <path class="cls-7" d="m1171.42,684.49h25.31c2.83,0,5.15-.9,5.15-2.01-18.08-35.52-23.51-65.35-22.92-81.1.55-14.44,3.59-26.29,3.59-26.29,1.58-6.14,4.13-13.87,5.15-16.96,1.45-4.4,2.75-8.04,3.68-10.6h5.35-25.31c-2.83,0-5.15.9-5.15,2.01,1.68,4.9,3.45,10.94,4.86,17.92,1.6,7.9,2.11,14,2.58,19.65.59,7.19.66,12.51.74,18.66.01,1.05.14,12.97-.37,23.04-1.12,22.06-5.79,44.54-7.81,53.68,0,.01,0,.02,5.15,2.01Z"/>
          <path class="cls-7" d="m1108.85,491.85s2.58,18.36-1.47,30.67c-.06.19-.31.93-.55,1.98-1.56,6.81.18,10.6.18,10.6.27.59.58,1.27,1.06,1.97.11.17.96,1.33,2.06,2.13,2.12,1.54,5.23,1.76,6.63,1.7,5.08-.22,8.58-4.91,9.94-6.78,11.33-15.62,5.15-41.76,5.15-41.76h0c-5.54-37.53,4.14-58.58-.18-59.15-5.95-.78-25.75,37.82-22.83,58.65Z"/>
          <path class="cls-7" d="m1110.51,534.06c.06,1.19,3.65,2.03,6.44,1.87,1.58-.09,4.5-.59,4.6-1.66.1-1.05-2.52-2.51-4.97-2.7-2.95-.23-6.14,1.34-6.07,2.49Z"/>
          <path class="cls-7" d="m1225.5,487.15c4.93,36.99,7.61,54.9,19.93,57.58.35.08,5.43,1.12,9.86-1.03,15.02-7.28,2.22-41.17-5.28-61.04-7.59-20.09-23.37-54.74-29.62-53.53-1.93.37-2.09,4.01,5.1,58.03Z"/>
          <path class="cls-7" d="m1255.46,538.45c-.51-1.41-5.09-1.64-8.36-.86-1.85.44-5.16,1.66-4.9,2.96.26,1.27,3.91,2.46,6.9,2.16,3.6-.35,6.84-2.91,6.36-4.26Z"/>
        </g>
        <path class="cls-7" d="m1184.14,503.79c-.2,10.25-2.58,17.37-6.63,29.47-6.68,19.98-13.64,40.79-22.64,40.99-14.24.32-25.93-51.14-29.27-70.46-4.78-27.68,2.96-16.2,5.34-61.83.1-1.84.32-6.37,3.68-7.63,6.79-2.55,22.09,9.85,30.56,19.22,17.92,19.83,19.13,41.51,18.96,50.24Z"/>
        <path class="cls-7" d="m1179.26,508.67c-8.61,36-11.88,44.5-3.68,51.37,9.14,7.66,26.23,8.03,29.09,8.06,4.88.05,17.4.17,25.22-5.37,8.95-6.34,3.97-14.59.18-54.06-2.41-25.12-2.49-43.66-5.34-50.67-.43-1.06-2.48-5.68-2.02-11.87.08-1.11.22-1.94.37-2.83,1.5-8.95,4.98-12.23,3.13-13.99-1.64-1.57-6.45-.92-9.57,0-11.1,3.28-15.5,14.28-17.49,19.5-14.94,39.2-19.88,59.85-19.88,59.85Z"/>
        <ellipse class="cls-7" cx="1158.27" cy="453.41" rx="9.09" ry="35.21" transform="translate(105.81 1116.35) rotate(-53.58)"/>
        <path class="cls-7" d="m1184.59,455.5c-6.62,17.57-12.86,37.88-6.58,40.16,3.05,1.11,8.07-2.39,10.53-4.11,11.92-8.31,10.23-16.81,17.37-30.23,9.92-18.64,26.7-26.22,21.2-32.3-.86-.95-4-3.53-8.61-4.17,0,0-2.85-.39-5.99.29-16.58,3.6-27.92,30.37-27.92,30.37Z"/>
      </g>
      <g>
        <g>
          <ellipse class="cls-11" cx="992.95" cy="679.22" rx="33.54" ry="8.58"/>
          <path class="cls-11" d="m982.93,679.22h24.4c2.73,0,4.96-.87,4.96-1.93-17.42-34.23-22.66-62.99-22.09-78.18.53-13.92,3.46-25.34,3.46-25.34,1.52-5.92,3.98-13.37,4.97-16.35,1.4-4.24,2.65-7.75,3.55-10.22h5.15-24.4c-2.73,0-4.96.87-4.96,1.93,1.62,4.72,3.33,10.54,4.69,17.28,1.54,7.62,2.04,13.5,2.48,18.94.57,6.93.64,12.05.71,17.98.01,1.01.14,12.51-.35,22.21-1.08,21.26-5.58,42.94-7.53,51.74,0,.01,0,.02,4.96,1.93Z"/>
          <path class="cls-14" d="m949.65,479.36c11.04,10.33,16.56,15.49,16.86,18.94,1.42,16.18-54.66,25.14-53.06,36.65,1.26,9.01,37.07,13.95,63.53,14.17,34.29.28,79.06-7.16,80.38-18.94,1.59-14.14-60.26-27.31-56.43-41.28.25-.9,2.24-2.87,6.21-6.81,12.79-12.68,18.42-13.97,18.45-18.26.05-6.34-12.21-11.17-18.45-13.62-14.11-5.55-27.53-5.04-31.76-4.77-17.89,1.14-40.99,8.7-41.52,17.71-.22,3.75,3.64,4.84,15.79,16.21Z"/>
          <polyline class="cls-9" points="966.51 498.57 1000.93 489.17 1001.96 493.87"/>
          <path class="cls-23" d="m916.63,536.18c-.55,1.13,6.54,4.27,11.2,5.85,10.02,3.39,20.2,3.4,25.02,3.41,1.06,0,2.09-.02,4.26,0,6.55.05,11.4.35,13.45.46,5.15.29,20.37,1.15,20.45.67.13-.73-10.41-1.39-37.16-5.13-23.8-3.32-36.51-6.71-37.22-5.26Z"/>
          <ellipse class="cls-11" cx="1178.03" cy="681.13" rx="33.54" ry="8.58"/>
          <path class="cls-11" d="m1168.08,681.13h24.4c2.73,0,4.96-.87,4.96-1.93-17.42-34.23-22.66-62.99-22.09-78.18.53-13.92,3.46-25.34,3.46-25.34,1.52-5.92,3.98-13.37,4.97-16.35,1.4-4.24,2.65-7.75,3.55-10.22h5.15-24.4c-2.73,0-4.96.87-4.96,1.93,1.62,4.72,3.33,10.54,4.69,17.28,1.54,7.62,2.04,13.5,2.48,18.94.57,6.93.64,12.05.71,17.98.01,1.01.14,12.51-.35,22.21-1.08,21.26-5.58,42.94-7.53,51.74,0,.01,0,.02,4.96,1.93Z"/>
          <path class="cls-5" d="m1107.76,495.44s2.49,17.7-1.42,29.56c-.06.18-.3.9-.53,1.91-1.5,6.56.18,10.22.18,10.22.26.57.56,1.22,1.03,1.9.11.16.93,1.28,1.99,2.05,2.05,1.49,5.04,1.69,6.39,1.63,4.89-.21,8.27-4.73,9.58-6.54,10.92-15.06,4.97-40.26,4.97-40.26h0c-5.34-36.17,3.99-56.47-.18-57.02-5.74-.75-24.82,36.45-22,56.54Z"/>
          <path class="cls-17" d="m1109.35,536.13c.06,1.15,3.52,1.95,6.21,1.8,1.52-.09,4.34-.57,4.44-1.6.09-1.01-2.43-2.42-4.79-2.6-2.84-.22-5.92,1.3-5.86,2.4Z"/>
          <path class="cls-5" d="m1220.2,490.91c4.75,35.66,7.34,52.92,19.21,55.51.34.07,5.23,1.08,9.51-1,14.48-7.02,2.14-39.69-5.09-58.84-7.31-19.37-22.53-52.77-28.55-51.6-1.86.36-2.02,3.86,4.92,55.94Z"/>
          <path class="cls-17" d="m1249.08,540.35c-.49-1.36-4.9-1.59-8.06-.83-1.78.43-4.98,1.6-4.72,2.85.25,1.23,3.77,2.37,6.66,2.09,3.47-.34,6.6-2.8,6.13-4.11Z"/>
        </g>
        <path class="cls-5" d="m1180.33,506.95c-.19,9.88-2.49,16.74-6.39,28.41-6.44,19.26-13.15,39.32-21.83,39.51-13.73.31-25-49.3-28.21-67.92-4.61-26.69,2.85-15.61,5.15-59.6.09-1.77.31-6.14,3.55-7.36,6.54-2.45,21.29,9.5,29.46,18.53,17.27,19.12,18.44,40.01,18.28,48.43Z"/>
        <path class="cls-5" d="m1175.63,511.65c-8.3,34.71-11.45,42.9-3.55,49.52,8.81,7.38,25.29,7.74,28.04,7.77,4.7.05,16.77.16,24.31-5.18,8.63-6.11,3.83-14.06.18-52.11-2.32-24.21-2.4-42.08-5.15-48.84-.42-1.03-2.39-5.48-1.95-11.44.08-1.07.21-1.87.35-2.72,1.45-8.62,4.8-11.79,3.02-13.49-1.59-1.51-6.21-.89-9.23,0-10.7,3.16-14.94,13.76-16.86,18.8-14.4,37.78-19.16,57.7-19.16,57.7Z"/>
        <ellipse class="cls-17" cx="1155.4" cy="458.38" rx="8.76" ry="33.94" transform="translate(100.64 1116.06) rotate(-53.58)"/>
        <path class="cls-17" d="m1180.77,460.39c-6.38,16.94-12.4,36.51-6.34,38.71,2.94,1.07,7.78-2.3,10.15-3.96,11.49-8.01,9.86-16.2,16.75-29.14,9.57-17.97,25.74-25.27,20.44-31.14-.83-.92-3.85-3.41-8.3-4.02,0,0-2.75-.38-5.78.28-15.98,3.47-26.92,29.27-26.92,29.27Z"/>
      </g>
    </g>
    <path class="cls-8" d="m1188.1,557.48c.06,1.17-11.29,3.51-23.31,2.35-10.8-1.04-20.3-4.72-19.93-5.82.12-.35,1.27-.56,22.6,1.19,19.65,1.61,20.63,1.94,20.64,2.28Z"/>
    <path class="cls-4" d="m1148.06,491.62l1.3,13.37c-8.19,28.96-10.64,37.09-10.81,37.07-.21-.03,3.22-12.65,7.8-33.59.47-2.17.87-4.04,1.19-5.5"/>
  </g>
  <g>
    <path class="cls-28" d="m10.33,704.26c4.17-.64,12.58-1.47,22.36.9,7.04,1.71,12.08,4.42,15.07,6.32,1.53-1.76,3.9-3.97,7.45-5.84,9.79-5.17,20.81-3.76,23.61-3.34,1.18.68,3.02,1.55,5.44,1.91,5.27.78,9.7-1.41,11.65-2.15,4.54-1.71,12.61-1.96,28.11,5.01,2.84-1.78,6.39-3.65,10.72-5.25,13.68-5.05,26.81-4.33,33.39-3.58-6.01-16.38-12.01-32.75-18.02-49.13,4.56-13.12,9.11-26.23,13.67-39.35,2.43-13.01,2.83-31.47-8.23-50.08-1.45-2.45-3.02-4.75-4.66-6.92,5.74-6.77,12.02-15.33,17.55-25.64,5.15-9.62,8.43-18.48,10.56-26,.1-1.09.15-2.2.16-3.34.05-10.5-4.02-19.5-8.7-26.47-.45-.85-.86-1.73-1.24-2.62-5.55-13.13-1.21-26.12,3.88-35.42-6.28-5.28-14.98-11.05-22.68-9.42-1.5.32-1.45.6-4.06,1.57-7.71,2.88-19.73,4.75-26.84.34-.77-.48-1.97-1.33-3.11-2.74-1.67,1.91-3.5,2.96-4.97,3.58-7.2,3.01-18.08.62-27.29-5.92-.7-.21-6.18-1.74-11.54.67-6.33,2.86-6.52,8.53-6.52,8.82-4.36-3.13-13.8-8.9-27.02-9.66-2.68-.15-5.18-.08-7.45.12-2.8.54-5.95,1.3-9.32,2.38-4.85,1.56-8.83,3.36-11.96,5.01"/>
    <path class="cls-3" d="m36.3,386.7v13.14c-1.57.28-3.75.81-6.05,1.9-1.51.71-2.69,1.48-3.57,2.15-.74.65-2.42,2.28-2.95,4.77-.57,2.64.48,4.71.93,5.49.81.81,1.87,1.72,3.26,2.62,2.45,1.59,4.91,2.48,6.68,2.98.99.14,2.52.26,4.35,0,2.39-.34,4.09-1.17,4.97-1.67"/>
    <path class="cls-3" d="m145.6,391.3v13.14c-1.57.28-3.75.81-6.05,1.9-1.51.71-2.69,1.48-3.57,2.15-.74.65-2.42,2.28-2.95,4.77-.57,2.64.48,4.71.93,5.49.81.81,1.87,1.72,3.26,2.62,2.45,1.59,4.91,2.48,6.68,2.98.99.14,2.52.26,4.35,0,2.39-.34,4.09-1.17,4.97-1.67"/>
    <path class="cls-3" d="m88.5,388.81v13.14c-1.57.28-3.75.81-6.05,1.9-1.51.71-2.69,1.48-3.57,2.15-.74.65-2.42,2.28-2.95,4.77-.57,2.64.48,4.71.93,5.49.81.81,1.87,1.72,3.26,2.62,2.45,1.59,4.91,2.48,6.68,2.98.99.14,2.52.26,4.35,0,2.39-.34,4.09-1.17,4.97-1.67"/>
    <polygon class="cls-29" points="217.44 358.34 232.99 683.1 198.41 701.85 198.41 683.1 189.48 392.8 217.44 358.34"/>
    <polyline class="cls-29" points="10.33 386.69 189.48 392.8 217.44 358.34 10.33 351.45"/>
  </g>
  <g id="gameoverkarakter">
    <g>
      <g>
        <polyline class="cls-8" points="629.56 470.33 678.38 493.75 713.63 482.04 714.12 448.24"/>
        <g>
          <g>
            <g>
              <path class="cls-24" d="m629.56,470.33c2.56-2.88,5.17-5.78,7.85-8.7,2.91-3.18,5.82-6.3,8.72-9.37,2.16-2.02,5.02-4.36,8.72-6.69,3.78-2.38,7.41-4.11,10.46-5.35,2.75-1.33,5.94-2.71,9.59-4.02,3.09-1.1,6.03-1.98,8.72-2.68,2.03-.22,4.07-.45,6.1-.67h4.21l2.77.67c1.45.45,2.91.89,4.36,1.34h0c1.16.45,2.32.89,3.49,1.34l3.49,2.68-4.36,2.68-74.1,28.78Z"/>
              <g class="cls-1">
                <rect class="cls-8" x="628.25" y="432.51" width="1.31" height="38.7"/>
                <rect class="cls-8" x="629.56" y="432.51" width="78.46" height="38.7"/>
                <rect class="cls-8" x="708.02" y="432.51" width=".65" height="38.7"/>
              </g>
            </g>
            <path class="cls-8" d="m629.56,470.33c2.56-2.88,5.17-5.78,7.85-8.7,2.91-3.18,5.82-6.3,8.72-9.37,2.16-2.02,5.02-4.36,8.72-6.69,3.78-2.38,7.41-4.11,10.46-5.35,2.75-1.33,5.94-2.71,9.59-4.02,3.09-1.1,6.03-1.98,8.72-2.68,2.03-.22,4.07-.45,6.1-.67h4.21l2.77.67c1.45.45,2.91.89,4.36,1.34h0c1.16.45,2.32.89,3.49,1.34l3.49,2.68-4.36,2.68-74.1,28.78Z"/>
          </g>
          <polygon class="cls-8" points="629.56 470.33 708.02 438.87 749.86 414.1 714.12 448.24 629.56 470.33"/>
          <polygon class="cls-8" points="698.42 451.67 671.15 459.39 629.56 470.33 678.38 493.75 713.63 482.04 714.12 448.24 698.42 451.67"/>
          <polygon class="cls-8" points="678.38 493.75 689.71 489.99 684.05 507.81 678.38 493.75"/>
          <polyline class="cls-8" points="689.71 489.99 710.66 507.81 702.2 485.84"/>
          <polyline class="cls-8" points="702.64 485.88 724.58 495.09 713.63 480.7"/>
          <polygon class="cls-8" points="478.75 426.15 523.26 459.32 601.67 460.29 524.95 452.92 478.75 426.15"/>
          <g>
            <g>
              <path class="cls-24" d="m601.67,460.29c.26-2.58.24-6.06-.87-10.04-1.75-6.25-5.37-10.78-7.85-13.39-2.47-1.64-5.93-3.63-10.46-5.35-5.04-1.92-9.66-2.86-13.08-3.35-3.34.39-7.17,1-11.33,2.01-3.39.82-6.41,1.75-9.02,2.68-3.05,1.24-6.59,2.96-10.16,5.35-7.7,5.17-11.81,10.97-13.95,14.72l76.71,7.36Z"/>
              <g class="cls-25">
                <rect class="cls-8" x="524.32" y="427.82" width=".63" height="32.84"/>
                <rect class="cls-8" x="524.95" y="427.82" width="76.85" height="32.84"/>
                <rect class="cls-8" x="601.8" y="427.82" width=".44" height="32.84"/>
              </g>
            </g>
            <path class="cls-8" d="m601.67,460.29c.26-2.58.24-6.06-.87-10.04-1.75-6.25-5.37-10.78-7.85-13.39-2.47-1.64-5.93-3.63-10.46-5.35-5.04-1.92-9.66-2.86-13.08-3.35-3.34.39-7.17,1-11.33,2.01-3.39.82-6.41,1.75-9.02,2.68-3.05,1.24-6.59,2.96-10.16,5.35-7.7,5.17-11.81,10.97-13.95,14.72l76.71,7.36Z"/>
          </g>
          <polygon class="cls-8" points="523.26 459.32 601.67 460.29 567.67 488.4 523.26 459.32"/>
          <polygon class="cls-8" points="546.23 458.3 575.32 458.95 565.05 466.98 546.23 458.3"/>
          <polygon class="cls-8" points="536.29 468.66 542.52 472.46 531.49 480.7 536.29 468.66"/>
          <polygon class="cls-8" points="546.34 474.27 542.42 471.93 539.34 486.06 546.34 474.27"/>
          <polygon class="cls-8" points="545.44 473.86 545.44 490.07 551.9 477.55 545.44 473.86"/>
          <line class="cls-8" x1="577.93" y1="501.57" x2="595.47" y2="496.82"/>
          <line class="cls-8" x1="647.67" y1="493.75" x2="662.99" y2="501.57"/>
          <polygon class="cls-8" points="659.2 411.43 676.64 408.08 694.86 409.75 659.2 411.43"/>
          <path class="cls-8" d="m535.41,424.14l16.92-12.72,37.94,2.68c-6.85-.97-20.36-2.12-35.68,2.01-8.41,2.27-14.81,5.43-19.18,8.03Z"/>
          <polyline class="cls-8" points="631.5 424.48 604.96 512.16 618.23 505.19 618.23 512.16"/>
          <polygon class="cls-8" points="501.65 443.22 520.45 473.86 523.26 510.38 545.46 553.74 598.98 600.05 620.77 600.05 692.33 530.56 712.42 489.99 721.97 456.94 721.97 440.75 705.4 423.47 698.42 406.71 667.92 381.98 608.64 362.57 553.72 389.34 520.59 428.83 504.27 428.16 501.65 443.22"/>
          <polygon class="cls-8" points="576.38 566.04 604.28 535.92 619.1 536.59 626.27 535.92 658.33 561.35 626.27 556.11 619.97 554.66 608.64 555.33 602.54 554.66 576.38 566.04"/>
          <polyline class="cls-8" points="607.47 549.05 614.8 550.98 622.9 549.05"/>
          <polygon class="cls-8" points="583.84 562.79 600.89 555.38 602.54 554.66 608.64 555.33 619.97 554.66 645.44 559.25 615.18 578.92 583.84 562.79"/>
          <path class="cls-8" d="m614.8,529.37l5.34,2.93c1.81-.98,3.62-1.96,5.43-2.93-.71.39-2.39,1.21-4.78,1.33-3.11.16-5.33-.97-5.98-1.32"/>
          <polyline class="cls-8" points="498.22 440.66 491.05 463.98 504.08 480.7 509.26 505.8 515.85 510.38 523.26 510.38 556.33 526.55"/>
          <polygon class="cls-8" points="509.26 505.8 516.23 679.82 552.33 684.38 586.7 674.7 591.2 650.37 582.66 585.92 545.46 553.74 523.26 510.38 515.85 510.38 509.26 505.8"/>
          <line class="cls-8" x1="535.32" y1="533.93" x2="531.49" y2="596.59"/>
          <line class="cls-8" x1="548.85" y1="556.67" x2="549.1" y2="628.22"/>
          <polygon class="cls-8" points="712.42 489.99 721.97 631.45 736.79 693.21 684.79 672.11 668.79 664.05 660.07 655.06 655.33 645.32 635.08 586.15 692.33 530.56 712.42 489.99"/>
          <line class="cls-8" x1="686.81" y1="535.92" x2="689.71" y2="633.06"/>
          <line class="cls-8" x1="658.33" y1="617.57" x2="671.84" y2="641.45"/>
          <polygon class="cls-8" points="504.27 428.16 520.59 428.83 553.72 389.34 608.64 362.57 667.92 381.98 698.42 406.71 705.4 423.47 714.39 432.84 715.47 433.97 726.33 427.49 726.33 425.48 710.64 407.41 706.28 401.39 691.46 383.99 681 370.6 637.41 354.54 609.51 345.17 599.92 344.5 566.8 354.54 547.62 364.58 530.18 379.3 517.98 398.71 504.27 428.16"/>
          <path class="cls-4" d="m504.73,426.79l15.87,2.03,33.13-39.49,54.92-26.77.02-1.03c.28-5.46.57-10.91.85-16.37"/>
          <polyline class="cls-8" points="635.66 357.21 609.26 350.12 589.11 357.21"/>
          <polyline class="cls-8" points="621.72 355.87 609.26 353.67 603.53 355.87"/>
          <line class="cls-8" x1="608.91" y1="357.21" x2="640.89" y2="363.91"/>
        </g>
        <polygon class="cls-8" points="671.15 458.06 682.74 463.63 695.21 451.84 671.15 458.06"/>
      </g>
      <g>
        <g>
          <g class="cls-27">
            <rect class="cls-14" x="628.7" y="431.15" width="1.31" height="38.7"/>
            <rect class="cls-14" x="630.02" y="431.15" width="78.46" height="38.7"/>
            <rect class="cls-14" x="708.47" y="431.15" width=".65" height="38.7"/>
          </g>
          <path class="cls-2" d="m630.02,468.96c2.56-2.88,5.17-5.78,7.85-8.7,2.91-3.18,5.82-6.3,8.72-9.37,2.16-2.02,5.02-4.36,8.72-6.69,3.78-2.38,7.41-4.11,10.46-5.35,2.75-1.33,5.94-2.71,9.59-4.02,3.09-1.1,6.03-1.98,8.72-2.68,2.03-.22,4.07-.45,6.1-.67h4.21l2.77.67c1.45.45,2.91.89,4.36,1.34h0c1.16.45,2.32.89,3.49,1.34l3.49,2.68-4.36,2.68-74.1,28.78Z"/>
        </g>
        <polygon class="cls-4" points="630.02 468.96 708.47 437.5 750.32 412.74 714.58 446.87 630.02 468.96"/>
        <polygon class="cls-18" points="698.88 450.31 630.02 468.96 678.83 492.39 714.08 480.67 714.58 446.87 698.88 450.31"/>
        <polygon class="cls-4" points="678.83 492.39 690.17 488.62 684.5 506.44 678.83 492.39"/>
        <polyline class="cls-4" points="690.17 488.62 711.11 506.44 702.66 484.47"/>
        <polyline class="cls-4" points="703.1 484.52 725.04 493.73 714.08 479.34"/>
        <polygon class="cls-4" points="479.2 424.79 523.71 457.96 602.12 458.92 525.41 451.56 479.2 424.79"/>
        <g>
          <g class="cls-26">
            <rect class="cls-14" x="524.77" y="426.46" width=".63" height="32.84"/>
            <rect class="cls-14" x="525.41" y="426.46" width="76.85" height="32.84"/>
            <rect class="cls-14" x="602.26" y="426.46" width=".44" height="32.84"/>
          </g>
          <path class="cls-2" d="m602.12,458.92c.26-2.58.24-6.06-.87-10.04-1.75-6.25-5.37-10.78-7.85-13.39-2.47-1.64-5.93-3.63-10.46-5.35-5.04-1.92-9.66-2.86-13.08-3.35-3.34.39-7.17,1-11.33,2.01-3.39.82-6.41,1.75-9.02,2.68-3.05,1.24-6.59,2.96-10.16,5.35-7.7,5.17-11.81,10.97-13.95,14.72l76.71,7.36Z"/>
        </g>
        <polygon class="cls-18" points="523.71 457.96 602.12 458.92 568.12 487.03 523.71 457.96"/>
        <polygon class="cls-4" points="546.69 456.94 575.77 457.58 565.51 465.61 546.69 456.94"/>
        <polygon class="cls-4" points="536.75 467.3 542.97 471.1 531.94 479.34 536.75 467.3"/>
        <polygon class="cls-4" points="546.79 472.9 542.87 470.57 539.79 484.69 546.79 472.9"/>
        <polygon class="cls-4" points="545.89 472.5 545.89 488.71 552.35 476.19 545.89 472.5"/>
        <line class="cls-2" x1="578.38" y1="500.21" x2="595.93" y2="495.46"/>
        <polyline class="cls-4" points="635.53 483.61 648.13 492.39 663.45 500.21"/>
        <polygon class="cls-4" points="659.66 410.06 677.09 406.72 695.32 408.39 659.66 410.06"/>
        <path class="cls-4" d="m535.87,422.78l16.92-12.72,37.94,2.68c-6.85-.97-20.36-2.12-35.68,2.01-8.41,2.27-14.81,5.43-19.18,8.03Z"/>
        <polyline class="cls-4" points="631.95 423.11 605.42 510.79 618.68 503.82 618.68 510.79"/>
        <polygon class="cls-2" points="502.1 441.85 520.91 472.5 523.71 509.01 545.92 552.38 599.44 598.68 621.22 598.68 692.78 529.2 712.87 488.62 722.42 455.58 722.42 439.38 705.86 422.11 698.88 405.34 668.37 380.61 609.09 361.2 554.17 387.97 521.05 427.46 504.73 426.79 502.1 441.85"/>
        <polygon class="cls-10" points="576.84 564.67 604.74 534.55 619.55 535.22 626.72 534.55 658.78 559.99 626.72 554.75 620.43 553.29 609.09 553.96 602.99 553.29 576.84 564.67"/>
        <polyline class="cls-10" points="607.92 547.69 615.25 549.61 623.35 547.69"/>
        <polygon class="cls-10" points="584.3 561.43 601.34 554.01 602.99 553.29 609.09 553.96 620.43 553.29 645.89 557.88 615.64 577.56 584.3 561.43"/>
        <path class="cls-2" d="m615.25,528.01c.65.36,2.88,1.48,5.98,1.32,2.39-.12,4.08-.94,4.78-1.33-1.81.98-3.62,1.96-5.43,2.93"/>
        <polyline class="cls-2" points="498.67 439.3 491.5 462.61 504.54 479.34 509.71 504.44 516.31 509.01 523.71 509.01 556.79 525.18"/>
        <polygon class="cls-16" points="509.71 504.44 516.69 678.46 552.79 683.01 587.16 673.33 591.66 649.01 583.11 584.56 545.92 552.38 523.71 509.01 516.31 509.01 509.71 504.44"/>
        <line class="cls-16" x1="535.77" y1="532.57" x2="531.94" y2="595.22"/>
        <line class="cls-2" x1="549.3" y1="555.31" x2="549.56" y2="626.85"/>
        <polygon class="cls-16" points="712.87 488.62 722.42 630.08 737.24 691.84 685.24 670.75 669.24 662.68 660.53 653.69 655.79 643.96 635.53 584.79 692.78 529.2 712.87 488.62"/>
        <line class="cls-16" x1="687.27" y1="534.55" x2="690.17" y2="631.69"/>
        <line class="cls-16" x1="658.78" y1="616.2" x2="672.3" y2="640.09"/>
        <path class="cls-16" d="m504.73,426.79l16.32.67c11.19-13.05,22.38-26.1,33.56-39.15,18.02-9.15,36.03-18.29,54.05-27.44,19.9,6.58,39.81,13.16,59.72,19.74l30.51,24.73,6.98,16.77,8.99,9.37,1.08,1.13,10.86-6.48v-2.01l-15.69-18.07-4.36-6.02-14.82-17.4-10.46-13.39-43.59-16.06-27.9-9.37-9.59-.67-33.13,10.04-19.18,10.04-17.44,14.72-12.2,19.41-13.7,29.45Z"/>
        <polyline class="cls-2" points="636.12 355.85 609.72 348.76 589.56 355.85"/>
        <polyline class="cls-2" points="622.17 354.51 609.72 352.3 603.99 354.51"/>
        <line class="cls-2" x1="609.36" y1="355.85" x2="641.35" y2="362.54"/>
        <path class="cls-4" d="m609.09,361.2c.91-7.11,1.41-12.36,1.31-13.72-.01-.16-.02-.31-.02-.31-.11-1.34-.27-2.48-.41-3.37l-4.11-.29c1.06,2.11,2.14,4.8,2.8,7.98.79,3.82.73,7.16.44,9.71Z"/>
        <path class="cls-4" d="m609.54,349.45l19.08,3.95-19.08-3.95Z"/>
        <line class="cls-4" x1="608.61" y1="348.78" x2="597.33" y2="355.51"/>
        <line class="cls-4" x1="609.72" y1="352.3" x2="633.94" y2="358.19"/>
        <path class="cls-4" d="m545.92,552.38l-3.4,129.34c-.1-25.11.66-51.33,2.5-78.56,1.11-16.37,2.55-32.32,4.28-47.85"/>
        <path class="cls-4" d="m568,571.49l7.31,76.83-7.31-76.83Z"/>
        <polyline class="cls-4" points="665.09 556.09 671.76 549.61 678.83 631.69"/>
      </g>
      <polygon class="cls-4" points="675.09 456.02 686.68 461.6 699.15 449.81 675.09 456.02"/>
      <path class="cls-4" d="m585.17,561.43l18.7-8.13c3.92.33,7.85.67,11.77,1,2.86-.76,5.73-1.52,8.59-2.28,18.49,4.72,22.56,5.81,22.54,5.86-.06.14-9.42-2.7-21.54-3.58-9.06-.66-16.65-.02-21.79.67"/>
      <path class="cls-4" d="m576.51,489.65c14.94-11.16,15.97-10.34,15.97-10.34l-1.04-.82"/>
      <path class="cls-4" d="m612.57,532.46c1.31.36,2.63.72,3.94,1.09.9-.45,1.79-.89,2.69-1.34l-2.97,2.03-3.66-1.78Z"/>
      <polygon class="cls-8" points="582.66 585.92 598.98 600.05 620.77 600.05 635.08 586.15 655.79 643.96 660.07 655.06 671.84 665.58 587.16 673.33 591.2 650.37 582.66 585.92"/>
      <path class="cls-4" d="m599.07,599.14c13.54,3.16,19.44.74,21.79-.67,1.32-.79,3.78-2.98,8.72-7.36,3.35-2.98,5.46-4.98,5.5-4.96.04.03-2.47,2.51-14.31,13.89-3.15.25-6.62.42-10.37.43-4.16.02-7.98-.16-11.42-.43l-16.32-14.12c5.59,38.85,7.05,49.29,7,49.3-.06,0-2.74-15.7-4.54-36.08-.4-4.53-.68-8.41-.87-11.38"/>
      <path class="cls-4" d="m519.35,488.93l29.14,29.92c-9.58-10.27-19.17-20.54-28.75-30.81"/>
      <polyline class="cls-4" points="517.78 470 522.35 509.01 516.25 469.3"/>
      <polyline class="cls-4" points="498.68 443.22 491.05 463.98 498.22 440.66 517.86 469.63"/>
      <path class="cls-4" d="m491.05,463.98l13.03,16.72c-4.37-5.81-8.74-11.62-13.11-17.43"/>
      <polyline class="cls-4" points="504.08 480.7 509.71 504.44 509.26 505.8"/>
      <path class="cls-4" d="m608.64,362.57c0-.12.01-.24.02-.36.02-.46.02-.91,0-1.34,19.9,6.58,39.81,13.16,59.72,19.74"/>
      <path class="cls-4" d="m721.97,440.75v16.19c-4.35,15.63-6.59,23.44-6.74,23.41-.15-.02,1.81-7.95,5.89-23.77"/>
    </g>
    <polyline class="cls-4" points="635.95 586.82 650.03 626.12 655.8 642.12 660.05 651.6 661.4 654.36"/>
  </g>
  <path class="cls-4" d="m14.99,93.36q-5.75-.25-5.75-4.94c0-28.41.05-56.81-.08-85.22-.01-2.6.77-3.23,4.16-3.23C225.91.04,438.51-.19,651.1.1c205.95.28,411.9.03,617.85.19q5.59,0,5.59,4.49c0,23.9-.12,47.8.13,71.7.04,3.58-1.27,5.12-5.74,5.1-.86.45-1.74.86-2.75,1.05-15.3,2.24-30.74,3.47-46.29,4.12-5.53.23-11.05.48-16.6.57-13.81.21-27.57-.48-41.3-1.36-3.21-.21-4.94.69-6.48,2.74-4.55,6.08-9.26,12.08-13.97,18.08-1.18,1.5-2.24,3.23-5.2,2.59,0,.61.39.93.61,1.3,3.01,5.05.32,9.23-6.86,9.79-13.46,1.06-25.46-1.79-35.48-9-2.97-2.14-5.22-4.71-3.89-8.08,1.3-3.3,5.13-4.03,8.86-4.77.64-.13,1.31-.04,1.95-.23-4.3-1.05-4.74-1.86-2.46-4.78,3.01-3.86,6.09-7.68,9.13-11.52,2.05-2.59,2.02-2.66-1.84-3.4-18.54-3.6-36.66-8.18-54.33-13.82-38.34-12.25-73.25-28.86-105.07-49.43-4.05-2.62-8.06-5.27-11.9-8.07-1.89-1.38-2.87-1.5-4.04.51-10.28,17.62-24.74,32.93-43,46.06-10.86,7.81-22.82,14.46-36.2,19.5-4.99,1.88-4.87,1.89-2.72,5.85,1.84,3.39,3.98,6.66,6.09,9.94.73,1.13,1.54,2.23,2.01,3.43.86,2.2,1.11,4.39,4.82,5.44,2.45.69,2.97,3.1,1.94,5.24-.98,2.02-2.65,3.68-4.83,4.96-6.3,3.72-13.38,5.94-21.36,6.04-8.22.1-10.75-1.82-10.87-8.21-4.33,1.29-6.12-.76-7.59-3.39-2.74-4.91-5.91-9.66-8.84-14.5-1.47-2.42-3.28-3.21-6.67-2.68-7.84,1.23-15.87,1.67-23.79,1.62-12.29-.07-24.56-1.06-36.58-3.34-27.1-5.13-51.52-14.53-73.64-27.63-2.69-1.59-5.36-3.22-7.79-5.03-2.3-1.71-3.89-1.45-6.16.1-15.6,10.67-32.78,19.58-51.43,26.72-24.14,9.25-49.63,15.06-76.52,16.69-8.71.53-17.49,1.64-26.28.25-3.08-.49-5.06.71-6.6,2.74-4.68,6.14-9.4,12.26-14.21,18.33-1.07,1.35-2.1,2.84-4.8,1.99-.35.6.38.87.62,1.24,3.13,4.82.38,9.42-6.55,9.99-13.44,1.11-25.47-1.72-35.53-8.87-3.18-2.26-5.66-4.99-3.98-8.61,1.33-2.87,5.87-4.46,11.42-4.31-5.14-1.24-5.56-1.94-2.87-5.44,2.77-3.6,5.63-7.16,8.48-10.73,2.38-2.97,2.3-3.27-1.89-4.37-24.12-6.33-45.81-16.04-65.57-28.39-21.03-13.14-38.8-28.55-53.27-46.23-2.29-2.8-2.77-2.91-6.26-.88-25.29,14.7-52.14,27.47-80.24,38.62-11.43,4.54-23.18,8.6-35.06,12.42-4.32,1.39-4.38,1.51-2.19,4.73,4.61,6.77,9.22,13.53,13.54,20.42,1.34,2.13,1.62,3.84-2.04,4.56-.2.19-.09.28.3.3,10.34.51,12.85,8.08,6.39,13.38-9.21,7.55-20.87,11.28-34.38,10.09-9.26-.81-11.85-6.42-6.41-12.62-.1-.09-.27,0-.59.09-10.17,3.24-8.99,3.39-14.42-3.55-4.91-6.28-9.67-12.62-14.43-18.96-1.77-2.36-3.72-2.8-6.98-2.07-27.37,6.1-55.28,10.19-83.54,12.74-14.76,1.33-29.6,2.02-44.47,2.31-.41-.1-.77-.26-1.07-.5Z"/>
  <path class="cls-12" d="m455.1,86.56c-38.45-8.87-70.49-25.6-97.79-48.06-11.33-9.32-21.46-19.41-29.85-30.47-1.69-2.22-2.77-2.36-5.42-.81-38.98,22.93-81.09,41.6-126.68,55.48-.69,1-1.93,1.42-3.19,1.82-11.9,3.75-24.19,6.63-36.36,9.77-1.16.3-2.35.5-3.58.21-11.92,2.24-23.66,5-35.66,7.03-19.79,3.35-39.72,5.87-59.86,7.58-13.44,1.14-26.93,1.55-40.39,2.34-3.65.22-4.79-.54-4.78-3.52.15-27.57.16-55.14,0-82.71-.02-3.09,1.1-3.76,4.95-3.76,107.73.08,215.46.07,323.19.07,195.29,0,390.58,0,585.88,0h5.61c-18.78,32.63-46.66,57.71-88.63,72.51-.68.65-1.41,1.25-2.44,1.58-8.22,2.61-16.67,4.66-25.24,6.44-1.05.22-2.13.21-3.18-.08-10.39,1.3-20.8,2.56-31.36,2.52-34.23-.15-65.24-8.42-93.93-22.48-8.81-4.32-17.15-9.16-24.79-14.66-2-1.44-3.23-1.61-5.47,0-23.7,17.07-51.09,29.36-81.74,37.3-16.18,4.19-32.81,6.6-49.87,7.63-10.71.65-21.33.07-31.98-.12-2.36.91-4.81.31-7.11,0-8.48-1.14-17.01-2.08-25.37-3.72-1.81-.36-3.72-.61-4.96-1.88Z"/>
  <path class="cls-12" d="m1115.24,77.75c-49.13-8.48-94.34-23.94-135.81-45.96-16.8-8.92-32.76-18.67-47.62-29.76,1.7-.76,3.06-.46,4.35-.46,110.02-.02,220.04,0,330.06-.09,4.12,0,5.12.78,5.09,3.95-.19,23.58-.13,47.17-.06,70.75,0,2.16-.38,3.23-3.7,3.66-14.92,1.93-29.88,3.45-44.99,4.16-5.94.28-11.87.52-17.81.61-20.15.31-40.18-.74-60.17-2.59-8.98.31-17.53-1.71-26.23-2.92-1.21-.17-2.35-.5-3.1-1.33Z"/>
  <path class="cls-6" d="m152.23,74.51c11.12-2.97,22.25-5.92,33.35-8.92,3.29-.89,6.52-1.92,9.77-2.88,1.21.67,2.19,1.44,2.89,2.51,4.74,7.26,9.51,14.52,14.43,21.72,1.31,1.92,1.11,2.93-1.61,3.78-11.97,3.74-23.91,7.52-35.79,11.42-2.34.77-3.56.59-4.88-1.15-5.95-7.8-12.05-15.53-18.13-23.27-.86-1.1-1-2.13-.03-3.2Z"/>
  <path class="cls-6" d="m1116.14,77.75c9.78,1.42,19.55,2.83,29.33,4.25-.13.02-.29.02-.39.08-.17.11-.31.25-.46.38,2.59.36,5.18.71,7.77,1.08,2.04.29,2.63.85,1.34,2.47-4.94,6.21-9.76,12.48-14.45,18.82-1.22,1.65-2.42,1.88-4.56,1.21-10.36-3.22-20.77-6.36-31.16-9.52-1.23-.37-2.42-.77-1.38-2,4.72-5.55,8.62-11.52,13.94-16.78Z"/>
  <path class="cls-6" d="m455.1,86.56c12.31,2.56,24.9,3.97,37.43,5.61,1.17.61,2.41.93,1.15,2.49-4.93,6.1-9.65,12.3-14.35,18.5-1.35,1.79-2.77,2.44-5.49,1.57-9.83-3.15-19.69-6.26-29.65-9.14-3.13-.9-2.86-1.82-1.41-3.6,4.18-5.11,8.22-10.29,12.32-15.44Z"/>
  <path class="cls-6" d="m811.66,81.99c10.44-2.3,20.82-4.73,30.87-7.94,3.61,6.18,7.09,12.4,10.9,18.5,1.21,1.93.78,2.59-1.7,3.29-8.09,2.28-16.15,4.65-24.12,7.16-2.79.88-4.03.71-5.3-1.68-3.03-5.69-7.31-10.95-10.27-16.69-.45-.88-1.14-1.68-.37-2.64Z"/>
  <path class="cls-13" d="m838.04,111.77c-1.71-.1-2.8-.08-3.86-.23-4.21-.59-5.5-2.95-2.57-5.37,6.76-5.59,15.25-8.12,25.1-7.23,4.86.44,5.81,2.85,2.41,5.63-5.86,4.8-13.39,6.74-21.08,7.19Z"/>
  <path class="cls-21" d="m191.68,113.67c-3.91-.29-8.66.32-10.45-3.3-1.67-3.37,1.66-5.73,4.56-7.74,6.97-4.83,15.33-7.25,24.57-7.93,2.45-.18,4.86.1,7.18.72,3.87,1.03,5.12,3.29,3.41,6.2-1.2,2.04-3.19,3.63-5.43,5-6.98,4.25-14.89,6.62-23.84,7.06Z"/>
  <path class="cls-19" d="m1104.09,102.93c10.23.76,19.72,3.04,27.48,8.63,2.19,1.58,4.43,3.4,3.27,5.96-1.05,2.31-4.14,2.65-6.76,2.75-12.26.49-23.12-2.43-31.87-9.13-4.86-3.72-3.35-6.76,3.36-7.86,1.44-.24,2.94-.24,4.51-.36Z"/>
  <path class="cls-19" d="m443.42,109.74c10.64.61,20.39,2.95,28.3,8.82,2,1.49,3.84,3.23,2.89,5.51-.91,2.21-3.7,2.63-6.27,2.79-11.93.74-22.31-2.27-31.34-8.16-2.23-1.46-4.72-3.39-3.5-5.92,1.25-2.6,4.81-2.71,7.89-3.04.66-.07,1.35-.01,2.03-.01Z"/>
  <path class="cls-15" d="m206.7,97.8c1.08,0,2.18-.09,3.24.02,2.43.26,4.46,1.24,5.36,2.97.87,1.67-.65,2.97-2.06,4.14-5.11,4.24-11.61,5.95-18.89,6.01-2.92.02-5.87-.68-6.98-3.02-1.08-2.3.88-4.03,3.02-5.4,4.71-3.02,10.09-4.77,16.3-4.72Z"/>
  <path class="cls-15" d="m853.32,106.03c-3.96,3.31-8.48,5.76-14.71,5.19-2.71-.25-3.37-1.6-2.87-3.51,1.15-4.36,10.96-9.03,17.55-8.25,2.51.3,3.56,2.59,2.18,4.48-.56.77-1.43,1.4-2.16,2.09Z"/>
  <path class="cls-15" d="m449.78,112.22c5.92.51,11.66,1.41,16.34,4.63,3.71,2.56,3.12,5.59-1.44,7.1-6.84,2.27-19.55-.38-24.01-5-1.83-1.89-1.34-4.22,1.31-5.35,2.39-1.03,4.99-1.59,7.81-1.38Z"/>
  <path class="cls-15" d="m1119.96,118.07c-7.47-.37-14.28-1.87-18.59-7.12-1.88-2.28-.68-3.88,2.19-5.03,6.54-2.63,20.49,1.14,24.83,6.83,1.65,2.16-.44,4.82-3.99,5.29-1.44.19-2.96.03-4.44.03Z"/>
  <g id="gameoverscreen">
    <path id="gameover" class="cls-20" d="m345.26,310.28c0-4.15.04-8.3-.03-12.45-.02-.97.4-1.2,1.6-1.19,5.96.04,11.92.03,17.88,0,1.08,0,1.48.2,1.48,1.09-.04,8.27-.04,16.53,0,24.8,0,.96-.28,1.31-1.62,1.29-5.96-.05-11.92-.04-17.88,0-1.08,0-1.47-.2-1.46-1.09.06-4.15.03-8.3.03-12.45Z"/>
    <path id="gameover-2" data-name="gameover" class="cls-4" d="m493.05,265c0,5.92-.02,11.83.02,17.75,0,.87-.25,1.2-1.48,1.18-3.7-.06-7.41-.05-11.11,0-1.08.01-1.37-.27-1.36-1.07.04-4.58-.02-9.15.05-13.73.01-.96-.44-1.19-1.55-1.15-1.4.05-2.81.05-4.21.01-.92-.02-1.3.18-1.25.94.08,1.17-.01,2.35.02,3.53.02.63-.28.88-1.12.87-1.57-.03-3.15-.04-4.73,0-.86.02-1.11-.25-1.09-.87.04-1.18-.04-2.35.02-3.53.03-.67-.24-.95-1.14-.93-1.57.04-3.15.04-4.73,0-.94-.02-1.13.29-1.12.94.03,4.58.02,9.15.02,13.73,0,1.24,0,1.25-1.64,1.25-3.7,0-7.41-.03-11.11,0-.9,0-1.19-.21-1.19-.89.02-12,.01-23.99,0-35.99,0-.66.26-.94,1.17-.93,3.87.02,7.75.02,11.62,0,.91,0,1.19.29,1.16.95-.04,1.18.02,2.35-.03,3.53-.03.63.25.88,1.09.87,1.57-.03,3.15.03,4.72,0,.86-.02,1.22.19,1.19.9-.07,1.21,0,2.42-.03,3.63-.01.57.24.83,1.04.82,1.57-.03,3.15-.03,4.73,0,.88.02,1.22-.22,1.19-.91-.05-1.18.05-2.36-.03-3.53-.05-.76.32-.95,1.25-.92,1.53.06,3.07,0,4.6.02.89.02,1.19-.25,1.16-.93-.06-1.17.01-2.35-.03-3.53-.02-.61.21-.9,1.07-.89,3.92.02,7.83.03,11.75,0,1.11-.01,1.1.45,1.1,1.06-.01,5.95,0,11.9,0,17.85Z"/>
    <path id="gameover-3" data-name="gameover" class="cls-4" d="m499.96,310.26c0-5.95.02-11.9-.02-17.84,0-.79.27-1.09,1.36-1.09,13.07.02,26.14.02,39.21,0,.92,0,1.3.17,1.24.93-.08,1.17.02,2.35-.04,3.53-.03.69.3.91,1.19.89,1.62-.04,3.24,0,4.85-.02.66-.01.9.18.9.68-.01,5.07-.02,10.13,0,15.2,0,.7-.48.69-1.13.69-3.83-.01-7.66.02-11.49-.02-.93,0-1.31.17-1.26.92.07,1.21.04,2.42,0,3.63-.02.58.24.82,1.03.8,1.66-.03,3.32.01,4.98-.01.72-.01.97.2.95.75-.04,1.21.03,2.42-.03,3.63-.03.67.23.94,1.15.91,1.57-.05,3.15.02,4.72-.03.76-.02,1.08.12,1.06.74-.04,1.31-.03,2.61,0,3.92,0,.49-.2.7-.88.69-6.34-.01-12.69-.01-19.03,0-.77,0-.93-.29-.93-.79.02-1.18-.06-2.36.03-3.53.07-.86-.37-1.08-1.41-1.04-1.49.06-2.98-.03-4.47.01-.87.02-1.1-.26-1.08-.87.05-1.18,0-2.35.04-3.53.02-.64-.32-.88-1.13-.87-1.53.02-3.07.05-4.6-.02-1.13-.05-1.35.33-1.34,1.11.05,2.81-.02,5.62.05,8.43.02.88-.37,1.12-1.47,1.11-3.66-.04-7.32-.05-10.98,0-1.16.02-1.54-.24-1.53-1.16.05-5.91.03-11.83.03-17.74Z"/>
    <path id="gameover-4" data-name="gameover" class="cls-4" d="m436.9,270.7c0,4.18-.02,8.37.02,12.55,0,.77-.28,1.02-1.31,1.01-3.79-.04-7.58-.03-11.36,0-.94,0-1.26-.21-1.25-.95.04-2.88-.01-5.75.03-8.63,0-.72-.28-.97-1.23-.96-6.17.03-12.34.02-18.52,0-.9,0-1.18.24-1.17.92.04,2.84-.02,5.69.04,8.53.02.88-.38,1.11-1.48,1.1-3.75-.04-7.49-.03-11.24,0-.94,0-1.27-.22-1.27-.95.02-8.46.03-16.93,0-25.39,0-.69.36-.84,1.13-.83,1.45.02,2.9-.05,4.34.03,1.23.07,1.57-.3,1.49-1.18-.09-.98.04-1.96-.04-2.94-.08-.91.26-1.32,1.56-1.24,1.31.08,2.64-.02,3.95.04,1.14.05,1.64-.2,1.55-1.15-.1-1.11,0-2.22-.03-3.33-.02-.61.21-.89,1.08-.88,6.21.02,12.43.02,18.64,0,.88,0,1.21.22,1.18.91-.06,1.14.05,2.29-.04,3.43-.06.81.39,1.03,1.33,1.01,1.4-.03,2.81.03,4.21-.03,1.02-.05,1.48.16,1.41,1.02-.09,1.14.03,2.29-.03,3.43-.04.7.34.93,1.19.91,1.53-.03,3.07.03,4.6-.02.97-.03,1.22.25,1.21.96-.04,4.22-.02,8.43-.02,12.65h0Z"/>
    <path id="gameover-5" data-name="gameover" class="cls-4" d="m332.32,310.22c0-4.18.03-8.37-.02-12.55-.01-.83.32-1.08,1.37-1.03,1.36.07,2.73-.05,4.08.03,1.29.08,1.62-.31,1.54-1.23-.09-1.07.01-2.16-.04-3.23-.03-.61.19-.88,1.06-.88,10.9.02,21.8.01,32.69,0,.84,0,1.12.26,1.09.88-.05,1.18.02,2.35-.04,3.53-.04.7.3.93,1.18.91,1.53-.03,3.07.02,4.6,0,.88-.02,1.18.25,1.18.93-.02,8.43-.03,16.86,0,25.29,0,.77-.4.96-1.29.94-1.45-.03-2.9.05-4.34-.02-1.13-.05-1.38.3-1.33,1.08.07,1.11-.01,2.22.04,3.33.03.65-.19.95-1.13.95-10.9-.02-21.8-.02-32.69,0-.77,0-1.06-.17-1.03-.77.05-1.24-.01-2.48.03-3.72.02-.6-.15-.89-1.06-.85-1.53.06-3.07-.05-4.59.02-1.1.05-1.33-.27-1.32-1.06.05-4.18.02-8.37.02-12.55Z"/>
    <path id="gameover-6" data-name="gameover" class="cls-4" d="m444.36,310.18c0-5.92.02-11.83-.03-17.75,0-.88.35-1.1,1.45-1.1,15.28.02,30.57.02,45.85,0,1.11,0,1.51.23,1.44,1.11-.09,1.17-.08,2.35,0,3.53.06.84-.37,1.05-1.41,1.04-10.6-.02-21.2,0-31.8-.03-1.19,0-1.63.2-1.6,1.18.08,2.78.07,5.56,0,8.33-.02.88.36,1.1,1.45,1.1,8.17-.03,16.35-.02,24.52-.02q1.9,0,1.89,1.43c0,.95-.07,1.9.02,2.84.07.82-.31,1.08-1.37,1.07-4.64-.03-9.28-.01-13.92-.01-3.58,0-7.15,0-10.73,0-1.84,0-1.84,0-1.85,1.36,0,2.75.03,5.49-.02,8.24-.01.79.25,1.07,1.35,1.07,10.6-.03,21.2,0,31.8-.04,1.27,0,1.75.23,1.65,1.25-.12,1.17-.04,2.35,0,3.53.02.61-.23.86-1.09.86-15.5-.02-30.99-.03-46.49,0-1.1,0-1.12-.41-1.12-1.03.01-5.98,0-11.96,0-17.94h-.01Z"/>
    <path id="gameover-7" data-name="gameover" class="cls-4" d="m499.97,264.99c0-5.95.02-11.9-.02-17.84,0-.85.38-1.05,1.4-1.05,15.41.02,30.82.02,46.23,0,.86,0,1.11.22,1.08.84-.05,1.11,0,2.22-.02,3.33-.02,1.67.26,1.48-1.88,1.48-9.28,0-18.56,0-27.84,0-1.19,0-2.39.05-3.57,0-1.08-.05-1.51.2-1.49,1.09.07,2.78.07,5.56,0,8.33-.02.93.34,1.23,1.59,1.22,8.17-.04,16.35-.03,24.52-.03,1.75,0,1.75,0,1.75,1.31,0,1.05-.05,2.09.02,3.14.05.7-.28.9-1.16.89-5.11-.02-10.22-.01-15.33-.01-3.32,0-6.64.03-9.96-.02-1.16-.02-1.46.3-1.44,1.14.06,2.81.06,5.62,0,8.43-.02.84.29,1.13,1.44,1.13,10.6-.03,21.2,0,31.8-.04,1.23,0,1.66.22,1.56,1.18-.11,1.01-.02,2.02-.02,3.04q0,1.39-1.75,1.39c-9.07,0-18.13,0-27.2,0-6.04,0-12.09,0-18.13,0q-1.6,0-1.6-1.27c0-5.88,0-11.77,0-17.65Z"/>
    <path id="gameover-8" data-name="gameover" class="cls-4" d="m363.49,283.91c-5.36,0-10.73-.01-16.09.02-.94,0-1.29-.19-1.24-.93.07-1.21,0-2.42.03-3.63.01-.55-.25-.75-.97-.73-1.62.03-3.24-.01-4.85.02-.83.02-1.13-.22-1.11-.86.05-1.18-.04-2.35.02-3.53.04-.72-.24-.99-1.22-.96-1.57.05-3.15-.01-4.72.02-.78.02-1.03-.2-1.02-.79.02-5,.02-10,0-15,0-.62.29-.78,1.05-.76,1.57.04,3.15-.01,4.72.03.87.02,1.23-.18,1.19-.88-.06-1.17.04-2.35-.04-3.53-.05-.76.33-.96,1.26-.93,1.53.05,3.07,0,4.6.03.85.02,1.12-.23,1.1-.86-.04-1.18.05-2.36-.03-3.53-.06-.78.27-1.01,1.27-1,8.13.02,16.26,0,24.39,0,2.64,0,5.28.03,7.92-.01,1.04-.02,1.32.3,1.27,1.05-.07,1.08-.08,2.16,0,3.23.07.88-.38,1.12-1.47,1.11-8.26-.03-16.52,0-24.78-.03-1.27,0-1.76.24-1.65,1.25.11,1.07,0,2.16.04,3.23.02.64-.3.86-1.13.84-1.57-.04-3.15.01-4.72-.01-.77-.01-1.14.13-1.14.82.04,4.77.03,9.54,0,14.32,0,.67.32.83,1.12.81,1.57-.04,3.15.02,4.72-.02.91-.03,1.19.23,1.15.91-.06,1.17,0,2.35-.04,3.53-.02.6.18.9,1.06.9,3.96-.02,7.92-.02,11.88,0,.78,0,1.04-.23,1.03-.81-.02-3.01-.02-6.01,0-9.02,0-.6-.26-.82-1.03-.81-1.57.02-3.15-.02-4.73.02-.89.02-1.22-.25-1.2-.92.04-1.21.04-2.42,0-3.63-.02-.6.29-.8,1.05-.8,6.22.02,12.43.02,18.65,0,.89,0,1.18.23,1.18.91-.03,6.67-.03,13.33,0,20,0,.78-.43.93-1.31.93-5.41-.02-10.81,0-16.22,0Z"/>
    <path id="gameover-9" data-name="gameover" class="cls-4" d="m436.91,302.27c0,3.3-.04,6.6.03,9.9.02.85-.36,1.08-1.39,1.04-1.36-.05-2.73.03-4.09-.03-1.13-.04-1.65.2-1.55,1.15.11,1.04-.04,2.09.04,3.14.06.8-.23,1.13-1.33,1.07-1.36-.06-2.73.03-4.09-.03-1.13-.05-1.65.19-1.55,1.14.11,1.01-.05,2.03.06,3.04.1.96-.39,1.18-1.54,1.12-1.4-.07-2.81.04-4.21-.02-1.05-.04-1.32.29-1.27,1.03.07,1.14-.01,2.29.03,3.43.02.61-.2.91-1.07.89-1.62-.04-3.24-.04-4.85,0-.8.02-1.04-.23-1.02-.81.04-1.18-.04-2.36.04-3.53.05-.79-.33-1.03-1.32-1-1.53.05-3.07-.03-4.6,0-.84.02-1.13-.22-1.1-.86.05-1.11-.05-2.22.03-3.33.06-.81-.3-1.12-1.37-1.08-1.4.05-2.81-.04-4.21.02-1.09.04-1.55-.21-1.47-1.1.09-1.07-.07-2.16.03-3.23.09-.89-.41-1.05-1.41-1.02-1.44.05-2.9-.01-4.34,0-.83.01-1.21-.14-1.2-.88.04-6.67.04-13.34,0-20.01,0-.8.37-1,1.34-.99,3.7.03,7.41.04,11.11,0,1.16-.01,1.55.24,1.54,1.16-.05,6.54,0,13.08-.05,19.61,0,.84.27,1.18,1.42,1.12,1.44-.07,2.89,0,4.34-.02.91-.01,1.3.23,1.26.98-.07,1.14.03,2.29-.03,3.43-.04.67.24.95,1.14.93,1.57-.03,3.15-.03,4.73,0,.88.02,1.09-.3,1.07-.9-.03-1.18.03-2.35-.03-3.53-.03-.68.27-.94,1.17-.92,1.49.04,2.98-.03,4.47.02,1.05.04,1.39-.22,1.38-1.05-.04-5.72-.02-11.44-.02-17.16,0-.95.03-1.9-.02-2.84-.03-.59.25-.83,1.02-.83,3.96.01,7.92.02,11.88,0,.93,0,1.02.36,1.01.93-.02,3.33,0,6.67,0,10Z"/>
    <path id="gameover-10" data-name="gameover" class="cls-20" d="m513.16,304.71c0-2.39.02-4.77-.02-7.16-.01-.67.23-.91,1.15-.91,6.09.03,12.18.03,18.26,0,.99,0,1.34.22,1.33,1.01-.05,2.94-.06,5.88,0,8.82.02.83-.4.99-1.35.96-1.53-.05-3.07.01-4.6-.02-.79-.02-1.06.22-1.05.8.03,1.27-.03,2.55.03,3.82.03.66-.32.86-1.12.86-3.87-.01-7.75-.02-11.62,0-.94,0-1.14-.3-1.14-.95.03-2.42.01-4.84.01-7.25.03,0,.07,0,.1,0Z"/>
    <path id="gameover-11" data-name="gameover" class="cls-20" d="m411.68,266.66c-2.94,0-5.87-.05-8.81.02-1.26.03-1.72-.21-1.68-1.24.09-2.77.06-5.55,0-8.33-.02-.79.23-1.13,1.34-1.07,1.4.07,2.81-.02,4.21.03,1.09.04,1.55-.21,1.48-1.1-.09-1.14,0-2.29-.04-3.43-.02-.58.24-.83,1.03-.82,1.62.03,3.23.04,4.85.01.86-.01,1.09.29,1.06.9-.05,1.17.02,2.35-.03,3.53-.03.66.24.94,1.16.92,1.57-.05,3.15.01,4.72-.02.81-.02,1.14.18,1.13.83-.03,2.97-.03,5.94,0,8.92,0,.72-.42.87-1.25.87-3.06-.02-6.13,0-9.19,0Z"/>
  </g>
</svg>