<?xml version="1.0" encoding="UTF-8"?>
<svg id="lotus" xmlns="http://www.w3.org/2000/svg" viewBox="0 0 1280 720">
  <defs>
    <style>
      .cls-1, .cls-2, .cls-3, .cls-4, .cls-5, .cls-6, .cls-7, .cls-8, .cls-9, .cls-10, .cls-11, .cls-12, .cls-13, .cls-14, .cls-15, .cls-16, .cls-17, .cls-18, .cls-19, .cls-20, .cls-21, .cls-22, .cls-23, .cls-24, .cls-25, .cls-26 {
        stroke-width: 0px;
      }

      .cls-2 {
        fill: #775e63;
      }

      .cls-3 {
        fill: #5b6266;
      }

      .cls-4 {
        fill: #a2a2a2;
      }

      .cls-5 {
        fill: #a2a8ac;
      }

      .cls-6 {
        fill: #231f20;
      }

      .cls-7 {
        fill: #242021;
      }

      .cls-8 {
        fill: #c499a2;
      }

      .cls-9 {
        fill: #dcd1cc;
      }

      .cls-10 {
        fill: #d3e5ef;
      }

      .cls-11 {
        fill: #afc3cb;
      }

      .cls-12 {
        fill: #a9a9a9;
      }

      .cls-13 {
        fill: #939393;
      }

      .cls-14 {
        fill: #b4b4b4;
      }

      .cls-15 {
        fill: #c398a1;
      }

      .cls-16 {
        fill: #b3b3b3;
      }

      .cls-17 {
        fill: #c299a1;
      }

      .cls-18 {
        fill: #c299a2;
      }

      .cls-19 {
        fill: #7c7b7b;
      }

      .cls-20 {
        fill: #99999a;
      }

      .cls-21 {
        fill: #9c9c9c;
      }

      .cls-22 {
        fill: #848383;
      }

      .cls-23 {
        fill: #fdfdfd;
      }

      .cls-24 {
        fill: #fff;
      }

      .cls-25 {
        fill: #040404;
      }

      .cls-26 {
        fill: #010101;
      }
    </style>
  </defs>
  <path id="gadenr" class="cls-8" d="m619.16,204.59h4.87l.37,7.94,4,.91v4.08h-3.78l-.36,4.31-1.65,3.63c.2.25.44.63.55,1.13.25,1.12-.35,2-.55,2.27-.18,1.06-.37,2.12-.55,3.17h-.74c-.32-.2-.68-.49-.92-.91-.55-.95-.25-2.17.69-3.17-.18-.08-.57-.28-.83-.68-.41-.62-.19-1.24-.14-1.36-.07-.05-.55-.38-.55-.91,0-.5.45-.97,1.1-1.13-.87-.64-1.75-1.28-2.62-1.93v-4.18l-4.83-.36c.23.54.14,1.11-.28,1.47-.23.21-.51.3-.69.34-.27-.27-.55-.57-.83-.91-.53-.64-.93-1.26-1.24-1.81-.09-.83-.18-1.66-.28-2.49l9.24-9.41Z"/>
  <path id="gadenr-2" data-name="gadenr" class="cls-8" d="m629.23,210.6l1.24,3.4v3.46l3.72-2.44,1.24-.68.55-2.27,3.31-.79,1.79,1.25-1.79,2.15-6.48,3.97-3.17,3.17.14,1.7,1.24,1.7v2.15l.83,1.36c-.16.21-.4.61-.41,1.13-.04,1.1.95,1.82,1.1,1.93.32-.26.64-.53.97-.79.28-.32.83-1.03.97-2.04.12-.87-.12-1.56-.28-1.93.83-.53,1.65-1.06,2.48-1.59l.69-1.02h2.48c-.32.63-.21,1.33.28,1.81.44.44,1.04.54,1.24.57.35.11.75.02.97-.23.21-.23.21-.55,0-.79.23-.08.46-.15.69-.23l.41-1.25h.83c-.16.66-.31,1.82.14,3.17.26.77.63,1.38.97,1.81.37.23.74.45,1.1.68l.83-.79.55-9.3-1.24-.79-3.72.34.09-1.13,3.91-2.27.97-4.32-3.72-4.98-.83-1.25-3.03-.57-5.79,1.47-5.24,4.19Z"/>
  <path id="gadenr-3" data-name="gadenr" class="cls-8" d="m657.14,204.93c-.99.27-2.43.77-3.92,1.7-1.59,1-2.59,2.09-3.17,2.83-.5.89-1.06,2.12-1.38,3.63-.37,1.75-.29,3.24-.14,4.31,1.01,1.59,2.02,3.17,3.03,4.76l1.79,7.37h.96l.56-1.81,1.24-1.47.28-1.93,2.48-.11.97,3.17,1.38,2.15v.5h1.48l.86-6.74c.74-.39,1.82-1.07,2.76-2.15.62-.71,1-1.39,1.24-1.93.09-.83.18-1.66.28-2.49s.18-1.66.28-2.49c-.23-.75-.57-1.65-1.1-2.61-.66-1.18-1.41-2.12-2.07-2.83-.49-.63-1.28-1.48-2.48-2.27-.79-.52-1.57-.88-2.21-1.13-.34-.08-.71-.16-1.1-.23-.73-.12-1.4-.19-2.01-.23Z"/>
  <polygon id="gadenr-4" data-name="gadenr" class="cls-24" points="617.92 210.94 615.99 212.98 619.58 212.98 617.92 210.94"/>
  <path id="gadenr-5" data-name="gadenr" class="cls-24" d="m657.63,212.75l-1.24.34c-.17.16-.56.54-.69,1.13-.16.73.16,1.3.28,1.47.08.22.28.7.83,1.13.56.45,1.18.6,1.45.65.31-.27.73-.71,1.03-1.33.19-.39.28-.75.33-1.04.03-.15.17-.81-.33-1.46-.56-.74-1.5-.88-1.65-.91Z"/>
  <g id="startscreen">
    <path class="cls-15" d="m1273.09,144.92c1.46,37.61.49,75.22.59,112.83.15,58.19.26,116.38.37,174.58,0,1.44-.23,2.88-.35,4.32-2.48-.57-2.27-2.05-2.25-3.34.2-12.72-.6-25.44.42-38.15.14-1.78.03-3.57.03-5.36,0-25.89-.27-51.77.07-77.66.42-32.02.4-64.05.44-96.07,0-16.66,0-33.33-.01-49.99-.02,16.62-.01,33.24-.02,49.86,0,22.23.33,44.47-.07,66.7-.66,36.86.18,73.71-.53,110.56-.62,32.28.08,64.56-.17,96.84-.04,5.26-1.43,10.46-1.06,15.72,1.61,22.66.06,45.35,1.22,68,1.01,19.89-.4,39.78.92,59.62,1.5,22.56-.14,45.12,1.19,67.66.32,5.46-1.33,10.9-.16,16.36,1.2,2.65-.91,2.87-4.1,2.92-66.43,1.15-132.86.32-199.3.52-41.85.12-83.7.28-125.55-.02-161.96-1.17-323.93-.24-485.89-.41-1.62,0-3.24-.18-4.86-.28.47-1.45,2.27-1.45,3.86-1.56,1.79-.12,3.61-.05,5.41-.05,105.68,0,211.36.3,317.04-.09,92.87-.34,185.74-.04,278.6-.25,52.86,0,105.72,0,158.59,0-103.07,0-206.15,0-309.23,0-36.78,0-73.57-.18-110.34.03-113.45.66-226.9.05-340.36.31-64.69.15-129.4.63-194.08-.07-84.72-.9-169.43-.1-254.14-.52-.82,0-1.64,0-2.46-.01-5.99-.13-6.46-.44-6.46-4.38,0-27.83-.28-55.65.13-83.48.17-11.5.14-23.01.35-34.51,0-29.04-.46-58.08.11-87.12.83-42.44-.54-84.88.66-127.3,1.17-41.53-.2-83.07.91-124.59.38-14.29.76-28.58.57-42.86-.29-21.07,1.89-42.2-2.24-63.21.12-1.88-1.05-3.73-.2-5.63.44-.33.97-.56,1.59-.7,2.11-.34,4.25-.23,6.38-.23,40.22,0,80.45-.55,120.64.12,61.7,1.03,123.4-.25,185.07.66,60.55.89,121.1-.23,181.63.6,61.22.84,122.44-.32,183.63.61,61.71.93,123.41.64,185.11.34,34.45-.16,68.93.16,103.36-.6,30.53-.67,61.06.17,91.55-.53,35.27-.82,70.56.18,105.79-.7,25.93-.65,51.83-.06,77.73-.57,8.15-.15,16.3-.06,24.44-.04,1.94,0,3.96-.02,5.45,1.09Z"/>
    <path class="cls-11" d="m1264.72,144.92c-9.82-.03-19.63-.06-29.45-.09-1.53-.53-3.17-.27-4.76-.28-20.62-.02-41.25-.28-61.87.05-32.54.52-65.07.12-97.6.28-186.07.92-372.15.24-558.22.4-21.75.02-43.5-.07-65.25-.06-97.62.07-195.25-.33-292.87-.46-44.45-.06-88.91-.02-133.36-.2-1.73,0-3.54-.35-5.19.35l.11-.07c-.22.3-.49.34-.82.08-4.03-.06-8.07-.12-12.1-.18-1.66-1.66-1.54-3.59-1.59-5.47-.1-3.46-.05-6.91-.03-10.37.34-41.26-.76-82.51-.46-123.77,0-1.22-.28-2.45.29-3.65,2.25-.03,4.51-.05,6.76-.08,5.11-.87,10.21,0,15.32,0,12.4,0,24.79,0,37.19,0,8.86,0,17.72.03,26.58,0,40.26-.18,80.51.78,120.78.81,21.57.01,43.16-.17,64.73.25,32.69.63,65.41-.04,98.07.7,26.91.61,53.79.42,80.68.46,83.42.12,166.86.55,250.27-.11,74.43-.59,148.84-.1,223.26-.39,9.98-.04,19.95-.46,29.93-.37,54.12.48,108.24.31,162.36.34,52.09,0,104.17,0,156.26.01,1.74,0,3.54-.27,5.23.28,2.59,29.78.58,59.59,1.1,89.38.28,16.2-.07,32.4.16,48.6.04,3.01-1.1,3.96-5.39,3.59-3.33-.29-6.76-.04-10.14-.02Z"/>
    <path class="cls-26" d="m1274.33,216.76c.05,1.67.14,3.35.14,5.02.15,70.42.29,140.84.45,211.26,0,1.44.26,2.87.4,4.31.15,41.11.18,82.22,1.08,123.33.52,23.79.57,47.59.83,71.39.09,7.93.08,15.86.27,23.79.51,20.77.89,41.53-2.17,62.24-1.4-1.15-.97-2.55-.99-3.86-.53-28.26-1.06-56.53-1.53-84.79-.65-39.66-1.76-79.32-1.74-118.97.02-52.51.94-105.02,1.47-157.53.03-3.35,0-6.7.03-10.06.32-41.04.64-82.09.97-123.13,0-1,.1-2.01.15-3.01.22-.39.43-.37.62.01Z"/>
    <path class="cls-23" d="m626.71,682.77c-172.58,0-345.16,0-517.75,0q-6.51,0-6.51-4.51c0-158.46,0-316.92,0-475.38q0-4.9,7.12-4.9c344.68,0,689.36,0,1034.04,0,7.72,0,6.8-.55,6.8,4.58.01,158.57.01,317.14.01,475.71q0,4.49-6.45,4.49c-172.42,0-344.84,0-517.26,0Z"/>
    <path class="cls-1" d="m16.17,144.91c1.79-1.14,3.97-.55,5.93-.55,340.7-.03,681.41-.03,1022.11-.03,62.02,0,124.04,0,186.06.03,1.65,0,3.52-.57,5,.47-31.59-.35-63.16.31-94.73.6-28.84.26-57.68.42-86.52.62-65.74.46-131.48.91-197.22,1.38-99.91.72-199.81-.69-299.72-.58-47.37.05-94.75-.44-142.12-.61-72.35-.26-144.71-.31-217.06-.73-58.65-.34-117.3-.87-175.95-.75-1.93,0-3.86.1-5.78.15Z"/>
    <path class="cls-2" d="m1054.48,718.75c-7.62-.98-15.33-.55-22.98-.58-39.72-.16-79.45-.12-119.17-.18-1.9,0-3.87.3-5.69-.36,1.92-.07,3.84-.2,5.76-.2,99.98.04,199.95.09,299.93.13,1.71,0,3.42,0,5.25,0-.43,1.6-1.84,1.19-2.78,1.19-52.8.08-105.61.14-158.42.19-.63,0-1.27-.12-1.9-.19Z"/>
    <path class="cls-9" d="m640.01,124.76c-196.26,0-392.52,0-588.77,0-7.75,0-6.95.52-6.95-4.87-.02-29.95.06-59.89-.11-89.84-.02-3.07,1.15-3.92,5.62-3.92,393.32.07,786.64.07,1179.97,0,4.69,0,5.87.9,5.85,4.1-.17,30.06-.1,60.12-.1,90.18q0,4.35-6.25,4.36c-196.42,0-392.84,0-589.26,0Z"/>
    <path class="cls-10" d="m162.29,638.46c-.14-7.45-1.82-14.88-.88-22.35.83-7.51.18-15.03.36-22.55.08-3.21.01-6.42.01-9.64,0-12.73.21-25.47-.04-38.2-.56-27.91-.14-55.83-.51-83.74-.96-73.03-.36-146.06-.54-219.1,0-1.87-.48-3.83,1.35-5.5,1.36-.5,2.84-.29,4.27-.29,66.65.23,133.3-.55,199.95-.37,25.28.07,50.56.18,75.84-.02,60.06-.48,120.11-.12,180.17-.23,2.69,0,5.5-.39,8.03.68,1.52,1.2,1.39,2.68,1.49,4.12,1.08,15.73.47,31.48,1.16,47.2.68,15.52-.02,31.05,1.03,46.53.9,13.29-.15,26.58.86,39.84,1.14,14.96-.07,29.93,1.05,44.86.99,13.18-.13,26.36.88,39.5,1.15,14.96.03,29.93,1.04,44.86.8,11.84,0,23.67.71,35.49,1,16.51.03,33.04,1.07,49.52.72,11.5.28,22.98.73,34.46-.03,3.76.02,7.52-.04,11.28-.02,1.31.16,2.68-1.21,3.8-1.23.63-2.65.76-4.12.77-1.13,0-2.25.01-3.38.01-153.15.02-306.3.17-459.45.08-3.31,0-6.81.56-9.81-1.02Z"/>
    <path class="cls-10" d="m1086.42,237.19c.73,9.29,1.81,18.58,1.02,27.9-.81,8.94-.14,17.89-.36,26.84,0,16.08-.4,32.17.1,48.24.71,22.99.07,45.99.41,68.98,1.12,74.58.4,149.16.59,223.73,0,1.86.48,3.83-1.45,5.47-26.25.25-52.51.51-78.76.75-1.92.02-3.84-.09-5.76-.13-3.98-.55-8.01-.22-12.01-.23-19.15-.04-38.3-.02-57.46-.02-39.1,0-78.2-.28-117.29.07-55.66.5-111.31.08-166.97.24-2.8,0-5.76.97-8.46-.38-1.34-5.01-.22-10.08-.59-15.11.24-23.68-.33-47.35-.59-71.03-1.13-103.22-.19-206.45-.51-309.67,0-1.88-.38-3.82,1.27-5.53,2.88-1.43,6.2-.97,9.36-.98,73.92-.03,147.84-.02,221.76-.02,68.93,0,137.85,0,206.78.02,3,0,6.16-.44,8.93.86Z"/>
    <path class="cls-25" d="m639.94,237.49c.01,124.25.02,248.5.03,372.74,0,4.47-.07,8.94-.1,13.4-.31.33-.59.3-.86-.03-.6-27.13-1.19-54.26-1.81-81.39-.96-42.2-1.93-84.4-2.89-126.59-.97-42.31-1.91-84.62-2.92-126.93-.4-17.07-.93-34.15-1.4-51.22-1.78-.8-3.77-.38-5.64-.38-90.99-.02-181.99-.01-272.98-.08-1.72,0-4.19,1.13-5.34-.89,89.7-.4,179.4-.8,269.1-1.2,4.02-.02,8.05-.06,12.07-.16,1.25-.03,2.96.53,3.08-1.22.1-1.38,1.3-.35,1.91-.16,1.6.49,2.92,1.4,4.79,1.48,1.39.66,4.21.54,2.95,2.63Z"/>
    <path class="cls-6" d="m639.94,237.49c.04-1.43-2.3-1.57-2.95-2.63,35.26-.21,70.53-.48,105.79-.63,71.98-.31,143.96-.44,215.94-.88,40.23-.25,80.46-.98,120.69-1.5,7.5-.1,7.5-.13,7.01,5.35-147.4,0-294.8-.02-442.19,0-1.43,0-2.86.2-4.29.3Z"/>
    <path class="cls-6" d="m640.04,638.31c2.25.03,4.51.08,6.76.08,93.41,0,186.81,0,280.22,0,1.93,0,3.86.03,5.8.05.35.13.47.25.35.38-.12.13-.23.19-.36.19-51.23.19-102.45.37-153.68.57-57.02.22-114.04.46-171.07.69-54.93.22-109.86.45-164.78.67-55.09.22-110.18.46-165.27.67-37.05.14-74.1.18-111.14.42-4.29.03-5.41-.93-4.59-3.58,1.93-.02,3.86-.06,5.8-.06,154.83,0,309.65,0,464.48,0,2.09,0,4.19-.03,6.28-.04.38-.34.78-.35,1.2-.04Z"/>
    <path class="cls-6" d="m1086.72,638.35c-.04-.89-.11-1.78-.11-2.68,0-113.85,0-227.71,0-341.56,0-.78.05-1.56.08-2.34.26-.35.52-.34.78,0,.29,21.68.56,43.35.86,65.03.64,45.58,1.29,91.17,1.93,136.75.64,45.58,1.29,91.17,1.94,136.75.02,1.34-.06,2.7.23,4.01.7,3.19-.6,4.87-5.71,4.05Z"/>
    <path class="cls-7" d="m162.13,237.43c.02.33.06.67.06,1,0,115.2-.02,230.4-.02,345.6-.27.36-.54.34-.81,0-.61-46.46-1.2-92.93-1.82-139.39-.63-47.58-1.29-95.16-1.94-142.74-.28-20.55-.55-41.1-.79-61.65-.01-.95-.61-2.01.57-2.87,1.6-.41,3.18-.5,4.75.05Z"/>
    <path class="cls-5" d="m162.13,237.43c-1.58-.02-3.17-.04-4.75-.05,1.05-1.05,2.63-.62,3.98-.63,34.4-.09,68.82.12,103.21-.31,25.4-.32,50.79-.29,76.18-.49,1.76-.01,3.52.11,5.28.17,1.43,1.38,3.53.68,5.27.68,91.12.04,182.24.03,273.36.07,1.77,0,3.82-.65,5.34.61-51.56.01-103.11.05-154.67.04-102.95-.03-205.9-.09-308.85-.14-1.45,0-2.9.03-4.35.05Z"/>
    <path class="cls-22" d="m932.81,639.01c.18-.19.18-.38,0-.57,22.7.04,45.4.09,68.1.15.43,0,.86.25,1.29.38-21.21.06-42.42.12-63.63.17-1.92,0-3.85-.08-5.77-.12Z"/>
    <path class="cls-20" d="m161.36,584.03c.27.13.54.13.81,0-.03,10.29-.05,20.59-.12,30.88,0,.4-.42.79-.65,1.19-.01-10.69-.03-21.38-.04-32.07Z"/>
    <path class="cls-19" d="m1087.48,291.77s-.39-.07-.39-.07l-.39.07c0-8.9-.63-17.8.74-26.68.01,8.89.03,17.78.04,26.68Z"/>
    <path class="cls-23" d="m1118.33,103.98c-28.19,0-56.37-.05-84.56.06-3.87.01-5.27-.59-5.24-3.48.18-18.54.17-37.08,0-55.62-.02-2.69,1.16-3.37,4.92-3.36,56.7.08,113.39.07,170.09,0,3.64,0,5.02.53,4.99,3.31-.18,18.65-.16,37.31-.02,55.96.02,2.53-1.08,3.2-4.66,3.19-28.51-.09-57.02-.05-85.53-.05Z"/>
    <path class="cls-23" d="m164.16,103.98c-27.87,0-55.74-.06-83.61.06-4.16.02-5.5-.65-5.46-3.69.21-18.43.19-36.87.01-55.3-.03-2.88,1.33-3.5,5.23-3.49,56.23.08,112.45.08,168.68,0,3.93,0,5.23.65,5.2,3.51-.18,18.55-.18,37.09,0,55.64.03,2.76-1.31,3.33-4.98,3.32-28.35-.09-56.71-.05-85.06-.05Z"/>
    <path class="cls-15" d="m605.1,88.37c-.54-7.25,4.84-12.53,9.4-18.01,3.62-4.35,7.07-8.75,9.23-13.58.54-1.22,1.3-2.44-.46-3.35-1.73-.9-3.25-.09-4.83.57-3.3,1.38-6.62,2.77-10.1,3.91-5.95,1.95-9.63.03-9.06-4.59.47-3.78,5.7-6.35,11.09-5.94,7.01.54,14.14.92,20.98-.82,3.74-.95,7.55-.92,11.41-.93,3.24-.01,5.08,1.43,6.36,3.09,1.27,1.65.1,3.26-1.5,4.62-3.1,2.65-7.86,3.34-12.98,1.91-5.76-1.61-6.36-1.4-6.27,2.84.08,3.62-2.69,6.32-5.49,9.05-3.99,3.89-8.73,7.45-11.05,12.07-1.95,3.88-2.3,7.82-.58,11.76.49,1.11.93,2.5,2.94,2.87,2.31.42,3.57-.84,4.77-1.83,3.77-3.11,6.09-6.8,8.38-10.49,1.27-2.05,2.66-4.06,4.18-6.03.88-1.14,2.38-1.73,4.4-1.66,2.2.08,2.95,1.16,3.67,2.3,6.69,10.57-7.55,24.5-22.1,23.29-6.84-.57-11.8-3.42-12.4-8.46-.12-1-.02-2.01-.02-2.57Z"/>
    <path class="cls-15" d="m723.8,99.31c-11.64,1.08-28.87-10.26-26.98-19.33.55-2.61,1.91-4.55,5.54-5.29,3.54-.73,6.13.43,8.18,2.47,3.35,3.34,5.26,7.14,7.52,10.83,2.89,4.71,4.9,6.04,8.81,5.2,3.35-.72,6.68-5.5,5.6-8.6-1.63-4.67-5.23-8.35-12.03-10.14-4.16-1.1-7.05-2.97-8.08-6.11-.98-2.99-3.5-5.08-7.46-6.6-8.05-3.1-8.33-10.92-.77-14.53,12.19-5.83,30.89,1.79,31.74,8.83.27,2.21.4,4.02-2.26,5.33-2.7,1.33-5.6.52-8.23-.24-2.43-.7-3.79-2.32-5.54-3.62-3.04-2.28-5.19-5.52-10.97-5.22-2.79.14-4.49.94-5.58,2.64-1.05,1.63-.11,3.25,1.6,3.85,7.24,2.56,11.52,6.69,14.8,11.66,1.01,1.53,3.4,2.62,6.12,3.02,6.21.91,9.25,4.04,10.26,7.98,1.12,4.39,1.2,8.89-1.03,13.2-1.97,3.81-4.26,4.71-11.24,4.7Z"/>
    <path class="cls-17" d="m559.62,90.42c-.67-3.64,1.72-7.26,3.94-10.79,3.04-4.82,2.9-9.02-.81-13.87-6.75-8.81,3.13-19.08,17.37-18.8,7.13.14,13.44,4.45,14.23,10.07.35,2.52.83,5.15-.55,7.62-2.68,4.81-.86,9.25,2.43,13.44,4.94,6.3,4.28,12.13-5.35,16.04-2.15.87-3.86,2.37-5.47,3.75-5.15,4.43-11.94,4.65-18.72,3-6.5-1.59-7.2-5.82-7.06-10.46Z"/>
    <path class="cls-18" d="m659.31,74.85c.78-3.53-1.17-7.91-4.14-12.24-3.91-5.72-2-11.85,4.34-15.51,2.41-1.39,5.23-2.14,7.99-1.05,2.53,1,1.42,3.04,1.29,4.63-.19,2.3-2.7,3.99-3.77,6.09-1.55,3.03-.97,6.19-1.43,9.26-1.28,8.48-3.43,17.11,3.73,25.01.77.85,1.5,1.72,2.45,2.47,1.26.99,2.56,2.14,4.86,1.66,2.26-.48,1.95-1.84,2.02-3.05.12-2.02,1.66-3.33,4.29-4.04,4.07-1.1,5.42-3.03,3.69-5.83-1.42-2.28-.92-4.52-.32-6.86,1.42-5.55-1.34-10.76-3.17-16.02-1.1-3.15-.85-6.16.91-9.15,1.3-2.2,3.02-4.11,6.92-3.86,3.7.23,5.28,2.19,6.39,4.4,2.7,5.37,1.46,10.52-1.76,15.55-1.3,2.04-2.79,4.02-4.23,6.02-3.49,4.84-1.72,9.84-.65,14.74,1.06,4.84-2.69,10.52-8.47,11.94-5.83,1.43-12.63-.95-16.16-5.69-4.01-5.39-5.2-11.17-4.78-18.46Z"/>
    <path class="cls-17" d="m519.78,93.02c1.72-7,3.18-14.04,5.25-20.99,1.54-5.15.57-9.92-2.33-14.67-1.29-2.12-3.02-4.32-.76-6.65,3.69-3.81,10.62-3.12,13.78,1.34,2.69,3.79,1.73,7.56.03,11.37-2.42,5.44-6.34,10.46-8.76,15.91-1.9,4.3-1.22,8.36.61,12.45,1.45,3.23,5.92,3.88,9.21,1.31,2.01-1.57,3.67-3.37,5.38-5.12,2.21-2.27,4.85-4.12,9.12-3.16,4.03.91,5.23,3.77,3.85,7.36-.77,2.01-2.29,3.71-4.14,5.23-2,1.64-4.55,2.48-7.7,1.28-4.99-1.89-9.5-1.99-14.12.93-3.06,1.94-6.36,1.06-8.09-1.67-.98-1.54-1.43-3.2-1.35-4.93Z"/>
    <path class="cls-3" d="m640.04,638.31c-.4.01-.8.03-1.2.04.06-4.92.11-9.83.17-14.75.28.09.57.1.86.03.06,4.89.11,9.79.17,14.68Z"/>
    <path class="cls-16" d="m1044.55,64.35c3.07-3.13,6.57-5.18,10.54-6.91-3.31,2.17-6.62,4.34-10.54,6.91Z"/>
    <path class="cls-21" d="m1044.91,72.46c.59-2.67,3.16-4.1,6.72-4.93-2.24,1.64-4.48,3.28-6.72,4.93Z"/>
    <path class="cls-14" d="m221.05,77.3c-4.22,2.6-8.44,5.19-11.54,7.1,2.45-2.27,6.88-4.73,11.54-7.1Z"/>
    <path class="cls-13" d="m216.12,88.21c-2.48,1.5-4.96,2.99-7.1,4.28.85-2.01,3.62-3.35,7.1-4.28Z"/>
    <path class="cls-12" d="m96.07,64.51c1.43-1.82,3.2-3.44,5.9-4.45-1.19,1.98-3.24,3.41-5.9,4.45Z"/>
    <path class="cls-4" d="m237.7,71.61c-.52,2.14-2.37,2.92-4.72,4.04.45-2.14,1.89-3.16,4.72-4.04Z"/>
    <path class="cls-9" d="m589.77,63.65c-3,4.79.29,9.8,2.22,14.93,1.19,3.15-1.21,5.44-5.82,5.26-6.29-.25-9.96,1.63-11.71,5.68-.46,1.06-1.18,2.06-1.83,3.08-1.04,1.62-2.44,2.95-5.4,2.66-3.12-.31-4.17-2.02-4.56-3.8-.55-2.45-.06-4.87,1.51-7.16,4.24-6.16,6.99-12.34,2.57-19.18-1.56-2.41.23-5.03,2.14-7.29.75-.89,2.03-1.69,3.42-1.72,5.61-.11,11.03.81,15.99,2.52,2.28.78,1.11,2.84,1.46,5.02Z"/>
  </g>
</svg>