<?xml version="1.0" encoding="UTF-8"?>
<svg id="lotus" xmlns="http://www.w3.org/2000/svg" viewBox="0 0 253 330">
  <defs>
    <style>
      .cls-1, .cls-2, .cls-3, .cls-4, .cls-5 {
        stroke-width: 0px;
      }

      .cls-2 {
        fill: #603813;
      }

      .cls-3 {
        fill: #754c24;
      }

      .cls-4 {
        fill: #4d4d4d;
      }

      .cls-5 {
        fill: #a67c52;
      }
    </style>
  </defs>
  <path class="cls-1" d="m0,244.34c1.47-13.78,2.4-27.63,4.55-41.31,2.95-18.77,9.09-36.69,18.25-53.46,3.58-6.56,7.57-13.01,12.23-18.86,2.7-3.4,6.78-6.17,10.81-8.02,5.33-2.45,11.17-3.88,16.89-5.41,2.17-.58,3.27-1.52,3.6-3.59,1.82-11.44,3.69-22.87,5.5-34.31,1.81-11.45,3.19-22.98,5.44-34.34,2.08-10.55,7.69-19.44,15.87-26.65C107.08,6.08,123.17-1.19,142.25.16c17.94,1.26,30.57,10.79,38.62,26.23,5.25,10.07,6.52,20.74,5.1,32.02-.74,5.92.41,12.07.6,18.11.54,17.63-1.07,35.07-5.07,52.28-1.07,4.6-2.09,9.21-3.32,13.77-.63,2.34.21,3.29,2.4,4.07,8.15,2.89,16.47,5.46,24.28,9.07,10.61,4.91,20.31,11.47,26.11,21.83,4.35,7.78,8.12,15.97,11.25,24.3,6.84,18.2,8.5,37.37,9.86,56.55.26,3.69.18,7.41.7,11.06,1.2,8.5-2.5,14.7-9.5,18.97-14.83,9.03-29.77,17.91-44.87,26.52-7.21,4.12-14.67,7.97-22.38,11.07-11.12,4.46-22.78,5.26-34.46,1.98-12.57-3.53-25.17-6.98-37.56-11.05-9.11-2.99-17.86-7.03-26.85-10.4-13.37-5.01-26.9-9.65-40.2-14.83-10.27-4-20.86-7.52-29.18-15.23-4.32-4-6.92-8.89-7.34-14.57-.43-5.81-.09-11.68-.09-17.53-.11-.02-.22-.03-.33-.05Zm95.77,8.58c-.22-.01-.44-.03-.66-.04.59-6.33,1.03-12.67,1.83-18.97.75-6,1.86-11.96,2.84-17.94.41-2.47-.01-4.47-1.94-6.43-3.65-3.71-4.06-9.57-.99-13.87,2.87-4.02,6.02-7.87,9.27-11.61,2.65-3.05,4.25-6.26,3.59-10.38-.18-1.16-.1-2.56.4-3.61,2.98-6.31,5.96-12.63,9.27-18.77,1.24-2.31,3.39-4.14,5.09-6.22,1.7-2.09,1.39-4.07-.76-4.67-2.31-.65-4.68-1.11-7-1.74-10.66-2.91-21.35-5.74-31.96-8.83-4.74-1.38-6.67-.14-6.82,4.81-.08,2.64,0,5.51-1,7.86-3.08,7.27-6.2,14.62-12.92,19.66-.71.54-1.22,1.41-1.66,2.22-4.22,7.8-7.62,15.92-10.02,24.46-5.05,17.99-8.42,36.21-8.54,54.94-.03,4.78.38,5.35,5.17,7,6.9,2.38,13.75,4.91,20.63,7.37,7.28,2.6,14.54,5.26,21.86,7.75,3.88,1.32,4.42.8,4.34-3.12-.07-3.28-.01-6.57-.01-9.86Zm73.01,18.05h.49c0,12.83-.01,25.67,0,38.51,0,5.12,3.14,7.43,7.72,5.37,7.01-3.15,13.98-6.4,20.77-9.98,11.73-6.18,23.37-12.54,34.93-19.01,6.28-3.52,10.9-8.22,10.11-16.18-1.1-11.02-1.68-22.1-3.13-33.07-1.25-9.44-3.41-18.77-5.15-28.15-.49-2.66-1.43-3.07-3.8-1.76-4.54,2.51-9.2,4.81-13.6,7.52-1.24.76-2.46,2.69-2.44,4.07.07,5.08-1.95,9.39-4.31,13.65-1.08,1.95-2.7,2.36-4.8,1.59-3.23-1.19-4.86-3.76-6.13-6.66-.68-1.56-.9-4.06-2.01-4.5-1.33-.53-3.37.74-5.12,1.11-6.63,1.41-13.26,2.82-19.91,4.15-2.44.49-3.63,1.77-3.63,4.23.02,13.04,0,26.07,0,39.11Zm-6.25,53.5c-3.42-6.71-3.3-13.29-3.26-19.87.03-4.41-.24-8.83-.21-13.24.02-2.62-1.01-3.51-3.74-3.6-3.84-.12-7.72-.53-11.46-1.37-4.78-1.07-9.46-2.61-14.13-4.09-15.62-4.95-31.28-9.8-46.81-15.01-13.66-4.58-27.17-9.58-40.75-14.41-11.61-4.12-23.21-8.25-33.63-14.94-1.54-.99-2.67-.8-2.92,1.08-1.18,8.81-1.56,17.64,1.07,26.26,1.58,5.19,4.29,10.18,9.32,12.69,7.42,3.71,15.16,6.87,22.95,9.78,8.59,3.21,17.56,5.47,26.06,8.88,20.61,8.26,40.72,17.81,62.42,23.25,10.13,2.54,20.19,5.62,30.85,5.12,1.2-.06,2.39-.3,4.22-.55ZM135.47,24.45c-6.91.28-13.53,1.57-19.35,5.49-5.65,3.8-11.36,7.85-13.81,14.31-2.24,5.91-3.96,12.19-4.7,18.44-1.19,9.97-1.35,20.06-2.03,30.09-.58,8.6-1.27,17.19-1.94,25.79-.15,1.89-.49,3.61,2.23,4.24,10.08,2.33,20.14,4.77,30.18,7.31,2.89.73,4.11-.3,5.14-2.87,2.71-6.78,5.39-13.59,8.67-20.11,5.83-11.59,12.28-22.88,18.06-34.49,2.16-4.33,4.32-9.2,4.38-13.85.08-5.71-1.62-11.56-3.3-17.14-3.16-10.48-11.28-17.29-23.52-17.21Zm47.07,134.11c-2.67-.97-4.7-1.74-6.76-2.44-8.88-3.02-17.79-5.95-26.64-9.07-2.1-.74-3.18-.67-4,1.64-2.54,7.13-5.21,14.22-8.01,21.26-.82,2.06-1.85,4.31-3.46,5.75-4.05,3.64-5.41,8.41-6.54,13.28-1.6,6.9-2.99,13.84-4.31,20.79-3.72,19.54-6.36,39.13-3.36,59.05.8,5.33,1.53,6.16,7.01,7.42,4.06.93,8,2.4,12.06,3.29,5.28,1.15,10.61,2.23,15.98,2.83,3.64.41,4.18-.45,4.21-3.98.09-11.7.03-23.41.32-35.11.39-15.58-.92-31.21,1.85-46.71,2.47-13.85,8.1-26,19.18-35.34.76-.64,1.37-1.47,2.46-2.65Zm-1.72-110.1c.39-20.76-8.38-36.24-26.98-41.31-16.17-4.41-31.82-3.01-46.03,5.64-18.29,11.12-27.48,28.08-29.96,48.84-1.77,14.86-3.75,29.7-5.85,44.52-.67,4.76-1.75,9.5-3.15,14.1-1.75,5.74-1.98,5.67,3.61,7.79.2.07.44.27.58.21,1.09-.44,2.42-.68,3.15-1.46.71-.76.89-2.06,1.12-3.15,1.99-9.76,4.23-19.48,5.85-29.3,2.76-16.84,5.86-33.55,12.39-49.47,3.74-9.1,8.91-17.27,17-23.17,9.41-6.88,20.21-8.44,31.66-6.67,7.56,1.16,13.96,4.27,18.61,10.34,6.33,8.26,7.69,17.7,6.89,27.73-.79,9.9-4.81,18.66-9.72,27.05-10.9,18.62-20.94,37.6-27.85,58.05-1.69,4.99-1.74,5.12,3.16,6.31.41.1.83.2,1.19.39,2.34,1.25,3.51.43,4.51-1.89,2.27-5.29,4.59-10.58,7.33-15.65,6.41-11.87,13.15-23.57,19.6-35.42,7.63-14.01,13.01-28.68,12.92-43.46Zm-12.09,162.03c0,2,.15,3.16-.03,4.26-.45,2.81.75,3.81,3.51,3.42,2.39-.33,4.81-.44,7.17-.9,17.73-3.49,33.62-11.14,48.5-20.95.8-.53,1.51-2.48,1.13-3.21-4.4-8.52-9.24-16.78-17.22-22.7-4.29-3.18-8.82-6.11-14.29-6.66-7.96-.8-12.58,4.66-16.49,10-8.16,11.15-10.11,24.45-12.28,36.73ZM5.85,225.1c.14.08.27.16.41.24.37,1.76.14,4.13,1.23,5.15,3.52,3.29,7.43,6.19,11.37,9,2.09,1.5,3.21.45,3.36-1.94,1.01-15.93,3.84-31.56,7.87-47.01.3-1.16-.07-2.94-.84-3.85-4.89-5.72-4.72-10.13.97-15.14,3.27-2.88,6.77-5.52,9.91-8.52,3.12-2.98,6.39-6.01,5.9-10.97-.09-.95.41-2,.8-2.95,3.29-8.08,7.5-15.54,14.75-20.97,1.31-.98,2.02-2.89-.16-3.17-3.46-.45-7.31-.83-10.51.21-7.26,2.37-13.32,6.79-17.53,13.24-1.57,2.41-2.77,5.04-4.24,7.51-6.07,10.23-11.57,20.84-14.3,32.32-3.68,15.45-6.06,31.21-8.99,46.83Zm207.6-14.09c.04.36.07.72.11,1.08,1.28-.2,2.75-.08,3.81-.67,4.79-2.66,9.47-5.51,14.17-8.32,1.48-.88,2.79-1.17,3.49.81,1.09,3.1,2.41,6.15,3.08,9.34,1.79,8.42,3.67,16.85,4.79,25.37,1.39,10.66,2.4,21.41,2.82,32.14.12,3.11-1.67,6.85-3.78,9.33-2.65,3.13-6.34,5.56-9.92,7.76-6.94,4.26-14.02,8.33-21.22,12.16-11.48,6.12-23.05,12.09-34.69,17.89-4.62,2.3-8.48,0-8.95-5.05-.32-3.47-.36-6.97-.36-10.46,0-15.3.08-30.59.07-45.89,0-8.83-.24-17.65-.08-26.48.02-1.37,1.37-3.62,2.52-3.91,6.65-1.7,13.45-2.87,20.16-4.38,2.5-.56,4.89-1.54,7.33-2.33-.11-.48-.22-.97-.34-1.45-1.58.19-3.25.13-4.74.62-8.21,2.69-16.6,4.19-25.27,4-2.43-.05-3.37.89-3.34,3.28.08,7.39-.23,14.79.04,22.18.82,21.94-1.31,43.95,1.63,65.84.97,7.22,5.37,9.9,11.79,6.58,11.05-5.71,22.12-11.4,33.03-17.36,10.02-5.47,19.91-11.17,29.72-16.99,6.14-3.64,9.77-8.78,8.93-16.32-.76-6.82-1.3-13.67-1.73-20.51-.86-13.66-2.79-27.15-6.22-40.41-1.03-3.99-2.6-7.84-4.01-12.04-8.1,5.02-15.47,9.6-22.85,14.17Zm-94.86-4.71c-.59.12-.96.08-1.16.25-3.47,2.85-7.07,5.36-11.78,5.98-.72.09-1.64,1.56-1.79,2.5-2.3,14.17-4.46,28.33-3.92,42.79.48,13.06-1.85,10.08,11.85,14.31,3.44,1.06,3.79.53,3.49-2.96-.63-7.24-1.42-14.49-1.58-21.75-.29-13.78,2.28-27.29,4.89-41.12Zm-70.59-20.04c-4.31.96-8.06,1.64-11.7,2.7-.97.28-2.01,1.62-2.29,2.66-1.13,4.26-2.23,8.56-2.89,12.91-1.75,11.45-3.26,22.93-4.88,34.4-.37,2.63.63,4.34,3.26,5.16,1.79.56,3.57,1.2,5.3,1.91,3.6,1.46,4.51.95,4.57-2.89.25-18.16,2.54-36.01,8.14-53.38.38-1.18.36-2.48.48-3.46Zm134.36-111.09c-.29,0-.57,0-.86,0-1.63,3.86-2.88,7.93-4.97,11.54-2.87,4.96-3.43,10.16-3.48,15.65-.03,3.98-.2,8.04-1,11.93-1.72,8.32-3.76,16.58-5.94,24.8-.7,2.63.42,3.65,2.53,4.33,2.06.67,4.15,1.27,4.93-1.74.65-2.48,1.37-4.94,2.1-7.4,5.44-18.26,7.88-36.89,7.15-55.91-.04-1.07-.31-2.13-.47-3.19Zm-83.21,125.91c.04,6.24,4.98,9.04,10.2,6.12.99-.55,1.96-1.2,2.8-1.95,6.66-5.95,8.84-14.21,11.73-22.09.68-1.86-.94-1.84-2.19-2.05-2.13-.37-4.23-1.01-6.37-1.19-1.01-.08-2.47.35-3.07,1.07-2.75,3.32-5.24,6.84-7.87,10.24-2.4,3.1-5.11,6.03-5.22,9.84Zm-63.65-16.05c2.2-.58,3.54-.82,4.8-1.29,6.95-2.57,10.88-8.1,14.19-14.15,3.17-5.78,4.23-5.89-2.61-7.96-.3-.09-.63-.18-.86-.37-2.06-1.71-3.16-.47-4.55,1.1-2.37,2.68-4.99,5.17-7.62,7.63-2.19,2.05-4.84,3.69-6.71,5.97-1.06,1.29-1.82,3.88-1.19,5.17.84,1.74,3.15,2.8,4.55,3.91Zm99.9-29.42c0-5.26-1.47-7.16-5.06-6.81-2.27.22-5.27,1.36-6.41,3.07-3.28,4.94-5.91,10.33-8.5,15.68-.46.96,0,3.11.83,3.76,2.34,1.85,5.21,3.09,7.97.7,2.23-1.92,4.62-3.89,6.15-6.32,2.26-3.61,3.83-7.64,5.01-10.09Zm-76.52-1.17c.56-.34,2.38-.81,3.02-1.92,2.94-5.11,5.65-10.36,8.22-15.65.8-1.65,1.96-4.2-.51-5.1-1.56-.57-3.81.58-5.73,1.06-.46.11-.91.56-1.2.96-3.19,4.39-6.51,8.71-9.48,13.25-2.34,3.58.26,7.48,5.67,7.42Zm109.27-45.89c-.39-.52-.78-1.03-1.16-1.55-.53.41-1.28.71-1.57,1.25-4.14,7.68-8.34,15.34-12.29,23.12-3.43,6.75-3.17,7.03,4.35,8.72,2.2.5,3.28-.15,3.81-2.34.87-3.58,2.17-7.05,2.99-10.64,1.4-6.09,2.56-12.23,3.87-18.58Zm-75.16-41.35c-.22-.04-.45-.07-.67-.11-.79,3.05-1.81,6.06-2.35,9.15-2.34,13.43-4.52,26.88-6.83,40.31-.37,2.16-.06,3.64,2.45,4.04,2.39.38,3.8-.29,4.03-2.89.5-5.61,1.26-11.2,1.66-16.81.67-9.19,1.16-18.39,1.67-27.58.11-2.03.02-4.07.02-6.11Zm-12.44,57.6c1.19,1.07,1.5,1.57,1.92,1.7,6.77,1.99,13.52,4.07,20.35,5.85,7.25,1.89,14.57,3.5,21.88,5.17.72.17,1.63.1,2.28-.21.34-.16.6-1.36.37-1.61-.64-.68-1.49-1.35-2.38-1.59-6.54-1.75-13.1-3.45-19.68-5.04-6.89-1.66-13.81-3.21-20.74-4.7-.98-.21-2.1.2-4,.42Zm72.34,19.31c-.05.32-.1.65-.14.97,2.17.9,4.29,1.92,6.51,2.67,8.56,2.91,17.13,5.77,25.73,8.54.78.25,1.81-.23,2.72-.36-.57-.69-1-1.77-1.72-2.01-9.44-3.17-18.91-6.27-28.41-9.27-1.47-.46-3.12-.37-4.69-.54Zm57.11,75.03c-.74-2.23-.15-4.94-3.23-5.19-2.14-.17-5.9,2.58-5.51,4.02.85,3.11,1.85,6.24,3.29,9.12,1.02,2.03,2.66,1.76,3.48-.52.89-2.48,1.37-5.11,1.97-7.43Zm-37.23-37.12c-.26-.07-.53-.15-.79-.22-.21.33-.5.63-.61.99-1.95,6.13-4.2,12.19-5.69,18.43-1.09,4.56-1.22,9.34-1.59,14.04-.05.69.96,1.47,1.48,2.2.43-.67,1.17-1.31,1.24-2.02.25-2.55.02-5.16.43-7.67.89-5.42,2.01-10.8,3.14-16.18.68-3.22,1.58-6.39,2.38-9.58Zm42.32-13.2c.19.34.34.71.56,1.03,5.05,7.11,10.08,14.24,15.22,21.29.47.64,1.62.81,2.46,1.19l.57-.85c-4.4-8.96-9.9-17.09-18.82-22.66ZM156.3,27.72c-2.03-6.65-14.94-11.54-21.76-8.52,7.65,1.97,15.64,2.26,21.76,8.52Zm-36.63,148.38c3.79,1.81,10.86-1.98,10.97-5.9-3.6,1.94-7.43,3.99-10.97,5.9Zm83.52-15.02c-4.27-2.12-9.89-1.92-11.96,0h11.96Zm-24.04,9.15c.08.06.16.12.24.18l5.29-4.44c-.27-.24-.53-.48-.8-.72-1.58,1.66-3.16,3.32-4.73,4.98Z"/>
  <path class="cls-5" d="m95.77,252.92c0,3.29-.05,6.57.01,9.86.08,3.92-.46,4.44-4.34,3.12-7.32-2.49-14.58-5.15-21.86-7.75-6.88-2.46-13.73-4.98-20.63-7.37-4.79-1.65-5.2-2.22-5.17-7,.12-18.72,3.49-36.94,8.54-54.94,2.4-8.54,5.8-16.66,10.02-24.46.44-.81.94-1.68,1.66-2.22,6.72-5.04,9.83-12.39,12.92-19.66,1-2.36.93-5.22,1-7.86.15-4.95,2.08-6.19,6.82-4.81,10.61,3.09,21.3,5.92,31.96,8.83,2.32.63,4.68,1.1,7,1.74,2.15.6,2.47,2.59.76,4.67-1.7,2.08-3.85,3.91-5.09,6.22-3.31,6.14-6.29,12.46-9.27,18.77-.49,1.05-.58,2.44-.4,3.61.65,4.12-.94,7.33-3.59,10.38-3.25,3.74-6.4,7.59-9.27,11.61-3.07,4.3-2.65,10.16.99,13.87,1.93,1.96,2.35,3.96,1.94,6.43-.98,5.97-2.09,11.94-2.84,17.94-.79,6.3-1.23,12.65-1.83,18.97.22.01.44.03.66.04Z"/>
  <path class="cls-5" d="m168.77,270.97c0-13.04.01-26.07,0-39.11,0-2.46,1.19-3.74,3.63-4.23,6.65-1.33,13.28-2.73,19.91-4.15,1.76-.37,3.8-1.65,5.12-1.11,1.11.45,1.33,2.94,2.01,4.5,1.26,2.89,2.9,5.46,6.13,6.66,2.09.77,3.72.36,4.8-1.59,2.36-4.26,4.38-8.57,4.31-13.65-.02-1.38,1.2-3.3,2.44-4.07,4.4-2.72,9.07-5.01,13.6-7.52,2.37-1.31,3.31-.9,3.8,1.76,1.74,9.38,3.9,18.71,5.15,28.15,1.45,10.97,2.04,22.05,3.13,33.07.79,7.96-3.82,12.66-10.11,16.18-11.56,6.47-23.2,12.83-34.93,19.01-6.79,3.57-13.76,6.83-20.77,9.98-4.58,2.06-7.71-.25-7.72-5.37-.02-12.84,0-25.67,0-38.51h-.49Z"/>
  <path class="cls-5" d="m162.52,324.47c-1.83.24-3.02.49-4.22.55-10.66.5-20.71-2.58-30.85-5.12-21.7-5.44-41.8-14.99-62.42-23.25-8.5-3.41-17.47-5.66-26.06-8.88-7.79-2.92-15.53-6.08-22.95-9.78-5.04-2.52-7.74-7.5-9.32-12.69-2.63-8.61-2.25-17.45-1.07-26.26.25-1.88,1.37-2.07,2.92-1.08,10.41,6.69,22.02,10.82,33.63,14.94,13.58,4.82,27.09,9.83,40.75,14.41,15.53,5.21,31.19,10.06,46.81,15.01,4.67,1.48,9.35,3.02,14.13,4.09,3.74.84,7.62,1.25,11.46,1.37,2.73.09,3.75.98,3.74,3.6-.03,4.41.24,8.83.21,13.24-.04,6.59-.16,13.16,3.26,19.87Z"/>
  <path class="cls-5" d="m182.54,158.56c-1.09,1.18-1.69,2.01-2.46,2.65-11.08,9.34-16.71,21.49-19.18,35.34-2.77,15.5-1.47,31.13-1.85,46.71-.29,11.7-.23,23.4-.32,35.11-.03,3.53-.57,4.4-4.21,3.98-5.37-.61-10.7-1.68-15.98-2.83-4.07-.89-8-2.36-12.06-3.29-5.48-1.26-6.21-2.09-7.01-7.42-3-19.92-.36-39.51,3.36-59.05,1.32-6.95,2.72-13.89,4.31-20.79,1.13-4.87,2.48-9.64,6.54-13.28,1.61-1.44,2.64-3.69,3.46-5.75,2.8-7.04,5.47-14.12,8.01-21.26.82-2.3,1.9-2.38,4-1.64,8.85,3.11,17.76,6.05,26.64,9.07,2.06.7,4.09,1.48,6.76,2.44Z"/>
  <path class="cls-2" d="m180.81,48.46c.09,14.78-5.29,29.45-12.92,43.46-6.45,11.85-13.2,23.54-19.6,35.42-2.73,5.07-5.06,10.36-7.33,15.65-1,2.32-2.17,3.14-4.51,1.89-.36-.19-.78-.29-1.19-.39-4.91-1.19-4.85-1.32-3.16-6.31,6.91-20.45,16.95-39.44,27.85-58.05,4.92-8.4,8.93-17.16,9.72-27.05.8-10.02-.56-19.47-6.89-27.73-4.65-6.06-11.05-9.17-18.61-10.34-11.45-1.76-22.25-.2-31.66,6.67-8.08,5.91-13.26,14.07-17,23.17-6.54,15.92-9.63,32.64-12.39,49.47-1.61,9.82-3.85,19.54-5.85,29.3-.22,1.1-.41,2.4-1.12,3.15-.73.78-2.06,1.03-3.15,1.46-.14.06-.38-.14-.58-.21-5.58-2.12-5.35-2.05-3.61-7.79,1.4-4.6,2.48-9.35,3.15-14.1,2.1-14.82,4.08-29.66,5.85-44.52,2.47-20.76,11.67-37.71,29.96-48.84,14.21-8.64,29.86-10.04,46.03-5.64,18.6,5.07,27.37,20.55,26.98,41.31Z"/>
  <path class="cls-5" d="m168.72,210.49c2.18-12.28,4.13-25.59,12.28-36.73,3.91-5.34,8.53-10.81,16.49-10,5.47.55,10.01,3.48,14.29,6.66,7.98,5.92,12.81,14.18,17.22,22.7.38.73-.33,2.69-1.13,3.21-14.88,9.81-30.77,17.46-48.5,20.95-2.36.46-4.78.57-7.17.9-2.76.39-3.96-.61-3.51-3.42.18-1.1.03-2.25.03-4.26Z"/>
  <path class="cls-5" d="m5.85,225.1c2.94-15.62,5.32-31.37,8.99-46.83,2.73-11.47,8.23-22.09,14.3-32.32,1.47-2.47,2.67-5.11,4.24-7.51,4.21-6.45,10.27-10.87,17.53-13.24,3.19-1.04,7.05-.67,10.51-.21,2.18.28,1.47,2.2.16,3.17-7.26,5.43-11.46,12.89-14.75,20.97-.39.95-.89,2-.8,2.95.49,4.97-2.78,7.99-5.9,10.97-3.14,3-6.64,5.64-9.91,8.52-5.69,5-5.86,9.42-.97,15.14.77.9,1.14,2.69.84,3.85-4.03,15.45-6.87,31.08-7.87,47.01-.15,2.39-1.27,3.43-3.36,1.94-3.94-2.82-7.85-5.72-11.37-9-1.09-1.02-.86-3.4-1.23-5.15-.14-.08-.27-.16-.41-.24Z"/>
  <path class="cls-3" d="m213.45,211.01c7.38-4.58,14.76-9.15,22.85-14.17,1.42,4.2,2.98,8.05,4.01,12.04,3.43,13.26,5.36,26.76,6.22,40.41.43,6.85.96,13.7,1.73,20.51.84,7.54-2.79,12.67-8.93,16.32-9.81,5.82-19.7,11.52-29.72,16.99-10.91,5.96-21.98,11.65-33.03,17.36-6.42,3.32-10.83.63-11.79-6.58-2.94-21.9-.81-43.9-1.63-65.84-.28-7.38.03-14.78-.04-22.18-.03-2.39.91-3.34,3.34-3.28,8.67.19,17.06-1.31,25.27-4,1.48-.49,3.15-.43,4.74-.62.11.48.22.97.34,1.45-2.44.79-4.84,1.77-7.33,2.33-6.71,1.51-13.51,2.67-20.16,4.38-1.15.29-2.49,2.54-2.52,3.91-.16,8.82.07,17.65.08,26.48,0,15.3-.07,30.59-.07,45.89,0,3.49.04,6.99.36,10.46.47,5.05,4.33,7.35,8.95,5.05,11.65-5.8,23.21-11.77,34.69-17.89,7.2-3.83,14.28-7.9,21.22-12.16,3.58-2.2,7.26-4.63,9.92-7.76,2.11-2.48,3.9-6.23,3.78-9.33-.42-10.74-1.42-21.48-2.82-32.14-1.11-8.52-3-16.95-4.79-25.37-.68-3.19-1.99-6.25-3.08-9.34-.7-1.98-2.01-1.69-3.49-.81-4.7,2.81-9.38,5.66-14.17,8.32-1.06.59-2.53.46-3.81.67-.04-.36-.07-.72-.11-1.08Z"/>
  <path class="cls-2" d="m118.59,206.3c-2.62,13.84-5.19,27.34-4.89,41.12.16,7.26.95,14.5,1.58,21.75.3,3.49-.05,4.02-3.49,2.96-13.7-4.23-11.37-1.26-11.85-14.31-.53-14.46,1.62-28.62,3.92-42.79.15-.94,1.07-2.41,1.79-2.5,4.71-.61,8.31-3.12,11.78-5.98.2-.16.57-.13,1.16-.25Z"/>
  <path class="cls-2" d="m48.01,186.26c-.13.98-.11,2.28-.48,3.46-5.6,17.38-7.89,35.23-8.14,53.38-.05,3.84-.97,4.36-4.57,2.89-1.74-.71-3.51-1.35-5.3-1.91-2.63-.82-3.64-2.53-3.26-5.16,1.62-11.47,3.13-22.95,4.88-34.4.66-4.35,1.76-8.65,2.89-12.91.28-1.04,1.32-2.38,2.29-2.66,3.64-1.06,7.39-1.74,11.7-2.7Z"/>
  <path class="cls-2" d="m182.37,75.17c.16,1.06.43,2.12.47,3.19.73,19.02-1.72,37.65-7.15,55.91-.73,2.46-1.46,4.92-2.1,7.4-.78,3.01-2.87,2.41-4.93,1.74-2.11-.68-3.23-1.69-2.53-4.33,2.18-8.22,4.22-16.48,5.94-24.8.8-3.89.96-7.95,1-11.93.05-5.49.6-10.7,3.48-15.65,2.09-3.6,3.34-7.68,4.97-11.54.29,0,.57,0,.86,0Z"/>
  <path class="cls-2" d="m99.16,201.08c.12-3.81,2.82-6.74,5.22-9.84,2.64-3.41,5.12-6.93,7.87-10.24.6-.72,2.06-1.15,3.07-1.07,2.14.18,4.24.82,6.37,1.19,1.26.22,2.88.19,2.19,2.05-2.89,7.87-5.07,16.13-11.73,22.09-.84.75-1.81,1.4-2.8,1.95-5.22,2.91-10.16.12-10.2-6.12Zm8.51,0c-.83-.75-1.59-1.59-1.7-1.52-.85.57-1.56,1.33-2.32,2.03.44.44,1.06,1.33,1.3,1.24.86-.32,1.58-.97,2.73-1.75Z"/>
  <path class="cls-2" d="m35.52,185.03c-1.39-1.12-3.7-2.17-4.55-3.91-.63-1.3.13-3.88,1.19-5.17,1.87-2.27,4.52-3.92,6.71-5.97,2.63-2.45,5.25-4.94,7.62-7.63,1.39-1.57,2.48-2.81,4.55-1.1.23.19.56.28.86.37,6.84,2.08,5.77,2.18,2.61,7.96-3.31,6.05-7.24,11.59-14.19,14.15-1.26.46-2.6.71-4.8,1.29Z"/>
  <path class="cls-4" d="m135.41,155.6c-1.19,2.45-2.75,6.49-5.01,10.09-1.52,2.43-3.92,4.39-6.15,6.32-2.77,2.39-5.63,1.14-7.97-.7-.82-.65-1.3-2.81-.83-3.76,2.59-5.35,5.21-10.73,8.5-15.68,1.14-1.71,4.14-2.85,6.41-3.07,3.6-.35,5.07,1.55,5.06,6.81Z"/>
  <path class="cls-4" d="m58.89,154.43c-5.41.07-8.01-3.84-5.67-7.42,2.97-4.53,6.28-8.85,9.48-13.25.29-.4.74-.84,1.2-.96,1.91-.48,4.16-1.63,5.73-1.06,2.47.9,1.31,3.45.51,5.1-2.57,5.3-5.28,10.54-8.22,15.65-.64,1.12-2.46,1.58-3.02,1.92Z"/>
  <path class="cls-2" d="m93,67.2c0,2.04.1,4.08-.02,6.11-.52,9.2-1.01,18.4-1.67,27.58-.41,5.61-1.17,11.2-1.66,16.81-.23,2.61-1.64,3.28-4.03,2.89-2.51-.4-2.82-1.88-2.45-4.04,2.3-13.43,4.48-26.89,6.83-40.31.54-3.09,1.55-6.1,2.35-9.15.22.04.45.07.67.11Z"/>
  <path class="cls-3" d="m80.56,124.79c1.89-.22,3.01-.63,4-.42,6.93,1.49,13.85,3.04,20.74,4.7,6.59,1.59,13.14,3.29,19.68,5.04.89.24,1.74.91,2.38,1.59.23.25-.03,1.45-.37,1.61-.65.31-1.56.37-2.28.21-7.31-1.67-14.63-3.28-21.88-5.17-6.83-1.78-13.58-3.86-20.35-5.85-.43-.13-.74-.63-1.92-1.7Z"/>
  <path class="cls-3" d="m152.9,144.1c1.57.17,3.22.08,4.69.54,9.5,3,18.97,6.1,28.41,9.27.72.24,1.15,1.32,1.72,2.01-.91.14-1.94.62-2.72.36-8.6-2.78-17.18-5.63-25.73-8.54-2.22-.75-4.34-1.77-6.51-2.67.05-.32.1-.65.14-.97Z"/>
  <path class="cls-4" d="m210,219.12c-.6,2.32-1.08,4.94-1.97,7.43-.81,2.27-2.46,2.55-3.48.52-1.45-2.88-2.45-6.01-3.29-9.12-.39-1.44,3.37-4.19,5.51-4.02,3.08.25,2.49,2.97,3.23,5.19Z"/>
  <path class="cls-3" d="m172.77,182c-.8,3.19-1.7,6.36-2.38,9.58-1.14,5.38-2.25,10.76-3.14,16.18-.41,2.51-.18,5.12-.43,7.67-.07.7-.81,1.35-1.24,2.02-.52-.74-1.53-1.51-1.48-2.2.37-4.7.5-9.49,1.59-14.04,1.48-6.24,3.74-12.3,5.69-18.43.11-.36.4-.66.61-.99.26.07.53.15.79.22Z"/>
  <path class="cls-3" d="m215.09,168.8c8.92,5.57,14.42,13.7,18.82,22.66l-.57.85c-.84-.39-1.99-.55-2.46-1.19-5.14-7.05-10.17-14.18-15.22-21.29-.23-.32-.38-.68-.56-1.03Z"/>
  <path class="cls-4" d="m119.67,176.1c3.54-1.9,7.37-3.96,10.97-5.9-.1,3.92-7.17,7.71-10.97,5.9Z"/>
  <path class="cls-3" d="m203.19,161.08h-11.96c2.06-1.92,7.69-2.12,11.96,0Z"/>
  <path class="cls-3" d="m179.15,170.23c1.58-1.66,3.16-3.32,4.73-4.98.27.24.53.48.8.72l-5.29,4.44c-.08-.06-.16-.12-.24-.18Z"/>
  <path class="cls-1" d="m107.67,201.08c-1.14.78-1.87,1.43-2.73,1.75-.23.09-.85-.8-1.3-1.24.76-.7,1.48-1.45,2.32-2.03.11-.08.87.76,1.7,1.52Z"/>
</svg>