<?xml version="1.0" encoding="UTF-8"?>
<svg id="lotus" xmlns="http://www.w3.org/2000/svg" viewBox="0 0 58 51.5">
  <defs>
    <style>
      .cls-1 {
        stroke-width: 0px;
      }
    </style>
  </defs>
  <path id="liv" class="cls-1" d="m31.65,5.49c1.83-1.99,3.97-3.53,6.55-4.42,2.3-.79,4.65-.97,7.04-.53,3.28.61,6.05,2.15,8.34,4.55,1.71,1.8,2.8,3.95,3.44,6.35.55,2.09.85,4.22.74,6.39-.13,2.61-.77,5.11-1.78,7.52-1,2.37-2.17,4.65-3.72,6.72-1.43,1.9-3.1,3.58-4.83,5.21-3.15,2.98-6.4,5.84-9.89,8.42-2.3,1.71-4.67,3.32-7.11,4.83-.08.05-.14.13-.27.1.04-.27.2-.49.31-.72,1.52-3.11,3.04-6.21,4.57-9.32.09-.18.05-.3-.07-.45-1.62-2.01-3.24-4.03-4.86-6.05-2.05-2.55-4.1-5.1-6.15-7.65-.18-.22-.06-.32.08-.46,2.94-3.02,5.88-6.03,8.82-9.05.1-.1.2-.21.3-.31q.45-.47.2-1.06c-.71-1.71-1.42-3.41-2.13-5.12-.38-.89-.75-1.79-1.12-2.68-.04-.11-.06-.19,0-.29.46-.7.96-1.37,1.55-1.97Z"/>
  <path id="liv-2" data-name="liv" class="cls-1" d="m.43,16.95c.09-3.09.62-6.08,2.07-8.85,1.27-2.43,3.14-4.29,5.49-5.68C10.65.84,13.52.11,16.62.36c2.7.22,5.13,1.18,7.31,2.77,1.57,1.14,2.91,2.51,4.02,4.1.43.61.63,1.33.92,2.01.93,2.2,1.83,4.42,2.76,6.62.09.22.06.35-.1.52-3.11,3.19-6.22,6.38-9.33,9.56-.21.22-.23.35-.04.59,2.08,2.58,4.16,5.16,6.23,7.75,1.58,1.97,3.16,3.94,4.74,5.91.12.15.11.26.04.42-1.62,3.3-3.23,6.6-4.84,9.91-.11.23-.21.24-.42.11-3.44-2.14-6.77-4.45-9.92-6.99-3.63-2.93-7.09-6.05-10.28-9.45-2.02-2.15-3.55-4.62-4.79-7.29-.91-1.96-1.67-3.97-2.08-6.09-.25-1.27-.39-2.55-.4-3.85Z"/>
</svg>