<?xml version="1.0" encoding="UTF-8"?>
<svg id="Layer_2" data-name="Layer 2" xmlns="http://www.w3.org/2000/svg" viewBox="0 0 485 280">
  <defs>
    <style>
      .cls-1, .cls-2, .cls-3, .cls-4, .cls-5, .cls-6, .cls-7, .cls-8, .cls-9, .cls-10, .cls-11, .cls-12, .cls-13, .cls-14, .cls-15, .cls-16, .cls-17, .cls-18, .cls-19, .cls-20, .cls-21, .cls-22, .cls-23, .cls-24, .cls-25, .cls-26, .cls-27, .cls-28, .cls-29, .cls-30, .cls-31, .cls-32, .cls-33, .cls-34, .cls-35, .cls-36, .cls-37, .cls-38, .cls-39, .cls-40, .cls-41, .cls-42, .cls-43, .cls-44, .cls-45, .cls-46, .cls-47, .cls-48, .cls-49, .cls-50, .cls-51, .cls-52, .cls-53, .cls-54, .cls-55, .cls-56, .cls-57, .cls-58, .cls-59, .cls-60, .cls-61, .cls-62, .cls-63, .cls-64, .cls-65, .cls-66, .cls-67, .cls-68 {
        stroke-width: 0px;
      }

      .cls-2 {
        fill: #4c4c4c;
      }

      .cls-3 {
        fill: #494949;
      }

      .cls-4 {
        fill: #4f4f4f;
      }

      .cls-5 {
        fill: #525252;
      }

      .cls-6 {
        fill: #343434;
      }

      .cls-7 {
        fill: #282828;
      }

      .cls-8 {
        fill: #4e4e4e;
      }

      .cls-9 {
        fill: #353535;
      }

      .cls-10 {
        fill: #2d2d2d;
      }

      .cls-11 {
        fill: #2a2a2a;
      }

      .cls-12 {
        fill: #2c2c2c;
      }

      .cls-13 {
        fill: #2b2b2b;
      }

      .cls-14 {
        fill: #292929;
      }

      .cls-15 {
        fill: #262626;
      }

      .cls-16 {
        fill: #313131;
      }

      .cls-17 {
        fill: #383838;
      }

      .cls-18 {
        fill: #3a3a3a;
      }

      .cls-19 {
        fill: #3d3d3d;
      }

      .cls-20 {
        fill: #272727;
      }

      .cls-21 {
        fill: #393939;
      }

      .cls-22 {
        fill: #2f2f2f;
      }

      .cls-23 {
        fill: #2e2e2e;
      }

      .cls-24 {
        fill: #1a1a1a;
      }

      .cls-25 {
        fill: #1b1b1b;
      }

      .cls-26 {
        fill: #3e3e3e;
      }

      .cls-27 {
        fill: #181818;
      }

      .cls-28 {
        fill: #191919;
      }

      .cls-29 {
        fill: #363636;
      }

      .cls-30 {
        fill: #444;
      }

      .cls-31 {
        fill: #111;
      }

      .cls-32 {
        fill: #0e0e0e;
      }

      .cls-33 {
        fill: #1c1c1c;
      }

      .cls-34 {
        fill: #1d1d1d;
      }

      .cls-35 {
        fill: #0f0f0f;
      }

      .cls-36 {
        fill: #101010;
      }

      .cls-37 {
        fill: #0d0d0d;
      }

      .cls-38 {
        fill: #141414;
      }

      .cls-39 {
        fill: #070707;
      }

      .cls-40 {
        fill: #080808;
      }

      .cls-41 {
        fill: #151515;
      }

      .cls-42 {
        fill: #434343;
      }

      .cls-43 {
        fill: #0c0c0c;
      }

      .cls-44 {
        fill: #222;
      }

      .cls-45 {
        fill: #1f1f1f;
      }

      .cls-46 {
        fill: #1e1e1e;
      }

      .cls-47 {
        fill: #131313;
      }

      .cls-48 {
        fill: #121212;
      }

      .cls-49 {
        fill: #171717;
      }

      .cls-50 {
        fill: #161616;
      }

      .cls-51 {
        fill: #252525;
      }

      .cls-52 {
        fill: #242424;
      }

      .cls-53 {
        fill: #c499a2;
      }

      .cls-54 {
        fill: #bebebe;
      }

      .cls-55 {
        fill: silver;
      }

      .cls-56 {
        fill: #bdbdbd;
      }

      .cls-57 {
        fill: #a9a9a9;
      }

      .cls-58 {
        fill: #c2c2c2;
      }

      .cls-59 {
        fill: #c1c1c1;
      }

      .cls-60 {
        fill: #303030;
      }

      .cls-61 {
        fill: #323232;
      }

      .cls-62 {
        fill: #333;
      }

      .cls-63 {
        fill: #030303;
      }

      .cls-64 {
        fill: #040404;
      }

      .cls-65 {
        fill: #010101;
      }

      .cls-66 {
        fill: #060606;
      }

      .cls-67 {
        fill: #050505;
      }

      .cls-68 {
        fill: #020202;
      }
    </style>
  </defs>
  <g id="lotus">
    <g>
      <path id="_1" data-name="1" class="cls-53" d="m131.62,169.97c-22.42,11.73-33.65,28.59-30.22,36.19,3.48,7.7,24.22,10.73,48.73,1.06-9.44,9.65-7.6,23.55-.86,28.41,6.68,4.82,20.44,2.42,26.96-9.19-5.63,29.42,7.85,51.72,19.81,53.44,11.56,1.66,29.71-14.72,34.41-42.07,4.92,27.39,28.71,41.74,43.5,37.83,15.09-3.99,28.69-29.09,17.9-55.65,4.22,24.18,20.09,38.4,29.81,36.83,9.9-1.59,20.75-20.75,15.92-45.89.48,4.47,2.87,21.59,17.54,33.46,6.12,4.95,12.41,7.39,16.88,8.65,2.41,1.03,25.35,10.32,47.76-2.72,25.57-14.88,25.89-44.54,25.88-45.79,24.07.7,39.8-13.65,39.35-23.76-.42-9.42-15.15-20.93-36.02-21.19,20.04-7.85,30.47-26.97,26.89-41.38-4.37-17.59-30.45-31.54-56.07-20.17,3.26-20.85-7.58-41.33-26.31-50.2-20.03-9.48-44.7-3.62-58.63,14.31,2.73-24.85-14.86-45.94-35.21-48.37-22.69-2.71-47.03,18.01-45.98,46.19C254.41,22.3,230.14-1.41,213.06.06c-14.19,1.22-28.99,20.3-32.19,45.95-13-26.53-42.82-32.82-57.13-22.72-12.47,8.79-16.95,32.68-3.95,53.28-9.04,6.92-23.76,20.39-31.89,41.92-4.49,11.9-9.99,26.44-2.83,38.18,7.45,12.22,26.19,17.42,46.57,13.29Z"/>
      <g id="vest">
        <g id="skygge_bag_vest" data-name="skygge bag vest">
          <path class="cls-1" d="m276.82,211.43c-.33,1.66-.67,3.33-1,4.99-.08.42-.23.85.09,1.25,1.01,1.25,2.02,2.51,3.1,3.85.22-.68.39-1.19.54-1.67.26-.05.36.09.3.2-.87,1.64.12,2.22,1.47,2.8,2.25.98,4.44,2.11,6.65,3.17-.06.12-.15.18-.28.21-2.78-1.3-5.61-2.49-8.31-3.93-1.35-.72-2.04-2.25-3.01-3.43-.67-.81-1.19-1.3-1.75.04-.16.39-.54.56-.88.76-1.03.59-2.14,1.06-3.07,1.77-1.62,1.22-3.38,1.55-5.31,1.16-3.53-.71-7-.07-10.48.42-.65.09-1.31.13-1.97.19-.07-.06-.09-.12-.07-.19.02-.07.04-.1.06-.1,2.45-.35,4.89-.73,7.34-1.04,1.86-.23,3.69.24,5.54.33.7.03,1.4.12,2.23.19-.51-1.26-1.57-2.05-2.24-3.43,1.02.52,1.22,1.43,1.96,1.91-.27-1.55-.53-3.02-.78-4.49.12-.02.23-.04.35-.06.37,1.9.73,3.8,1.13,5.88,1.88-1.08,3.79-2,5.48-3.21.83-.6,1.28-1.75,1.53-2.81.41-1.7.75-3.41,1.12-5.12.27-.02.39.06.27.34Z"/>
          <path class="cls-1" d="m228.5,217.63c1.88.61,3.76,1.23,5.84,1.91-.43-1.48-.81-2.82-1.2-4.16.92.8.81,2.01,1.49,3.11.86-1.76,1.66-3.4,2.47-5.04.11.05.23.1.34.16-.94,1.99-1.88,3.98-2.81,5.96.53.49,1.4.28,1.79.97-1.39-.04-2.58-.77-3.87-1.15-1.46-.43-2.89-.99-4.34-1.49-.05-.24,0-.38.29-.27Z"/>
          <path class="cls-1" d="m279.5,60.06c-.8.56-1.63.11-2.42,0-3.92-.52-7.87-.82-11.76-1.57,1.05-.68,2.11-.01,3.12.08,3.49.3,6.97.82,10.45,1.27.21.03.41.14.61.22Z"/>
          <path class="cls-1" d="m264.89,58.22c-.8.56-1.63.11-2.42,0-3.92-.51-7.87-.82-11.76-1.57,1.05-.68,2.11,0,3.12.08,3.49.3,6.97.82,10.45,1.27.21.03.41.14.61.22Z"/>
          <path class="cls-1" d="m252.89,222.93c0,.1.01.19.02.29-.83.34-1.65.31-2.47-.03.05-.16.21-.18.32-.26.32,0,.64-.02.55-.48-.08-.47-.15-.94-.23-1.4.07-.11.08-.26.24-.3.13.39.26.78.45,1.37.7-1.51,1.35-2.89,1.99-4.27.11.05.22.1.34.15-.61,1.37-1.18,2.76-1.83,4.12-.37.77-.07.9.61.82Z"/>
          <path class="cls-1" d="m298.01,226.02c0,.09,0,.17,0,.26-3.44-.02-6.88-.03-10.32-.05.09-.07.19-.14.28-.21,2.5,0,5.01-.07,7.51,0,1.04.03.9-.4.68-1.02-.17-.3.1-.42.24-.59,0-.08.01-.15.07-.2.08-.12.15-.13.23,0,0,.17.05.35.01.51-.28,1.14.29,1.43,1.3,1.3Z"/>
          <path class="cls-1" d="m239.73,221.02c2.48.35,4.95.75,7.39,1.31-.04.17-.21.19-.33.27-2.48-.44-4.96-.87-7.43-1.31-.02-.28.1-.39.38-.27Z"/>
          <path class="cls-1" d="m241.19,58.16c-.12-.09-.23-.17-.35-.26,1.68-.69,3.4-1.26,5.16-1.74.19.1.36.2.29.46-1.59.85-3.21,1.64-5.1,1.54Z"/>
          <path class="cls-1" d="m246.28,56.42c-.09-.09-.19-.17-.28-.26,1.37-.58,2.68-.07,3.99.23-.49.55-1.05.14-1.54.04-1.11-.21-1.74.07-1.7,1.28-.11,0-.22-.02-.33-.03-.33-.39-.07-.84-.14-1.26Z"/>
          <path class="cls-1" d="m221.81,215.13c.08-.12.16-.25.24-.37,1.07.79,2.29,1.3,3.49,1.85.1.12.1.23-.01.34-1.36-.37-2.53-1.12-3.72-1.83Z"/>
          <path class="cls-1" d="m225.53,216.96c0-.11,0-.23.01-.34,1.01.25,2.02.54,2.96,1.01-.1.09-.19.18-.29.27-.92-.24-1.84-.47-2.68-.93Z"/>
          <path class="cls-1" d="m246.79,222.61c.11-.09.22-.18.33-.27,1.21.2,2.43.4,3.64.6-.11.09-.21.17-.32.26-1.22-.2-2.43-.39-3.65-.59Z"/>
          <path class="cls-1" d="m239.73,221.02c-.13.09-.25.18-.38.27-.79-.28-1.8.13-2.39-.76.92.16,1.84.32,2.76.48Z"/>
          <path class="cls-1" d="m251.33,220.75c-.08.1-.16.2-.24.3-.18-.75-.35-1.51-.53-2.26.62.56.74,1.25.77,1.96Z"/>
          <path class="cls-1" d="m306.48,224.48c-.07,0-.14,0-.21,0-.64-1.19-1.28-2.38-1.44-3.79.42.83.83,1.67,1.3,2.6.58-.78.25-1.8.95-2.63.05,1.43-.38,2.61-.6,3.82Z"/>
          <path class="cls-1" d="m296.69,224.22c-.08,0-.15,0-.23,0,.14-1.39.27-2.78.41-4.17.12.01.24.03.36.04-.18,1.38-.36,2.75-.54,4.13Z"/>
          <path class="cls-1" d="m296.39,224.42c-.08.2-.16.39-.24.59-.52-.93-.91-1.9-1.18-3.21.88.88.8,1.93,1.42,2.62Z"/>
          <g>
            <path class="cls-1" d="m236.97,220.54c-.18,0-.37,0-.55,0-2.67-1.01-2.23-.73-1.13-2.85.3-.58.61-1.16.86-1.76.24-.59.49-1.19.78-1.76-.59,1.15-1,2.39-1.65,3.51-.19.32-.22.86-.69.86-.56,0-.4-.58-.54-.91-.19-.43-.3-.89-.47-1.32.29.76.44,1.57.77,2.31.14.31.19.6-.02.86-.25.31-.58.1-.85,0-1.67-.56-3.35-1.06-5-1.67-.96-.38-1.98-.6-2.92-1.05-1.32-.36-2.48-1.04-3.57-1.84-.04-.12-.04-.24-.01-.37.7-.7,1.34-1.44,1.84-2.16-.49.45-.79,1.2-1.42,1.67-.42.31-.71.39-.7-.29,0-1.76,0-3.51,0-5.27.02,1.91-.01,3.82,0,5.73-.15.68-.55.32-.9.21-1.72-.5-2.59-1.98-3.42-3.28-1.23-1.92-2.35-3.97-2.66-6.31-.22-1.98-.33-3.98-.65-5.95-.41-2.52.3-4.91.56-7.35.03-.3.1-.6.07-.91.08-.17.16-.34.24-.51.08-2.12.47-4.21.89-6.28.23-1.12,1.28-1.94,1.93-2.92.39-.61,1.01-.42,1.57-.43.86-.02,1.72-.01,2.33,0-1.06-.19-2.42.25-3.72-.19-1.04-.63-2.01-1.36-3.03-2.01-.7-.45-1.17-1.05-1.14-1.9.03-.91-.15-1.8-.15-2.71.14-3.53.92-6.99,1.37-10.48.48-3.67,1.16-7.31,2.14-10.89.13-.46.23-.93.19-1.42-.02-.09,0-.17.04-.25,1.02-2.84,1.5-5.82,2.25-8.74.44-1.72.4-1.74,2.17-1.73.53,0,1.06-.05,1.45.02-.7-.08-1.54-.03-2.37-.02-.63,0-.93-.26-1.15-.84-1.36-3.64-2.8-7.26-4.11-10.92-.16-1.21.12-2.42.03-3.63.24-.82.04-1.68.17-2.51.2-.83.03-1.67.1-2.51.24-.81.03-1.66.16-2.48.19-.79.05-1.59.09-2.38.45-.9-.08-1.87.21-2.78.13-.79,0-1.59.07-2.38.23-.81.02-1.66.16-2.48.19-.84.01-1.7.11-2.54.3-.89-.18-1.89.37-2.76-.17-.66-.04-1.31,0-1.97-1.69-4.16-3.11-8.43-4.68-12.63-.17-.46-.19-.91-.12-1.4.23-1.64.6-3.26.73-4.9.09-1.09.59-1.63,1.68-1.68,1.29-.25,2.58-.54,3.87-.81.48-.05.96-.19,1.41-.33,2.24-.72,3.74.39,4.92,2.02,1.69,2.34,3.25,4.77,4.86,7.16,2.93,4.43,6.31,8.53,9.39,12.85,3.74,5.25,7.51,10.47,11.28,15.7,1.97,2.74,4.46,5.07,6.76,7.53,2.54,2.72,5.01,5.52,7.63,8.17.39.4.65,1,1.38.71.73-.29,1.54-.52,1.73-1.45.17-.86.34-1.71.48-2.58.52-3.11,1.04-6.22,1.57-9.32.07-.43.13-.85,0-1.28q-.45-2.3,1.96-2.3c.18,0,.35,0,.37,0-.3-.01-.75,0-1.21,0-.68,0-1.37.04-1.67-.74-.32-.84-.55-1.69.21-2.45.12-.12.24-.26.37-.38,4.97-4.73,9.5-9.9,14.52-14.59,3.46-3.24,6.42-6.85,9.08-10.74,2.15-3.16,4.45-6.21,6.65-9.33.31-.45.55-1.04,1.29-.94,2.79,1.08,5.47,2.42,8.28,3.46.98.36,1.15,1.37,1.7,2.08.69.91.28,1.63-.04,2.53-1.53,4.28-4.36,7.73-7.08,11.26-.72.93-1,1.76-.65,2.96,1.22,4.28,1.47,8.76,2.55,13.08.31.89.25,1.81.24,2.72-.01.73-.34,1.12-1.14,1.1-1.15-.02-2.29,0-3.44,0,1.14,0,2.28.02,3.42,0,.82-.02,1.12.34,1.03,1.11-.16,1.25-.18,2.52-.51,3.75,0,.71-.1,1.42-.22,2.12.06.74-.36,1.43-.21,2.18,0,.28,0,.57,0,.85-.63,1.96-.85,4.01-1.12,6.02-.31,2.33-1.18,4.24-2.97,5.76-.71.6-1.25,1.36-1.79,2.1-.55.75-1.2.91-2.04.91-8.49,0-16.97-.02-25.46.01-1.13,0-1.79-.28-2.12-1.44-.47-1.66-1.19-3.24-1.66-4.9.43,1.62.99,3.21,1.64,4.76.52,1.24.74,2.48.23,3.68-1.31,3.06-.31,5.67,1.36,8.24,1.24,1.92,2.04,4.07,3.22,6.03.3.5.31,1.09.31,1.66,0,1.4.04,2.8,0,4.2-.07,2.29,0,4.54.99,6.68.35.76.19,1.52-.04,2.3-.87,2.97-2.49,5.59-3.83,8.35-.15.32-.32.64-.45.97-1.23,1.93-.93,3.83-.1,5.83,1.44,3.47,2.52,7.07,3.66,10.64.62,1.95.71,4.03.97,6.05.33,2.58.82,5.16.67,7.79-.3,1.76-.67,3.52-1.14,5.24-.41,1.48-1.27,2.74-2.73,3.52-1.24.66-2.45,1.38-3.67,2.08-.9.52-1.34.33-1.41-.67-.09-1.26-.42-2.48-.59-3.72.08,1.16.61,2.28.45,3.5-.62-.04-.66-.61-1.02-.84-.02,0,.06.04.1.13.3.7,1.55,1.16,1.06,1.91-.42.65-1.53.27-2.33.14-3.53-.58-7.01-.16-10.48.41-.69.11-1.39.26-2.09.24-1.16-.02-1.32-.21-.87-1.13.53-1.09.94-2.24,1.61-3.45-.85,1.27-1.02,2.72-2.01,3.81-.48-.49-.37-1.01-.54-1.44-.05-.42-.16-.82-.3-1.21.19.52.25,1.08.39,1.62-.03.66.79,1.56-.52,1.87-1.23-.22-2.46-.42-3.69-.63-2.46-.39-4.9-.92-7.37-1.3-.91-.23-1.88-.19-2.74-.64Z"/>
            <path class="cls-1" d="m311.01,197.41c.09.63.18,1.25.26,1.88.31,1.89.55,3.79,1.34,5.57.68,1.51.65,3.16.71,4.75.09,2.87.4,5.76-.19,8.6-.37,1.74-.94,3.45-1.48,5.16-.15.48-.34.93-.93.96-1.41.06-2.78.44-4.19.42-.63-1.18.47-2.14.29-3.1-.2.47-.05,1.27-.71,1.94-.54-.77-.82-1.57-1.13-2.26.22,1.16,1.34,2.07,1.28,3.42-2.47.76-5.07.77-7.58,1.3-.25.05-.52.05-.77.13-1.53,0-1.57-.05-1.38-1.72.19-1.06.31-2.13.33-3.13-.07.89-.07,1.86-.31,2.81,0,.13-.04.25-.09.37-.97-.41-.71-1.51-1.19-2.07-.11-.26-.23.06-.11-.07.51.94.83,1.95,1.26,2.93.3.89-.25.91-.89.9-2.41-.01-4.82,0-7.23,0-.77-.05-1.41-.46-2.08-.78-2.01-.99-4.02-1.98-6.07-2.89-1.09-.48-1.12-.6-.52-1.86-.62,1.13-.61,1.13-1.55.02-.31-.37-.57-.82-.92-1.1-1.77-1.43-1.81-3.18-1.17-5.14.34-1.03.47-2.12.71-3.18.29-1.93-.23-3.8-.35-5.7-.4-6.56-2.55-12.69-4.83-18.78-.09-.25-.15-.51-.27-.74-1.03-1.89-.69-3.67.42-5.4,1.5-.31,3-.1,4.5-.13-1.06-.03-2.13,0-3.2-.03-.39-.01-.92.24-1.1-.39.65-1.58,1.44-3.09,2.27-4.57.83-1.47,1.28-3.06,1.84-4.62.13-.38.24-.75.05-1.14-1.44-2.87-1.24-5.95-1.08-8.98.13-2.41-.48-4.49-1.7-6.55-1.2-2.03-2.27-4.14-3.34-6.24-.66-1.31-.51-1.55,1.02-1.58,1.5-.03,3,0,4.5-.02,2.91.05,5.82-.1,8.73.08,1.79.38,3.6.11,5.4.18,1.19.04,2.38,0,3.57,0,1.43.06,2.86-.1,4.29.1.79.39.98,1.2,1.28,1.9.9,2.04,1.86,4.05,3.35,5.73,1.87,2.11,2.53,4.72,3.23,7.32.09.34.22.66.27,1.01,0,.78.02,1.57,0,2.35.28,3.94-1.54,7.39-2.59,11.02-.15,1.45-.07,2.92-.29,4.37,0,0-.09.02.01.07,2.3,1.25,4.16,2.92,5.08,5.44.54,1.48.92,3,1.5,4.46.59,2.08,1.06,4.18,1.37,6.32.04.26.18.48.37.67Z"/>
            <path class="cls-1" d="m264.89,58.22c.14.09.28.18.42.27,2.75.13,5.46.63,8.19.91,2,.21,3.98.61,5.99.65.14.09.28.18.43.28,2.65.03,2.66.05,1.52,2.3-.59,1.16-1.13,2.35-1.81,3.46-1.19,2.14-2.26,4.35-3.34,6.55-.7,1.42-1.67,2.08-3.33,1.99-4.18-.23-8.35-.51-12.54-.58-1.36-.02-1.58-.4-1.26-1.74.08-.33.14-.68.17-.74-.13.36-.17,1.05-.46,1.65-.4.83-1.21.5-1.88.59-.22,0-.44,0-.66,0-1.85-.05-1.92-.16-1.22-1.88-.35.24-.1,1.06-.83.81-.42-.14-.56-.59-.77-.89.12.47.88.81.64,1.29-.31.62-1.1.39-1.7.4-3.05.04-3.03.02-4.26-2.78-.7-1.6-1.32-3.24-2.12-4.79-.86-1.67-.15-3.35-.03-5.01.08-1.12.28-2.24.41-3.37.1-1.15.7-1.57,1.86-1.35.55.11,1.12.21,1.69.14.29-.03.51.11.72.27,2.75.13,5.46.63,8.19.91,2,.21,3.98.61,5.99.66Z"/>
            <path class="cls-1" d="m246.75,57.7c-.18,1.52-.22,3.06-.57,4.54-.39,1.69-.06,3.16.66,4.66.85,1.77,1.59,3.59,2.38,5.39.19.44.35.89.99.88,1.27-.02,2.55,0,3.94,0-.55-.77-1.08-1.52-1.62-2.27.09-.06.17-.13.26-.19.52.65,1.03,1.3,1.57,1.98.63-.48.46-1.34,1.13-1.94.08,1.02-.66,1.73-.63,2.62.67.04,1.33.09,1.99.13-.21.77-.89.49-1.38.61-1.83-.1-3.69.26-5.3-.22-.09-.07.05,0,.09.11.61,1.76,1.97,1.97,3.64,2.05,4.49.22,8.97.52,13.46.73,1.18.06,2.38.08,3.5.53.18.76-.46.57-.83.71-4.94.03-9.85-.43-14.77-.72-1.04-.06-2.46-.51-3.03.19-.58.71.53,1.77.85,2.69,1.72,4.88,5.28,8.63,8.06,12.85.65.99,1.34,1.95,2.01,2.92.18.28.42.51.58.8,1.36,3.51,2.86,6.97,4.19,10.5.3.8.62.8,1.21.26,4.44-4.07,8.83-8.19,13.23-12.31,1.38-1.3,2.61-2.71,3.74-4.24,5.23-7.05,10.46-14.11,15.69-21.17.76-1.02.75-1.03-.48-1.49-5.66-2.13-11.31-4.28-16.96-6.46-1.75-.67-1.74-.64-2.64.98-.63,1.14-.92,2.47-1.99,3.36-.22,0-.39-.05-.29-.33.84-1.69,1.69-3.39,2.54-5.09-.77-.16-1.41-.29-2.05-.42,1.03-.58,2.06-.11,2.94.22,7.53,2.8,15.03,5.69,22.55,8.53.74.28.72.52.31,1.08-1.43,1.93-2.82,3.89-4.22,5.84.1.16.08.31-.06.44-.47.15-.63.58-.88.93-3.4,4.73-6.8,9.46-10.17,14.21-1.33,1.88-3.09,3.36-4.68,4.98-5.11,5.2-10.29,10.33-15.43,15.51-.47.47-1.02.85-.85,1.76.22,1.15.64,1.68,1.89,1.51.79-.11,1.62-.02,2.43-.02,0,.12,0,.24,0,.36h-3.83c.1.73.18,1.29.26,1.85.1.29.16.55-.25.65-.6-.44-.61-1.14-.77-1.76-1.31-5.13-2.72-10.23-4.73-15.16-1.2-2.96-2.73-5.67-4.63-8.21-1.6-2.14-3.07-4.39-4.67-6.54-2.19-2.93-3.24-6.4-4.73-9.66-1.66-3.63-3.24-7.29-4.81-10.95-.34-.79-.46-1.55-.34-2.42.22-1.56.44-3.12.64-4.68.05-.43,0-.89.46-1.17.14-.04.27-.01.39.08Z"/>
            <path class="cls-1" d="m293.25,146.95c-3.02.05-6.03.13-9.04-.19-.07-.07-.09-.14-.08-.22.01-.08.03-.12.05-.12.86-.22,1.06-.59.55-1.42-.68-1.11-1.34-2.25-1.9-3.43-.15-.32-.36-.61-.73-.71-.29-.09-.63-.2-.87.06-.22.23,0,.49.09.72.45,1.04,1.13,1.96,1.64,2.98.25.5.63.96.51,1.58-.09.09-.21.13-.33.15-.99-.5-1.17-1.58-1.72-2.38-.44-.64-.71-1.4-1.1-2.09-.19-.34-.38-.7-.73-.91-.31-.18-.69-.32-.99-.06-.29.26,0,.57.12.83.51,1.06,1.21,2.02,1.71,3.09.16.35.44.66.42,1.08-.07.19-.2.32-.39.38-1.13-.62-1.28-1.91-1.96-2.84-.43-.59-.69-1.31-1.1-1.93-.2-.29-.39-.59-.76-.68-.3-.07-.63-.15-.89.06-.33.27-.07.56.06.82.49,1.02,1.02,2.03,1.52,3.04.23.46.54.91.42,1.48-.07.19-.2.31-.41.31-1.22-1.4-1.65-3.24-2.72-4.72-.27-.37-.38-.9-1.13-.96.26,1.95,1.63,3.41,2.09,5.22,0,.28-.2.45-.38.63-1.5,0-3.01.06-4.51-.02-.94-.05-1.21.07-.7,1.01,1.51,2.76,2.94,5.57,4.46,8.33.52.95.8,1.9.75,2.99-.06,1.53.05,3.07-.03,4.59-.1,2,.12,3.92.98,5.74.26.55.23,1.08.07,1.64-.94,3.16-2.51,6.03-4.17,8.85-.09.12-.19.13-.28,0,.31-1.1,1-2.03,1.49-3.05.38-.79.85-1.53,1.21-2.33,1.02-2.28,2.01-4.53.56-7.05-.65-1.13-.4-2.52-.27-3.75.48-4.26-.55-8.08-2.92-11.64-.92-1.38-1.52-2.95-2.37-4.38-.49-.83-.55-1.62-.32-2.49.06-.21.08-.43.16-.63,1.31-3.26.4-6.31-.87-9.34-.31-.74-.67-1.49-.44-2.4.62,1.75,1.35,3.46,1.83,5.25.4,1.48,1.04,2.02,2.69,2,8.4-.12,16.8-.1,25.2-.09.79,0,1.36-.18,1.78-.84.16-.26.33-.54.57-.72,3.99-2.95,4.13-7.43,4.83-11.7.07-.42-.17-1.02.53-1.18-.44,2.74-.88,5.48-1.33,8.22-.11.7-.38,1.3-.88,1.84-1.76,1.95-3.47,3.95-5.2,5.94-.1-.07-.17-.17-.22-.27-.88-.95-1.95-.31-2.93-.34-.12.02-.24.03-.37.02-.69-.11-1.38-.19-2.22-.14.76,1.39,1.39,2.77,2.14,4.1.23.41.55.78.5,1.3-.07.19-.21.32-.4.38-.58-.1-.7-.61-.93-1.01-.56-1.03-1.11-2.08-1.62-3.13-.63-1.3-1.49-2-2.87-1.61.72.82,1.18,1.91,1.75,2.92.64,1.14,1.18,2.32,2.47,2.89.03.13,0,.25-.08.36Z"/>
            <path class="cls-1" d="m268.59,128.68c-.1.6-.19,1.2-.3,1.8-.26,1.43-1.04,2.16-2.45,2.41-.46.08-.65-.18-.88-.43-4.66-5.02-9.47-9.92-13.92-15.12-2.87-3.35-5.19-7.17-7.79-10.75-4.33-5.96-8.69-11.9-13.03-17.85-.26-.35-.46-.74-.69-1.11-.11-.27.06-.32.27-.34.5.17.73.61,1.01,1,3.48,4.91,7.28,9.58,10.68,14.54.29.43.62.67,1.19.68.66,0,1.03.46.75,1.05-.3.63.04.98.34,1.4,2.48,3.52,5.01,6.99,7.47,10.52.88,1.27,2.05,2.3,3.1,3.41,3.47,3.67,6.83,7.44,10.32,11.09.24.25.49.51.77.72.37.29.77.28,1.09-.02.38-.36-.02-.64-.21-.89-2.14-2.67-4.35-5.29-6.51-7.95-6.11-7.49-12.27-14.93-18.37-22.42-1.61-1.98-2.65-4.34-3.98-6.5-4.9-7.96-9.14-16.28-13.38-24.6-.62-1.21-.63-1.21-1.7-.4-.21.16-.41.33-.62.49-1.22.93-2.39,1.88-1.07,3.56.07.09,0,.26-.04.38-.08.12-.19.14-.31.07-1.61-2.31-1.63-2.34.47-4.08,1.13-.94,2.11-2.06,3.45-2.74.28-.11.33.07.36.27-.16.53-.03,1,.21,1.5,5.03,10.37,10.6,20.45,16.68,30.25,1.5,2.42,3.53,4.47,5.33,6.68,6.7,8.23,13.46,16.42,20.19,24.63.13.16.2.39.5.41.44-.72.11-1.75.91-2.34.35.13.29.38.19.65Z"/>
            <path class="cls-1" d="m306.48,224.48c1.45.17,2.83-.37,4.27-.36.44,0,.58-.34.71-.67,2.22-5.7,2.07-11.62,1.25-17.49-.27-1.96-1.2-3.89-1.57-5.9-.05-.26-.32-.58.13-.77.93,3.87,2.36,7.61,2.38,11.71.02,4.27-.22,8.43-1.75,12.47-.28.73-.56.98-1.34,1.08-4.19.53-8.37,1.15-12.56,1.74-.09-.06-.11-.12-.09-.17.03-.06.06-.09.09-.09,2.49-.64,5.08-.76,7.59-1.27.24-.05.54.03.67-.28.07-.12.14-.12.21,0Z"/>
            <path class="cls-1" d="m301.45,76.44c.02-.15.04-.29.06-.44,2.74,1.17,5.48,2.35,8.23,3.52,1.71.73,2.57,3.1,1.96,4.81-1.57,4.36-4.42,7.91-7.23,11.49-.68.87-.84,1.65-.55,2.73,1.11,4.18,1.61,8.47,2.34,12.72.16.26,0,.29-.21.27-1.15-4.58-1.44-9.32-2.74-13.87-.14-.51-.05-.91.28-1.33.84-1.07,1.58-2.22,2.46-3.25,2.27-2.67,3.93-5.67,5.24-8.89.6-1.47-.23-3.64-1.73-4.28-2.7-1.16-5.41-2.31-8.12-3.47Z"/>
            <path class="cls-1" d="m215.73,128.61c1.33,3.41,2.7,6.81,3.97,10.24.31.85.71,1.15,1.61,1.08,1.11-.08,2.23-.02,3.35.13-1.11.49-2.28.29-3.41.3-.77,0-1.15.15-1.33,1.01-.6,2.81-1.33,5.6-2.01,8.39-.09.35.04.85-.56.88.46-2.02.73-4.11,1.41-6.06,1.02-2.96.89-5.69-.5-8.53-1.12-2.3-1.84-4.79-2.74-7.19.04-.11.12-.2.22-.26Z"/>
            <path class="cls-1" d="m217.3,150.9c.53.3.18.7.09,1.03-1.75,6.45-2.38,13.1-3.47,19.67-.12.73-.09,1.48-.13,2.22-.18.35.11.79-.23,1.1-.63-2.06.06-4.07.35-6.08.85-5.91,1.64-11.84,3.19-17.63.03-.11.13-.21.2-.31Z"/>
            <path class="cls-1" d="m229.73,87.39c-.07.09-.14.17-.2.26-1.55-2.26-3.11-4.52-4.66-6.78-1.69-2.46-2.58-2.83-5.44-2.26-.25.05-.52.05-.78.07,0-.06,0-.12,0-.18,1.45-.38,2.88-1.37,4.54-.18-.96-1.62-1.92-3.25-2.89-4.87.12,0,.24-.02.36-.03.61.11.83.62,1.09,1.06,2.28,3.93,4.94,7.63,7.44,11.42.29.44.82.82.55,1.48Z"/>
            <path class="cls-1" d="m214.73,79.54c-1.21.08-1.49.89-1.6,1.91-.12,1.12-.3,2.25-.52,3.36-.26,1.31-.1,2.52.4,3.79,1.35,3.49,2.58,7.03,3.85,10.55.1.28.14.58.2.88-.5-.1-.51-.54-.64-.9-1.41-3.84-2.78-7.69-4.24-11.51-.48-1.26.07-2.41.14-3.6.07-1.08.35-2.15.47-3.23.11-1,.55-1.55,1.62-1.49.12.07.28.08.31.25Z"/>
            <path class="cls-1" d="m224.48,66.83c-.09-.07-.17-.13-.26-.2,2.96-2.05,5.8-4.31,8.92-6.07,2.34-1.32,5.08-1.91,7.7-2.67.25-.09.38.02.43.26-.21.45-.66.54-1.07.69-.87.32-1.73.65-2.63.86-3.11.75-5.73,2.37-8.24,4.25-1.26.95-2.63,1.74-3.93,2.64-.27.18-.54.5-.93.23Z"/>
            <path class="cls-1" d="m305.41,162.5s-.09-.05-.1-.09c-.71-3.8-2.59-6.99-4.88-10.07-1.18-1.58-1.83-3.54-2.72-5.33.11-.13.24-.14.38-.04,1.6,3.44,3.64,6.6,5.8,9.72,1.15,1.66,1.28,3.83,1.79,5.8-.09.12-.18.12-.27,0Z"/>
            <path class="cls-1" d="m306.05,111.52l.21-.27c.4.26.33.71.35,1.06.15,2.75.1,5.49-.66,8.17-.06.11-.13.12-.2,0,.13-1.21.25-2.42.4-3.63.09-.76-.03-1.18-.99-1.13-1.64.09-3.28.02-4.93.02,0-.16,0-.32-.01-.48,1.32,0,2.63,0,3.95,0,2.23,0,2.24,0,2.12-2.2-.03-.52-.15-1.03-.23-1.55Z"/>
            <path class="cls-1" d="m309.06,190.37c-.25-.69-.59-1.37-.72-2.08-.54-2.98-2.25-5.21-4.53-7.1-.1-.08-.18-.25-.28-.26-1.75-.28-.89-1.55-.91-2.44-.02-.78.13-1.56.21-2.34.11-.08.21-.08.3.02-.68,2.74.43,4.77,2.64,6.32,2.15,1.5,2.28,3.99,3.11,6.14.21.55.35,1.14.51,1.71-.09.14-.2.15-.33.04Z"/>
            <path class="cls-1" d="m214.69,190.64c.49,1.02,0,2.02-.2,2.98-.75,3.42.06,6.76.31,10.14.03.43.07.87.11,1.3-.09.12-.19.13-.29.02-.79-4.69-1.23-9.39-.12-14.09.03-.12.13-.22.2-.33Z"/>
            <path class="cls-1" d="m303.12,176.17l-.3-.02c.17-1.66.94-3.15,1.51-4.69.59-1.61.95-3.24.89-4.96-.02-.45-.11-.96.19-1.39.08-.12.17-.12.26,0,.23,2.93-.56,5.67-1.62,8.36-.35.89-.62,1.8-.93,2.7Z"/>
            <path class="cls-1" d="m214.61,205.06c.1,0,.19-.01.29-.02,1.11,3.54,2.39,6.98,5.78,9.11.25.16.57.19.86.29.18.18.2.36.04.56-4.39-1.89-5.86-5.79-6.96-9.94Z"/>
            <path class="cls-1" d="m217.78,181.12c-2.09,2.18-2.13,5.03-2.54,7.75-.07.43-.05.87-.3,1.25-.18-.08-.28-.22-.25-.41.55-3.08.25-6.43,2.9-8.83.11.04.18.12.19.24Z"/>
            <path class="cls-1" d="m298.09,146.98c-.13.01-.25.03-.38.04-1.49-.02-2.98-.05-4.46-.07.01-.08,0-.17,0-.25.38-.42.87-.13,1.3-.2.07-.09.14-.19.21-.28.82-.08,1.86.79,2.39-.55.08-.09.17-.17.25-.25.04-1.01-.08-2.01,0-3.01.04-.51-.04-1.08.6-1.33.01.14.03.27.04.41.02,1.83.05,3.66.07,5.49Z"/>
            <path class="cls-1" d="m213.56,174.92c.1-.36-.06-.78.23-1.1-.36,2.8.89,4.67,3.43,5.8.23.1.4.32.6.49-.04.11-.11.18-.23.21-.66-.43-1.28-.94-1.99-1.26-1.83-.85-2.35-2.28-2.04-4.13Z"/>
            <path class="cls-1" d="m309.06,190.37c.11-.01.22-.02.33-.04.94,2.27,1.08,4.72,1.63,7.07-.47.09-.47-.25-.52-.55-.39-2.18-.79-4.36-1.43-6.48Z"/>
            <path class="cls-1" d="m221.57,215.01c-.01-.19-.03-.38-.04-.56,0-2.12,0-4.24,0-6.36.11,0,.21,0,.32,0v6.12c.09.11.26.16.3.32-.03.08-.07.17-.1.25-.06.14-.08.3-.24.37-.08-.04-.16-.08-.24-.13Z"/>
            <path class="cls-1" d="m214.73,79.54c-.1-.08-.21-.17-.31-.25,1.41-.26,2.78-.76,4.23-.79,0,.06,0,.12,0,.18-1.27.44-2.59.67-3.92.86Z"/>
            <path class="cls-1" d="m216.48,112.31c.22.7-.25,1.5.35,2.17.1.12-.3.18-.49.23-.1.11-.21.11-.31,0-.06-.9-.07-1.79.21-2.67.12.06.2.15.24.27Z"/>
            <path class="cls-1" d="m217.6,180.32c.08-.07.15-.14.23-.21,1.43.48,2.94,0,4.4.52-1.03,0-2.05,0-3.08,0-.52,0-1.07-.09-1.37.5-.06-.08-.13-.16-.19-.24,0-.19.2-.37.01-.56Z"/>
            <path class="cls-1" d="m215.73,128.61l-.22.26c-.43-1.39.04-2.79-.01-4.18.09-.09.19-.09.29,0-.02,1.31-.03,2.62-.05,3.93Z"/>
            <path class="cls-1" d="m217.06,101.99c-.02.92.16,1.86-.22,2.76-.18-.01-.19-.18-.27-.28.09-.84-.48-1.81.49-2.48Z"/>
            <path class="cls-1" d="m215.78,124.68c-.1,0-.19,0-.29,0-.04-.9-.1-1.8.21-2.67.16.02.17.18.26.27.04.8.15,1.61-.18,2.39Z"/>
            <path class="cls-1" d="m216.21,117.3c.05.81.17,1.62-.18,2.39-.09.12-.18.12-.27,0-.06-.9-.09-1.8.2-2.67.17,0,.16.18.25.27Z"/>
            <path class="cls-1" d="m216.74,107.31c.08.82.16,1.64-.17,2.43-.17-.01-.19-.18-.27-.28-.06-.82-.14-1.64.18-2.42.16.02.18.17.26.27Z"/>
            <path class="cls-1" d="m305.74,120.48c.07-.01.13-.01.2,0,.06.71.13,1.43-.21,2.1-.08.13-.16.12-.24,0,.08-.7.17-1.4.25-2.09Z"/>
            <path class="cls-1" d="m216.74,107.31c-.09-.09-.17-.18-.26-.27.03-.86.05-1.71.08-2.57.09.09.18.19.27.28-.03.85-.06,1.71-.09,2.56Z"/>
            <path class="cls-1" d="m216.3,109.47c.09.09.18.19.27.28-.03.86-.06,1.71-.09,2.57-.08-.09-.16-.18-.24-.27.02-.86.05-1.72.07-2.57Z"/>
            <path class="cls-1" d="m305.66,165.11h-.13s-.13,0-.13,0c0-.87,0-1.74,0-2.61.09,0,.18,0,.27,0,.17.87.02,1.74-.01,2.61Z"/>
            <path class="cls-1" d="m305.49,122.58c.08,0,.16,0,.24,0,.12.72-.13,1.38-.31,2.06-.46-.7.12-1.37.07-2.06Z"/>
            <path class="cls-1" d="m215.77,119.7c.09,0,.18,0,.27,0-.03.87-.05,1.73-.08,2.6-.09-.09-.17-.18-.26-.27.02-.77.04-1.55.06-2.32Z"/>
            <path class="cls-1" d="m216.21,117.3c-.08-.09-.17-.18-.25-.27.02-.77.04-1.55.06-2.32.1,0,.21,0,.31,0-.04.86-.08,1.73-.12,2.59Z"/>
            <path class="cls-1" d="m276.82,211.43c-.09-.11-.18-.23-.27-.34.03-3.28-.57-6.5-.96-9.75-.64-5.39-2.82-10.33-4.64-15.36-.73-2.03-.54-3.66.52-5.36.11.04.18.12.21.24-1.21,1.99-.71,3.89.05,5.93,1.44,3.88,3.01,7.74,3.84,11.81.76,3.72,1.08,7.52,1.46,11.3.05.52.08,1.05-.22,1.53Z"/>
            <path class="cls-1" d="m272.57,165.22c-.66,1.1-1.31,2.19-1.98,3.26-.12.19-.31.06-.45-.04-.1-.08-.2-.17-.28-.27-.67-.84-2.23-1.47-2-2.39.35-1.36,1.49-2.53,2.31-3.77.1-.16.3-.26.43-.07.67,1.08,1.31,2.17,1.98,3.28Z"/>
            <path class="cls-1" d="m271.09,196.08c-1.05-.91-2.01-1.77-3.01-2.6-.44-.36-.4-.68-.08-1.09.68-.9,1.33-1.82,2.1-2.87.79,1.26,1.52,2.43,2.27,3.59.33.51-.11.8-.28,1.16-.29.58-.62,1.14-.99,1.82Z"/>
            <path class="cls-1" d="m237.93,183.29c-.37-.41-.74-.81-1.11-1.22-.64.49-.77,1.41-1.64,1.79,2.12-2.25.98-5.1,1.54-7.64.76,2.27-.78,4.96,1.63,6.88-.13.06-.27.13-.4.19Z"/>
            <path class="cls-1" d="m268.59,128.68c-.09-.19-.18-.39-.27-.58-.3-.28-.25-.64-.2-.98.41-2.84.94-5.66,1.45-8.48.04-.22.15-.41.34-.54.09-.19.18-.39.26-.58.56,1.28-.09,2.48-.27,3.7-.38,2.49-.87,4.97-1.32,7.46Z"/>
            <path class="cls-1" d="m267.88,137.78c.17.32.32.58.46.84.77,1.48.45,2.79-.89,3.74-.07.05-.17.15-.21.13-.89-.46-1.28-1.38-1.94-2.05-.38-.39.02-.65.26-.85.74-.61,1.51-1.18,2.33-1.81Z"/>
            <path class="cls-1" d="m240.5,111.05c-.41,1.97-1.07,3.6-1.16,5.38-.17-1.44-.6-2.79-1.15-4.45.87.57.74,1.26,1.05,1.71.61-.69.29-1.78,1.26-2.63Z"/>
            <path class="cls-1" d="m259.23,182.66c.18-1.6.36-3.19.55-4.91-.8.44-1.5.84-2.21,1.23-.06-.09-.13-.19-.19-.28.87-.56,1.75-1.11,2.92-1.86-.24,2.13-.45,3.99-.66,5.84-.14,0-.27,0-.41,0Z"/>
            <path class="cls-1" d="m257.49,143.77v-4.26c.6.09.23.64.55.82.52-.14.61-.84,1.65-1-1.59,1.33-2.03,2.82-1.87,4.54-.11-.03-.22-.06-.33-.08Z"/>
            <path class="cls-1" d="m246.28,179.04c.29.24.58.48.88.73.69-.35.11-1.32.92-1.65-.1,1.85-.75,3.48-1.62,5.06-.04-1.36,1.64-2.84-.64-3.99.15-.05.31-.11.46-.16Z"/>
            <path class="cls-1" d="m286.53,113.82c.42-.77.8-1.49,1.18-2.21-.22,1.63-1.32,3.02-1.1,4.8-.1-1.42-.48-2.68-1.43-3.75.66.14.84.72,1.35,1.16Z"/>
            <path class="cls-1" d="m250.06,139.98h5.58c0,.08,0,.15,0,.23h-5.58c0-.08,0-.15,0-.23Z"/>
            <path class="cls-1" d="m275.7,114.35c.39-.67.7-1.21,1.01-1.76.1,1.01-.62,1.7-.84,2.56-.22.86.45,1.71.17,2.62-.6-1.65-.89-3.36-1.19-5.28.71.53.47,1.28.84,1.85Z"/>
            <path class="cls-1" d="m238.09,143.86c-.51-.35-1-.68-1.6-1.08.67-.28.75.39,1.21.31.07-1.42.14-2.86.21-4.3.06,0,.12.01.18.02v5.06Z"/>
            <path class="cls-1" d="m245.1,140.26h-5.12c0-.07,0-.13-.01-.2h5.14c0,.07,0,.13,0,.2Z"/>
            <path class="cls-1" d="m296.8,115.28c-.26.66-.47,1.21-.69,1.77.35-1.9.81-3.76.73-5.72.1,1.95,0,3.9,1.25,5.58-.11.05-.22.09-.33.14-.3-.55-.6-1.11-.96-1.77Z"/>
            <path class="cls-1" d="m294.21,115.65h-4.36c1.46-.43,2.91-.4,4.36,0Z"/>
            <path class="cls-1" d="m230.14,140h4.35c0,.08,0,.15,0,.23h-4.33c0-.08,0-.15-.01-.23Z"/>
            <path class="cls-1" d="m283.25,115.66h-3.99c1.32-.45,2.64-.39,3.96-.33,0,.11.02.22.03.33Z"/>
            <path class="cls-1" d="m260.12,139.96h3.86c0,.12,0,.24.01.36-1.28.15-2.56.12-3.85,0,0-.12-.01-.25-.02-.37Z"/>
            <path class="cls-1" d="m246.91,114.6c-1.15.1-2.3.16-3.46-.32h3.47c0,.11,0,.21-.01.32Z"/>
            <path class="cls-1" d="m227.36,115.81c1.09-.99,1.23-2.24,1.21-3.57.34,1.16.09,2.36.62,3.45q-.73-.63-1.83.13Z"/>
            <path class="cls-1" d="m235.03,114.37c-.91.4-1.94.42-2.98.04.95-.35,1.91-.36,2.98-.04Z"/>
            <path class="cls-1" d="m221.36,112.4c-.14.83-.35,1.66-.44,2.53.12-1.47-.66-2.71-.8-4.11.21.46.4.93.63,1.38.24.46.25,0,.34-.1.25-.05.35.04.26.3Z"/>
            <path class="cls-1" d="m271.68,180.86c-.07-.08-.14-.16-.21-.24.1-.26.19-.52.29-.78h.28c-.04.68.49.46.82.46,1.17.02,2.34,0,3.52.32-1.07,0-2.15-.03-3.22.01-.49.02-1.05-.23-1.47.23Z"/>
            <path class="cls-1" d="m247.48,141.82c-.41-.94-.57-1.62-.63-2.44q.62.75,1.2-.03c.08.89-.36,1.53-.56,2.47Z"/>
            <path class="cls-1" d="m226.85,139.66c.12.22.11.55.45.58.03,0,.09-.2.13-.31.11-.09.22-.09.34,0-.27.96-.39,1.94-.52,2.95-.05-1.13-.34-2.18-.72-3.21.11-.09.22-.09.33,0Z"/>
            <path class="cls-1" d="m224.2,180.85c.56-1.5,0-3.09.47-4.6-.08,1.62.44,3.25-.25,4.85-.22.04-.36.01-.22-.25Z"/>
            <path class="cls-1" d="m233.11,180.55h-5.08v-.15h5.06c0,.05.01.1.02.15Z"/>
            <path class="cls-1" d="m250.11,180.39h4.82c0,.05,0,.1,0,.15h-4.82c0-.05,0-.1,0-.15Z"/>
            <path class="cls-1" d="m267.66,180.55h-4.8s0-.09,0-.14h4.8v.14Z"/>
            <path class="cls-1" d="m240.03,180.37h4.43c0,.05,0,.1,0,.15h-4.45c0-.05,0-.1.01-.15Z"/>
            <path class="cls-1" d="m221.36,112.4c-.09-.1-.18-.2-.26-.3.21-.8.27-1.66.94-2.65,0,1.25-.34,2.09-.68,2.94Z"/>
            <path class="cls-1" d="m227.76,139.91h-.34c.11-.79.32-1.55.81-2.61.17,1.18-.18,1.89-.47,2.61Z"/>
            <path class="cls-1" d="m224.2,180.85c.07.08.14.17.22.25-.1.67-.71,1.15-.7,1.86-.29.19-.39-.02-.5-.22.33-.63.65-1.26.98-1.89Z"/>
            <path class="cls-1" d="m226.85,139.66c-.11,0-.22,0-.33,0-.33-.62-.71-1.23-.68-2.15.68.69.79,1.44,1.01,2.15Z"/>
            <path class="cls-1" d="m223.22,182.75c.17.07.33.15.5.22h2.13c0,.11,0,.22,0,.32-.81,0-1.62.02-2.43,0-.44-.01-.31-.29-.2-.54Z"/>
            <path class="cls-1" d="m223.67,114.18h2.15c-.75.38-1.5.21-2.15,0Z"/>
            <path class="cls-1" d="m277.25,146.44c.21-.03.32-.16.36-.36.97-.09,1.92.13,2.88.14.06-.08.13-.17.19-.25.81.05,1.59.27,2.41.25.1,0,.2,0,.3,0,.32-.03.62-.02.81.29,0,.08,0,.17,0,.25-3-.02-6.01-.04-9.01-.05l.2-.48c.64-.12,1.28-.23,1.86.21Z"/>
            <path class="cls-1" d="m291.48,183.95c-.11-1.53,2.42-2.54.07-4.42,1.85.87,1.96,1.19,1.16,2.5-.4.65-.81,1.29-1.22,1.93Z"/>
            <path class="cls-1" d="m299.75,181.54c-.24-1.18-.04-2.38-1.11-3.37.71-.05.72.55,1.15.59.34-.51.69-1.04,1.04-1.56.1.04.2.08.3.12-.8,1.31-1.61,2.62-1.39,4.22Z"/>
            <path class="cls-1" d="m279.83,181.13c-.28-.57-.56-1.15-.9-1.82.71.05.61.62.97.86.55-.36.37-1.21,1.04-1.62.03,1-.62,1.7-1.12,2.58Z"/>
            <path class="cls-1" d="m289.08,180.54h-4.63s0-.09,0-.14h4.63s0,.09,0,.14Z"/>
            <path class="cls-1" d="m263.52,96.86c-.18-.19-.36-.37-.54-.56,3.29-5.86,6.21-11.91,9.42-17.8-.87-.6-2.02.25-2.62-.79.38-.12.82.05,1.15-.27.34-.45.85-.39,1.32-.45.52-.06.91-.28,1.18-.73.48-.77.35-1-.58-1.13-2.79-.39-5.62-.31-8.42-.46-2.54-.13-5.08-.44-7.64-.34-.49.02-1.09.07-1.33-.58.45-.14.99.13,1.39-.27,2.92.53,1.79-2.33,2.9-3.4.15.95-.31,1.74-.51,2.56-.16.65-.08.96.66.99,4.77.2,9.53.39,14.29.64.72.04.91-.35,1.16-.82,1.35-2.54,2.71-5.09,4.07-7.63.07.09.14.17.2.26.32.62-.1,1.09-.37,1.55-1.82,3.1-3.35,6.35-5.01,9.52-3.24,6.2-6.57,12.36-9.73,18.61-.22.43-.31,1.05-1.01,1.07Z"/>
            <path class="cls-1" d="m269.92,118.1c-.32,3.37-1.12,6.66-1.6,10-.21,1-.41,2-.65,3.18-3.29-4-6.46-7.86-9.63-11.72-5.12-6.24-10.22-12.5-15.36-18.72-2.16-2.62-3.59-5.68-5.38-8.53-4.88-7.78-8.81-16.07-13.07-24.18-.29-.55-.38-.96.24-1.29,2.15-1.45,4.35-2.83,6.44-4.37,1.8-1.33,3.77-2.22,5.89-2.86,1.48-.44,2.93-.96,4.39-1.45,1.7-.58,3.39-1.16,5.09-1.74.53.37.02.85.14,1.26-.32,2.19-.63,4.38-.95,6.57-.08.51.19.93.38,1.36,2.63,6.02,5.23,12.06,7.91,18.06.86,1.92,2.33,3.49,3.51,5.22,1.33,1.95,2.75,3.85,4.1,5.78,3.14,4.51,4.7,9.69,6.31,14.83.89,2.83,1.5,5.73,2.24,8.6Z"/>
            <path class="cls-1" d="m263.52,96.86c2.92-5.52,5.85-11.04,8.75-16.57,2.48-4.72,4.92-9.46,7.37-14.19.78-1.47,1.6-2.92,2.34-4.4.32-.64.56-.9,1.36-.59,6.24,2.42,12.5,4.79,18.77,7.14.85.32.82.58.33,1.24-5.88,7.88-11.66,15.83-17.62,23.65-1.94,2.54-4.61,4.46-6.93,6.67-2.9,2.76-5.87,5.44-8.77,8.2-.73.69-1,.67-1.37-.28-1.38-3.63-2.82-7.24-4.23-10.86Z"/>
            <path class="cls-1" d="m269.78,77.72c.98.3,2.01.13,3.18.3-1.08,2.08-2.12,4.12-3.18,6.14-1.96,3.75-3.92,7.5-5.91,11.24-.19.36-.17,1.04-.9.91-2.69-3.83-5.42-7.63-8.04-11.5-1.55-2.29-2.31-4.97-3.47-7.46-.34-.73.31-.55.63-.53,4.36.23,8.71.48,13.07.71,1.54.08,3.08.13,4.62.2Z"/>
            <path class="cls-1" d="m269.24,112.35s-.08-.05-.09-.08c-.87-2.98-.84-2.95,1.52-5.14,4.58-4.24,9.29-8.36,13.64-12.81,2.47-2.52,4.36-5.59,6.48-8.44,4.03-5.41,8.05-10.84,12.07-16.26.55-.74,1.8-.81,2.43-.12.41.45-.12.7-.31.96-2.11,2.96-4.25,5.91-6.37,8.86-2.73,3.81-5.47,7.62-8.17,11.44-2.02,2.85-4.7,5.1-7.11,7.58-4.39,4.5-8.85,8.93-13.28,13.38-.24.24-.41.58-.81.62Z"/>
            <path class="cls-1" d="m255.47,73.77c2.3.43,4.65.25,6.97.43,3.99.32,8,.4,12.01.57-.54,2.3-.91,2.58-3.51,2.68-6.37-.37-12.73-.74-19.1-1.08-.63-.03-.96-.22-1.16-.8-.22-.65-.54-1.27-.77-1.8h5.56Z"/>
            <path class="cls-1" d="m297.08,145.7c.12.27.24.55.42.98-1.01-.15-1.97.45-2.75-.45-.97-1.89-1.95-3.77-2.99-5.79.98.01,1.87-.42,2.66.3.81.31.95,1.11,1.26,1.75.49,1.05,1.28,1.99,1.4,3.2Z"/>
            <path class="cls-1" d="m294.54,146.51c-.38.39-.88.07-1.3.2-.97-.06-1.48-.63-1.9-1.47-.8-1.59-1.72-3.12-2.61-4.71q2.35-.39,3.37,1.5c.81,1.5,1.63,2.99,2.45,4.48Z"/>
            <path class="cls-1" d="m280.49,146.22c-.98.4-1.94.39-2.88-.14-.61-1.63-1.55-3.1-2.36-4.64-.35-.66-.51-1.03.57-1.05,1.01-.02,1.57.27,2.03,1.19.79,1.59,1.76,3.1,2.65,4.64Z"/>
            <path class="cls-1" d="m291.51,146.4c-1.64.47-2.54-.06-3.2-1.41-.74-1.51-1.69-2.92-2.56-4.39,2.04-.53,2.28-.43,3.19,1.2.84,1.51,1.69,3.03,2.57,4.6Z"/>
            <path class="cls-1" d="m274.92,146.18c-2.41.22-2.46.25-3.37-1.69-.45-.96-1.33-1.79-1.17-2.97.05-.41-.12-1.06.64-1.08.6-.02,1.18-.14,1.52.65.71,1.68,1.54,3.32,2.37,5.09Z"/>
            <path class="cls-1" d="m288.67,146.36c-1.63.41-2.69.05-3.29-1.52-.43-1.13-1.16-2.14-1.7-3.23-.18-.36-.83-.89-.26-1.14.53-.23,1.43-.46,1.9.3,1.14,1.84,2.22,3.71,3.35,5.6Z"/>
            <path class="cls-1" d="m284.2,146.52c-.28-.08-.62.02-.81-.29-.97-1.88-1.95-3.76-2.94-5.67,1.35-.42,2.21-.2,2.8,1.13.7,1.59,1.63,3.07,2.54,4.73-.6.04-1.09.07-1.58.1Z"/>
            <path class="cls-1" d="m283.09,146.22c-.85.32-1.69.62-2.41-.25-.96-1.78-1.92-3.56-2.91-5.4,1.41-.39,2.27-.11,2.86,1.24.68,1.53,1.62,2.95,2.45,4.41Z"/>
            <path class="cls-1" d="m277.25,146.44c-.62-.1-1.28.21-1.86-.21-.87-1.88-1.74-3.77-2.62-5.66,1.03-.36,1.64-.1,2.04.85.72,1.72,1.9,3.21,2.44,5.01Z"/>
            <path class="cls-1" d="m297.98,141.09c-.6,1.47-.11,3-.28,4.5,0,.04-.02.11-.04.12-.06.01-.13,0-.19,0-1.17-1.52-2.04-3.2-2.67-5,1-.74,2.13-.26,3.19-.27.54,0-.1.42-.01.66Z"/>
            <path class="cls-1" d="m270.24,142.9c.57,1.12,1.1,2.15,1.63,3.18-.14.09-.2.18-.27.18-2.3.07-2.31.07-1.78-2.11.09-.37-.02-.79.42-1.25Z"/>
            <path class="cls-1" d="m294.79,140.7c.89,1.67,1.78,3.33,2.67,5-.13,0-.26,0-.39,0-.88-1.65-1.77-3.3-2.65-4.95.12-.01.25-.03.37-.04Z"/>
            <path class="cls-1" d="m229.73,87.39c-3.03-4.65-6.05-9.31-9.08-13.96q-1.29-2.33.72-4.06c2.13-1.83,2.16-1.84,3.36.62,4.89,9.99,10.26,19.72,16.19,29.13,2.11,3.35,4.93,6.27,7.46,9.36,6.31,7.71,12.64,15.41,18.99,23.13-1.03.86-1.78.96-2.81-.18-4.23-4.69-8.75-9.15-12.84-13.96-2.92-3.43-5.36-7.26-7.94-10.96-.4-.57-1.68-1.09-.49-2.16.26-.24-.27-.75-.57-.52-.78.6-.93-.06-1.23-.46-3.92-5.33-7.85-10.66-11.77-15.99Z"/>
            <path class="cls-1" d="m270.39,162.43c.36.55.62.94.87,1.34.83,1.31.56,2.92-.64,3.91-.25.21-.44.25-.67,0-.52-.53-1.05-1.06-1.59-1.58-.24-.24-.18-.43,0-.68.66-.95,1.31-1.92,2.04-2.99Z"/>
            <path class="cls-1" d="m270.02,190.36c.25.29.45.46.59.68.31.48.52,1.04.9,1.44.95,1.02.03,1.76-.33,2.58-.07.17-.27.27-.44.13-.77-.65-1.57-1.27-2.28-1.98-.42-.42.04-.8.28-1.14.4-.55.82-1.09,1.27-1.7Z"/>
            <path class="cls-1" d="m268.56,140.05c-.37.68-.7,1.39-1.42,1.78-.2.11-1.38-1.3-1.36-1.59.02-.22,1.72-1.84,1.86-1.75.55.35.65.98.92,1.55Z"/>
            <path class="cls-1" d="m304.61,69.95c-.08.26-.21.51-.52.49-.34-.02-.56-.23-.51-.6.05-.31.27-.45.55-.42.29.03.45.23.47.53Z"/>
            <path class="cls-1" d="m283.64,96.91c0,.31-.16.48-.46.5-.28.02-.52-.1-.55-.4-.04-.35.17-.58.52-.57.28,0,.47.17.49.48Z"/>
            <path class="cls-1" d="m293.37,85.63c-.08.27-.21.46-.53.44-.42-.02-.48-.31-.44-.62.04-.31.27-.43.56-.38.3.05.4.28.41.56Z"/>
            <path class="cls-1" d="m270.25,109.9c-.34,0-.53-.16-.59-.43-.06-.28.06-.52.37-.57.34-.05.6.07.63.46.03.31-.2.44-.41.55Z"/>
            <path class="cls-1" d="m287.14,93.71c0,.3-.12.48-.44.51-.31.03-.51-.14-.55-.41-.05-.34.16-.58.51-.58.29,0,.46.19.48.48Z"/>
            <path class="cls-1" d="m296.02,81.07c.33,0,.44.2.43.49,0,.29-.17.49-.46.5-.38.01-.53-.25-.5-.58.03-.27.21-.45.53-.42Z"/>
            <path class="cls-1" d="m290.28,89.9c-.02.37-.18.57-.47.59-.36.03-.57-.18-.55-.55.02-.3.21-.46.51-.46.32,0,.42.23.51.42Z"/>
            <path class="cls-1" d="m301.3,73.17c.44.04.57.25.56.53,0,.28-.16.5-.46.5-.37,0-.52-.26-.5-.6.02-.31.23-.42.4-.43Z"/>
            <path class="cls-1" d="m277.58,103.04c-.07.37-.24.57-.53.56-.36,0-.55-.25-.49-.6.05-.27.26-.44.56-.41.3.04.42.25.45.44Z"/>
            <path class="cls-1" d="m273.78,106.48c-.02.33-.15.54-.44.59-.3.05-.51-.1-.54-.39-.04-.32.08-.6.46-.62.31-.02.41.24.52.42Z"/>
            <path class="cls-1" d="m299.13,77.38c0,.28-.1.51-.42.53-.32.03-.47-.18-.49-.46-.02-.28.12-.51.42-.54.32-.03.44.19.49.47Z"/>
            <path class="cls-1" d="m280.14,99.45c.32-.01.48.18.47.46-.01.29-.22.44-.52.42-.25-.02-.39-.16-.4-.4-.01-.3.13-.48.45-.48Z"/>
            <path class="cls-1" d="m266.43,76.65c-.3-.02-.49-.16-.49-.47,0-.3.19-.5.45-.53.35-.03.57.18.55.54-.01.31-.22.43-.52.45Z"/>
            <path class="cls-1" d="m271.71,76.66c-.29-.03-.49-.17-.5-.48,0-.37.23-.57.57-.52.26.03.45.24.43.55-.02.31-.21.44-.51.46Z"/>
            <path class="cls-1" d="m261.18,75.64c.04-.28.21-.49.49-.51.36-.02.54.22.52.57-.02.32-.22.45-.51.43-.3-.02-.45-.21-.49-.49Z"/>
            <path class="cls-1" d="m257.33,75.86c-.41.01-.57-.17-.59-.46-.02-.3.16-.5.45-.52.31-.03.46.18.49.47.03.31-.14.47-.36.51Z"/>
            <path class="cls-1" d="m252.79,75.32c-.32.04-.5-.14-.52-.42-.02-.3.16-.47.47-.46.23,0,.42.08.43.35.01.27-.01.52-.38.53Z"/>
            <path class="cls-1" d="m247.27,108.54c.02.31-.18.51-.43.54-.34.04-.57-.17-.57-.53,0-.31.21-.45.5-.46.29,0,.49.12.51.45Z"/>
            <path class="cls-1" d="m234.04,90.05c-.01.44-.24.53-.52.53-.28,0-.5-.13-.5-.45,0-.37.24-.56.58-.51.26.04.46.22.44.43Z"/>
            <path class="cls-1" d="m231.17,85.84c-.02.28-.12.49-.45.5-.32,0-.5-.17-.52-.44-.03-.34.16-.56.53-.56.34,0,.42.23.44.51Z"/>
            <path class="cls-1" d="m249.67,111.81c.32.04.46.25.43.53-.03.33-.25.56-.61.49-.3-.05-.39-.31-.36-.59.04-.29.22-.45.53-.43Z"/>
            <path class="cls-1" d="m260.9,125.36c.01.28-.08.53-.38.57-.36.05-.58-.16-.59-.51,0-.27.13-.48.46-.5.31-.02.48.13.51.43Z"/>
            <path class="cls-1" d="m257.27,121.25c-.03.28-.12.51-.46.52-.32.01-.49-.17-.5-.47-.01-.29.11-.52.44-.54.33-.02.45.22.52.49Z"/>
            <path class="cls-1" d="m228.63,81.55c-.02.28-.16.5-.47.52-.31.01-.49-.17-.51-.48-.02-.3.12-.5.45-.52.34-.02.47.18.53.48Z"/>
            <path class="cls-1" d="m236.68,94.71c.4-.01.57.14.57.46,0,.3-.15.51-.45.54-.32.03-.47-.2-.49-.48-.02-.29.14-.49.37-.52Z"/>
            <path class="cls-1" d="m223.37,72.16c0,.29-.15.48-.44.52-.29.05-.51-.09-.56-.38-.06-.34.11-.58.47-.61.3-.02.44.21.53.47Z"/>
            <path class="cls-1" d="m253.73,116.33c-.02.28-.13.49-.46.49-.31,0-.49-.18-.5-.45-.01-.33.17-.58.54-.57.32,0,.41.25.42.53Z"/>
            <path class="cls-1" d="m264.37,128.93c.31.06.49.22.46.54-.02.31-.21.48-.52.46-.32-.02-.47-.24-.46-.53.01-.3.22-.46.52-.47Z"/>
            <path class="cls-1" d="m225.35,76.37c.28.07.46.24.43.53-.03.36-.25.54-.6.47-.28-.06-.42-.3-.37-.58.05-.27.23-.44.54-.43Z"/>
            <path class="cls-1" d="m239.91,99.2c-.06.31-.28.42-.56.33-.28-.08-.41-.28-.33-.57.08-.29.29-.41.58-.35.32.07.35.32.32.59Z"/>
          </g>
        </g>
        <g id="selve_vesten" data-name="selve vesten">
          <path class="cls-15" d="m276.7,209.29c-.33,1.62-.65,3.24-.98,4.86-.08.41-.23.83.09,1.22.98,1.22,1.96,2.44,3.02,3.75.21-.66.38-1.16.53-1.62.25-.05.35.09.3.19-.85,1.6.12,2.16,1.43,2.73,2.19.95,4.32,2.05,6.47,3.09-.06.11-.15.18-.27.2-2.7-1.26-5.46-2.43-8.09-3.83-1.32-.7-1.99-2.19-2.93-3.34-.65-.79-1.16-1.26-1.7.04-.16.38-.52.55-.85.74-1,.57-2.08,1.04-2.99,1.73-1.58,1.19-3.29,1.51-5.17,1.13-3.44-.69-6.82-.07-10.21.41-.63.09-1.28.13-1.91.19-.07-.06-.09-.12-.07-.19.02-.07.04-.1.06-.1,2.38-.34,4.76-.71,7.15-1.01,1.81-.23,3.6.23,5.4.32.68.03,1.36.11,2.17.18-.5-1.22-1.53-1.99-2.18-3.34.99.51,1.19,1.39,1.9,1.86-.26-1.51-.51-2.94-.76-4.37.11-.02.23-.04.34-.06.36,1.85.71,3.7,1.1,5.73,1.83-1.05,3.69-1.95,5.34-3.13.81-.58,1.24-1.7,1.49-2.74.4-1.65.73-3.32,1.09-4.98.26-.02.38.06.27.33Z"/>
          <path class="cls-20" d="m229.63,215.32c1.83.6,3.66,1.2,5.69,1.86-.41-1.44-.79-2.75-1.17-4.05.89.78.79,1.95,1.45,3.03.84-1.71,1.62-3.31,2.4-4.91.11.05.22.1.33.15-.91,1.94-1.83,3.88-2.74,5.8.51.47,1.36.28,1.74.95-1.36-.04-2.51-.75-3.77-1.12-1.43-.42-2.82-.96-4.23-1.45-.05-.23,0-.37.28-.26Z"/>
          <path class="cls-15" d="m279.3,61.85c-.78.54-1.59.1-2.36,0-3.82-.5-7.67-.8-11.46-1.53,1.02-.66,2.05,0,3.04.07,3.4.29,6.79.8,10.18,1.24.2.03.4.14.6.21Z"/>
          <path class="cls-51" d="m265.08,60.06c-.78.54-1.59.1-2.36,0-3.82-.5-7.67-.8-11.46-1.53,1.02-.66,2.05,0,3.04.07,3.4.29,6.79.8,10.18,1.23.2.03.4.14.6.21Z"/>
          <path class="cls-12" d="m253.39,220.49c0,.09.01.19.02.28-.81.34-1.61.3-2.4-.03.05-.16.21-.17.31-.26.31,0,.62-.01.54-.47-.08-.45-.15-.91-.22-1.37.07-.11.08-.26.24-.29.13.38.25.76.44,1.33.69-1.47,1.31-2.81,1.94-4.16.11.05.22.09.33.14-.59,1.34-1.15,2.69-1.78,4.01-.36.75-.07.87.6.8Z"/>
          <path class="cls-63" d="m297.33,223.5c0,.08,0,.17,0,.25-3.35-.02-6.7-.03-10.05-.05.09-.07.18-.13.27-.2,2.44,0,4.88-.07,7.31,0,1.01.03.88-.38.66-1-.16-.29.09-.41.24-.58,0-.08.01-.14.06-.2.08-.12.15-.12.23,0,0,.17.05.34.01.5-.27,1.12.29,1.39,1.27,1.26Z"/>
          <path class="cls-61" d="m240.57,218.63c2.41.34,4.82.73,7.19,1.28-.04.16-.21.18-.32.26-2.41-.42-4.83-.85-7.24-1.27-.02-.27.1-.38.37-.27Z"/>
          <path class="cls-8" d="m242,60c-.11-.08-.23-.17-.34-.25,1.64-.67,3.32-1.23,5.02-1.7.18.09.35.19.28.45-1.55.83-3.13,1.59-4.96,1.5Z"/>
          <path class="cls-41" d="m246.95,58.31c-.09-.08-.18-.17-.27-.25,1.33-.57,2.61-.07,3.89.22-.48.53-1.03.13-1.5.04-1.08-.21-1.69.06-1.66,1.24-.11,0-.21-.02-.32-.03-.33-.38-.06-.82-.14-1.22Z"/>
          <path class="cls-52" d="m223.12,212.89c.08-.12.16-.24.23-.36,1.04.77,2.23,1.27,3.4,1.81.1.11.1.23-.01.34-1.32-.36-2.46-1.09-3.62-1.78Z"/>
          <path class="cls-4" d="m226.75,214.67c0-.11,0-.22.01-.34.99.25,1.96.53,2.88.99-.09.09-.19.17-.28.26-.89-.23-1.79-.46-2.61-.91Z"/>
          <path class="cls-52" d="m247.45,220.17c.11-.09.21-.18.32-.26,1.18.19,2.36.39,3.55.58-.1.09-.21.17-.31.26-1.18-.19-2.37-.38-3.55-.58Z"/>
          <path class="cls-6" d="m240.57,218.63c-.12.09-.24.18-.37.27-.77-.27-1.75.13-2.32-.74.9.16,1.79.31,2.69.47Z"/>
          <path class="cls-50" d="m251.87,218.36c-.08.1-.16.19-.24.29-.17-.73-.34-1.47-.52-2.2.6.54.72,1.21.75,1.91Z"/>
          <path class="cls-14" d="m305.59,221.99c-.07,0-.13,0-.2,0-.62-1.16-1.25-2.32-1.4-3.69.4.81.81,1.62,1.26,2.54.56-.76.25-1.75.92-2.56.04,1.39-.37,2.54-.58,3.72Z"/>
          <path class="cls-63" d="m296.05,221.74c-.08,0-.15,0-.23,0,.13-1.35.26-2.71.39-4.06.12.01.24.03.35.04-.17,1.34-.35,2.68-.52,4.02Z"/>
          <path class="cls-13" d="m295.76,221.94c-.08.19-.16.38-.24.58-.51-.9-.89-1.85-1.14-3.13.86.86.78,1.88,1.38,2.55Z"/>
          <g>
            <path class="cls-58" d="m237.89,218.16c-.18,0-.36,0-.54,0-2.6-.98-2.17-.71-1.1-2.78.29-.57.6-1.13.84-1.72.24-.58.48-1.16.76-1.72-.57,1.12-.97,2.32-1.61,3.42-.18.31-.21.83-.68.84-.55,0-.39-.57-.53-.89-.18-.42-.3-.86-.46-1.29.29.74.43,1.53.75,2.25.14.3.18.59-.02.83-.25.3-.56.1-.83,0-1.62-.54-3.27-1.04-4.87-1.63-.94-.37-1.93-.58-2.84-1.02-1.29-.35-2.42-1.01-3.48-1.79-.04-.12-.04-.24-.01-.36.68-.68,1.31-1.4,1.8-2.1-.48.44-.77,1.17-1.38,1.63-.41.31-.69.38-.68-.28,0-1.71,0-3.42,0-5.13.02,1.86-.01,3.72,0,5.58-.15.66-.53.31-.88.21-1.67-.48-2.52-1.93-3.33-3.19-1.2-1.87-2.29-3.87-2.59-6.15-.22-1.93-.33-3.88-.64-5.79-.4-2.45.3-4.78.54-7.16.03-.29.1-.59.06-.88.08-.17.16-.33.24-.5.08-2.07.46-4.11.87-6.12.22-1.09,1.25-1.89,1.88-2.84.38-.6.99-.4,1.52-.42.84-.02,1.68-.01,2.27,0-1.03-.18-2.36.24-3.62-.19-1.01-.62-1.96-1.32-2.95-1.96-.68-.44-1.14-1.02-1.11-1.85.03-.89-.15-1.76-.15-2.64.14-3.44.89-6.8,1.34-10.21.47-3.58,1.13-7.12,2.08-10.6.12-.45.23-.91.18-1.38-.02-.09,0-.17.04-.25.99-2.77,1.46-5.67,2.19-8.51.43-1.67.39-1.69,2.11-1.69.51,0,1.03-.05,1.42.02-.68-.08-1.5-.03-2.31-.02-.61,0-.91-.25-1.12-.81-1.33-3.55-2.73-7.07-4.01-10.64-.15-1.18.11-2.35.03-3.53.23-.8.04-1.63.16-2.44.19-.81.03-1.63.1-2.44.23-.79.03-1.61.16-2.41.19-.77.05-1.55.09-2.32.43-.87-.08-1.82.21-2.7.12-.77,0-1.55.07-2.32.23-.79.02-1.61.16-2.41.19-.82.01-1.65.11-2.47.3-.87-.17-1.84.36-2.68-.17-.64-.04-1.28,0-1.92-1.65-4.05-3.03-8.21-4.56-12.3-.17-.45-.19-.89-.12-1.36.23-1.59.58-3.17.71-4.78.09-1.06.58-1.59,1.63-1.63,1.26-.24,2.51-.52,3.77-.79.47-.05.93-.18,1.37-.32,2.18-.71,3.64.38,4.79,1.97,1.65,2.28,3.16,4.64,4.73,6.97,2.85,4.31,6.14,8.31,9.14,12.51,3.65,5.11,7.32,10.2,10.99,15.29,1.92,2.67,4.34,4.94,6.58,7.34,2.48,2.65,4.88,5.38,7.44,7.96.38.39.64.97,1.35.69.72-.28,1.5-.51,1.68-1.41.17-.83.33-1.67.47-2.51.51-3.03,1.01-6.05,1.53-9.08.07-.42.12-.83,0-1.25q-.44-2.24,1.91-2.24c.17,0,.34,0,.36,0-.29,0-.74,0-1.18,0-.66,0-1.34.04-1.63-.72-.31-.82-.53-1.65.21-2.39.12-.12.23-.25.36-.37,4.84-4.61,9.25-9.65,14.14-14.21,3.37-3.15,6.26-6.67,8.84-10.47,2.09-3.07,4.34-6.04,6.48-9.09.31-.44.54-1.02,1.26-.92,2.72,1.05,5.33,2.36,8.06,3.37.95.35,1.12,1.33,1.65,2.03.67.89.27,1.59-.04,2.46-1.49,4.16-4.25,7.53-6.89,10.96-.7.91-.97,1.72-.64,2.88,1.19,4.17,1.43,8.53,2.48,12.74.3.86.25,1.76.23,2.65-.01.71-.34,1.09-1.11,1.07-1.12-.02-2.23,0-3.35,0,1.11,0,2.22.02,3.33,0,.8-.02,1.1.34,1,1.08-.15,1.22-.18,2.45-.5,3.65,0,.7-.09,1.38-.22,2.06.06.72-.35,1.4-.21,2.13,0,.28,0,.55,0,.83-.61,1.91-.83,3.9-1.09,5.86-.3,2.27-1.15,4.13-2.89,5.61-.7.59-1.22,1.33-1.74,2.04-.54.73-1.17.88-1.99.88-8.27,0-16.53-.02-24.8.01-1.1,0-1.75-.28-2.07-1.4-.46-1.61-1.16-3.16-1.62-4.78.42,1.58.97,3.13,1.6,4.63.5,1.21.72,2.42.23,3.58-1.27,2.98-.3,5.52,1.32,8.03,1.21,1.87,1.99,3.97,3.14,5.87.3.49.3,1.06.3,1.62,0,1.36.04,2.73,0,4.09-.07,2.23,0,4.42.96,6.5.34.74.19,1.48-.04,2.24-.85,2.89-2.42,5.45-3.73,8.13-.15.31-.31.62-.44.94-1.19,1.88-.91,3.73-.09,5.68,1.4,3.38,2.46,6.88,3.56,10.36.6,1.9.69,3.92.94,5.89.32,2.52.8,5.03.65,7.59-.29,1.72-.65,3.43-1.11,5.1-.4,1.44-1.24,2.67-2.66,3.43-1.21.64-2.39,1.34-3.57,2.03-.87.51-1.3.32-1.38-.66-.09-1.23-.41-2.41-.58-3.63.08,1.13.59,2.22.44,3.41-.6-.04-.65-.59-.99-.81-.02,0,.06.04.1.13.29.68,1.51,1.13,1.03,1.86-.41.64-1.49.26-2.27.13-3.43-.57-6.82-.16-10.21.4-.68.11-1.35.25-2.04.23-1.13-.02-1.28-.21-.85-1.1.51-1.07.91-2.18,1.57-3.36-.83,1.24-.99,2.65-1.96,3.71-.46-.47-.36-.98-.53-1.4-.05-.4-.15-.79-.29-1.18.18.51.25,1.05.38,1.57-.03.65.77,1.52-.5,1.83-1.2-.21-2.4-.41-3.6-.61-2.4-.38-4.78-.9-7.18-1.27-.89-.23-1.84-.19-2.67-.62Z"/>
            <path class="cls-58" d="m310,195.63c.09.61.17,1.22.26,1.83.3,1.84.53,3.69,1.31,5.42.66,1.47.64,3.08.69,4.63.09,2.79.39,5.61-.19,8.38-.36,1.7-.91,3.36-1.44,5.02-.15.47-.33.91-.91.93-1.37.06-2.71.43-4.08.41-.61-1.15.46-2.09.29-3.02-.19.45-.05,1.23-.69,1.89-.53-.75-.8-1.53-1.1-2.2.22,1.13,1.31,2.01,1.24,3.33-2.41.74-4.94.75-7.38,1.27-.25.05-.51.05-.75.13-1.49,0-1.52-.05-1.34-1.68.18-1.03.3-2.07.32-3.05-.07.86-.06,1.81-.3,2.73,0,.13-.04.25-.09.36-.94-.4-.69-1.47-1.15-2.02-.11-.25-.23.06-.11-.07.5.91.81,1.9,1.22,2.85.3.86-.24.88-.87.88-2.35-.01-4.69,0-7.04,0-.75-.05-1.38-.44-2.02-.76-1.96-.97-3.91-1.93-5.91-2.81-1.06-.47-1.09-.59-.5-1.81-.6,1.1-.59,1.1-1.51.02-.3-.36-.56-.79-.9-1.07-1.73-1.4-1.77-3.1-1.14-5.01.33-1,.46-2.07.69-3.1.28-1.88-.23-3.7-.34-5.55-.39-6.39-2.48-12.36-4.7-18.29-.09-.24-.15-.49-.27-.72-1-1.84-.67-3.58.41-5.26,1.46-.3,2.92-.1,4.39-.13-1.04-.03-2.08,0-3.12-.03-.38-.01-.9.24-1.07-.38.63-1.54,1.4-3.01,2.21-4.45.81-1.43,1.25-2.98,1.79-4.5.13-.37.24-.73.05-1.11-1.4-2.79-1.21-5.8-1.05-8.75.12-2.35-.46-4.37-1.66-6.38-1.17-1.97-2.21-4.03-3.25-6.08-.65-1.27-.5-1.51.99-1.54,1.46-.03,2.92,0,4.38-.02,2.84.05,5.67-.1,8.5.07,1.74.37,3.51.11,5.26.17,1.16.04,2.32,0,3.48,0,1.39.06,2.79-.1,4.17.1.77.38.95,1.17,1.25,1.85.87,1.99,1.81,3.95,3.26,5.58,1.82,2.06,2.46,4.59,3.14,7.13.09.33.21.64.27.98,0,.76.02,1.53,0,2.29.27,3.83-1.5,7.2-2.52,10.74-.15,1.42-.06,2.85-.29,4.26,0,0-.09.02.01.07,2.24,1.22,4.05,2.85,4.94,5.3.52,1.44.9,2.93,1.47,4.35.58,2.02,1.03,4.07,1.33,6.16.04.26.18.47.36.66Z"/>
            <path class="cls-58" d="m265.08,60.06c.14.09.27.18.41.27,2.68.13,5.32.61,7.98.89,1.95.2,3.87.59,5.84.64.14.09.28.18.41.27,2.58.03,2.59.04,1.48,2.24-.58,1.13-1.1,2.29-1.77,3.37-1.16,2.09-2.2,4.24-3.25,6.38-.68,1.38-1.62,2.03-3.24,1.94-4.07-.23-8.14-.5-12.22-.56-1.32-.02-1.54-.39-1.22-1.69.08-.32.13-.66.16-.72-.13.35-.16,1.03-.45,1.61-.39.81-1.18.49-1.83.57-.21,0-.43,0-.64,0-1.8-.05-1.87-.15-1.19-1.83-.34.23-.1,1.03-.81.79-.41-.14-.54-.58-.75-.87.12.45.86.79.62,1.26-.31.6-1.07.38-1.65.39-2.97.04-2.95.02-4.15-2.7-.69-1.56-1.29-3.15-2.07-4.67-.84-1.63-.15-3.26-.03-4.88.08-1.09.27-2.19.4-3.28.1-1.12.68-1.53,1.81-1.31.53.1,1.09.21,1.65.13.28-.03.49.1.7.27,2.68.13,5.32.61,7.98.89,1.95.2,3.87.59,5.84.64Z"/>
            <path class="cls-50" d="m247.41,59.56c-.17,1.48-.22,2.98-.55,4.42-.38,1.64-.06,3.08.65,4.54.83,1.72,1.55,3.5,2.32,5.25.19.43.34.87.96.86,1.24-.02,2.48,0,3.84,0-.53-.75-1.05-1.48-1.57-2.21.08-.06.17-.12.25-.18.5.63,1.01,1.27,1.53,1.93.62-.47.45-1.3,1.1-1.89.08,1-.64,1.69-.62,2.55.66.04,1.3.08,1.94.12-.2.75-.86.47-1.35.6-1.78-.09-3.6.25-5.16-.22-.09-.07.05,0,.09.1.59,1.71,1.92,1.92,3.55,2,4.37.21,8.73.5,13.11.71,1.15.05,2.32.07,3.41.51.18.74-.45.56-.8.69-4.81.03-9.59-.42-14.39-.7-1.02-.06-2.39-.5-2.96.19-.57.69.51,1.72.83,2.62,1.68,4.75,5.14,8.4,7.85,12.52.63.96,1.31,1.89,1.96,2.84.17.27.41.5.56.78,1.33,3.42,2.79,6.79,4.08,10.22.3.78.6.78,1.18.25,4.32-3.97,8.6-7.98,12.88-11.99,1.35-1.26,2.54-2.64,3.64-4.13,5.1-6.87,10.19-13.75,15.28-20.62.74-1,.73-1-.47-1.45-5.52-2.07-11.02-4.17-16.52-6.29-1.7-.66-1.7-.62-2.57.96-.61,1.11-.9,2.41-1.94,3.27-.21,0-.38-.05-.28-.32.82-1.65,1.64-3.3,2.47-4.96-.75-.15-1.37-.28-1.99-.41,1-.57,2-.11,2.87.21,7.34,2.72,14.64,5.55,21.96,8.31.72.27.7.51.3,1.05-1.39,1.88-2.74,3.79-4.11,5.69.1.16.08.3-.06.43-.46.14-.62.57-.86.91-3.31,4.61-6.63,9.22-9.91,13.84-1.3,1.83-3,3.27-4.56,4.85-4.98,5.06-10.02,10.07-15.03,15.1-.46.46-.99.83-.83,1.71.21,1.12.63,1.64,1.84,1.47.77-.11,1.58-.02,2.36-.02,0,.12,0,.23,0,.35h-3.73c.1.71.18,1.25.26,1.8.1.28.16.54-.24.63-.59-.42-.6-1.11-.75-1.71-1.28-5-2.65-9.96-4.61-14.77-1.17-2.88-2.66-5.52-4.51-8-1.56-2.09-2.99-4.28-4.55-6.37-2.13-2.86-3.15-6.24-4.6-9.41-1.61-3.53-3.16-7.1-4.69-10.67-.33-.77-.44-1.51-.33-2.35.21-1.52.43-3.04.62-4.56.05-.42,0-.87.45-1.14.14-.04.27-.01.38.08Z"/>
            <path class="cls-13" d="m292.7,146.49c-2.94.05-5.88.12-8.81-.19-.06-.07-.09-.14-.08-.21.01-.08.03-.11.05-.11.84-.21,1.04-.57.54-1.39-.66-1.08-1.31-2.19-1.85-3.34-.15-.31-.35-.59-.71-.7-.29-.09-.61-.19-.84.06-.21.23,0,.48.09.7.44,1.02,1.11,1.91,1.6,2.9.24.48.61.94.5,1.54-.09.09-.2.13-.33.14-.96-.48-1.14-1.54-1.68-2.32-.43-.63-.7-1.36-1.07-2.03-.19-.33-.37-.68-.71-.89-.3-.18-.67-.31-.96-.06-.28.25,0,.55.11.81.49,1.04,1.18,1.97,1.67,3.01.16.34.43.64.41,1.05-.07.19-.19.31-.38.37-1.1-.61-1.25-1.86-1.91-2.77-.42-.58-.68-1.27-1.08-1.88-.19-.29-.38-.58-.74-.67-.29-.07-.62-.15-.87.05-.32.26-.06.55.06.8.48.99,1,1.97,1.48,2.96.22.45.52.89.41,1.44-.07.19-.19.31-.4.31-1.18-1.36-1.6-3.16-2.65-4.6-.26-.36-.37-.88-1.1-.93.26,1.89,1.59,3.32,2.03,5.08,0,.28-.19.44-.37.61-1.46,0-2.93.06-4.39-.02-.92-.05-1.18.07-.68.98,1.47,2.69,2.86,5.43,4.34,8.11.51.93.78,1.85.73,2.91-.06,1.49.05,2.99-.03,4.47-.1,1.94.12,3.81.95,5.59.25.53.23,1.05.06,1.6-.92,3.08-2.44,5.87-4.06,8.62-.09.12-.18.13-.27,0,.31-1.07.97-1.98,1.45-2.97.37-.77.83-1.49,1.18-2.27.99-2.22,1.96-4.41.55-6.87-.63-1.1-.39-2.45-.26-3.65.46-4.15-.53-7.87-2.84-11.34-.89-1.34-1.48-2.88-2.31-4.27-.48-.8-.54-1.57-.31-2.42.06-.21.08-.42.16-.62,1.27-3.18.39-6.15-.85-9.1-.3-.72-.65-1.45-.42-2.33.6,1.7,1.32,3.37,1.78,5.11.39,1.44,1.01,1.97,2.62,1.95,8.18-.12,16.36-.09,24.54-.09.76,0,1.33-.17,1.73-.82.16-.25.33-.53.56-.7,3.88-2.87,4.03-7.24,4.7-11.4.07-.41-.16-.99.51-1.15-.43,2.67-.86,5.34-1.29,8.01-.11.68-.37,1.26-.85,1.8-1.72,1.9-3.38,3.85-5.07,5.78-.09-.07-.16-.16-.21-.27-.86-.93-1.9-.3-2.86-.33-.12.02-.24.03-.36.02-.67-.1-1.34-.18-2.17-.13.74,1.35,1.35,2.7,2.08,3.99.23.4.54.76.49,1.27-.07.19-.2.31-.39.37-.56-.1-.69-.59-.9-.99-.55-1.01-1.08-2.02-1.58-3.05-.61-1.27-1.45-1.94-2.79-1.57.7.8,1.15,1.86,1.7,2.84.62,1.11,1.15,2.26,2.41,2.82.03.13,0,.24-.08.35Z"/>
            <path class="cls-49" d="m268.68,128.69c-.1.59-.19,1.17-.29,1.76-.25,1.39-1.02,2.11-2.39,2.35-.45.08-.63-.18-.85-.42-4.54-4.89-9.22-9.66-13.55-14.72-2.8-3.27-5.06-6.98-7.59-10.47-4.22-5.8-8.46-11.59-12.69-17.38-.25-.34-.45-.72-.67-1.08-.11-.26.06-.31.26-.33.49.17.71.6.98.98,3.39,4.78,7.09,9.33,10.41,14.16.29.42.61.65,1.16.66.65,0,1,.44.73,1.03-.29.62.04.95.33,1.37,2.41,3.43,4.88,6.81,7.27,10.25.86,1.23,1.99,2.24,3.02,3.32,3.38,3.57,6.66,7.24,10.06,10.8.24.25.47.5.75.71.36.28.75.27,1.06-.02.37-.35-.02-.62-.21-.86-2.09-2.6-4.24-5.16-6.34-7.74-5.95-7.29-11.95-14.54-17.89-21.83-1.57-1.93-2.58-4.22-3.88-6.33-4.78-7.76-8.9-15.86-13.03-23.96-.6-1.18-.61-1.18-1.66-.39-.21.15-.4.32-.61.48-1.19.91-2.33,1.83-1.05,3.47.07.09,0,.25-.04.37-.08.11-.18.14-.3.07-1.56-2.25-1.59-2.27.46-3.97,1.1-.91,2.06-2.01,3.36-2.67.27-.1.32.07.35.27-.15.52-.03.98.21,1.47,4.9,10.1,10.32,19.92,16.25,29.46,1.46,2.36,3.44,4.35,5.19,6.5,6.53,8.02,13.11,15.99,19.67,23.99.13.15.2.38.48.4.43-.7.11-1.71.88-2.28.34.13.29.37.19.63Z"/>
            <path class="cls-6" d="m305.59,221.99c1.41.16,2.76-.36,4.16-.35.43,0,.56-.34.69-.65,2.16-5.55,2.02-11.31,1.22-17.04-.27-1.91-1.17-3.78-1.52-5.74-.05-.26-.31-.57.13-.75.9,3.77,2.3,7.41,2.32,11.4.02,4.16-.21,8.21-1.7,12.15-.27.71-.54.95-1.3,1.05-4.08.51-8.16,1.12-12.23,1.69-.08-.06-.11-.11-.08-.17.03-.06.06-.08.09-.08,2.43-.62,4.94-.74,7.4-1.24.24-.05.53.03.66-.27.07-.12.13-.12.2,0Z"/>
            <path class="cls-20" d="m300.68,77.81c.02-.14.04-.29.06-.43,2.67,1.14,5.34,2.29,8.01,3.43,1.67.71,2.51,3.02,1.91,4.68-1.53,4.25-4.31,7.7-7.04,11.19-.66.85-.81,1.6-.54,2.66,1.08,4.07,1.57,8.25,2.28,12.39.16.25,0,.28-.2.26-1.12-4.46-1.4-9.08-2.67-13.51-.14-.49-.05-.89.27-1.3.82-1.04,1.54-2.16,2.39-3.17,2.21-2.6,3.83-5.52,5.1-8.65.58-1.43-.23-3.54-1.68-4.17-2.63-1.13-5.27-2.25-7.91-3.38Z"/>
            <path class="cls-16" d="m217.2,128.62c1.3,3.32,2.63,6.63,3.87,9.97.31.83.7,1.12,1.57,1.05,1.08-.08,2.17-.02,3.26.13-1.08.48-2.22.29-3.32.29-.75,0-1.12.15-1.3.99-.58,2.74-1.29,5.45-1.96,8.18-.08.34.04.83-.55.85.44-1.97.71-4,1.37-5.9,1-2.89.87-5.54-.49-8.31-1.09-2.24-1.8-4.66-2.67-7,.04-.11.11-.19.22-.25Z"/>
            <path class="cls-29" d="m218.73,150.33c.52.29.17.68.08,1-1.7,6.29-2.32,12.76-3.38,19.16-.12.71-.09,1.44-.12,2.16-.18.34.1.77-.23,1.08-.61-2.01.06-3.97.34-5.92.83-5.76,1.6-11.53,3.1-17.17.03-.11.13-.2.2-.31Z"/>
            <path class="cls-51" d="m230.84,88.47c-.07.08-.13.17-.2.25-1.51-2.2-3.03-4.4-4.54-6.6-1.64-2.4-2.51-2.76-5.3-2.2-.25.05-.51.04-.76.06,0-.06,0-.11,0-.17,1.41-.37,2.81-1.33,4.42-.17-.94-1.58-1.87-3.16-2.81-4.74.12,0,.23-.02.35-.03.59.1.81.61,1.06,1.03,2.22,3.83,4.81,7.43,7.25,11.12.28.43.8.8.54,1.44Z"/>
            <path class="cls-62" d="m216.22,80.83c-1.18.08-1.45.86-1.56,1.86-.12,1.1-.3,2.19-.51,3.27-.25,1.28-.09,2.46.39,3.69,1.32,3.4,2.52,6.85,3.75,10.28.1.27.13.57.2.85-.49-.1-.49-.53-.62-.88-1.37-3.74-2.7-7.49-4.13-11.21-.47-1.23.06-2.34.14-3.51.07-1.05.34-2.09.46-3.15.1-.97.53-1.51,1.57-1.45.11.07.27.08.31.24Z"/>
            <path class="cls-10" d="m225.72,68.45c-.08-.06-.17-.13-.25-.19,2.88-1.99,5.65-4.2,8.69-5.91,2.28-1.28,4.95-1.86,7.5-2.6.24-.09.37.02.42.25-.2.44-.64.53-1.04.67-.84.31-1.69.63-2.56.84-3.02.73-5.58,2.31-8.02,4.14-1.23.92-2.57,1.7-3.83,2.57-.26.18-.52.49-.91.22Z"/>
            <path class="cls-22" d="m304.54,161.63s-.09-.05-.09-.08c-.69-3.7-2.52-6.81-4.75-9.81-1.15-1.54-1.78-3.45-2.65-5.19.11-.13.23-.14.37-.04,1.56,3.35,3.55,6.43,5.65,9.47,1.12,1.62,1.25,3.73,1.74,5.65-.09.12-.18.12-.26,0Z"/>
            <path class="cls-9" d="m305.17,111.98l.2-.26c.39.25.32.69.34,1.03.15,2.68.09,5.34-.64,7.95-.06.11-.13.11-.19,0,.13-1.18.25-2.36.39-3.54.09-.74-.03-1.15-.97-1.1-1.6.09-3.2.02-4.8.02,0-.15,0-.31-.01-.46,1.28,0,2.56,0,3.84,0,2.17,0,2.18,0,2.07-2.14-.03-.51-.15-1.01-.23-1.51Z"/>
            <path class="cls-13" d="m308.09,188.78c-.24-.68-.58-1.33-.7-2.03-.53-2.91-2.19-5.08-4.41-6.91-.1-.08-.17-.24-.28-.26-1.7-.27-.86-1.51-.89-2.38-.02-.76.13-1.52.2-2.27.1-.08.2-.08.29.02-.66,2.67.41,4.65,2.57,6.15,2.09,1.47,2.22,3.89,3.03,5.98.21.54.34,1.11.5,1.66-.09.14-.2.15-.32.04Z"/>
            <path class="cls-13" d="m216.19,189.03c.48,1,0,1.97-.2,2.9-.73,3.33.06,6.59.3,9.87.03.42.07.84.1,1.26-.09.12-.18.13-.28.02-.77-4.57-1.19-9.14-.11-13.73.03-.12.13-.22.19-.32Z"/>
            <path class="cls-10" d="m302.31,174.95l-.29-.02c.17-1.62.92-3.07,1.47-4.56.58-1.57.92-3.15.86-4.83-.02-.44-.1-.94.19-1.35.08-.11.17-.11.25,0,.22,2.85-.54,5.52-1.57,8.14-.34.86-.6,1.76-.9,2.63Z"/>
            <path class="cls-52" d="m216.11,203.08c.09,0,.19-.01.28-.02,1.09,3.45,2.33,6.8,5.62,8.87.24.15.55.19.83.28.17.17.19.35.04.55-4.28-1.85-5.7-5.64-6.78-9.68Z"/>
            <path class="cls-10" d="m219.19,179.76c-2.03,2.13-2.07,4.9-2.48,7.55-.06.42-.05.85-.29,1.22-.17-.08-.27-.22-.24-.4.54-3,.25-6.26,2.82-8.6.11.04.17.12.19.23Z"/>
            <path class="cls-68" d="m297.41,146.52c-.12.01-.25.03-.37.04-1.45-.02-2.9-.05-4.35-.07.01-.08,0-.16,0-.24.37-.41.84-.12,1.27-.19.07-.09.14-.18.21-.27.8-.08,1.81.77,2.32-.53.08-.08.17-.16.24-.25.04-.98-.07-1.96,0-2.93.04-.49-.04-1.05.58-1.3.01.13.03.27.04.4.02,1.78.05,3.56.07,5.34Z"/>
            <path class="cls-10" d="m215.09,173.72c.1-.35-.06-.76.23-1.08-.35,2.73.87,4.55,3.34,5.65.22.1.39.32.58.48-.04.11-.11.18-.22.2-.64-.42-1.25-.91-1.94-1.23-1.78-.83-2.29-2.22-1.99-4.03Z"/>
            <path class="cls-13" d="m308.09,188.78c.11-.01.21-.02.32-.04.92,2.21,1.05,4.59,1.58,6.89-.46.09-.46-.24-.51-.54-.38-2.12-.77-4.25-1.39-6.32Z"/>
            <path class="cls-1" d="m222.89,212.77c-.01-.18-.03-.37-.04-.55,0-2.07,0-4.13,0-6.2.1,0,.21,0,.31,0v5.96c.09.11.25.15.29.31-.03.08-.06.16-.1.24-.05.14-.08.29-.23.36-.08-.04-.16-.08-.23-.12Z"/>
            <path class="cls-34" d="m216.22,80.83c-.1-.08-.2-.16-.31-.24,1.37-.25,2.71-.74,4.12-.77,0,.06,0,.11,0,.17-1.24.43-2.52.66-3.82.84Z"/>
            <path class="cls-18" d="m217.92,112.74c.21.68-.24,1.46.34,2.12.1.12-.29.18-.47.22-.1.11-.2.11-.3,0-.06-.88-.07-1.75.2-2.6.11.06.19.15.23.26Z"/>
            <path class="cls-66" d="m219.02,178.98c.07-.07.15-.14.22-.2,1.4.47,2.86,0,4.29.5-1,0-2,0-3,0-.51,0-1.04-.09-1.33.48-.06-.08-.13-.15-.19-.23,0-.18.2-.36.01-.55Z"/>
            <path class="cls-43" d="m217.2,128.62l-.22.25c-.42-1.36.04-2.71-.01-4.07.09-.08.18-.09.28,0-.02,1.28-.03,2.55-.05,3.83Z"/>
            <path class="cls-5" d="m218.49,102.7c-.02.9.16,1.82-.22,2.69-.17-.01-.19-.17-.26-.27.09-.82-.47-1.76.48-2.42Z"/>
            <path class="cls-30" d="m217.25,124.79c-.09,0-.19,0-.28,0-.04-.87-.1-1.75.2-2.6.15.02.17.18.25.27.04.78.15,1.57-.17,2.32Z"/>
            <path class="cls-42" d="m217.67,117.6c.05.79.17,1.58-.18,2.33-.08.11-.17.12-.26,0-.06-.88-.09-1.75.19-2.6.17,0,.16.18.24.26Z"/>
            <path class="cls-4" d="m218.19,107.88c.08.8.16,1.6-.17,2.37-.17-.01-.18-.17-.26-.27-.06-.8-.14-1.59.18-2.36.16.02.17.17.25.26Z"/>
            <path class="cls-36" d="m304.87,120.71c.06-.01.13-.01.19,0,.06.69.13,1.39-.2,2.05-.08.12-.16.11-.23,0,.08-.68.16-1.36.24-2.04Z"/>
            <path class="cls-68" d="m218.19,107.88c-.08-.09-.17-.18-.25-.26.03-.83.05-1.67.08-2.5.09.09.18.18.26.27-.03.83-.06,1.66-.09,2.49Z"/>
            <path class="cls-68" d="m217.76,109.98c.09.09.17.18.26.27-.03.83-.06,1.67-.09,2.5-.08-.09-.16-.18-.23-.26.02-.84.04-1.67.07-2.51Z"/>
            <path class="cls-63" d="m304.79,164.17h-.13s-.13,0-.13,0c0-.85,0-1.7,0-2.54.09,0,.18,0,.26,0,.16.85.02,1.69-.01,2.54Z"/>
            <path class="cls-32" d="m304.63,122.74c.08,0,.15,0,.23,0,.11.7-.12,1.35-.3,2-.45-.69.12-1.34.07-2.01Z"/>
            <path class="cls-65" d="m217.23,119.94c.09,0,.17,0,.26,0-.03.84-.05,1.69-.08,2.53-.08-.09-.17-.18-.25-.27.02-.75.04-1.51.06-2.26Z"/>
            <path class="cls-68" d="m217.67,117.6c-.08-.09-.16-.18-.24-.26.02-.75.04-1.51.06-2.26.1,0,.2,0,.3,0-.04.84-.08,1.68-.12,2.52Z"/>
            <path class="cls-60" d="m276.7,209.29c-.09-.11-.18-.22-.27-.33.02-3.2-.56-6.34-.93-9.49-.63-5.25-2.75-10.06-4.52-14.96-.72-1.98-.53-3.57.51-5.22.11.04.18.12.21.23-1.18,1.94-.69,3.79.05,5.78,1.4,3.78,2.94,7.54,3.74,11.5.74,3.63,1.05,7.32,1.43,11.01.05.51.08,1.02-.21,1.49Z"/>
            <path class="cls-36" d="m272.55,164.28c-.65,1.07-1.27,2.13-1.92,3.17-.11.18-.31.06-.44-.04-.1-.08-.2-.17-.28-.27-.65-.82-2.18-1.43-1.95-2.33.34-1.33,1.45-2.46,2.25-3.67.1-.15.3-.26.42-.06.65,1.05,1.27,2.11,1.93,3.2Z"/>
            <path class="cls-31" d="m271.12,194.34c-1.02-.89-1.96-1.73-2.93-2.53-.43-.35-.39-.66-.08-1.06.67-.87,1.3-1.77,2.05-2.79.77,1.22,1.48,2.37,2.21,3.49.32.5-.11.78-.28,1.13-.28.56-.6,1.11-.96,1.77Z"/>
            <path class="cls-17" d="m238.82,181.88c-.36-.4-.72-.79-1.08-1.19-.62.48-.75,1.37-1.6,1.75,2.06-2.19.96-4.96,1.5-7.44.74,2.21-.76,4.83,1.58,6.7-.13.06-.26.12-.39.18Z"/>
            <path class="cls-9" d="m268.68,128.69c-.09-.19-.17-.38-.26-.57-.29-.27-.24-.62-.19-.95.4-2.77.92-5.51,1.42-8.26.04-.21.14-.4.33-.52.09-.19.17-.38.26-.56.55,1.25-.09,2.42-.27,3.61-.37,2.43-.85,4.84-1.28,7.26Z"/>
            <path class="cls-31" d="m268,137.55c.17.31.31.56.44.82.75,1.44.44,2.72-.87,3.65-.07.05-.17.15-.21.13-.86-.44-1.25-1.34-1.89-2-.37-.38.01-.63.26-.83.72-.59,1.47-1.15,2.27-1.77Z"/>
            <path class="cls-21" d="m241.32,111.52c-.39,1.92-1.04,3.51-1.13,5.24-.17-1.4-.58-2.72-1.12-4.34.84.56.72,1.23,1.02,1.67.59-.67.28-1.73,1.23-2.57Z"/>
            <path class="cls-10" d="m259.57,181.26c.17-1.55.35-3.11.54-4.79-.78.43-1.47.81-2.15,1.2-.06-.09-.12-.19-.19-.28.85-.54,1.7-1.09,2.85-1.82-.24,2.07-.44,3.88-.65,5.69-.13,0-.26,0-.4,0Z"/>
            <path class="cls-18" d="m257.87,143.39v-4.15c.58.09.23.62.54.8.51-.14.6-.82,1.6-.98-1.54,1.29-1.97,2.75-1.82,4.42-.11-.03-.21-.05-.32-.08Z"/>
            <path class="cls-62" d="m246.96,177.74c.28.24.57.47.86.71.67-.34.1-1.29.9-1.61-.1,1.81-.73,3.39-1.58,4.93-.04-1.33,1.6-2.76-.63-3.88.15-.05.3-.1.45-.16Z"/>
            <path class="cls-23" d="m286.15,114.22c.4-.75.78-1.45,1.15-2.15-.21,1.59-1.28,2.94-1.07,4.67-.1-1.39-.47-2.61-1.4-3.65.64.14.82.71,1.32,1.13Z"/>
            <path class="cls-60" d="m250.63,139.69h5.44c0,.08,0,.15,0,.23h-5.44c0-.08,0-.15,0-.23Z"/>
            <path class="cls-10" d="m275.6,114.73c.38-.65.68-1.18.99-1.71.1.98-.61,1.66-.82,2.49-.21.84.44,1.67.17,2.55-.58-1.61-.87-3.27-1.16-5.14.69.51.46,1.24.82,1.8Z"/>
            <path class="cls-28" d="m238.97,143.47c-.5-.34-.98-.66-1.55-1.06.65-.27.73.38,1.18.3.07-1.38.14-2.79.21-4.19.06,0,.12.01.17.02v4.93Z"/>
            <path class="cls-60" d="m245.81,139.97h-4.99c0-.07,0-.13-.01-.2h5.01c0,.07,0,.13,0,.2Z"/>
            <path class="cls-38" d="m296.16,115.64c-.25.64-.46,1.18-.67,1.72.34-1.85.78-3.66.72-5.57.1,1.9,0,3.8,1.21,5.44-.11.04-.21.09-.32.13-.29-.54-.59-1.08-.93-1.72Z"/>
            <path class="cls-60" d="m293.64,116h-4.25c1.42-.42,2.83-.39,4.25,0Z"/>
            <path class="cls-60" d="m231.23,139.71h4.23c0,.08,0,.15,0,.23h-4.22c0-.08,0-.15-.01-.23Z"/>
            <path class="cls-60" d="m282.96,116.01h-3.88c1.28-.44,2.57-.38,3.86-.32,0,.11.02.21.03.32Z"/>
            <path class="cls-3" d="m260.44,139.68h3.75c0,.12,0,.24,0,.35-1.24.14-2.49.12-3.75,0,0-.12-.01-.24-.02-.36Z"/>
            <path class="cls-8" d="m247.57,114.98c-1.12.1-2.24.16-3.37-.31h3.38c0,.1,0,.21-.01.31Z"/>
            <path class="cls-28" d="m228.53,116.15c1.06-.96,1.2-2.19,1.18-3.48.33,1.13.08,2.29.6,3.36q-.71-.62-1.78.12Z"/>
            <path class="cls-2" d="m235.99,114.75c-.88.39-1.89.41-2.9.04.92-.34,1.86-.35,2.9-.04Z"/>
            <path class="cls-31" d="m222.68,112.83c-.14.81-.34,1.61-.43,2.47.11-1.43-.65-2.64-.78-4,.2.45.39.91.62,1.35.23.44.24,0,.33-.1.25-.05.34.04.26.29Z"/>
            <path class="cls-64" d="m271.69,179.51c-.07-.08-.14-.16-.21-.23.09-.25.19-.51.28-.76h.27c-.04.67.47.45.8.45,1.14.02,2.28,0,3.42.31-1.04,0-2.09-.03-3.13.01-.48.02-1.02-.23-1.44.22Z"/>
            <path class="cls-12" d="m248.12,141.48c-.4-.92-.56-1.58-.62-2.38q.6.73,1.17-.03c.08.87-.35,1.49-.55,2.41Z"/>
            <path class="cls-32" d="m228.03,139.38c.12.21.1.53.44.56.03,0,.08-.2.13-.31.11-.09.22-.09.33,0-.27.93-.38,1.89-.51,2.87-.04-1.1-.33-2.12-.7-3.13.11-.08.21-.08.32,0Z"/>
            <path class="cls-67" d="m225.45,179.51c.55-1.46,0-3.01.46-4.48-.08,1.57.43,3.17-.25,4.72-.21.04-.35.01-.21-.24Z"/>
            <path class="cls-1" d="m234.13,179.21h-4.95v-.15h4.93s.01.1.02.15Z"/>
            <path class="cls-1" d="m250.68,179.05h4.69s0,.1,0,.15h-4.69s0-.1,0-.15Z"/>
            <path class="cls-1" d="m267.78,179.21h-4.68s0-.09,0-.14h4.68v.14Z"/>
            <path class="cls-68" d="m240.86,179.04h4.32c0,.05,0,.1,0,.15h-4.33c0-.05,0-.1.01-.15Z"/>
            <path class="cls-26" d="m222.68,112.83c-.09-.1-.17-.19-.26-.29.21-.78.27-1.62.92-2.58,0,1.21-.33,2.04-.66,2.87Z"/>
            <path class="cls-30" d="m228.92,139.63h-.33c.11-.77.31-1.51.79-2.54.16,1.15-.17,1.84-.46,2.54Z"/>
            <path class="cls-19" d="m225.45,179.51c.07.08.14.16.21.24-.1.65-.69,1.12-.68,1.81-.28.19-.38-.02-.49-.21.32-.61.64-1.23.96-1.84Z"/>
            <path class="cls-18" d="m228.03,139.38c-.11,0-.21,0-.32,0-.33-.61-.69-1.2-.66-2.09.66.67.77,1.41.98,2.09Z"/>
            <path class="cls-40" d="m224.49,181.35c.16.07.33.14.49.21h2.08c0,.11,0,.21,0,.32-.79,0-1.58.02-2.37,0-.42-.01-.3-.29-.19-.52Z"/>
            <path class="cls-37" d="m224.93,114.57h2.1c-.73.37-1.46.21-2.1,0Z"/>
            <path class="cls-68" d="m277.12,145.98c.21-.03.31-.16.35-.35.94-.08,1.87.12,2.8.13.06-.08.12-.16.18-.24.78.05,1.55.26,2.34.25.1,0,.2,0,.3,0,.31-.03.61-.02.79.29,0,.08,0,.16,0,.24-2.93-.02-5.85-.04-8.78-.05l.19-.47c.63-.11,1.25-.22,1.81.2Z"/>
            <path class="cls-11" d="m290.98,182.52c-.11-1.49,2.36-2.47.06-4.31,1.8.85,1.91,1.16,1.13,2.43-.39.63-.79,1.25-1.19,1.88Z"/>
            <path class="cls-45" d="m299.03,180.17c-.23-1.15-.04-2.32-1.08-3.28.69-.05.7.54,1.12.57.33-.5.67-1.01,1.02-1.52.1.04.2.08.3.12-.78,1.28-1.57,2.55-1.35,4.11Z"/>
            <path class="cls-7" d="m279.63,179.78c-.27-.56-.55-1.12-.87-1.77.69.05.6.6.95.84.53-.35.36-1.17,1.01-1.58.03.98-.6,1.65-1.09,2.52Z"/>
            <path class="cls-68" d="m288.64,179.2h-4.51s0-.09,0-.14h4.51s0,.09,0,.14Z"/>
            <path class="cls-44" d="m263.74,97.7c-.17-.18-.35-.36-.52-.54,3.21-5.71,6.05-11.6,9.18-17.34-.85-.58-1.97.25-2.55-.77.37-.12.8.05,1.12-.26.33-.44.83-.38,1.29-.43.5-.06.88-.27,1.15-.71.47-.75.34-.97-.57-1.1-2.72-.38-5.47-.3-8.2-.45-2.48-.13-4.95-.43-7.44-.33-.48.02-1.07.07-1.29-.57.44-.14.96.12,1.35-.26,2.85.52,1.74-2.26,2.83-3.31.15.93-.3,1.69-.5,2.49-.15.63-.08.94.64.97,4.64.19,9.28.38,13.92.62.7.04.89-.35,1.13-.8,1.32-2.48,2.64-4.95,3.96-7.43.07.08.13.17.2.25.32.6-.1,1.07-.36,1.51-1.78,3.02-3.26,6.18-4.88,9.28-3.16,6.04-6.4,12.04-9.48,18.12-.21.42-.31,1.02-.98,1.04Z"/>
            <path class="cls-58" d="m269.98,118.39c-.31,3.28-1.09,6.48-1.55,9.74-.2.97-.4,1.95-.64,3.1-3.2-3.9-6.29-7.66-9.38-11.42-4.99-6.08-9.95-12.17-14.96-18.24-2.11-2.55-3.5-5.54-5.24-8.31-4.75-7.58-8.58-15.65-12.73-23.55-.28-.53-.37-.93.23-1.26,2.09-1.41,4.24-2.76,6.27-4.26,1.75-1.29,3.67-2.16,5.74-2.78,1.44-.43,2.85-.94,4.27-1.41,1.65-.56,3.3-1.13,4.96-1.69.52.36.02.82.14,1.22-.31,2.13-.61,4.27-.93,6.4-.07.5.18.91.37,1.33,2.56,5.87,5.1,11.74,7.71,17.59.84,1.87,2.27,3.39,3.42,5.08,1.29,1.9,2.68,3.75,3.99,5.63,3.06,4.39,4.58,9.43,6.15,14.44.86,2.75,1.46,5.58,2.18,8.38Z"/>
            <path class="cls-58" d="m263.74,97.7c2.84-5.38,5.7-10.75,8.52-16.13,2.41-4.6,4.79-9.21,7.18-13.82.76-1.43,1.56-2.84,2.28-4.29.31-.63.55-.88,1.33-.58,6.08,2.35,12.18,4.67,18.29,6.95.83.31.79.57.32,1.21-5.72,7.68-11.36,15.42-17.16,23.03-1.89,2.48-4.49,4.34-6.75,6.5-2.82,2.69-5.72,5.3-8.54,7.99-.71.68-.98.66-1.33-.28-1.34-3.54-2.74-7.05-4.12-10.58Z"/>
            <path class="cls-58" d="m269.85,79.05c.96.29,1.96.13,3.1.29-1.05,2.03-2.07,4.01-3.1,5.98-1.91,3.65-3.82,7.31-5.75,10.95-.19.35-.16,1.01-.88.88-2.62-3.73-5.28-7.43-7.83-11.2-1.51-2.23-2.25-4.84-3.38-7.26-.33-.71.3-.53.61-.52,4.24.22,8.49.46,12.73.69,1.5.08,3,.13,4.5.19Z"/>
            <path class="cls-57" d="m269.31,112.79s-.08-.05-.09-.08c-.84-2.9-.82-2.88,1.48-5,4.46-4.13,9.04-8.14,13.29-12.48,2.4-2.45,4.24-5.45,6.31-8.22,3.93-5.27,7.84-10.56,11.76-15.84.54-.72,1.76-.79,2.36-.12.4.44-.12.68-.3.94-2.05,2.89-4.14,5.75-6.2,8.63-2.66,3.71-5.32,7.42-7.96,11.15-1.97,2.78-4.58,4.96-6.93,7.38-4.27,4.38-8.62,8.7-12.94,13.03-.23.23-.4.56-.78.61Z"/>
            <path class="cls-57" d="m255.9,75.2c2.24.42,4.52.24,6.79.42,3.89.31,7.79.39,11.7.56-.53,2.24-.89,2.51-3.42,2.61-6.2-.36-12.4-.73-18.6-1.05-.61-.03-.93-.21-1.13-.78-.22-.63-.52-1.23-.75-1.75h5.42Z"/>
            <path class="cls-59" d="m296.43,145.26c.11.27.23.54.41.95-.98-.14-1.92.43-2.67-.44-.95-1.84-1.9-3.67-2.91-5.64.96.01,1.82-.41,2.59.3.78.3.93,1.08,1.22,1.71.48,1.03,1.24,1.94,1.36,3.12Z"/>
            <path class="cls-59" d="m293.96,146.05c-.37.38-.85.07-1.27.19-.95-.06-1.44-.61-1.85-1.43-.78-1.55-1.68-3.04-2.54-4.59q2.29-.38,3.28,1.46c.79,1.46,1.59,2.91,2.38,4.37Z"/>
            <path class="cls-59" d="m280.27,145.77c-.96.39-1.89.38-2.8-.13-.6-1.59-1.51-3.02-2.3-4.52-.34-.64-.49-1,.55-1.02.99-.02,1.53.26,1.97,1.16.77,1.55,1.71,3.02,2.58,4.52Z"/>
            <path class="cls-59" d="m291.01,145.94c-1.6.46-2.47-.06-3.11-1.37-.72-1.47-1.65-2.84-2.5-4.28,1.98-.51,2.22-.42,3.11,1.17.82,1.47,1.65,2.95,2.5,4.48Z"/>
            <path class="cls-59" d="m274.85,145.74c-2.35.22-2.39.24-3.28-1.65-.44-.94-1.3-1.75-1.14-2.9.05-.4-.12-1.04.63-1.06.58-.01,1.15-.14,1.48.64.69,1.64,1.5,3.23,2.31,4.96Z"/>
            <path class="cls-59" d="m288.24,145.91c-1.59.4-2.62.04-3.2-1.48-.42-1.1-1.13-2.08-1.65-3.14-.17-.35-.81-.87-.26-1.11.51-.22,1.39-.44,1.85.29,1.11,1.79,2.16,3.61,3.26,5.45Z"/>
            <path class="cls-59" d="m283.89,146.06c-.27-.07-.6.02-.79-.29-.95-1.83-1.9-3.66-2.86-5.52,1.32-.41,2.15-.2,2.73,1.11.68,1.55,1.59,2.99,2.47,4.6-.58.04-1.06.07-1.54.1Z"/>
            <path class="cls-59" d="m282.8,145.77c-.82.31-1.65.61-2.34-.25-.93-1.74-1.87-3.47-2.83-5.25,1.37-.38,2.21-.11,2.79,1.2.66,1.49,1.58,2.87,2.39,4.3Z"/>
            <path class="cls-55" d="m277.12,145.98c-.6-.1-1.25.21-1.81-.2-.85-1.84-1.7-3.67-2.55-5.51,1.01-.35,1.6-.09,1.99.83.7,1.67,1.85,3.13,2.38,4.88Z"/>
            <path class="cls-54" d="m297.31,140.77c-.58,1.43-.1,2.93-.28,4.38,0,.04-.02.11-.04.11-.06.01-.12,0-.18,0-1.14-1.48-1.98-3.11-2.6-4.87.97-.72,2.08-.26,3.11-.26.52,0-.1.41,0,.64Z"/>
            <path class="cls-56" d="m270.29,142.54c.56,1.09,1.07,2.1,1.59,3.1-.13.09-.19.17-.26.17-2.24.07-2.25.07-1.73-2.05.09-.36-.01-.77.41-1.22Z"/>
            <path class="cls-11" d="m294.21,140.4c.87,1.62,1.73,3.24,2.6,4.87-.13,0-.25,0-.38,0-.86-1.61-1.72-3.22-2.58-4.83.12-.01.24-.03.36-.04Z"/>
            <path class="cls-57" d="m230.84,88.47c-2.95-4.53-5.9-9.06-8.84-13.6q-1.26-2.27.7-3.95c2.08-1.78,2.1-1.79,3.27.61,4.76,9.73,9.99,19.21,15.77,28.37,2.06,3.26,4.81,6.1,7.27,9.11,6.15,7.51,12.31,15.01,18.49,22.53-1,.84-1.74.93-2.73-.18-4.12-4.57-8.52-8.91-12.5-13.6-2.84-3.34-5.22-7.07-7.73-10.67-.39-.55-1.63-1.06-.48-2.1.25-.23-.27-.73-.56-.51-.76.58-.9-.05-1.19-.45-3.82-5.19-7.64-10.38-11.46-15.57Z"/>
            <path class="cls-62" d="m270.44,161.56c.35.54.6.92.84,1.3.81,1.28.54,2.84-.63,3.8-.25.2-.43.24-.65,0-.51-.52-1.02-1.03-1.54-1.54-.23-.23-.17-.42,0-.66.65-.93,1.27-1.87,1.98-2.92Z"/>
            <path class="cls-61" d="m270.07,188.76c.25.28.44.45.57.66.3.46.51,1.01.88,1.41.92,1,.03,1.71-.32,2.51-.07.16-.26.26-.43.12-.75-.63-1.52-1.24-2.22-1.93-.41-.41.04-.78.28-1.11.39-.54.8-1.06,1.24-1.66Z"/>
            <path class="cls-61" d="m268.66,139.77c-.36.66-.68,1.35-1.38,1.74-.2.11-1.35-1.27-1.32-1.55.02-.21,1.67-1.79,1.81-1.7.54.34.63.96.89,1.51Z"/>
            <path class="cls-46" d="m303.77,71.49c-.08.26-.2.5-.5.48-.33-.02-.55-.22-.49-.59.04-.3.26-.43.54-.4.28.03.44.23.46.51Z"/>
            <path class="cls-34" d="m283.34,97.75c0,.3-.15.47-.45.48-.28.02-.51-.1-.54-.39-.04-.35.16-.56.51-.56.27,0,.46.17.48.47Z"/>
            <path class="cls-25" d="m292.82,86.76c-.07.26-.2.45-.52.43-.41-.02-.47-.3-.43-.61.04-.3.26-.42.55-.37.29.05.39.28.4.55Z"/>
            <path class="cls-24" d="m270.3,110.4c-.33,0-.51-.16-.57-.42-.06-.28.06-.51.36-.56.33-.05.58.07.61.45.02.31-.2.43-.4.53Z"/>
            <path class="cls-24" d="m286.75,94.63c0,.29-.12.47-.43.5-.3.03-.5-.14-.54-.4-.05-.33.16-.56.5-.57.28,0,.45.18.47.47Z"/>
            <path class="cls-33" d="m295.4,82.32c.33,0,.43.2.42.48,0,.28-.17.48-.45.49-.37.01-.52-.25-.49-.56.03-.27.2-.44.51-.4Z"/>
            <path class="cls-46" d="m289.8,90.91c-.02.36-.18.55-.46.57-.35.03-.56-.17-.54-.53.02-.3.2-.44.5-.45.32,0,.41.22.5.4Z"/>
            <path class="cls-33" d="m300.54,74.62c.43.04.56.24.55.51,0,.27-.15.49-.45.48-.36,0-.51-.25-.49-.58.02-.3.23-.41.39-.41Z"/>
            <path class="cls-25" d="m277.44,103.71c-.07.36-.23.56-.51.55-.35,0-.54-.24-.48-.58.05-.26.25-.43.55-.4.29.04.41.24.44.43Z"/>
            <path class="cls-48" d="m273.74,107.06c-.02.32-.15.53-.43.57-.29.05-.5-.09-.53-.38-.03-.32.08-.58.45-.6.31-.02.4.23.5.41Z"/>
            <path class="cls-36" d="m298.43,78.72c0,.28-.1.49-.41.52-.31.03-.45-.18-.47-.45-.02-.28.12-.5.41-.53.31-.03.43.19.48.46Z"/>
            <path class="cls-63" d="m279.93,100.22c.32-.01.47.18.46.45-.01.29-.21.43-.51.41-.24-.02-.38-.16-.39-.39-.01-.3.12-.46.44-.46Z"/>
            <path class="cls-24" d="m266.58,78.02c-.29-.02-.47-.16-.48-.46,0-.29.18-.49.44-.51.34-.03.55.18.54.53-.01.3-.22.42-.5.44Z"/>
            <path class="cls-24" d="m271.72,78.02c-.29-.03-.48-.17-.48-.47,0-.36.23-.55.56-.51.25.03.44.24.42.53-.02.3-.21.43-.5.44Z"/>
            <path class="cls-24" d="m261.46,77.03c.04-.28.2-.48.47-.5.35-.02.52.21.5.55-.01.31-.21.43-.5.42-.29-.02-.43-.2-.48-.48Z"/>
            <path class="cls-49" d="m257.72,77.24c-.4.01-.56-.16-.58-.45-.02-.3.16-.48.44-.51.31-.03.45.18.48.46.03.31-.14.46-.35.5Z"/>
            <path class="cls-1" d="m253.29,76.71c-.31.04-.48-.14-.51-.41-.02-.29.15-.45.46-.45.22,0,.41.08.42.34.01.26-.01.51-.37.51Z"/>
            <path class="cls-33" d="m247.92,109.07c.02.3-.17.5-.42.53-.34.04-.55-.17-.56-.52,0-.3.21-.44.49-.45.29,0,.48.12.49.43Z"/>
            <path class="cls-34" d="m235.04,91.07c-.01.43-.23.52-.51.51-.28,0-.49-.12-.49-.44,0-.36.23-.54.56-.5.25.03.45.22.43.42Z"/>
            <path class="cls-25" d="m232.24,86.96c-.02.28-.12.48-.44.48-.31,0-.48-.17-.51-.43-.03-.33.16-.55.52-.55.33,0,.41.23.43.5Z"/>
            <path class="cls-27" d="m250.26,112.26c.31.04.45.25.42.51-.03.33-.24.54-.59.48-.29-.05-.38-.31-.35-.57.04-.28.21-.44.51-.42Z"/>
            <path class="cls-24" d="m261.19,125.46c.01.27-.08.51-.37.56-.35.05-.57-.15-.57-.49,0-.26.13-.47.44-.48.31-.02.47.12.5.42Z"/>
            <path class="cls-35" d="m257.66,121.45c-.03.27-.12.5-.45.51-.32.01-.48-.17-.49-.46-.01-.28.1-.51.42-.52.32-.02.44.21.51.48Z"/>
            <path class="cls-34" d="m229.76,82.79c-.02.27-.16.49-.46.5-.3.01-.48-.17-.5-.46-.02-.3.12-.48.44-.5.33-.02.45.18.51.47Z"/>
            <path class="cls-38" d="m237.6,95.61c.39-.01.55.14.55.45,0,.29-.15.5-.44.53-.31.03-.46-.19-.48-.47-.02-.29.13-.47.36-.51Z"/>
            <path class="cls-47" d="m224.64,73.64c0,.28-.15.46-.43.51-.28.04-.5-.09-.54-.37-.06-.33.11-.57.46-.59.29-.02.42.2.51.45Z"/>
            <path class="cls-33" d="m254.21,116.67c-.02.28-.13.47-.45.48-.31,0-.48-.17-.49-.44-.01-.32.17-.56.53-.55.31,0,.4.24.41.51Z"/>
            <path class="cls-41" d="m264.57,128.93c.3.06.48.21.45.52-.02.3-.21.46-.51.45-.31-.02-.46-.23-.45-.51.01-.29.21-.45.51-.46Z"/>
            <path class="cls-37" d="m226.57,77.74c.28.06.44.23.42.52-.03.35-.25.53-.59.46-.27-.06-.41-.29-.36-.56.05-.26.23-.43.53-.42Z"/>
            <path class="cls-39" d="m240.75,99.98c-.06.31-.27.4-.55.33-.27-.08-.4-.28-.33-.56.08-.28.28-.4.56-.34.31.07.34.31.31.58Z"/>
          </g>
        </g>
      </g>
      <path class="cls-53" d="m34.83,226.63c-2.18,10.88,11.6,22.71,21.77,21.54,3.11-.36,5.24-1.86,8.71-4.31,4.79-3.38,13.93-9.83,13.06-17.23-.88-7.47-11.53-12.29-19.59-12.92-9.55-.74-22.15,3.99-23.94,12.92Z"/>
      <path class="cls-53" d="m.13,249.08c-1.23,6.11,6.52,12.76,12.23,12.1,1.75-.2,2.95-1.05,4.89-2.42,2.69-1.9,7.83-5.52,7.34-9.68-.49-4.2-6.48-6.91-11.01-7.26-5.37-.42-12.45,2.24-13.46,7.26Z"/>
    </g>
  </g>
</svg>