<?xml version="1.0" encoding="UTF-8"?>
<svg id="lotus" xmlns="http://www.w3.org/2000/svg" xmlns:xlink="http://www.w3.org/1999/xlink" viewBox="0 0 305 506">
  <defs>
    <style>
      .cls-1 {
        clip-path: url(#clippath);
      }

      .cls-2 {
        fill: none;
      }

      .cls-2, .cls-3, .cls-4, .cls-5, .cls-6, .cls-7, .cls-8 {
        stroke-width: 0px;
      }

      .cls-9, .cls-4 {
        fill: #c59167;
      }

      .cls-10 {
        clip-path: url(#clippath-1);
      }

      .cls-11 {
        clip-path: url(#clippath-3);
      }

      .cls-12 {
        clip-path: url(#clippath-2);
      }

      .cls-5 {
        fill: #af4d5d;
      }

      .cls-6 {
        fill: #ff71a3;
      }

      .cls-7 {
        fill: #673606;
      }

      .cls-8 {
        fill: #fff;
      }
    </style>
    <clipPath id="clippath">
      <path class="cls-4" d="m169.43,183.11c2.81-4.12,5.68-8.26,8.61-12.44,3.2-4.55,6.39-9.01,9.57-13.4,2.37-2.88,5.51-6.24,9.57-9.57,4.15-3.41,8.14-5.88,11.48-7.65,3.02-1.9,6.52-3.88,10.53-5.74,3.39-1.58,6.61-2.83,9.57-3.83,2.23-.32,4.47-.64,6.7-.96h4.62l3.04.96c1.59.64,3.19,1.28,4.78,1.91h0c1.28.64,2.55,1.28,3.83,1.91l3.83,3.83-4.78,3.83-81.33,41.14Z"/>
    </clipPath>
    <clipPath id="clippath-1">
      <path class="cls-4" d="m138.81,168.75c.29-3.7.26-8.67-.96-14.35-1.92-8.93-5.89-15.41-8.61-19.14-2.71-2.35-6.51-5.19-11.48-7.65-5.53-2.75-10.6-4.09-14.35-4.78-3.66.55-7.87,1.44-12.44,2.87-3.73,1.17-7.03,2.5-9.9,3.83-3.35,1.77-7.23,4.23-11.15,7.65-8.45,7.38-12.96,15.68-15.31,21.05l84.2,10.53Z"/>
    </clipPath>
    <clipPath id="clippath-2">
      <path class="cls-2" d="m169.93,181.16c2.81-4.12,5.68-8.26,8.61-12.44,3.2-4.55,6.39-9.01,9.57-13.4,2.37-2.88,5.51-6.24,9.57-9.57,4.15-3.41,8.14-5.88,11.48-7.65,3.02-1.9,6.52-3.88,10.53-5.74,3.39-1.58,6.61-2.83,9.57-3.83,2.23-.32,4.47-.64,6.7-.96h4.62l3.04.96c1.59.64,3.19,1.28,4.78,1.91h0c1.28.64,2.55,1.28,3.83,1.91l3.83,3.83-4.78,3.83-81.33,41.14Z"/>
    </clipPath>
    <clipPath id="clippath-3">
      <path class="cls-2" d="m139.31,166.8c.29-3.7.26-8.67-.96-14.35-1.92-8.93-5.89-15.41-8.61-19.14-2.71-2.35-6.51-5.19-11.48-7.65-5.53-2.75-10.6-4.09-14.35-4.78-3.66.55-7.87,1.44-12.44,2.87-3.73,1.17-7.03,2.5-9.9,3.83-3.35,1.77-7.23,4.23-11.15,7.65-8.45,7.38-12.96,15.68-15.31,21.05l84.2,10.53Z"/>
    </clipPath>
  </defs>
  <g id="gameoverkarakter">
    <g>
      <g>
        <polyline class="cls-4" points="169.43 183.11 223.01 216.6 261.7 199.85 262.24 151.53"/>
        <g>
          <g>
            <g>
              <path class="cls-9" d="m169.43,183.11c2.81-4.12,5.68-8.26,8.61-12.44,3.2-4.55,6.39-9.01,9.57-13.4,2.37-2.88,5.51-6.24,9.57-9.57,4.15-3.41,8.14-5.88,11.48-7.65,3.02-1.9,6.52-3.88,10.53-5.74,3.39-1.58,6.61-2.83,9.57-3.83,2.23-.32,4.47-.64,6.7-.96h4.62l3.04.96c1.59.64,3.19,1.28,4.78,1.91h0c1.28.64,2.55,1.28,3.83,1.91l3.83,3.83-4.78,3.83-81.33,41.14Z"/>
              <g class="cls-1">
                <rect class="cls-4" x="167.99" y="129.05" width="1.44" height="55.33"/>
                <rect class="cls-4" x="169.43" y="129.05" width="86.12" height="55.33"/>
                <rect class="cls-4" x="255.54" y="129.05" width=".72" height="55.33"/>
              </g>
            </g>
            <path class="cls-4" d="m169.43,183.11c2.81-4.12,5.68-8.26,8.61-12.44,3.2-4.55,6.39-9.01,9.57-13.4,2.37-2.88,5.51-6.24,9.57-9.57,4.15-3.41,8.14-5.88,11.48-7.65,3.02-1.9,6.52-3.88,10.53-5.74,3.39-1.58,6.61-2.83,9.57-3.83,2.23-.32,4.47-.64,6.7-.96h4.62l3.04.96c1.59.64,3.19,1.28,4.78,1.91h0c1.28.64,2.55,1.28,3.83,1.91l3.83,3.83-4.78,3.83-81.33,41.14Z"/>
          </g>
          <polygon class="cls-4" points="169.43 183.11 255.54 138.14 301.47 102.73 262.24 151.53 169.43 183.11"/>
          <polygon class="cls-4" points="245.01 156.44 215.08 167.48 169.43 183.11 223.01 216.6 261.7 199.85 262.24 151.53 245.01 156.44"/>
          <polygon class="cls-4" points="223.01 216.6 235.45 211.21 229.23 236.69 223.01 216.6"/>
          <polyline class="cls-4" points="235.45 211.21 258.44 236.69 249.16 205.28"/>
          <polyline class="cls-4" points="249.64 205.35 273.72 218.51 261.7 197.94"/>
          <polygon class="cls-4" points="3.89 119.96 52.75 167.38 138.81 168.75 54.61 158.23 3.89 119.96"/>
          <g>
            <g>
              <path class="cls-9" d="m138.81,168.75c.29-3.7.26-8.67-.96-14.35-1.92-8.93-5.89-15.41-8.61-19.14-2.71-2.35-6.51-5.19-11.48-7.65-5.53-2.75-10.6-4.09-14.35-4.78-3.66.55-7.87,1.44-12.44,2.87-3.73,1.17-7.03,2.5-9.9,3.83-3.35,1.77-7.23,4.23-11.15,7.65-8.45,7.38-12.96,15.68-15.31,21.05l84.2,10.53Z"/>
              <g class="cls-10">
                <rect class="cls-4" x="53.91" y="122.34" width=".69" height="46.95"/>
                <rect class="cls-4" x="54.61" y="122.34" width="84.35" height="46.95"/>
                <rect class="cls-4" x="138.96" y="122.34" width=".48" height="46.95"/>
              </g>
            </g>
            <path class="cls-4" d="m138.81,168.75c.29-3.7.26-8.67-.96-14.35-1.92-8.93-5.89-15.41-8.61-19.14-2.71-2.35-6.51-5.19-11.48-7.65-5.53-2.75-10.6-4.09-14.35-4.78-3.66.55-7.87,1.44-12.44,2.87-3.73,1.17-7.03,2.5-9.9,3.83-3.35,1.77-7.23,4.23-11.15,7.65-8.45,7.38-12.96,15.68-15.31,21.05l84.2,10.53Z"/>
          </g>
          <polygon class="cls-4" points="52.75 167.38 138.81 168.75 101.49 208.94 52.75 167.38"/>
          <polygon class="cls-4" points="77.96 165.91 109.89 166.84 98.62 178.32 77.96 165.91"/>
          <polygon class="cls-4" points="67.06 180.73 73.89 186.16 61.78 197.94 67.06 180.73"/>
          <polygon class="cls-4" points="78.08 188.74 73.78 185.41 70.4 205.59 78.08 188.74"/>
          <polygon class="cls-4" points="77.09 188.16 77.09 211.33 84.18 193.44 77.09 188.16"/>
          <line class="cls-4" x1="112.76" y1="227.78" x2="132.01" y2="220.98"/>
          <line class="cls-4" x1="189.31" y1="216.6" x2="206.12" y2="227.78"/>
          <polygon class="cls-4" points="201.96 98.9 221.1 94.12 241.1 96.51 201.96 98.9"/>
          <path class="cls-4" d="m66.09,117.08l18.57-18.18,41.64,3.83c-7.52-1.39-22.34-3.03-39.17,2.87-9.24,3.24-16.25,7.76-21.05,11.48Z"/>
          <polyline class="cls-4" points="171.55 117.56 142.43 242.91 156.99 232.94 156.99 242.91"/>
          <polygon class="cls-4" points="29.03 144.35 49.67 188.16 52.75 240.37 77.12 302.36 135.86 368.55 159.78 368.55 238.32 269.22 260.37 211.21 270.85 163.97 270.85 140.82 252.67 116.13 245.01 92.16 211.53 56.8 146.46 29.06 86.18 67.33 49.82 123.78 31.91 122.83 29.03 144.35"/>
          <polygon class="cls-4" points="111.06 319.93 141.68 276.88 157.95 277.83 165.81 276.88 201 313.24 165.81 305.74 158.9 303.67 146.46 304.63 139.77 303.67 111.06 319.93"/>
          <polyline class="cls-4" points="145.17 295.65 153.22 298.41 162.11 295.65"/>
          <polygon class="cls-4" points="119.25 315.3 137.95 304.7 139.77 303.67 146.46 304.63 158.9 303.67 186.85 310.22 153.64 338.35 119.25 315.3"/>
          <path class="cls-4" d="m153.23,267.52l5.86,4.19c1.98-1.4,3.97-2.8,5.95-4.19-.77.56-2.62,1.72-5.25,1.89-3.41.22-5.85-1.38-6.57-1.89"/>
          <polyline class="cls-4" points="25.26 140.7 17.4 174.03 31.7 197.94 37.38 233.82 44.62 240.37 52.75 240.37 89.05 263.48"/>
          <polygon class="cls-4" points="37.38 233.82 45.04 482.6 84.66 489.11 122.39 475.27 127.33 440.5 117.95 348.36 77.12 302.36 52.75 240.37 44.62 240.37 37.38 233.82"/>
          <line class="cls-4" x1="65.99" y1="274.03" x2="61.78" y2="363.61"/>
          <line class="cls-4" x1="80.83" y1="306.54" x2="81.12" y2="408.83"/>
          <polygon class="cls-4" points="260.37 211.21 270.85 413.44 287.12 501.73 230.05 471.58 212.49 460.04 202.92 447.19 197.71 433.28 175.48 348.69 238.32 269.22 260.37 211.21"/>
          <line class="cls-4" x1="232.27" y1="276.88" x2="235.45" y2="415.75"/>
          <line class="cls-4" x1="201" y1="393.6" x2="215.83" y2="427.74"/>
          <polygon class="cls-4" points="31.91 122.83 49.82 123.78 86.18 67.33 146.46 29.06 211.53 56.8 245.01 92.16 252.67 116.13 262.54 129.52 263.72 131.13 275.64 121.87 275.64 119 258.41 93.16 253.63 84.55 237.36 59.67 225.88 40.54 178.04 17.57 147.42 4.18 136.9 3.22 100.54 17.57 79.49 31.93 60.35 52.98 46.95 80.73 31.91 122.83"/>
          <path class="cls-3" d="m32.41,120.87l17.41,2.91,36.36-56.45,60.28-38.27.02-1.47c.31-7.8.62-15.6.94-23.41"/>
          <polyline class="cls-4" points="176.13 21.4 147.15 11.26 125.03 21.4"/>
          <polyline class="cls-4" points="160.82 19.49 147.15 16.33 140.86 19.49"/>
          <line class="cls-4" x1="146.76" y1="21.4" x2="181.87" y2="30.97"/>
        </g>
        <polygon class="cls-4" points="215.08 165.57 227.79 173.54 241.49 156.68 215.08 165.57"/>
      </g>
      <g>
        <g>
          <g class="cls-12">
            <rect class="cls-6" x="168.48" y="127.09" width="1.44" height="55.33"/>
            <rect class="cls-6" x="169.93" y="127.09" width="86.12" height="55.33"/>
            <rect class="cls-6" x="256.04" y="127.09" width=".72" height="55.33"/>
          </g>
          <path class="cls-2" d="m169.93,181.16c2.81-4.12,5.68-8.26,8.61-12.44,3.2-4.55,6.39-9.01,9.57-13.4,2.37-2.88,5.51-6.24,9.57-9.57,4.15-3.41,8.14-5.88,11.48-7.65,3.02-1.9,6.52-3.88,10.53-5.74,3.39-1.58,6.61-2.83,9.57-3.83,2.23-.32,4.47-.64,6.7-.96h4.62l3.04.96c1.59.64,3.19,1.28,4.78,1.91h0c1.28.64,2.55,1.28,3.83,1.91l3.83,3.83-4.78,3.83-81.33,41.14Z"/>
        </g>
        <polygon class="cls-3" points="169.93 181.16 256.04 136.18 301.97 100.78 262.74 149.58 169.93 181.16"/>
        <polygon class="cls-8" points="245.51 154.48 169.93 181.16 223.51 214.65 262.2 197.9 262.74 149.58 245.51 154.48"/>
        <polygon class="cls-3" points="223.51 214.65 235.95 209.26 229.73 234.74 223.51 214.65"/>
        <polyline class="cls-3" points="235.95 209.26 258.94 234.74 249.66 203.33"/>
        <polyline class="cls-3" points="250.14 203.39 274.22 216.56 262.2 195.99"/>
        <polygon class="cls-3" points="4.39 118 53.25 165.43 139.31 166.8 55.11 156.28 4.39 118"/>
        <g>
          <g class="cls-11">
            <rect class="cls-6" x="54.41" y="120.39" width=".69" height="46.95"/>
            <rect class="cls-6" x="55.11" y="120.39" width="84.35" height="46.95"/>
            <rect class="cls-6" x="139.46" y="120.39" width=".48" height="46.95"/>
          </g>
          <path class="cls-2" d="m139.31,166.8c.29-3.7.26-8.67-.96-14.35-1.92-8.93-5.89-15.41-8.61-19.14-2.71-2.35-6.51-5.19-11.48-7.65-5.53-2.75-10.6-4.09-14.35-4.78-3.66.55-7.87,1.44-12.44,2.87-3.73,1.17-7.03,2.5-9.9,3.83-3.35,1.77-7.23,4.23-11.15,7.65-8.45,7.38-12.96,15.68-15.31,21.05l84.2,10.53Z"/>
        </g>
        <polygon class="cls-8" points="53.25 165.43 139.31 166.8 101.99 206.99 53.25 165.43"/>
        <polygon class="cls-3" points="78.46 163.96 110.38 164.89 99.12 176.37 78.46 163.96"/>
        <polygon class="cls-3" points="67.55 178.78 74.39 184.21 62.28 195.99 67.55 178.78"/>
        <polygon class="cls-3" points="78.58 186.79 74.27 183.45 70.89 203.64 78.58 186.79"/>
        <polygon class="cls-3" points="77.59 186.21 77.59 209.38 84.68 191.49 77.59 186.21"/>
        <line class="cls-2" x1="113.26" y1="225.83" x2="132.51" y2="219.03"/>
        <polyline class="cls-3" points="175.98 202.09 189.8 214.65 206.62 225.83"/>
        <polygon class="cls-3" points="202.46 96.95 221.6 92.17 241.6 94.56 202.46 96.95"/>
        <path class="cls-3" d="m66.59,115.13l18.57-18.18,41.64,3.83c-7.52-1.39-22.34-3.03-39.17,2.87-9.24,3.24-16.25,7.76-21.05,11.48Z"/>
        <polyline class="cls-3" points="172.05 115.61 142.93 240.96 157.49 230.99 157.49 240.96"/>
        <polygon class="cls-2" points="29.53 142.4 50.17 186.21 53.25 238.41 77.62 300.41 136.36 366.6 160.27 366.6 238.82 267.27 260.87 209.26 271.35 162.02 271.35 138.87 253.17 114.18 245.51 90.21 212.03 54.85 146.96 27.1 86.68 65.38 50.32 121.83 32.41 120.87 29.53 142.4"/>
        <polygon class="cls-5" points="111.56 317.98 142.18 274.93 158.44 275.88 166.31 274.93 201.5 311.29 166.31 303.79 159.4 301.72 146.96 302.67 140.26 301.72 111.56 317.98"/>
        <polyline class="cls-5" points="145.67 293.7 153.72 296.45 162.61 293.7"/>
        <polygon class="cls-5" points="119.74 313.35 138.45 302.74 140.26 301.72 146.96 302.67 159.4 301.72 187.35 308.27 154.14 336.4 119.74 313.35"/>
        <path class="cls-2" d="m153.72,265.57c.72.51,3.16,2.12,6.57,1.89,2.63-.17,4.47-1.34,5.25-1.89-1.98,1.4-3.97,2.8-5.95,4.19"/>
        <polyline class="cls-2" points="25.76 138.75 17.89 172.08 32.2 195.99 37.88 231.87 45.12 238.41 53.25 238.41 89.55 261.53"/>
        <polygon class="cls-7" points="37.88 231.87 45.54 480.65 85.16 487.16 122.88 473.32 127.83 438.55 118.45 346.41 77.62 300.41 53.25 238.41 45.12 238.41 37.88 231.87"/>
        <line class="cls-7" x1="66.48" y1="272.08" x2="62.28" y2="361.66"/>
        <line class="cls-2" x1="81.33" y1="304.59" x2="81.61" y2="406.87"/>
        <polygon class="cls-7" points="260.87 209.26 271.35 411.49 287.62 499.78 230.54 469.63 212.98 458.09 203.42 445.24 198.21 431.33 175.98 346.74 238.82 267.27 260.87 209.26"/>
        <line class="cls-7" x1="232.77" y1="274.93" x2="235.95" y2="413.8"/>
        <line class="cls-7" x1="201.5" y1="391.65" x2="216.33" y2="425.79"/>
        <path class="cls-7" d="m32.41,120.87l17.91.96c12.28-18.66,24.56-37.32,36.84-55.98,19.77-13.08,39.55-26.15,59.32-39.23,21.85,9.41,43.7,18.82,65.54,28.23l33.48,35.35,7.66,23.97,9.86,13.4,1.19,1.61,11.92-9.26v-2.87l-17.22-25.83-4.78-8.61-16.27-24.88-11.48-19.14-47.84-22.96-30.62-13.4-10.53-.96-36.36,14.35-21.05,14.35-19.14,21.05-13.4,27.75-15.04,42.1Z"/>
        <polyline class="cls-2" points="176.62 19.45 147.65 9.31 125.52 19.45"/>
        <polyline class="cls-2" points="161.31 17.54 147.65 14.38 141.36 17.54"/>
        <line class="cls-2" x1="147.26" y1="19.45" x2="182.37" y2="29.02"/>
        <polyline class="cls-2" points="85.16 487.16 29.53 481.64 9.18 495 -.39 539.97 21.62 590.68"/>
        <polyline class="cls-2" points="89.55 505.64 119.74 522.86 124.95 530.4 145.67 533.74"/>
        <path class="cls-3" d="m146.96,27.1c1-10.17,1.55-17.67,1.44-19.62-.01-.22-.03-.45-.03-.45-.12-1.92-.29-3.54-.45-4.82l-4.51-.41c1.16,3.02,2.35,6.87,3.07,11.41.87,5.47.8,10.23.48,13.87Z"/>
        <path class="cls-3" d="m147.45,10.31l20.94,5.64-20.94-5.64Z"/>
        <line class="cls-3" x1="146.43" y1="9.35" x2="134.04" y2="18.97"/>
        <line class="cls-3" x1="147.65" y1="14.38" x2="174.23" y2="22.8"/>
        <path class="cls-3" d="m77.62,300.41l-3.73,184.9c-.11-35.9.72-73.39,2.74-112.31,1.21-23.4,2.8-46.21,4.7-68.41"/>
        <path class="cls-3" d="m101.86,327.73l8.03,109.84-8.03-109.84Z"/>
        <polyline class="cls-3" points="208.42 305.72 215.74 296.45 223.51 413.8"/>
      </g>
      <polygon class="cls-3" points="219.4 162.66 232.12 170.63 245.81 153.77 219.4 162.66"/>
      <path class="cls-3" d="m120.7,313.35l20.52-11.63c4.31.48,8.61.96,12.92,1.44l9.43-3.26c20.3,6.75,24.76,8.31,24.74,8.38-.06.2-10.34-3.85-23.64-5.12-9.94-.95-18.28-.02-23.92.96"/>
      <path class="cls-3" d="m111.2,210.73c16.39-15.95,17.53-14.77,17.53-14.77l-1.14-1.17"/>
      <path class="cls-3" d="m150.77,271.94c1.44.52,2.88,1.03,4.32,1.55.98-.64,1.97-1.27,2.95-1.91l-3.26,2.9-4.01-2.54Z"/>
      <polygon class="cls-4" points="117.95 348.36 135.86 368.55 159.78 368.55 175.48 348.69 198.21 431.33 202.92 447.19 215.83 462.24 122.88 473.32 127.33 440.5 117.95 348.36"/>
      <path class="cls-3" d="m135.96,367.26c14.86,4.52,21.33,1.05,23.92-.96,1.45-1.12,4.15-4.26,9.57-10.53,3.68-4.26,5.99-7.12,6.03-7.09.05.04-2.71,3.58-15.7,19.86-3.46.36-7.27.6-11.38.62-4.56.02-8.76-.23-12.53-.62l-17.92-20.19c6.14,55.54,7.74,70.47,7.68,70.48-.07,0-3.01-22.45-4.98-51.58-.44-6.48-.75-12.02-.96-16.27"/>
      <path class="cls-3" d="m48.46,209.71l31.98,42.77c-10.52-14.68-21.04-29.37-31.56-44.05"/>
      <polyline class="cls-3" points="46.73 182.64 51.76 238.41 45.06 181.63"/>
      <polyline class="cls-3" points="25.77 144.35 17.4 174.03 25.26 140.7 46.82 182.11"/>
      <path class="cls-3" d="m17.4,174.03l14.3,23.91c-4.8-8.31-9.59-16.61-14.39-24.92"/>
      <polyline class="cls-3" points="31.7 197.94 37.88 231.87 37.38 233.82"/>
      <path class="cls-3" d="m146.46,29.06c0-.17.01-.34.02-.52.02-.66.02-1.3,0-1.91,21.85,9.41,43.7,18.82,65.54,28.23"/>
      <path class="cls-3" d="m270.85,140.82v23.15c-4.77,22.35-7.24,33.5-7.4,33.47-.17-.03,1.99-11.37,6.47-33.99"/>
    </g>
    <polyline class="cls-3" points="176.44 349.65 191.89 405.82 198.23 428.7 202.9 442.25 204.37 446.2"/>
  </g>
</svg>