<?xml version="1.0" encoding="UTF-8"?>
<svg id="lotus" xmlns="http://www.w3.org/2000/svg" viewBox="0 0 320 630">
  <defs>
    <style>
      .cls-1, .cls-2, .cls-3, .cls-4, .cls-5, .cls-6, .cls-7, .cls-8, .cls-9, .cls-10, .cls-11, .cls-12, .cls-13, .cls-14, .cls-15, .cls-16, .cls-17, .cls-18, .cls-19 {
        stroke-width: 0px;
      }

      .cls-2 {
        fill: #f6f6f6;
      }

      .cls-3 {
        fill: #f8f8f8;
      }

      .cls-4 {
        fill: #471f05;
      }

      .cls-5 {
        fill: #7c4a1a;
      }

      .cls-6 {
        fill: #c59167;
      }

      .cls-7 {
        fill: #c499a2;
      }

      .cls-8 {
        fill: #af4d5d;
      }

      .cls-9 {
        fill: #cebdb3;
      }

      .cls-10 {
        fill: #cdbdb3;
      }

      .cls-11 {
        fill: #cdbd9d;
      }

      .cls-12 {
        fill: #666;
      }

      .cls-13 {
        fill: #673606;
      }

      .cls-14 {
        fill: #e2e2e2;
      }

      .cls-15 {
        fill: #f5f5f5;
      }

      .cls-16 {
        fill: #f4f4f4;
      }

      .cls-17 {
        fill: #010101;
      }

      .cls-18 {
        fill: #060606;
      }

      .cls-19 {
        fill: #020202;
      }
    </style>
  </defs>
  <g id="kunden">
    <path class="cls-3" d="m150.37,97.64c-6.67,0-6.66-10.05,0-10.05s6.66,10.05,0,10.05Zm83.44,18.35c-6.67,0-6.66-10.05,0-10.05s6.66,10.05,0,10.05Z"/>
    <path class="cls-1" d="m316,248.22c-.63-13.79-4.28-26.73-11.41-38.69-2.19-3.67-4.45-7.31-6.11-11.22-9.56-22.48-18.73-45.11-27.37-67.93-1.85-4.9-2.44-10.11-2.02-15.3.74-9.16,1.91-18.28,2.62-27.44.71-9.18.98-18.48-2.34-27.26-2.53-6.68-6.01-13.02-9.09-19.5-.25-.52-.62-1-1.01-1.45-4.56-5.25-9.4-10.24-14.47-15.04-8.24-7.81-18.65-11.17-29.43-13.76-2.84-.68-5.81.22-8.75,0-8.19-.64-16.02-2.69-23.78-5.13-8-2.51-15.99-5.19-24.57-4.7-5.41.3-10.79.97-16.2,1.36-3.63.26-7.2.82-10.47,2.34-7.33,3.42-14.92,6.23-22.38,9.34-13.43,5.6-25.09,13.54-34.12,24.79-6.67,8.31-11.49,17.7-16.28,27.11-3.7,7.26-5.38,14.85-5.34,22.91.11,24.44.13,48.89.22,73.33,0,2.54-.41,5-1.28,7.36-4.17,11.36-9.71,22-17.24,31.64-2.85,3.65-6.13,6.98-8.2,11.2-6.92,14.1-13.47,28.36-19.45,42.86-.53,1.29-.95,2.6-.95,4.05.01,4.94-.11,9.88-.11,14.82.01,14.83,2.58,28.86,13.52,40.25,1.7,1.77,3.19,3.73,4.81,5.57,12.28,13.9,25.31,26.91,42.75,34.88,1.36.62,2.92,1.01,3.54-.08.78-1.36-.36-2.37-1.85-3.22-5.1-2.9-10.56-5.24-15.22-8.79-11.18-8.52-20.77-18.58-29.75-29.21-4.66-5.52-9.05-10.95-10.92-18.31-3.47-13.71-4.74-27.33-.99-41.04,2.06-7.56,6.11-14.42,9.24-21.61,5.33-12.23,11.43-24.06,20.19-34.4,2.24-2.64,4.65-5.19,6.04-8.39,2.51-5.81,5.13-11.59,7.33-17.51,3.85-10.38,5.96-21.31,10.32-31.54,1.09-2.56.59-4.49-1.89-6.15-1.81,5.17-3.6,10.29-5.4,15.42-.28-.04-.56-.08-.85-.12,0-21.18.1-42.36-.08-63.53-.04-4.8.77-9.26,2.8-13.56,2.17-4.6,4.3-9.23,6.58-13.78,9.82-19.58,24.53-34.22,45.61-42.4,7.78-3.02,15.54-6.1,23.28-9.23,2.16-.87,4.31-1.47,6.69-1.56,4.56-.17,9.11-.7,13.67-.76,3.85-.05,7.76-.89,11.57.17,9.61,2.69,19.18,5.5,28.81,8.12,1.56.43,2.35,1.15,2.73,2.56,1.34,4.98,2.68,9.96,4.08,14.93.4,1.43.14,2.52-.94,3.63-2.97,3.03-5.92,6.09-8.7,9.28-2,2.29-4.39,3.87-7.2,5.08-11.26,4.86-22.9,8.74-34.4,12.99-7.43,2.74-15.26,4.54-22.24,8.33-7.78,4.24-15.37,8.8-23.04,13.22-1.34.77-2.56,1.71-3.58,2.85-10.94,12.3-20.4,25.58-28.03,40.06-.66,1.26-1.41,2.54-1.5,3.96-.43,6.93-.77,13.86-1.14,20.8-.08,1.55.53,3.19,1.96,3.35,1.66.18,1.86-1.7,1.96-2.95.33-3.83,1.03-7.73.62-11.51-1.07-9.89,4.7-17.14,9.33-25.08.73,1.05.29,1.97.29,2.84,0,1.93.42,3.78,2.03,4.94,4.45,3.19,7.31,7.41,9.25,12.35.54,1.39,1.42,2.66,2.18,3.97,3.31,5.7,7.63,10.7,11.67,15.89.61.79,1.2,1.42.59,2.61-2.86,5.59-4.81,11.54-7.03,17.38-7.44,19.61-16.36,38.73-20.75,59.35-.36,1.68-1.2,4.26.54,4.67,2.21.52,2.82-2.09,3.31-3.96.04-.16.03-.34.07-.5,1.33-5.15,2.42-10.38,4.06-15.44,4.01-12.36,9.16-24.32,13.83-36.44,2.72-7.07,5.61-14.09,8.28-21.17.7-1.84,1.18-1.3,2.07-.25,1.33,1.58.66,3.16.06,4.72-2.94,7.7-5.88,15.4-8.89,23.07-.76,1.95.08,3.28,1.73,3.8,1.58.5,1.37-1.28,1.7-2.13,3.19-8.19,6.32-16.4,9.54-24.8.85.63,1.54,1.11,2.19,1.64,7.17,5.89,14.24,11.89,21.53,17.63,3.14,2.48,5.46,5.19,5.73,9.26-.69.07-1.46.18-2.23.22-4.12.26-6.51,2.39-7.64,6.21-.75,2.54-1.85,4.99-2.9,7.45-.29.69-.39,1.58-1.54,1.79-2.97.53-5.52,2.22-8.38,3.06-1.22.36-2.06,1.21-2.64,2.26-3.95,7.19-7.89,14.39-11.8,21.6-.81,1.49-.84,3.09.81,3.94,1.68.86,1.36,2.04,1.23,3.38-.94,9.73-1.98,19.46-2.4,29.24-.28,6.43-2.32,11.98-7.14,16.62-8.62,8.29-15.15,17.78-18.93,29.21-4.36,13.19-9.18,26.27-15.87,38.59-.99,1.83-1.44,3.7-1.53,5.75-.26,6.1-.45,12.21-.96,18.29-.55,6.45-.08,12.56,3.49,18.3,1.85,2.97,3.08,6.29,4.59,9.45.91,1.91,2.65,1.93,4.41,1.72,1.85-.22,1.73-1.63,1.97-3,.52-3.08.28-6.26,1.17-9.29,8.23,2.82,16.39,5.55,24.49,8.42,6.45,2.28,5.45,1.1,5.25,7.5-.21,6.65.82,12.75,5.36,18.04,1.23,1.43,2.7,3.13,2.4,5.13-.54,3.62.91,7.17-1.12,11-2.45,4.63-4.05,9.82-3.52,15.39.79,8.24,1.05,16.52,1.8,24.77.42,4.55.19,9.19,1.94,13.59,3.1,7.82,6.06,15.7,9.16,23.52,1.35,3.39,1.83,6.82,1.89,10.48.15,10.34-4.87,18.88-9.51,27.6-.5.93-1.36,1.49-2.18,2.09-7.61,5.6-15.28,11.12-22.81,16.82-2.97,2.25-6.16,3.8-9.74,4.84-6.54,1.91-13.03,4.02-19.53,6.07-4.02,1.27-4.52,2.38-2.75,6.02,3.84,7.89,7.77,15.74,11.52,23.66,1.36,2.87,3.25,4.06,6.6,3.95,15.25-.49,30.5-.78,45.76-1.11,4.68-.1,5.81-.56,6.98-5.01,2.12-8.04,7.86-13.58,13.65-19.4.39,6.62.38,13.2.39,19.78,0,3.91.76,4.6,4.88,4.58,3.19-.02,6.38,0,9.57,0,3.67,0,4.61-.88,4.61-4.41,0-2.79,0-5.58,0-9.11,2.45,3.98,4.55,7.28,6.52,10.65,1.19,2.03,2.88,2.89,5.27,2.89,19.92-.03,39.83-.03,59.75,0,2.39,0,4-.85,5.1-3.02,2.54-4.99,5.22-9.9,7.92-14.8,1.56-2.84,2.39-5.86,2.76-9.03.53-4.44-.62-5.96-5.14-6.65-6.86-1.05-13.73-2.08-20.6-3.1-1.61-.24-2.9-.93-3.93-2.16-15.36-18.37-30.71-36.73-46.09-55.08-1.21-1.44-1.79-2.99-1.65-4.84.75-10.34,1.49-20.68,2.22-31.02.63-8.8,2.44-17.54.42-26.42-1.31-5.77-2.08-11.65-3.13-17.47-.38-2.11-1.82-3.21-3.87-2.48-1.51.54-1.94-.08-2.62-1.02-2.57-3.55-5.12-7.12-7.81-10.58-2.84-3.64-3.01-7.17-.44-11.06,3.29-4.97,6.37-10.08,9.48-15.16,1.3-2.12,2.96-3.39,5.66-3.08,1.19.13,2.44.14,3.61-.06,12.68-2.11,25.35-4.27,38.01-6.43,2.71-.46,3.31-1.58,2.09-3.98-1.9-3.73-3.79-7.48-5.9-11.1-.9-1.54-.72-2.31.71-3.37,7.88-5.81,15.71-11.69,23.49-17.62,16.14-12.28,32.28-24.55,45.05-40.42,8.32-10.35,16.42-20.79,21.55-33.04,4.06-9.69,7.6-19.57,8.8-30.09.58-5.12.04-10.19-.2-15.28ZM150.37,97.64c-6.67,0-6.66-10.05,0-10.05s6.66,10.05,0,10.05Zm83.44,18.35c-6.67,0-6.66-10.05,0-10.05s6.66,10.05,0,10.05Z"/>
    <path class="cls-13" d="m268.18,81.15c.13,8.05-.83,16.03-2.02,23.97-1.66,11.07-.68,21.61,3.59,32.19,8.63,21.42,16.69,43.05,26.43,64.04,2.97,6.4,7.43,12.05,9.75,18.72,3.33,9.56,6.13,19.13,6.7,29.42,1.39,25.16-8.51,46.36-22.94,66.25-12.8,17.65-29.09,31.84-46.56,44.92-9.2,6.89-18.35,13.85-27.45,20.86-1.57,1.21-2.11.99-2.97-.68-5.97-11.54-12.02-23.04-18.13-34.51-1.28-2.4-1.38-4.67-.63-7.23.65-2.23,2.08-2.91,4.16-2.76,4.03.29,8.07.59,12.09,1.06,2.7.32,4.38-.75,5.72-2.91,13.49-21.91,27.02-43.79,40.54-65.69,1.74-2.82,1.9-6.04,2.39-9.16.2-1.27-.81-2.14-1.57-3.03-10.29-12.13-20.56-24.28-30.92-36.35-1.29-1.51-1.83-2.6-.26-4.21,1.62-1.65,1.24-3.34-.45-4.8-5.08-4.4-10.15-8.8-15.26-13.17-1.45-1.24-3.19-2.02-5.16-2.02-4.11,0-8.14-1.07-12.36-.5-1.32.18-2.6-2.45-3.49-4-.63-1.1.98-1.34,1.67-1.77,12.1-7.53,24.24-14.98,36.31-22.54,1.6-1,2.07-.6,2.71.86,8.07,18.28,16.18,36.54,24.28,54.8.24.54.4,1.12.71,1.61.57.93,1.34,2.08,2.54,1.49,1.28-.63,1.37-1.87.74-3.25-3.7-8.13-7.35-16.29-10.98-24.46-4.76-10.7-9.42-21.44-14.28-32.09-.81-1.78-.47-2.7.99-3.68,4.96-3.35,8.64-7.74,11.75-12.79,3.43-5.59,3.79-11.7,4.45-17.82,1.06-9.8,2.7-19.51,4.69-29.18,3.53-17.21.58-29.52-15.31-39.63-5.22-3.32-9.69-7.5-13.97-11.88-4.86-4.98-9.69-9.99-14.54-14.98-2.77-2.86-4.66-6.13-5.52-10.02-.73-3.34-1.66-6.65-2.71-9.91-.67-2.06.02-2.45,2.03-2.55,7.3-.36,14.04,1.7,20.91,3.71,11.81,3.47,19.13,12.32,27.2,20.35,2.94,2.92,5.02,6.32,6.42,10.15,1.04,2.84,2.52,5.46,4.07,8.07,3.5,5.89,4.3,12.45,4.62,19.08.1,2,.01,4.02.01,6.02Z"/>
    <path class="cls-6" d="m247.39,124.49c-.68,6.3-.86,12.27-2.4,17.98-2.18,8.05-7.91,13.78-14.69,18.49-10.35,7.2-21.34,13.46-32.02,20.17-4.11,2.59-8.25,5.15-12.42,7.63-10.85,6.47-23.9,5.91-32.54-1.29-7.06-5.89-13.91-12.05-21.3-17.52-12.25-9.06-20.52-21.25-28.99-33.33-1.15-1.64-1.95-3.53-2.74-5.37-1.68-3.93-4.02-7.41-7.49-10.03-1.63-1.23-2.33-2.65-2.61-4.6-.85-5.85.65-10.98,4.73-15.29,2.1-2.22,4.06-4.51,5.79-7.03,2.56-3.75,6.11-6.54,10.12-9.19,4.44,6.2,8.86,12.39,13.29,18.58,1.47,2.05,2.98,4.08,4.44,6.15,3.53,4.97,8.45,7.83,14.57,8.32,8.92.71,17.88,1.08,26.82,1.6,2.25.13,3.2-.72,3.29-3.04.34-8.84-1.33-17.06-7.08-24.22-4.83-6.01-11.4-9.63-18.8-10.95-5.21-.93-10.81,0-16.22.34-5.16.32-10.34.05-15.57.58,5.38-3.37,10.54-7.04,16.45-9.47,5.68-2.34,11.46-4.46,17.18-6.72,1.38-.55,2.55-.44,3.88.27,4.5,2.41,9.17,4.53,13.55,7.12,2.41,1.42,4.32.89,6.88-.26-5.94-3.12-11.57-6.09-17.67-9.29,2.13-.79,3.81-1.48,5.54-2.04,9.94-3.23,19.47-7.43,29.12-11.33,2.28-.92,3.68-2.71,5.24-4.34,2.93-3.06,5.86-6.14,8.63-9.33,1.11-1.27,1.65-1.08,2.7.02,5.79,6.08,11.72,12.04,17.5,18.13,5.06,5.33,10.84,9.82,17.07,13.72,4.48,2.8,6.88,6.83,8.76,11.78-7.45-2.19-14.09,1.19-21.03,1.95-1.46.16-.71,1.43-.71,2.25,0,1.27.77,1.47,1.9,1.23,3.61-.77,7.21-1.55,10.83-2.25,2.9-.55,5.79-.73,8.63.43,1.7.69,2.49,1.67,2.39,3.62-.19,3.67-.05,7.36-.07,11.05,0,1.02-.02,2.02.78,2.89-5.07,1.58-10.16,1.57-15.29,1.11-4.3-.39-8.61-.68-12.87.26-5.3,1.16-9.71,3.86-13.19,7.86-3.56,4.09-6.88,8.36-10.42,12.46-.68.79-.41,1.45-.33,2.17.12,1.08,1.05.56,1.55.53,3.13-.2,5.92.68,8.55,2.26,4.43,2.65,9.49,2.74,14.45,3.2,2.14.2,4.29.38,6.44.43,3.45.09,6.68-.71,9.44-2.81,1.88-1.43,3.65-3.01,5.93-4.9Z"/>
    <path class="cls-11" d="m148.71,406.06c-10.09,0-20.18,0-30.26,0-1.66,0-3.26-.19-4.82-.74-8.3-2.91-16.59-5.86-24.91-8.72-1.55-.53-2.15-.98-1.39-2.74,3.17-7.29,6.17-14.66,9.23-21.99.44-1.05.74-2.69,1.97-.43.47.86,1.38.9,2.25.91,4.48.03,8.97.09,13.45.06,2.01-.01,3.2-.86,3.12-3.07-.31-8.36-.58-16.73-.81-25.09-.06-2.32-1.18-3.32-3.53-3.28-3.19.06-6.38-.04-9.57.08-1.4.05-1.76-.44-1.76-1.7-.02-2.66.52-5.16,2.03-7.39,2.4-3.56,4.96-7.03,7.27-10.65,1.06-1.65,1.94-.71,2.92-.2,7.21,3.72,14.48,7.32,21.58,11.23,4,2.2,8.02,2.43,12.42,1.84,9.38-1.26,18.8-2.19,28.18-3.43,2.53-.33,3,.57,2.58,2.64-.15.74-.28,1.48-.39,2.23-.45,3.13.55,5.13,3.65,6.03,6.04,1.76,9.56,5.86,12.11,11.16,4.9,10.2,10.36,20.13,15.8,30.07.83,1.51,1.03,2.5-.93,3.3-1.33.55-2.35,1.88-1.46,3.24.94,1.46,2.34.52,3.35-.24,1.69-1.28,2.33-1.08,3.06,1.03.95,2.74,2.53,5.3,3.95,7.87.67,1.21.6,1.72-.91,1.96-11.78,1.92-23.52,4.14-35.35,5.75-5.16.7-10.5.22-15.76.24-5.69.02-11.38,0-17.07,0h0Z"/>
    <path class="cls-12" d="m250.82,596.85c-3.44,4.05-6.53,7.63-9.54,11.27-.65.79-1.39.82-2.27.82-16.81,0-33.62,0-50.43.07-1.54,0-2.61-.57-3.59-1.59-9.56-9.99-19.11-19.99-28.71-29.94-1.35-1.4-1.75-2.92-1.74-4.76.06-12.47-.19-24.95.15-37.41.32-11.91-2.53-23.17-6.05-34.4-2.95-9.41-5.58-18.91-8.46-28.33-.91-2.97-.22-5.7.93-9.25,1.03,5.29,4.76,5.14,8.45,5.21,1.71.03,3.46.21,5.12.6,3.05.71,5.32-.39,7.44-2.37,4.28-3.99,8.65-7.9,12.92-11.78.7,4.01,1.24,8.63,2.33,13.13,2.68,10.95.37,21.82-.3,32.7-.54,8.76-1.49,17.49-1.91,26.27-.16,3.47.97,6.33,3.19,8.98,14.9,17.75,29.79,35.52,44.61,53.34,2.54,3.05,5.86,4.12,9.64,4.64,5.92.82,11.82,1.82,18.21,2.81Z"/>
    <path class="cls-12" d="m120.53,462.86c5.75,2.1,11.37,3.3,17.13-1.12-2.94,7.42-.39,13.85,1.5,20.33,3.68,12.59,7.43,25.15,11.13,37.73.52,1.77.67,3.6.67,5.46-.03,14.14.09,28.29-.06,42.43-.08,7.07.81,14.01,1.92,20.95.33,2.05,0,3.62-1.47,5.25-4.45,4.88-8.74,9.9-13,14.94-1.09,1.29-2.26,1.79-3.97,1.75-19.64-.56-39.28-1.08-58.92-1.56-1.5-.04-2.33-.51-2.91-1.87-1.08-2.54-2.27-5.04-3.59-7.47-.76-1.4-.59-1.9,1.03-2.37,4.52-1.31,8.92-3.07,13.49-4.19,7.74-1.9,14.42-5.52,20.57-10.4,5.93-4.7,12.14-9.07,18.29-13.51,1.64-1.19,2.88-2.59,3.74-4.37,2.44-5.06,5.19-10,7.27-15.19,2.42-6.04,2.34-12.43,1.31-18.78-1.03-6.33-3.59-12.21-6.23-17.99-3.99-8.74-6.18-17.77-6.42-27.35-.17-7.01-.96-14.01-1.47-21.02-.03-.48,0-.97,0-1.64Z"/>
    <path class="cls-7" d="m184.81,295.71c-8.84-5.13-17.43-10.33-26.26-15.14-4.31-2.34-7.3-4.51-6.99-10.2.31-5.67-2.94-10.86-5.12-16.11-3.47-8.3-6.96-16.59-10.94-24.79v19.7c-1.06.42-1.5-.26-2.03-.59-5.14-3.19-10.24-6.44-15.4-9.59-1.18-.72-1.43-1.29-.73-2.55,3.45-6.14,6.78-12.35,10.18-18.52,1.01-1.82,1.57-2.07,7.53-4.04-1.88,4.83-3.66,9.42-5.67,14.59,4.16-2.19,7.88-3.87,11.28-6.03,2.44-1.56,4.07-1.09,5.78.79,4.16,4.59,7.64,9.68,11.45,14.53,3.71,4.71,7.28,9.51,10.93,14.27.41.53.81,1.13,1.35,1.5,1.3.89,2.36,1.43,3.07-.83,3.35-10.76,6.85-21.46,10.3-32.19.13-.4.25-.79.39-1.19,2.21-6.28,2.94-6.71,9.54-5.64,4.39.71,8.77,1.41,13.54,2.18-2.52-6.7-8.1-11.01-11.54-16.84,4.76.39,9.69-.68,13.66,2.69,4.54,3.85,9.01,7.77,13.55,11.63.59.5.53.72.1,1.3-3.64,4.86-7.26,9.75-10.81,14.68-.8,1.11-1.27.87-2.16.13-2.52-2.12-5.14-4.12-8.12-6.49,0,6.9-.08,13.37.03,19.84.07,4.01.42,8.02.66,12.02.06,1.02-.11,1.97-.58,2.91-6.16,12.31-11.6,24.92-16.99,37.97Z"/>
    <path class="cls-13" d="m204.76,230.12c1.87,1.45,3.32,2.61,4.81,3.7.86.63,1.72,1.52,2.92.49.55-.47.76-.14,1.11.38,5.6,8.22,12.22,15.71,18.15,23.7.31.42,1.46.64.5,1.5-3.59,3.23-3.61,7.82-4.67,11.96-1.62,6.3-2.91,12.69-4.32,19.04-.45,2.01-1.54,3.7-2.72,5.35-5.22,7.26-10.47,14.49-15.65,21.77-.84,1.17-1.42,1.67-2.91.74-4.42-2.73-9.49-3.43-14.57-3.69-2.69-.13-3.07-1.13-2.66-3.48,2.29-12.96,7.41-24.95,13.02-36.79,2.26-4.77,4.49-9.54,6.86-14.26,1.93-3.85,1.22-7.87,1.08-11.85-.21-6.02-.6-12.03-.93-18.57Z"/>
    <path class="cls-6" d="m87.92,380.52c-1.08-4.16-2.16-8.31-3.31-12.72-2.72,3.94-2.6,8.24-2.98,12.42-.75,8.16-1.48,16.32-2.24,24.48-.03.32-.17.62-.32,1.11-5.68-8.27-8.39-17.04-6.99-26.83.11-.74.31-1.51.23-2.24-.98-8.71,1.68-16.68,5.19-24.49,6.18-13.74,11.35-27.86,16.57-41.96.85-2.31,1.98-4.46,3.68-6.26,4.31-4.55,8.03-9.59,12.64-13.91,4.42-4.14,5.43-9.71,5.9-15.39.85-10.22,1.71-20.45,2.59-30.98,4.52,2.82,8.73,5.5,13.01,8.08,1.02.62.75,1.18.57,2.06-2.35,11.45-5.46,22.76-7.1,34.35-.52,3.68-1.66,7.3-1.38,11.07.05.61-.28.93-.64,1.28-9.22,8.93-15.96,19.64-23.08,30.09-2.28,3.34-4.67,6.61-7.04,9.9-2.64,3.66-5.3,7.31-7.98,10.94-1.05,1.42-1.56,2.96-.29,4.37,4.05,4.51,5.09,9.62,3.97,15.43-.58,2.99-.52,6.09-.76,9.14-.08.02-.16.05-.25.07Z"/>
    <path class="cls-6" d="m189.91,341.35c-2.38-1.1-4.53-2.12-6.71-3.08-1.01-.44-1.36-1.08-1.25-2.16.56-5.49,1.09-10.98,1.53-16.48.1-1.31.61-1.4,1.78-1.31,5.96.44,11.77,1.28,16.95,4.55,1.66,1.05,3.32.51,4.48-1.11,6.13-8.57,12.29-17.12,18.36-25.72,2.47-3.5,2.46-7.77,3.45-11.72,1.37-5.5,2.49-11.07,3.76-16.6.55-2.4,1.64-4.56,3.48-6.32,2.84-2.72,4.98-5.95,7.26-9.41-2.96.3-5.19,1.41-6.81,3.58-.8,1.07-1.27.9-2.03-.09-6.06-7.8-12.16-15.57-18.27-23.34-.56-.71-.79-1.23-.09-2.1,1.95-2.43,3.79-4.96,5.6-7.5.72-1.01,1.11-1.42,2.15-.19,9.92,11.77,19.94,23.46,29.85,35.23,2.75,3.26,1.54,6.61-.4,9.77-5.8,9.47-11.65,18.91-17.48,28.36-7.51,12.16-15.04,24.31-22.51,36.51-.76,1.25-1.56,1.8-3.06,1.6-2.64-.36-5.3-.58-7.95-.89-8.12-.93-10.43.64-12.07,8.42Z"/>
    <path class="cls-6" d="m158.6,318.1c-6.37-.26-12.74-.53-19.1-.78-1.21-.05-2.35-.25-3.42-.89-4.38-2.63-8.76-5.26-13.2-7.79-1.28-.73-1.24-1.17-.24-2.15,8.98-8.67,17.93-17.38,26.83-26.12.62-.61.85-.62,1.54-.21,10.43,6.11,20.87,12.21,31.34,18.25,1.25.72,1.25,1.55,1.01,2.72-1.03,5.16-2.05,10.33-2.96,15.51-.29,1.64-.97,2.16-2.7,2.13-6.37-.11-12.74-.04-19.11-.04v-.62Z"/>
    <path class="cls-6" d="m170.76,409.65c-3.65,5.8-7.06,11.28-10.54,16.71-3.15,4.91-3.04,9.5.45,14.17,2.83,3.78,5.58,7.62,8.51,11.33,1.01,1.28.93,2.02-.24,3.12-3.28,3.08-6.47,6.26-9.63,9.46-1.12,1.14-2.29,1.56-3.91,1.33-2.72-.39-5.47-.68-8.21-.83-1.38-.08-1.87-.79-2.41-1.83-2.13-4.16-1.7-8.55-1.48-13.59,1.29,1.96,2.27,3.45,3.26,4.95,2.43-2.83,2.53-4.18-.2-6.53-5.14-4.43-7.29-9.77-6.88-16.48.41-6.59.12-13.21.06-19.82-.01-1.37.1-2.05,1.87-2.03,9.65.1,19.3.05,29.35.05Z"/>
    <path class="cls-6" d="m153.75,204.88c1.7,3.64,3.39,7.27,5.08,10.9-.37-7.93-2.36-15.46-5.08-23.33,5.29,3.11,10.59,4.32,16.15,4.36,2.01.02,2.16.79,1.69,2.35-.63,2.08-.99,4.23-1.73,6.26-.57,1.59-.16,2.23,1.44,2.67,1.96.54,1.55-1.02,1.9-1.84.45-1.07.86-2.19,1.04-3.33.28-1.73,1.51-2.29,2.99-2.66.79-.2,1.44-.11,1.3.9-.89,6.44,1.01,12.84.41,19.26-.63,6.71-3.57,12.84-5.41,19.25-.8,2.78-1.79,5.52-2.84,8.71-1.48-1.9-2.73-3.53-3.99-5.15-4.19-5.41-8.34-10.84-12.58-16.21-1.79-2.27-2.19-4.69-1.86-7.5.53-4.55.74-9.15.96-13.73.03-.55.25-.67.53-.93Z"/>
    <path class="cls-6" d="m125.36,443.55c1.41.05,2.39.97,3.86.72-.93-3.24-2.39-6.17-4.26-8.93-3.06-4.52-5.93-9.12-7.24-14.49-.78-3.23-.76-6.44-.41-9.69.12-1.15.64-1.54,1.83-1.53,5,.05,9.99.08,14.99,0,2.07-.04,1.61,1.29,1.61,2.37-.02,7.78-.05,15.56-.12,23.34-.02,2.46.39,4.66,1.82,6.85,2.4,3.67,2.41,7.96,2.02,12.13-.24,2.59-5.72,6.24-9.31,6.6-.34.03-.69.04-1.03.05q-3.76.1-3.76-3.62c0-4.59,0-9.17,0-13.77Z"/>
    <path class="cls-2" d="m136.09,254.64c1.19-.04,1.74,1.78,2.68,1.05.53-.41.25-1.86.26-2.84.03-1.99,0-3.97.24-6.01,2.85,7.96,7.48,15.26,8.84,23.73.59,3.69-.19,6.69-3.2,9.46-5.68,5.21-10.96,10.84-16.72,16.06,1.58-14.17,4.79-27.82,7.9-41.45Z"/>
    <path class="cls-2" d="m140.93,85.16c-1.62,1.45-2.76,2.41-3.84,3.43-6.34,5.98-5.53,13.7,1.89,18.4,7.29,4.61,15.33,5.03,23.62,4.06,1.53-.18,3.07-.4,4.57-.75,1.91-.45,2.46.08,2.47,2.05.03,4.15.18,4.11-4.19,3.53-6.5-.87-13.06-.59-19.59-1.03-5.94-.41-10.87-2.49-14.34-7.23-5.11-6.98-10.08-14.06-15.37-21.47,8.31-.33,16.22-.64,24.78-.98Z"/>
    <path class="cls-5" d="m144.79,330.86c1.77-3.2,3.42-6.09,4.98-9.03.48-.9,1.19-.46,1.78-.45,8.53.23,17.05.47,25.58.82.72.03,2.4-.8,2.21,1.07-.16,1.55.34,3.64-2.14,3.95-6.06.74-12.13,1.38-18.2,2.05-4.61.51-9.21,1.03-14.2,1.59Z"/>
    <path class="cls-10" d="m112.92,347.84c.26,6.87.5,13.44.78,20.01.04.99-.42,1.02-1.23,1.01-3.1-.03-6.2-.02-9.31.05-.87.02-1.47-.19-1.9-.93-.16-.29-.4-.69-.66-.74-4.08-.71-2.39-3.92-2.87-6.18-.05-.24.03-.51,0-.75-.37-2.43.18-3.85,3.24-3.4,3.64.53,5.91-1.71,7.93-4.23,1.24-1.54,2.06-3.41,4.03-4.83Z"/>
    <path class="cls-2" d="m236.86,128.17c-5.54,1.55-10.57-.17-15.65-.39-5.26-.23-9.4-3.42-14.48-4.78,2.98-3.85,6-7.73,9.5-11.24.97-.97,1.37-.4,1.81.47.76,1.49,1.52,2.99,2.38,4.42,4.1,6.83,8.19,9.73,16.43,11.51Z"/>
    <path class="cls-2" d="m176.13,196.71c1.99-1.41,4.72-.98,6.63-2.2,3-1.91,4.14-.34,5.68,1.75,3.55,4.8,7.3,9.47,10.96,14.2.08.11.05.31.08.59-2.99-.48-5.99-.76-8.87-1.48-3.14-.79-5.37.06-7.03,2.65-.21.32-.5.6-1.19,1.38,0-4.35-.05-8.13.01-11.91.08-5.03-.39-5.48-5.54-4.99-.24.02-.49,0-.73,0Z"/>
    <path class="cls-15" d="m148.68,219.87c-4.34-3.44-8.06-2.06-12.15.78,2.24-5.74,4.28-10.96,6.32-16.18.36-.93.73-1.87,1.1-2.8,1.18-3.01,3.6-4.39,6.8-4.01,1.03.12,1.08.82,1.45,1.48.5.9.05,1.16-.67,1.46-1.58.65-1.51,2.05-1.61,3.38-.39,5.15-.79,10.3-1.23,15.9Z"/>
    <path class="cls-4" d="m166.13,100.36c3.75,5.99,3.58,6.38-3.19,7.28-6.13.82-12.19.62-18.09-1.44-2.13-.75-4.07-1.81-5.68-3.37-3.87-3.77-3.68-7.7.64-11.46,1.1,6.98,5.99,10.55,12.34,12.23,5.03,1.34,10.35,2.04,13.98-3.24Z"/>
    <path class="cls-5" d="m134.81,321.07c-.24.97-.48,1.94-.72,2.91q-.82,3.22-3.95,1.61c-4.84-2.51-9.66-5.07-14.53-7.53-1.31-.66-1.6-1.15-.57-2.36,1.42-1.67,2.31-4.49,4-4.98,1.37-.4,3.59,1.88,5.42,2.98,3.07,1.84,6.12,3.7,9.2,5.51.77.45,1.57.77,1.15,1.87Z"/>
    <path class="cls-4" d="m248.21,116.94c-3.71,6.64-6.8,8.46-12.15,7.51-3.05-.54-5.66-1.9-7.93-3.93-3.7-3.3-5.94-7.5-7.81-11.93.13-.12.22-.27.35-.31q3.46-1.17,4.31,2.48c1.3,5.65,6.14,9.05,12.48,8.5,3.48-.3,7.03-.43,10.74-2.31Z"/>
    <path class="cls-1" d="m231.74,106.32c-1.27,0-2.56.06-3.9.25,1.2.03,2.21.1,3.07.19.25-.17.53-.32.83-.44Z"/>
    <path class="cls-1" d="m249.19,106.47c-2.54.53-5.13.28-7.71.31-1.71.02-3.43-.11-5.17-.24,3.44,1.85,3.31,7.49-.39,9.05,4.05.02,8.08-.18,11.67-2.48,1.96-1.26,2.73-3.36,2.8-5.66.02-.85-.19-1.18-1.19-.97Z"/>
    <path class="cls-1" d="m161.75,92.98c-1.87-1.73-4.09-2.9-6.54-3.88.08.93.1,1.77.07,2.53.4,2.27-.61,4.81-3.01,5.68-.86.48-1.92.85-3.21,1.15,3.15,1.6,6.31,2.48,9.75,2.24,2.42-.17,3.94-1.78,4.95-3.58,1.06-1.88-.78-3.01-2-4.14Z"/>
    <path class="cls-9" d="m110.73,344.5c-2.31,2.78-4.42,5.38-6.59,7.91-.74.86-5.02,1.36-5.86.77-.19-.13-.32-.37-.4-.59-.08-.23-.07-.49-.07-.74.23-8.72-1.71-7.2,6.62-7.34,1.96-.03,3.93,0,6.3,0Z"/>
    <path class="cls-16" d="m93.66,346.34c-.37,8.2,1.84,16.47-.9,24.95-.45-1.72-.07-2.98.13-4.25.57-3.75-.25-7.1-2.82-10.04-2.23-2.54-2.18-3.28-.12-5.86,1.26-1.58,2.48-3.2,3.71-4.8Z"/>
    <path class="cls-10" d="m145.83,321.44c-1.6,2.83-3.16,5.56-4.67,8.32-.42.77-1.01.87-1.64.44-.89-.6-2.51-.34-2.56-1.96,0-.33.07-.66.13-.99q1.31-6.61,8.75-5.81Z"/>
    <path class="cls-1" d="m147.42,88.45c.76-.53,1.73-.85,2.92-.86-2.08-.8-4.18-2.1-6.3-.03-2.05,2,.27,3.95.41,5.94.41-3.56.53-4.54,2.98-5.05Z"/>
    <path class="cls-14" d="m85.16,384.73c1.65,1.72,1.65,1.77-.46,5.1,0-1.84-.2-3.44.46-5.1Z"/>
    <path class="cls-1" d="m148.79,149.51c3.49-.09,6.55.48,9.49,1.64,3.32,1.31,6.42,1.18,9.57-.67,3.82-2.25,7.9-2.02,11.88-.36,2.93,1.22,5.72,2.04,8.84.42,1.31-.68,2.9-.32,4.16.58,4.56,3.26,8.94,6.72,12.39,11.18-.23.12-.36.26-.48.25-5.65-.08-5.69-.08-5.58,5.45.06,3.19-1,5.87-3.41,8.04-4.4,3.96-8.58,8.13-14.75,9.7-10.94,2.79-24.76-6.39-25.73-17.28-.17-1.95.14-3.87.64-5.71.8-2.95.25-5.59-1.25-8.16-.4-.68-.82-1.2-1.68-1.35-2.08-.37-2.95-1.98-4.07-3.74Z"/>
    <path class="cls-19" d="m198.83,144.01c-2.91-.42-5.03-1.53-6.69-3.43-.96-1.1-1.93-1.41-3.32-.67-1.89,1.01-3.61.4-5.21-.78,4.7-6,11.07-4.03,15.22,4.87Z"/>
    <path class="cls-17" d="m159.43,359.81c0-3.26-.02-6.53,0-9.79.02-3.64,1.41-5.01,5.08-5.03,6.29-.04,12.58-.09,18.87-.11,3.47-.01,4.17.75,4.31,4.05.29,6.68.64,13.36,1.03,20.04.11,1.93-.44,3.23-2.53,3.72-.68.16-1.65.28-1.61,1.33.09,2.25-1.34,2.51-3.2,2.49-5-.06-10-.05-15,0-1.51.01-2.7-.3-3.33-1.77-.17-.4-.12-.96-.91-.97-2.57-.02-2.7-1.84-2.71-3.67-.02-3.43,0-6.86,0-10.29,0,0-.01,0-.02,0Z"/>
    <path class="cls-18" d="m153.57,309.38c-.15,1.54-.97,2.66-2.5,2.68-1.51.03-2.6-1.02-2.61-2.52-.01-1.34.74-2.33,2.34-2.41,1.7-.09,2.45.81,2.77,2.26Z"/>
    <path class="cls-8" d="m195.03,164.53c.42,6.05-1.8,10.64-6.88,13.77-2.3,1.42-4.79,2.58-7.29,3.66-2.51,1.09-5.25,1.23-7.85.48-9.37-2.69-16.01-10.53-13.16-22.1.2-.81.52-.84,1.25-.59,4.76,1.61,9.55,3.14,14.31,4.75.72.24,1.54.57,1.99,1.11,2.38,2.91,5.31,2.29,8.35,1.43,3.02-.85,6.06-1.64,9.29-2.51Z"/>
    <path class="cls-8" d="m197.85,159.95c-5.39,1.5-10.41,2.88-15.41,4.32-.63.18-.92,0-1.31-.36-3.11-2.9-7.2-3.72-11.1-4.97-2.58-.83-5.13-1.76-7.71-2.91,3.1-.09,5.59-1.54,8.21-2.74,2.35-1.08,4.84-.83,7.26.06,3.83,1.42,7.6,3.43,11.74.7.68-.45,1.46.23,2.06.72,1.96,1.62,3.92,3.24,6.27,5.18Z"/>
    <path class="cls-10" d="m163.19,349.69c2.56,2.31,4.66,4.04,6.56,5.96,2.06,2.08,4.42,2.98,7.39,2.81,2.38-.13,5.46-.77,6.95.38,1.18.91.41,4.19.52,6.42.04.83-.01,1.71.23,2.49.35,1.12.11,1.67-1.1,1.93-.73.16-1.71.33-1.97,1.05-.89,2.53-2.95,2.23-4.99,2.18-2.24-.06-4.48-.01-6.71,0-1.89,0-3.19-.63-4.89-1.8-2.49-1.7-1.93-3.44-1.96-5.35-.08-5.15-.03-10.31-.03-16.08Z"/>
    <path class="cls-9" d="m168.08,348.66c4.97,0,9.75.01,14.53-.01.94,0,1.47.24,1.44,1.25-.02.58,0,1.18.11,1.74.49,2.36-.45,3.05-2.93,3.32-5.69.63-9.86-1.39-13.15-6.3Z"/>
    <polygon class="cls-13" points="198.83 13.73 205.12 31.52 195.45 43.91 189.23 49.5 126.11 74.06 110.58 82.09 97.94 94.92 86.78 112.24 92.99 124.3 113.69 154.44 145.95 183.92 152.15 191.27 152.39 195.91 144.46 196.68 138.25 209.12 127.14 214.73 116.96 233.04 114.42 238.07 117.83 240.85 114.42 279.07 110.73 287.78 97.63 301.7 86.78 324.78 76.43 351.38 73.32 356.4 64.01 350.38 41.24 334.3 29.85 323.25 14.33 303.15 9.15 290.09 7.08 276.02 9.15 260.95 15.36 241.86 29.85 211.71 47.45 186.59 56.76 161.47 55.73 147.41 55.73 119.27 55.73 92.14 57.8 72.05 69.18 49.94 82.64 32.86 98.16 21.81 125.07 9.75 144.74 3.72 158.19 2.72 180.96 6.73 198.83 13.73"/>
    <polygon class="cls-13" points="136.09 254.64 128.2 286.03 126.11 298.13 144.46 283.18 149.97 276.38 149.97 267.4 143.7 253.91 139.56 245.88 138.25 254.48 136.09 254.64"/>
    <line class="cls-1" x1="113.69" y1="154.44" x2="84.41" y2="233.96"/>
    <line class="cls-1" x1="118.09" y1="158.46" x2="104.37" y2="201.67"/>
    <line class="cls-1" x1="236.86" y1="159.61" x2="253.12" y2="190.79"/>
  </g>
</svg>