<?xml version="1.0" encoding="UTF-8"?>
<svg id="lotus" xmlns="http://www.w3.org/2000/svg" viewBox="0 0 71.99 40.79">
  <defs>
    <style>
      .cls-1, .cls-2, .cls-3 {
        stroke-width: 0px;
      }

      .cls-2 {
        fill: #c499a2;
      }

      .cls-3 {
        fill: #ccc;
      }
    </style>
  </defs>
  <g id="startknap">
    <g id="startknap-2" data-name="startknap">
      <rect class="cls-1" width="71.99" height="40.79"/>
      <rect class="cls-3" x="3" y="1.35" width="66" height="37.4"/>
    </g>
    <g id="teksten">
      <path class="cls-1" d="m12.27,9.65c1.49,0,2.67.27,3.66,1.16.73.65,1.09,1.51,1.05,2.54-.04.87-.34,1.59-1.14,1.91-.79.31-1.46-.03-2.03-.63-.2-.21-.35-.49-.47-.76-.19-.42-.32-.86-.5-1.28-.39-.97-.74-1.21-1.68-1.16-.83.04-1.44.49-1.66,1.36-.46,1.74-.04,2.57,1.08,3.16,1.19.63,2,1.6,2.4,2.97.24.83.69,1.52,1.44,1.9,1.47.74,2.22,2.03,2.48,3.72.28,1.84.26,3.67-.37,5.43-1.13,3.19-4.01,4.3-6.75,2.62-2.81-1.72-3.89-6.47-2.12-9.37.67-1.1,1.58-1.74,2.84-1.59,1.51.18,2.46,1.65,2.01,3.24-.21.73-.65,1.4-1.05,2.05-.34.56-.79,1.03-1.12,1.6-.68,1.14-.31,2.38.87,2.84.44.17.96.19,1.44.17.48-.02.77-.37.88-.88.12-.6.18-1.23.35-1.81.35-1.21.71-2.42,1.14-3.59.29-.79.29-1.48-.26-2.1-.56-.63-1.14-1.24-1.75-1.8-.81-.75-1.38-1.63-1.58-2.79-.14-.78-.47-1.02-1.21-1.01-.17,0-.35.01-.52.03-1.51.13-2.61-.87-2.73-2.51-.14-1.91.68-3.31,2.1-4.33,1.04-.75,2.22-1.07,3.24-1.07Zm4.6,16.9c-.04-.56-.06-1.13-.14-1.69-.22-1.65-.81-3.03-2.3-3.78-.8-.41-1.35-1.08-1.61-2-.4-1.37-1.18-2.38-2.39-2.98-1.6-.8-1.53-2.51-1.04-3.68.38-.92,1.11-1.24,2.02-1.24.84,0,1.32.47,1.61,1.26.14.38.28.77.43,1.15.09.22.19.44.31.63.43.68,1.29,1.05,1.91.85.67-.22,1.09-.94,1.09-1.86,0-1.28-.63-2.13-1.62-2.7-1.96-1.13-4.8-.78-6.53.81-1.07.99-1.61,2.24-1.46,3.78.13,1.39,1.07,2.26,2.35,2.22.24,0,.48-.03.71-.03.81,0,1.26.32,1.4,1.16.19,1.16.77,2,1.56,2.74.59.55,1.16,1.12,1.69,1.73.61.69.74,1.49.32,2.37-.73,1.54-1.11,3.2-1.37,4.91-.2,1.28-.73,1.71-1.92,1.57-1.69-.19-2.82-1.85-1.63-3.63.27-.4.6-.76.85-1.18.41-.68.92-1.35,1.15-2.1.54-1.77-.77-3.31-2.47-3.01-1.21.21-1.91,1.08-2.35,2.23-1.01,2.63-.28,5.92,1.72,7.75,2.02,1.86,5.68,2.04,7.11-1.85.41-1.1.57-2.25.59-3.43Z"/>
      <path class="cls-1" d="m22.53,33.52c-1.79-.12-3.06-1.42-3.39-3.5-.08-.51-.1-1.02-.15-1.53,0-2.18.75-4.1,1.7-5.95.94-1.85,1.96-3.65,2.86-5.52.4-.83.61-1.76.82-2.67.07-.28-.09-.71-.27-.94-.09-.11-.53.02-.75.16-1.03.64-2.04,1.33-3.07,1.97-.68.42-1.4.74-2.12.1-.74-.67-.87-1.58-.69-2.54.31-1.72,1.56-2.63,3.2-2.47,1.24.12,2.5.23,3.74.16.84-.05,1.66-.41,2.48-.65,1-.3,2.01-.49,3.05-.26,1.57.36,2.19,2.08,1.27,3.5-.78,1.21-2.28,1.7-3.54,1.16-.46-.2-.89-.44-1.35-.63-.42-.18-.57-.07-.49.38.35,1.88-.38,3.38-1.33,4.83-.88,1.32-1.84,2.6-2.6,3.99-1.09,2-1.33,4.2-.85,6.47.11.51.2,1.12.77,1.25.55.13.86-.38,1.15-.76,1.06-1.42,1.75-3.05,2.36-4.74.24-.65.47-1.31.76-1.94.15-.33.37-.65.63-.89.75-.72,1.68-.52,2.14.43.45.91.51,1.91.46,2.91-.14,2.66-1.06,4.9-3.08,6.51-1.1.87-2.35,1.26-3.71,1.18"/>
      <path class="cls-1" d="m22.97,33.28c1.77-.04,3.22-.86,4.33-2.33,1.61-2.12,2.15-4.55,1.62-7.24-.13-.66-.38-1.29-1.09-1.41-.72-.12-1.17.38-1.47.99-.32.65-.58,1.34-.82,2.02-.63,1.77-1.35,3.49-2.48,4.96-.34.44-.72.96-1.35.76-.6-.19-.74-.81-.86-1.38-.45-2.11-.26-4.16.58-6.13.65-1.53,1.64-2.81,2.58-4.13,1.09-1.52,2-3.11,1.59-5.19-.1-.54.21-.76.7-.57.46.18.89.44,1.35.63,1.16.5,2.4.21,3.19-.82.27-.35.48-.83.53-1.28.12-1.28-.66-2.09-1.95-2.18-1.08-.07-2.11.18-3.12.55-1.14.41-2.3.64-3.5.5-.88-.1-1.77-.16-2.65-.23-.55-.05-1.04.12-1.46.49-.87.75-1.21,1.75-1.04,2.93.18,1.26,1.1,1.78,2.17,1.26.45-.22.87-.48,1.3-.76.74-.47,1.46-.97,2.19-1.45.31-.2.64-.38.97-.08.31.28.46.67.34,1.11-.29.98-.5,2-.93,2.91-.86,1.81-1.86,3.55-2.78,5.34-.94,1.83-1.7,3.73-1.71,5.89.05.53.07,1.06.16,1.58.35,2.11,1.64,3.29,3.62,3.25"/>
      <path class="cls-1" d="m46.37,33.7c-.84.19-1.57-.08-2.14-.79-.59-.75-.82-1.65-.91-2.61-.02-.19,0-.38,0-.57-.03-1.12.3-2.16.64-3.2.48-1.51,1-3.01,1.36-4.55.47-2.02.12-3.94-.84-5.76-.43-.81-.8-1.69-.99-2.6-.35-1.72.4-2.79,2.02-3.04,1.69-.27,3.38-.51,5.08-.75.82-.12,1.62,0,2.37.38,1.36.69,2.02,2.23,1.64,3.82-.07.28-.15.56-.26.83-.22.58-.24,1.17-.09,1.77.06.21.1.43.15.65.24,1.12-.11,2.09-.95,2.56-.83.46-1.94.61-2.71-.33-.17-.21-.5-.27-.76-.39-.12.31-.36.63-.35.93.02.4.17.85.39,1.18.53.79.72,1.65.75,2.61.03.82.11,1.65.26,2.45.13.74.35.85,1.01.63.67-.22,1.32-.5,1.99-.71,1.24-.38,2.05.21,2.23,1.6.31,2.29-1.09,4.58-3.16,5.14-.95.26-1.76,0-2.39-.83-.88-1.15-1.18-2.54-1.29-3.97-.13-1.71-.17-3.43-.31-5.15-.04-.47-.23-.97-.47-1.37-.28-.48-.8-.46-1.13-.01-.2.28-.37.61-.47.94-.56,1.85-.49,3.69.14,5.51.19.55.38,1.09.56,1.64.25.77.27,1.55.09,2.33-.2.85-.65,1.46-1.46,1.65"/>
      <path class="cls-1" d="m46.4,33.44c.81-.22,1.15-.9,1.29-1.73.17-.99-.09-1.9-.43-2.8-.61-1.61-1.03-3.27-.7-5.02.14-.75.32-1.51.65-2.18.45-.92,1.31-.88,1.78.03.19.38.31.83.34,1.27.12,1.71.18,3.43.3,5.14.1,1.35.39,2.65,1.18,3.75.58.8,1.34,1.06,2.24.82,1.97-.53,3.34-2.8,3-4.96-.18-1.17-.84-1.65-1.91-1.33-.7.21-1.38.5-2.08.73-.71.23-1.09.03-1.22-.75-.16-.91-.24-1.83-.28-2.76-.04-.79-.22-1.49-.63-2.17-.27-.44-.42-.99-.51-1.51-.08-.44.08-.86.51-1.05.42-.19.72.08.95.39.66.89,1.72.76,2.52.3.74-.42,1.07-1.32.79-2.31-.29-1.03-.24-1.98.12-3.01.65-1.84-.22-3.58-1.99-4.07-.57-.16-1.19-.19-1.78-.14-1.59.13-3.13.64-4.74.72-1.83.09-2.53,1.3-2.01,3.24.2.76.58,1.48.93,2.19.62,1.23,1.04,2.5,1.02,3.92-.01,1.39-.3,2.72-.72,4.02-.5,1.55-1.07,3.09-1.41,4.69-.29,1.37-.08,2.75.79,3.9.52.69,1.22.92,2.01.7"/>
      <path class="cls-1" d="m34.02,33.79c-.84.33-1.7.06-2.33-.79-1.09-1.46-1.15-3.1-.49-4.76.35-.87.86-1.67,1.31-2.5.6-1.11,1.33-2.15,1.81-3.32,1.17-2.81.54-5.47-.79-8.02-.26-.49-.56-.97-.74-1.49-.32-.93-.07-1.8.61-2.41,1.25-1.14,3.97-1.17,5.22-.02,1.08.98,1.29,2.29,1.03,3.7-.15.82-.44,1.61-.64,2.42-.25.97-.12,1.88.42,2.7.44.65.92,1.27,1.36,1.92,1.31,1.9,2.09,4,1.95,6.42-.07,1.32-.4,2.57-1.09,3.68-.14.23-.31.44-.49.63-.66.69-1.55.89-2.22.51-.68-.39-1.13-1.36-.91-2.3.24-1.04.62-2.05.95-3.07.33-1.02.74-2.01.99-3.05.3-1.2-.24-1.9-1.4-1.97-.21-.01-.41,0-.62,0-1.61.02-2.09.36-2.68,1.98-.22.61-.42,1.22-.6,1.84-.35,1.16-.26,2.29.13,3.43.24.72.44,1.48.5,2.23.08,1.05-.5,1.94-1.29,2.24"/>
      <path class="cls-1" d="m33.92,33.57c.75-.27,1.27-1.09,1.18-2.13-.06-.72-.27-1.44-.5-2.13-.27-.84-.51-1.71-.3-2.57.3-1.22.69-2.42,1.14-3.59.32-.84,1.01-1.25,1.85-1.31.24-.02.48,0,.71,0,0,0,0-.01,0-.02.21,0,.41,0,.62,0,1.26.07,1.92.93,1.58,2.23-.31,1.18-.78,2.32-1.15,3.48-.29.89-.59,1.77-.8,2.68-.18.79.22,1.69.78,2.01.57.34,1.43.2,1.96-.44.4-.48.76-1.03.99-1.61,1.01-2.61.73-5.15-.57-7.55-.56-1.03-1.28-1.96-1.95-2.92-.75-1.07-.95-2.22-.57-3.49.2-.67.43-1.33.56-2.02.26-1.39.1-2.69-1.02-3.62-1.2-.99-3.6-.96-4.81.03-.63.52-.91,1.29-.64,2.09.2.59.52,1.13.81,1.68,1.09,2.11,1.69,4.33,1.18,6.77-.33,1.55-1.1,2.87-1.91,4.18-.53.85-1.08,1.7-1.5,2.62-.72,1.57-.81,3.17.16,4.69.56.88,1.4,1.23,2.22.94"/>
      <path class="cls-1" d="m61.14,33.42c-1.18.14-2.23-.51-2.69-1.67-.43-1.09-.33-2.2-.03-3.28.22-.77.5-1.52.8-2.25.68-1.65.82-3.32.32-5.07-.41-1.44-.64-2.93-.21-4.41.24-.84.68-1.62.99-2.44.22-.58.44-1.18.52-1.79.08-.6-.3-.86-.82-.62-.38.17-.7.47-1.07.66-.46.25-.93.53-1.43.65-1.16.27-2.01-.8-1.66-2.04.29-1.04,1.38-1.85,2.59-1.76.75.05,1.52.22,2.21.53,1.28.57,2.52.66,3.85.25.59-.18,1.27-.2,1.87-.08,1.05.22,1.53,1.27,1.32,2.58-.19,1.21-1,1.98-2.03,1.84-.36-.05-.71-.31-1.04-.53-.17-.11-.27-.33-.4-.51-.65-.9-1.33-.9-1.97.01-1.04,1.48-1.57,3.16-1.61,5.02-.01,1.47.47,2.83.79,4.23.56,2.43,1.06,4.88,1.56,7.32.08.41.07.86.01,1.28-.16,1.2-.86,1.96-1.87,2.07"/>
      <path class="cls-1" d="m61.03,33.18c.93-.07,1.59-.69,1.76-1.78.07-.43.09-.91,0-1.33-.49-2.43-.99-4.85-1.55-7.26-.33-1.41-.81-2.78-.8-4.65,0-1.46.69-3.6,1.72-4.92.72-.92,1.54-.9,2.22.05.14.19.25.42.43.55.27.19.57.4.88.44.91.12,1.61-.53,1.8-1.58.22-1.21-.18-2.17-1.12-2.38-.58-.13-1.25-.12-1.82.06-1.34.42-2.61.36-3.89-.24-.53-.25-1.11-.39-1.69-.51-1.1-.23-2.26.28-2.75,1.19-.3.54-.32,1.11,0,1.66.3.5.77.65,1.25.48.56-.2,1.09-.52,1.63-.79.36-.18.69-.44,1.06-.55.54-.16.84.12.91.72.09.75-.22,1.37-.53,1.99-.32.67-.67,1.33-.91,2.03-.54,1.61-.31,3.22.14,4.8.49,1.73.35,3.38-.32,5.02-.26.63-.5,1.26-.71,1.91-.35,1.1-.54,2.23-.16,3.38.37,1.14,1.31,1.79,2.44,1.71"/>
      <path class="cls-2" d="m16.87,26.55c-.01,1.18-.18,2.33-.59,3.43-1.44,3.89-5.09,3.71-7.11,1.85-2-1.84-2.74-5.13-1.72-7.75.44-1.15,1.14-2.02,2.35-2.23,1.69-.29,3.01,1.25,2.47,3.01-.23.76-.74,1.42-1.15,2.1-.25.41-.58.77-.85,1.18-1.19,1.78-.06,3.44,1.63,3.63,1.19.13,1.72-.29,1.92-1.57.26-1.7.64-3.36,1.37-4.91.42-.88.29-1.68-.32-2.37-.54-.61-1.11-1.18-1.69-1.73-.79-.74-1.38-1.58-1.56-2.74-.14-.84-.59-1.16-1.4-1.16-.24,0-.48.02-.71.03-1.28.05-2.21-.83-2.35-2.22-.15-1.54.39-2.79,1.46-3.78,1.73-1.59,4.57-1.95,6.53-.81.99.57,1.62,1.42,1.62,2.7,0,.92-.42,1.64-1.09,1.86-.61.2-1.47-.17-1.91-.85-.13-.2-.23-.41-.31-.63-.15-.38-.29-.76-.43-1.15-.29-.79-.78-1.26-1.61-1.26-.91,0-1.63.31-2.02,1.24-.49,1.17-.55,2.89,1.04,3.68,1.21.6,1.99,1.61,2.39,2.98.27.92.81,1.59,1.61,2,1.48.75,2.08,2.14,2.3,3.78.07.56.09,1.13.14,1.69Z"/>
      <path class="cls-2" d="m22.97,33.28c-1.97.04-3.27-1.14-3.62-3.25-.09-.52-.11-1.06-.16-1.58,0-2.16.77-4.06,1.71-5.89.92-1.79,1.92-3.52,2.78-5.34.43-.9.65-1.93.93-2.91.13-.43-.02-.83-.34-1.11-.33-.3-.66-.12-.97.08-.73.48-1.45.98-2.19,1.45-.42.27-.85.54-1.3.76-1.07.52-1.99,0-2.17-1.26-.17-1.18.17-2.17,1.04-2.93.42-.37.91-.54,1.46-.49.88.08,1.77.14,2.65.23,1.21.14,2.37-.09,3.5-.5,1.01-.37,2.04-.62,3.12-.55,1.29.09,2.07.9,1.95,2.18-.04.45-.26.93-.53,1.28-.79,1.03-2.04,1.32-3.19.82-.46-.2-.89-.45-1.35-.63-.49-.2-.81.03-.7.57.4,2.08-.5,3.66-1.59,5.19-.94,1.32-1.93,2.59-2.58,4.13-.84,1.97-1.03,4.02-.58,6.13.12.57.27,1.19.86,1.38.63.2,1.01-.32,1.35-.76,1.13-1.47,1.85-3.19,2.48-4.96.25-.69.5-1.37.82-2.02.3-.62.76-1.11,1.47-.99.71.12.96.75,1.09,1.41.53,2.69-.02,5.12-1.62,7.24-1.11,1.47-2.56,2.29-4.33,2.33"/>
      <path class="cls-2" d="m46.4,33.44c-.79.22-1.49-.01-2.01-.7-.86-1.15-1.08-2.53-.79-3.9.34-1.59.91-3.13,1.41-4.69.42-1.31.7-2.64.72-4.02.02-1.42-.4-2.69-1.02-3.92-.36-.7-.73-1.42-.93-2.19-.51-1.94.18-3.14,2.01-3.24,1.61-.08,3.15-.59,4.74-.72.59-.05,1.21-.02,1.78.14,1.77.49,2.64,2.23,1.99,4.07-.36,1.02-.4,1.98-.12,3.01.28.99-.05,1.89-.79,2.31-.8.46-1.86.59-2.52-.3-.23-.31-.53-.58-.95-.39-.43.19-.59.62-.51,1.05.1.52.24,1.07.51,1.51.41.67.59,1.37.63,2.17.05.92.13,1.85.28,2.76.13.78.51.98,1.22.75.7-.23,1.38-.52,2.08-.73,1.07-.32,1.73.16,1.91,1.33.34,2.17-1.02,4.44-3,4.96-.9.24-1.67-.02-2.24-.82-.79-1.1-1.08-2.4-1.18-3.75-.13-1.71-.18-3.43-.3-5.14-.03-.43-.15-.89-.34-1.27-.47-.91-1.34-.95-1.78-.03-.32.67-.51,1.43-.65,2.18-.33,1.75.1,3.41.7,5.02.34.91.6,1.81.43,2.8-.14.83-.48,1.51-1.29,1.73"/>
      <path class="cls-2" d="m44.7,14.06c.18.43.3.9.55,1.27.48.7.71,1.46.82,2.32.07.56.26,1.13.49,1.65.23.51.65.56,1.08.23.14-.11.29-.22.39-.37.42-.61,1-.92,1.66-1.11.3-.09.6-.22.89-.35.6-.26.89-.75.9-1.44.02-.66-.06-1.25-.66-1.64-.73-.47-1.31-1.1-1.72-1.94-.49-1.01-1.66-1.49-2.6-1.19-.99.32-1.71,1.38-1.81,2.56Z"/>
      <path class="cls-2" d="m33.92,33.57c-.81.29-1.66-.05-2.22-.94-.97-1.52-.88-3.12-.16-4.69.42-.92.97-1.76,1.5-2.62.81-1.3,1.58-2.62,1.91-4.18.51-2.43-.09-4.65-1.18-6.77-.28-.55-.61-1.09-.81-1.68-.27-.8,0-1.58.64-2.09,1.21-.99,3.6-1.02,4.81-.03,1.13.93,1.28,2.23,1.02,3.62-.13.69-.36,1.35-.56,2.02-.38,1.28-.18,2.43.57,3.49.67.96,1.39,1.89,1.95,2.92,1.3,2.4,1.58,4.94.57,7.55-.23.59-.59,1.14-.99,1.61-.53.63-1.39.77-1.96.44-.56-.33-.96-1.23-.78-2.01.21-.91.51-1.8.8-2.68.38-1.16.85-2.3,1.15-3.48.34-1.3-.32-2.16-1.58-2.23-.21-.01-.41,0-.62,0,0,0,0,.01,0,.02-.24,0-.48-.01-.71,0-.84.06-1.53.47-1.85,1.31-.44,1.17-.84,2.37-1.14,3.59-.21.86.03,1.73.3,2.57.22.69.44,1.41.5,2.13.09,1.04-.43,1.86-1.18,2.13"/>
      <path class="cls-2" d="m35.78,19.06c0,.5-.02,1,0,1.49.03.6.28.72.8.49.43-.19.88-.35,1.33-.44.39-.08.57-.26.51-.69-.03-.2-.1-.4-.12-.6-.05-.78-.14-1.56-.11-2.34.05-1.09.25-2.18.27-3.27,0-.46-.2-.97-.43-1.38-.29-.52-.82-.51-1.14-.02-.24.37-.42.81-.54,1.24-.47,1.8-.55,3.65-.58,5.51Z"/>
      <path class="cls-2" d="m61.03,33.18c-1.13.08-2.07-.57-2.44-1.71-.38-1.15-.19-2.27.16-3.38.21-.65.45-1.28.71-1.91.68-1.63.82-3.29.32-5.02-.45-1.58-.68-3.2-.14-4.8.24-.7.59-1.36.91-2.03.3-.63.61-1.25.53-1.99-.07-.6-.38-.88-.91-.72-.37.11-.71.37-1.06.55-.54.27-1.07.59-1.63.79-.48.17-.96.02-1.25-.48-.32-.54-.3-1.11,0-1.66.5-.9,1.65-1.41,2.75-1.19.57.12,1.16.26,1.69.51,1.28.6,2.55.66,3.89.24.57-.18,1.24-.19,1.82-.06.95.21,1.34,1.17,1.12,2.38-.19,1.04-.9,1.69-1.8,1.58-.31-.04-.61-.25-.88-.44-.18-.13-.29-.36-.43-.55-.68-.95-1.5-.97-2.22-.05-1.03,1.32-1.72,3.45-1.72,4.92-.01,1.87.48,3.24.8,4.65.56,2.41,1.06,4.84,1.55,7.26.09.42.06.9,0,1.33-.17,1.08-.83,1.71-1.76,1.78"/>
      <path class="cls-1" d="m44.7,14.06c.1-1.19.82-2.25,1.81-2.56.94-.3,2.11.18,2.6,1.19.41.84.99,1.47,1.72,1.94.61.39.68.98.66,1.64-.02.68-.31,1.18-.9,1.44-.29.13-.59.26-.89.35-.66.19-1.24.5-1.66,1.11-.1.15-.25.26-.39.37-.43.33-.85.28-1.08-.23-.23-.52-.42-1.08-.49-1.65-.11-.85-.34-1.62-.82-2.32-.25-.37-.37-.84-.55-1.27Zm6.56,2.06c.05-.6-.15-1.04-.65-1.36-.7-.45-1.24-1.07-1.65-1.87-.85-1.66-2.8-1.68-3.65-.05-.42.79-.46,1.62.09,2.36.52.71.78,1.51.87,2.4.05.45.18.91.34,1.33.27.69.61.75,1.12.24.08-.08.14-.19.23-.25.47-.34.92-.69,1.41-.98.31-.19.68-.26,1.03-.4.61-.24.92-.7.86-1.42Z"/>
      <path class="cls-1" d="m35.78,19.06c.03-1.86.11-3.71.58-5.51.11-.44.3-.87.54-1.24.32-.5.85-.5,1.14.02.23.41.44.92.43,1.38-.02,1.09-.22,2.18-.27,3.27-.03.78.06,1.56.11,2.34.01.2.09.4.12.6.06.42-.12.61-.51.69-.45.09-.91.25-1.33.44-.52.23-.77.11-.8-.49-.03-.5,0-1,0-1.49Zm.31,1.94c.26-.13.45-.24.65-.32.28-.11.56-.25.85-.29.69-.1.76-.15.55-.89-.24-.84-.31-1.68-.16-2.54.1-.61.19-1.22.26-1.83.09-.84.15-1.69-.23-2.47-.29-.6-.73-.63-1.04-.04-.21.41-.37.87-.48,1.34-.47,2.14-.53,4.32-.5,6.51,0,.16.06.32.1.56Z"/>
      <path class="cls-3" d="m51.26,16.11c.06.72-.25,1.18-.86,1.42-.34.13-.71.21-1.03.4-.49.29-.95.65-1.41.98-.09.07-.15.17-.23.25-.51.51-.85.45-1.12-.24-.16-.42-.3-.88-.34-1.33-.09-.9-.35-1.69-.87-2.4-.55-.75-.5-1.57-.09-2.36.85-1.63,2.8-1.62,3.65.05.41.8.95,1.42,1.65,1.87.5.33.7.77.65,1.36Z"/>
      <path class="cls-3" d="m36.09,21.01c-.05-.23-.1-.39-.1-.56-.03-2.19.03-4.37.5-6.51.1-.46.26-.92.48-1.34.3-.58.74-.55,1.04.04.39.78.32,1.63.23,2.47-.07.61-.16,1.22-.26,1.83-.14.87-.07,1.7.16,2.54.21.74.14.79-.55.89-.29.04-.57.18-.85.29-.2.08-.39.19-.65.32Z"/>
    </g>
  </g>
</svg>