<?xml version="1.0" encoding="UTF-8"?>
<svg id="Layer_1" data-name="Layer 1" xmlns="http://www.w3.org/2000/svg" viewBox="0 0 227 221">
  <defs>
    <style>
      .cls-1 {
        opacity: .41;
      }

      .cls-1, .cls-2 {
        fill: #c398a1;
        stroke-width: 0px;
      }
    </style>
  </defs>
  <ellipse class="cls-1" cx="113.5" cy="110.5" rx="113.5" ry="110.5"/>
  <g>
    <path class="cls-2" d="m86.34,13.9c2.72,10.67,4.85,21.45,6.13,32.47-.88-.03-.98-.46-1.02-.8-1.23-10.5-3.51-20.81-5.9-31.09-.04-.18,0-.38,0-.57.26,0,.51,0,.77,0Z"/>
    <path class="cls-2" d="m130.62,195.7c-3.45,1.43-6.88,1.83-10.29,2.14-5.07.47-10.11-.03-15.08-1.12-1.81-.4-3.64-.87-4.48-2.89-.14-.34-.68-.54-1.07-.74-2.6-1.28-2.92-2.92-1.02-5.14.31-.36,1.01-.59.79-1.19-.22-.58-.9-.32-1.37-.42-1.61-.33-3.61-.25-3.96-2.35-.34-2.06,1.43-3,2.87-3.91,1.79-1.13,1.81-1.05.03-2.22-1.27-.83-2.33-1.84-2.21-3.55.1-1.42.95-2.17,2.26-2.5.65-.16.81-.52.52-1.13-.86-1.81.31-2.42,1.72-2.86,1.51-.48,3.11-.48,4.65-.56.03-.85-.54-.88-.9-1.02-2.52-.97-4.26-2.57-4.49-5.43-.05-.62-.46-1-.96-1.35-3.89-2.75-6.27-6.48-7.11-11.19-.18-1.01-.48-1.99-.64-3-.73-4.75-3.01-8.65-6.38-11.99-3.97-3.95-7.17-8.38-8.15-14.06-.75-4.37-2.98-8.29-3.56-12.72-1.31-9.97-2.02-19.89,1.15-29.66,1.87-5.75,4.8-10.86,9.37-14.96,6.49-5.84,14.38-7.34,22.69-7.1,9.43.27,18.78,1.37,27.74,4.55,8.65,3.07,16.13,7.79,20.93,15.96,2.32,3.94,3.49,8.27,3.86,12.77.81,9.83.86,19.59-3.56,28.8-1.97,4.1-4.22,8.05-6.61,11.91-3.74,6.04-6.5,12.45-8.01,19.42-1.04,4.77-4.05,8.09-7.95,10.89-3.72,2.66-7.93,4.09-12.13,5.6-.48.17-1.05.23-1.28.75-.24.56-1.12.93-.75,1.62.31.58,1.05.28,1.59.26,3.02-.07,6.01.18,8.98.74.56.11,1.14.23,1.67.44,1.09.43,2.28.92,2.13,2.35-.14,1.3-1.29,1.65-2.39,1.85-3.8.69-7.64.68-11.48.78-6.08.15-12.15.07-18.2-.81-2.54-.37-3.09.18-3.39,2.16-.17,1.17.51,1.63,1.26,2.12,3.46,2.28,7.1,1.59,10.74.61,1.54-.42,3.04-1,4.55-1.53,4.17-1.48,8.48-1.87,12.86-1.77,1.33.03,3.28.04,3.48,1.37.22,1.48-1.75,1.75-2.98,2.1-5.17,1.46-10.31,3.07-15.78,3.03-2.64-.02-5.23-.44-7.79-.99-2.71-.59-4.7.67-6.54,2.38-.64.6-.66,1.37-.34,2.13.3.72.91,1.04,1.68,1.06,2.6.07,5.1.13,7.69-.87,6.52-2.52,13.25-4.41,20.37-4.1,1.27.05,2.53.35,3.77.6.62.12,1.33.32,1.46,1.07.15.83-.5,1.27-1.09,1.65-1.78,1.15-3.85,1.34-5.86,1.65-6.6,1.02-13.24,1.31-19.91,1.11-2.3-.07-3.67,1.25-4.79,2.97-.54.83-.53,1.73.33,2.4.83.64,1.54.73,2.53-.06,2.9-2.3,6.51-2.94,10.01-3.57,5.41-.98,10.86-1.8,16.4-1.72.19,0,.39-.02.58,0,1.29.16,3.08-.3,3.56,1.17.53,1.62-1.07,2.61-2.23,3.46-2.19,1.6-4.8,2.03-7.43,2.31-6.37.69-12.75,1.22-19.15.47-.36-.04-.83-.18-.98.31-.14.46.27.67.6.84.86.46,1.82.58,2.75.8,7.51,1.8,14.98,1.61,22.43-.32.55-.14,1.13-.21,1.69-.29.08-.01.18.14.59.48Zm2.12-54.33c1.41-1.29,1.85-3.15,2.76-4.72,7.79-13.53,11.7-28.16,12.29-43.73.21-5.62-.12-11.12-2.64-16.29-3.51-7.21-9.29-11.27-17.1-12.8-8.3-1.63-16.66-1.78-25.05-1.39-1.08.05-2.16.11-3.1.81-7.34,5.44-13.66,11.8-18.08,19.87-1.34,2.46-2.84,4.93-3.12,7.79-.51,5.17-.35,10.36-.28,15.55.06,4.28,1.01,8.38,2.97,12.21,3.15,6.17,6.94,11.97,10.96,17.58,3.95,5.52,6.52,11.41,7.16,18.15.05.56.04,1.26.36,1.65,2.63,3.32,5.98,5.33,10.33,5.4.52,0,.89-.19.95-.72.07-.61-.24-.99-.85-1.04-.57-.05-1.15-.01-1.73-.04-3.15-.12-5-1.54-5.79-4.58-.33-1.24-.61-2.49-.77-3.76-.67-5.31-2.49-10.05-5.71-14.44-7.93-10.8-12.93-22.75-13.15-36.41-.2-12.01,4.15-21.81,14.12-28.67,8.93-6.15,18.95-7.41,29.42-5.4,11.25,2.16,17.23,7.72,18.73,18.83.85,6.3.2,12.66-.68,18.95-1.15,8.18-4.17,15.82-6.98,23.52-1.66,4.57-3.57,9.05-4.96,13.72-.44,1.06-.89,2.11-1.31,3.18-1.01,2.54-1.69,5.21-3.03,7.64-.57,1.03-1.76,2.77-.85,3.25.96.5,2.14-1.33,2.44-2.44,1.06-3.85,1.83-7.78,2.71-11.68Zm11.12-50.02c0-2.19.08-3.79-.01-5.39-.49-9.01-4.72-14.43-13.32-16.89-8.21-2.35-16.47-2.59-24.57.35-10.95,3.98-18.2,11.44-20.54,23.11-1,5.01-.87,10.1,0,15.1,1.84,10.73,6.23,20.41,12.82,29.05,2.51,3.29,4.14,6.88,4.82,10.95.39,2.33.79,4.68,1.38,6.97.66,2.57,2.09,3.59,4.45,3.8,1.57.14,1.95-.47,1.91-1.96-.32-11.54-2.19-22.79-5.96-33.72-.42-1.22-.9-1.82-2.33-1.99-4.96-.6-8.59-4.16-9.33-8.85-.43-2.7.38-5,2.03-5.76,1.64-.77,3.55.02,5.41,2.28,1.99,2.42,3.11,5.27,4.11,8.19.91,2.66,1.53,2.84,3.86,1.13.36-.26.69-.57,1.01-.88,1.22-1.21,1.56-2.24.3-3.9-3.17-4.14-3.36-10.07-.72-14.09.86-1.31,1.93-2.54,3.74-2.14,1.76.39,2.09,1.95,2.26,3.43.41,3.59.31,7.15-.69,10.66-1.11,3.89-.95,4.14,2.96,5.45.55.18,1.11.29,1.66.46,1.09.33,1.68-.06,2.32-1.04,1.56-2.42,3.33-4.71,5.36-6.75,1.8-1.8,4.31-1.63,5.53.15,2.36,3.44.05,8.83-4.06,9.38-1.52.2-3.06.25-4.6.28-1.11.02-1.7.36-1.95,1.57-1.22,5.84-2.03,11.72-2.42,17.67-.43,6.46.4,12.92-.07,19.37-.03.43.09.73.53.88,2.57.91,6.23-1.32,6.66-4.03.14-.88.35-1.76.66-2.59,3.08-8.42,6.09-16.86,9.32-25.22,4.44-11.48,8.01-23.12,7.48-35.05Zm-69.71,17.74c.58-.53.39-1.06.39-1.53-.06-9.44,2.4-18.47,4.42-27.57.25-1.11.69-2.2,1.17-3.25,3.57-7.85,9.29-13.2,17.85-15.2,1.3-.31,2.61-.56,3.81-1.25,2.97-1.73,6.14-2.85,9.6-3.04.46-.03,1.02.02,1.3-.55-.42-.54-1.04-.46-1.59-.54-2.99-.41-5.99-.51-9-.45-13.3.29-22.55,6.95-27.4,19.36-3.21,8.21-2.94,16.67-2.29,25.18.23,2.96.75,5.91,1.75,8.83Zm43.55,45.27c-.84-11.62-.31-23.14,2.37-34.51.22-.93-.11-1.26-1.01-1.38-1.92-.26-3.77-.83-5.38-1.92-.93-.63-1.41-.43-1.99.43-1.02,1.52-2.39,2.75-4.16,3.25-1.47.42-1.34,1.13-.97,2.26,2.18,6.64,3.75,13.42,4.72,20.34.65,4.63,1.03,9.28,1.21,13.95.03.66-.17,1.38.94,1.53,3.51.49,4.26-.1,4.27-3.57,0-.13,0-.26,0-.38Zm25.24-83.75c.4.84.5,1.14.67,1.39,4.11,5.69,5.41,12.17,5.46,19.04.11,14.55-3.53,28.3-9.49,41.38-2.95,6.46-6.15,12.76-8.04,19.63-.66,2.4-2.18,4.19-4.39,5.33-.92.48-1.46,1.21-1.86,2.1-.15.33-.44.69-.08,1.05.27.27.59.08.89-.02,1.71-.57,3.32-1.25,4.64-2.58,2.43-2.44,3.71-5.45,4.77-8.64.91-2.76.79-5.68,1.56-8.47,1.4-5.07,4.17-9.42,6.73-13.93,5.26-9.22,9.45-18.82,10.46-29.62.98-10.4-3-18.7-10.03-25.91-.2-.21-.52-.3-1.29-.74Zm-13.63-10.94c.61.93,1.47,1.1,2.18,1.47,2.62,1.35,5.18,2.81,7.53,4.6,12.56,9.52,18.97,21.47,15.37,37.68-1.72,7.73-4.93,14.76-8.53,21.71-2.49,4.81-5.77,9.23-7.21,14.58-1.25,4.63-1.77,9.44-3.57,13.92-.04.11.1.3.18.5,1.04-.57,1.39-1.56,1.85-2.45.98-1.88,1.67-3.89,2.1-5.96,1.39-6.69,4.39-12.66,7.94-18.4,5.16-8.34,9.55-16.93,9.86-27.07.2-6.56.23-13.12-1.98-19.36-4.18-11.84-13.45-17.91-24.93-21.27-.17-.05-.37.02-.79.06Zm-16.98,133.61c1.98-.11,3.97-.12,5.93-.35,3.66-.44,7.44-.46,10.8-2.3.87-.47,2.16-.99,1.95-2.11-.24-1.3-1.68-.92-2.62-.94-7.01-.15-13.89.8-20.65,2.66-1.35.37-2.7.78-4.04,1.19-.5.16-1.04.45-1.01,1.02.05.71.74.55,1.21.58,2.8.22,5.61.44,8.42.25Zm-3.36-21.22c.32.33.4.49.48.5,6.53.14,13.05-.07,19.55-.73.52-.05,1.04-.23,1.15-.84.1-.58-.25-1.01-.69-1.28-.48-.29-1.03-.53-1.58-.65-4.86-1.02-9.81-.76-14.72-.94-.46-.02-1.05.06-1.09.57-.13,1.89-1.32,2.88-3.1,3.38Zm-4.03-111.44c10.46-.65,20.33.81,30.39,4.31-6.39-5.87-24.09-9.37-30.39-4.31Zm1.47,124.7c1.73.63,3.37.18,4.98.12,5.5-.21,11-.52,16.34-2.04.66-.19,1.55-.4,1.43-1.27-.11-.75-.98-.65-1.6-.74-.44-.06-.89-.08-1.34-.12-5.74-.49-11.19.88-16.57,2.64-1.06.34-2.28.38-3.24,1.42Zm-11.58-74.86c-.03,4.11,3.32,7.97,7.4,8.52.65.09,1.41.27,1.05-.86-1.06-3.3-2.28-6.52-4.63-9.16-.67-.76-1.42-1.64-2.6-1.11-1.08.48-1.24,1.54-1.22,2.6Zm11.9,68.67c.54.34.65.45.76.47,6.72.77,13-1.23,19.31-3.07.36-.11.75-.32.61-.8-.13-.45-.6-.44-.96-.48-2.3-.29-4.59-.1-6.88.12-4.4.43-8.43,2.1-12.84,3.77Zm-27.31-54.12c.38,1.38,1.2,2.49,2.1,3.53,1.29,1.5,2.61,2.99,3.96,4.44,3.26,3.52,5.38,7.58,6.23,12.33.39,2.2.97,4.37,1.62,6.51.68,2.22,1.84,4.22,3.5,5.88.33.34.7.96,1.24.48.44-.39.25-1-.14-1.37-3.27-3.17-3.84-7.36-4.57-11.55-.57-3.23-1.49-6.45-3.59-9.01-3.23-3.93-7.25-7.15-10.36-11.24Zm34.31-21.08c-.03-1.6.09-2.89-.35-4.12-.2-.54-.4-1.14-1.06-1.24-.66-.09-1.01.43-1.37.89-2.48,3.21-2.4,9,.18,12.21.23.29.44.78.84.59.27-.13.43-.6.55-.95.83-2.5,1.2-5.09,1.21-7.39Zm-33.21-22.48c4.12-6.79,9.59-12.39,15.38-17.71-8.69,2.78-12.96,9.45-15.38,17.71Zm28.98,85.18c1.09.3,1.5-.17,1.6-1.12.11-1.03.35-2.02-1.1-2.4-2.52-.67-4.96-1.64-7.56-1.94-.94-.11-2.21-1.17-2.73-.1-.5,1.02.61,2.09,1.49,2.84.52.45,1.15.79,1.77,1.09,2.09,1.02,4.34,1.41,6.54,1.63Zm15.89-49.7c4.43-.07,6.05-1.42,5.97-4.82-.02-.99-.11-2.02-1.14-2.46-1.04-.44-1.89.23-2.54.93-1.14,1.2-2.17,2.52-3.24,3.78-.57.67-1.66,1.34-1.34,2.16.37.94,1.6.18,2.29.4Zm-20.98,54.08c1.27,0,2.55.03,3.82-.01,1.02-.04,1.83-.51,2.37-1.4.47-.79.37-1.36-.66-1.44-3.45-.29-6.89-.13-10.29.54-.57.11-1.21.31-1.19,1.02.01.56.53.81,1.03,1.01,1.6.62,3.28.38,4.93.29Zm-20.22-43.71c-3.81-5.91-6.98-12.04-7.49-19.09-1.63,7.91,2.24,13.79,7.49,19.09Zm30.92,32.21v.02c-.51,0-1.02-.01-1.53,0-.72.02-1.45.04-1.44,1.07,0,.99.7,1.1,1.43,1.14,1.08.06,2.16.11,3.24.13.8.01,1.1-.48,1.15-1.22.05-.83-.36-1.15-1.14-1.15-.57,0-1.15,0-1.72,0Zm-3.05,5.25c.09,1.09-.28,2,.85,2.01,1.28,0,2.54-.2,3.54-1.12.32-.29.7-.63.59-1.12-.14-.59-.68-.43-1.1-.48-.76-.08-1.52-.09-2.27-.22-1.15-.2-1.73.14-1.61.93Zm8.65-3.09c.9-.06,2.4-.09,3.18-1.69.32-.66.26-1.15-.62-1.09-1.14.09-2.27.22-3.4.39-.94.14-.94.89-.92,1.61.02.81.56.88,1.76.77Zm-23.43-9.48c-.28-2.69-.92-5.28-2.25-7.67.64,2.59.5,5.41,2.25,7.67Z"/>
    <path class="cls-2" d="m58.19,112.97c-2.33.09-4.41-.6-6.32-1.56-8.45-4.28-16.83-8.69-25.24-13.06-.32-.17-.72-.33-.62-.93.96-.31,1.67.39,2.41.77,7,3.6,13.98,7.24,20.97,10.87,2.5,1.3,5,2.6,7.85,3,.36.05.77.13.95.91Z"/>
    <path class="cls-2" d="m193.58,54.67c-10.56,5.65-19.76,13.43-30.36,18.94,10.07-6.42,19.32-14.16,30.36-18.94Z"/>
    <path class="cls-2" d="m165.17,121.42c10.6.46,21.12.84,31.83.46-.4,1.11-1.17,1-1.79,1.02-9.65.19-19.29.07-28.92-.62-.4-.03-.93.11-1.13-.86Z"/>
    <path class="cls-2" d="m148.29,18.71c-6.84,8.58-10.51,18.31-10.72,29.72-3.13-5,4.56-25.93,10.72-29.72Z"/>
    <path class="cls-2" d="m49.17,42.01c.76.06.87.55,1.07.93,3.9,7.36,9.09,13.58,16,18.31.39.27,1.11.58.75,1.13-.42.65-.91-.03-1.26-.29-6.79-4.82-12.19-10.88-16.12-18.24-.21-.39-.38-.81-.52-1.24-.05-.15.04-.36.08-.62Z"/>
  </g>
</svg>