<?xml version="1.0" encoding="UTF-8"?>
<svg id="Layer_1" data-name="Layer 1" xmlns="http://www.w3.org/2000/svg" viewBox="0 0 227 221">
  <defs>
    <style>
      .cls-1 {
        opacity: .41;
      }

      .cls-1, .cls-2 {
        fill: #c398a1;
        stroke-width: 0px;
      }
    </style>
  </defs>
  <path class="cls-2" d="m128.94,113.35c-.2,2.47.04,4.88.62,7.3,2.22,9.32,1.81,18.41-2.65,27.11-1.68,3.28-3.24,6.61-4.88,9.91-1.93,3.86-2.42,7.88-1.39,12.08.99,4.02,1.92,8.06,3.03,12.04.43,1.53.23,2.37-1.3,3.07-10.28,4.75-20.53,4.16-30.82.07-1.31-.52-1.49-1.27-1-2.52.86-2.22,1.56-4.49,2.37-6.73,3.85-10.75,2.66-21.63.81-32.52-2-11.8-4.16-23.57-7.02-35.19-.51-2.05-.55-4.18.14-6.15,3.43-9.75,4.78-19.97,6.91-30.02.5-2.36,1.56-4.23,3.34-5.86,5.55-5.07,10.99-10.25,16.53-15.33,1.03-.95,1.39-1.82,1.01-3.21-1.56-5.7-2.84-11.47-4.57-17.11-1.08-3.51-2.16-7.1-4.31-10.19-1.12-1.61-1.37-3.25-.84-5.21.64-2.35,1.18-4.77,1.01-7.27-.05-.74.05-1.42.93-1.6.77-.16,1.09.44,1.37.98,1.07,2.08,2.6,3.82,4.22,5.44,1.59,1.58,2.33,3.3,2.19,5.54-.11,1.83.09,3.68.15,5.52.01.31-.09.69.06.91,1.8,2.59,1.15,5.79,2.21,8.59,1.08,2.85,1.62,5.91,2.47,8.86.68,2.38.91,2.41,2.79.73,1.26-1.12,2.53-2.24,3.76-3.39,1.34-1.26,2.32-.8,2.66.75.94,4.27,1.12,8.64-2.48,11.76-2.6,2.26-3.07,4.38-2.08,7.57,1.57,5.07,1.41,5.26,6.34,3.45,2.81-1.03,5.6-.74,8.4-.54,4.37.31,8.73.44,13.1.35,2.49-.05,3.04.89,1.87,3.09-2.28,4.28-6.24,5.41-10.66,5.49-3.62.06-7.21.23-10.59,1.7-.59.26-1.6.21-1.58,1.06.02.85.63,1.58,1.46,1.91.99.39,2.04.67,3.06.99,6.21,1.94,12.18,4.69,18.71,5.5,1.72.21,1.94,1.18,1.47,2.61-.8,2.45-2.93,4-5.82,4.05-3.48.06-6.87-.56-10.2-1.53-.88-.26-1.76-.53-2.66-.74-4.02-.94-4.99-.03-4.31,4.16.26,1.58.74,3.13,1.14,4.69.2.77.51,1.45,1.41,1.63,4.58.91,8.2,3.65,11.96,6.18,1.9,1.28,3.93,2.39,5.96,3.46,1.3.69,1.45,1.31.46,2.44-2.49,2.87-5.92,3.71-9.34,2.09-1.66-.79-3.24-1.74-4.89-2.55-.64-.32-1.31-1.1-2.06-.44-.63.55-.1,1.31.04,1.95,1.89,8.3,3.81,16.59,5.7,24.89,1.07,4.71,2.11,9.43,3.15,14.15.15.67.26,1.36.3,2.05.03.61.03,1.32-.74,1.5-.7.16-1.16-.29-1.4-.92-.33-.86-.66-1.72-.93-2.6-4.06-13.27-8.1-26.55-12.15-39.83-.18-.59-.34-1.18-.53-1.76-.11-.36-.19-.82-.64-.84-.6-.03-.73.51-.78.95-.2,1.83-.36,3.66-.53,5.5Zm-21.91,73.61c4.66.05,9.11-.91,13.43-2.68,1.67-.68,2.27-1.49,1.65-3.3-.7-2.02-1.04-4.17-1.7-6.21-2.46-7.58-1.92-14.79,2.34-21.64,1.01-1.62,1.73-3.42,2.63-5.11,4.22-7.93,5.28-16.4,3.28-25.02-1.34-5.79-1-11.41-.26-17.11.76-5.86,1.79-11.67,3.04-17.44.9-4.19,1.04-8.39-.92-12.38-1.1-2.25-2.51-2.37-3.93-.33-1.46,2.09-2.35,4.46-2.99,6.93-1.92,7.35-3.43,14.79-5.01,22.21-.61,2.86-1.34,5.69-2.96,8.17-1.75,2.68-3.82,2.88-5.61.2-4.21-6.28-7.31-13.38-7.35-20.78-.05-10.87,1.63-21.67,10.87-29.36.17-.15.28-.39.46-.51,3.61-2.48,3.7-5.67,2.14-9.4-.9-2.15-.92-2.31-2.62-.74-4.89,4.53-9.69,9.18-14.68,13.59-2.25,1.99-3.57,4.27-4.12,7.18-1.82,9.56-3.26,19.21-6.51,28.45-.64,1.81-.74,3.77-.28,5.69,2.52,10.6,4.48,21.31,6.48,32.01,2.69,14.37,3.93,28.6-2.29,42.47-.57,1.27-.07,1.98,1.21,2.42,4.44,1.55,8.95,2.69,13.69,2.7Zm-3.38-94.6c.17,2.8,1.33,5.67,2.2,8.6,1.11,3.76,2.44,7.45,4.6,10.76,1.8,2.77,3.15,2.73,4.54-.17,3.19-6.67,3.45-14.11,5.36-21.13.1-.35.13-.81-.36-.96-.43-.13-.7.2-.96.48-1.72,1.82-2.92,3.93-3.49,6.38-.12.53-.03,1.48-.88,1.29-.77-.18-.45-1.02-.34-1.59.7-3.65,2.82-6.38,5.57-8.74,2.56-2.2,2.67-5.36,2.95-8.37.08-.84-.43-2.1-1.69-1.48-4.56,2.24-9.22,4.45-10.77,9.94-.46,1.62-.69,3.3-1.01,4.95-.07.39-.13.86-.57.88-.61.03-.68-.52-.68-.97,0-.53.09-1.07.14-1.6.57-5.98,3.98-9.91,9.02-12.78,4.99-2.85,4.9-2.9,3.15-8.39-.42-1.33-1.05-1.51-2.18-1.1-3.1,1.12-6.2,2.23-9.31,3.32-1.51.53-2.09,1.74-2.39,3.13-1.27,5.69-2.28,11.43-2.88,17.55Zm22.74-25.22c.23.88.62,2.12.89,3.4.38,1.8,1.2,2.49,3.06,1.7,4.21-1.79,8.62-2.6,13.21-2.44,1.13.04,2.29-.21,3.41-.41,2.14-.38,3.8-1.57,5.08-3.28.4-.53.98-1.11.52-1.85-.39-.63-1.1-.39-1.69-.39-4.37.02-8.75.09-13.07-.48-3.66-.48-6.96.52-10.28,1.75-.84.31-1.36.67-1.13,2.01Zm22,20.47c2.34.18,4.03-.17,5.31-1.6,1.34-1.5,1.02-2.37-.95-2.77-1.5-.3-3.04-.45-4.49-.91-4.52-1.42-9-2.95-13.49-4.45-1.32-.44-2.1-.35-1.82,1.37.22,1.36.32,2.73.42,4.11.06.78.35,1.35,1.15,1.48,4.82.78,9.39,2.82,13.86,2.77Zm-.75,23.26c1.38.1,2.54-.48,3.63-1.22,1.27-.87,1.46-1.65-.11-2.48-3.25-1.73-6.27-3.84-9.28-5.96-1.59-1.13-3.4-1.72-5.24-2.29-1.37-.43-1.85-.09-1.59,1.39.59,3.32,1.25,6.45,5.26,7.46,1.51.38,2.84,1.47,4.27,2.21.96.5,1.94.94,3.05.88ZM108.91,10.71c.08,2.12.4,4.13,1.32,5.99.27.55.71,1.09.09,1.63-.19.16-.59.24-.82.15-.65-.24-.51-.83-.49-1.37.06-1.72-.68-3.28-.99-4.92-.08-.43-.19-1.01-.73-1.03-.59-.02-.6.57-.71,1.01-.83,3.09-1.39,6.1.9,8.93.85,1.05,1.4,2.38,1.9,3.66.57,1.46,1.47,1.68,2.88,1.38,1.48-.31,1.48-1.28,1.44-2.41-.05-1.61-.3-3.25-.05-4.82.65-4.07-2.32-5.93-4.74-8.21Zm19.04,33.06c0-.46.02-.92,0-1.37-.04-.68-.02-1.49-.7-1.84-.8-.42-1.2.42-1.68.84-1.26,1.11-2.48,2.25-3.71,3.39-.64.58-1.18,1.23-.94,2.18.4,1.55.8,3.09,1.24,4.63.34,1.19.85,1.41,1.93.54,2.7-2.17,3.97-4.94,3.86-8.36Zm-8.59,21.75c-.31-1.13-.61-2.48-1.07-3.78-.35-.98-1-.76-1.56-.13-1.9,2.1-3.79,4.21-5.67,6.33-.29.33-.76.7-.41,1.17.32.43.84.24,1.28.09,2.1-.72,4.2-1.44,6.29-2.19.59-.21,1.12-.53,1.15-1.49Z"/>
  <ellipse class="cls-1" cx="113.5" cy="110.5" rx="113.5" ry="110.5"/>
</svg>