<?xml version="1.0" encoding="UTF-8"?>
<svg id="Layer_1" data-name="Layer 1" xmlns="http://www.w3.org/2000/svg" viewBox="0 0 227 221">
  <defs>
    <style>
      .cls-1 {
        opacity: .41;
      }

      .cls-1, .cls-2 {
        fill: #c398a1;
        stroke-width: 0px;
      }
    </style>
  </defs>
  <ellipse class="cls-1" cx="113.5" cy="110.5" rx="113.5" ry="110.5"/>
  <path class="cls-2" d="m101.18,68.77c3.36,0,6.72-.04,10.08.01,1.37.02,1.98-.48,1.91-1.9-.08-1.84-.11-3.68-.06-5.52.04-1.42-.43-2.06-1.98-1.99-2.09.09-4.18,0-6.27-.1-3.62-.18-5.75-2.11-5.84-5.7-.14-5.39-.1-10.78.03-16.17.07-3.11,2.18-5.34,5.31-5.41,6.53-.15,13.06-.15,19.59.02,3.25.08,5.19,2.33,5.23,5.62.05,5.33.05,10.66,0,15.98-.03,3.19-1.89,5.28-5.06,5.57-2.39.22-4.81.2-7.22.19-1.22,0-1.7.45-1.67,1.68.04,1.9.02,3.81-.09,5.71-.09,1.52.56,2.01,2.01,2.01,5.96-.03,11.92-.01,17.88,0,5.57,0,7.34,1.67,7.37,7.21.01,1.86.66,2.4,2.48,2.33,3.36-.13,6.72-.07,10.08,0,3.47.06,5.69,2.26,5.75,5.74.07,3.68.08,7.36-.02,11.03-.05,1.64.58,2.13,2.12,2.04,1.83-.1,3.68-.05,5.51-.06,4.1-.03,6.42,2.2,6.46,6.29.04,4.95.05,9.89.01,14.84-.03,4.13-2.24,6.29-6.4,6.35-1.97.03-3.93.06-5.9.01-1.3-.03-1.81.48-1.78,1.8.06,2.66.04,5.33,0,7.99-.05,4.16-2.22,6.31-6.36,6.33-1.14,0-2.3.1-3.42-.04-6.98-.89-13.17,1.35-19.27,4.46-4.91,2.5-10.01,4.62-15.05,6.84-.96.42-1.42,1-1.42,1.99,0,2.35.03,4.69.03,7.04,0,1.07.57,1.44,1.56,1.43,2.22,0,4.44-.01,6.66.05,3.62.1,5.7,2.1,5.74,5.68.06,5.39.05,10.78-.02,16.17-.04,3.06-2.25,5.33-5.29,5.36-6.4.07-12.81.06-19.21-.02-3.46-.04-5.55-2.18-5.6-5.65-.08-5.26-.1-10.53-.03-15.79.05-3.51,2.22-5.64,5.74-5.78,2.22-.09,4.44-.06,6.66-.03,1.19.01,1.73-.42,1.7-1.68-.05-2.22.01-4.44.06-6.66.02-1-.36-1.63-1.32-2.06-8.04-3.58-16.07-7.21-24.1-10.82-1.01-.45-2.09-.5-3.17-.5-3.68-.02-7.36-.02-11.03-.06-3.72-.04-5.65-1.79-5.85-5.52-.15-2.78-.13-5.58-.07-8.37.04-1.64-.57-2.27-2.24-2.19-2.02.1-4.06.05-6.08-.04-3.57-.17-5.77-2.39-5.81-5.95-.06-5.2-.05-10.4,0-15.6.04-3.49,2.19-5.64,5.72-5.8,2.09-.1,4.19-.18,6.27-.06,1.75.1,2.19-.63,2.14-2.23-.09-3.42-.06-6.85-.05-10.27,0-4.23,2.06-6.29,6.31-6.3,3.3-.01,6.6-.05,9.89.05,1.61.05,2.15-.61,2.06-2.14-.1-1.72-.09-3.44.95-4.95,1.08-1.56,2.55-2.44,4.47-2.45,3.3,0,6.59,0,9.89,0Zm11.93,39.91c0-5.33,0-10.65,0-15.98,0-2.8.01-2.79-2.82-2.81-6.21-.04-12.43.01-18.64-.16-3.88-.1-5.72-2.2-5.78-6.07,0-.38-.03-.76,0-1.14.14-1.57-.43-2.32-2.15-2.26-3.29.11-6.59.02-9.89.07-2.77.04-4.17,1.45-4.22,4.27-.06,3.55.02,7.1-.06,10.65-.03,1.48.65,1.86,1.96,1.83,2.15-.05,4.31-.08,6.47,0,3.48.12,5.71,2.35,5.75,5.8.05,5.2.04,10.4-.02,15.6-.05,3.8-2.28,5.99-6.07,6.08-2.15.05-4.31.05-6.47.03-1.1,0-1.62.43-1.6,1.58.04,2.92,0,5.83.05,8.75.04,1.73.81,3.41,2.52,3.61,5.03.59,10.09.57,15.14.02.18-.02.34-.17.51-.25,7.92-3.54,15.84-7.1,23.78-10.6,1.16-.51,1.58-1.2,1.56-2.47-.06-5.52-.03-11.03-.03-16.55Zm13.6-18.87s0,.05,0,.07c-3.17,0-6.34.05-9.51-.02-1.45-.03-2.04.42-2.03,1.95.07,11.1.09,22.2.06,33.29,0,1.43.52,2.15,1.8,2.71,7.77,3.41,15.51,6.9,23.25,10.38.76.34,1.52.61,2.37.61,3.99,0,7.99.04,11.98,0,2.5-.03,3.88-1.4,3.93-3.89.06-2.85-.02-5.71.05-8.56.03-1.34-.51-1.8-1.8-1.78-2.15.05-4.31.04-6.47-.03-3.42-.12-5.66-2.25-5.72-5.61-.1-5.39-.12-10.78-.06-16.17.04-3.36,2.28-5.52,5.67-5.63,2.15-.07,4.32-.14,6.47-.04,1.43.06,1.92-.43,1.9-1.84-.06-3.55,0-7.1-.02-10.65-.02-2.87-1.28-4.2-4.14-4.28-2.92-.08-5.83-.08-8.75-.09-3.2-.01-3.2,0-3.27,3.26-.1,4.17-2.02,6.19-6.21,6.31-3.17.09-6.34.02-9.51.02Zm-12.74-2.04s0,.02,0,.02c7.35,0,14.71.02,22.06-.01,3-.01,4.28-1.32,4.32-4.31.04-2.85.04-5.71-.02-8.56-.06-2.69-1.23-3.9-3.93-4.17-.88-.09-1.77-.07-2.66-.07-10.02,0-20.03,0-30.05.03-3.99,0-7.99-.03-11.98.12-2.54.09-3.63,1.39-3.65,3.9-.03,2.85-.06,5.71-.04,8.56.02,3.36,1.11,4.47,4.46,4.48,7.16.02,14.33,0,21.49,0Zm.27,62.92c.46-.16.94-.3,1.4-.51,6.99-3.12,13.98-6.26,20.97-9.38.53-.23,1.15-.35,1.13-1.08-.02-.67-.67-.68-1.11-.87-7.1-3.2-14.21-6.37-21.29-9.6-.99-.45-1.8-.29-2.71.12-7.04,3.17-14.09,6.33-21.13,9.49-.44.2-1.06.26-.96.96.07.48.46.7.89.89,7.23,3.21,14.45,6.44,21.67,9.65.34.15.72.21,1.14.32Zm-.11,36.98c2.92,0,5.83.02,8.75,0,2.97-.02,4.31-1.32,4.35-4.27.03-2.72-.06-5.45-.01-8.18.02-1.28-.45-1.86-1.76-1.86-7.54.03-15.08.04-22.62.02-1.28,0-1.83.51-1.81,1.82.05,2.72,0,5.45.03,8.18.04,2.93,1.35,4.24,4.34,4.28,2.91.04,5.83,0,8.74.01Zm-45.5-79.47h0c-3.73,0-7.47.03-11.2-.03-1.25-.02-1.89.33-1.86,1.69.06,3.04-.01,6.08.08,9.11.06,2.09,1.44,3.43,3.52,3.44,6.26.05,12.53.05,18.79.02,2.25-.01,3.69-1.42,3.75-3.67.07-2.91,0-5.82.03-8.73.01-1.33-.44-1.91-1.9-1.87-3.73.1-7.47.03-11.2.03Zm45.56-65.16s0,0,0,.01c-3.74,0-7.48.04-11.22-.02-1.37-.02-1.96.46-1.93,1.87.06,2.79-.03,5.58.03,8.37.06,2.56,1.36,3.94,3.87,3.97,6.15.06,12.3.07,18.45,0,2.39-.03,3.76-1.47,3.81-3.85.05-2.85-.05-5.71-.02-8.56.01-1.4-.58-1.85-1.96-1.83-3.68.08-7.35.03-11.03.03Zm45.67,65.13v.02c-3.8,0-7.6.02-11.4-.01-1.14-.01-1.83.3-1.81,1.58.03,3.04-.07,6.08.05,9.12.09,2.34,1.48,3.57,3.82,3.57,6.08.02,12.16.03,18.24,0,2.56-.01,3.88-1.31,3.93-3.84.05-2.79-.06-5.58.05-8.36.06-1.57-.47-2.14-2.05-2.1-3.61.08-7.22.02-10.83.02Zm-45.72,63.25s0,0,0,0c3.74,0,7.48-.01,11.22,0,.91,0,1.57-.11,1.78-1.22.71-3.8-.79-5.79-4.64-5.81-5.64-.04-11.29.02-16.93.07-3.39.03-4.55,1.38-4.56,4.84,0,1.56.52,2.15,2.1,2.12,3.68-.07,7.36-.02,11.03-.02Zm.02-130.46h0c3.74,0,7.47-.03,11.21,0,1.26.01,1.82-.42,1.87-1.76.14-4.01-1.01-5.28-5.05-5.28-5.45,0-10.9.02-16.34.04-3.58.01-4.69,1.21-4.85,4.76-.09,1.87.71,2.28,2.34,2.26,3.61-.06,7.22-.02,10.83-.02Zm-45.65,65.17s0,0,0,.01c3.8,0,7.6,0,11.4,0,.68,0,1.41.09,1.74-.78,1.17-3.07-.91-6.21-4.25-6.25-5.7-.06-11.4-.07-17.09-.04-3.69.02-4.93,1.49-4.76,5.22.06,1.39.57,1.88,1.95,1.86,3.67-.07,7.34-.02,11.02-.02Zm91.25,0c3.67,0,7.34,0,11.01,0,.75,0,1.54.08,1.88-.88,1.12-3.25-.84-6.12-4.3-6.14-5.7-.05-11.39-.05-17.09-.02-3.37.02-4.6,1.41-4.67,4.79-.03,1.75.62,2.33,2.35,2.29,3.61-.1,7.22-.03,10.82-.03Z"/>
</svg>