<?xml version="1.0" encoding="UTF-8"?>
<svg id="lotus" xmlns="http://www.w3.org/2000/svg" viewBox="0 0 54.25 56">
  <defs>
    <style>
      .cls-1 {
        opacity: .85;
      }

      .cls-1, .cls-2, .cls-3, .cls-4 {
        stroke-width: 0px;
      }

      .cls-1, .cls-3 {
        fill: #c499a2;
      }

      .cls-2 {
        fill: #fff;
        opacity: .51;
      }

      .cls-4 {
        fill: #bdccd4;
      }
    </style>
  </defs>
  <g>
    <ellipse class="cls-1" cx="27.12" cy="28" rx="27.12" ry="28"/>
    <ellipse class="cls-4" cx="28.34" cy="28.38" rx="20.71" ry="21.38"/>
    <ellipse class="cls-2" cx="15.31" cy="15.31" rx="2.19" ry="1.31" transform="translate(-6.23 17.55) rotate(-50.94)"/>
    <ellipse class="cls-2" cx="13.15" cy="18.62" rx="1.06" ry=".63" transform="translate(-9.59 17.1) rotate(-50.94)"/>
  </g>
  <path class="cls-3" d="m34.72,25.81c0,2.6-.01,5.19,0,7.79.01,1.31-.74,2.06-1.84,2.5-.8.32-1.63.42-2.46.31-1.08-.14-2.06-.54-2.69-1.48-.47-.7-.49-1.77.36-2.56.57-.53,1.26-.83,2.01-.94.83-.13,1.67-.15,2.48.14.17.06.33.13.49.2.17.07.26,0,.28-.17.01-.13,0-.27,0-.4,0-1.94,0-3.87,0-5.81,0-.08,0-.15,0-.23-.01-.16-.07-.22-.25-.17-.6.16-1.22.27-1.81.46-.57.18-1.15.3-1.71.48-.57.18-1.17.29-1.76.44-.33.09-.66.19-.99.3-.26.09-.54.14-.81.2-.58.14-1.14.34-1.73.45-.24.04-.46.17-.7.22-.17.03-.17.23-.18.38-.01.42-.02.85-.02,1.27,0,2.52-.02,5.04-.01,7.56,0,.72-.26,1.31-.8,1.75-.58.48-1.25.79-2.01.87-.63.07-1.28.07-1.9-.05-.91-.18-1.73-.58-2.27-1.39-.52-.77-.4-1.78.27-2.46.53-.53,1.17-.86,1.92-.99.37-.06.74-.16,1.13-.16.7.02,1.37.13,2.01.42.28.12.33.1.33-.21,0-1.16,0-2.32,0-3.47,0-3.18,0-6.36,0-9.54,0-.77.05-.8.8-.98.91-.21,1.81-.47,2.72-.71,1.36-.36,2.73-.73,4.09-1.09,1.06-.29,2.12-.55,3.18-.84.48-.13.96-.25,1.43-.4.37-.12.45-.04.45.39,0,2.64,0,5.28,0,7.91,0,0-.02,0-.03,0Zm-1.34-2.74c0-.06,0-.12,0-.18,0-.34-.07-.4-.41-.34-.22.04-.43.15-.65.19-.31.05-.62.14-.93.23-.59.16-1.19.33-1.78.49-1.99.53-3.98,1.04-5.96,1.61-.14.04-.23.11-.23.26,0,.21,0,.42.03.63.02.19.13.27.32.22.17-.05.34-.11.51-.16,2.16-.57,4.32-1.13,6.48-1.71.28-.08.57-.14.85-.22.38-.1.76-.22,1.15-.29.54-.09.63-.19.63-.73Z"/>
</svg>