<?xml version="1.0" encoding="UTF-8"?>
<svg id="Layer_2" data-name="Layer 2" xmlns="http://www.w3.org/2000/svg" viewBox="0 0 227 221">
  <defs>
    <style>
      .cls-1 {
        opacity: .41;
      }

      .cls-1, .cls-2 {
        fill: #c398a1;
        stroke-width: 0px;
      }
    </style>
  </defs>
  <g id="Layer_1-2" data-name="Layer 1">
    <ellipse class="cls-1" cx="113.5" cy="110.5" rx="113.5" ry="110.5"/>
    <g>
      <path class="cls-2" d="m113.09,67.43c6.59,0,13.18,0,19.76,0,4.12,0,8.24.12,12.36.03,6.09-.13,11.45,1.99,16.32,5.34,5.6,3.86,9.92,8.88,12.5,15.27,1.38,3.42,1.68,7.05,2.16,10.64,1.17,8.75,2.24,17.51,3.4,26.25.67,5.07.6,10.1-.95,15.01-1.75,5.55-4.61,10.29-10.1,12.96-1.35.65-2.74.98-4.25,1.09-10.88.83-18.7-4.3-24.82-12.7-1.62-2.22-2.55-4.8-3.56-7.35-2.85-7.2-8.41-11.45-15.51-14.04-10.48-3.82-22.47,1.71-27.98,9.71-1.55,2.25-2.28,4.84-3.41,7.27-3.91,8.45-10.26,14.33-19.28,16.6-4.92,1.24-10.15,1.32-14.68-2.05-3.28-2.44-5.41-5.7-6.89-9.41-2.11-5.28-2.48-10.78-1.78-16.38,1.08-8.62,2.13-17.24,3.32-25.85.59-4.24.85-8.57,2.7-12.55,5.05-10.84,13.43-17.43,25.17-19.68,1.39-.27,2.86-.18,4.29-.18,10.4-.01,20.79,0,31.19,0,0,0,0,0,0,.01Zm.39,5.54v-.03c-11.21,0-22.41,0-33.62,0-.81,0-1.6.1-2.39.28-4.03.92-7.77,2.53-11.07,4.99-5.37,3.99-9.01,9.18-10.11,15.89-.68,4.11-1.18,8.24-1.75,12.37-1.08,7.81-2.16,15.62-2.73,23.48-.35,4.85.64,9.32,3.26,13.46,2.59,4.11,6.88,6.18,11.6,5.15,8.64-1.89,14.78-6.83,17.77-15.28,1.93-5.45,5.12-9.9,9.74-13.36,7.53-5.62,15.9-8.18,25.16-5.96,10.77,2.59,18.66,8.8,22.49,19.55,2.47,6.93,7.32,11.54,14.11,14.18,7.61,2.96,14.22-.24,16.94-7.92,1.61-4.55,1.65-9.13,1.09-13.79-1.04-8.58-2.08-17.17-3.22-25.74-.41-3.1-.63-6.26-1.65-9.24-2.41-7.05-7.16-12.07-13.72-15.47-3.48-1.8-7.09-2.69-11.09-2.62-10.26.17-20.53.06-30.8.06Z"/>
      <path class="cls-2" d="m82.26,77.47c10.02.1,18.32,8.31,18.12,18.15-.2,9.79-7.91,18-18.53,17.89-9.73-.09-17.9-7.8-18.01-18.03-.1-9.93,8.43-18.1,18.42-18.01Zm-12.61,18.01c-.79,6.52,6.3,12.99,13.24,12.5,6.67-.47,11.82-5.91,11.77-13.65-.03-5.2-5.33-11.31-12.7-11.36-6-.04-12.94,5.65-12.3,12.5Z"/>
      <path class="cls-2" d="m144.1,90.48c-2.93,0-5.35-2.35-5.36-5.21-.01-3.02,2.33-5.35,5.38-5.34,2.77,0,5.2,2.44,5.23,5.25.03,2.92-2.33,5.3-5.26,5.31Z"/>
      <path class="cls-2" d="m144.12,110.93c-3.08-.02-5.38-2.37-5.37-5.49,0-2.77,2.44-5.1,5.34-5.12,2.8-.02,5.29,2.53,5.26,5.39-.03,2.84-2.43,5.24-5.23,5.22Z"/>
      <path class="cls-2" d="m154.3,100.67c-2.84,0-5.25-2.39-5.25-5.19,0-2.88,2.4-5.3,5.3-5.32,2.74-.02,5.4,2.61,5.38,5.32-.02,2.84-2.49,5.2-5.43,5.19Z"/>
      <path class="cls-2" d="m133.76,100.68c-2.94,0-5.38-2.41-5.34-5.25.04-2.9,2.46-5.27,5.35-5.27,2.85,0,5.29,2.55,5.27,5.51-.02,2.65-2.51,5.02-5.28,5.01Z"/>
      <path class="cls-2" d="m120.86,108.43c-.89,0-1.79.05-2.68-.01-1.44-.1-2.63-1.31-2.71-2.67-.08-1.28.97-2.51,2.43-2.75,1.82-.3,3.66-.24,5.48-.09,1.6.13,2.86,1.54,2.8,2.91-.07,1.46-1.47,2.62-3.17,2.62-.71,0-1.43,0-2.14,0,0,0,0,0,0,0Z"/>
      <path class="cls-2" d="m105.34,108.43c-.85,0-1.7.04-2.55,0-1.39-.07-2.61-1.2-2.76-2.48-.15-1.29.8-2.61,2.26-2.89,1.94-.38,3.93-.36,5.88-.08,1.58.22,2.63,1.62,2.5,3-.13,1.38-1.53,2.46-3.18,2.46-.72,0-1.43,0-2.15,0,0,0,0,0,0,0Z"/>
      <path class="cls-2" d="m74.21,95.53c0-1.7,1.21-2.85,3.37-2.85,1.38,0,1.83-.44,1.7-1.77-.12-1.22.47-2.16,1.47-2.83,1.61-1.09,3.67-.08,4.03,1.95.14.82-.31,1.83.36,2.44.6.55,1.55.18,2.34.33,1.64.32,2.64,1.35,2.6,2.76-.04,1.39-1.27,2.52-2.89,2.65-.13.01-.27,0-.4,0q-1.85.05-1.96,1.91c-.11,1.96-1.05,3.11-2.58,3.19-1.61.08-2.95-1.14-2.91-3.16.03-1.69-.6-2.01-2.09-1.97-1.92.04-3.05-1.04-3.04-2.64Z"/>
    </g>
  </g>
</svg>