<?xml version="1.0" encoding="UTF-8"?>
<svg id="lotus" xmlns="http://www.w3.org/2000/svg" viewBox="0 0 54.25 56">
  <defs>
    <style>
      .cls-1 {
        opacity: .85;
      }

      .cls-1, .cls-2, .cls-3, .cls-4 {
        stroke-width: 0px;
      }

      .cls-1, .cls-3 {
        fill: #c499a2;
      }

      .cls-2 {
        fill: #fff;
        opacity: .51;
      }

      .cls-4 {
        fill: #bdccd4;
      }
    </style>
  </defs>
  <ellipse class="cls-1" cx="27.12" cy="28" rx="27.12" ry="28"/>
  <ellipse class="cls-4" cx="28.34" cy="28.38" rx="20.71" ry="21.38"/>
  <ellipse class="cls-2" cx="15.31" cy="15.31" rx="2.19" ry="1.31" transform="translate(-6.23 17.55) rotate(-50.94)"/>
  <ellipse class="cls-2" cx="13.15" cy="18.62" rx="1.06" ry=".63" transform="translate(-9.59 17.1) rotate(-50.94)"/>
  <g>
    <path class="cls-3" d="m26.74,32.44c-.12-.28-.11-.53-.12-.79-.04-1.12.35-2.11.9-3.06.78-1.33,1.58-2.66,2.2-4.07.75-1.69.99-3.46.55-5.28-.17-.71-.51-1.34-.97-1.91-.57-.7-1.32-1.11-2.2-1.24-1.13-.17-2.22,0-3.21.56-.76.42-1.2,1.14-1.48,1.94-.1.3-.05.35.25.27,1.54-.41,3.95.4,4.22,2.91.08.76.04,1.5-.26,2.2-.5,1.19-1.43,1.86-2.69,2.07-1.26.21-2.35-.22-3.31-1-.64-.52-.91-1.25-1.03-2.04-.21-1.5.17-2.85,1.1-4.04.83-1.06,1.82-1.93,3.07-2.47.83-.36,1.68-.62,2.58-.69,2.52-.21,4.97.13,7.33,1.02,1.17.44,2.26,1.05,3.02,2.07,1.23,1.64,1.51,3.42.62,5.32-.32.68-.88,1.14-1.47,1.57-.93.68-1.98,1.14-3.06,1.54-1.24.45-2.49.89-3.72,1.35-.41.15-.78.39-1.12.66-.65.5-.94,1.2-1.07,1.99-.05.27-.05.55-.05.82,0,.09.02.18-.09.3Z"/>
    <path class="cls-3" d="m23.99,37.07c0-1.92,1.51-3.44,3.43-3.44,1.93,0,3.45,1.52,3.45,3.45,0,1.89-1.54,3.44-3.44,3.45-1.92,0-3.44-1.52-3.44-3.46Z"/>
  </g>
</svg>