<?xml version="1.0" encoding="UTF-8"?>
<svg id="Layer_2" data-name="Layer 2" xmlns="http://www.w3.org/2000/svg" viewBox="0 0 1266.2 720">
  <defs>
    <style>
      .cls-1 {
        fill: #c3bea0;
      }

      .cls-1, .cls-2 {
        stroke: #000;
      }

      .cls-1, .cls-2, .cls-3 {
        stroke-miterlimit: 10;
        stroke-width: 8px;
      }

      .cls-2 {
        fill: #989898;
      }

      .cls-3 {
        fill: none;
        stroke: #666;
      }

      .cls-4, .cls-5, .cls-6, .cls-7, .cls-8, .cls-9, .cls-10, .cls-11, .cls-12, .cls-13, .cls-14, .cls-15, .cls-16, .cls-17, .cls-18, .cls-19, .cls-20, .cls-21, .cls-22, .cls-23, .cls-24, .cls-25, .cls-26, .cls-27, .cls-28, .cls-29, .cls-30, .cls-31, .cls-32, .cls-33, .cls-34, .cls-35, .cls-36, .cls-37, .cls-38, .cls-39, .cls-40, .cls-41, .cls-42, .cls-43, .cls-44, .cls-45, .cls-46, .cls-47, .cls-48, .cls-49, .cls-50, .cls-51, .cls-52, .cls-53, .cls-54, .cls-55, .cls-56, .cls-57, .cls-58, .cls-59, .cls-60, .cls-61, .cls-62, .cls-63, .cls-64, .cls-65, .cls-66, .cls-67, .cls-68, .cls-69, .cls-70, .cls-71, .cls-72, .cls-73, .cls-74, .cls-75, .cls-76, .cls-77, .cls-78, .cls-79, .cls-80, .cls-81, .cls-82, .cls-83, .cls-84, .cls-85, .cls-86, .cls-87, .cls-88, .cls-89, .cls-90, .cls-91 {
        stroke-width: 0px;
      }

      .cls-5 {
        fill: #f7f9fa;
      }

      .cls-6 {
        fill: #f7f9fb;
      }

      .cls-7 {
        fill: #f6f6f6;
      }

      .cls-8 {
        fill: #f9faf7;
      }

      .cls-9 {
        fill: #f8fafb;
      }

      .cls-10 {
        fill: #f8f8f8;
      }

      .cls-11 {
        fill: #471f05;
      }

      .cls-12 {
        fill: #471f06;
      }

      .cls-13 {
        fill: #748963;
      }

      .cls-14 {
        fill: #262220;
      }

      .cls-15 {
        fill: #7b4a1a;
      }

      .cls-16 {
        fill: #7c4a1a;
      }

      .cls-17 {
        fill: #476334;
      }

      .cls-18 {
        fill: #653606;
      }

      .cls-19 {
        fill: #639a5e;
      }

      .cls-20 {
        fill: #a37a4b;
      }

      .cls-21 {
        fill: #1a1a1a;
      }

      .cls-22 {
        fill: #090807;
      }

      .cls-23 {
        fill: #231f20;
      }

      .cls-24 {
        fill: #1f1d1c;
      }

      .cls-25 {
        fill: #141312;
      }

      .cls-26 {
        fill: #131110;
      }

      .cls-27 {
        fill: #17120d;
      }

      .cls-28 {
        fill: #c59167;
      }

      .cls-29 {
        fill: #c499a2;
      }

      .cls-30 {
        fill: #c90224;
      }

      .cls-31 {
        fill: #c9ad70;
      }

      .cls-32 {
        fill: #d8cba4;
      }

      .cls-33 {
        fill: #e2d2ab;
      }

      .cls-34 {
        fill: #e1d4ac;
      }

      .cls-35 {
        fill: #e1d1a7;
      }

      .cls-36 {
        fill: #e0d0a6;
      }

      .cls-37 {
        fill: #dfd2a8;
      }

      .cls-38 {
        fill: #bbd67e;
      }

      .cls-39 {
        fill: #af4d5d;
      }

      .cls-40 {
        fill: #b2cd6e;
      }

      .cls-41 {
        fill: #b0cc6e;
      }

      .cls-42 {
        fill: #cebdb3;
      }

      .cls-43 {
        fill: #cdbdb3;
      }

      .cls-44 {
        fill: #cdbd9d;
      }

      .cls-45 {
        fill: #b8d477;
      }

      .cls-46 {
        fill: #b5d372;
      }

      .cls-47 {
        fill: #9cccdf;
      }

      .cls-48 {
        fill: #c38f67;
      }

      .cls-49 {
        fill: #90c3d7;
      }

      .cls-50 {
        fill: #8ec6da;
      }

      .cls-51 {
        fill: #8fc7db;
      }

      .cls-52 {
        fill: #909090;
      }

      .cls-53 {
        fill: #917e74;
      }

      .cls-54 {
        fill: #c297a0;
      }

      .cls-55 {
        fill: #666;
      }

      .cls-56 {
        fill: #99190a;
      }

      .cls-57 {
        fill: #7fa18d;
      }

      .cls-58 {
        fill: #8ac3cc;
      }

      .cls-59 {
        fill: #a1af4d;
      }

      .cls-60 {
        fill: #ff921e;
      }

      .cls-61 {
        fill: #fdfdfd;
      }

      .cls-62 {
        fill: #ff71a3;
      }

      .cls-63 {
        fill: #feb900;
      }

      .cls-64 {
        fill: #80a490;
      }

      .cls-65 {
        fill: #80a28e;
      }

      .cls-66 {
        fill: #673606;
      }

      .cls-67 {
        fill: #81a591;
      }

      .cls-68 {
        fill: #81a490;
      }

      .cls-69 {
        fill: #f1f1f1;
      }

      .cls-70 {
        fill: #fffce4;
      }

      .cls-71 {
        fill: #e8eef0;
      }

      .cls-72 {
        fill: #fc8200;
      }

      .cls-73 {
        fill: #e2e2e2;
      }

      .cls-74 {
        fill: #fcfbfa;
      }

      .cls-75 {
        fill: #fd8200;
      }

      .cls-76 {
        fill: #fcfcfb;
      }

      .cls-77 {
        fill: #fcfcfd;
      }

      .cls-78 {
        fill: #fcfcfc;
      }

      .cls-79 {
        fill: #f5f4f4;
      }

      .cls-80 {
        fill: #e7e7e7;
      }

      .cls-81 {
        fill: #e6e6e6;
      }

      .cls-82 {
        fill: #f5f5f5;
      }

      .cls-83 {
        fill: #f4f4f4;
      }

      .cls-84 {
        fill: #f5a1ba;
      }

      .cls-85 {
        fill: #030302;
      }

      .cls-86 {
        fill: #010101;
      }

      .cls-87 {
        fill: #060503;
      }

      .cls-88 {
        fill: #060606;
      }

      .cls-89 {
        fill: #67a362;
      }

      .cls-90 {
        fill: #020202;
      }

      .cls-91 {
        fill: #68a664;
      }
    </style>
  </defs>
  <g id="lotus">
    <g>
      <rect class="cls-81" x="3.12" y="3.59" width="1259.09" height="716.41"/>
      <g id="tøj">
        <g>
          <g>
            <g>
              <ellipse class="cls-23" cx="981.28" cy="682.56" rx="34.79" ry="8.9"/>
              <path class="cls-23" d="m970.89,682.56h25.31c2.83,0,5.15-.9,5.15-2.01-18.08-35.52-23.51-65.35-22.92-81.1.55-14.44,3.59-26.29,3.59-26.29,1.58-6.14,4.13-13.87,5.15-16.96,1.45-4.4,2.75-8.04,3.68-10.6h5.35-25.31c-2.83,0-5.15.9-5.15,2.01,1.68,4.9,3.45,10.94,4.86,17.92,1.6,7.9,2.11,14,2.58,19.65.59,7.19.66,12.51.74,18.66.01,1.05.14,12.97-.37,23.04-1.12,22.06-5.79,44.54-7.81,53.68,0,.01,0,.02,5.15,2.01Z"/>
              <path class="cls-23" d="m936.37,475.23c11.45,10.72,17.17,16.07,17.49,19.65,1.47,16.78-56.71,26.08-55.04,38.02,1.3,9.34,38.46,14.47,65.9,14.7,35.58.29,82.02-7.43,83.39-19.65,1.65-14.67-62.52-28.34-58.54-42.82.26-.94,2.32-2.98,6.44-7.07,13.27-13.15,19.11-14.5,19.14-18.94.05-6.58-12.67-11.59-19.14-14.13-14.64-5.76-28.56-5.23-32.95-4.95-18.56,1.18-42.53,9.02-43.08,18.37-.23,3.89,3.78,5.02,16.38,16.82Z"/>
              <polyline class="cls-23" points="953.85 495.15 989.57 485.4 990.63 490.28"/>
              <path class="cls-23" d="m902.11,534.17c-.57,1.17,6.78,4.43,11.62,6.07,10.39,3.52,20.96,3.53,25.96,3.53,1.1,0,2.17-.02,4.42,0,6.8.06,11.83.36,13.95.48,5.34.3,21.13,1.19,21.22.69.13-.75-10.8-1.45-38.55-5.32-24.69-3.45-37.88-6.96-38.61-5.45Z"/>
              <ellipse class="cls-23" cx="1173.28" cy="684.54" rx="34.79" ry="8.9"/>
              <path class="cls-23" d="m1162.96,684.54h25.31c2.83,0,5.15-.9,5.15-2.01-18.08-35.52-23.51-65.35-22.92-81.1.55-14.44,3.59-26.29,3.59-26.29,1.58-6.14,4.13-13.87,5.15-16.96,1.45-4.4,2.75-8.04,3.68-10.6h5.35-25.31c-2.83,0-5.15.9-5.15,2.01,1.68,4.9,3.45,10.94,4.86,17.92,1.6,7.9,2.11,14,2.58,19.65.59,7.19.66,12.51.74,18.66.01,1.05.14,12.97-.37,23.04-1.12,22.06-5.79,44.54-7.81,53.68,0,.01,0,.02,5.15,2.01Z"/>
              <path class="cls-23" d="m1100.38,491.9s2.58,18.36-1.47,30.67c-.06.19-.31.93-.55,1.98-1.56,6.81.18,10.6.18,10.6.27.59.58,1.27,1.06,1.97.11.17.96,1.33,2.06,2.13,2.12,1.54,5.23,1.76,6.63,1.7,5.08-.22,8.58-4.91,9.94-6.78,11.33-15.62,5.15-41.76,5.15-41.76h0c-5.54-37.53,4.14-58.58-.18-59.15-5.95-.78-25.75,37.82-22.83,58.65Z"/>
              <path class="cls-23" d="m1102.04,534.11c.06,1.19,3.65,2.03,6.44,1.87,1.58-.09,4.5-.59,4.6-1.66.1-1.05-2.52-2.51-4.97-2.7-2.95-.23-6.14,1.34-6.07,2.49Z"/>
              <path class="cls-23" d="m1217.03,487.21c4.93,36.99,7.61,54.9,19.93,57.58.35.08,5.43,1.12,9.86-1.03,15.02-7.28,2.22-41.17-5.28-61.04-7.59-20.09-23.37-54.74-29.62-53.53-1.93.37-2.09,4.01,5.1,58.03Z"/>
              <path class="cls-23" d="m1246.99,538.5c-.51-1.41-5.09-1.64-8.36-.86-1.85.44-5.16,1.66-4.9,2.96.26,1.27,3.91,2.46,6.9,2.16,3.6-.35,6.84-2.91,6.36-4.26Z"/>
            </g>
            <path class="cls-23" d="m1175.67,503.85c-.2,10.25-2.58,17.37-6.63,29.47-6.68,19.98-13.64,40.79-22.64,40.99-14.24.32-25.93-51.14-29.27-70.46-4.78-27.68,2.96-16.2,5.34-61.83.1-1.84.32-6.37,3.68-7.63,6.79-2.55,22.09,9.85,30.56,19.22,17.92,19.83,19.13,41.51,18.96,50.24Z"/>
            <path class="cls-23" d="m1170.8,508.72c-8.61,36-11.88,44.5-3.68,51.37,9.14,7.66,26.23,8.03,29.09,8.06,4.88.05,17.4.17,25.22-5.37,8.95-6.34,3.97-14.59.18-54.06-2.41-25.12-2.49-43.66-5.34-50.67-.43-1.06-2.48-5.68-2.02-11.87.08-1.11.22-1.94.37-2.83,1.5-8.95,4.98-12.23,3.13-13.99-1.64-1.57-6.45-.92-9.57,0-11.1,3.28-15.5,14.28-17.49,19.5-14.94,39.2-19.88,59.85-19.88,59.85Z"/>
            <ellipse class="cls-23" cx="1149.81" cy="453.46" rx="9.09" ry="35.21" transform="translate(102.32 1109.56) rotate(-53.58)"/>
            <path class="cls-23" d="m1176.13,455.55c-6.62,17.57-12.86,37.88-6.58,40.16,3.05,1.11,8.07-2.39,10.53-4.11,11.92-8.31,10.23-16.81,17.37-30.23,9.92-18.64,26.7-26.22,21.2-32.3-.86-.95-4-3.53-8.61-4.17,0,0-2.85-.39-5.99.29-16.58,3.6-27.92,30.37-27.92,30.37Z"/>
          </g>
          <g>
            <g>
              <ellipse class="cls-52" cx="984.49" cy="679.28" rx="33.54" ry="8.58"/>
              <path class="cls-52" d="m974.47,679.28h24.4c2.73,0,4.96-.87,4.96-1.93-17.42-34.23-22.66-62.99-22.09-78.18.53-13.92,3.46-25.34,3.46-25.34,1.52-5.92,3.98-13.37,4.97-16.35,1.4-4.24,2.65-7.75,3.55-10.22h5.15-24.4c-2.73,0-4.96.87-4.96,1.93,1.62,4.72,3.33,10.54,4.69,17.28,1.54,7.62,2.04,13.5,2.48,18.94.57,6.93.64,12.05.71,17.98.01,1.01.14,12.51-.35,22.21-1.08,21.26-5.58,42.94-7.53,51.74,0,.01,0,.02,4.96,1.93Z"/>
              <path class="cls-62" d="m941.19,479.41c11.04,10.33,16.56,15.49,16.86,18.94,1.42,16.18-54.66,25.14-53.06,36.65,1.26,9.01,37.07,13.95,63.53,14.17,34.29.28,79.06-7.16,80.38-18.94,1.59-14.14-60.26-27.31-56.43-41.28.25-.9,2.24-2.87,6.21-6.81,12.79-12.68,18.42-13.97,18.45-18.26.05-6.34-12.21-11.17-18.45-13.62-14.11-5.55-27.53-5.04-31.76-4.77-17.89,1.14-40.99,8.7-41.52,17.71-.22,3.75,3.64,4.84,15.79,16.21Z"/>
              <polyline class="cls-30" points="958.05 498.62 992.47 489.22 993.5 493.92"/>
              <path class="cls-84" d="m908.17,536.23c-.55,1.13,6.54,4.27,11.2,5.85,10.02,3.39,20.2,3.4,25.02,3.41,1.06,0,2.09-.02,4.26,0,6.55.05,11.4.35,13.45.46,5.15.29,20.37,1.15,20.45.67.13-.73-10.41-1.39-37.16-5.13-23.8-3.32-36.51-6.71-37.22-5.26Z"/>
              <ellipse class="cls-52" cx="1169.56" cy="681.18" rx="33.54" ry="8.58"/>
              <path class="cls-52" d="m1159.61,681.18h24.4c2.73,0,4.96-.87,4.96-1.93-17.42-34.23-22.66-62.99-22.09-78.18.53-13.92,3.46-25.34,3.46-25.34,1.52-5.92,3.98-13.37,4.97-16.35,1.4-4.24,2.65-7.75,3.55-10.22h5.15-24.4c-2.73,0-4.96.87-4.96,1.93,1.62,4.72,3.33,10.54,4.69,17.28,1.54,7.62,2.04,13.5,2.48,18.94.57,6.93.64,12.05.71,17.98.01,1.01.14,12.51-.35,22.21-1.08,21.26-5.58,42.94-7.53,51.74,0,.01,0,.02,4.96,1.93Z"/>
              <path class="cls-20" d="m1099.29,495.49s2.49,17.7-1.42,29.56c-.06.18-.3.9-.53,1.91-1.5,6.56.18,10.22.18,10.22.26.57.56,1.22,1.03,1.9.11.16.93,1.28,1.99,2.05,2.05,1.49,5.04,1.69,6.39,1.63,4.89-.21,8.27-4.73,9.58-6.54,10.92-15.06,4.97-40.26,4.97-40.26h0c-5.34-36.17,3.99-56.47-.18-57.02-5.74-.75-24.82,36.45-22,56.54Z"/>
              <path class="cls-70" d="m1100.89,536.18c.06,1.15,3.52,1.95,6.21,1.8,1.52-.09,4.34-.57,4.44-1.6.09-1.01-2.43-2.42-4.79-2.6-2.84-.22-5.92,1.3-5.86,2.4Z"/>
              <path class="cls-20" d="m1211.74,490.96c4.75,35.66,7.34,52.92,19.21,55.51.34.07,5.23,1.08,9.51-1,14.48-7.02,2.14-39.69-5.09-58.84-7.31-19.37-22.53-52.77-28.55-51.6-1.86.36-2.02,3.86,4.92,55.94Z"/>
              <path class="cls-70" d="m1240.61,540.41c-.49-1.36-4.9-1.59-8.06-.83-1.78.43-4.98,1.6-4.72,2.85.25,1.23,3.77,2.37,6.66,2.09,3.47-.34,6.6-2.8,6.13-4.11Z"/>
            </g>
            <path class="cls-20" d="m1171.87,507c-.19,9.88-2.49,16.74-6.39,28.41-6.44,19.26-13.15,39.32-21.83,39.51-13.73.31-25-49.3-28.21-67.92-4.61-26.69,2.85-15.61,5.15-59.6.09-1.77.31-6.14,3.55-7.36,6.54-2.45,21.29,9.5,29.46,18.53,17.27,19.12,18.44,40.01,18.28,48.43Z"/>
            <path class="cls-20" d="m1167.17,511.7c-8.3,34.71-11.45,42.9-3.55,49.52,8.81,7.38,25.29,7.74,28.04,7.77,4.7.05,16.77.16,24.31-5.18,8.63-6.11,3.83-14.06.18-52.11-2.32-24.21-2.4-42.08-5.15-48.84-.42-1.03-2.39-5.48-1.95-11.44.08-1.07.21-1.87.35-2.72,1.45-8.62,4.8-11.79,3.02-13.49-1.59-1.51-6.21-.89-9.23,0-10.7,3.16-14.94,13.76-16.86,18.8-14.4,37.78-19.16,57.7-19.16,57.7Z"/>
            <ellipse class="cls-70" cx="1146.94" cy="458.43" rx="8.76" ry="33.94" transform="translate(97.15 1109.27) rotate(-53.58)"/>
            <path class="cls-70" d="m1172.3,460.45c-6.38,16.94-12.4,36.51-6.34,38.71,2.94,1.07,7.78-2.3,10.15-3.96,11.49-8.01,9.86-16.2,16.75-29.14,9.57-17.97,25.74-25.27,20.44-31.14-.83-.92-3.85-3.41-8.3-4.02,0,0-2.75-.38-5.78.28-15.98,3.47-26.92,29.27-26.92,29.27Z"/>
          </g>
        </g>
        <path class="cls-28" d="m1179.63,557.53c.06,1.17-11.29,3.51-23.31,2.35-10.8-1.04-20.3-4.72-19.93-5.82.12-.35,1.27-.56,22.6,1.19,19.65,1.61,20.63,1.94,20.64,2.28Z"/>
        <path class="cls-4" d="m1139.59,491.67l1.3,13.37c-8.19,28.96-10.64,37.09-10.81,37.07-.21-.03,3.22-12.65,7.8-33.59.47-2.17.87-4.04,1.19-5.5"/>
      </g>
      <g>
        <path class="cls-1" d="m1.87,704.32c4.17-.64,12.58-1.47,22.36.9,7.04,1.71,12.08,4.42,15.07,6.32,1.53-1.76,3.9-3.97,7.45-5.84,9.79-5.17,20.81-3.76,23.61-3.34,1.18.68,3.02,1.55,5.44,1.91,5.27.78,9.7-1.41,11.65-2.15,4.54-1.71,12.61-1.96,28.11,5.01,2.84-1.78,6.39-3.65,10.72-5.25,13.68-5.05,26.81-4.33,33.39-3.58-6.01-16.38-12.01-32.75-18.02-49.13,4.56-13.12,9.11-26.23,13.67-39.35,2.43-13.01,2.83-31.47-8.23-50.08-1.45-2.45-3.02-4.75-4.66-6.92,5.74-6.77,12.02-15.33,17.55-25.64,5.15-9.62,8.43-18.48,10.56-26,.1-1.09.15-2.2.16-3.34.05-10.5-4.02-19.5-8.7-26.47-.45-.85-.86-1.73-1.24-2.62-5.55-13.13-1.21-26.12,3.88-35.42-6.28-5.28-14.98-11.05-22.68-9.42-1.5.32-1.45.6-4.06,1.57-7.71,2.88-19.73,4.75-26.84.34-.77-.48-1.97-1.33-3.11-2.74-1.67,1.91-3.5,2.96-4.97,3.58-7.2,3.01-18.08.62-27.29-5.92-.7-.21-6.18-1.74-11.54.67-6.33,2.86-6.52,8.53-6.52,8.82-4.36-3.13-13.8-8.9-27.02-9.66-2.68-.15-5.18-.08-7.45.12-2.8.54-5.95,1.3-9.32,2.38-4.85,1.56-8.83,3.36-11.96,5.01"/>
        <path class="cls-3" d="m27.84,386.75v13.14c-1.57.28-3.75.81-6.05,1.9-1.51.71-2.69,1.48-3.57,2.15-.74.65-2.42,2.28-2.95,4.77-.57,2.64.48,4.71.93,5.49.81.81,1.87,1.72,3.26,2.62,2.45,1.59,4.91,2.48,6.68,2.98.99.14,2.52.26,4.35,0,2.39-.34,4.09-1.17,4.97-1.67"/>
        <path class="cls-3" d="m137.13,391.36v13.14c-1.57.28-3.75.81-6.05,1.9-1.51.71-2.69,1.48-3.57,2.15-.74.65-2.42,2.28-2.95,4.77-.57,2.64.48,4.71.93,5.49.81.81,1.87,1.72,3.26,2.62,2.45,1.59,4.91,2.48,6.68,2.98.99.14,2.52.26,4.35,0,2.39-.34,4.09-1.17,4.97-1.67"/>
        <path class="cls-3" d="m80.03,388.86v13.14c-1.57.28-3.75.81-6.05,1.9-1.51.71-2.69,1.48-3.57,2.15-.74.65-2.42,2.28-2.95,4.77-.57,2.64.48,4.71.93,5.49.81.81,1.87,1.72,3.26,2.62,2.45,1.59,4.91,2.48,6.68,2.98.99.14,2.52.26,4.35,0,2.39-.34,4.09-1.17,4.97-1.67"/>
        <polygon class="cls-2" points="208.97 358.39 224.52 683.15 189.95 701.9 189.95 683.15 181.02 392.85 208.97 358.39"/>
        <polyline class="cls-2" points="1.87 386.74 181.02 392.85 208.97 358.39 1.87 351.5"/>
      </g>
      <path class="cls-4" d="m6.53,93.41q-5.75-.25-5.75-4.94c0-28.41.05-56.81-.08-85.22C.68.65,1.46.02,4.85.02c212.59.07,425.19-.16,637.78.13,205.95.28,411.9.03,617.85.19q5.59,0,5.59,4.49c0,23.9-.12,47.8.13,71.7.04,3.58-1.27,5.12-5.74,5.1-.86.45-1.74.86-2.75,1.05-15.3,2.24-30.74,3.47-46.29,4.12-5.53.23-11.05.48-16.6.57-13.81.21-27.57-.48-41.3-1.36-3.21-.21-4.94.69-6.48,2.74-4.55,6.08-9.26,12.08-13.97,18.08-1.18,1.5-2.24,3.23-5.2,2.59,0,.61.39.93.61,1.3,3.01,5.05.32,9.23-6.86,9.79-13.46,1.06-25.46-1.79-35.48-9-2.97-2.14-5.22-4.71-3.89-8.08,1.3-3.3,5.13-4.03,8.86-4.77.64-.13,1.31-.04,1.95-.23-4.3-1.05-4.74-1.86-2.46-4.78,3.01-3.86,6.09-7.68,9.13-11.52,2.05-2.59,2.02-2.66-1.84-3.4-18.54-3.6-36.66-8.18-54.33-13.82-38.34-12.25-73.25-28.86-105.07-49.43-4.05-2.62-8.06-5.27-11.9-8.07-1.89-1.38-2.87-1.5-4.04.51-10.28,17.62-24.74,32.93-43,46.06-10.86,7.81-22.82,14.46-36.2,19.5-4.99,1.88-4.87,1.89-2.72,5.85,1.84,3.39,3.98,6.66,6.09,9.94.73,1.13,1.54,2.23,2.01,3.43.86,2.2,1.11,4.39,4.82,5.44,2.45.69,2.97,3.1,1.94,5.24-.98,2.02-2.65,3.68-4.83,4.96-6.3,3.72-13.38,5.94-21.36,6.04-8.22.1-10.75-1.82-10.87-8.21-4.33,1.29-6.12-.76-7.59-3.39-2.74-4.91-5.91-9.66-8.84-14.5-1.47-2.42-3.28-3.21-6.67-2.68-7.84,1.23-15.87,1.67-23.79,1.62-12.29-.07-24.56-1.06-36.58-3.34-27.1-5.13-51.52-14.53-73.64-27.63-2.69-1.59-5.36-3.22-7.79-5.03-2.3-1.71-3.89-1.45-6.16.1-15.6,10.67-32.78,19.58-51.43,26.72-24.14,9.25-49.63,15.06-76.52,16.69-8.71.53-17.49,1.64-26.28.25-3.08-.49-5.06.71-6.6,2.74-4.68,6.14-9.4,12.26-14.21,18.33-1.07,1.35-2.1,2.84-4.8,1.99-.35.6.38.87.62,1.24,3.13,4.82.38,9.42-6.55,9.99-13.44,1.11-25.47-1.72-35.53-8.87-3.18-2.26-5.66-4.99-3.98-8.61,1.33-2.87,5.87-4.46,11.42-4.31-5.14-1.24-5.56-1.94-2.87-5.44,2.77-3.6,5.63-7.16,8.48-10.73,2.38-2.97,2.3-3.27-1.89-4.37-24.12-6.33-45.81-16.04-65.57-28.39-21.03-13.14-38.8-28.55-53.27-46.23-2.29-2.8-2.77-2.91-6.26-.88-25.29,14.7-52.14,27.47-80.24,38.62-11.43,4.54-23.18,8.6-35.06,12.42-4.32,1.39-4.38,1.51-2.19,4.73,4.61,6.77,9.22,13.53,13.54,20.42,1.34,2.13,1.62,3.84-2.04,4.56-.2.19-.09.28.3.3,10.34.51,12.85,8.08,6.39,13.38-9.21,7.55-20.87,11.28-34.38,10.09-9.26-.81-11.85-6.42-6.41-12.62-.1-.09-.27,0-.59.09-10.17,3.24-8.99,3.39-14.42-3.55-4.91-6.28-9.67-12.62-14.43-18.96-1.77-2.36-3.72-2.8-6.98-2.07-27.37,6.1-55.28,10.19-83.54,12.74-14.76,1.33-29.6,2.02-44.47,2.31-.41-.1-.77-.26-1.07-.5Z"/>
      <path class="cls-56" d="m446.63,86.62c-38.45-8.87-70.49-25.6-97.79-48.06-11.33-9.32-21.46-19.41-29.85-30.47-1.69-2.22-2.77-2.36-5.42-.81-38.98,22.93-81.09,41.6-126.68,55.48-.69,1-1.93,1.42-3.19,1.82-11.9,3.75-24.19,6.63-36.36,9.77-1.16.3-2.35.5-3.58.21-11.92,2.24-23.66,5-35.66,7.03-19.79,3.35-39.72,5.87-59.86,7.58-13.44,1.14-26.93,1.55-40.39,2.34-3.65.22-4.79-.54-4.78-3.52.15-27.57.16-55.14,0-82.71-.02-3.09,1.1-3.76,4.95-3.76,107.73.08,215.46.07,323.19.07,195.29,0,390.58,0,585.88,0h5.61c-18.78,32.63-46.66,57.71-88.63,72.51-.68.65-1.41,1.25-2.44,1.58-8.22,2.61-16.67,4.66-25.24,6.44-1.05.22-2.13.21-3.18-.08-10.39,1.3-20.8,2.56-31.36,2.52-34.23-.15-65.24-8.42-93.93-22.48-8.81-4.32-17.15-9.16-24.79-14.66-2-1.44-3.23-1.61-5.47,0-23.7,17.07-51.09,29.36-81.74,37.3-16.18,4.19-32.81,6.6-49.87,7.63-10.71.65-21.33.07-31.98-.12-2.36.91-4.81.31-7.11,0-8.48-1.14-17.01-2.08-25.37-3.72-1.81-.36-3.72-.61-4.96-1.88Z"/>
      <path class="cls-56" d="m1106.77,77.8c-49.13-8.48-94.34-23.94-135.81-45.96-16.8-8.92-32.76-18.67-47.62-29.76,1.7-.76,3.06-.46,4.35-.46,110.02-.02,220.04,0,330.06-.09,4.12,0,5.12.78,5.09,3.95-.19,23.58-.13,47.17-.06,70.75,0,2.16-.38,3.23-3.7,3.66-14.92,1.93-29.88,3.45-44.99,4.16-5.94.28-11.87.52-17.81.61-20.15.31-40.18-.74-60.17-2.59-8.98.31-17.53-1.71-26.23-2.92-1.21-.17-2.35-.5-3.1-1.33Z"/>
      <path class="cls-21" d="m143.77,74.57c11.12-2.97,22.25-5.92,33.35-8.92,3.29-.89,6.52-1.92,9.77-2.88,1.21.67,2.19,1.44,2.89,2.51,4.74,7.26,9.51,14.52,14.43,21.72,1.31,1.92,1.11,2.93-1.61,3.78-11.97,3.74-23.91,7.52-35.79,11.42-2.34.77-3.56.59-4.88-1.15-5.95-7.8-12.05-15.53-18.13-23.27-.86-1.1-1-2.13-.03-3.2Z"/>
      <path class="cls-21" d="m1107.67,77.8c9.78,1.42,19.55,2.83,29.33,4.25-.13.02-.29.02-.39.08-.17.11-.31.25-.46.38,2.59.36,5.18.71,7.77,1.08,2.04.29,2.63.85,1.34,2.47-4.94,6.21-9.76,12.48-14.45,18.82-1.22,1.65-2.42,1.88-4.56,1.21-10.36-3.22-20.77-6.36-31.16-9.52-1.23-.37-2.42-.77-1.38-2,4.72-5.55,8.62-11.52,13.94-16.78Z"/>
      <path class="cls-21" d="m446.63,86.62c12.31,2.56,24.9,3.97,37.43,5.61,1.17.61,2.41.93,1.15,2.49-4.93,6.1-9.65,12.3-14.35,18.5-1.35,1.79-2.77,2.44-5.49,1.57-9.83-3.15-19.69-6.26-29.65-9.14-3.13-.9-2.86-1.82-1.41-3.6,4.18-5.11,8.22-10.29,12.32-15.44Z"/>
      <path class="cls-21" d="m803.2,82.04c10.44-2.3,20.82-4.73,30.87-7.94,3.61,6.18,7.09,12.4,10.9,18.5,1.21,1.93.78,2.59-1.7,3.29-8.09,2.28-16.15,4.65-24.12,7.16-2.79.88-4.03.71-5.3-1.68-3.03-5.69-7.31-10.95-10.27-16.69-.45-.88-1.14-1.68-.37-2.64Z"/>
      <path class="cls-60" d="m829.57,111.82c-1.71-.1-2.8-.08-3.86-.23-4.21-.59-5.5-2.95-2.57-5.37,6.76-5.59,15.25-8.12,25.1-7.23,4.86.44,5.81,2.85,2.41,5.63-5.86,4.8-13.39,6.74-21.08,7.19Z"/>
      <path class="cls-75" d="m183.22,113.72c-3.91-.29-8.66.32-10.45-3.3-1.67-3.37,1.66-5.73,4.56-7.74,6.97-4.83,15.33-7.25,24.57-7.93,2.45-.18,4.86.1,7.18.72,3.87,1.03,5.12,3.29,3.41,6.2-1.2,2.04-3.19,3.63-5.43,5-6.98,4.25-14.89,6.62-23.84,7.06Z"/>
      <path class="cls-72" d="m1095.63,102.98c10.23.76,19.72,3.04,27.48,8.63,2.19,1.58,4.43,3.4,3.27,5.96-1.05,2.31-4.14,2.65-6.76,2.75-12.26.49-23.12-2.43-31.87-9.13-4.86-3.72-3.35-6.76,3.36-7.86,1.44-.24,2.94-.24,4.51-.36Z"/>
      <path class="cls-72" d="m434.95,109.79c10.64.61,20.39,2.95,28.3,8.82,2,1.49,3.84,3.23,2.89,5.51-.91,2.21-3.7,2.63-6.27,2.79-11.93.74-22.31-2.27-31.34-8.16-2.23-1.46-4.72-3.39-3.5-5.92,1.25-2.6,4.81-2.71,7.89-3.04.66-.07,1.35-.01,2.03-.01Z"/>
      <path class="cls-63" d="m198.24,97.86c1.08,0,2.18-.09,3.24.02,2.43.26,4.46,1.24,5.36,2.97.87,1.67-.65,2.97-2.06,4.14-5.11,4.24-11.61,5.95-18.89,6.01-2.92.02-5.87-.68-6.98-3.02-1.08-2.3.88-4.03,3.02-5.4,4.71-3.02,10.09-4.77,16.3-4.72Z"/>
      <path class="cls-63" d="m844.86,106.08c-3.96,3.31-8.48,5.76-14.71,5.19-2.71-.25-3.37-1.6-2.87-3.51,1.15-4.36,10.96-9.03,17.55-8.25,2.51.3,3.56,2.59,2.18,4.48-.56.77-1.43,1.4-2.16,2.09Z"/>
      <path class="cls-63" d="m441.32,112.27c5.92.51,11.66,1.41,16.34,4.63,3.71,2.56,3.12,5.59-1.44,7.1-6.84,2.27-19.55-.38-24.01-5-1.83-1.89-1.34-4.22,1.31-5.35,2.39-1.03,4.99-1.59,7.81-1.38Z"/>
      <path class="cls-63" d="m1111.49,118.12c-7.47-.37-14.28-1.87-18.59-7.12-1.88-2.28-.68-3.88,2.19-5.03,6.54-2.63,20.49,1.14,24.83,6.83,1.65,2.16-.44,4.82-3.99,5.29-1.44.19-2.96.03-4.44.03Z"/>
      <g id="kunden">
        <path class="cls-10" d="m357.38,403.51c-3.82,0-3.82-5.76,0-5.76s3.82,5.76,0,5.76Zm47.81,10.51c-3.82,0-3.82-5.76,0-5.76s3.82,5.76,0,5.76Z"/>
        <path class="cls-4" d="m452.29,489.79c-.36-7.9-2.45-15.31-6.54-22.17-1.25-2.1-2.55-4.19-3.5-6.43-5.47-12.88-10.73-25.84-15.68-38.92-1.06-2.81-1.4-5.79-1.16-8.76.42-5.25,1.1-10.48,1.5-15.72.41-5.26.56-10.59-1.34-15.62-1.45-3.83-3.44-7.46-5.21-11.17-.14-.3-.36-.57-.58-.83-2.62-3.01-5.39-5.86-8.29-8.61-4.72-4.47-10.68-6.4-16.86-7.88-1.63-.39-3.33.13-5.02,0-4.69-.37-9.18-1.54-13.63-2.94-4.58-1.44-9.16-2.97-14.08-2.69-3.1.17-6.18.56-9.28.78-2.08.15-4.13.47-6,1.34-4.2,1.96-8.55,3.57-12.82,5.35-7.69,3.21-14.38,7.76-19.55,14.2-3.82,4.76-6.58,10.14-9.33,15.53-2.12,4.16-3.08,8.51-3.06,13.13.06,14.01.08,28.01.12,42.02,0,1.46-.24,2.86-.73,4.22-2.39,6.51-5.56,12.61-9.88,18.13-1.63,2.09-3.51,4-4.7,6.42-3.97,8.08-7.72,16.25-11.15,24.56-.31.74-.55,1.49-.54,2.32,0,2.83-.06,5.66-.06,8.49,0,8.5,1.48,16.54,7.75,23.06.97,1.01,1.83,2.14,2.76,3.19,7.04,7.96,14.5,15.42,24.49,19.98.78.36,1.67.58,2.03-.04.45-.78-.2-1.36-1.06-1.85-2.92-1.66-6.05-3-8.72-5.04-6.41-4.88-11.9-10.65-17.05-16.74-2.67-3.16-5.19-6.27-6.26-10.49-1.99-7.85-2.72-15.66-.57-23.52,1.18-4.33,3.5-8.26,5.3-12.38,3.05-7.01,6.55-13.78,11.57-19.71,1.28-1.51,2.66-2.97,3.46-4.81,1.44-3.33,2.94-6.64,4.2-10.03,2.21-5.95,3.42-12.21,5.91-18.07.62-1.47.34-2.57-1.08-3.52-1.04,2.96-2.06,5.9-3.09,8.83-.16-.02-.32-.04-.49-.07,0-12.13.06-24.27-.04-36.4-.02-2.75.44-5.3,1.6-7.77,1.24-2.64,2.46-5.29,3.77-7.9,5.63-11.22,14.06-19.6,26.13-24.29,4.46-1.73,8.91-3.49,13.34-5.29,1.24-.5,2.47-.84,3.83-.89,2.61-.09,5.22-.4,7.83-.44,2.21-.03,4.44-.51,6.63.1,5.51,1.54,10.99,3.15,16.51,4.65.9.24,1.34.66,1.56,1.46.77,2.85,1.53,5.71,2.34,8.55.23.82.08,1.45-.54,2.08-1.7,1.74-3.39,3.49-4.99,5.31-1.15,1.31-2.52,2.22-4.13,2.91-6.45,2.78-13.12,5.01-19.71,7.44-4.26,1.57-8.75,2.6-12.74,4.77-4.46,2.43-8.8,5.04-13.2,7.57-.77.44-1.47.98-2.05,1.63-6.27,7.05-11.69,14.65-16.06,22.96-.38.72-.81,1.46-.86,2.27-.24,3.97-.44,7.94-.66,11.92-.05.89.3,1.83,1.12,1.92.95.1,1.06-.97,1.12-1.69.19-2.2.59-4.43.36-6.59-.61-5.67,2.69-9.82,5.34-14.37.42.6.17,1.13.17,1.62,0,1.1.24,2.17,1.17,2.83,2.55,1.83,4.19,4.25,5.3,7.08.31.8.81,1.52,1.25,2.27,1.89,3.26,4.37,6.13,6.68,9.1.35.45.69.81.34,1.5-1.64,3.2-2.76,6.61-4.03,9.96-4.26,11.24-9.38,22.19-11.89,34.01-.21.96-.69,2.44.31,2.68,1.27.3,1.62-1.2,1.9-2.27.02-.09.02-.19.04-.28.76-2.95,1.39-5.95,2.33-8.85,2.3-7.08,5.25-13.93,7.93-20.88,1.56-4.05,3.21-8.07,4.75-12.13.4-1.05.68-.75,1.18-.14.76.91.38,1.81.04,2.71-1.68,4.41-3.37,8.82-5.09,13.22-.44,1.11.05,1.88.99,2.18.91.28.78-.73.97-1.22,1.83-4.69,3.62-9.4,5.47-14.21.49.36.88.63,1.25.94,4.11,3.37,8.16,6.81,12.34,10.1,1.8,1.42,3.13,2.98,3.28,5.31-.4.04-.84.1-1.28.13-2.36.15-3.73,1.37-4.38,3.56-.43,1.46-1.06,2.86-1.66,4.27-.17.4-.22.9-.88,1.02-1.7.31-3.16,1.27-4.8,1.76-.7.21-1.18.69-1.52,1.3-2.26,4.12-4.52,8.24-6.76,12.38-.46.85-.48,1.77.46,2.26.96.49.78,1.17.71,1.94-.54,5.58-1.13,11.15-1.38,16.75-.16,3.68-1.33,6.86-4.09,9.52-4.94,4.75-8.68,10.19-10.84,16.74-2.5,7.56-5.26,15.05-9.09,22.11-.57,1.05-.82,2.12-.87,3.29-.15,3.5-.26,7-.55,10.48-.31,3.69-.05,7.2,2,10.48,1.06,1.7,1.76,3.61,2.63,5.42.52,1.09,1.52,1.1,2.53.98,1.06-.13.99-.93,1.13-1.72.3-1.77.16-3.59.67-5.32,4.71,1.62,9.39,3.18,14.03,4.82,3.7,1.31,3.12.63,3.01,4.3-.12,3.81.47,7.31,3.07,10.34.71.82,1.55,1.79,1.38,2.94-.31,2.08.52,4.11-.64,6.3-1.4,2.65-2.32,5.63-2.02,8.82.45,4.72.6,9.47,1.03,14.19.24,2.6.11,5.27,1.11,7.79,1.78,4.48,3.47,8.99,5.25,13.47.77,1.94,1.05,3.91,1.08,6,.09,5.93-2.79,10.82-5.45,15.81-.28.53-.78.85-1.25,1.2-4.36,3.21-8.76,6.37-13.07,9.64-1.7,1.29-3.53,2.17-5.58,2.77-3.75,1.1-7.47,2.3-11.19,3.48-2.3.73-2.59,1.37-1.58,3.45,2.2,4.52,4.45,9.02,6.6,13.56.78,1.64,1.86,2.32,3.78,2.26,8.74-.28,17.48-.45,26.22-.64,2.68-.06,3.33-.32,4-2.87,1.21-4.61,4.5-7.78,7.82-11.12.22,3.79.22,7.56.22,11.33,0,2.24.43,2.64,2.79,2.62,1.83-.01,3.66,0,5.48,0,2.1,0,2.64-.5,2.64-2.52,0-1.6,0-3.2,0-5.22,1.4,2.28,2.6,4.17,3.74,6.1.68,1.16,1.65,1.66,3.02,1.66,11.41-.02,22.82-.02,34.24,0,1.37,0,2.29-.49,2.92-1.73,1.45-2.86,2.99-5.67,4.54-8.48.9-1.63,1.37-3.36,1.58-5.17.3-2.54-.36-3.41-2.95-3.81-3.93-.6-7.87-1.19-11.8-1.77-.92-.14-1.66-.53-2.25-1.24-8.8-10.52-17.6-21.05-26.41-31.56-.69-.83-1.02-1.72-.95-2.77.43-5.92.85-11.85,1.27-17.78.36-5.04,1.4-10.05.24-15.14-.75-3.3-1.19-6.67-1.79-10.01-.22-1.21-1.04-1.84-2.22-1.42-.87.31-1.11-.05-1.5-.59-1.47-2.04-2.93-4.08-4.48-6.06-1.63-2.09-1.73-4.11-.25-6.34,1.89-2.85,3.65-5.78,5.43-8.69.75-1.22,1.7-1.94,3.24-1.77.68.08,1.4.08,2.07-.03,7.26-1.21,14.52-2.45,21.78-3.69,1.55-.27,1.9-.91,1.19-2.28-1.09-2.14-2.17-4.28-3.38-6.36-.51-.88-.41-1.32.41-1.93,4.51-3.33,9-6.7,13.46-10.09,9.25-7.04,18.49-14.06,25.81-23.16,4.77-5.93,9.41-11.91,12.35-18.93,2.33-5.55,4.36-11.21,5.04-17.24.33-2.93.02-5.84-.11-8.76Zm-94.9-86.28c-3.82,0-3.82-5.76,0-5.76s3.82,5.76,0,5.76Zm47.81,10.51c-3.82,0-3.82-5.76,0-5.76s3.82,5.76,0,5.76Z"/>
        <path class="cls-66" d="m424.88,394.07c.08,4.61-.48,9.19-1.16,13.73-.95,6.34-.39,12.38,2.05,18.44,4.95,12.27,9.56,24.67,15.15,36.7,1.7,3.67,4.26,6.91,5.59,10.73,1.91,5.48,3.51,10.96,3.84,16.85.8,14.42-4.87,26.56-13.14,37.96-7.34,10.11-16.67,18.24-26.68,25.73-5.27,3.95-10.52,7.93-15.73,11.95-.9.69-1.21.57-1.7-.39-3.42-6.61-6.89-13.2-10.39-19.77-.73-1.37-.79-2.67-.36-4.14.37-1.27,1.19-1.67,2.38-1.58,2.31.17,4.62.34,6.92.61,1.55.18,2.51-.43,3.28-1.67,7.73-12.55,15.48-25.09,23.23-37.64,1-1.62,1.09-3.46,1.37-5.25.11-.73-.47-1.23-.9-1.74-5.9-6.95-11.78-13.91-17.71-20.83-.74-.86-1.05-1.49-.15-2.41.93-.94.71-1.91-.26-2.75-2.91-2.52-5.82-5.04-8.74-7.54-.83-.71-1.83-1.16-2.96-1.16-2.36,0-4.66-.61-7.08-.29-.76.1-1.49-1.4-2-2.29-.36-.63.56-.77.96-1.01,6.93-4.31,13.89-8.58,20.81-12.91.91-.57,1.19-.34,1.56.49,4.62,10.47,9.27,20.93,13.91,31.4.14.31.23.64.4.92.33.53.77,1.19,1.46.85.74-.36.79-1.07.43-1.86-2.12-4.66-4.21-9.34-6.29-14.01-2.72-6.13-5.39-12.28-8.18-18.39-.47-1.02-.27-1.55.57-2.11,2.84-1.92,4.95-4.43,6.73-7.33,1.97-3.2,2.17-6.7,2.55-10.21.61-5.62,1.55-11.18,2.68-16.72,2.02-9.86.33-16.91-8.77-22.71-2.99-1.9-5.55-4.3-8-6.81-2.78-2.85-5.55-5.72-8.33-8.58-1.59-1.64-2.67-3.51-3.16-5.74-.42-1.91-.95-3.81-1.55-5.68-.38-1.18.01-1.4,1.16-1.46,4.18-.21,8.05.97,11.98,2.13,6.77,1.99,10.96,7.06,15.58,11.66,1.68,1.67,2.87,3.62,3.68,5.82.59,1.63,1.44,3.13,2.33,4.62,2.01,3.38,2.46,7.13,2.65,10.93.06,1.15,0,2.3,0,3.45Z"/>
        <path class="cls-28" d="m412.98,418.9c-.39,3.61-.49,7.03-1.38,10.3-1.25,4.61-4.53,7.89-8.42,10.6-5.93,4.13-12.23,7.71-18.35,11.56-2.36,1.48-4.72,2.95-7.12,4.37-6.22,3.71-13.69,3.39-18.64-.74-4.05-3.37-7.97-6.9-12.2-10.04-7.02-5.19-11.76-12.18-16.61-19.09-.66-.94-1.12-2.02-1.57-3.08-.96-2.25-2.31-4.24-4.29-5.75-.93-.71-1.33-1.52-1.5-2.64-.49-3.35.37-6.29,2.71-8.76,1.21-1.27,2.33-2.58,3.32-4.03,1.47-2.15,3.5-3.75,5.8-5.26,2.54,3.55,5.08,7.1,7.62,10.64.84,1.18,1.71,2.34,2.55,3.52,2.02,2.85,4.84,4.49,8.35,4.77,5.11.41,10.24.62,15.37.92,1.29.08,1.84-.41,1.89-1.74.19-5.07-.76-9.78-4.06-13.88-2.77-3.44-6.53-5.52-10.77-6.27-2.99-.53-6.19,0-9.29.2-2.96.18-5.93.03-8.92.33,3.08-1.93,6.04-4.03,9.42-5.42,3.26-1.34,6.57-2.55,9.84-3.85.79-.31,1.46-.25,2.22.15,2.58,1.38,5.25,2.6,7.77,4.08,1.38.81,2.48.51,3.94-.15-3.4-1.79-6.63-3.49-10.12-5.32,1.22-.45,2.18-.85,3.18-1.17,5.69-1.85,11.16-4.25,16.69-6.49,1.3-.53,2.11-1.55,3-2.49,1.68-1.75,3.36-3.52,4.95-5.35.63-.73.94-.62,1.54.01,3.32,3.48,6.71,6.9,10.03,10.39,2.9,3.05,6.21,5.63,9.78,7.86,2.57,1.61,3.94,3.91,5.02,6.75-4.27-1.25-8.07.68-12.05,1.12-.84.09-.41.82-.41,1.29,0,.73.44.84,1.09.71,2.07-.44,4.13-.89,6.21-1.29,1.66-.32,3.32-.42,4.94.25.97.4,1.43.96,1.37,2.07-.11,2.1-.03,4.22-.04,6.33,0,.58-.01,1.16.44,1.66-2.91.91-5.82.9-8.76.64-2.46-.22-4.93-.39-7.37.15-3.04.67-5.56,2.21-7.56,4.5-2.04,2.34-3.94,4.79-5.97,7.14-.39.45-.23.83-.19,1.24.07.62.6.32.89.31,1.8-.12,3.39.39,4.9,1.3,2.54,1.52,5.44,1.57,8.28,1.84,1.23.11,2.46.22,3.69.25,1.98.05,3.83-.41,5.41-1.61,1.08-.82,2.09-1.72,3.4-2.81Z"/>
        <path class="cls-44" d="m356.43,580.23c-5.78,0-11.56,0-17.34,0-.95,0-1.87-.11-2.76-.42-4.76-1.67-9.51-3.36-14.28-4.99-.89-.31-1.23-.56-.8-1.57,1.82-4.18,3.53-8.4,5.29-12.6.25-.6.42-1.54,1.13-.24.27.49.79.52,1.29.52,2.57.02,5.14.05,7.71.03,1.15,0,1.84-.49,1.79-1.76-.18-4.79-.33-9.58-.46-14.38-.04-1.33-.68-1.9-2.02-1.88-1.83.03-3.66-.02-5.48.04-.8.03-1.01-.25-1.01-.97,0-1.52.3-2.96,1.16-4.23,1.38-2.04,2.84-4.03,4.17-6.1.6-.95,1.11-.41,1.68-.12,4.13,2.13,8.3,4.2,12.36,6.44,2.29,1.26,4.6,1.39,7.12,1.05,5.37-.72,10.77-1.26,16.15-1.96,1.45-.19,1.72.33,1.48,1.51-.09.42-.16.85-.22,1.28-.26,1.79.31,2.94,2.09,3.46,3.46,1.01,5.48,3.36,6.94,6.4,2.81,5.84,5.94,11.54,9.05,17.23.47.87.59,1.43-.53,1.89-.76.31-1.34,1.08-.84,1.86.54.83,1.34.3,1.92-.14.97-.73,1.33-.62,1.75.59.55,1.57,1.45,3.03,2.26,4.51.38.69.35.98-.52,1.13-6.75,1.1-13.48,2.37-20.26,3.29-2.96.4-6.02.12-9.03.13-3.26.01-6.52,0-9.78,0h0Z"/>
        <path class="cls-55" d="m414.94,689.55c-1.97,2.32-3.74,4.37-5.46,6.46-.37.45-.8.47-1.3.47-9.63,0-19.26,0-28.89.04-.88,0-1.5-.33-2.06-.91-5.48-5.72-10.95-11.45-16.45-17.15-.77-.8-1-1.67-1-2.73.04-7.14-.11-14.29.09-21.43.19-6.82-1.45-13.28-3.47-19.71-1.69-5.39-3.2-10.83-4.85-16.23-.52-1.7-.12-3.27.53-5.3.59,3.03,2.73,2.94,4.84,2.98.98.02,1.98.12,2.93.34,1.75.41,3.05-.22,4.27-1.36,2.46-2.29,4.96-4.53,7.4-6.75.4,2.3.71,4.95,1.34,7.52,1.53,6.28.21,12.5-.17,18.74-.31,5.02-.86,10.02-1.09,15.05-.09,1.99.56,3.63,1.83,5.14,8.54,10.17,17.07,20.35,25.56,30.56,1.45,1.75,3.36,2.36,5.52,2.66,3.39.47,6.77,1.04,10.43,1.61Z"/>
        <path class="cls-55" d="m340.29,612.78c3.3,1.2,6.51,1.89,9.82-.64-1.68,4.25-.22,7.94.86,11.65,2.11,7.21,4.26,14.41,6.38,21.62.3,1.02.39,2.06.38,3.13-.02,8.1.05,16.21-.03,24.31-.04,4.05.46,8.03,1.1,12,.19,1.18,0,2.08-.84,3.01-2.55,2.8-5.01,5.67-7.45,8.56-.63.74-1.3,1.03-2.28,1-11.25-.32-22.51-.62-33.76-.89-.86-.02-1.33-.29-1.67-1.07-.62-1.45-1.3-2.89-2.06-4.28-.44-.8-.34-1.09.59-1.36,2.59-.75,5.11-1.76,7.73-2.4,4.44-1.09,8.26-3.16,11.78-5.96,3.4-2.7,6.96-5.2,10.48-7.74.94-.68,1.65-1.48,2.14-2.51,1.4-2.9,2.97-5.73,4.17-8.7,1.39-3.46,1.34-7.12.75-10.76-.59-3.63-2.05-6.99-3.57-10.31-2.29-5.01-3.54-10.18-3.68-15.67-.1-4.02-.55-8.03-.84-12.04-.02-.28,0-.55,0-.94Z"/>
        <path class="cls-29" d="m377.12,517c-5.06-2.94-9.99-5.92-15.05-8.67-2.47-1.34-4.18-2.58-4-5.85.18-3.25-1.68-6.22-2.94-9.23-1.99-4.76-3.99-9.5-6.27-14.2v11.29c-.61.24-.86-.15-1.16-.34-2.94-1.83-5.86-3.69-8.82-5.49-.68-.41-.82-.74-.42-1.46,1.97-3.52,3.88-7.08,5.83-10.61.58-1.04.9-1.19,4.31-2.32-1.08,2.77-2.1,5.4-3.25,8.36,2.38-1.25,4.52-2.22,6.46-3.46,1.4-.89,2.33-.62,3.31.45,2.39,2.63,4.38,5.55,6.56,8.32,2.12,2.7,4.17,5.45,6.26,8.18.23.31.46.65.77.86.74.51,1.35.82,1.76-.48,1.92-6.16,3.93-12.3,5.9-18.44.07-.23.15-.45.22-.68,1.27-3.6,1.68-3.84,5.47-3.23,2.51.41,5.03.81,7.76,1.25-1.44-3.84-4.64-6.31-6.61-9.65,2.73.23,5.55-.39,7.83,1.54,2.6,2.21,5.16,4.45,7.76,6.66.34.29.31.41.06.74-2.09,2.79-4.16,5.59-6.19,8.41-.46.64-.73.5-1.24.07-1.45-1.21-2.95-2.36-4.65-3.72,0,3.96-.05,7.66.02,11.37.04,2.3.24,4.59.38,6.89.04.59-.06,1.13-.33,1.67-3.53,7.05-6.65,14.28-9.74,21.75Z"/>
        <path class="cls-66" d="m388.54,479.42c1.07.83,1.9,1.49,2.75,2.12.49.36.99.87,1.67.28.32-.27.44-.08.64.22,3.21,4.71,7,9,10.4,13.58.18.24.83.37.28.86-2.06,1.85-2.07,4.48-2.68,6.85-.93,3.61-1.67,7.27-2.48,10.91-.26,1.15-.88,2.12-1.56,3.07-2.99,4.16-6,8.3-8.97,12.47-.48.67-.81.96-1.67.43-2.53-1.57-5.44-1.97-8.35-2.11-1.54-.08-1.76-.65-1.52-1.99,1.31-7.43,4.25-14.3,7.46-21.08,1.29-2.73,2.57-5.47,3.93-8.17,1.1-2.2.7-4.51.62-6.79-.12-3.45-.34-6.89-.53-10.64Z"/>
        <path class="cls-28" d="m321.6,565.59c-.62-2.38-1.24-4.76-1.9-7.29-1.56,2.26-1.49,4.72-1.71,7.11-.43,4.67-.85,9.35-1.28,14.02-.02.18-.1.36-.18.64-3.25-4.74-4.81-9.77-4.01-15.37.06-.43.18-.86.13-1.28-.56-4.99.96-9.56,2.97-14.03,3.54-7.87,6.5-15.96,9.49-24.04.49-1.32,1.14-2.56,2.11-3.59,2.47-2.61,4.6-5.5,7.24-7.97,2.53-2.37,3.11-5.57,3.38-8.82.49-5.86.98-11.72,1.48-17.75,2.59,1.61,5,3.15,7.46,4.63.59.35.43.68.32,1.18-1.34,6.56-3.13,13.04-4.07,19.68-.3,2.11-.95,4.18-.79,6.35.03.35-.16.53-.37.73-5.28,5.12-9.15,11.25-13.22,17.24-1.3,1.92-2.67,3.79-4.03,5.67-1.51,2.1-3.03,4.19-4.57,6.27-.6.82-.89,1.69-.17,2.5,2.32,2.59,2.92,5.51,2.27,8.84-.33,1.71-.3,3.49-.43,5.24-.05.01-.09.03-.14.04Z"/>
        <path class="cls-28" d="m380.04,543.15c-1.36-.63-2.6-1.22-3.85-1.77-.58-.25-.78-.62-.72-1.24.32-3.14.63-6.29.88-9.44.06-.75.35-.8,1.02-.75,3.42.25,6.74.73,9.71,2.61.95.6,1.9.29,2.56-.63,3.51-4.91,7.04-9.81,10.52-14.74,1.42-2.01,1.41-4.45,1.98-6.72.79-3.15,1.42-6.34,2.16-9.51.32-1.38.94-2.61,1.99-3.62,1.63-1.56,2.85-3.41,4.16-5.39-1.7.17-2.98.81-3.9,2.05-.46.62-.73.51-1.17-.05-3.47-4.47-6.97-8.92-10.47-13.37-.32-.41-.45-.7-.05-1.2,1.12-1.39,2.17-2.84,3.21-4.3.41-.58.64-.81,1.23-.11,5.68,6.74,11.42,13.44,17.1,20.18,1.57,1.87.88,3.79-.23,5.6-3.33,5.42-6.67,10.83-10.02,16.25-4.3,6.97-8.62,13.93-12.9,20.92-.44.71-.9,1.03-1.76.91-1.51-.21-3.04-.33-4.55-.51-4.65-.53-5.98.37-6.92,4.83Z"/>
        <path class="cls-28" d="m362.1,529.83c-3.65-.15-7.3-.3-10.95-.45-.7-.03-1.35-.14-1.96-.51-2.51-1.51-5.02-3.01-7.56-4.47-.73-.42-.71-.67-.14-1.23,5.15-4.97,10.27-9.96,15.37-14.97.36-.35.49-.35.88-.12,5.97,3.5,11.96,7,17.96,10.46.71.41.72.89.58,1.56-.59,2.96-1.18,5.92-1.69,8.89-.16.94-.56,1.24-1.55,1.22-3.65-.06-7.3-.02-10.95-.02v-.35Z"/>
        <path class="cls-28" d="m369.07,582.28c-2.09,3.32-4.04,6.46-6.04,9.58-1.8,2.81-1.74,5.44.26,8.12,1.62,2.17,3.2,4.36,4.88,6.49.58.74.53,1.16-.14,1.79-1.88,1.77-3.71,3.59-5.52,5.42-.64.65-1.31.89-2.24.76-1.56-.22-3.13-.39-4.7-.48-.79-.04-1.07-.45-1.38-1.05-1.22-2.38-.97-4.9-.85-7.79.74,1.12,1.3,1.97,1.87,2.84,1.39-1.62,1.45-2.39-.12-3.74-2.95-2.54-4.18-5.6-3.94-9.44.23-3.77.07-7.57.04-11.36,0-.79.06-1.17,1.07-1.16,5.53.06,11.06.03,16.82.03Z"/>
        <path class="cls-28" d="m359.32,464.96c.97,2.09,1.94,4.17,2.91,6.25-.21-4.54-1.35-8.86-2.91-13.37,3.03,1.78,6.07,2.47,9.25,2.5,1.15.01,1.24.45.97,1.35-.36,1.19-.57,2.42-.99,3.59-.33.91-.09,1.27.83,1.53,1.13.31.89-.59,1.09-1.05.26-.61.49-1.26.6-1.91.16-.99.87-1.31,1.71-1.52.45-.11.82-.06.74.52-.51,3.69.58,7.36.23,11.03-.36,3.84-2.05,7.36-3.1,11.03-.46,1.6-1.03,3.16-1.63,4.99-.85-1.09-1.57-2.02-2.29-2.95-2.4-3.1-4.78-6.21-7.21-9.29-1.03-1.3-1.26-2.68-1.07-4.3.31-2.61.42-5.24.55-7.87.02-.31.14-.38.31-.53Z"/>
        <path class="cls-28" d="m343.05,601.71c.81.03,1.37.56,2.21.41-.53-1.86-1.37-3.53-2.44-5.12-1.76-2.59-3.4-5.22-4.15-8.3-.45-1.85-.43-3.69-.24-5.55.07-.66.37-.88,1.05-.88,2.86.03,5.73.05,8.59,0,1.19-.02.92.74.92,1.36,0,4.46-.03,8.91-.07,13.37-.01,1.41.22,2.67,1.05,3.92,1.38,2.1,1.38,4.56,1.16,6.95-.14,1.49-3.28,3.58-5.33,3.78-.2.02-.39.02-.59.03q-2.16.06-2.16-2.08c0-2.63,0-5.25,0-7.89Z"/>
        <path class="cls-7" d="m349.2,493.47c.68-.02,1,1.02,1.54.6.3-.24.14-1.06.15-1.62.02-1.14,0-2.28.13-3.45,1.63,4.56,4.29,8.75,5.07,13.6.34,2.11-.11,3.84-1.83,5.42-3.26,2.99-6.28,6.21-9.58,9.2.9-8.12,2.75-15.94,4.52-23.75Z"/>
        <path class="cls-7" d="m351.97,396.36c-.93.83-1.58,1.38-2.2,1.97-3.63,3.42-3.17,7.85,1.08,10.54,4.18,2.64,8.78,2.88,13.53,2.33.88-.1,1.76-.23,2.62-.43,1.09-.26,1.41.05,1.41,1.17.02,2.38.1,2.36-2.4,2.02-3.72-.5-7.48-.34-11.22-.59-3.4-.23-6.23-1.43-8.22-4.14-2.93-4-5.77-8.05-8.81-12.3,4.76-.19,9.3-.37,14.2-.56Z"/>
        <path class="cls-16" d="m354.19,537.14c1.02-1.83,1.96-3.49,2.86-5.17.27-.52.68-.27,1.02-.26,4.89.13,9.77.27,14.65.47.41.02,1.38-.46,1.26.61-.09.89.2,2.09-1.23,2.26-3.47.42-6.95.79-10.43,1.18-2.64.29-5.28.59-8.14.91Z"/>
        <path class="cls-43" d="m335.93,546.87c.15,3.94.28,7.7.45,11.46.02.57-.24.59-.71.58-1.78-.02-3.56-.01-5.33.03-.5.01-.84-.11-1.09-.53-.09-.16-.23-.4-.38-.42-2.34-.41-1.37-2.25-1.64-3.54-.03-.14.02-.29,0-.43-.21-1.39.1-2.21,1.85-1.95,2.08.3,3.38-.98,4.54-2.42.71-.88,1.18-1.95,2.31-2.77Z"/>
        <path class="cls-7" d="m406.94,421.01c-3.18.89-6.06-.1-8.97-.22-3.02-.13-5.39-1.96-8.3-2.74,1.71-2.21,3.44-4.43,5.45-6.44.56-.56.79-.23,1.04.27.44.85.87,1.71,1.37,2.53,2.35,3.92,4.69,5.57,9.41,6.59Z"/>
        <path class="cls-7" d="m372.14,460.28c1.14-.81,2.7-.56,3.8-1.26,1.72-1.1,2.37-.19,3.26,1,2.03,2.75,4.18,5.43,6.28,8.13.05.06.03.18.05.34-1.71-.28-3.43-.44-5.08-.85-1.8-.45-3.08.03-4.03,1.52-.12.19-.29.34-.68.79,0-2.49-.03-4.66,0-6.83.04-2.88-.22-3.14-3.18-2.86-.14.01-.28,0-.42,0Z"/>
        <path class="cls-82" d="m356.41,473.55c-2.49-1.97-4.62-1.18-6.96.45,1.28-3.29,2.45-6.28,3.62-9.27.21-.54.42-1.07.63-1.61.68-1.72,2.06-2.52,3.89-2.3.59.07.62.47.83.85.28.52.03.67-.38.84-.91.37-.86,1.17-.92,1.94-.22,2.95-.45,5.9-.7,9.11Z"/>
        <path class="cls-11" d="m366.41,405.08c2.15,3.43,2.05,3.65-1.83,4.17-3.51.47-6.99.36-10.36-.82-1.22-.43-2.33-1.03-3.25-1.93-2.22-2.16-2.11-4.41.37-6.57.63,4,3.43,6.04,7.07,7.01,2.88.77,5.93,1.17,8.01-1.86Z"/>
        <path class="cls-16" d="m348.47,531.54c-.14.55-.27,1.11-.41,1.67q-.47,1.85-2.26.92c-2.77-1.44-5.53-2.91-8.32-4.32-.75-.38-.91-.66-.32-1.35.81-.96,1.32-2.57,2.29-2.86.79-.23,2.06,1.08,3.11,1.71,1.76,1.05,3.5,2.12,5.27,3.16.44.26.9.44.66,1.07Z"/>
        <path class="cls-11" d="m413.44,414.57c-2.12,3.81-3.9,4.85-6.96,4.3-1.75-.31-3.24-1.09-4.54-2.25-2.12-1.89-3.41-4.3-4.47-6.84.07-.07.13-.15.2-.18q1.98-.67,2.47,1.42c.75,3.24,3.52,5.18,7.15,4.87,1.99-.17,4.03-.25,6.16-1.33Z"/>
        <path class="cls-4" d="m404.01,408.49c-.73,0-1.47.03-2.24.14.69.02,1.26.05,1.76.11.15-.1.3-.18.48-.25Z"/>
        <path class="cls-4" d="m414,408.57c-1.46.31-2.94.16-4.42.18-.98.01-1.96-.07-2.96-.14,1.97,1.06,1.9,4.29-.23,5.18,2.32.01,4.63-.1,6.68-1.42,1.12-.72,1.56-1.93,1.6-3.24.01-.48-.11-.68-.68-.56Z"/>
        <path class="cls-4" d="m363.9,400.85c-1.07-.99-2.34-1.66-3.75-2.23.04.54.06,1.01.04,1.45.23,1.3-.35,2.75-1.73,3.26-.49.27-1.1.48-1.84.66,1.8.92,3.62,1.42,5.59,1.28,1.39-.1,2.26-1.02,2.83-2.05.61-1.08-.45-1.73-1.15-2.37Z"/>
        <path class="cls-42" d="m334.67,544.96c-1.32,1.6-2.53,3.08-3.78,4.54-.42.49-2.88.78-3.36.44-.11-.08-.19-.21-.23-.34-.04-.13-.04-.28-.04-.42.13-5-.98-4.13,3.79-4.21,1.12-.02,2.25,0,3.61,0Z"/>
        <path class="cls-83" d="m324.89,546.01c-.21,4.7,1.05,9.44-.51,14.3-.26-.99-.04-1.71.07-2.44.33-2.15-.14-4.07-1.62-5.75-1.28-1.46-1.25-1.88-.07-3.36.72-.91,1.42-1.83,2.13-2.75Z"/>
        <path class="cls-43" d="m354.78,531.74c-.91,1.62-1.81,3.19-2.68,4.76-.24.44-.58.5-.94.25-.51-.35-1.44-.19-1.47-1.12,0-.19.04-.38.08-.57q.75-3.79,5.01-3.33Z"/>
        <path class="cls-4" d="m355.69,398.25c.44-.3.99-.49,1.67-.49-1.19-.46-2.39-1.2-3.61-.02-1.18,1.15.16,2.26.23,3.41.23-2.04.3-2.6,1.71-2.9Z"/>
        <path class="cls-73" d="m320.02,568.01c.95.98.94,1.01-.26,2.92,0-1.05-.12-1.97.26-2.92Z"/>
        <path class="cls-4" d="m356.48,433.24c2-.05,3.75.27,5.44.94,1.9.75,3.68.67,5.48-.38,2.19-1.29,4.52-1.16,6.81-.21,1.68.7,3.28,1.17,5.07.24.75-.39,1.66-.18,2.38.33,2.61,1.87,5.12,3.85,7.1,6.41-.13.07-.21.15-.28.15-3.24-.04-3.26-.05-3.2,3.12.04,1.83-.57,3.36-1.95,4.61-2.52,2.27-4.92,4.66-8.45,5.56-6.27,1.6-14.19-3.66-14.74-9.9-.1-1.12.08-2.22.36-3.27.46-1.69.14-3.2-.72-4.67-.23-.39-.47-.69-.96-.78-1.19-.21-1.69-1.13-2.33-2.14Z"/>
        <path class="cls-90" d="m385.15,430.08c-1.67-.24-2.88-.88-3.83-1.97-.55-.63-1.11-.81-1.9-.38-1.08.58-2.07.23-2.98-.44,2.7-3.44,6.34-2.31,8.72,2.79Z"/>
        <path class="cls-86" d="m362.57,553.73c0-1.87,0-3.74,0-5.61.01-2.09.81-2.87,2.91-2.88,3.6-.02,7.21-.05,10.81-.06,1.99,0,2.39.43,2.47,2.32.17,3.83.36,7.66.59,11.48.07,1.11-.25,1.85-1.45,2.13-.39.09-.94.16-.92.76.05,1.29-.77,1.44-1.83,1.43-2.86-.03-5.73-.03-8.59,0-.86,0-1.55-.17-1.91-1.02-.1-.23-.07-.55-.52-.55-1.47,0-1.54-1.06-1.55-2.1-.01-1.97,0-3.93,0-5.9,0,0,0,0-.01,0Z"/>
        <path class="cls-88" d="m359.22,524.84c-.08.88-.56,1.52-1.43,1.54-.86.02-1.49-.58-1.49-1.45,0-.76.42-1.34,1.34-1.38.97-.05,1.41.47,1.59,1.29Z"/>
        <path class="cls-39" d="m382.97,441.84c.24,3.47-1.03,6.1-3.94,7.89-1.32.81-2.75,1.48-4.18,2.1-1.44.62-3.01.7-4.5.28-5.37-1.54-9.17-6.03-7.54-12.66.11-.46.3-.48.72-.34,2.73.92,5.47,1.8,8.2,2.72.41.14.88.33,1.14.64,1.36,1.67,3.04,1.31,4.78.82,1.73-.49,3.47-.94,5.32-1.44Z"/>
        <path class="cls-39" d="m384.59,439.22c-3.09.86-5.96,1.65-8.83,2.48-.36.1-.53,0-.75-.21-1.78-1.66-4.13-2.13-6.36-2.85-1.48-.47-2.94-1.01-4.42-1.67,1.77-.05,3.2-.88,4.71-1.57,1.35-.62,2.77-.48,4.16.03,2.19.81,4.35,1.96,6.73.4.39-.26.83.13,1.18.41,1.12.93,2.25,1.86,3.59,2.97Z"/>
        <path class="cls-43" d="m364.73,547.93c1.47,1.32,2.67,2.32,3.76,3.42,1.18,1.19,2.53,1.71,4.23,1.61,1.36-.07,3.13-.44,3.98.22.68.52.23,2.4.3,3.68.02.48,0,.98.13,1.43.2.64.06.96-.63,1.1-.42.09-.98.19-1.13.6-.51,1.45-1.69,1.28-2.86,1.25-1.28-.03-2.56,0-3.85,0-1.08,0-1.83-.36-2.8-1.03-1.43-.97-1.11-1.97-1.12-3.07-.05-2.95-.02-5.91-.02-9.22Z"/>
        <path class="cls-42" d="m367.53,547.34c2.85,0,5.59,0,8.33,0,.54,0,.84.14.82.71,0,.33,0,.67.06,1,.28,1.35-.26,1.75-1.68,1.9-3.26.36-5.65-.79-7.54-3.61Z"/>
        <polygon class="cls-66" points="385.15 355.43 388.75 365.63 383.22 372.73 379.65 375.93 343.48 390 334.59 394.61 327.34 401.96 320.95 411.88 324.5 418.79 336.37 436.06 354.85 452.95 358.41 457.16 358.54 459.82 354 460.26 350.44 467.39 344.08 470.6 338.24 481.1 336.78 483.98 338.74 485.57 336.78 507.47 334.67 512.46 327.16 520.44 320.95 533.66 315.02 548.9 313.24 551.78 307.9 548.32 294.85 539.11 288.33 532.78 279.43 521.27 276.47 513.78 275.28 505.72 276.47 497.09 280.03 486.15 288.33 468.88 298.41 454.48 303.75 440.09 303.16 432.03 303.16 415.91 303.16 400.36 304.34 388.85 310.87 376.18 318.57 366.4 327.47 360.06 342.89 353.16 354.16 349.7 361.87 349.13 374.91 351.43 385.15 355.43"/>
        <polygon class="cls-66" points="349.2 493.47 344.68 511.46 343.48 518.39 354 509.82 357.16 505.93 357.16 500.78 353.56 493.06 351.19 488.45 350.44 493.38 349.2 493.47"/>
        <line class="cls-4" x1="336.37" y1="436.06" x2="319.59" y2="481.62"/>
        <line class="cls-4" x1="338.89" y1="438.36" x2="331.03" y2="463.12"/>
        <line class="cls-4" x1="406.94" y1="439.02" x2="416.26" y2="456.89"/>
      </g>
      <g>
        <path class="cls-4" d="m865.69,414.82c-.67,1.73-.44,3.53-.25,5.28.41,3.69-.45,6.9-3.04,9.61-.3.32-.6.68-.77,1.07-2.16,4.79-6.13,7.56-10.7,9.66-4.02,1.85-7.82,4.09-11.71,6.17-.95.51-1.28,1.14-1,2.15.09.32.23.67.18.97-.58,3.41,1.44,5.46,3.79,7.37.9.73,1.7,1.58,2.53,2.4,5.37,5.34,4.07,13.46-2.69,16.82-.59.29-1.24.5-1.56,1.36,3.05,1.18,6.15,2.31,9.01,3.96,1.43.83,2.87,1.66,4.27,2.54,1.49.94,2.23,2.31,1.93,4.08-.63,3.7-1.29,7.4-1.99,11.09-.17.91-.9,1.53-1.62,2.04-1.09.77-.69,1.29.17,1.8,1.52.89,3.06,1.76,4.58,2.65,3.6,2.08,5.12,5.22,4.63,9.32-.21,1.7-.44,3.41-.87,5.06-.63,2.42.1,4.19,2.08,5.61,5.62,4.02,11.21,8.08,16.82,12.12.62.45,1.36.77.95,1.82-.32.82.55.69.91.82,3.73,1.34,7.49,2.62,11.22,3.97.49.18,1.35.07,1.34.96-.01.91-.87.72-1.36.88-5.02,1.62-10.05,3.2-15.39,4.88,1.27.62,2.28,1.12,3.42,1.67-.9.62-1.83.64-2.73.74-2.03.23-4.08.36-6.1.67-2.12.32-3.7-.3-5.08-1.99-2.83-3.47-5.8-6.83-8.8-10.33-.55.75-1.02,1.41-1.62,2.22-1.67-2.72-2.23-5.7-3.16-8.54-.39-1.2-.63-2.46-.99-3.67-.59-1.96-1.71-3.6-3.26-4.9-2.25-1.88-4.51-3.87-7.14-5.09-4.08-1.89-4.56-5.45-3.34-9.54.69-2.31,2.33-3.96,4.35-5.76-5.77-.64-8.62-5.18-12.48-8.27-1.03-.82-1.23-1.92-.88-3.14.7-2.51,1.13-5.06,1.48-7.64.31-2.34,1.64-4.18,3.25-5.83,1.15-1.18,2.27-2.39,3.59-3.79-6.07-1.07-9.94-5.24-14.27-8.67-.62-.49-1.05-1.29-1.4-2.03-.97-2.04-1.82-4.14-2.76-6.2-.82-1.79-1.09-3.68-1.22-5.62-.11-1.53-.75-2.75-2.3-3.34-1.47-.56-2.55.15-3.6,1.04-1.99,1.69-4.4,2.47-6.87,3.11-3.09.79-5.17,3.66-4.97,6.77.11,1.66.81,2.2,2.47,1.9,3.07-.57,8.02,1.16,9.07,3.89,1.18,3.07,1.42,6.49-.66,9.53-6.14,8.93-12.27,17.85-18.43,26.77-3.08,4.45-2.9,6.82,1.04,10.53,12.81,12.05,25.83,23.88,39.04,35.49,1.56,1.37,1.54,1.4-.1,2.54-1.68,1.17-3.35,2.35-5.05,3.48-1.14.76-1.56,1.66-1.25,3.09,1.42,6.47,2.87,12.93,4.05,19.44.73,4.01,2.65,7.09,6.32,8.67,5.59,2.42,9.64,6.55,13.34,11.13,1.49,1.85,3.26,3,5.55,3.61,3.41.9,6.77,1.99,10.15,3.03,1.03.32,2.08.65,3.04,1.48-1.24.3-2.33.57-3.55.86,1.41,2.04,2.75,3.97,4.08,5.89-.63.56-1.31.17-2.09.58,3.6,1.9,3.27,5.26,3.37,8.5.1,3.2,1.31,6.01,3.35,8.48.76.93,1.59,1.33,2.73.72.88-.47,2.24-1.1,2.74-.56.69.75.13,2.06-.26,3.11-2.01,5.41-1.87,10.57,1.71,15.39,1.46,1.97,3.07,3.88,3.85,6.58-1.14-.33-1.93-.99-2.96-.9-.82.07-1.04.3-.85,1.1.21.87.78,1.43,1.43,1.96,3.18,2.59,6.1,5.45,9.07,8.27.58.55,1.41,1.11.16,1.89-1.03.64-2.17,1.28-1.84,2.82.4,1.84,1.34,3.32,3.22,3.88,2.54.76,5.12,1.37,7.68,2.06.94.25,1.91.45,2.77,1.33-2.21,1.33-4.36,2.63-6.78,4.1,1.79.65,3.34,1.2,4.87,1.8.57.23,1.6.14,1.55.92-.05.7-1.06.6-1.65.8-1.2.4-2.42.77-3.66,1.04-1.6.35-2.38,1.18-2.24,2.89.09,1.08.11,2.2-.29,3.36-3.48-1.71-6.88-3.39-10.74-5.29,1.27,2.42,2.33,4.41,3.36,6.43.2.4.81.83.28,1.3-.38.34-.8-.14-1.19-.3-.85-.35-1.69-.73-2.64-1.15,0,1.28,0,2.38,0,3.48,0,1.94-.34,2.3-2.31,2.36-2.38.07-4.75.1-7.13.14-6.14.12-12.27.25-18.41.35-2.26.04-2.73-.52-2.6-2.74.06-1.05.04-2.1.05-3.15,0-.33-.03-.65-.07-1.3-2,1.26-4.1,2.15-5.62,3.63-3.56,3.48-7.88,4.19-12.52,4.18-13.33-.02-26.65.54-39.98.74-.86.01-1.78-.13-2.7.48,1.67,1.57,3.31,3.11,4.94,4.66.34.32.94.61.62,1.2-.32.59-.9.21-1.34.13-3.38-.55-6.75-1.13-10.13-1.69-1.85-.31-2.15-.03-2.13,1.83.02,1.11-.05,2.22.02,3.32.11,1.73-.88,2.05-2.3,1.96-3.75-.25-7.5-.46-11.25-.71-4.52-.29-9.04-.61-13.56-.9-2.44-.15-2.88-.59-2.72-3.06.1-1.6.17-3.2-.09-5-2.29,1.19-4.43,2.5-6.4,4.03-2.79,2.16-5.87,3.18-9.39,3.09-9.07-.24-18.14-.22-27.21-.09-6.06.09-11.78-1.57-17.32-3.93-1.18-.5-1.55-1.31-1.29-2.51,2.16-9.97,2.4-20.08,2.17-30.21-.04-1.91.61-3.41,2.01-4.7.89-.82,1.73-1.73,2.43-2.71,1.47-2.06,3.5-2.86,5.9-2.67,2.77.22,5.52.16,8.28.07.62-.02,1.2-.12,1.72-.49,1.74-1.23,3.71-1.62,5.8-1.63,2.33,0,4.62-.33,7.16-.73-.72-.96-1.36-1.81-2-2.67-.4-.53-.73-1.08-.84-1.77-.43-2.59.11-3.12,2.66-2.67,1.74.31,3.49.65,5.24.74,2.85.14,4.75-1.79,6.72-3.47.32-.27.55-.66.95-1.15-1.66-.47-3.18-.89-4.71-1.32-2.03-.58-3.23-2.48-2.89-4.57.22-1.36,1.14-1.74,3.27-1.49,1.7.2,3.41.32,5.11.44,1.17.09,2.16-.36,3.02-1.13,2.32-2.09,2.15-4.01-.51-5.68-.51-.32-1-.66-1.56-1.03,1.3-1.62,3.08-2.41,4.8-3.26,2.35-1.16,3.82-2.77,4.07-5.56.13-1.42-.11-1.79-1.43-1.63-.48.06-.98,0-1.48,0,.15-2.91.36-5.65,2.32-7.97,1.02-1.21,2.35-1.78,3.65-2.45,3.37-1.74,6.75-3.45,10.16-5.11.67-.33.84-.71.84-1.4-.02-9.64-.02-19.27,0-28.91,0-.65-.2-.82-.8-1.09-1.22-.53-2.13-1.55-3.1-2.46-3.28-3.06-6.32-6.29-8.95-9.98-3.8-5.33-4.57-10.9-3.31-17.28,1.47-7.44,5.17-13.67,9.07-19.9,2.02-3.23,3.95-6.52,5.98-9.74,1.21-1.92,1.46-3.8.52-5.96-2.33-5.39-3.49-11.03-3.34-16.94.05-2-.28-2.2-2.16-1.4-2.99,1.27-5.96,2.6-8.95,3.88-3.63,1.56-7.29.84-10.89-.04-1.09-.26-1.61-1.37-1.58-2.5.09-4.04.21-8.07.41-12.11.06-1.17.73-2.19,1.37-3.16,2.66-4.07,5.29-8.16,8-12.2.87-1.29,1.26-2.53.68-4.03-.44-1.14-.09-2.2.58-3.13,1.13-1.57,2.34-3.08,3.48-4.65.62-.85,1.52-1.11,2.44-1.24,1.35-.2,1.58-.97,1.38-2.12-.18-1.01-.71-1.84-1.25-2.68-2-3.11-3.98-6.24-5.97-9.36-.24-.37-.64-.76-.64-1.14-.02-4.01-3.58-5.73-5.5-8.49-2.14-3.08-4.49-6.05-6.96-8.88-3.05-3.5-3.96-7.62-4.33-12.07-.44-5.33.29-10.36,3.02-15.01.95-1.62.65-2.87-.75-4.06-1.64-1.39-3.19-2.89-4.78-4.35.1-.13.23-.21.39-.25,1.88.66,3.13,2.19,4.64,3.37,2.76,2.15,2.02,2.25,4.06-.52,1.21-1.64,2.38-3.33,3.58-4.98.8-1.1,1.85-1.7,3.27-1.45.54.7-.14.98-.5,1.32-5.29,5.01-8.94,11.04-11.09,18-.28.91-.44,1.82-.43,2.77.04,3.54.41,7.06.74,10.58.08.9.46,1.7,1,2.43,3.58,4.78,7.36,9.41,11.09,14.07.1.13.23.23.62.34.6-2.16.86-4.39,1.22-6.59,1.12-6.8,1.13-13.65,1.07-20.51-.01-1.35-.62-2.26-1.59-3.12-.99-.87-.9-1.24.36-1.61.73-.22,1.23-.53,1.21-1.33-.06-2.26,1.34-3.57,3.05-4.59,2.89-1.73,5.83-3.39,8.72-5.13,5.54-3.35,11.04-6.75,16.52-10.18,3.54-2.21,6.28-5.41,9.7-7.77.5-.34.93-.79,1.51-1.02.35-.12.69-.14,1.03.01.16.09.25.23.29.4-.1,1.18-1.09,1.86-1.59,2.83-.32.61-.9,1.09-1,2.01,4.65-.65,8.94-2.63,13.61-2.48.67.07,1.28.34,1.84.68,6.99,4.19,14,8.33,20.92,12.62.42.26.84.54,1,1.05,0,.29-.17.45-.44.52-.83.01-1.45-.48-2.11-.87-5.58-3.29-11.11-6.64-16.63-10.03-3.39-2.08-6.83-2.71-10.61-1.44-1.66.56-3.41.85-5.01,1.6.15.54.61.54.93.69,11.17,5.22,22.49,10.12,33.61,15.46,1.1.53,2.19,1.08,3.2,1.75,1.57,1.05,3.19,1.77,5.13,1.02.5-.19,1.15-.2,1.5.36.33.51,0,1-.31,1.36-1.04,1.18-.64,2.04.45,2.9,2.13,1.68,4.08,3.57,6.24,5.2,4.3,3.24,4.45,9.89.23,13.34-1.93,1.58-3.28,3.33-3.75,5.83-.35,1.87-1.85,3.15-3.11,4.42-5.14,5.18-10.53,10.1-15.9,15.05-1.22,1.12-2.46,2.23-3.53,3.79,2.58.14,4.15,1.46,5,3.72.18.47.63.85,1.14.88,2.82.14,5.76.93,7.92-1.9,4.68-6.14,11.38-9.53,18-13,1.81-.95,3.68-1.8,5.49-2.76,3.05-1.61,5.58-3.77,7.16-6.92.3-.59.64-1.18,1.08-1.67,2.33-2.56,3.38-5.5,3.01-8.99-.22-2.02.24-4.1-.43-6.1-.11-.33.04-.66.43-.78.89.19,1.81.34,2,1.47,0,0-.08.04-.12.04-.05,0-.11-.01-.16-.02Z"/>
        <path class="cls-53" d="m865.69,414.82c-.25-.84-1.16-.88-1.69-1.38-2.38-.62-4.17-2.31-6.25-3.47-1.28-.72-2.51-1.54-3.8-2.26-7.52-4.6-15.11-9.1-22.67-13.65-1.65-1-3.27-2.05-4.94-3.02-.47-.28-.95-.57-1.19-1.11-7.48-4.78-15.15-9.26-22.77-13.81-.23-.14-.52-.17-.78-.25-3.87-.62-7.7-1.37-11.34-2.9h.02c-2.23,0-4.47.06-6.69.24-.17.05-.35.09-.53.11-2.94,0-5.54,1.32-8.22,2.24-3.32,1.15-6.67,2.23-9.97,3.46-4.87,1.49-9.6,3.37-14.41,5.02-1.51.52-3,1.11-4.63,1.17-1.55.27-2.63,1.11-3.49,2.46-1.24,1.95-2.74,3.72-3.97,5.67-.72,1.13-1.19,1.03-2.1.23-1.86-1.63-3.83-3.12-5.76-4.67-1.01-.25-1.48-1.26-2.38-1.67-.75-.87-.09-1.44.5-1.88,3.49-2.58,6.65-5.58,10.34-7.9,1.3-.82,2.44-1.9,3.65-2.86,3.83-2.67,7.5-5.56,11.22-8.38.6-.45,1.41-.71,1.58-1.59,2.17-2.23,3.29-5.14,4.98-7.68.57-.86.9-1.88,1.67-2.61,1.74-2.2,3.22-4.59,4.87-6.86.81-1.11,1.5-2.33,2.72-3.07,2.71-.15,5.35.51,8.03.75,4.37.39,8.73,1,13.09,1.49,5.42.61,10.84,1.18,16.25,1.79,5.25.6,10.51,1.17,15.75,1.87,3.02.4,6.1.37,9.03,1.35,1.66.42,3.45-.05,5.07.67.18,0,.28.05.24.25.72,3.24.76,6.56.99,9.85.43,6.21.66,12.43,1.27,18.63.04.39.1.82-.24,1.08-.47.36-.82-.08-1.17-.29-3.99-2.46-7.94-4.98-11.89-7.5,3.66,2.4,7.41,4.67,11.07,7.07,1.31.86,2.98,1.16,3.97,2.51,3.01,2.4,6.02,4.78,9.02,7.19,6.06,4.86,12.12,9.71,18.17,14.59.76.61,1.57,1.2,2.02,2.12.82,2.03.64,4.16.6,6.27-.11,1.08-.22,2.15-.36,3.46-1.73-.92-3.42-1.61-4.89-2.73Z"/>
        <path class="cls-26" d="m841.13,383.92c-5.65-2.98-10.88-6.65-16.29-10.01-.11-.07-.13-.26,0-.67,4.67,2.94,9.34,5.88,14.17,8.92-.23-4.29-.44-8.35-.68-12.41-.13-2.21-.42-4.41-.43-6.61,0-3.54-.67-7.03-.77-10.56.61.45.62,1.12.67,1.78.54,7.77,1.14,15.53,1.57,23.31.13,2.26.6,4.33,1.75,6.26Z"/>
        <path class="cls-22" d="m769.66,344.41c-2.37,3.26-4.73,6.52-7.1,9.77-.1.14-.22.45-.49.15,1.62-2.79,3.24-5.57,4.84-8.36.62-1.07,1.38-1.85,2.75-1.57Z"/>
        <path class="cls-24" d="m755.43,364.62c.65.48.05.78-.22.98-3.97,2.99-7.95,5.95-11.95,8.91-.15.11-.42.06-.63.08,4.09-3.55,8.53-6.65,12.8-9.97Z"/>
        <path class="cls-25" d="m870.93,414.09c-.29-2.08-.58-4.16-.6-6.27,1.51,1.97,1.13,4.11.6,6.27Z"/>
        <path class="cls-53" d="m795.47,707.96c-3.57-.12-6.67-.81-9.77-1.52-2.32-.54-4.48-1.47-6.57-2.65-3.56-2-7.23-3.82-11.09-5.2-.42-.15-.93-.64-1.33-.06-.44.63.28.86.58,1.17,2.82,2.88,5.66,5.73,8.55,8.64-4.35.04-8.25-.67-11.31-4.16-2.48-2.82-5.26-5.38-7.93-8.04-.27-.27-.43-.91-1.01-.53-.55.36-.08.79.04,1.15.66,1.9,1.35,3.79,1.74,5.91-2.29-1.61-4.57-3.21-6.86-4.82-.41-.29-.85-.54-1.21-.88-.99-.92-1.67-.83-2.03.55-.05.21-.2.39-.34.64-3.09-1.97-6.21-3.85-9.22-5.91-1.56-1.07-2.37-2.74-2.57-4.65-.2-1.93-.52-3.83-.93-5.72-.12-.55-.28-1.01-.81-1.53-.42,1.74-.38,3.4-1.07,5.26-1.73-3.12-2.61-6.15-3.12-9.3-.28-1.69-.48-3.39-.7-5.09-.19-1.53-.91-2.53-2.48-2.93-1.87-.47-3.72-1.05-5.57-1.59-.78-.23-1.59-.44-2.18-1.21.94-.62,1.95-.4,2.9-.45,2.54-.14,5.08-.2,7.62-.36,2-.13,2.39-.95,1.24-2.58-.54-.76-1.21-1.44-1.83-2.14-.77-.87-1.16-1.86-.91-3.27,6.98,2.95,12.29.4,16.75-5.17-2.47-.82-4.85-1.62-7.23-2.41-.79-.26-1.35-.68-1.37-1.63-.03-1.44.46-1.82,1.88-1.51,2.2.48,4.38.94,6.65.2,3-.98,4.26-3.55,4.91-6.14.29-1.17-.74-1.55-1.62-1.96-.52-.24-1.36-.29-1.39-.96-.02-.54.75-.74,1.19-1.03.83-.55,1.71-1.02,2.58-1.49,3.42-1.87,4.26-4.96,4.12-8.56-.03-.75-.43-1.02-1.06-.89-1.81.39-1.77-.73-1.54-1.9.48-2.39,1.64-4.35,3.93-5.41,3.21-1.49,6.27-3.27,9.32-5.05.85-.5,1.62-.65,2.42.03.66.57,1.46.42,2.22.43,4.53.09,9.07-.13,13.6.19,2.92.21,5.45,1.19,7.66,3.13,5.14,4.51,9.06,9.81,10.96,16.47.1.34.53.72.1,1.04-.34.25-.71-.08-1.08-.17-.87-.23-1.78-1.31-2.56-.56-.62.59.13,1.66.31,2.5.62,2.92,1.35,5.81,2.03,8.71.09.37.26.74-.04,1.21-.8-.28-1.62-.57-2.82-.99.34,4.47.66,8.75,1,13.12-1.41-.37-2.5-1.15-3.69-1.69-.48-.22-1.16-.49-1.53-.06-.39.45.21.9.49,1.27.63.84,1.35,1.61,1.97,2.46,1.81,2.43,2.5,5.19,2.07,8.15-.6,4.14-.18,7.94,3.4,11.23-2.4-.28-4.22-.95-6.09-1.46-.43-.12-.84-.35-1.27-.36-.51-.01-1.22-.31-1.49.33-.25.6.45.83.81,1.09,4.44,3.2,5.85,7.77,6.08,13.24-1.77-1.23-2.97-2.67-4.33-3.92-.39-.36-.73-1.06-1.33-.78-.71.33-.06.97-.07,1.48,0,.44.06.9.2,1.31,1.27,3.72.41,6.97-1.85,10.1-1.75,2.42-1.59,2.62.7,4.62.83.73,1.63,1.5,2.43,2.26.16.15.29.33.72.83Z"/>
        <path class="cls-53" d="m843.32,673.55c.36,2.67,1.26,4.73,1.96,6.86.27.84.66,1.63.97,2.46,1.14,3.07.5,4.56-2.79,6.16.42-6.96-3.94-12.04-6.48-17.82-.18.03-.35.07-.53.1.33,2.78.66,5.56,1,8.36-3.55-1.09-6.97-5.4-7.34-8.98-.23-2.24-.66-4.46-1.07-6.67-.3-1.62-1.24-2.75-2.74-3.5-2.86-1.43-5.68-2.95-8.51-4.43-.08-.04-.14-.16-.3-.36,1.02-.44,1.99-.87,3.18-1.39-1.33-.65-2.45-1.18-3.74-1.81,2.11-1.88,4.04-3.87,6.24-5.48,3.1-2.27,4.81-5.11,5.07-8.97.12-1.79.7-3.55,1.12-5.56-1.47.32-2.77.6-4.21.91v-16.43c-1.47.68-2.23,2-3.63,2.78.35-2.94.66-5.71,1.03-8.47.12-.87.72-1.49,1.44-1.94,2.58-1.61,5.2-3.13,7.93-4.47,1.91-.93,4.01-.73,6.01-.9,3.96-.33,7.94-.55,11.92-.48,4.71.09,9.02,1.85,13.44,3.17.29.09.78.19.7.59-.43,2.04,1.21,3.07,2.11,4.46.2.31.34.67.53,1.08-1.54.24-2.85-.63-4.48-.54,1.33,1.33,2.6,2.44,4.05,3.34,2.21,1.37,3.24,3.29,3.2,5.93-.07,4.01.86,7.75,3.39,11,1.76,2.26,1.84,2.31,4.5,1.25.25-.1.5-.17.93-.32-.53,2.72-1.19,5.25-1.29,7.89-.17,4.6,1.13,8.6,4.25,11.97.57.62.78.91-.14,1.42-1.82,1.02-2.11,3.24-.48,4.67,3.43,3,6.75,6.14,10.39,8.9-.81.85-2.94.33-2.78,2.03.22,2.34.77,4.73,2.94,6.22,1.2.83,2.6,1.17,4.01,1.45,1.93.38,3.8.97,5.88,1.71-2.27,1.47-4.33,2.81-6.65,4.31,2.04.84,3.84,1.58,5.68,2.34-.64.72-1.5.64-2.23.77-2.04.37-3.16,1.5-3.62,3.53-.47,2.04-.58,2.02-2.51.98-2.48-1.33-4.97-2.64-7.44-3.98-.83-.45-1.67-.79-2.86-.9,1.6,2.73,3.12,5.34,4.64,7.94-.08.08-.15.17-.23.25-2.33-1.19-4.65-2.38-6.97-3.57-2.5-1.28-5.02-2.54-7.49-3.87-.85-.46-1.29-.51-1.64.54-.43,1.29-1.04,2.53-1.63,3.95-.78-.63-.99-1.42-1.32-2.13-.4-.85-.71-1.74-1.37-2.44-.19-.19-.36-.49-.67-.37-.42.17-.25.52-.18.84.09.43.15.86.24,1.29.11.57.66,1.28.09,1.68-.47.32-1.12-.26-1.68-.48-3.11-1.25-6.22-2.52-9.34-3.77-2.63-1.06-4.49-2.89-5.74-5.45-.99-2.03-2.17-3.97-3.23-5.97-.29-.54-.62-1.01-1.5-1.68Z"/>
        <path class="cls-48" d="m751.55,407.33c.66.94.82,1.92.83,2.8.03,2.88,1.52,4.87,3.59,6.59.63.53,1.37,1.03,1.79,1.71,1.8,2.9,4.5,2.98,7.44,2.6,3.6-.46,7.22-.84,10.83-1.22.88-.09,2.1.02,2.38-.76.35-.95-.88-1.37-1.55-1.86-4.23-3.11-8.41-6.28-12.77-9.2-2.7-1.81-5.76-2.39-8.8-3.11-.59-.14-1.19-.23-1.77-.4-1.06-.32-2.24-.6-2.39-1.96-.16-1.43.1-2.83,1.37-3.7,2.55-1.75,5.18-3.36,8-4.65,1.42-.65,2.73-.18,3.94.5,1.1.62,2.1,1.42,3.14,2.14.75.52,1.88.74,2.27.16.45-.67-.25-1.48-1.06-1.94-1.62-.92-3.21-1.91-4.8-2.87.32-.72.93-.93,1.43-1.25,4.62-2.91,9.29-5.76,13.86-8.75,3.94-2.58,7.79-2.85,11.92-.4,3.7,2.2,7.81,3.56,11.7,5.39.75.35,1.48.73,2.44,1.2-1.39,1.18-2.68,2.24-3.93,3.36-.82.74-1.6,1.52-2.34,2.35-.62.7-.76,1.67-.04,2.23.61.48,1.29-.16,1.76-.72,1.39-1.65,2.85-3.25,4.12-4.98,1-1.35,2.04-1.63,3.55-.93,5.89,2.74,11.81,5.43,17.71,8.14.05.02.1.04.16.06.84.39,1.75,1.08,1.71,1.86-.04.79-1.24.92-2.01,1.12-5.22,1.35-10.44,2.67-15.66,3.99-1.14.29-2.19.74-3.05,1.56-4.11,3.95-8.21,7.9-12.3,11.87-.27.26-.43.62-.75,1.08,1.86.31,3.6.15,5.33.16,3.15.02,6.29-.06,9.44.19,5.23.41,9.63-1.82,13.69-4.9,2.84-2.16,4.92-4.85,6.43-8.08,2.03-4.36,2.6-4.45,6.25-1.36,1.98,1.68,3.86,3.49,5.92,5.06,1.57,1.19,2,2.62,1.82,4.47-.26,2.77-1.18,5.14-3.6,6.73-1.05.69-1.29,1.94-2.16,2.85-2.71,2.86-11.36,16.5-15.27,17.28-6.27,5.92-3.44,3.67-9.68,9.63-.81.78-1.67,1.39-2.74,1.79-4.06,1.55-8.1,3.13-12.19,4.6-3.35,1.21-6.4.85-9.28-1.01-4.41-2.84-8.74-5.8-13.09-8.72-3.81-2.56-7.58-5.15-11.4-7.69-1.61-1.07-2.21-2.49-2.39-4.42-.31-3.35.02-6.74-.58-10.07-.32-1.79-1.41-2.95-3.01-3.68-1-.46-1.98-.99-3.02-1.32-2.69-.85-3.65-2.74-3.63-5.41.02-2.65.08-5.3.46-8.13Z"/>
        <path class="cls-81" d="m824.12,619.78c0,3.43-.08,6.87.03,10.29.05,1.6-.43,2.76-1.71,3.69-.96.7-1.82,1.52-2.73,2.29.07.14.14.28.21.41,2.57-.8,5.13-1.6,7.95-2.47-.89,4.46-.82,9.05-5.07,11.98-2.04,1.41-3.86,3.14-5.75,4.76-2.16,1.85-2.15,1.87.14,3.49-.3.69-1.17.51-1.58,1.01-.52.62.09,1.13.2,1.78-4.72.53-9.43,1.06-14.14,1.59-1.18.13-1.95-.3-2.08-1.55-.33-3.35-.65-6.71-.97-10.15.73-.06,1.19.49,1.78.66.51.14,1.05.58,1.53.11.44-.42.33-1.01.16-1.57-.67-2.28-1.35-4.55-1.98-6.83-.36-1.31-.62-2.65-.99-4.28,1.5.6,2.73,1.09,4.17,1.66-1.23-8.06-4.88-14.59-11.02-20.1,1.13,0,1.87.01,2.61,0,.27,0,.64-.08.65-.38,0-.22-.2-.54-.4-.66-.42-.25-.88-.44-1.35-.58-2.33-.69-4.64-1.41-6.99-2.01-1.62-.42-2.33-1.3-2.07-2.99.64-4.1-.35-7.94-2.21-11.53-2.22-4.28-1.93-8.3.39-12.44,3.21-5.73,6.26-11.54,9.29-17.37.74-1.43,1.63-2.02,3.24-1.96,2.97.11,5.96.03,9.13.03-.27.18-.37.3-.48.32-2.92.39-3.06.69-1.21,3.08,3.43,4.41,6.9,8.79,10.37,13.17,5.16,6.51,10.82,12.57,16.52,18.6,1.68,1.78,1.6,2.19-.59,3.36-1.89,1.02-3.77,2.08-5.64,3.15-1.21.69-1.97,1.66-2.16,3.13-.42,3.23-.98,6.45-1.44,9.67-.09.64-.1,1.32.28,2.15,1.17-1.34,2.28-2.62,3.4-3.91.17.14.34.29.51.43Z"/>
        <path class="cls-17" d="m791.83,480.01c-.63.72-.88,1.42-.84,2.09.17,3.34-1.38,5.94-3.45,8.33-6.57,7.61-12.43,15.77-18.49,23.76-.42.55-.77,1.53-1.41,1.44-.64-.09-.71-1.12-.98-1.77-2.9-6.86-3.55-14.06-3.24-21.39.11-2.66.99-4.95,3.06-6.88,3.81-3.54,7.41-7.3,11.09-10.98.23-.23.41-.5.72-.88-.98-.19-1.51.33-2.04.84-3.8,3.71-7.61,7.41-11.4,11.13-1.35,1.33-2.11,2.9-2.14,4.86-.03,2.42-1.08,4.18-3.48,5.07-1.81.67-3.59,1.43-5.3,2.32-3.82,2-7.92,1.69-11.99,1.54-1.43-.05-2.15-.87-2.19-2.51-.07-3.54.4-7.06.38-10.6,0-.63.21-1.22.53-1.72,3.12-4.95,6.26-9.88,9.4-14.82.12-.19.23-.38.52-.87,1.04,2.75,3.07,3.22,5.31,3.32,1.35.06,1.78.98,1.48,2.06-1.54,5.55-2.27,11.33-4.69,16.58,1.32-.28,2.09-.75,2.23-2.19.31-3.12,2.3-5.05,4.45-6.91,4.67-4.05,9.23-8.25,14.36-11.7,5.33-3.58,11.13-4.59,17.24-2.15,1.77.71,1.71.87.32,2.26-.24.24-.4.52-.39.88.43.32.71.02.99-.25,1.55-1.5,3.52-2.02,5.57-2.21,1.01-.1,1.82-.4,2.44-1.18.98-1.24,2.27-1.59,3.82-1.53,3.51.14,6.99,2.27,7.65,5.01.57,2.38.34,4.7-1.12,6.8-5.9,8.53-11.82,17.05-17.64,25.64-2.72,4.02-5.16,8.22-7.85,12.27-3.19,4.79-7.19,8.94-10.83,13.37-3.26,3.96-6.64,7.82-9.86,11.81-2.16,2.67-2.88,2.96-6.14,1.7-.41-.16-.83-.3-1.25-.43-3.04-.99-2.58-.82-1.18-3.05,5.31-8.47,10-17.31,15.46-25.69,4.71-7.22,10.33-13.76,15.61-20.54,1.25-1.61,2.62-3.13,3.99-4.65,1.59-1.77,1.47-3.94,1.52-6.06.02-.63-.13-1.27-.23-2.13Z"/>
        <path class="cls-16" d="m854.25,407.5c3.4,1.73,6.55,3.88,9.75,5.94.5,2.52.2,5.08.41,7.61.21,2.54-.33,4.85-1.91,6.83-1.39,1.73-2.38,3.72-3.67,5.5-1.78,2.47-4.32,4.06-7.04,5.39-4.71,2.31-9.37,4.7-13.84,7.47-3.39,2.1-6.1,4.91-8.67,7.87-1.27,1.46-2.71,2.16-4.64,1.94-.98-.11-1.99-.02-2.99-.02-.92,0-1.67-.39-1.94-1.27-.8-2.64-2.63-3.65-5.49-3.35,1.18-1.97,2.73-3.3,4.18-4.68,5.12-4.87,10.34-9.66,15.42-14.57,1.81-1.74,3.58-3.57,3.93-6.32.22-1.75,1.44-3.02,2.86-3.9,2.79-1.74,4.02-6.26,3.38-9.47-.32-1.58-1.52-2.7-2.8-3.59-2.46-1.71-4.55-3.85-6.9-5.68-1.19-.93-1.53-1.78-.27-2.9.31-.28.49-.71.76-1.13-.65-.56-1.26-.26-1.85-.02-1.29.55-2.52.25-3.62-.42-7.62-4.64-16-7.68-24-11.5-4.97-2.38-10.03-4.58-15.05-6.86-.35-.16-.73-.28-.99-.92,4.39-1.02,8.52-3.51,13.21-2.09,2.91.88,5.39,2.75,7.99,4.31,4.78,2.85,9.56,5.72,14.34,8.58,1.8.59,3.29,1.75,4.88,2.71,7.96,4.79,15.92,9.59,23.94,14.29.19.11.39.2.6.27Z"/>
        <path class="cls-66" d="m783.02,372.92c.08-.04.16-.05.24-.01,2.03-.2,4.05-.27,6.08.04-10.73,9.7-23.38,16.53-35.71,23.84-2.01,1.19-3.78,2.44-3.56,5.24.15,1.82-1.54.83-2.34,1.26,0,.09-.03.26.02.28,2.27,1.18,2.39,3.2,2.42,5.47.13,8.79-.47,17.5-2.39,26.1-.03.15-.11.29-.27.68-1.85-2.27-3.63-4.4-5.36-6.57-2.09-2.63-4.05-5.38-6.25-7.91-1.72-1.98-1.78-4.34-2-6.66-.16-1.75-.3-3.52-.37-5.27-.25-6.66,2.93-12.03,6.49-17.31,1.7-2.53,3.83-4.62,5.81-6.88,4.64-1.65,9.27-3.3,13.92-4.94,1.65-.58,3.32-1.1,4.98-1.65,2.01-.09,3.73-1.13,5.6-1.68,4.25-1.27,8.43-2.8,12.7-4.02Z"/>
        <path class="cls-48" d="m767.38,603.59c-.22-8.29-.38-16.59-.34-24.89.02-4.93.69-9.79,1.3-14.66.08-.63.12-.91.97-.8,7.31.98,14.64,1.86,21.95,2.79,1.44.18.55,1.05.3,1.53-2.73,5.29-5.51,10.55-8.27,15.83-1.02,1.95-1.95,3.95-3.02,5.89-1.32,2.41-1.23,4.8.1,7.08,2.42,4.16,3.15,8.65,2.99,13.37-.07,1.87-.54,2.39-2.35,2.4-3.71.03-7.41.05-11.12.03-2.03,0-2.5-.53-2.51-2.59,0-1.99,0-3.99,0-5.98Z"/>
        <path class="cls-48" d="m849.4,602.23c-4.13.32-8.27.56-12.39.97-2.79.28-4.93-.41-6.82-2.7-8.21-9.99-16.57-19.86-24.87-29.77-.78-.93-1.55-1.86-2.45-2.94,2.28-.66,4.53-.91,6.71-.97,3.83-.1,7.01-1.52,10.01-3.73,1.59-1.18,3.33-2.15,5.14-3.31,1.01,3.54,1.72,7.02,2.41,10.51.78,3.9,1.51,7.8,2.28,11.7.64,3.26,2.43,5.58,5.46,7.03,2.73,1.3,5.55,2.51,7.58,4.91,1.88,1.08,2.91,3,4.35,4.5.64.67,1.23,1.41,1.87,2.09.45.48.99.93.73,1.71Z"/>
        <path class="cls-81" d="m788.67,462.95c-1.48,2.26-3.65,3.38-6.27,3.38-4.57,0-8.28,1.82-11.66,4.74-3.97,3.43-8.05,6.74-12.1,10.08-.45.37-.89.84-1.68.83.58-4.23.85-8.55,3.95-11.84,1.66-1.76,3.53-3.33,5.22-5.08.86-.89,1.43-1.67.35-2.81-.63-.66-.5-1.57-.35-2.38.2-1.14.43-2.28.78-3.37.77-2.39.34-4.54-.99-6.61-1.4-2.18-2.76-4.39-4.1-6.6-.44-.73-1.23-1.69-.53-2.38.7-.68,1.62.1,2.35.59,7.1,4.76,14.2,9.53,21.3,14.3.6.4,1.18.83,1.81,1.17,1.91,1.03,2.88,2.52,2.5,4.74-.07.47.08,1.04-.58,1.25Z"/>
        <path class="cls-16" d="m890.87,545.7c-5.58,1.76-11.16,3.52-16.92,5.33.58.61.98,1.04,1.46,1.56-1.75.54-3.49.45-5.22.46-1.04,0-1.74-.66-2.36-1.37-2.95-3.37-5.9-6.74-8.82-10.13-.89-1.03-1.77-1.73-3.09-.51-.85-3.09-1.64-6.02-2.48-8.94-.34-1.17-.09-2.03.98-2.67,1.61-.97,3.2-1.97,4.8-2.95.84-.51,1.66-.47,2.47.11,5.33,3.85,10.66,7.7,16,11.54.54.39.86.77.09,1.23-1.57.94-.38,1.14.39,1.41,3.8,1.33,7.61,2.65,11.41,3.98.41.14.81.32,1.21.48.02.16.04.31.06.47Z"/>
        <path class="cls-48" d="m760.72,438.05s.09.42-.08.72c-1.31,2.29-.41,4.23.87,6.15,1.28,1.93,2.5,3.9,3.74,5.86,1.24,1.95,1.25,4.05.69,6.21-.14.53-.29,1.07-.53,1.56-.5,1.04-.2,2.84-1.56,3.01-1.82.22-3.75-.17-5.34-1.29-.97-.68-1.04-1.68-.56-2.66.89-1.81.45-3.4-.58-4.97-1.64-2.49-3.06-5.15-4.91-7.47-2.25-2.83-2.56-5.92-2.31-9.31.31-4.13.46-8.27.61-12.4.13-3.6.09-3.61,3.14-2,1.41.75,2.8,1.55,4.21,2.28.97.51,1.51,1.3,1.6,2.35.34,3.84.65,7.69,1,11.95Z"/>
        <path class="cls-35" d="m779.34,530.75c1.82-.72,3.7-1.25,5.61-1.66,1.64.52,3.26,1.13,5,1.28-.01,1.6.95,3.07.67,4.71-.04.17-.12.32-.22.46-.39.38-.86.54-1.41.52-.88-.11-1.45-.74-2.12-1.22-1.31-.93-2.69-1.73-4.21-2.27-1.37-.48-1.68-.31-1.87,1.08-.46,3.36.26,4.79,3.23,6.44.2.11.36.25.46.46.13.45-.05.86-.18,1.28-1.15,3.73-1.53,7.42.57,10.98.17.28.26.6.19.95-1.15,1.08-2.51,1.16-3.95.83-.16-.09-.28-.23-.36-.4-.13-.3-.15-.63-.19-.96-.23-2.06-1.13-2.99-3.19-3.33-.76-.12-1.53,0-2.29-.17-.17-.04-.32-.12-.47-.22-.54-.52-.72-1.24-.96-1.91-.88-2.39-1.66-4.81-2.73-7.13-.2-.43-.29-.9-.34-1.3-.16.22.18.72-.27.94-.4-4.54.18-6.17,2.22-7.24.14-.07.31-.09.47-.13.62-.14.87.38,1.17.73.83.96,1.81,1.45,3.06,1.05,1.22-.39,1.61-1.39,1.67-2.57.02-.44.08-.88.42-1.21Z"/>
        <path class="cls-48" d="m764.39,571.57c0,1.55,0,3.1,0,4.65,0,.26.08.58-.23.73-.36.17-.6-.01-.86-.27-4.86-4.79-9.32-9.89-12.14-16.21-1.11-2.5-.76-5.07-.28-7.64.17-.92.51-1.83.53-2.75.03-1.3.74-1.18,1.53-.89,2.16.78,3.65,2.2,4.16,4.52.64,2.92,1.91,5.56,4.1,7.6,2.46,2.28,3.61,4.93,3.22,8.27-.08.65-.01,1.33-.01,1.99Z"/>
        <path class="cls-48" d="m800.29,523c-8.87,2.7-17.65,5.37-26.42,8.03-.06-.08-.12-.16-.19-.24,1.59-1.93,3.17-3.87,4.76-5.79,3.31-3.99,6.62-7.99,9.95-11.96.29-.35.61-1.17,1.19-.3,2.69,4.05,6.78,6.59,10.32,9.73.11.1.18.25.38.53Z"/>
        <path class="cls-81" d="m765.74,573.84c0-1.77-.15-3.55.04-5.3.27-2.48-.62-4.35-2.32-6.08-2.86-2.92-4.95-6.32-5.89-10.36-.27-1.15-.15-2.16.64-3.09,3.27-3.82,6.51-7.66,9.76-11.5.25-.29.5-.56.92-.56.78,7.34-.54,14.36-3.03,21.21-.21.57-.36,1.16-.6,1.71-.58,1.33-1.19,2.59.94,3.19.55.15.89.82.84,1.5-.24,3.09-.49,6.18-.74,9.27h-.56Z"/>
        <path class="cls-51" d="m825.57,557.11c-.93.81-1.96,1.47-3.04,2.05-.59-.23-.7-.8-.9-1.3-1.36-3.38-2.68-4.21-6.26-3.93-.22.02-.44.02-.65-.04-.17-.07-.28-.19-.32-.37.33-3.48-.62-6.6-2.37-9.6-1.27-2.18-2.43-4.45-2.96-6.96-.15-.7-.39-1.39,0-2.09.56-.44.99-.02,1.27.32,1.8,2.22,4.28,3.17,6.92,3.86l.97.92c.52,1.45,1.63,2.27,3.02,2.76,3.11,2.5,6.03,5.22,8.93,7.96-.73.71-1.73.59-2.6.87-.78.26-1.61.37-2.33.8-1.44.86-1.67,2.11-.66,3.46.32.43.86.7.99,1.29Z"/>
        <path class="cls-15" d="m855.06,488.25c-.7,3.16-1.39,6.33-2.11,9.48-.15.67-.51.67-1.05.27-2.98-2.19-5.98-4.36-8.98-6.52-.57-.41-.51-.89-.35-1.47.75-2.77,1.48-5.54,2.21-8.31.17-.66.41-1.07,1.23-.74,2.35.96,4.69,1.93,6.81,3.36,1.39.94,1.9,2.38,2.24,3.93Z"/>
        <path class="cls-15" d="m830.76,495.27c.45-2.86.9-5.96,1.46-9.04.19-1.07.74-1.45,1.82-.61,2.17,1.7,4.42,3.32,6.68,4.9.68.48.99.89.75,1.75-.99,3.56-1.92,7.14-2.88,10.71-.14.52-.18,1.22-1.01.52-2.06-1.75-4.17-3.44-5.92-5.53-.6-.72-.79-1.56-.89-2.7Z"/>
        <path class="cls-46" d="m811.23,565.36c-3.6.67-7.23.34-10.85.34-1.47,0-2.97.12-4.41-.3.17-.25.3-.49-.17-.56-.68-.11-1.32-.04-1.87.42-3.98-.39-7.96-.81-11.91-1.53,3.52-4.01,7.74-5.19,12.77-3.2,1.81.71,3.69,1.09,5.64,1.09.17.03.33.08.49.14.84.53,1.6,1.17,2.46,1.69.83.5,1.7.79,2.67.77,1.45-.03,2.15-.75,2.02-2.2-.1-1.1-.44-2.17-.65-3.25,0-.47.32-.73.62-1.01,1.39-1.33,2.95-2.45,4.58-3.46.58-.36,1.15-.89,1.95-.64l.09.12c.46.65.34,1.38.2,2.08-.6,3.11-2.16,5.89-3.04,8.91-.08.27-.37.4-.58.57Z"/>
        <path class="cls-61" d="m800.59,562.02c-2.21.27-4.25-.43-6.27-1.15-4.14-1.47-7.9-1.16-10.99,2.3-.38.42-.85.45-1.31.57-.9-.08-1.81-.05-2.67-.42-1.31-2.77-.48-7.24,1.65-8.95,1.37,0,2.72-.15,4-.7.15-.08.31-.09.47-.03.99.58,1.85,1.38,3.05,1.57,2.1.33,3.92-.14,5.4-1.74.37-.4.69-.88,1.33-.87.52.2.7.68.86,1.14.9,2.69,2.32,5.09,4.16,7.24.25.29.51.59.33,1.03Z"/>
        <path class="cls-51" d="m781,554.38c-1.9,2.73-1.86,5.82-1.65,8.95-4.07-.53-8.16-.98-12.21-1.64-1.73-.28-.43-1.5-.4-2.32,1.26-.22,1.41,1.42,2.82,1.6-.63-1.77-.69-3.45-.59-5.13.19-3.23,2.93-6.26,5.77-6.42.1.02.21.03.31.05.25.22.5.44.65.74,1.11,2.17,2.98,3.3,5.26,3.85.01.11.02.21.04.32Z"/>
        <path class="cls-66" d="m837.49,454.33c3.29,2.58,5.9,5.44,8.58,8.2,1.3,1.34,1.32,6.21.27,7.62-.33.44-.67.26-1.02.13-2.68-1.02-5.35-2.07-8.04-3.05-1.04-.38-.85-1.18-.78-1.92.3-3.56.65-7.12,1-10.98Z"/>
        <path class="cls-66" d="m821.07,461.66c3.41,1.28,6.53,2.45,9.65,3.63,1.13.43,2.23,1.01,3.4,1.28,1.57.36,1.82,1.3,1.64,2.68-.25,1.96-.49,3.93-.59,5.91-.06,1.24-.54,1.29-1.42.78-3.21-1.85-5.92-4.37-8.8-6.66-2.36-1.87-2.97-4.62-3.88-7.61Z"/>
        <path class="cls-15" d="m842.18,491.62c3.36,2.44,6.53,4.73,9.7,7.02.43.31.66.69.18,1.07-3.11,2.43-6.03,5.21-10.29,5.5-.69.05-1.3-.19-1.93-.38-.73-.22-1.02-.56-.77-1.45,1.07-3.82,2.04-7.66,3.12-11.77Z"/>
        <path class="cls-66" d="m854.05,505.95c-.72,2.29-1.43,4.55-2.13,6.81-1.06,3.43-1.06,3.44-4.11,1.63-2.08-1.24-4.13-2.54-6.22-3.77-.59-.35-.87-.59-.25-1.19,1.59-1.53,3.07-3.19,4.72-4.64,2.21-1.93,5.67-1.65,7.72.46.22.23.28.45.26.7Z"/>
        <path class="cls-66" d="m847.96,525.1c-2.74-1.89-5.41-3.44-7.65-5.58-1.52-1.46-1.69-6.61-.38-8.23.39-.49.79-.53,1.29-.23,2.88,1.73,5.76,3.46,8.64,5.19.67.4.6.94.4,1.58-.76,2.35-1.49,4.71-2.3,7.28Z"/>
        <path class="cls-35" d="m762.39,467.28c-.99,1.25-2.23,2.23-3.4,3.28-1.05.94-2.28.9-3.55.69-1.13-1.44-2.11-3.05-4.04-3.59-1.65-2.16-1.57-3.01.2-5.01.92-1.02,1.68-2.19,2.53-3.27.71-.91,1.62-1.2,2.29-.11,1.69,2.76,4.25,3.68,7.28,3.77-.41,1.42-.95,2.8-1.31,4.23Z"/>
        <path class="cls-66" d="m860.41,513.2c-.3,2.01-.67,4.56-1.05,7.11-.1.7-.46.82-1.03.47-2.07-1.26-4.15-2.52-6.22-3.79-.58-.36-.79-.8-.54-1.53.95-2.82,1.88-5.65,2.73-8.5.3-1.01.64-1.01,1.5-.58,2.62,1.32,4.6,3.05,4.61,6.83Z"/>
        <path class="cls-48" d="m788.67,462.95c.22-.4.13-.95.58-1.25.83.13.95-.7,1.36-1.08,1.93-1.76,4.37-1.27,6.6-1.57,2.5-.34,2.54-.2,2.37,2.42-.08,1.26-.21,2.52-.38,3.78-.24,1.74-1.17,2.55-2.95,2.76-2.48.3-4.65-.53-6.73-1.75-.78-.46-.92-1.14-.91-1.97,0-.45.65-.88.05-1.33Z"/>
        <path class="cls-15" d="m839.74,478.62c1.3.5,2.85,1.07,4.36,1.7.54.23.32.74.21,1.16-.7,2.66-1.46,5.3-2.1,7.97-.26,1.09-.63,1.05-1.41.47-2.2-1.65-4.44-3.26-6.66-4.88-.48-.35-.88-.68-.29-1.3,1.4-1.48,2.76-3,4.16-4.48.38-.41.88-.66,1.74-.63Z"/>
        <path class="cls-51" d="m800.25,524.49c1.16-.26,2.06.31,2.83,1.05,1.31,1.26,2.56,2.6,3.83,3.9.11.16.13.33.06.5-2.94,3.22-8.29,4.29-11.65,2.33-.92-.54-1.73-1.19-2.2-2.18-.05-.16-.06-.33-.04-.5,1.06-1.35,1.99-2.81,3.15-4.08.79-.22,1.58-.45,2.37-.67.79,1.03,1.22.33,1.65-.35Z"/>
        <path class="cls-11" d="m816.95,415.12c-2.88.13-5.32-.17-7.7-.94-.88-.29-1.78-.66-2.53-1.19-.72-.52-1.73-1.35-1.23-2.2.25-.43,1.32.53,1.9,1.06,2.68,2.43,5.91,2.8,9.08,1.71,2.26-.78,3.62-2.99,4.62-5.2.99-2.22,2.56-3.68,5-4.09.48-.08.99-.1,1.48-.06.97.09,1.35.54.91,1.54-1.36,3.13-3.15,5.91-5.97,7.97-1.82,1.34-3.79,1.68-5.56,1.41Z"/>
        <path class="cls-78" d="m817.65,416.2c-1.33,1.67-2.93,2.52-4.81,2.54-5.02.05-10.04-.02-15.07-.06-.32,0-.63-.16-1.18-.3,2.05-2.1,3.99-4.09,6.29-5.66.94-.64,2.07-.32,2.85.53,2.46,2.68,5.64,2.95,8.96,2.75.94-.06,1.85-.2,2.97.2Z"/>
        <path class="cls-91" d="m811.23,565.36c.75-3.14,2.34-5.98,3.1-9.13.2-.81.11-1.63.32-2.43,3.05-1.21,5.99.14,7.18,3.31.25.67.47,1.36.7,2.03-2.59,2.01-5.41,3.69-8.16,5.47-.94.61-2.02.8-3.15.73Z"/>
        <path class="cls-18" d="m836.95,454c-.39,4.16-.75,7.93-1.1,11.7-.04.47-.05.91-.74.65-4.34-1.65-8.69-3.29-13.19-4.99.65-.52,1.16-.4,1.59-.29,2.87.77,5.15-.38,7.24-2.17,1.67-1.44,3.32-2.88,5-4.3.24-.2.56-.29,1.2-.6Z"/>
        <path class="cls-66" d="m835.78,474.35c.14-1.89.23-3.71.41-5.52.07-.76.27-1.42,1.37-.97,2.4.98,4.82,1.87,7.25,2.77.9.33,1.19.87.5,1.56-2.25,2.22-4.68,4.15-8.02,4.44-1.19.1-1.9-.12-1.51-1.53.07-.26.01-.55.01-.74Z"/>
        <path class="cls-78" d="m776.75,418.72c-3.38.39-6.32.73-9.26,1.05-1.48.16-2.97.29-4.45.39-.95.07-1.96.02-2.68-.64-2.49-2.31-5.31-4.34-6.59-7.7-.46-1.2-.72-2.41-.69-3.71.04-1.67.47-1.98,2-1.28.88.4,1.32,1.06,1.4,2.06.49,6.37,2.95,8.83,9.3,9.61,2.72.34,5.35.5,7.96-.62.82-.35,1.83-.26,3.01.85Z"/>
        <path class="cls-18" d="m851.18,525.81c-2.61,0-2.81-.27-2.19-2.19.59-1.83,1.19-3.66,1.71-5.51.24-.83.61-.94,1.29-.52,2.06,1.27,4.12,2.56,6.22,3.76.8.46.74.81.14,1.32-2.21,1.88-4.91,2.59-7.18,3.14Z"/>
        <path class="cls-78" d="m774.74,549.42c-5.26,2.03-6.2,6.31-4.93,10.84.13.46.5.98-.1,1.31-.58.31-1.08-.03-1.42-.51-.44-.63-.9-1.25-1.55-1.69,1.19-3.38,2.23-6.81,2.96-10.32,1.81-2.4,1.88-4.97.7-7.65-.03-.42-.05-.85-.08-1.27.06-.36.13-.71.23-1.3,1.85,3.5,2.91,7.09,4.19,10.59Z"/>
        <path class="cls-12" d="m768.38,417.83c-3.65-.06-6.96-1-9.55-3.76-1.41-1.5-1.22-3.45-1.4-5.28-.05-.49.37-.61.8-.61.77-.01,1.28.37,1.46,1.09.37,1.5.77,2.98,1.71,4.26,1.22,1.67,4.12,2.55,6.03,1.78,1.68-.68,3.25-.77,4.83.41,1.05.78.7,1.23-.14,1.67-1.18.62-2.48.4-3.75.46Z"/>
        <path class="cls-36" d="m827.5,457c2.51-1.48,4.21-3.83,6.27-5.8.43-.41.88-.81,1.33-1.21.79.33,1.62.56,2.35,1.04.1.78-.45,1.21-.95,1.62-2.1,1.77-4.22,3.52-6.33,5.27-2.54,2.1-5.5,2.59-8.66,2.27-.54-.05-1.11-.14-1.27-.82.33-.35.76-.44,1.21-.44,2.24.03,4.16-.91,6.06-1.92Z"/>
        <path class="cls-66" d="m790.26,372.97c3.13.45,6.12,1.48,9.18,2.22.73.18,1.44.45,2.16.67-4.44.07-8.59,1.63-12.87,2.53-.55.12-1.23.43-1.55,0-.37-.48.29-.96.55-1.42.78-1.38,1.91-2.54,2.53-4.02Z"/>
        <path class="cls-50" d="m754.8,542.81c1.64.32,3.27,1.01,4.92,1.62.73.27.37.66.08.99-.83.96-1.67,1.91-2.54,2.84-.81.87-1.86.81-2.74.31-1-.57-1.92-1.41-1.91-2.69.02-1.92.89-3.09,2.19-3.07Z"/>
        <path class="cls-78" d="m825.57,557.11c-1.32-.68-2.25-1.63-2.06-3.24.19-1.61,1.53-2.07,2.8-2.42,1.26-.35,2.53-.77,3.87-.76.21.17.43.32.63.5q1.49,1.43-.3,2.55c-1.18-.44-1.27.62-1.68,1.24-1.08.71-2.17,1.42-3.25,2.13Z"/>
        <path class="cls-64" d="m817.26,539.05c-2.6.11-4.69-.94-6.43-2.81-.49-.52-1.02-1-1.54-1.5-.27-.16-.37-.42-.43-.7-.06-.79.01-1.53.77-2.01,2.54,2.34,5.08,4.68,7.63,7.02Z"/>
        <path class="cls-40" d="m793.27,529.46c-.01.08-.02.17-.02.26-.91,1.03-1.95,1.46-3.27.78-1.86.16-3.62,0-5.04-1.41,2.4-.91,4.83-1.72,7.33-2.27.56.79.88,1.67.99,2.64Z"/>
        <path class="cls-64" d="m779.34,530.75c0,.6.05,1.21-.01,1.81-.11,1.12-.7,2.01-1.74,2.38-1.04.37-2.17.47-3.05-.48-.52-.56-1.02-1.14-1.53-1.7,2.05-.84,4.19-1.42,6.33-2Z"/>
        <path id="streg_ved_hat" data-name="streg ved hat" class="cls-27" d="m854.25,407.5c-.72.08-1.27-.35-1.82-.68-9.08-5.41-18.16-10.84-27.23-16.27-.14-.08-.25-.21-.37-.32.11-.1.22-.2.33-.31,6.88,4.14,13.77,8.26,20.65,12.41,2.83,1.7,5.63,3.44,8.44,5.16Z"/>
        <path id="mønster_på_nederdel" data-name="mønster på nederdel" class="cls-65" d="m827.5,457c-1.98,2.16-4.57,2.41-7.27,2.36.02-1.57,1.07-2.55,2.75-2.24,1.54.28,3.02.22,4.52-.11Z"/>
        <path id="mønster_på_nederdel-2" data-name="mønster på nederdel" class="cls-49" d="m770.4,541.4c1.82,2.21,1.86,5.66-.7,7.65.23-2.55.47-5.1.7-7.65Z"/>
        <path id="streg_ved_ben" data-name="streg ved ben" class="cls-14" d="m849.4,602.23c-1.74-2.54-3.99-4.65-5.93-7.03-.34-.42-.68-.85-1.02-1.28.47-.33.79-.06,1.14.25,2.46,2.15,4.11,5.03,6.49,7.27.97.91-.63.35-.69.79Z"/>
        <path id="mønster_på_nederdel-3" data-name="mønster på nederdel" class="cls-89" d="m793.27,529.46c-.68-.75-1.04-1.62-.99-2.64,1.32-.44,2.63-.88,3.95-1.31-.72,1.51-1.36,3.1-2.96,3.95Z"/>
        <path id="mønster_hårelastik" data-name="mønster hårelastik" class="cls-41" d="m855.37,527.4c-1.14.57-2.1,1.91-3.63.82-.27-.19-.59-.3-.59-.7,0-.42.35-.53.64-.64,1.07-.4,2.15-.77,3.22-1.15,1.05.35.72,1,.36,1.66Z"/>
        <path id="mønster_ærme" data-name="mønster ærme" class="cls-57" d="m762.39,467.28c-.14-1.59,0-3.09,1.31-4.23.77-.11,1.5,0,2.31.45-1.23,1.29-2.42,2.54-3.62,3.79Z"/>
        <path id="mønster_ærme-2" data-name="mønster ærme" class="cls-65" d="m751.4,467.67c2.13.11,3.16,1.02,4.04,3.59-2.21-.22-3.17-1.85-4.04-3.59Z"/>
        <path id="mønster_på_hårelastik" data-name="mønster på hårelastik" class="cls-19" d="m855.37,527.4c-.02-.58.27-1.22-.36-1.66,1.11-.44,2.21-.89,3.32-1.3.31-.11.75-.49.97.07.2.49-.31.63-.61.82-1.1.7-2.22,1.38-3.33,2.07Z"/>
        <path id="mønster_på_nederdel-4" data-name="mønster på nederdel" class="cls-37" d="m809.63,532.03c-.15.7-.29,1.4-.44,2.1-1.76-.91-2.18-2.54-2.31-4.32.01-.12.03-.25.04-.37,1.04.72,1.85,1.68,2.71,2.59Z"/>
        <path id="mønster_på_hårelastik-2" data-name="mønster på hårelastik" class="cls-79" d="m837.45,451.02c-.99.12-1.89.04-2.35-1.04.43-.53.93-1.45,1.54-1.13.61.33,1.04,1.25.81,2.16Z"/>
        <path id="hvid_prik_i_øjet" data-name="hvid prik i øjet" class="cls-80" d="m815.8,408.79c-.49.06-.9-.26-.84-.72.11-.77.66-1.26,1.48-1.28.52-.02.86.24.75.82-.13.73-.53,1.2-1.4,1.19Z"/>
        <path class="cls-71" d="m821.25,542.73c-2.1-.08-2.81-.72-3.02-2.76,1.12.8,2.16,1.69,3.02,2.76Z"/>
        <path id="hvid_prik_i_øjet-2" data-name="hvid prik i øjet" class="cls-69" d="m768.49,413.4c-.41-.38-1.27-.03-1.14-.93.07-.53.26-.98.87-.97.59,0,.85.41.88.96.03.48-.21.77-.61.94Z"/>
        <path id="mønster_på_nederdel-5" data-name="mønster på nederdel" class="cls-8" d="m793.92,565.27c.66-1.02,1.81-1.29,2.51-.54.78.83-.34.43-.47.68-.68-.05-1.36-.09-2.04-.14Z"/>
        <path id="mønster_på_nederdel-6" data-name="mønster på nederdel" class="cls-5" d="m800.25,524.49c.02.65.19,1.44-.73,1.55-.82.1-.96-.53-.92-1.21.52-.28,1.05-.47,1.65-.35Z"/>
        <path id="mønster_på_nederdel-7" data-name="mønster på nederdel" class="cls-32" d="m828.82,554.98c.09-.61-.34-1.4.37-1.8.54-.31,1.06-.06,1.31.57-.44.58-1.06.9-1.68,1.24Z"/>
        <path id="streg_på_hat" data-name="streg på hat" class="cls-66" d="m789.34,372.95c-2.03-.01-4.05-.03-6.08-.04,2.34-.33,4.68-.59,7.02.06-.31,0-.63,0-.94-.01Z"/>
        <path id="streg_på_hat-2" data-name="streg på hat" class="cls-87" d="m783.02,372.92c-.35.8-1.18.77-1.83.98-5.04,1.6-10.08,3.15-15.13,4.7-.43.13-.89.59-1.34.02,5.03-1.75,10.05-3.48,15.08-5.24,1.05-.37,2.11-.61,3.22-.46Z"/>
        <path id="skygge_bag_læber" data-name="skygge bag læber" class="cls-86" d="m798.87,440.39c.97,4.94-2.03,7.73-5.52,10.27-.8.58-1.7.4-2.55.49-2.41.28-4.84.75-7.25.29-3.97-.76-6.8-3.18-8.77-6.64-.44-.77-.44-1.66-.29-2.58.43-2.53.15-3.05-1.98-4.34-.43-.26-.87-.49-1.27-.77-.33-.24-.94-.34-.77-.92.16-.56.66-.19,1-.22,1.78-.12,3.36-.79,4.63-1.99,1.41-1.33,2.99-1.58,4.75-1.17,1.76.42,3.37.25,4.92-.74,1.01-.64,2.12-.53,3.19-.1,2.41.96,4.81,1.92,7.2,2.94,2.31.99,2.81,1.85,2.72,4.31-.01.39,0,.77,0,1.16Z"/>
        <path id="_øjenbryn_højre" data-name="øjenbryn højre" class="cls-90" d="m820.21,399.83c-1.12.16-1.93-.2-2.71-.59-3.45-1.72-6.57-1.01-9.37,1.38-3.08,2.63-5.56,5.83-8.31,8.79-.75.81-1.55,1.57-2.37,2.31-.25.22-.56.69-.97.27-.38-.39.11-.69.21-1.03.03-.1.11-.19.18-.27,3.38-3.72,6.45-7.74,10.32-10.98,4.05-3.38,8.61-3.33,13,.14Z"/>
        <path id="_øjenbryn_venstre" data-name="øjenbryn venstre" class="cls-85" d="m752.8,401.42c1.92-2.62,4.94-3.2,7.32-1.41,3.97,3,7.88,6.07,11.82,9.12.43.33,1.12.74.72,1.29-.44.6-1.01-.09-1.38-.37-3.38-2.59-6.8-5.13-10.04-7.89-1.9-1.62-3.68-2.53-6.1-1.3-.66.33-1.46.36-2.34.57Z"/>
        <path id="mønster_på_nederdel-8" data-name="mønster på nederdel" class="cls-61" d="m806.88,529.81c.72,1.47,1.11,3.11,2.31,4.32.03.2.07.41.1.61-.11,2.28.77,4.3,1.71,6.3,1.3,2.78,3.21,5.29,3.7,8.42.22,1.41.37,2.84-.13,4.23-2.34,1.12-4.35,2.72-6.34,4.36-.95-.18-.73-.96-.73-1.55,0-1.43.62-2.67,1.35-3.85,1.43-2.3,1.64-4.8.98-7.33-.57-2.15-2.02-3.63-4.25-4.21-.34-.13-.63-.32-.88-.59-3.11-4.23-7.31-5.89-12.47-5.24-.65.08-1.31.35-1.91-.15.04-1.14-.25-2.23-.63-3.29-.19-.53-.32-1.01.3-1.34,1.17.09,2.19-.47,3.27-.78,2.87,3.76,7.25,4.24,11.86,1.29.6-.38,1.18-.8,1.76-1.2Z"/>
        <path class="cls-51" d="m790.32,535.13c3.71-.68,7.35-.77,10.71,1.33,1.61,1,3,2.22,3.93,3.91-.4.45-.92.24-1.39.22-4.65-.2-8.08,3.08-8.19,7.75-.03,1.32.22,2.62.18,3.94-.05.18-.15.32-.29.44-1.56,1.64-3.11,3.22-5.69,3.06-1.74-.11-3.2-.64-4.29-2.03.11-.49.5-.72.88-.94,5.16-2.94,5.9-8.76,3.99-13.99-.13-.36-.34-.7-.46-1.07-.21-.84-.15-1.61.53-2.24.03-.13.06-.25.09-.38Z"/>
        <path id="mønster_på_nederdel-9" data-name="mønster på nederdel" class="cls-64" d="m789.98,537.76c2.88,4.91,2.22,13.03-4.69,15.99-.1-.02-.19-.04-.29-.07-2.81-3.71-2.38-7.74-1.18-11.84.14-.47.32-.93.48-1.4.12-.11.26-.16.42-.18,1.79.07,3.3-.46,4.39-1.97.2-.28.37-.71.87-.53Z"/>
        <path id="mønster_på_nederdel-10" data-name="mønster på nederdel" class="cls-31" d="m784.62,540.41c-.11,0-.22.02-.33.03-2.58-.49-3.9-1.95-3.95-4.49-.03-1.41-.52-3.35.66-4.04,1.21-.71,2.76.61,4.02,1.28,1.39.74,2.63,1.77,3.94,2.67-1.42,1.54-3.01,2.93-4.35,4.55Z"/>
        <path id="mønster_på_nederdel-11" data-name="mønster på nederdel" class="cls-67" d="m780.96,554.06c-3,0-4.88-1.46-5.91-4.6.87,0,1.78-.16,2.61.02,1.91.43,3.75,1.38,3.31,4.57Z"/>
        <path id="mønster_på_nederdel-12" data-name="mønster på nederdel" class="cls-13" d="m784.62,540.41c.84-2.1,2.47-3.44,4.35-4.55.42-.12.84-.23,1.26-.35-.12.75-.39,1.48-.25,2.25-.81,1.49-2.03,2.46-3.7,2.84-.58.13-1.16.32-1.66-.2Z"/>
        <path id="mønster_på_nederdel-13" data-name="mønster på nederdel" class="cls-74" d="m779.3,544.76c-.97-.03-1.32-.48-1.29-1.28.03-.77.45-1.3,1.19-1.31.8,0,1.37.55,1.38,1.35.01.85-.62,1.21-1.29,1.24Z"/>
        <path id="mønster_på_nederdel-14" data-name="mønster på nederdel" class="cls-9" d="m815.08,542.4c-.77-.18-1.48-.41-1.51-1.3-.03-.89.46-1.52,1.34-1.53.77,0,1.38.53,1.4,1.33.02.79-.54,1.26-1.24,1.49Z"/>
        <path id="mønster_på_nederdel-15" data-name="mønster på nederdel" class="cls-35" d="m795.27,552.72c.01-.11.02-.23.03-.34.67-1.56,2.03-2.1,3.55-2.35.66-.11,1.34-.16,1.98-.01,3.06.7,5.88-2.27,5.19-5.88-.12-.65-.32-1.29-.54-1.91-.16-.47-.34-.95.03-1.42,2.57.22,3.94,1.95,4.66,4.11.93,2.78.57,5.52-1,8.09-.93,1.53-1.9,3.14-.95,5.06-.23.2-.46.4-.69.59-1.76,1.97-3.7,3.59-6.57,3.42-.13-.02-.25-.03-.38-.05-2.49-2.69-4.22-5.82-5.32-9.3Z"/>
        <path id="mønster_på_nederdel-16" data-name="mønster på nederdel" class="cls-59" d="m800.97,562.07c2.58-.4,4.48-2.09,6.57-3.42.81,1.12.87,2.47.98,3.74.13,1.44-.74,2.23-2.15,2.3-2.28.11-3.93-1.06-5.4-2.62Z"/>
        <path id="mønster_på_nederdel-17" data-name="mønster på nederdel" class="cls-45" d="m781.47,560.7c.63.07,1.1.46,1.09,1.13-.01.73-.5,1.21-1.28,1.17-.74-.03-1.03-.51-1-1.21.02-.73.4-1.09,1.19-1.09Z"/>
        <path id="mønster_på_nederdel-18" data-name="mønster på nederdel" class="cls-34" d="m793.63,559.01c-.81-.01-1.15-.57-1.21-1.16-.07-.69.45-1.09,1.13-1.12.76-.04,1.08.4,1.08,1.12,0,.71-.3,1.14-1.01,1.17Z"/>
        <path id="mønster_på_nederdel-19" data-name="mønster på nederdel" class="cls-33" d="m781.46,557.73c.59.06,1.06.37,1.08.99.02.52-.3.94-.91.95-.59.02-.93-.29-.97-.88-.04-.55.18-.96.8-1.07Z"/>
        <path id="mønster_på_nederdel-20" data-name="mønster på nederdel" class="cls-6" d="m774.3,554.48c.58.09.97.44,1.03,1.06.06.64-.24,1.09-.92,1.12-.67.04-1-.35-1.06-1-.06-.68.3-1.02.95-1.18Z"/>
        <path id="mønster_på_ærme" data-name="mønster på ærme" class="cls-76" d="m757.23,463.71c.8.23,1.45.69,1.5,1.65.05.99-.46,1.59-1.46,1.61-1,.02-1.49-.55-1.55-1.54-.06-1.04.54-1.49,1.51-1.72Z"/>
        <path id="mønster" class="cls-58" d="m818.76,559.22c0,.39-.18.66-.54.69-.44.05-.73-.25-.81-.64-.07-.35.2-.63.54-.68.46-.08.64.29.8.62Z"/>
        <path id="fyld_til_underlæbe" data-name="fyld til underlæbe" class="cls-54" d="m775.93,439.8c1.65,1.13,3.35,1.21,5.16.44.77-.33,1.49.24,2.15.6,1.34.73,2.59.71,3.87-.16,1.23-.84,2.6-.97,4.09-.8,2.14.25,4.38.79,6.39-1.14,0,2.02.05,3.77-.02,5.52-.05,1.35-.82,2.4-1.81,3.23-2.21,1.84-4.6,3.16-7.66,2.62-1.57-.28-3.13.29-4.76.01-5.06-.86-8.19-5.03-7.42-10.32Z"/>
        <path id="fyld_til_overlæbe" data-name="fyld til overlæbe" class="cls-54" d="m773.69,437.28c1.08-.89,2.01-1.65,2.94-2.42,1.12-.93,2.47-1.55,3.83-1.08,1.94.67,3.67.12,5.42-.41,1.58-.48,3-.34,4.47.32,1.9.85,3.83,1.64,5.77,2.4.88.34.89.8.44,1.48-.61.93-1.38,1.55-2.57,1.51-1.54-.06-3.08.03-4.62-.23-1.08-.19-2.16-.12-3.01.88-.72.85-1.71.66-2.58.23-1.27-.62-2.43-.96-3.89-.3-.97.44-2.17.13-3.16-.49-.98-.61-1.97-1.21-3.04-1.87Z"/>
        <path id="mønster_på_nederdel-21" data-name="mønster på nederdel" class="cls-68" d="m805.52,540.8c.36,1.54,1.08,2.97,1.08,4.63,0,2.58-2.39,5.67-5.61,5.03-2.2-.43-4.13.29-5.69,1.92-.45-1.95-.64-3.94-.19-5.87,1.08-4.65,4.95-7,9.85-6.13.19.14.37.28.56.42Z"/>
        <path id="mønster_på_nederdel-22" data-name="mønster på nederdel" class="cls-38" d="m805.13,533.77c.74.08,1.12.44,1.09,1.09-.03.7-.43,1.18-1.14,1.11-.56-.05-1.1-.39-1.06-1.07.04-.69.51-1.05,1.11-1.14Z"/>
        <path id="mønster_på_nederdel-23" data-name="mønster på nederdel" class="cls-47" d="m806.76,538.7c-.16-.02-.43-.21-.41-.6.02-.37.28-.61.66-.54.36.06.56.35.52.72-.03.3-.23.48-.77.43Z"/>
        <path id="mønster_på_nederdel-24" data-name="mønster på nederdel" class="cls-77" d="m797.65,539.06c0,.98-.49,1.42-1.44,1.41-.98-.02-1.59-.48-1.59-1.5,0-1,.57-1.54,1.56-1.53,1.03.01,1.44.66,1.47,1.62Z"/>
      </g>
    </g>
  </g>
</svg>