<?xml version="1.0" encoding="UTF-8"?>
<svg id="Layer_2" data-name="Layer 2" xmlns="http://www.w3.org/2000/svg" viewBox="0 0 93 42">
  <defs>
    <style>
      .cls-1 {
        fill: #c499a2;
        stroke-width: 0px;
      }
    </style>
  </defs>
  <g id="lotus">
    <path class="cls-1" d="m2.34,1.84c-.39.27-.97.74-1.45,1.49C.09,4.56,0,5.8,0,6.34c.04,8.47.08,16.95.11,25.42-.05.34-.23,1.89.77,3.35,1.12,1.64,2.87,1.89,3.15,1.93,27.06,1.65,54.12,3.31,81.18,4.96.72.02,3.09,0,5.16-1.76,1.1-.93,1.71-2,2.02-2.69.2-9.66.4-19.32.6-28.97-.19-.76-.61-2.01-1.63-3.19-1.98-2.31-4.69-2.57-5.35-2.61C60.35,1.85,34.67.92,8.99,0c-1.14.11-2.29.23-3.43.34"/>
  </g>
</svg>