<?xml version="1.0" encoding="UTF-8"?>
<svg id="Layer_2" data-name="Layer 2" xmlns="http://www.w3.org/2000/svg" viewBox="0 0 127 69.01">
  <defs>
    <style>
      .cls-1, .cls-2, .cls-3, .cls-4, .cls-5 {
        stroke-width: 0px;
      }

      .cls-2 {
        fill: #d65d82;
      }

      .cls-3 {
        fill: #ff71a3;
      }

      .cls-4 {
        fill: #fff;
      }

      .cls-5 {
        fill: #ec779b;
      }
    </style>
  </defs>
  <g id="Layer_2-2" data-name="Layer 2">
    <g id="lotus">
      <g id="tid">
        <path class="cls-1" d="m126.65,26.19c0,4.26.04,8.53,0,12.79-.07,6.28-2.39,11.65-7.23,15.62-5.13,4.21-10.47,8.17-15.86,12.03-2.83,2.03-6.18,2.56-9.7,2.33-14.41-.96-28.83-1.73-43.24-2.76-14.4-1.03-28.79-2.25-43.18-3.45-4.96-.42-6.75-2.16-6.91-7.12C.21,45.65-.04,35.68,0,25.71c.02-4.76,2.04-8.92,6.18-11.58,4.61-2.97,9.33-5.76,14.09-8.48,4.94-2.83,10.44-2.31,15.85-2.48,2.54-.08,5.2-.35,7.55-1.22C46.98.7,50.28-.07,53.79,0c11.55.3,23.1.61,34.65.94,1.08.03,2.17.16,3.22.41.57.14,1.45.54,1.52.95.39,2.09,1.88,2.01,3.45,2.1,8,.49,16,1.02,23.99,1.58,4.07.29,6.3,2.65,6.35,6.75.06,4.48.01,8.96.01,13.44h-.34.01Zm-20.98,37.74c5.38-4.42,10.44-8.43,15.32-12.65,1.04-.9,1.87-1.89,2.53-2.97.32-.53,1.64-2.83,1.92-7.65.14-2.48-.07-4.32-.16-5.19-.45-4.48.1-6.41.42-22.33.02-1.15.04-3.19-1.31-4.65-.93-1.01-2.4-1.53-4.53-1.69-5.75-.43-11.5-.92-17.26-1.13-4.19-.15-8.38-.8-12.49,1.38-4.9,2.61-10.1,4.62-15.87,4.36-2.09-.09-4.18-.02-6.28-.08-10.74-.34-21.49-.68-32.23-1.13-.74-.03-1.81-.86-2.08-1.57-.41-1.07-.59-2.45.97-3.13.55-.24,1.02-.67,1.53-1.01-4.33-.67-8.74-1.29-12.53.72-6.17,3.26-12,7.16-17.97,10.8-.55.34-1.08.71-1.61,1.07,1.46-.19,3.67-.45,6.38-.69,15.31-1.35,21.45.37,39.58,1.29,24.37,1.24,36.53,1.41,38.72,1.5,3.01.13,6.05.41,9.02.93,4.6.81,7.96,5.31,7.94,9.98-.05,11.02-.02,22.03-.02,33.83h0ZM52.69,19.1v.2c-10.68-.36-21.35-.77-32.03-1.05-4.24-.11-8.53-.23-12.73.26-4.17.5-6.72,4.12-6.66,8.33.04,2.74.13,5.49.13,8.23,0,6.36-.06,12.72,0,19.07.05,4.64,2.37,7.59,6.1,7.87,9.64.71,19.29,1.4,28.94,2.04,13.18.88,26.35,1.73,39.53,2.55,6.63.41,13.26.81,19.89,1.08,4.16.17,7.74-3.01,7.79-6.8.14-10.11.26-20.22.27-30.34,0-5.54-3.53-9.21-9.05-9.48-14.06-.7-28.12-1.32-42.17-1.98v.02Zm-14.63-13.23c.72.28.85.37.99.38,12.1.37,24.2.71,36.29,1.12,2.15.07,4.04-.2,5.9-1.48,1.51-1.04,3.39-1.54,5.11-2.29.6-.26,1.19-.53,1.79-.79-.04-.18-.08-.36-.12-.55-.75-.05-1.51-.12-2.26-.15-10.6-.32-21.2-.51-31.79-1.01-3.33-.16-6.32-.03-9.23,1.86-1.88,1.22-4.15,1.83-6.67,2.9h0Zm-3.08,1.77c.02.29.03.58.05.86.66.09,1.33.25,1.99.27,6.05.21,12.11.4,18.16.58,7.42.22,14.85.45,22.28.61.55.01,1.11-.55,1.67-.84-.53-.31-1.06-.89-1.61-.9-13.55-.32-27.1-.59-40.65-.85-.63-.01-1.26.18-1.89.27Zm57.14-3.68c-.09-.23-.18-.47-.28-.7-3.82,1.67-8.2,2.11-11.59,4.75.12.26.23.53.35.79,3.84-1.61,7.68-3.23,11.51-4.84h0Z"/>
        <path class="cls-3" d="m105.67,63.93c0-11.8-.04-22.82.02-33.83.02-4.67-3.34-9.17-7.94-9.98-2.97-.52-6-.81-9.02-.93-12.9-.55-25.81-1.02-38.72-1.5-13.12-.48-26.25-1-39.38-1.35-2.02-.05-4.06.69-6.58.75.54-.36,1.06-.74,1.61-1.07,5.97-3.64,11.81-7.54,17.97-10.8,3.79-2.01,8.2-1.39,12.53-.72-.51.34-.98.77-1.53,1.01-1.57.68-1.38,2.06-.97,3.13.27.71,1.33,1.54,2.08,1.57,10.74.45,21.48.79,32.23,1.13,2.09.07,4.19,0,6.28.08,5.76.26,10.97-1.75,15.87-4.36,4.1-2.19,8.29-1.53,12.49-1.38,5.76.21,11.51.7,17.26,1.13,4.25.32,5.87,2.08,5.84,6.35-.08,9.17-.31,18.34-.27,27.52.02,4.27-1.29,7.88-4.45,10.61-4.88,4.22-9.94,8.23-15.32,12.65h0Z"/>
        <path id="tid-2" class="cls-2" d="m34.99,7.63c.63-.09,1.26-.28,1.89-.27,13.55.26,27.1.52,40.65.85.54.01,1.07.59,1.61.9-.56.3-1.12.86-1.67.84-7.43-.16-14.85-.39-22.28-.61-6.06-.18-12.11-.37-18.16-.58-.67-.02-1.33-.18-1.99-.27-.02-.29-.03-.58-.05-.86Z"/>
        <path id="tid-3" class="cls-2" d="m92.13,3.95c-3.84,1.61-7.68,3.23-11.51,4.84-.12-.26-.23-.53-.35-.79,3.39-2.65,7.77-3.08,11.59-4.75.09.23.18.47.28.7h-.01Z"/>
        <path id="tid-4" class="cls-5" d="m38.07,5.86c2.53-1.07,4.79-1.69,6.67-2.9,2.91-1.89,5.9-2.02,9.23-1.86,10.59.5,21.19.69,31.79,1.01.76.02,1.51.1,2.26.15.04.18.08.36.12.55-.6.26-1.19.53-1.79.79-1.72.75-3.59,1.25-5.11,2.29-1.86,1.28-3.75,1.55-5.9,1.48-12.1-.41-24.2-.75-36.29-1.12-.13,0-.26-.1-.99-.38h.01Z"/>
      </g>
    </g>
    <g id="lotus-2" data-name="lotus">
      <path class="cls-4" d="m3.87,19.4c-.43.33-1.08.9-1.61,1.81-.89,1.49-.99,3-.99,3.65.04,10.28.09,20.58.12,30.86-.06.41-.26,2.29.85,4.07,1.24,1.99,3.19,2.29,3.5,2.34,30.03,2,60.06,4.02,90.09,6.02.8.02,3.43,0,5.73-2.14,1.22-1.13,1.9-2.43,2.24-3.27.22-11.73.44-23.46.67-35.17-.21-.92-.68-2.44-1.81-3.87-2.2-2.8-5.2-3.12-5.94-3.17-28.48-1.13-56.98-2.26-85.48-3.38-1.27.13-2.54.28-3.81.41"/>
    </g>
  </g>
</svg>